<svg width="107" height="77" viewBox="0 0 107 77" fill="none" xmlns="http://www.w3.org/2000/svg">
<path d="M105.865 64.0091C105.114 61.1658 101.647 57.0108 102.068 51.4595C102.49 45.9103 106.206 33.2324 105.241 27.821C104.277 22.4096 99.4407 6.49976 86.9367 4.09364C74.4382 1.68852 65.4614 5.68101 60.6675 5.42481C55.8769 5.1676 55.0054 0.866757 49.7098 0.92241C42.8743 0.997617 41.6975 4.36639 36.8647 6.17337C33.3211 7.49952 22.2224 7.48347 22.2224 7.48347C22.2224 7.48347 19.047 2.56393 18.0792 4.36639C17.1114 6.16986 15.8682 10.7625 15.8682 10.7625C15.8682 10.7625 9.92789 13.2218 9.37769 14.5369C8.82706 15.852 8.07121 17.9844 8.07121 17.9844C8.07121 17.9844 1.77996 19.9483 1.08999 21.7518C0.40044 23.5542 3.8541 27.8164 4.95831 29.2965C6.06252 30.7761 18.9077 31.1 20.9434 32.8809C22.9783 34.6643 28.6771 36.0025 31.8597 36.6513C37.8325 37.8721 40.4577 51.9599 41.9757 67.5413C40.1794 69.3478 37.0032 70.9472 36.8313 75.9219H56.3034C56.3034 75.9219 56.5623 72.6007 56.8925 68.4879C57.2176 64.3751 63.1077 48.8072 63.1077 48.8072C63.1077 48.8072 67.3873 52.7436 70.2895 52.9125C70.0167 56.0266 71.2405 59.3397 71.2405 59.3397C71.2405 59.3397 73.747 62.9141 76.1834 65.7429C71.7231 67.9269 71.8532 71.779 71.8532 71.779L88.3825 71.9314C88.3825 71.9314 90.039 67.8346 90.039 64.5516C92.2542 68.327 96.5338 69.802 96.5338 69.802L93.8719 75.9219H103.972C103.979 75.9179 106.617 66.8499 105.865 64.0091ZM13.0269 18.8412C12.3001 18.8412 11.7149 18.1418 11.7149 17.2829C11.7149 16.4261 12.3001 15.7237 13.0269 15.7237C13.7493 15.7237 14.3401 16.4221 14.3401 17.2829C14.3401 18.1498 13.746 18.8412 13.0269 18.8412Z" fill="white" stroke="#FF6600"/>
</svg>
