<svg width="93" height="98" viewBox="0 0 93 98" fill="none" xmlns="http://www.w3.org/2000/svg">
<path fill-rule="evenodd" clip-rule="evenodd" d="M54.0075 86.2703L55.9418 88.6175C56.4959 88.645 57.2454 88.7276 58.0596 88.9461C58.9825 89.1922 59.9972 89.5855 60.8794 90.2557C61.0799 90.4079 61.2873 90.56 61.4624 90.7494C61.8533 91.1735 62.2255 91.6203 62.4431 92.2014C62.6114 92.6482 62.7643 93.0658 62.7745 93.5936C62.7881 94.2637 62.7099 94.8125 62.4635 95.5862C62.4652 95.5895 62.4618 95.5927 62.4584 95.5927C62.4567 95.5927 62.4533 95.5911 62.4533 95.5879C62.0284 94.8837 61.6 94.5146 61.1275 94.0322C60.9219 93.8218 60.7094 93.6664 60.4986 93.5159L60.3712 93.4268C60.2879 93.3669 60.2029 93.307 60.1196 93.2439C60.1043 93.231 60.0873 93.218 60.072 93.2067C60.2403 93.5903 60.3746 93.974 60.4086 94.3868C60.4799 95.2479 60.412 95.9634 59.9887 96.7323C59.9615 96.9492 59.7542 97.103 59.5264 97.0771C59.3004 97.0496 59.1372 96.8537 59.1661 96.6368C59.0063 96.0023 58.5763 95.6397 58.1548 95.1298C58.0069 94.9517 57.8386 94.8109 57.6857 94.6328C57.4613 94.3689 57.2165 94.1277 56.9803 93.8768C56.4959 93.3669 55.9707 92.9105 55.5067 92.543C55.4455 92.6693 55.3894 92.8004 55.3486 92.9364C55.301 93.095 55.2041 93.2358 55.1939 93.3977C55.1888 93.4641 55.1225 93.511 55.1191 93.5774V93.5855C55.1157 93.702 55.0036 93.783 55.0239 93.906C55.0783 94.2459 54.9968 94.5211 55.2466 94.9015C55.4455 95.01 55.5135 95.2512 55.3996 95.4406C55.2857 95.6299 55.0324 95.6947 54.8336 95.5862C53.9837 95.5555 53.5962 95.2463 53.0761 94.895C52.9129 94.785 52.8483 94.636 52.726 94.492C52.4693 94.1893 52.3962 93.8283 52.3045 93.456C52.109 92.6693 52.3486 91.8178 52.6155 91.0796C52.7209 90.785 52.8483 90.5115 52.9775 90.2686L51.5022 88.4767C51.6416 88.3407 51.7096 88.1853 51.73 88.1076C52.1277 86.6702 53.8087 86.3383 53.8087 86.3383C53.8784 86.3238 53.9446 86.3011 54.0075 86.2703ZM65.0045 85.3169L67.0152 87.4974C67.588 87.3565 68.3308 87.2124 69.1365 87.1558C70.3024 87.0749 71.601 87.1089 72.6752 87.5848C73.1715 87.8049 73.6423 88.0542 74.0044 88.4459C74.176 88.6305 74.3528 88.7923 74.4735 89.019C74.8542 89.7312 75.1245 90.4661 74.9664 91.5377C75.0089 91.7514 74.8593 91.9586 74.6332 91.9975C74.4089 92.0363 74.1913 91.8939 74.1505 91.6802C73.9381 91.3322 73.695 91.1379 73.4537 90.8967C73.2446 90.6895 73.0015 90.6167 72.7755 90.4856L72.7568 90.4742C72.444 90.2913 72.0939 90.2913 71.7438 90.2249C71.5551 90.1877 71.363 90.1667 71.1693 90.157L71.1727 90.1634C71.3902 90.5001 71.6027 90.8255 71.6656 91.2253C71.6945 91.4147 71.7557 91.5734 71.7336 91.7692C71.6656 92.4151 71.6061 92.9509 71.0741 93.6146C71.0248 93.8267 70.8038 93.9626 70.5795 93.9157C70.3568 93.8688 70.2141 93.6567 70.2633 93.4446C70.1818 93.1484 70.0373 93.0027 69.9149 92.768C69.8163 92.5754 69.6413 92.5106 69.5223 92.3552C69.3761 92.1626 69.1348 92.1189 68.9512 91.9732C68.6639 91.7498 68.3223 91.609 67.9926 91.4649C67.5846 91.2868 67.1733 91.1622 66.8419 91.0813C66.7569 91.1622 66.6702 91.2512 66.5903 91.3484C66.4934 91.4617 66.3609 91.5636 66.3218 91.7061C66.3099 91.753 66.2079 91.7692 66.2283 91.8243C66.3456 92.1496 66.3983 92.5187 66.796 92.9817C66.9829 93.1986 67.0696 93.388 67.2957 93.6437C67.5082 93.7247 67.6101 93.9562 67.5251 94.1585C67.4385 94.3592 67.1971 94.458 66.9846 94.3754C66.1076 94.424 65.5994 94.3317 65.0198 94.1893C64.8175 94.1391 64.6765 94.0436 64.515 93.9594C63.6601 93.511 63.3915 92.7858 63.2164 92.1755C62.9513 91.2529 63.3541 90.314 63.8793 89.5435C63.9507 89.4399 64.0255 89.3395 64.102 89.2456L62.5009 87.5071L64.8243 85.5338C64.894 85.4723 64.9535 85.4027 65.0011 85.3234L65.0045 85.3169Z" fill="white" stroke="#FF6600"/>
<path fill-rule="evenodd" clip-rule="evenodd" d="M43.9929 68.27C42.985 69.319 41.5743 70.5023 39.997 70.9847C39.9851 70.9895 39.9715 70.9928 39.9579 70.996C39.9579 70.996 25.6924 74.6366 19.2914 77.4872C18.5095 77.8352 17.8501 78.1687 17.3588 78.4827C17.1957 78.5863 17.0291 78.7255 16.905 78.8372C16.9441 78.8534 16.9832 78.868 17.0206 78.8793C17.4404 79.0088 17.6869 79.42 17.5883 79.8295L17.5832 79.8506C17.5543 79.9736 17.3181 80.9902 17.4149 81.9954C17.4642 82.5069 17.5764 83.033 17.952 83.3519C18.1067 83.4814 18.3073 83.5624 18.5605 83.5931C18.5894 83.5656 18.62 83.5397 18.654 83.517L27.5757 77.2023C27.9513 76.9352 28.485 77.0097 28.7638 77.369C29.0442 77.7268 28.966 78.235 28.5887 78.5005L19.9271 84.6323C20.1752 85.1342 20.6239 85.9193 21.246 86.5085C21.7542 86.9876 22.395 87.3535 23.1718 87.0718L23.199 87.0621C23.2432 87.0459 23.2874 87.033 23.3315 87.0249L29.2023 81.9468C29.2822 81.8789 29.3722 81.8254 29.4725 81.7882C29.7173 81.7008 29.9994 81.7267 30.2221 81.8578C30.302 81.9048 30.3717 81.9646 30.4311 82.0326C30.4906 82.1039 30.5399 82.1832 30.5722 82.269C30.6079 82.3629 30.6249 82.4648 30.6232 82.5652C30.6198 82.6688 30.596 82.7724 30.5535 82.8679C30.5059 82.9731 30.4328 83.067 30.3445 83.1447L24.7848 87.954C25.5649 88.6096 27.1236 89.4918 29.4096 88.833L34.0668 83.6595C34.1382 83.5818 34.2197 83.517 34.3149 83.4701C34.5461 83.3535 34.8299 83.3454 35.0679 83.4507C35.1529 83.4879 35.2311 83.5381 35.299 83.5996C35.367 83.6611 35.4248 83.7356 35.469 83.8149C35.5166 83.9055 35.5472 84.0043 35.5574 84.1046C35.5693 84.2082 35.5591 84.3135 35.5285 84.4122C35.4945 84.5239 35.435 84.6243 35.3585 84.7117L31.2317 89.296C31.3592 89.5307 31.6464 89.9435 32.1733 90.1717C32.7461 90.421 33.5637 90.4242 34.7212 89.9321C34.7195 89.7751 34.7653 89.6165 34.8639 89.4756C35.4384 88.6533 39.2797 83.2596 39.2797 83.2596C39.5432 82.8906 40.0718 82.7934 40.461 83.0444C40.8485 83.2953 40.9505 83.7987 40.6871 84.1694C40.6871 84.1694 36.9341 89.4368 36.2985 90.3449C36.8594 90.5942 37.7262 90.85 38.6525 90.6331C39.3341 90.4744 40.0344 90.0454 40.682 89.1924C43.3097 85.725 44.9295 83.1269 44.9295 83.1269C44.9686 83.0638 45.0162 83.0071 45.0689 82.9586C44.8173 82.3305 44.5861 81.636 44.3856 80.8688C43.6207 77.9291 43.2995 73.8644 43.9929 68.27Z" fill="white" stroke="#FF6600"/>
<path fill-rule="evenodd" clip-rule="evenodd" d="M61.4198 42.7925L61.3909 42.7747C61.3909 42.7747 46.3827 32.6688 41.3023 22.0547L34.0056 16.9686C32.3926 16.6853 22.2216 14.4514 4.91713 0.870117C6.31087 3.64789 8.92329 7.72552 13.0739 10.1585C13.4326 10.3689 13.5753 10.7979 13.4105 11.167C13.2439 11.5361 12.819 11.7319 12.411 11.6299C12.411 11.6299 6.04572 10.0128 1.13532 5.7555C2.58006 8.8198 5.82986 13.3928 13.0212 16.967C13.3765 17.1434 13.5549 17.5319 13.4479 17.901C13.3408 18.2684 12.9787 18.5145 12.5793 18.4918C12.5793 18.4918 5.85025 18.0888 0.924561 15.1054C2.54096 17.7715 6.49614 21.7682 16.0382 23.7301C16.3492 23.7949 16.5957 24.0182 16.679 24.3112C16.7622 24.6042 16.6654 24.9166 16.4291 25.1206C16.4291 25.1206 14.1719 27.068 11.8349 27.9664C11.2842 28.1784 10.7301 28.329 10.193 28.397C10.606 28.7013 11.1006 29.0008 11.6836 29.2581C13.3969 30.0157 15.8512 30.4139 19.2693 29.7114C19.531 29.658 19.8047 29.726 20.007 29.8943C20.2092 30.061 20.3163 30.3103 20.2959 30.5661C20.2959 30.5661 20.0036 34.4381 16.1181 36.0569C16.3747 36.1734 16.6552 36.2835 16.9577 36.379C18.2767 36.7983 19.9985 36.9229 21.6047 35.6846C21.9378 35.4272 22.4222 35.4482 22.7316 35.7331C23.0392 36.018 23.0749 36.4794 22.8148 36.8047C22.8148 36.8047 21.9089 37.9217 21.6964 39.0419C21.5996 39.555 21.6777 40.0811 22.3185 40.3676C22.5055 40.4502 22.6534 40.5926 22.7366 40.7723C22.7366 40.7723 24.5842 44.7868 28.7739 43.8981C29.0068 43.8495 29.2499 43.8949 29.4453 44.026C29.6408 44.1555 29.77 44.3578 29.8005 44.5812C29.8005 44.5812 29.962 45.7111 30.5943 46.7665C31.1603 47.7103 32.1444 48.6054 33.8441 48.3351C34.2962 48.2623 34.7279 48.5455 34.818 48.9745C34.818 48.9745 35.0577 50.1028 35.8089 51.1566C36.5075 52.1375 37.682 53.057 39.5975 52.777C40.0293 52.7138 40.4423 52.9728 40.5494 53.3775C40.5494 53.3775 41.236 55.9432 43.5731 57.2755C45.164 58.182 47.5028 58.4652 50.8818 57.1039C51.3135 56.9307 51.8115 57.1233 51.9951 57.5345C52.1769 57.9456 51.9747 58.4215 51.543 58.5947C49.9741 59.2277 48.5889 59.5466 47.3702 59.6372C42.9612 77.2945 46.5323 83.9007 49.2382 86.1799C49.6444 86.523 50.0846 86.7642 50.4059 86.9148C50.9702 85.8998 51.9424 85.3284 52.6342 85.0322C52.0393 82.3677 52.3214 81.8351 53.0846 80.4802C53.3905 79.938 53.7933 79.2419 54.2692 78.1395C54.7129 77.1084 55.0647 76.0611 55.3401 75.0882C55.3452 74.9716 55.3774 74.8567 55.4318 74.7531C56.0641 72.4156 56.2528 70.5881 56.2528 70.5881C56.2987 70.1429 56.7134 69.8175 57.1808 69.8612C57.6482 69.9049 57.9899 70.3015 57.944 70.7467C57.944 70.7467 57.8216 71.9381 57.446 73.6491C67.6594 68.5096 70.1902 57.9553 70.1902 57.9553L70.2667 57.7578C70.3619 57.5863 70.4588 57.4195 70.5608 57.256C70.5574 57.2139 70.5557 57.1702 70.5591 57.1265L70.7698 54.08L67.554 53.9279C67.0458 53.8858 66.66 53.4503 66.7637 52.9615C66.7908 52.8304 66.852 52.7171 66.9353 52.6118L68.9749 50.3278L66.0124 49.0409C65.4345 48.8191 65.2764 48.1328 65.7081 47.7022L68.2135 45.355L65.5297 43.1065L61.8363 42.9204L61.8108 42.9188C61.7564 42.9155 61.702 42.9058 61.6493 42.8912L61.5949 42.8751L61.5558 42.8605C61.5082 42.8411 61.4623 42.8184 61.4198 42.7925Z" fill="white" stroke="#FF6600"/>
<path fill-rule="evenodd" clip-rule="evenodd" d="M64.5439 70.5688C62.5434 72.5227 60.0414 74.3438 56.9259 75.6954C56.863 75.9156 56.795 76.1406 56.7236 76.3656C56.7253 76.3721 56.7253 76.3785 56.727 76.385C57.8352 84.223 60.5632 85.8774 61.4675 86.2157L63.3065 84.6536C62.4635 81.2008 63.7535 78.9524 64.0527 78.4942C65.6521 74.7242 65.0385 71.8962 64.5439 70.5688Z" fill="white" stroke="#FF6600"/>
<path fill-rule="evenodd" clip-rule="evenodd" d="M68.2696 43.2456L70.0237 44.7138C70.2005 44.8627 70.3041 45.0748 70.3109 45.2982C70.3177 45.5232 70.2259 45.7401 70.0577 45.8987L67.86 47.9578L70.7613 48.9614C71.3018 49.167 71.4837 49.7886 71.1319 50.2305L69.3047 52.3899L71.7183 52.5049C71.9443 52.5162 72.1585 52.6133 72.3098 52.7752C72.461 52.9371 72.5375 53.1507 72.5239 53.366L72.41 55.001C73.8327 53.6558 75.5154 52.7266 77.1811 52.0921C78.6207 51.5433 80.045 51.2131 81.2637 51.0172C80.9663 50.857 80.7878 50.5348 80.8405 50.1949C80.9085 49.753 81.3419 49.447 81.8059 49.5118C85.2818 50.0007 86.9696 51.26 87.8143 52.3608C87.8721 52.4369 87.9248 52.5113 87.9758 52.5858C88.3395 51.5223 88.3531 50.674 88.1712 50.0023C87.8908 48.9533 87.1446 48.4046 86.8404 48.2184C86.7588 48.2087 86.6772 48.1893 86.6007 48.1585C86.3968 48.0776 86.2319 47.9206 86.1469 47.7247C86.1214 47.6664 86.1061 47.6065 86.0891 47.545C86.0772 47.5013 86.0636 47.4576 86.05 47.4139C86.0058 47.2731 85.9532 47.1355 85.892 46.9995C85.6557 46.4653 85.3005 45.9845 84.862 45.5815C84.76 45.4876 84.6512 45.3969 84.5407 45.3111C83.7062 44.6653 82.6779 44.2832 81.636 44.0647C81.4524 44.0275 81.2688 43.9935 81.0836 43.9643C80.8524 43.9287 80.6212 43.8996 80.3867 43.8753C80.1164 43.8478 79.8428 43.83 79.5708 43.817L68.2696 43.2456Z" fill="white" stroke="#FF6600"/>
<path fill-rule="evenodd" clip-rule="evenodd" d="M80.2252 42.2341C80.2541 42.1467 80.3017 42.0609 80.3663 41.9832L89.7435 30.6163C89.7486 30.6098 89.7537 30.605 89.7588 30.5985C89.7588 30.5985 93.6952 26.0417 91.1933 19.3239C89.8438 15.7012 88.62 13.1063 87.9758 10.8028C87.505 9.11447 87.3299 7.5718 87.6053 5.91906C86.322 7.20111 84.9453 9.50135 85.6455 13.2051C85.7203 13.6016 85.479 13.9901 85.0778 14.1164C84.6784 14.2443 84.2399 14.0727 84.0495 13.7133C84.0495 13.7133 81.1906 8.25491 80.4649 4.09473C79.8666 4.76651 79.2088 5.76366 78.959 7.07161C78.6071 8.90889 79.0796 11.3224 81.4592 14.3139C81.6564 14.5632 81.687 14.8966 81.5374 15.1735C81.3878 15.4503 81.0853 15.6202 80.7589 15.6121C80.7589 15.6121 78.1873 15.5441 76.1001 14.5988C75.8179 14.4709 75.5443 14.3268 75.2859 14.1666C75.7296 15.5004 76.6185 16.9249 78.3777 17.7861C78.6785 17.9318 78.8587 18.2345 78.8383 18.555C78.8179 18.8755 78.6003 19.154 78.2842 19.2657C78.2842 19.2657 77.6162 19.5004 77.0842 19.9617C76.8411 20.1705 76.61 20.4279 76.5743 20.7581C76.5505 20.9702 76.6168 21.2033 76.7749 21.4655C76.9873 21.8136 76.8972 22.2571 76.5658 22.5064C76.5658 22.5064 75.3216 23.51 75.8876 25.4849C75.9828 25.82 75.8434 26.1777 75.5392 26.372C75.5392 26.372 73.9857 27.3481 73.1766 28.5411C72.8027 29.0915 72.5613 29.7066 73.1103 30.2294C73.3058 30.414 73.3942 30.6795 73.3466 30.9385C73.3007 31.1975 73.1239 31.4192 72.8741 31.5325C72.8741 31.5325 71.3002 32.2335 70.4452 33.182C70.2209 33.4297 70.0254 33.6839 70.0475 33.9623C70.0577 34.1128 70.1529 34.2537 70.3092 34.4042C70.4809 34.5661 70.571 34.7895 70.5574 35.0193C70.5438 35.2492 70.4299 35.4629 70.2413 35.6069C70.2413 35.6069 68.5161 36.9295 67.1852 38.4915C66.7654 38.9853 66.383 39.5033 66.1212 40.0099C65.9105 40.4162 65.7694 40.808 65.8051 41.1625C65.8153 41.279 65.8017 41.394 65.7643 41.4976L79.6558 42.2001C79.8411 42.2082 80.0281 42.2195 80.2133 42.2341H80.2252Z" fill="white" stroke="#FF6600"/>
</svg>
