<svg width="70" height="90" viewBox="0 0 70 90" fill="none" xmlns="http://www.w3.org/2000/svg">
<path d="M10.4642 89.4146C10.7909 89.443 11.1424 89.4572 11.5082 89.4572C12.981 89.4572 14.6731 89.2335 15.8557 88.8589C16.106 88.7807 16.3102 88.5978 16.415 88.3564C18.5554 83.4629 20.2813 78.9831 21.9503 74.6508C24.868 67.0762 27.6508 59.8949 32.1235 51.9404C35.5522 58.8407 37.8532 64.9155 40.2635 71.3109C42.0888 76.1529 43.9753 81.1582 46.4638 86.7956C46.5916 87.0851 46.8615 87.2875 47.1749 87.3283L48.0991 87.4579C49.3979 87.6444 50.7287 87.8344 52.0488 87.8344C52.5753 87.8344 53.1 87.8042 53.6202 87.7314C55.6825 87.4402 56.304 86.4672 56.462 85.7037C56.6715 84.7005 56.0776 83.6263 55.0522 83.1522C54.1893 82.7491 53.2571 82.8379 52.6295 82.932C50.8397 83.2179 49.12 84.0204 47.7511 85.2047C45.4659 79.9597 43.6877 75.2402 41.9654 70.6699C39.3954 63.8531 36.9635 57.4078 33.1447 49.91C33.1616 49.8243 33.1801 49.7386 33.171 49.6472C33.0645 48.5836 32.6845 44.1376 32.3045 39.6951C32.0444 36.6532 31.7865 33.64 31.6143 31.6836C36.6727 33.2006 41.1273 33.9849 44.8818 33.9849C46.225 33.9849 47.4812 33.8873 48.6469 33.692C49.4432 33.5588 50.3399 33.3244 50.9507 32.6071C51.9396 31.4423 51.5144 29.807 51.3102 29.0204C49.6794 22.7545 47.8408 15.6877 43.2047 10.3841C43.3157 10.1976 43.3708 9.98279 43.393 9.77505C43.4249 9.70935 43.4533 9.63833 43.4791 9.56731C43.6158 9.18024 43.6362 8.79139 43.5536 8.4416C43.5599 8.13265 43.4098 7.82903 43.1311 7.65147C43.124 7.64792 43.1169 7.64437 43.1098 7.63904C43.0059 7.53606 42.886 7.44551 42.7511 7.37271C41.7417 6.82228 40.9879 6.81163 40.5059 7.34607C40.3149 7.5587 40.2414 7.80461 40.2162 8.05608C38.0678 5.36543 34.8744 3.54947 30.9817 2.89295C29.0314 2.56314 27.1618 2.91426 25.4733 3.64978C24.4749 3.99447 23.4615 4.50295 22.3626 5.25667C19.424 7.27283 17.2528 10.3978 16.285 13.7967C15.1584 17.7536 15.6625 22.082 18.4845 25.4646C21.2004 28.7199 25.4886 30.2034 29.6315 29.9497C29.6332 29.9655 29.6359 29.9959 29.6375 30.013C24.7778 31.9293 18.9963 34.3365 15.3168 38.4327C13.2589 40.7268 12.5247 42.829 13.1328 44.6809C13.6513 46.2576 15.1685 47.4757 17.0932 47.8592C18.3051 48.1007 20.6701 48.1326 22.3844 48.0084C22.2726 48.4807 22.3392 48.9654 22.578 49.3667C22.8896 49.8887 23.4862 50.2154 24.136 50.2154H24.1387C24.7708 50.2154 25.3292 49.9135 25.6328 49.4057C26.1069 48.6121 25.537 47.6195 25.2706 47.2307C24.9981 46.8312 24.2621 45.9043 23.3424 46.0783C22.0196 46.2967 18.7481 46.334 17.4484 46.0765C16.185 45.8244 15.1694 45.0538 14.8605 44.1128C14.4698 42.9231 15.0789 41.421 16.6698 39.6472C19.9505 35.9962 25.2368 33.7153 29.8085 31.9017C29.9803 33.8544 30.2358 36.8374 30.4935 39.8496C30.8645 44.1896 31.2336 48.5068 31.3509 49.7145C31.2811 49.7773 31.2122 49.8421 31.1628 49.9277C26.2419 58.4523 23.3326 66.0037 20.2538 73.9973C18.7303 77.9515 17.1589 82.03 15.2715 86.4228C13.7694 85.8138 12.127 85.5332 10.4935 85.6238C9.1236 85.7001 8.21007 86.4086 8.16657 87.4313C8.12218 88.4913 9.04548 89.2885 10.4642 89.4146ZM49.5506 29.4785C49.7442 30.2243 49.8977 31.0393 49.5648 31.4299C49.334 31.7015 48.8191 31.8187 48.3468 31.8986C44.0552 32.6142 38.3823 31.8969 31.4816 29.7591C31.4675 29.7546 31.4536 29.7584 31.4395 29.7546C31.4394 29.7531 31.4391 29.75 31.4389 29.7484C31.4385 29.744 31.4357 29.7404 31.4352 29.736C33.2079 29.402 34.8921 28.7181 36.3707 27.7198C37.8202 26.9381 39.1313 25.9079 40.1703 24.6295C42.8971 21.2732 43.6993 16.5431 42.4659 12.3869C46.3493 17.2917 48.0537 23.7248 49.5506 29.4785ZM39.8835 10.7871C42.0542 14.7751 41.5916 19.997 38.7587 23.4824C36.3241 26.4767 32.2154 27.9768 28.44 27.4351C27.2403 27.2116 26.0694 26.8387 24.9952 26.2421C24.6908 26.0732 24.3945 25.8903 24.107 25.6948C24.1064 25.6944 24.1057 25.6939 24.1052 25.6935C23.8777 25.539 23.6602 25.3703 23.444 25.2003C20.9324 23.1278 19.2927 19.9313 19.3553 16.7246C19.4059 14.1323 19.7628 11.9057 21.3404 9.46433C22.3261 7.93867 23.6522 6.70643 25.1144 5.86015C26.3266 6.36152 27.4004 7.17074 28.1834 8.22853C28.2731 8.34927 28.4107 8.41319 28.5492 8.41319C28.6433 8.41319 28.7383 8.38478 28.82 8.32441C29.0215 8.17526 29.0641 7.8894 28.915 7.68876C28.1817 6.69844 27.2164 5.90875 26.1317 5.33924C26.8127 5.04116 27.5124 4.83675 28.2123 4.71601C29.5213 5.59625 30.6491 6.73705 31.4771 8.08116C31.5632 8.22143 31.7124 8.29778 31.8642 8.29778C31.9459 8.29778 32.0284 8.27647 32.103 8.23031C32.3161 8.09891 32.3827 7.81837 32.2513 7.60531C31.5431 6.45496 30.6291 5.444 29.5818 4.59505C29.9516 4.59794 30.3183 4.62546 30.679 4.68627C30.9155 4.72622 31.1381 4.78748 31.3687 4.83675C32.7754 5.83396 33.8974 7.24576 34.5258 8.85176C34.5959 9.03109 34.7672 9.14117 34.9492 9.14117C35.0043 9.14117 35.0602 9.13052 35.1144 9.10921C35.3487 9.01866 35.4642 8.7541 35.3727 8.5215C34.9189 7.36028 34.2149 6.30604 33.3609 5.39473C36.2505 6.4361 38.5229 8.28846 39.8835 10.7871Z" fill="#FF6600"/>
<path d="M22.3496 12.7472C22.1631 12.9141 22.148 13.2017 22.3158 13.3881C22.4064 13.4876 22.5298 13.5391 22.6541 13.5391C22.7624 13.5391 22.8716 13.5 22.9586 13.4219C23.1086 13.2865 23.2489 13.2101 23.3941 13.1018C23.4906 13.3575 23.6965 13.5826 23.9876 13.6913C24.5526 13.9026 25.3033 13.6349 25.5266 13.1424C25.6276 12.9198 25.5985 12.6752 25.4956 12.4564C25.8228 12.5194 26.1502 12.638 26.4831 12.8555C26.6917 12.994 26.974 12.9354 27.1125 12.7241C27.2492 12.5146 27.1906 12.2322 26.9802 12.0955C25.4603 11.0994 23.944 11.3125 22.3496 12.7472Z" fill="#FF6600"/>
<path d="M32.2717 10.9166C32.079 11.0764 32.0515 11.3622 32.2122 11.5558C32.3019 11.6641 32.4315 11.7209 32.562 11.7209C32.6641 11.7209 32.7671 11.6872 32.8523 11.6161C33.0849 11.4235 33.3168 11.2874 33.5487 11.1563C33.5014 11.5602 33.7474 11.9899 34.1892 12.155C34.7542 12.3661 35.505 12.0982 35.7283 11.6059C35.8511 11.3349 35.789 11.0338 35.6198 10.7858C35.8899 10.8436 36.1612 10.9277 36.4354 11.0657C36.6582 11.1723 36.9316 11.087 37.0453 10.8633C37.158 10.6396 37.0684 10.3661 36.8438 10.2525C35.2892 9.47304 33.7498 9.69321 32.2717 10.9166Z" fill="#FF6600"/>
<path d="M24.5624 18.2749L24.3893 18.3601C23.4534 18.8939 23.4132 20.4719 24.3205 21.053C25.2279 21.634 26.644 20.9371 26.7375 19.8638C26.831 18.7904 25.5565 17.8596 24.5624 18.2749Z" fill="#FF6600"/>
<path d="M53.0019 7.23051C53.1457 7.13463 53.3073 7.04585 53.4715 6.9553C54.1427 6.58243 55.0624 6.07284 55.2604 4.97731C55.4921 3.68825 54.7739 2.33172 54.0077 1.61616C53.0116 0.685764 51.5175 0.321773 50.2009 0.676886C48.8861 1.03733 47.7879 2.1151 47.4026 3.42369C47.2606 3.90665 47.5358 4.41091 48.0178 4.55295C48.499 4.695 49.0051 4.41978 49.1462 3.93861C49.3548 3.23015 49.971 2.62469 50.6803 2.43115C51.3879 2.23228 52.2295 2.44358 52.7666 2.94429C53.2442 3.38996 53.5603 4.15878 53.4706 4.65416C53.4262 4.90096 53.001 5.13711 52.5899 5.36439C52.3795 5.48157 52.1727 5.59699 51.9889 5.72128C50.2355 6.8967 49.338 9.23513 49.8538 11.2824C49.9577 11.6943 50.3279 11.9695 50.7345 11.9695C50.8082 11.9695 50.8827 11.9606 50.9573 11.9411C51.4447 11.8186 51.7394 11.325 51.6169 10.8385C51.2822 9.51034 51.8646 7.994 53.0019 7.23051Z" fill="#FF6600"/>
<path d="M50.8838 12.3C50.4648 12.165 50.012 12.3479 49.8034 12.735C49.7048 12.9197 49.6436 13.1203 49.6178 13.3227C49.4287 13.6246 49.4269 14.0223 49.6445 14.3312L49.9907 14.8266C50.1665 15.0787 50.4488 15.2155 50.7373 15.2155C50.8971 15.2155 51.0587 15.1729 51.2052 15.0859C51.7059 14.784 51.9722 14.2123 51.9003 13.5926C51.8284 12.9729 51.4387 12.4775 50.8838 12.3Z" fill="#FF6600"/>
<path d="M5.4695 8.38089C5.76602 8.78927 5.54408 9.67173 5.34876 10.453C5.19962 11.046 5.04603 11.6586 5.05668 12.2321C5.08864 13.8638 6.18151 15.3979 7.71293 15.9643C7.8168 16.0034 7.92334 16.0212 8.0281 16.0212C8.39742 16.0212 8.74543 15.7939 8.88037 15.4281C9.05526 14.9558 8.81379 14.4338 8.34326 14.2598C7.50963 13.9508 6.89262 13.0844 6.87487 12.1966C6.86865 11.8663 6.98673 11.394 7.1119 10.8951C7.39067 9.78714 7.7369 8.40753 6.93967 7.312C5.81751 5.76903 3.23673 5.76193 1.76656 6.78466C0.300825 7.80028 -0.33394 9.8262 0.289284 11.497C0.646173 12.454 1.35995 13.1004 2.19891 13.2229C2.68985 13.2815 3.15771 12.9512 3.22962 12.454C3.30242 11.9569 2.95885 11.4952 2.46169 11.4224C2.30544 11.4011 2.10391 11.1597 1.99294 10.8614C1.65647 9.96115 2.01159 8.82656 2.8026 8.27969C3.52437 7.77898 5.00075 7.73814 5.4695 8.38089Z" fill="#FF6600"/>
<path d="M9.30043 18.5873C9.40519 18.6476 9.51972 18.6956 9.64134 18.7275C9.76297 18.7595 9.88548 18.7755 10.0062 18.7755C10.3391 18.7755 10.6579 18.6547 10.9011 18.4292C10.9721 18.3636 11.0298 18.289 11.0742 18.2091C11.2837 17.9427 11.3335 17.5717 11.1763 17.2503L10.8638 16.6128C10.7324 16.343 10.4759 16.1547 10.1785 16.1104C9.86506 16.0695 9.5428 16.1405 9.2738 16.3145C8.96574 16.3838 8.70295 16.6111 8.60352 16.9342L8.47746 17.3408C8.35849 17.7226 8.50498 18.1381 8.83701 18.3618C8.98172 18.4594 9.13797 18.5358 9.30043 18.5873Z" fill="#FF6600"/>
<path d="M66.2519 11.7246C65.7708 11.9021 65.2709 12.0211 64.772 12.1418C64.1825 12.2839 63.5735 12.4313 62.9725 12.6639C61.4162 13.2622 60.3677 14.34 60.0961 15.6202C59.9922 16.1102 60.3056 16.5932 60.7974 16.698C60.8604 16.7104 60.9244 16.7175 60.9865 16.7175C61.4064 16.7175 61.7846 16.4245 61.8752 15.9966C62.0137 15.3414 62.6688 14.7289 63.6268 14.3613C64.1364 14.1642 64.6681 14.0382 65.1999 13.9085C65.7663 13.7718 66.3327 13.6333 66.8787 13.4327C67.4638 13.2178 69.408 12.3798 69.8652 10.622C70.2949 8.97601 68.9792 7.21465 68.0497 6.49377C66.8619 5.57225 65.2807 5.23134 63.8212 5.59533C63.1616 5.75691 62.6333 6.04455 62.248 6.44938C61.7029 7.02999 61.4996 7.85385 61.7305 8.54988C61.8876 9.02573 62.4025 9.28496 62.8793 9.12694C63.356 8.96891 63.6143 8.454 63.4563 7.97814C63.4421 7.93553 63.4696 7.80591 63.57 7.6976C63.7067 7.55378 63.9437 7.43659 64.2562 7.36025C65.1671 7.13297 66.1934 7.35492 66.9338 7.92843C67.6227 8.46465 68.2708 9.53354 68.1056 10.1639C67.9183 10.883 66.9897 11.4547 66.2519 11.7246Z" fill="#FF6600"/>
<path d="M59.3958 17.463C58.975 17.5695 58.698 17.9548 58.7104 18.3721C58.6989 18.3863 58.6874 18.4023 58.6758 18.4183C58.382 18.8266 58.5036 19.3575 58.9111 19.6523C59.0727 19.7695 59.2839 19.8085 59.4544 19.8103C59.4917 19.8334 59.5299 19.8547 59.5698 19.8742C59.7287 19.9506 59.8974 19.9896 60.0652 19.9896C60.2419 19.9896 60.4168 19.947 60.5783 19.8618C61.0213 19.6292 61.2424 19.1356 61.1288 18.6331C61.0719 18.3827 60.9388 18.1626 60.7594 17.9939C60.6866 17.8447 60.5774 17.7116 60.4372 17.6086C60.241 17.463 59.9933 17.4009 59.7545 17.4452C59.6373 17.4275 59.5174 17.4328 59.3958 17.463Z" fill="#FF6600"/>
</svg>
