<svg width="80" height="57" viewBox="0 0 80 57" fill="none" xmlns="http://www.w3.org/2000/svg">
<path d="M9 7.5C9 5.64348 9.7375 3.86301 11.0503 2.55025C12.363 1.2375 14.1435 0.5 16 0.5C17.8565 0.5 19.637 1.2375 20.9497 2.55025C22.2625 3.86301 23 5.64348 23 7.5C23 9.35652 22.2625 11.137 20.9497 12.4497C19.637 13.7625 17.8565 14.5 16 14.5C14.1435 14.5 12.363 13.7625 11.0503 12.4497C9.7375 11.137 9 9.35652 9 7.5ZM8 27.2125C6.75 28.6125 6 30.475 6 32.5C6 34.525 6.75 36.3875 8 37.7875V27.2125ZM26.05 21.05C22.3375 24.3375 20 29.15 20 34.5C20 38.7875 21.5 42.725 24 45.8125V48.5C24 50.7125 22.2125 52.5 20 52.5H12C9.7875 52.5 8 50.7125 8 48.5V45.15C3.275 42.9 0 38.0875 0 32.5C0 24.7625 6.2625 18.5 14 18.5H18C21 18.5 23.775 19.4375 26.05 21.0375V21.05ZM56 48.5V45.8125C58.5 42.725 60 38.7875 60 34.5C60 29.15 57.6625 24.3375 53.95 21.0375C56.225 19.4375 59 18.5 62 18.5H66C73.7375 18.5 80 24.7625 80 32.5C80 38.0875 76.725 42.9 72 45.15V48.5C72 50.7125 70.2125 52.5 68 52.5H60C57.7875 52.5 56 50.7125 56 48.5ZM57 7.5C57 5.64348 57.7375 3.86301 59.0503 2.55025C60.363 1.2375 62.1435 0.5 64 0.5C65.8565 0.5 67.637 1.2375 68.9497 2.55025C70.2625 3.86301 71 5.64348 71 7.5C71 9.35652 70.2625 11.137 68.9497 12.4497C67.637 13.7625 65.8565 14.5 64 14.5C62.1435 14.5 60.363 13.7625 59.0503 12.4497C57.7375 11.137 57 9.35652 57 7.5ZM72 27.2125V37.8C73.25 36.3875 74 34.5375 74 32.5125C74 30.4875 73.25 28.625 72 27.225V27.2125ZM40 0.5C42.1217 0.5 44.1566 1.34285 45.6569 2.84315C47.1571 4.34344 48 6.37827 48 8.5C48 10.6217 47.1571 12.6566 45.6569 14.1569C44.1566 15.6571 42.1217 16.5 40 16.5C37.8783 16.5 35.8434 15.6571 34.3431 14.1569C32.8429 12.6566 32 10.6217 32 8.5C32 6.37827 32.8429 4.34344 34.3431 2.84315C35.8434 1.34285 37.8783 0.5 40 0.5ZM30 34.5C30 36.525 30.75 38.375 32 39.7875V29.2125C30.75 30.625 30 32.475 30 34.5ZM48 29.2125V39.8C49.25 38.3875 50 36.5375 50 34.5125C50 32.4875 49.25 30.625 48 29.225V29.2125ZM56 34.5C56 40.0875 52.725 44.9 48 47.15V52.5C48 54.7125 46.2125 56.5 44 56.5H36C33.7875 56.5 32 54.7125 32 52.5V47.15C27.275 44.9 24 40.0875 24 34.5C24 26.7625 30.2625 20.5 38 20.5H42C49.7375 20.5 56 26.7625 56 34.5Z" fill="#FF6600"/>
</svg>
