<svg width="77" height="79" viewBox="0 0 77 79" fill="none" xmlns="http://www.w3.org/2000/svg">
<path d="M75.7043 13.9137C75.7043 10.5946 73.0009 7.89648 69.6786 7.89648C66.3562 7.89648 63.6528 10.5946 63.6528 13.9137C63.6528 17.2328 66.3562 19.931 69.6786 19.931C73.0009 19.931 75.7043 17.2328 75.7043 13.9137Z" fill="white" stroke="#FF6600"/>
<path d="M69.6787 6.13793C70.717 6.13793 71.5601 5.29721 71.5601 4.25862V2.87931C71.5601 1.84072 70.717 1 69.6787 1C68.6404 1 67.7972 1.84072 67.7972 2.87931V4.25862C67.7972 5.29721 68.6404 6.13793 69.6787 6.13793Z" fill="white" stroke="#FF6600"/>
<path d="M61.5108 8.41607L61.5107 8.41604L60.5342 7.44078C60.5341 7.44075 60.5341 7.44073 60.5341 7.4407C59.7989 6.70675 59.7989 5.51649 60.5341 4.78256L61.5108 8.41607ZM61.5108 8.41607C61.8781 8.78283 62.3603 8.96621 62.8409 8.96621M61.5108 8.41607L62.8409 8.96621M62.8802 5.09705L63.1942 4.78256L64.171 5.75785C64.171 5.75787 64.171 5.75789 64.171 5.7579C64.9063 6.49185 64.9063 7.68213 64.171 8.41607L62.8802 5.09705ZM62.8802 5.09705L63.1942 4.78256C62.4596 4.04906 61.2688 4.04904 60.5342 4.7825L62.8802 5.09705ZM62.8409 8.96621C63.3215 8.96621 63.8037 8.78284 64.171 8.41613L62.8409 8.96621Z" fill="white" stroke="#FF6600"/>
<path d="M58.6272 15.7933H60.0086C61.0469 15.7933 61.89 14.9526 61.89 13.914C61.89 12.8754 61.0469 12.0347 60.0086 12.0347H58.6272C57.5888 12.0347 56.7457 12.8754 56.7457 13.914C56.7457 14.9526 57.5888 15.7933 58.6272 15.7933Z" fill="white" stroke="#FF6600"/>
<path d="M61.8627 19.7639L61.5108 19.4115C62.2455 18.678 63.4364 18.6779 64.171 19.4114L61.8627 19.7639ZM61.8627 19.7639L61.5108 19.4115L60.534 20.3868M61.8627 19.7639L60.534 20.3868M60.534 20.3868C60.534 20.3868 60.534 20.3868 60.534 20.3868M60.534 20.3868L60.534 20.3868M60.534 20.3868C59.7987 21.1208 59.7987 22.311 60.534 23.045L60.534 20.3868ZM60.534 23.045C60.9013 23.4117 61.3835 23.5951 61.8641 23.5951C62.3447 23.5951 62.8269 23.4117 63.1942 23.045L62.9116 22.7619L63.1942 23.045L64.171 22.0697C64.9063 21.3358 64.9064 20.1454 64.1711 19.4115L60.534 23.045Z" fill="white" stroke="#FF6600"/>
<path d="M67.7972 23.5688V24.9481C67.7972 25.9867 68.6404 26.8274 69.6787 26.8274C70.717 26.8274 71.5601 25.9867 71.5601 24.9481V23.5688C71.5601 22.5302 70.717 21.6895 69.6787 21.6895C68.6404 21.6895 67.7972 22.5302 67.7972 23.5688Z" fill="white" stroke="#FF6600"/>
<path d="M75.1864 22.0697C74.4511 21.3358 74.4511 20.1454 75.1863 19.4115L75.1864 22.0697ZM75.1864 22.0697L76.1632 23.045L76.5165 22.6912M75.1864 22.0697L76.5165 22.6912M76.5165 22.6912L76.1632 23.045C76.5305 23.4117 77.0127 23.5951 77.4933 23.5951M76.5165 22.6912L77.4933 23.5951M77.4933 23.5951C77.9739 23.5951 78.4561 23.4117 78.8234 23.045L77.4933 23.5951ZM78.8234 23.045C79.5587 22.311 79.5587 21.1208 78.8234 20.3868C78.8234 20.3868 78.8234 20.3868 78.8234 20.3868L77.8466 19.4115L77.4933 19.7653L77.8466 19.4115C77.1119 18.678 75.921 18.6779 75.1864 19.4114L78.8234 23.045Z" fill="white" stroke="#FF6600"/>
<path d="M77.4673 13.914C77.4673 14.9526 78.3104 15.7933 79.3487 15.7933H80.7302C81.7685 15.7933 82.6116 14.9526 82.6116 13.914C82.6116 12.8754 81.7685 12.0347 80.7302 12.0347H79.3487C78.3104 12.0347 77.4673 12.8754 77.4673 13.914Z" fill="white" stroke="#FF6600"/>
<path d="M77.8465 8.41607C77.4792 8.78285 76.9968 8.96621 76.5164 8.96621C76.0361 8.96621 75.5537 8.78292 75.1865 8.41613L77.8465 8.41607ZM77.8465 8.41607L77.4933 8.06225M77.8465 8.41607L77.4933 8.06225M77.4933 8.06225L77.8465 8.41607L78.8233 7.44078M77.4933 8.06225L78.8233 7.44078M78.8233 7.44078C78.8233 7.44076 78.8234 7.44075 78.8234 7.44073M78.8233 7.44078L78.8234 7.44073M78.8234 7.44073C79.5586 6.70678 79.5586 5.5165 78.8234 4.78256L78.8234 7.44073ZM78.8233 4.7825C78.0887 4.04904 76.8979 4.04906 76.1633 4.78256L75.1865 5.75785C75.1865 5.75787 75.1865 5.75789 75.1864 5.7579C74.4512 6.49181 74.4512 7.68201 75.1863 8.41596L78.8233 4.7825Z" fill="white" stroke="#FF6600"/>
<path d="M19.9491 66.8274H20.8995L20.3611 66.0441L19.4452 64.7117L19.4452 64.7117C18.8375 63.8278 18.2966 62.9098 17.8225 61.9652L17.6841 61.6895H17.3756H9.92261H9.37149L9.42497 62.238C9.56198 63.6434 9.77738 65.0424 10.0715 66.431L10.1555 66.8274H10.5607H19.9491Z" fill="white" stroke="#FF6600"/>
<path d="M10.5431 48.6733L10.543 48.6735C10.2103 49.9284 9.94287 51.1899 9.73823 52.4545L9.64441 53.0344H10.2318H14.9033H15.4212L15.403 52.5168C15.3557 51.1732 15.4275 49.8189 15.6204 48.4671L15.7018 47.8965H15.1254H11.1403H10.7594L10.6582 48.2636C10.6459 48.3083 10.6307 48.3616 10.6145 48.418C10.5903 48.5027 10.5641 48.5943 10.5431 48.6733Z" fill="white" stroke="#FF6600"/>
<path d="M13.6162 76.6559L13.7996 77.0925L14.2456 76.9329C17.7518 75.6782 21.3225 74.6768 24.9426 73.9356L25.6817 73.7843L25.2543 73.1625L22.2573 68.8027L22.1083 68.5859H21.8453H11.2538H10.5874L10.7737 69.2257C11.1908 70.658 11.6914 72.0756 12.2785 73.4732L12.2786 73.4733L13.6162 76.6559Z" fill="white" stroke="#FF6600"/>
<path d="M26.8541 29.5861C28.6554 29.5861 30.1169 28.1279 30.1169 26.3275C30.1169 24.5271 28.6554 23.0688 26.8541 23.0688C25.0528 23.0688 23.5912 24.5271 23.5912 26.3275C23.5912 28.1279 25.0528 29.5861 26.8541 29.5861Z" fill="white" stroke="#FF6600"/>
<path d="M31.0049 30.1321L30.6868 29.6228L30.2435 30.0279C29.3486 30.8459 28.1589 31.3447 26.8541 31.3447C26.422 31.3447 26.0028 31.29 25.603 31.1875L25.0182 31.0375L24.9799 31.6401C24.9759 31.703 24.9727 31.772 24.9727 31.8447C24.9727 33.6426 26.4367 35.1033 28.2355 35.1033C30.0343 35.1033 31.4984 33.6426 31.4984 31.8447C31.4984 31.214 31.3148 30.6282 31.0049 30.1321Z" fill="white" stroke="#FF6600"/>
<path d="M11.5433 45.469L11.3032 46.1379H12.0139H15.6894H16.0731L16.1724 45.7673C16.5475 44.3663 17.0528 43.0115 17.6796 41.7181L18.0276 41H17.2297H13.7827H13.4735L13.3353 41.2766C12.6588 42.6314 12.0598 44.0299 11.5433 45.469Z" fill="white" stroke="#FF6600"/>
<path d="M20.4755 15.1281C20.4211 14.8449 20.231 14.6062 19.9664 14.4894L19.9664 14.4894L14.9476 12.2747L14.4286 12.0457L14.721 11.5596L16.3509 8.84984C16.3509 8.84981 16.3509 8.84978 16.3509 8.84975C16.4896 8.6191 16.5149 8.3381 16.4197 8.08653L20.4755 15.1281ZM20.4755 15.1281C20.5298 15.4112 20.4417 15.7029 20.2395 15.9088L20.2394 15.9089L19.7667 16.3903L19.3432 16.8217L19.8464 17.1568C21.1663 18.0355 22.386 18.9722 23.4762 19.9401L23.9288 20.342L24.238 19.8217C24.9065 18.6968 25.6964 17.5452 26.5921 16.3892L26.7737 16.1549L26.6551 15.8831C26.1315 14.6824 25.518 13.4696 24.8193 12.2694C22.568 8.40233 18.8902 5.87128 16.2329 4.43583L16.2329 4.43581C15.3355 3.95116 14.2029 3.94482 13.139 4.34539L13.3151 4.81334M20.4755 15.1281L15.9953 4.87575C15.2524 4.47454 14.2754 4.45178 13.3151 4.81334M13.3151 4.81334C12.9398 4.95463 12.5911 5.14594 12.2808 5.37605L13.1389 4.3454M13.3151 4.81334L13.1389 4.3454M13.1389 4.3454C12.5057 4.58378 11.9384 4.95046 11.4821 5.40524L10.8983 5.98716M13.1389 4.3454L10.8983 5.98716M10.8983 5.98716L11.6841 6.23604M10.8983 5.98716L11.6841 6.23604M11.6841 6.23604L15.8619 7.55914M11.6841 6.23604L15.8619 7.55914M15.8619 7.55914C16.1191 7.64058 16.3245 7.83509 16.4197 8.08646L15.8619 7.55914Z" fill="white" stroke="#FF6600"/>
<path d="M29.5844 22.1189L30.2316 22.539L30.3506 21.7766C30.4065 21.4184 30.6805 21.1192 31.0549 21.0477C31.0549 21.0477 31.055 21.0477 31.055 21.0477L36.9445 19.9244L37.5799 19.8032L37.3025 19.2189L36.2048 16.9064L36.2047 16.9064C36.0881 16.6606 36.092 16.3749 36.2153 16.1322C36.3386 15.8897 36.5676 15.7176 36.8358 15.6663C36.8359 15.6663 36.8359 15.6663 36.8359 15.6663L43.1286 14.4663L43.6178 14.3731L43.5265 13.8835L42.8791 10.413C42.8336 10.1689 42.8936 9.91695 43.0445 9.71935C43.1955 9.52163 43.4232 9.39684 43.6716 9.37603L43.6717 9.37603L48.8616 8.94034L49.5288 8.88432L49.2856 8.26047C49.0311 7.60777 48.597 7.02837 48.0183 6.58073C47.3301 6.04835 46.5135 5.76416 45.6834 5.76416C45.3671 5.76416 45.0503 5.8056 44.7397 5.88903L44.7393 5.88914C41.4533 6.77457 36.7097 8.57544 32.8923 12.1287L32.8923 12.1287C29.9601 14.8582 27.5066 17.8018 25.8328 20.5849L25.3145 21.4467L26.3144 21.3398C26.4931 21.3206 26.6729 21.3103 26.8542 21.3103C27.8606 21.3103 28.7973 21.608 29.5844 22.1189Z" fill="white" stroke="#FF6600"/>
<path d="M41.1884 20.0555L41.1884 20.0555C40.8375 20.1025 40.4901 20.1534 40.1455 20.2059L39.7928 20.2597L39.729 20.6107C39.7129 20.6992 39.6866 20.7796 39.65 20.8516L39.65 20.8517C39.5267 21.0942 39.2976 21.2664 39.0293 21.3177C39.0293 21.3177 39.0293 21.3177 39.0292 21.3177L32.7365 22.5177L32.2474 22.6109L32.3387 23.1005L32.732 25.2098L32.8389 25.7828L33.389 25.59C33.5802 25.5229 33.7922 25.5208 33.992 25.5959C33.9921 25.5959 33.9921 25.5959 33.9921 25.5959L39.848 27.7992L40.385 28.0013L40.5117 27.4416L41.0363 25.1237C41.0924 24.8757 41.2533 24.664 41.4777 24.5433C41.7022 24.4226 41.9685 24.4048 42.2071 24.4945C42.2071 24.4945 42.2072 24.4946 42.2072 24.4946L48.4303 26.8361L48.8344 26.9881L49.0437 26.6105L50.7087 23.6067L50.7087 23.6067C50.9364 23.1958 51.4481 23.0355 51.8706 23.244L51.8707 23.2441L56.7073 25.6298L57.2143 25.8799L57.4006 25.3462C57.6003 24.7737 57.6175 24.1671 57.4428 23.5749L57.4427 23.5748C57.1268 22.5044 56.2546 21.7149 55.1132 21.3726L55.1132 21.3726C51.7764 20.3722 46.6409 19.3243 41.1884 20.0555Z" fill="white" stroke="#FF6600"/>
<path d="M32.8255 26.1451L33.2109 25.4501L32.4181 25.4035C32.418 25.4035 32.4178 25.4035 32.4176 25.4035L32.4116 25.403C32.4063 25.4026 32.3948 25.4018 32.3814 25.4013L31.8232 25.3794L31.8631 25.9366L31.865 25.9612L31.8664 25.98L31.9864 27.6581L32.8024 26.1868L32.8255 26.1451Z" fill="white" stroke="#FF6600"/>
<path d="M22.9791 31.8936L23.2054 31.7598L23.2235 31.4975C23.2502 31.1103 23.3209 30.7355 23.4309 30.378L23.5196 30.0896L23.3058 29.8767C22.3927 28.9671 21.8284 27.7119 21.8284 26.3276V25.8276H21.3284C19.5296 25.8276 18.0656 27.2884 18.0656 29.0863C18.0656 30.8842 19.5296 32.3449 21.3284 32.3449C21.9308 32.3449 22.4952 32.1796 22.9791 31.8936Z" fill="white" stroke="#FF6600"/>
<path d="M18.8078 39.2416H19.0755L19.2239 39.0188C20.2314 37.5065 21.4222 36.1091 22.7796 34.8573L24.1014 33.6382L22.3401 33.9999C22.0123 34.0672 21.6742 34.1037 21.3284 34.1037C20.4835 34.1037 19.688 33.8937 18.9885 33.5246L18.6334 33.3372L18.3738 33.6434C17.0819 35.1669 15.9154 36.7828 14.881 38.4816L14.4183 39.2416H15.3081H18.8078Z" fill="white" stroke="#FF6600"/>
<path d="M9.25612 59.4425L9.26744 59.9309H9.75598H16.205H16.9104L16.6768 59.2653C16.2143 57.9472 15.8735 56.5924 15.6594 55.2161L15.5936 54.793H15.1653H9.88912H9.43089L9.39101 55.2495C9.2689 56.6473 9.22374 58.0464 9.25612 59.4425Z" fill="white" stroke="#FF6600"/>
<path d="M48.457 47.704V49.0886C48.457 49.7444 48.9905 50.2755 49.645 50.2755H56.5575C57.2124 50.2755 57.7455 49.744 57.7455 49.0886V47.704C57.7455 47.0482 57.2121 46.5171 56.5575 46.5171H49.645C48.9904 46.5171 48.457 47.0485 48.457 47.704Z" fill="white" stroke="#FF6600"/>
<path d="M44.8127 63.0688H44.3127V63.5688V66.3275V66.8275H44.8127H47.5756H48.0756V66.3275V63.5688V63.0688H47.5756H44.8127Z" fill="white" stroke="#FF6600"/>
<path d="M44.8127 57.5518H44.3127V58.0518V60.8104V61.3104H44.8127H47.5756H48.0756V60.8104V58.0518V57.5518H47.5756H44.8127Z" fill="white" stroke="#FF6600"/>
<path d="M53.1014 31.4485L53.3247 31.56L79.381 44.5681C79.6681 44.7114 79.8482 45.0023 79.849 45.3225L79.849 45.3239V48.3652C79.849 48.7519 79.6169 48.9795 79.448 49.0838C79.2782 49.1888 78.971 49.2934 78.6258 49.121L53.4961 36.5755C53.3719 36.5135 53.2367 36.4825 53.1016 36.4825C52.9664 36.4825 52.8313 36.5135 52.7071 36.5755L27.5774 49.121L27.5771 49.1211C27.2329 49.2928 26.9263 49.1895 26.7559 49.0843L53.1014 31.4485ZM53.1014 31.4485L52.8781 31.56M53.1014 31.4485L52.8781 31.56M52.8781 31.56L26.8216 44.5681M52.8781 31.56L26.8216 44.5681M26.8216 44.5681C26.5342 44.7115 26.3541 45.0031 26.3541 45.3239M26.8216 44.5681L26.3541 45.3239M26.3541 45.3239V48.3652M26.3541 45.3239V48.3652M26.3541 48.3652C26.3541 48.7507 26.5848 48.9786 26.7547 49.0836L26.3541 48.3652Z" fill="white" stroke="#FF6600"/>
<path d="M32.1566 48.8021L31.8799 48.9402V49.2494V72.2822V72.8375L32.4322 72.7794C35.1595 72.4926 37.9068 72.3453 40.6685 72.3453C46.2353 72.3453 51.7436 72.9348 57.1406 74.095L57.7457 74.225V73.6061V60.8108C57.7457 60.3259 58.1397 59.9315 58.6272 59.9315H69.6787C70.1661 59.9315 70.5601 60.3259 70.5601 60.8108V77.8527V78.2015L70.8875 78.3219L73.6503 79.3383L74.323 79.5857V78.869V49.2496V48.9404L74.0463 48.8022L53.3248 38.4574L53.1014 38.3459L52.8781 38.4574L32.1566 48.8021ZM49.8386 67.7073C49.8386 68.1922 49.4446 68.5866 48.9571 68.5866H37.9056C37.4181 68.5866 37.0242 68.1922 37.0242 67.7073V56.6729C37.0242 56.188 37.4181 55.7936 37.9056 55.7936H48.9571C49.4446 55.7936 49.8386 56.188 49.8386 56.6729V67.7073ZM59.5086 47.7046V49.0893C59.5086 50.7124 58.1851 52.0348 56.5578 52.0348H49.6452C48.0177 52.0348 46.6944 50.7122 46.6944 49.0893V47.7046C46.6944 46.0815 48.0179 44.7591 49.6452 44.7591H56.5578C58.1851 44.7591 59.5086 46.0816 59.5086 47.7046Z" fill="white" stroke="#FF6600"/>
<path d="M68.1246 77.3049L68.7972 77.5522V76.8356V62.1895V61.6895H68.2972H60.0085H59.5085V62.1895V69.086V74.2508V74.6401L59.8859 74.7355C62.5395 75.407 65.1636 76.2157 67.7503 77.1673L67.7504 77.1673L68.1246 77.3049ZM60.5085 69.086C60.5085 68.6011 60.9025 68.2067 61.39 68.2067H62.7714C63.2589 68.2067 63.6529 68.6011 63.6529 69.086C63.6529 69.5709 63.2589 69.9653 62.7714 69.9653H61.39C60.9025 69.9653 60.5085 69.5709 60.5085 69.086Z" fill="white" stroke="#FF6600"/>
<path d="M13.5467 21.6001L13.5469 21.6001C13.8338 21.5672 14.1192 21.6772 14.31 21.8944C14.5005 22.1115 14.5721 22.4078 14.502 22.6872C14.5019 22.6872 14.5019 22.6873 14.5019 22.6873L13.9418 24.9184L13.7659 25.6189L14.4834 25.537L18.1422 25.1194L18.2729 25.1045L18.3793 25.0272C19.2088 24.4247 20.227 24.0686 21.3284 24.0686C21.5003 24.0686 21.6734 24.0808 21.8526 24.0997L22.2536 24.1419L22.3798 23.759C22.5346 23.2896 22.7227 22.8025 22.9452 22.2985L23.0882 21.9743L22.8298 21.7319C21.1049 20.1137 18.9807 18.5717 16.6109 17.2347L16.379 17.6458L16.6109 17.2347C12.7106 15.0343 8.25607 14.7076 5.23708 14.8098L5.23695 14.8098C4.21729 14.8446 3.23679 15.4107 2.52127 16.2935L2.52127 16.2935C2.09545 16.8188 1.79148 17.4216 1.62795 18.0446L1.41895 18.8409L2.2219 18.6593L6.49658 17.6922L6.4967 17.6922C6.75961 17.6326 7.03576 17.6966 7.24542 17.8658L7.24554 17.8659C7.45535 18.0352 7.57581 18.2907 7.57284 18.5593L7.57284 18.5594L7.53848 21.7203L7.53232 22.2868L8.09517 22.2225L13.5467 21.6001Z" fill="white" stroke="#FF6600"/>
<path d="M14.1964 78.8175L14.1963 78.8175L8.17968 81.0308L8.35229 82.0001H72.9845L73.1571 81.0308L67.1405 78.8175L66.9977 79.2055L67.1404 78.8175C58.637 75.6896 49.7303 74.1035 40.6684 74.1035C31.6065 74.1035 22.6998 75.6896 14.1964 78.8175Z" fill="white" stroke="#FF6600"/>
<path d="M39.287 57.5518H38.787V58.0518V60.8104V61.3104H39.287H42.0499H42.5499V60.8104V58.0518V57.5518H42.0499H39.287Z" fill="white" stroke="#FF6600"/>
<path d="M39.287 63.0688H38.787V63.5688V66.3275V66.8275H39.287H42.0499H42.5499V66.3275V63.5688V63.0688H42.0499H39.287Z" fill="white" stroke="#FF6600"/>
</svg>
