<svg width="103" height="54" viewBox="0 0 103 54" fill="none" xmlns="http://www.w3.org/2000/svg">
<path fill-rule="evenodd" clip-rule="evenodd" d="M101.293 21.1821C102.067 24.4815 102.087 28.7703 101.332 34.0109C101.209 34.8643 100.382 35.4629 99.4857 35.3457C98.588 35.2284 97.9611 34.4407 98.0842 33.5858C98.2647 32.3323 98.3992 31.1382 98.4879 30.005C100.167 27.6934 101.34 24.7848 101.293 21.1821Z" fill="white" stroke="#FF6600"/>
<path fill-rule="evenodd" clip-rule="evenodd" d="M87.0805 36.1428C87.3366 36.0631 103.797 30.9413 98.6323 15.6509C98.629 15.6399 98.6257 15.6306 98.6225 15.6196C98.6225 15.6196 95.3583 4.88364 67.5054 1.73272C66.7718 1.69364 49.8848 0.810572 38.0147 2.45012C34.959 2.87212 32.2397 3.45666 30.2391 4.28034C29.5056 4.58199 28.8737 4.91021 28.3699 5.27751C28.5209 5.29001 28.667 5.30564 28.8081 5.32596C32.3201 5.82767 33.5148 8.50189 33.5509 8.58473L33.5542 8.59254C33.7249 8.98954 33.5279 9.44436 33.1111 9.61003C32.6942 9.77571 32.2134 9.58815 32.0378 9.1896C32.0378 9.1896 28.3355 0.890281 12.8844 15.3414C12.8319 15.3899 12.7745 15.4305 12.7121 15.4649L12.7006 15.4696C12.6169 15.5149 11.2581 16.2495 10.1897 17.4186C9.52345 18.1485 8.95235 19.0534 9.00158 20.0819C9.01471 20.3569 8.87357 20.6195 8.63233 20.7711C8.63233 20.7711 7.06343 21.748 6.04595 23.0921C5.47648 23.8423 5.04159 24.7145 5.40591 25.5835C5.54869 25.9226 5.42561 26.3103 5.10887 26.5166C5.10887 26.5166 3.88789 27.3152 2.98364 28.414C2.47161 29.0361 2.02687 29.7503 2.14175 30.474C2.26976 31.2758 3.09031 31.9604 4.91851 32.5746C5.34519 32.7184 5.57002 33.1654 5.41904 33.5718C5.26806 33.9781 4.7987 34.1923 4.37202 34.0485C4.20791 33.9938 4.052 33.9375 3.90102 33.8797C4.10616 35.7802 4.02902 39.3953 1.29822 42.6213C1.2293 43.1355 1.07011 44.5547 1.19155 46.102L2.76537 46.4459C2.88189 46.4724 2.99184 46.5209 3.08539 46.5912C3.17401 46.6569 3.24786 46.7397 3.30201 46.8335C3.33976 46.9007 3.36766 46.971 3.38407 47.0445C3.42181 47.218 3.3972 47.4008 3.3135 47.5587C3.28232 47.6196 3.24293 47.6744 3.19698 47.7244C3.13954 47.7853 3.07226 47.8385 3.00005 47.8807C2.91471 47.9275 2.81953 47.9619 2.7227 47.9776C2.61439 47.9963 2.50444 47.9932 2.39612 47.9697L1.44264 47.7603C1.73804 49.0029 2.28289 50.1657 3.43658 50.6549C4.24401 50.9972 5.31894 50.9894 6.74342 50.5377C6.8944 50.4892 7.05851 50.4845 7.21277 50.5221C7.21277 50.5221 10.8724 51.4473 13.9528 51.1379C15.6957 50.9628 17.299 50.4298 17.5386 48.7856C18.0867 45.0283 19.9166 41.2209 21.8465 39.772C22.6884 39.139 23.5582 38.8968 24.3952 39.0968C25.7163 37.2385 30.0734 30.1176 25.7327 22.3075C25.521 21.9262 25.6736 21.4526 26.074 21.251C26.4745 21.0493 26.9701 21.1947 27.1834 21.576C28.9607 24.7754 29.4104 27.8685 29.2003 30.5959C30.8316 26.8839 32.3332 22.2262 32.6614 17.2029C32.6893 16.7731 33.0799 16.4449 33.5312 16.4714C33.9842 16.4996 34.3271 16.87 34.2992 17.3014C33.5969 28.0436 27.7184 37.1838 26.1708 39.4204C26.4548 39.4657 26.7058 39.6532 26.8092 39.9314C26.8092 39.9314 27.7627 42.5056 27.2868 45.2314C27.2359 45.5222 27.0193 45.7597 26.7255 45.8473C26.7091 45.8582 26.0642 46.2989 25.9706 47.8166C25.9559 48.051 25.8311 48.2667 25.6309 48.4042C25.6309 48.4042 24.172 49.4045 23.2973 50.719C22.9149 51.2942 22.6228 51.935 22.7508 52.568L28.6227 52.0287C29.4284 50.6111 32.3709 45.0595 32.2922 39.6861C32.2479 39.5282 32.2118 39.2734 32.3086 38.9546C32.3988 38.6545 32.6204 38.245 33.2424 37.8465C33.7757 37.5026 34.7013 37.1228 36.303 36.8274C35.4891 35.2957 34.721 34.3611 34.6619 34.2907L34.6554 34.2829C34.3764 33.9469 34.4355 33.4561 34.7867 33.1888C35.1411 32.9184 35.6581 32.9732 35.9404 33.3108C35.9404 33.3108 41.4955 39.933 39.4884 47.8775C39.4425 48.0573 39.3325 48.2151 39.1766 48.3245C39.1766 48.3245 37.6931 49.3623 36.774 50.5627C36.5115 50.905 36.2932 51.2582 36.2029 51.6036C36.1832 51.6818 36.1685 51.7615 36.1668 51.8381L44.2608 51.7177L45.229 38.1325C45.0058 37.6308 44.072 35.8162 41.8648 34.8003C41.4561 34.6127 41.2854 34.1454 41.4824 33.7562C41.6793 33.3686 42.17 33.206 42.5786 33.3936C45.8083 34.88 46.8357 37.7558 46.8357 37.7558C46.8488 37.7933 46.8603 37.834 46.8685 37.8746C46.9571 37.934 47.5151 38.2966 48.224 38.4966C48.6212 38.6107 49.0791 38.6826 49.4975 38.5357C49.8225 38.4216 50.1048 38.1653 50.3296 37.7261C50.6315 37.1353 50.8137 36.271 50.84 35.0456C50.8498 34.6143 51.224 34.272 51.6769 34.2813C52.1299 34.2892 52.4893 34.6471 52.4811 35.0785C52.4532 36.3741 52.2513 37.351 51.9461 38.0856C53.9121 38.5514 61.2971 40.1268 68.774 39.4204C74.4555 38.8827 80.2125 37.0384 83.5489 32.2448C83.8 31.8853 84.3087 31.7869 84.6862 32.0244C85.0636 32.2636 85.167 32.7481 84.9176 33.1076C83.7967 34.7174 82.4296 36.0287 80.8936 37.0884L80.9083 37.1447C80.9083 37.1447 82.4395 44.1436 78.5254 48.6168C78.4335 48.7231 78.3121 48.8028 78.1759 48.8513C78.1759 48.8513 76.4412 49.4499 75.2564 50.5643C74.7394 51.0503 74.3193 51.6458 74.3111 52.3507L82.1031 51.7318C83.2633 50.633 89.1401 44.7079 89.8327 36.7399C88.4837 37.3557 87.5762 37.6323 87.5762 37.6323C87.1445 37.7636 86.6834 37.537 86.5455 37.1259C86.4077 36.7164 86.644 36.2788 87.0723 36.1444L87.0805 36.1428ZM8.30575 47.5055L9.68428 46.9429C10.1011 46.7741 10.2948 46.313 10.1159 45.9176C9.93701 45.5206 9.45452 45.3377 9.03768 45.5065L7.65915 46.0692C7.24395 46.2396 7.0503 46.6991 7.22918 47.0961C7.40806 47.493 7.89055 47.6759 8.30575 47.5055ZM15.1607 34.6877C15.1607 34.6877 13.7116 35.8537 13.3899 38.1762C13.188 39.6251 13.4211 41.5538 14.8357 43.9436C15.0589 44.3187 15.5594 44.4515 15.955 44.2405C16.3488 44.028 16.4883 43.5513 16.2651 43.1746C15.0868 41.1849 14.8488 39.5876 15.0162 38.381C15.246 36.7211 16.2372 35.8662 16.2372 35.8662C16.5802 35.5833 16.6163 35.0894 16.3193 34.7643C16.0206 34.4392 15.502 34.4048 15.1607 34.6877ZM15.5365 23.0687C15.7268 21.9793 16.2618 21.251 16.9035 20.9243C17.2399 20.7539 17.5977 20.6977 17.9095 20.7899C18.282 20.9009 18.5495 21.2306 18.6414 21.7292C18.7777 22.4591 18.5692 23.4641 17.8964 24.7567C17.6945 25.1427 17.8603 25.6132 18.2656 25.8039C18.671 25.9961 19.165 25.8382 19.3652 25.4522C21.2754 21.7902 19.9428 19.7536 18.3936 19.2973C16.7936 18.8252 14.4304 19.8787 13.9167 22.8124C13.8428 23.2375 14.1448 23.6407 14.5912 23.7111C15.0376 23.7829 15.461 23.4938 15.5365 23.0687Z" fill="white" stroke="#FF6600"/>
<path fill-rule="evenodd" clip-rule="evenodd" d="M93.6614 34.5859C92.9262 35.0876 92.2041 35.5206 91.528 35.8894C91.3179 41.6833 88.4657 46.5535 86.1222 49.6107L93.3349 49.7138C97.1127 43.0525 94.3474 36.0989 93.6614 34.5859Z" fill="white" stroke="#FF6600"/>
<path fill-rule="evenodd" clip-rule="evenodd" d="M33.8562 39.2283L33.8496 39.2174C33.848 39.2111 33.8447 39.2064 33.8414 39.2002L33.8562 39.2283Z" fill="white" stroke="#FF6600"/>
<path fill-rule="evenodd" clip-rule="evenodd" d="M6.59468 20.2908C6.52578 20.2393 6.46343 20.1768 6.41093 20.1033C5.43476 18.7049 4.05007 18.533 3.34625 19.2611C3.01484 19.6033 2.88523 20.1205 3.03453 20.7252C3.18547 21.3393 3.60218 22.0143 4.34047 22.7205C4.45531 22.5346 4.58164 22.3533 4.71453 22.1752C5.28547 21.4236 6.00242 20.7674 6.59468 20.2908Z" fill="white" stroke="#FF6600"/>
</svg>
