<svg width="80" height="82" viewBox="0 0 80 82" fill="none" xmlns="http://www.w3.org/2000/svg">
<path d="M76.25 75.5H3.75C2.7835 75.5 2 76.2835 2 77.25V79.75C2 80.7165 2.7835 81.5 3.75 81.5H76.25C77.2165 81.5 78 80.7165 78 79.75V77.25C78 76.2835 77.2165 75.5 76.25 75.5Z" fill="white" stroke="#FF6600"/>
<path d="M27.5 74H28V73.5V51V50.5H27.5H13.75H13.25V51V73.5V74H13.75H27.5ZM23 61C23 60.8011 23.079 60.6103 23.2197 60.4697C23.3603 60.329 23.5511 60.25 23.75 60.25C23.9489 60.25 24.1397 60.329 24.2803 60.4697C24.421 60.6103 24.5 60.8011 24.5 61V63.5C24.5 63.6989 24.421 63.8897 24.2803 64.0303C24.1397 64.171 23.9489 64.25 23.75 64.25C23.5511 64.25 23.3603 64.171 23.2197 64.0303C23.079 63.8897 23 63.6989 23 63.5V61Z" fill="white" stroke="#FF6600"/>
<path d="M13.75 39.25H13.25V39.75V43.5V44H13.75H27.5H28V43.5V39.75V39.25H27.5H13.75Z" fill="white" stroke="#FF6600"/>
<path d="M12 6V6.5H12.5H67.5H68V6V2.25C68 1.78587 67.8156 1.34075 67.4874 1.01256C67.1592 0.684374 66.7141 0.5 66.25 0.5H13.75C13.2859 0.5 12.8408 0.684375 12.5126 1.01256C12.1844 1.34075 12 1.78587 12 2.25V6Z" fill="white" stroke="#FF6600"/>
<path d="M34.6557 8.52381L34.6807 8H34.1563H27.4838H27.0501L26.9888 8.4293L24.8463 23.4293L24.7648 24H25.3413H33.4413H33.918L33.9407 23.5238L34.6557 8.52381Z" fill="white" stroke="#FF6600"/>
<path d="M25.4538 8.5707L25.5353 8H24.9588H18.32H17.9251L17.8336 8.3842L14.2624 23.3842L14.1158 24H14.7488H22.8163H23.2499L23.3113 23.5707L25.4538 8.5707Z" fill="white" stroke="#FF6600"/>
<path d="M67.3348 23.6158L67.4263 24H67.8212H75.9012H76.5953L76.3755 23.3417L72.2243 10.9056C72.2243 10.9055 72.2243 10.9055 72.2243 10.9054C71.9424 10.0603 71.4021 9.32508 70.6797 8.80372C69.9572 8.28232 69.0891 8.00117 68.1982 8H68.1975H64.25H63.617L63.7636 8.6158L67.3348 23.6158Z" fill="white" stroke="#FF6600"/>
<path d="M16.2364 8.6158L16.383 8H15.75L11.8025 8L11.8018 8C10.9109 8.00117 10.0428 8.28232 9.32034 8.80372C8.59791 9.32508 8.05759 10.0603 7.77573 10.9054C7.77571 10.9055 7.7757 10.9055 7.77568 10.9056L3.62448 23.3417L3.40473 24H4.09875H12.1788H12.5737L12.6652 23.6158L16.2364 8.6158Z" fill="white" stroke="#FF6600"/>
<path d="M36.6587 8H36.182L36.1593 8.47619L35.4443 23.4762L35.4193 24H35.9437H44.0562H44.5806L44.5557 23.4762L43.8407 8.47619L43.818 8H43.3412H36.6587Z" fill="white" stroke="#FF6600"/>
<path d="M55.0413 8H54.4648L54.5463 8.5707L56.6888 23.5707L56.7501 24H57.1838H65.2513H65.8843L65.7377 23.3842L62.1664 8.3842L62.0749 8H61.68H55.0413Z" fill="white" stroke="#FF6600"/>
<path d="M45.8438 8H45.3193L45.3443 8.52381L46.0593 23.5238L46.082 24H46.5588H54.6588H55.2352L55.1537 23.4293L53.0112 8.4293L52.9499 8H52.5163H45.8438Z" fill="white" stroke="#FF6600"/>
<path d="M13.9637 29.125V29.2746L14.0459 29.3996C14.5388 30.1497 15.2104 30.7655 16.0003 31.1916C16.7903 31.6177 17.6737 31.8408 18.5712 31.8408C19.4688 31.8408 20.3522 31.6177 21.1422 31.1916C21.9321 30.7655 22.6037 30.1497 23.0966 29.3996L23.1787 29.2746V29.125V26V25.5H22.6787H14.4637H13.9637V26V29.125Z" fill="white" stroke="#FF6600"/>
<path d="M12.3813 29.4L12.4637 29.2748V29.125V26V25.5H11.9637H3.74995H3.24995V26V28.705C3.24637 29.0883 3.36987 29.4621 3.6012 29.7679L3.60112 29.768L3.60741 29.7759C4.1385 30.4491 4.82187 30.9866 5.60128 31.344C6.38068 31.7015 7.23383 31.8688 8.09052 31.8321C8.9472 31.7953 9.78291 31.5557 10.5289 31.1329C11.2749 30.7101 11.9097 30.1161 12.3813 29.4Z" fill="white" stroke="#FF6600"/>
<path d="M24.6787 29.125V29.2746L24.7609 29.3997C25.2539 30.1495 25.9254 30.765 26.7152 31.1909C27.505 31.6169 28.3883 31.8399 29.2856 31.8399C30.1829 31.8399 31.0662 31.6169 31.8559 31.1909C32.6457 30.765 33.3173 30.1495 33.8103 29.3997L33.8925 29.2746V29.125V26V25.5H33.3925H25.1787H24.6787V26V29.125Z" fill="white" stroke="#FF6600"/>
<path d="M56.8213 29.125V29.2746L56.9034 29.3996C57.3963 30.1497 58.068 30.7655 58.8579 31.1916C59.6478 31.6177 60.5313 31.8408 61.4288 31.8408C62.3263 31.8408 63.2098 31.6177 63.9997 31.1916C64.7896 30.7655 65.4612 30.1497 65.9541 29.3996L66.0363 29.2746V29.125V26V25.5H65.5363H57.3213H56.8213V26V29.125Z" fill="white" stroke="#FF6600"/>
<path d="M55.2391 29.3997L55.3213 29.2746V29.125V26V25.5H54.8213H46.6075H46.1075V26V29.125V29.2746L46.1898 29.3997C46.6827 30.1495 47.3543 30.765 48.1441 31.1909C48.9338 31.6169 49.8171 31.8399 50.7144 31.8399C51.6117 31.8399 52.495 31.6169 53.2848 31.1909C54.0746 30.765 54.7461 30.1495 55.2391 29.3997Z" fill="white" stroke="#FF6600"/>
<path d="M35.3925 29.125V29.2746L35.4746 29.3996C35.9675 30.1497 36.6391 30.7655 37.429 31.1916C38.219 31.6177 39.1024 31.8408 40 31.8408C40.8975 31.8408 41.7809 31.6177 42.5709 31.1916C43.3608 30.7655 44.0324 30.1497 44.5253 29.3996L44.6075 29.2746V29.125V26V25.5H44.1075H35.8925H35.3925V26V29.125Z" fill="white" stroke="#FF6600"/>
<path d="M76.75 26V25.5H76.25H68.0363H67.5363V26V29.125V29.2746L67.6184 29.3996C68.0898 30.1168 68.7249 30.7117 69.4714 31.1353C70.2179 31.5588 71.0544 31.7988 71.9119 31.8355C72.7693 31.8722 73.6233 31.7046 74.4032 31.3465C75.1832 30.9883 75.8668 30.4499 76.3978 29.7756L76.398 29.7757L76.4057 29.7653C76.6343 29.459 76.7553 29.0858 76.75 28.7037V26Z" fill="white" stroke="#FF6600"/>
<path d="M46.84 54.8203L46.901 55.25H47.335H57.8075H58.1847L58.2883 54.8873L60.0733 48.6373L60.2553 48H59.5925H46.4475H45.8715L45.9525 48.5703L46.84 54.8203Z" fill="white" stroke="#FF6600"/>
<path d="M66.75 38.5V38H66.25H36.25H35.75V38.5V68.5V69H36.25H66.25H66.75V68.5V38.5ZM59.4705 56.2051L59.4704 56.2055C59.4257 56.3622 59.3312 56.5002 59.2012 56.5984C59.0711 56.6967 58.9126 56.7499 58.7496 56.75H46.25C45.7859 56.75 45.3408 56.9344 45.0126 57.2626C44.6844 57.5908 44.5 58.0359 44.5 58.5C44.5 58.9641 44.6844 59.4092 45.0126 59.7374C45.3408 60.0656 45.7859 60.25 46.25 60.25H58.75C58.9489 60.25 59.1397 60.329 59.2803 60.4697C59.421 60.6103 59.5 60.8011 59.5 61C59.5 61.1989 59.421 61.3897 59.2803 61.5303C59.1397 61.671 58.9489 61.75 58.75 61.75H58.25V62.25V63.5C58.25 63.6989 58.171 63.8897 58.0303 64.0303C57.8897 64.171 57.6989 64.25 57.5 64.25C57.3011 64.25 57.1103 64.171 56.9697 64.0303C56.829 63.8897 56.75 63.6989 56.75 63.5V62.25V61.75H56.25H48.75H48.25V62.25V63.5C48.25 63.6989 48.171 63.8897 48.0303 64.0303C47.8897 64.171 47.6989 64.25 47.5 64.25C47.3011 64.25 47.1103 64.171 46.9697 64.0303C46.829 63.8897 46.75 63.6989 46.75 63.5V62.25V61.7519L46.2519 61.75C45.4995 61.7471 44.7714 61.4833 44.1919 61.0035C43.6123 60.5237 43.2172 59.8576 43.0739 59.119C42.9306 58.3804 43.048 57.6149 43.4061 56.9532C43.7642 56.2915 44.3408 55.7745 45.0375 55.4905L45.3986 55.3433L45.3438 54.9572L43.885 44.6797L43.824 44.25H43.39H41.25C41.0511 44.25 40.8603 44.171 40.7197 44.0303C40.579 43.8897 40.5 43.6989 40.5 43.5C40.5 43.3011 40.579 43.1103 40.7197 42.9697C40.8603 42.829 41.0511 42.75 41.25 42.75H44.475C44.6556 42.75 44.8301 42.8152 44.9665 42.9335C45.1028 43.0517 45.1918 43.2151 45.2174 43.3936C45.2174 43.3938 45.2175 43.394 45.2175 43.3943L45.5923 46.0694L45.6527 46.5H46.0875H61.2496C61.3656 46.5001 61.48 46.5271 61.5838 46.5788C61.6876 46.6306 61.778 46.7057 61.8478 46.7983C61.9177 46.891 61.9651 46.9985 61.9864 47.1125C62.0076 47.2265 62.0022 47.3439 61.9704 47.4555L59.4705 56.2051Z" fill="white" stroke="#FF6600"/>
<path d="M75 73.9999H75.5V73.4999V33.2624V32.5094L74.806 32.8016C73.5174 33.3441 72.094 33.4806 70.7259 33.1926C69.3578 32.9047 68.1101 32.2061 67.1496 31.1902L66.7864 30.806L66.423 31.1901C65.7805 31.8692 65.0062 32.4102 64.1475 32.78C63.2888 33.1497 62.3637 33.3404 61.4288 33.3404C60.4938 33.3404 59.5687 33.1497 58.71 32.78C57.8513 32.4102 57.077 31.8692 56.4345 31.1901L56.0713 30.8062L55.7081 31.19C55.0656 31.869 54.2914 32.4099 53.4327 32.7795C52.5741 33.1491 51.6492 33.3397 50.7144 33.3397C49.7796 33.3397 48.8546 33.1491 47.996 32.7795C47.1374 32.4099 46.3632 31.869 45.7207 31.19L45.3575 30.8062L44.9943 31.1901C44.3518 31.8692 43.5775 32.4102 42.7188 32.78C41.86 33.1497 40.9349 33.3404 40 33.3404C39.0651 33.3404 38.14 33.1497 37.2812 32.78C36.4225 32.4102 35.6482 31.8692 35.0057 31.1901L34.6425 30.8062L34.2793 31.19C33.6368 31.869 32.8626 32.4099 32.004 32.7795C31.1454 33.1491 30.2204 33.3397 29.2856 33.3397C28.3508 33.3397 27.4259 33.1491 26.5673 32.7795C25.7086 32.4099 24.9344 31.869 24.2919 31.19L23.9287 30.8062L23.5655 31.1901C22.923 31.8692 22.1487 32.4102 21.29 32.78C20.4313 33.1497 19.5062 33.3404 18.5712 33.3404C17.6363 33.3404 16.7112 33.1497 15.8525 32.78C14.9938 32.4102 14.2195 31.8692 13.577 31.1901L13.2138 30.8062L12.8506 31.19C12.2081 31.869 11.434 32.4098 10.5755 32.7795C9.71713 33.1491 8.79239 33.3398 7.85781 33.3399C6.94281 33.3385 6.0372 33.1555 5.19349 32.8014L4.5 32.5104V33.2624V73.4999V73.9999H5H11.25H11.75V73.4999V49.7499C11.75 49.551 11.829 49.3603 11.9697 49.2196C12.1103 49.079 12.3011 48.9999 12.5 48.9999H28.75C28.9489 48.9999 29.1397 49.079 29.2803 49.2196C29.421 49.3603 29.5 49.551 29.5 49.7499V73.4999V73.9999H30H75ZM34.25 37.2499C34.25 37.051 34.329 36.8603 34.4697 36.7196C34.6103 36.579 34.8011 36.4999 35 36.4999H67.5C67.6989 36.4999 67.8897 36.579 68.0303 36.7196C68.171 36.8603 68.25 37.051 68.25 37.2499V69.7499C68.25 69.9489 68.171 70.1396 68.0303 70.2803C67.8897 70.4209 67.6989 70.4999 67.5 70.4999H35C34.8011 70.4999 34.6103 70.4209 34.4697 70.2803C34.329 70.1396 34.25 69.9489 34.25 69.7499V37.2499ZM28.75 45.4999H12.5C12.3011 45.4999 12.1103 45.4209 11.9697 45.2803C11.829 45.1396 11.75 44.9489 11.75 44.7499V38.4999C11.75 38.301 11.829 38.1103 11.9697 37.9696C12.1103 37.829 12.3011 37.7499 12.5 37.7499H28.75C28.9489 37.7499 29.1397 37.829 29.2803 37.9696C29.421 38.1103 29.5 38.301 29.5 38.4999V44.7499C29.5 44.9489 29.421 45.1396 29.2803 45.2803C29.1397 45.4209 28.9489 45.4999 28.75 45.4999Z" fill="white" stroke="#FF6600"/>
</svg>
