<svg width="80" height="107" viewBox="0 0 80 107" fill="none" xmlns="http://www.w3.org/2000/svg">
<path d="M27.1764 39.7539C27.4414 32.9547 33.0877 27.5026 40 27.5026C47.0809 27.5026 52.8333 33.224 52.8333 40.2539V41.9103C52.8333 44.9431 55.2893 47.3795 58.3333 47.3795C61.3774 47.3795 63.8333 44.9431 63.8333 41.9103V40.2539C63.8333 27.1583 53.1691 16.5641 40 16.5641C26.8309 16.5641 16.1667 27.1583 16.1667 40.2539V44.4363C16.1667 49.0172 18.7756 53.2066 22.9025 55.2574L25.8192 56.7067C26.025 56.809 26.1667 57.0295 26.1667 57.2735C26.1667 57.465 26.0813 57.6427 25.9463 57.7459L25.9385 57.7519L25.9309 57.7582L18.1394 64.2181C15.802 66.1539 15.4793 69.5971 17.4294 71.9227C19.3765 74.245 22.8359 74.5641 25.1731 72.6284L25.1733 72.6283L32.9638 66.1692C35.6416 63.9623 37.1667 60.715 37.1667 57.2735C37.1667 52.9021 34.6849 48.877 30.7433 46.9287L27.1764 39.7539ZM27.1764 39.7539H27.1875V40.2539V44.4363C27.1875 44.8841 27.4307 45.2739 27.8302 45.4811C27.8312 45.4816 27.8322 45.4821 27.8332 45.4826L30.7423 46.9282L27.1764 39.7539ZM58.8446 82.8218L58.8444 82.8224C57.6975 88.1757 55.0353 93.2645 50.8559 97.4181C39.3425 108.861 20.6575 108.861 9.14413 97.4181C3.38757 91.697 0.5 84.2065 0.5 76.6949V40.2539C0.5 18.5855 18.1899 1 40 1C61.8101 1 79.5 18.5855 79.5 40.2539C79.5 51.8854 74.3997 62.3321 66.3134 69.5302C62.4301 72.9867 59.9256 77.8078 58.8446 82.8218Z" fill="#FF6600"/>
<path d="M27.1764 39.7539C27.4414 32.9547 33.0877 27.5026 40 27.5026C47.0809 27.5026 52.8333 33.224 52.8333 40.2539V41.9103C52.8333 44.9431 55.2893 47.3795 58.3333 47.3795C61.3774 47.3795 63.8333 44.9431 63.8333 41.9103V40.2539C63.8333 27.1583 53.1691 16.5641 40 16.5641C26.8309 16.5641 16.1667 27.1583 16.1667 40.2539V44.4363C16.1667 49.0172 18.7756 53.2066 22.9025 55.2574L25.8192 56.7067C26.025 56.809 26.1667 57.0295 26.1667 57.2735C26.1667 57.465 26.0813 57.6427 25.9463 57.7459L25.9385 57.7519L25.9309 57.7582L18.1394 64.2181C15.802 66.1539 15.4793 69.5971 17.4294 71.9227C19.3765 74.245 22.8359 74.5641 25.1731 72.6284L25.1733 72.6283L32.9638 66.1692C35.6416 63.9623 37.1667 60.715 37.1667 57.2735C37.1667 52.9021 34.6849 48.877 30.7433 46.9287L27.1764 39.7539ZM27.1764 39.7539H27.1875V40.2539V44.4363C27.1875 44.8841 27.4307 45.2739 27.8302 45.4811C27.8312 45.4816 27.8322 45.4821 27.8332 45.4826L30.7423 46.9282L27.1764 39.7539ZM58.8446 82.8218L58.8444 82.8224C57.6975 88.1757 55.0353 93.2645 50.8559 97.4181C39.3425 108.861 20.6575 108.861 9.14413 97.4181C3.38757 91.697 0.5 84.2065 0.5 76.6949V40.2539C0.5 18.5855 18.1899 1 40 1C61.8101 1 79.5 18.5855 79.5 40.2539C79.5 51.8854 74.3997 62.3321 66.3134 69.5302C62.4301 72.9867 59.9256 77.8078 58.8446 82.8218Z" stroke="black"/>
<path d="M27.1764 39.7539C27.4414 32.9547 33.0877 27.5026 40 27.5026C47.0809 27.5026 52.8333 33.224 52.8333 40.2539V41.9103C52.8333 44.9431 55.2893 47.3795 58.3333 47.3795C61.3774 47.3795 63.8333 44.9431 63.8333 41.9103V40.2539C63.8333 27.1583 53.1691 16.5641 40 16.5641C26.8309 16.5641 16.1667 27.1583 16.1667 40.2539V44.4363C16.1667 49.0172 18.7756 53.2066 22.9025 55.2574L25.8192 56.7067C26.025 56.809 26.1667 57.0295 26.1667 57.2735C26.1667 57.465 26.0813 57.6427 25.9463 57.7459L25.9385 57.7519L25.9309 57.7582L18.1394 64.2181C15.802 66.1539 15.4793 69.5971 17.4294 71.9227C19.3765 74.245 22.8359 74.5641 25.1731 72.6284L25.1733 72.6283L32.9638 66.1692C35.6416 63.9623 37.1667 60.715 37.1667 57.2735C37.1667 52.9021 34.6849 48.877 30.7433 46.9287L27.1764 39.7539ZM27.1764 39.7539H27.1875V40.2539V44.4363C27.1875 44.8841 27.4307 45.2739 27.8302 45.4811C27.8312 45.4816 27.8322 45.4821 27.8332 45.4826L30.7423 46.9282L27.1764 39.7539ZM58.8446 82.8218L58.8444 82.8224C57.6975 88.1757 55.0353 93.2645 50.8559 97.4181C39.3425 108.861 20.6575 108.861 9.14413 97.4181C3.38757 91.697 0.5 84.2065 0.5 76.6949V40.2539C0.5 18.5855 18.1899 1 40 1C61.8101 1 79.5 18.5855 79.5 40.2539C79.5 51.8854 74.3997 62.3321 66.3134 69.5302C62.4301 72.9867 59.9256 77.8078 58.8446 82.8218Z" stroke="black" stroke-opacity="0.2"/>
</svg>
