<svg width="80" height="76" viewBox="0 0 80 76" fill="none" xmlns="http://www.w3.org/2000/svg">
<path d="M52.2188 65.7891H75.5938V74.9222H52.2188V65.7891Z" fill="white" stroke="#FF6600"/>
<path d="M52.2188 47.0391H75.5938V60.1016H52.2188V47.0391Z" fill="white" stroke="#FF6600"/>
<path d="M60.4891 19.8223H79.4999V27.5241H57.444C58.9395 25.229 59.995 22.6214 60.4891 19.8223Z" fill="white" stroke="#FF6600"/>
<path d="M4.40625 33.2114H28.043C31.428 35.5971 35.5543 37 40.0013 37C44.448 37 48.5745 35.5973 51.9594 33.2114H75.5938V41.3516H4.40625V33.2114Z" fill="white" stroke="#FF6600"/>
<path d="M58.8172 7.32227H71.6875V14.1348H60.7044C60.4659 11.7199 59.8127 9.42487 58.8172 7.32227Z" fill="white" stroke="#FF6600"/>
<path d="M8.3125 14.1348V7.32227H21.1851C20.1897 9.42485 19.5363 11.7199 19.2978 14.1348H8.3125Z" fill="white" stroke="#FF6600"/>
<path d="M4.40625 47.0391H27.7812V60.1016H4.40625V47.0391Z" fill="white" stroke="#FF6600"/>
<path d="M33.4688 47.0391H46.5312V74.9222H33.4688V47.0391Z" fill="white" stroke="#FF6600"/>
<path d="M4.40625 65.7891H27.7812V74.9222H4.40625V65.7891Z" fill="white" stroke="#FF6600"/>
<path d="M0.5 27.5241V19.8223H19.513C20.0071 22.6214 21.0626 25.229 22.5582 27.5241H0.5Z" fill="white" stroke="#FF6600"/>
<path d="M32.1339 18.5391V19.039L32.6339 19.0391L37.1562 19.0392V23.5616V24.0616H37.6562H42.3437H42.8437V23.5616V19.0392H47.3661H47.8661V18.5392V13.8517V13.3517H47.3661H42.8437V8.82937V8.32937H42.3437H37.6562H37.1562V8.82937V13.3516H32.6339H32.1339V13.8516V18.5391ZM40.0012 1.07812C48.3363 1.07812 55.1183 7.8602 55.1183 16.1953C55.1183 24.5306 48.3363 31.3125 40.0012 31.3125C31.6661 31.3125 24.884 24.5304 24.884 16.1953C24.884 7.8602 31.6661 1.07812 40.0012 1.07812Z" fill="white" stroke="#FF6600"/>
</svg>
