<svg width="74" height="76" viewBox="0 0 74 76" fill="none" xmlns="http://www.w3.org/2000/svg">
<mask id="path-1-inside-1_233_2338" fill="white">
<path fill-rule="evenodd" clip-rule="evenodd" d="M52.6416 21.7717L58.4362 20.2191C58.9331 20.0859 59.4484 20.3836 59.5816 20.8803L59.9411 22.2223C60.0742 22.7191 59.7766 23.2347 59.2798 23.3677L51.9945 25.3198C51.388 25.4823 50.9739 25.9975 50.9455 26.6248C50.6927 32.2214 50.8828 37.0978 51.3437 41.2886H43.8962C44.462 37.5317 44.9284 33.4966 45.6439 29.1256C45.72 28.6609 45.5806 28.2275 45.2477 27.8944L38.4928 21.1395C38.1292 20.7759 38.1291 20.1808 38.4928 19.817L39.4753 18.8345C39.8391 18.4709 40.4342 18.4709 40.7978 18.8345L44.7439 22.7808C45.5341 23.5709 46.7962 23.1622 47.1275 22.095L50.0569 12.6572C50.2094 12.1659 50.7053 11.8628 51.2022 11.9959L52.5442 12.3555C53.0411 12.4886 53.3452 13.0061 53.2055 13.5008L51.2905 20.2861C50.9983 21.3228 51.6009 22.0506 52.6416 21.7717ZM29.7378 43.7884H71.5209C71.8591 43.7884 72.1358 44.0652 72.1358 44.4033V60.4383C72.1358 60.7764 71.8591 61.0531 71.5209 61.0531H68.3056V62.6627H65.2314V61.0531H36.0273V62.6627H32.9531V61.0531H29.7378C29.3997 61.0531 29.123 60.7764 29.123 60.4383V44.4034C29.123 44.0652 29.3997 43.7884 29.7378 43.7884ZM28.1881 69.4825H32.1847V75.5H36.7959V69.4825H64.463V75.5H69.0742V69.4825H73.0708C73.4089 69.4825 73.6856 69.2058 73.6856 68.8677V65.7777C73.6856 65.4395 73.4091 65.1628 73.0708 65.1628H28.1881C27.85 65.1628 27.5733 65.4395 27.5733 65.7777V68.8677C27.5733 69.2058 27.8498 69.4825 28.1881 69.4825ZM22.3503 38.9858C22.72 39.5005 22.4116 40.2883 21.8405 40.2883H19.1834L24.7477 50.2994C25.2086 50.9409 24.8239 51.9231 24.112 51.9231H14.577V59.8378H10.6855V51.9231H1.15046C0.438588 51.9231 0.0542132 50.9409 0.514838 50.2994L6.07906 40.2883H3.42203C2.85093 40.2883 2.54249 39.5005 2.91218 38.9858L9.05296 28.6536H5.69359C5.26343 28.6536 5.03093 28.0602 5.30953 27.6723L12.2472 18.0133C12.4484 17.7331 12.8141 17.7331 13.0153 18.0133L19.953 27.6723C20.2314 28.06 19.9991 28.6536 19.5689 28.6536H16.2097L22.3503 38.9858ZM34.4533 5.96875C30.6894 5.96875 27.638 9.02 27.638 12.7841C27.638 15.1136 28.807 17.1697 30.59 18.3989C30.2667 19.2627 30.0894 20.1978 30.0894 21.1745C30.0894 25.5481 33.6348 29.0936 38.0084 29.0936C38.8278 29.0936 39.6181 28.9691 40.3616 28.7381C40.7031 30.2681 41.4895 31.6303 42.5778 32.682C42.7392 31.5439 42.907 30.4066 43.0883 29.2706L36.7253 22.9077C35.3859 21.5683 35.3859 19.3891 36.7253 18.0497L37.7078 17.0672C39.0472 15.7278 41.2266 15.7278 42.5658 17.0672L45.2405 19.742L47.6694 11.9164C48.2164 10.1539 50.0575 9.10125 51.8494 9.58141L53.1914 9.94094C55.0266 10.4327 56.1284 12.3491 55.6116 14.1802L54.3269 18.7322L57.7891 17.8045C59.6109 17.3164 61.5081 18.4117 61.9962 20.2336L62.3558 21.5756C62.8439 23.3975 61.7486 25.2947 59.9267 25.7828L53.4098 27.5291C53.3422 29.302 53.3167 31.0805 53.3408 32.8584C53.5923 32.6306 53.8294 32.3869 54.0498 32.1286C55.5025 33.8492 57.675 34.9425 60.1031 34.9425C64.262 34.9425 67.6719 31.7362 67.9966 27.6608C71.2841 26.6975 73.6852 23.6597 73.6852 20.0608C73.6852 15.6873 70.1397 12.1417 65.7662 12.1417C65.6759 12.1417 65.5861 12.1438 65.4966 12.1467C65.8639 11.2917 66.0677 10.3497 66.0677 9.36C66.0677 5.45703 62.9036 2.29297 59.0008 2.29297C56.4869 2.29297 54.28 3.60578 53.027 5.58297C51.8866 2.61031 49.0059 0.5 45.632 0.5C41.7845 0.5 38.5784 3.24406 37.8626 6.88172C36.8598 6.30125 35.6955 5.96875 34.4533 5.96875Z"/>
</mask>
<path fill-rule="evenodd" clip-rule="evenodd" d="M52.6416 21.7717L58.4362 20.2191C58.9331 20.0859 59.4484 20.3836 59.5816 20.8803L59.9411 22.2223C60.0742 22.7191 59.7766 23.2347 59.2798 23.3677L51.9945 25.3198C51.388 25.4823 50.9739 25.9975 50.9455 26.6248C50.6927 32.2214 50.8828 37.0978 51.3437 41.2886H43.8962C44.462 37.5317 44.9284 33.4966 45.6439 29.1256C45.72 28.6609 45.5806 28.2275 45.2477 27.8944L38.4928 21.1395C38.1292 20.7759 38.1291 20.1808 38.4928 19.817L39.4753 18.8345C39.8391 18.4709 40.4342 18.4709 40.7978 18.8345L44.7439 22.7808C45.5341 23.5709 46.7962 23.1622 47.1275 22.095L50.0569 12.6572C50.2094 12.1659 50.7053 11.8628 51.2022 11.9959L52.5442 12.3555C53.0411 12.4886 53.3452 13.0061 53.2055 13.5008L51.2905 20.2861C50.9983 21.3228 51.6009 22.0506 52.6416 21.7717ZM29.7378 43.7884H71.5209C71.8591 43.7884 72.1358 44.0652 72.1358 44.4033V60.4383C72.1358 60.7764 71.8591 61.0531 71.5209 61.0531H68.3056V62.6627H65.2314V61.0531H36.0273V62.6627H32.9531V61.0531H29.7378C29.3997 61.0531 29.123 60.7764 29.123 60.4383V44.4034C29.123 44.0652 29.3997 43.7884 29.7378 43.7884ZM28.1881 69.4825H32.1847V75.5H36.7959V69.4825H64.463V75.5H69.0742V69.4825H73.0708C73.4089 69.4825 73.6856 69.2058 73.6856 68.8677V65.7777C73.6856 65.4395 73.4091 65.1628 73.0708 65.1628H28.1881C27.85 65.1628 27.5733 65.4395 27.5733 65.7777V68.8677C27.5733 69.2058 27.8498 69.4825 28.1881 69.4825ZM22.3503 38.9858C22.72 39.5005 22.4116 40.2883 21.8405 40.2883H19.1834L24.7477 50.2994C25.2086 50.9409 24.8239 51.9231 24.112 51.9231H14.577V59.8378H10.6855V51.9231H1.15046C0.438588 51.9231 0.0542132 50.9409 0.514838 50.2994L6.07906 40.2883H3.42203C2.85093 40.2883 2.54249 39.5005 2.91218 38.9858L9.05296 28.6536H5.69359C5.26343 28.6536 5.03093 28.0602 5.30953 27.6723L12.2472 18.0133C12.4484 17.7331 12.8141 17.7331 13.0153 18.0133L19.953 27.6723C20.2314 28.06 19.9991 28.6536 19.5689 28.6536H16.2097L22.3503 38.9858ZM34.4533 5.96875C30.6894 5.96875 27.638 9.02 27.638 12.7841C27.638 15.1136 28.807 17.1697 30.59 18.3989C30.2667 19.2627 30.0894 20.1978 30.0894 21.1745C30.0894 25.5481 33.6348 29.0936 38.0084 29.0936C38.8278 29.0936 39.6181 28.9691 40.3616 28.7381C40.7031 30.2681 41.4895 31.6303 42.5778 32.682C42.7392 31.5439 42.907 30.4066 43.0883 29.2706L36.7253 22.9077C35.3859 21.5683 35.3859 19.3891 36.7253 18.0497L37.7078 17.0672C39.0472 15.7278 41.2266 15.7278 42.5658 17.0672L45.2405 19.742L47.6694 11.9164C48.2164 10.1539 50.0575 9.10125 51.8494 9.58141L53.1914 9.94094C55.0266 10.4327 56.1284 12.3491 55.6116 14.1802L54.3269 18.7322L57.7891 17.8045C59.6109 17.3164 61.5081 18.4117 61.9962 20.2336L62.3558 21.5756C62.8439 23.3975 61.7486 25.2947 59.9267 25.7828L53.4098 27.5291C53.3422 29.302 53.3167 31.0805 53.3408 32.8584C53.5923 32.6306 53.8294 32.3869 54.0498 32.1286C55.5025 33.8492 57.675 34.9425 60.1031 34.9425C64.262 34.9425 67.6719 31.7362 67.9966 27.6608C71.2841 26.6975 73.6852 23.6597 73.6852 20.0608C73.6852 15.6873 70.1397 12.1417 65.7662 12.1417C65.6759 12.1417 65.5861 12.1438 65.4966 12.1467C65.8639 11.2917 66.0677 10.3497 66.0677 9.36C66.0677 5.45703 62.9036 2.29297 59.0008 2.29297C56.4869 2.29297 54.28 3.60578 53.027 5.58297C51.8866 2.61031 49.0059 0.5 45.632 0.5C41.7845 0.5 38.5784 3.24406 37.8626 6.88172C36.8598 6.30125 35.6955 5.96875 34.4533 5.96875Z" fill="white" stroke="#FF6600" stroke-width="2" mask="url(#path-1-inside-1_233_2338)"/>
</svg>
