<svg width="82" height="82" viewBox="0 0 82 82" fill="none" xmlns="http://www.w3.org/2000/svg">
<path d="M28.1428 19.5715V19.6101V38.2058C32.1214 38.4491 36.0094 39.4969 39.5714 41.2858V21.0001C39.5714 20.0001 36.0228 18.4701 28.1343 18.1758V19.5329C28.1428 19.5458 28.1428 19.5572 28.1428 19.5715Z" fill="white" stroke="#FF6600"/>
<path d="M59.5713 21H56.7142V38.2057C56.7125 39.705 55.5564 40.9501 54.0613 41.0629C51.7513 41.2286 45.9399 41.9443 41.857 45.0071C41.4258 45.3343 40.8467 45.3896 40.3613 45.15C40.2868 45.1086 40.2161 45.0608 40.1499 45.0071L40.1428 45C36.0599 41.9371 30.2485 41.2214 27.9385 41.0557C26.4434 40.943 25.2873 39.6979 25.2856 38.1986V21H22.4285V43.8571H33.6885C35.2097 43.8524 36.6014 44.7128 37.277 46.0757C37.4719 46.4683 37.873 46.7159 38.3113 46.7143H43.6885C44.1267 46.7159 44.5278 46.4683 44.7228 46.0757C45.3984 44.7128 46.7901 43.8524 48.3113 43.8571H59.5713V21Z" fill="white" stroke="#FF6600"/>
<path d="M53.857 18.1758C45.977 18.4701 42.4285 20.0044 42.4285 21.0001V41.2615C45.9919 39.4798 49.8799 38.4403 53.857 38.2058V18.1758Z" fill="white" stroke="#FF6600"/>
<path d="M66.7143 1H15.2857C14.4968 1 13.8572 1.63959 13.8572 2.42857C13.8572 3.21755 14.4968 3.85714 15.2857 3.85714H66.7143C67.5033 3.85714 68.1429 3.21755 68.1429 2.42857C68.1429 1.63959 67.5033 1 66.7143 1Z" fill="white" stroke="#FF6600"/>
<path d="M68.1428 56.7144H73.8571V65.2858H68.1428V56.7144Z" fill="white" stroke="#FF6600"/>
<path d="M65.2858 75.2859V12.4287H16.7144V75.2859H25.2858V56.7144C25.2858 54.3475 27.2046 52.4287 29.5715 52.4287H52.4286C54.7956 52.4287 56.7144 54.3475 56.7144 56.7144V75.2859H65.2858ZM48.3115 46.7144C47.8732 46.7128 47.4721 46.9604 47.2772 47.353C46.6015 48.7159 45.2099 49.5763 43.6886 49.5716H38.3115C36.7903 49.5763 35.3986 48.7159 34.7229 47.353C34.528 46.9604 34.1269 46.7128 33.6886 46.7144H22.4286C20.8507 46.7144 19.5715 45.4352 19.5715 43.8573V21.0001C19.5715 19.4222 20.8507 18.143 22.4286 18.143H25.2858C25.2956 17.378 25.6091 16.6482 26.1572 16.1144C26.7134 15.5774 27.4646 15.2906 28.2372 15.3201C34.6772 15.5601 38.9429 16.5316 40.9972 18.2144C43.0515 16.5316 47.3172 15.5601 53.7572 15.3201C54.5298 15.2906 55.281 15.5774 55.8372 16.1144C56.3875 16.6472 56.7031 17.3771 56.7144 18.143H59.5715C61.1495 18.143 62.4286 19.4222 62.4286 21.0001V43.8573C62.4286 45.4352 61.1495 46.7144 59.5715 46.7144H48.3115Z" fill="white" stroke="#FF6600"/>
<path d="M68.1428 36.7144H73.8571V45.2858H68.1428V36.7144Z" fill="white" stroke="#FF6600"/>
<path d="M68.1428 78.1431H13.857C13.0681 78.1431 12.4285 78.7827 12.4285 79.5716C12.4285 80.3606 13.0681 81.0002 13.857 81.0002H68.1428C68.9317 81.0002 69.5713 80.3606 69.5713 79.5716C69.5713 78.7827 68.9317 78.1431 68.1428 78.1431Z" fill="white" stroke="#FF6600"/>
<path d="M8.14282 36.7144H13.8571V45.2858H8.14282V36.7144Z" fill="white" stroke="#FF6600"/>
<path d="M8.14282 56.7144H13.8571V65.2858H8.14282V56.7144Z" fill="white" stroke="#FF6600"/>
<path d="M13.8571 68.1427H8.14286C6.5649 68.1427 5.28571 66.8635 5.28571 65.2856V56.7141C5.28571 55.1362 6.5649 53.857 8.14286 53.857H13.8571V48.1427H8.14286C6.5649 48.1427 5.28571 46.8635 5.28571 45.2856V36.7141C5.28571 35.1362 6.5649 33.857 8.14286 33.857H13.8571V29.5713H2.42857C1.63959 29.5713 1 30.2109 1 30.9999V75.2856H13.8571V68.1427Z" fill="white" stroke="#FF6600"/>
<path d="M65.2856 6.71436H16.7142C15.9252 6.71436 15.2856 7.35395 15.2856 8.14293C15.2856 8.93191 15.9252 9.5715 16.7142 9.5715H65.2856C66.0746 9.5715 66.7142 8.93191 66.7142 8.14293C66.7142 7.35395 66.0746 6.71436 65.2856 6.71436Z" fill="white" stroke="#FF6600"/>
<path d="M43.857 69.5714H42.4285V75.2856H53.857V56.7142C53.857 55.9252 53.2174 55.2856 52.4285 55.2856H42.4285V66.7142H43.857C44.646 66.7142 45.2856 67.3538 45.2856 68.1428C45.2856 68.9318 44.646 69.5714 43.857 69.5714Z" fill="white" stroke="#FF6600"/>
<path d="M79.5714 29.5713H68.1428V33.857H73.8571C75.4351 33.857 76.7143 35.1362 76.7143 36.7141V45.2856C76.7143 46.8635 75.4351 48.1427 73.8571 48.1427H68.1428V53.857H73.8571C75.4351 53.857 76.7143 55.1362 76.7143 56.7141V65.2856C76.7143 66.8635 75.4351 68.1427 73.8571 68.1427H68.1428V75.2856H81V30.9999C81 30.2109 80.3604 29.5713 79.5714 29.5713Z" fill="white" stroke="#FF6600"/>
<path d="M38.1428 66.7142H39.5714V55.2856H29.5714C28.7824 55.2856 28.1428 55.9252 28.1428 56.7142V75.2856H39.5714V69.5714H38.1428C37.3538 69.5714 36.7143 68.9318 36.7143 68.1428C36.7143 67.3538 37.3538 66.7142 38.1428 66.7142Z" fill="white" stroke="#FF6600"/>
</svg>
