<svg width="58" height="60" viewBox="0 0 58 60" fill="none" xmlns="http://www.w3.org/2000/svg">
<mask id="path-1-inside-1_274_2243" fill="white">
<path fill-rule="evenodd" clip-rule="evenodd" d="M7.20379 52.632H0.797363V59.0956H57.6657V52.632H50.9004H7.20379ZM24.838 0.959961C22.6419 0.959961 20.5485 1.40825 18.6498 2.22133L20.7199 4.02766L26.1843 5.41649L24.1495 9.60199L26.3411 10.4678L25.651 12.2126L21.5769 10.6026L23.4916 6.66613L19.8233 5.73439L16.8449 3.13402C12.1965 5.87504 9.07894 10.9322 9.07894 16.7175V50.31C10.9263 49.2288 14.731 47.002 14.731 47.002L13.3143 43.9079L16.1374 38.7013L17.7869 39.5949L15.4093 43.9797L17.1423 47.7638L12.0295 50.7568H39.5187L36.2665 47.6187L32.7901 48.2956L30.068 43.5841L31.6927 42.6465L33.7438 46.1992L36.8657 45.5926L40.5955 49.1892V16.7175C40.5955 8.01393 33.5415 0.959961 24.838 0.959961ZM49.0251 50.7568V16.7175C49.0251 8.01393 41.9712 0.959961 33.2676 0.959961H32.7607C38.5196 3.86066 42.4722 9.8276 42.4722 16.7175V50.7568H49.0251ZM16.5197 27.0194L15.103 25.7932L15.7916 24.9962C16.4172 24.2754 17.2757 23.8799 18.1679 23.8799C19.06 23.8799 19.9185 24.2754 20.5441 24.9962L20.5455 24.9991C20.8004 25.2921 21.1418 25.4679 21.5052 25.4679C21.867 25.4679 22.2083 25.2921 22.4632 24.9991L22.4647 24.9962C23.0902 24.2754 23.9502 23.8799 24.8409 23.8799C25.7331 23.8799 26.5931 24.2754 27.2172 24.9962L27.2201 24.9991C27.4736 25.2921 27.8164 25.4679 28.1782 25.4679C28.5401 25.4679 28.8829 25.2921 29.1363 24.9991L29.1393 24.9962C29.7634 24.2754 30.6232 23.8799 31.5154 23.8799C32.4061 23.8799 33.2661 24.2754 33.8917 24.9962C34.0338 25.1618 34.5773 25.7976 34.5773 25.7976L33.1504 27.015C33.1504 27.015 32.6142 26.3865 32.4736 26.2239C32.2202 25.9309 31.8773 25.7551 31.5154 25.7551C31.1521 25.7551 30.8108 25.9309 30.5559 26.2239L30.5545 26.2268C29.9289 26.9491 29.0704 27.3446 28.1782 27.3446C27.286 27.3446 26.4275 26.9491 25.802 26.2268L25.8005 26.2239C25.5455 25.9309 25.2042 25.7551 24.8409 25.7551C24.4791 25.7551 24.1363 25.9309 23.8828 26.2239L23.8813 26.2268C23.2558 26.9491 22.3959 27.3446 21.5052 27.3446C20.613 27.3446 19.753 26.9491 19.1289 26.2268L19.126 26.2239C18.8725 25.9309 18.5297 25.7551 18.1679 25.7551C17.806 25.7551 17.4632 25.9309 17.2098 26.2239L16.5197 27.0194ZM16.5197 32.3241L15.103 31.0965L15.7916 30.301C16.4172 29.5787 17.2757 29.1832 18.1679 29.1832C19.06 29.1832 19.9185 29.5787 20.5441 30.301L20.5455 30.3024C20.8004 30.5954 21.1418 30.7727 21.5052 30.7727C21.867 30.7727 22.2083 30.5954 22.4632 30.3024L22.4647 30.301C23.0902 29.5787 23.9502 29.1832 24.8409 29.1832C25.7331 29.1832 26.5931 29.5787 27.2172 30.301L27.2201 30.3024C27.4736 30.5954 27.8164 30.7727 28.1782 30.7727C28.5401 30.7727 28.8829 30.5954 29.1363 30.3024L29.1393 30.301C29.7634 29.5787 30.6232 29.1832 31.5154 29.1832C32.4061 29.1832 33.2661 29.5787 33.8917 30.301C34.0338 30.4651 34.5773 31.1009 34.5773 31.1009L33.1504 32.3183C33.1504 32.3183 32.6142 31.6913 32.4736 31.5287C32.2202 31.2342 31.8773 31.0584 31.5154 31.0584C31.1521 31.0584 30.8108 31.2342 30.5559 31.5287L30.5545 31.5301C29.9289 32.2524 29.0704 32.6479 28.1782 32.6479C27.286 32.6479 26.4275 32.2524 25.802 31.5301L25.8005 31.5287C25.5455 31.2342 25.2042 31.0584 24.8409 31.0584C24.4791 31.0584 24.1363 31.2342 23.8828 31.5287L23.8813 31.5301C23.2558 32.2524 22.3959 32.6479 21.5052 32.6479C20.613 32.6479 19.753 32.2524 19.1289 31.5301L19.126 31.5287C18.8725 31.2342 18.5297 31.0584 18.1679 31.0584C17.806 31.0584 17.4632 31.2342 17.2098 31.5287L16.5197 32.3241ZM16.5197 21.7161L15.103 20.4884L15.7916 19.6929C16.4172 18.9707 17.2757 18.5751 18.1679 18.5751C19.06 18.5751 19.9185 18.9707 20.5441 19.6929L20.5455 19.6958C20.8004 19.9888 21.1418 20.1646 21.5052 20.1646C21.867 20.1646 22.2083 19.9888 22.4632 19.6958L22.4647 19.6929C23.0902 18.9707 23.9502 18.5751 24.8409 18.5751C25.7331 18.5751 26.5931 18.9707 27.2172 19.6929L27.2201 19.6958C27.4736 19.9888 27.8164 20.1646 28.1782 20.1646C28.5401 20.1646 28.8829 19.9888 29.1363 19.6958L29.1393 19.6929C29.7634 18.9707 30.6232 18.5751 31.5154 18.5751C32.4061 18.5751 33.2661 18.9707 33.8917 19.6929C34.0338 19.857 34.5773 20.4943 34.5773 20.4943L33.1504 21.7117C33.1504 21.7117 32.6142 21.0832 32.4736 20.9206C32.2202 20.6276 31.8773 20.4518 31.5154 20.4518C31.1521 20.4518 30.8108 20.6276 30.5559 20.9206L30.5545 20.9235C29.9289 21.6443 29.0704 22.0398 28.1782 22.0398C27.286 22.0398 26.4275 21.6443 25.802 20.9235L25.8005 20.9206C25.5455 20.6276 25.2042 20.4518 24.8409 20.4518C24.4791 20.4518 24.1363 20.6276 23.8828 20.9206L23.8813 20.9235C23.2558 21.6443 22.3959 22.0398 21.5052 22.0398C20.613 22.0398 19.753 21.6443 19.1289 20.9235L19.126 20.9206C18.8725 20.6276 18.5297 20.4518 18.1679 20.4518C17.806 20.4518 17.4632 20.6276 17.2098 20.9206L16.5197 21.7161Z"/>
</mask>
<path fill-rule="evenodd" clip-rule="evenodd" d="M7.20379 52.632H0.797363V59.0956H57.6657V52.632H50.9004H7.20379ZM24.838 0.959961C22.6419 0.959961 20.5485 1.40825 18.6498 2.22133L20.7199 4.02766L26.1843 5.41649L24.1495 9.60199L26.3411 10.4678L25.651 12.2126L21.5769 10.6026L23.4916 6.66613L19.8233 5.73439L16.8449 3.13402C12.1965 5.87504 9.07894 10.9322 9.07894 16.7175V50.31C10.9263 49.2288 14.731 47.002 14.731 47.002L13.3143 43.9079L16.1374 38.7013L17.7869 39.5949L15.4093 43.9797L17.1423 47.7638L12.0295 50.7568H39.5187L36.2665 47.6187L32.7901 48.2956L30.068 43.5841L31.6927 42.6465L33.7438 46.1992L36.8657 45.5926L40.5955 49.1892V16.7175C40.5955 8.01393 33.5415 0.959961 24.838 0.959961ZM49.0251 50.7568V16.7175C49.0251 8.01393 41.9712 0.959961 33.2676 0.959961H32.7607C38.5196 3.86066 42.4722 9.8276 42.4722 16.7175V50.7568H49.0251ZM16.5197 27.0194L15.103 25.7932L15.7916 24.9962C16.4172 24.2754 17.2757 23.8799 18.1679 23.8799C19.06 23.8799 19.9185 24.2754 20.5441 24.9962L20.5455 24.9991C20.8004 25.2921 21.1418 25.4679 21.5052 25.4679C21.867 25.4679 22.2083 25.2921 22.4632 24.9991L22.4647 24.9962C23.0902 24.2754 23.9502 23.8799 24.8409 23.8799C25.7331 23.8799 26.5931 24.2754 27.2172 24.9962L27.2201 24.9991C27.4736 25.2921 27.8164 25.4679 28.1782 25.4679C28.5401 25.4679 28.8829 25.2921 29.1363 24.9991L29.1393 24.9962C29.7634 24.2754 30.6232 23.8799 31.5154 23.8799C32.4061 23.8799 33.2661 24.2754 33.8917 24.9962C34.0338 25.1618 34.5773 25.7976 34.5773 25.7976L33.1504 27.015C33.1504 27.015 32.6142 26.3865 32.4736 26.2239C32.2202 25.9309 31.8773 25.7551 31.5154 25.7551C31.1521 25.7551 30.8108 25.9309 30.5559 26.2239L30.5545 26.2268C29.9289 26.9491 29.0704 27.3446 28.1782 27.3446C27.286 27.3446 26.4275 26.9491 25.802 26.2268L25.8005 26.2239C25.5455 25.9309 25.2042 25.7551 24.8409 25.7551C24.4791 25.7551 24.1363 25.9309 23.8828 26.2239L23.8813 26.2268C23.2558 26.9491 22.3959 27.3446 21.5052 27.3446C20.613 27.3446 19.753 26.9491 19.1289 26.2268L19.126 26.2239C18.8725 25.9309 18.5297 25.7551 18.1679 25.7551C17.806 25.7551 17.4632 25.9309 17.2098 26.2239L16.5197 27.0194ZM16.5197 32.3241L15.103 31.0965L15.7916 30.301C16.4172 29.5787 17.2757 29.1832 18.1679 29.1832C19.06 29.1832 19.9185 29.5787 20.5441 30.301L20.5455 30.3024C20.8004 30.5954 21.1418 30.7727 21.5052 30.7727C21.867 30.7727 22.2083 30.5954 22.4632 30.3024L22.4647 30.301C23.0902 29.5787 23.9502 29.1832 24.8409 29.1832C25.7331 29.1832 26.5931 29.5787 27.2172 30.301L27.2201 30.3024C27.4736 30.5954 27.8164 30.7727 28.1782 30.7727C28.5401 30.7727 28.8829 30.5954 29.1363 30.3024L29.1393 30.301C29.7634 29.5787 30.6232 29.1832 31.5154 29.1832C32.4061 29.1832 33.2661 29.5787 33.8917 30.301C34.0338 30.4651 34.5773 31.1009 34.5773 31.1009L33.1504 32.3183C33.1504 32.3183 32.6142 31.6913 32.4736 31.5287C32.2202 31.2342 31.8773 31.0584 31.5154 31.0584C31.1521 31.0584 30.8108 31.2342 30.5559 31.5287L30.5545 31.5301C29.9289 32.2524 29.0704 32.6479 28.1782 32.6479C27.286 32.6479 26.4275 32.2524 25.802 31.5301L25.8005 31.5287C25.5455 31.2342 25.2042 31.0584 24.8409 31.0584C24.4791 31.0584 24.1363 31.2342 23.8828 31.5287L23.8813 31.5301C23.2558 32.2524 22.3959 32.6479 21.5052 32.6479C20.613 32.6479 19.753 32.2524 19.1289 31.5301L19.126 31.5287C18.8725 31.2342 18.5297 31.0584 18.1679 31.0584C17.806 31.0584 17.4632 31.2342 17.2098 31.5287L16.5197 32.3241ZM16.5197 21.7161L15.103 20.4884L15.7916 19.6929C16.4172 18.9707 17.2757 18.5751 18.1679 18.5751C19.06 18.5751 19.9185 18.9707 20.5441 19.6929L20.5455 19.6958C20.8004 19.9888 21.1418 20.1646 21.5052 20.1646C21.867 20.1646 22.2083 19.9888 22.4632 19.6958L22.4647 19.6929C23.0902 18.9707 23.9502 18.5751 24.8409 18.5751C25.7331 18.5751 26.5931 18.9707 27.2172 19.6929L27.2201 19.6958C27.4736 19.9888 27.8164 20.1646 28.1782 20.1646C28.5401 20.1646 28.8829 19.9888 29.1363 19.6958L29.1393 19.6929C29.7634 18.9707 30.6232 18.5751 31.5154 18.5751C32.4061 18.5751 33.2661 18.9707 33.8917 19.6929C34.0338 19.857 34.5773 20.4943 34.5773 20.4943L33.1504 21.7117C33.1504 21.7117 32.6142 21.0832 32.4736 20.9206C32.2202 20.6276 31.8773 20.4518 31.5154 20.4518C31.1521 20.4518 30.8108 20.6276 30.5559 20.9206L30.5545 20.9235C29.9289 21.6443 29.0704 22.0398 28.1782 22.0398C27.286 22.0398 26.4275 21.6443 25.802 20.9235L25.8005 20.9206C25.5455 20.6276 25.2042 20.4518 24.8409 20.4518C24.4791 20.4518 24.1363 20.6276 23.8828 20.9206L23.8813 20.9235C23.2558 21.6443 22.3959 22.0398 21.5052 22.0398C20.613 22.0398 19.753 21.6443 19.1289 20.9235L19.126 20.9206C18.8725 20.6276 18.5297 20.4518 18.1679 20.4518C17.806 20.4518 17.4632 20.6276 17.2098 20.9206L16.5197 21.7161Z" fill="white" stroke="#FF6600" stroke-width="2" mask="url(#path-1-inside-1_274_2243)"/>
</svg>
