<svg width="96" height="96" viewBox="0 0 96 96" fill="none" xmlns="http://www.w3.org/2000/svg">
<path fill-rule="evenodd" clip-rule="evenodd" d="M60.3169 42.7478C61.8775 40.273 72.1197 30.016 73.5653 31.2855C75.2087 31.6812 77.1265 32.61 78.0432 33.3091C81.9155 36.375 83.676 37.0579 81.683 30.7031C80.981 28.8242 79.9434 27.6247 78.8378 26.0101C75.938 21.6466 78.4858 21.4182 74.7499 18.3139C74.2906 17.8647 73.9448 17.4297 73.7264 16.8209C72.7259 14.0869 72.3999 9.72623 70.5733 6.74113C69.9837 5.68617 68.9851 4.85712 67.4973 3.79243C62.7042 0.41725 59.7813 1.30926 54.4154 1.63219C48.0904 1.90427 47.4061 -0.518174 41.9774 1.14143C38.5376 2.08013 34.5763 4.0212 31.6861 5.89104C23.3627 10.8111 25.4194 20.2723 22.1276 26.4195C21.3915 27.4319 20.4051 28.1985 19.7898 29.2876C17.9131 32.7222 16.1315 36.2069 14.2481 39.6085C10.6285 46.3407 7.35322 50.6124 2.38503 57.4271C0.907295 59.5921 -0.576164 60.7627 1.06323 61.2775C2.61429 61.494 41.337 66.9036 45.6611 67.5078L52.9409 80.8938C49.2837 92.1455 59.4323 88.876 57.4757 94.3498C57.4038 95.6299 58.5766 95.2525 58.5107 95.3168C97.8315 94.5309 96.3938 95.535 95.2585 93.2086C91.4161 87.4643 94.1039 87.5517 93.7204 83.8417C92.4135 79.6171 89.5959 80.8101 88.4214 75.3501C86.5399 69.5623 84.4157 71.5036 83.3069 65.4103C83.0534 64.5029 82.6397 63.6714 82.1846 62.8448C78.4754 56.9093 80.156 56.2484 79.8774 51.0137C79.5521 46.889 77.0783 44.8284 73.3084 44.0644C70.4037 43.5085 68.5847 43.8311 66.1335 45.2968C65.3906 45.6609 64.9398 45.688 64.6035 45.4682C63.6266 44.9844 61.3147 43.6722 60.3169 42.7478ZM80.7745 33.382C78.5277 31.6983 75.6141 29.6227 72.4783 29.6724C69.8146 30.6109 67.5175 33.1626 64.5855 35.7587C56.7981 43.6284 56.8624 42.8826 64.143 46.9756C65.839 47.761 67.7242 46.0035 69.0082 45.6168C70.4738 45.1859 72.5414 45.3429 74.3334 45.9542C79.8898 47.8373 77.971 52.9823 78.2259 57.0105C78.3262 60.0916 80.2194 62.1814 81.3362 64.6022C81.9591 65.885 82.1517 67.3135 82.5914 68.6288C83.3506 71.2236 86.0725 72.5911 86.7695 75.2308C87.3418 76.8864 87.625 78.6352 88.7823 80.0169C89.6894 81.1494 90.9383 81.9037 91.7436 83.0853C93.5125 86.4955 89.4164 86.9531 93.4348 93.2205C93.4348 93.2205 64.872 93.6561 59.1955 93.744C60.3541 89.3465 53.4796 89.3113 53.6757 85.4184C54.2493 77.2133 57.2117 86.1053 47.0195 66.7359C47.0049 66.5079 46.3294 65.8664 46.2152 66.0078C44.5329 65.7727 2.52854 59.9061 2.51845 59.9046C4.56506 57.0177 8.42549 51.9124 10.8039 48.3856C17.9574 37.367 20.1465 30.3782 23.3282 27.4183C27.2511 20.24 24.7479 11.5065 32.8358 7.00623C47.6785 -1.78868 47.0537 4.37634 55.8387 3.08382C60.1346 2.71664 62.8049 2.24447 67.0964 5.435C71.2937 8.10481 70.9324 14.5802 72.4022 17.7123C72.8642 18.731 73.5196 19.3077 74.2819 20.0169C76.1967 21.5621 75.4502 22.9311 76.2159 24.5303C77.7893 28.0684 80.0913 29.1603 80.7745 33.382Z" fill="#FF6600"/>
</svg>
