<svg width="80" height="60" viewBox="0 0 80 60" fill="none" xmlns="http://www.w3.org/2000/svg">
<path d="M11.6293 13.1455H12.1293V13.1124C13.998 12.867 15.4447 11.2649 15.4447 9.33001C15.4447 7.22565 13.7334 5.515 11.6293 5.515H9.25175C8.45811 5.515 7.81425 6.15886 7.81425 6.9525V11.1056V11.7075V16.1339C7.81425 16.9276 8.45811 17.5715 9.25175 17.5715C10.046 17.5715 10.6893 16.9274 10.6893 16.1339V13.1455H11.6293ZM20.9004 11.543C20.9004 17.1666 16.3247 21.7432 10.7002 21.7432C5.07662 21.7432 0.5 17.167 0.5 11.543C0.5 5.91991 5.07662 1.34326 10.7002 1.34326C16.3247 1.34326 20.9004 5.91942 20.9004 11.543Z" fill="white" stroke="#FF6600"/>
<path d="M5.61499 50.9801V47.8135C5.61499 47.5721 5.81113 47.376 6.05249 47.376H15.3019C15.5431 47.376 15.7394 47.5724 15.7394 47.8135V50.9801H5.61499Z" fill="white" stroke="#FF6600"/>
<path d="M19.4646 58.2194L19.4646 58.2203C19.465 58.4605 19.2694 58.6569 19.028 58.6569H2.32825C2.08705 58.6569 1.89075 58.4604 1.89075 58.2194V53.9805C1.89075 53.7391 2.08689 53.543 2.32825 53.543H19.0271C19.2683 53.543 19.4646 53.7394 19.4646 53.9805L19.4646 58.2194Z" fill="white" stroke="#FF6600"/>
<path d="M8.10034 44.8139V24.0393C8.94017 24.2138 9.80975 24.3057 10.7002 24.3057C11.5903 24.3057 12.4598 24.2138 13.2996 24.0393V44.8139H8.10034Z" fill="white" stroke="#FF6600"/>
<path d="M73.6736 35.1534L73.7893 35.4914H74.1467H76.594C77.5919 35.4914 78.404 36.3039 78.404 37.3014V49.3967C78.404 50.3951 77.5919 51.2071 76.594 51.2071H28.2333C27.2359 51.2071 26.4233 50.3946 26.4233 49.3971V37.3014C26.4233 36.3036 27.2358 35.4914 28.2333 35.4914H30.6816H31.039L31.1547 35.1534L36.1094 20.6807C36.3617 19.944 36.7015 19.1409 37.2173 18.5266C37.7189 17.9289 38.3772 17.5186 39.3109 17.5186H65.5174C66.4511 17.5186 67.1094 17.929 67.6112 18.5267C68.127 19.1411 68.4668 19.9442 68.7189 20.6806L68.7189 20.6807L73.6736 35.1534ZM32.8181 34.8304L32.5915 35.4924H33.2912H71.7265H71.727H72.4266L72.2 34.8304L67.5294 21.1879L67.5293 21.1878C67.2292 20.3117 66.879 19.6209 66.4341 19.1441C65.9714 18.6483 65.4141 18.394 64.7636 18.394H40.254C39.6037 18.394 39.0462 18.648 38.5833 19.1439C38.1382 19.6206 37.788 20.3115 37.4883 21.1879C37.4883 21.1879 37.4883 21.188 37.4883 21.188L32.8181 34.8304ZM69.0949 48.0306C71.6768 48.0306 73.7762 45.9312 73.7762 43.3493C73.7762 40.7678 71.6764 38.668 69.0949 38.668C66.5135 38.668 64.4136 40.7678 64.4136 43.3493C64.4136 45.9307 66.5129 48.0306 69.0949 48.0306ZM62.7849 46.1102V40.5888C62.7849 39.6596 62.0289 38.9038 61.0994 38.9038H43.7279C42.7982 38.9038 42.0429 39.6598 42.0429 40.5888V46.1098C42.0429 47.0387 42.7982 47.7948 43.7279 47.7948H61.0994C62.0285 47.7948 62.7849 47.0403 62.7849 46.1102ZM35.7324 48.0306C38.3139 48.0306 40.4137 45.9313 40.4137 43.3493C40.4137 40.7679 38.3144 38.668 35.7324 38.668C33.1504 38.668 31.0516 40.7679 31.0516 43.3493C31.0516 45.9307 33.1509 48.0306 35.7324 48.0306Z" fill="white" stroke="#FF6600"/>
<path d="M74.501 58.614H68.9332C67.7267 58.614 66.7449 57.6318 66.7449 56.4257V53.2839H76.594C76.6258 53.2839 76.6576 53.2836 76.6893 53.2828V56.4257C76.6893 57.6322 75.7075 58.614 74.501 58.614Z" fill="white" stroke="#FF6600"/>
<path d="M28.1385 56.4257V53.2828C28.1701 53.2836 28.2017 53.2839 28.2334 53.2839H38.0825V56.4257V56.4258C38.0829 57.6321 37.1008 58.614 35.8947 58.614H30.3268C29.1208 58.614 28.1385 57.6317 28.1385 56.4257Z" fill="white" stroke="#FF6600"/>
<path d="M75.2733 33.4143L73.6094 28.554C74.1815 28.2408 74.8356 28.0674 75.5248 28.0674C77.7163 28.0674 79.5 29.8508 79.5 32.0421C79.5 32.809 79.278 33.5405 78.8853 34.1627C78.2429 33.6925 77.4503 33.4143 76.5936 33.4143H75.2733Z" fill="white" stroke="#FF6600"/>
<path d="M28.2329 33.4143C27.381 33.4143 26.5927 33.6897 25.9522 34.1551C25.5625 33.5347 25.3424 32.8062 25.3424 32.0421C25.3424 29.8508 27.1257 28.0674 29.3176 28.0674C30.0017 28.0674 30.6514 28.2384 31.2204 28.5473L29.5542 33.4143H28.2329Z" fill="white" stroke="#FF6600"/>
<path d="M58.4471 13.0468L58.4471 13.0469L58.9802 15.4426H45.8466L46.3798 13.0465L45.8996 12.9396L46.3798 13.0465C46.552 12.2725 47.0251 11.9116 47.5436 11.9116H57.2833C57.8017 11.9116 58.2753 12.2733 58.4471 13.0468Z" fill="white" stroke="#FF6600"/>
<path d="M56.0619 31.1619L56.0619 31.1619C56.1909 31.291 56.3643 31.3628 56.5465 31.3628V31.8628C56.8607 31.8626 57.1608 31.7384 57.3832 31.5164C57.8468 31.0538 57.8463 30.3028 57.3837 29.8402L49.3314 21.7879C48.8688 21.3253 48.1192 21.3253 47.6561 21.7879L56.0619 31.1619ZM56.0619 31.1619L48.0097 23.1102C48.0097 23.1102 48.0097 23.1102 48.0097 23.1102C47.7423 22.8428 47.7423 22.4091 48.0095 22.1417M56.0619 31.1619L48.0095 22.1417M48.0095 22.1417C48.2775 21.8739 48.7106 21.8742 48.9779 22.1415L57.0301 30.1937C57.2977 30.4613 57.2977 30.8954 57.03 31.1625L48.0095 22.1417ZM58.0099 26.8576C58.1822 26.8513 58.3454 26.7804 58.4685 26.6574C58.7361 26.3895 58.7362 25.9564 58.4687 25.6885L58.0099 26.8576ZM58.0099 26.8576H57.9841C57.802 26.8576 57.6286 26.7858 57.4996 26.6568C57.4996 26.6568 57.4996 26.6568 57.4995 26.6567L52.5153 21.6721L52.5153 21.672C52.2478 21.4045 52.2481 20.9708 52.5151 20.704L52.5155 20.7036C52.7828 20.436 53.2169 20.436 53.4843 20.7036L53.4844 20.7038L58.4685 25.6884L58.0099 26.8576ZM51.5567 32.6L51.5567 32.6001C51.6859 32.7292 51.8589 32.801 52.0408 32.801V33.301C52.3552 33.3008 52.6555 33.1766 52.878 32.9545C53.3416 32.4919 53.3411 31.7409 52.8785 31.2783L47.8938 26.2936C47.4311 25.8309 46.6811 25.8309 46.2185 26.2936C45.7558 26.7567 45.7558 27.5067 46.2185 27.9694L51.5567 32.6ZM51.5567 32.6L46.572 27.6158C46.3048 27.3486 46.3045 26.9152 46.572 26.6471C46.8394 26.3797 47.2728 26.3797 47.5402 26.6471L52.5249 31.6318C52.7925 31.8994 52.7925 32.3335 52.5248 32.6006C52.396 32.7292 52.2225 32.801 52.0403 32.801V33.301L51.5567 32.6ZM57.03 31.1625C56.9011 31.2911 56.7277 31.3628 56.5455 31.3628V31.8628C56.2309 31.8626 55.9308 31.7379 55.7083 31.5155L57.03 31.1625Z" fill="white" stroke="#FF6600"/>
<path d="M47.1621 45.1456C46.7843 45.1456 46.4771 44.8384 46.4771 44.4606V42.2387C46.4771 41.8609 46.7843 41.5537 47.1621 41.5537C47.5398 41.5537 47.8471 41.861 47.8471 42.2387V44.4606C47.8471 44.8388 47.5403 45.1456 47.1621 45.1456ZM50.6632 45.1456C50.2854 45.1456 49.9782 44.8384 49.9782 44.4606V42.2387C49.9782 41.861 50.2854 41.5537 50.6632 41.5537C51.0409 41.5537 51.3482 41.8609 51.3482 42.2387V44.4606C51.3482 44.8388 51.0414 45.1456 50.6632 45.1456ZM54.1643 45.1456C53.7865 45.1456 53.4793 44.8384 53.4793 44.4606V42.2387C53.4793 41.861 53.7865 41.5537 54.1643 41.5537C54.5417 41.5537 54.8493 41.8611 54.8493 42.2387V44.4606C54.8493 44.8385 54.5424 45.1456 54.1643 45.1456ZM57.6654 45.1456C57.2876 45.1456 56.9804 44.8384 56.9804 44.4606V42.2387C56.9804 41.8609 57.2876 41.5537 57.6654 41.5537C58.0428 41.5537 58.3504 41.8611 58.3504 42.2387V44.4606C58.3504 44.8384 58.0431 45.1456 57.6654 45.1456Z" fill="white" stroke="#FF6600"/>
<path d="M11.6292 10.2701H11.1292V10.2706H10.6892V8.39044L11.6292 8.39014C11.6292 8.39014 11.6293 8.39014 11.6293 8.39014C11.6293 8.39014 11.6293 8.39014 11.6294 8.39014C12.1468 8.39023 12.5692 8.81274 12.5692 9.33014C12.5692 9.8477 12.147 10.2701 11.6292 10.2701Z" fill="white" stroke="#FF6600"/>
</svg>
