<svg width="76" height="77" viewBox="0 0 76 77" fill="none" xmlns="http://www.w3.org/2000/svg">
<path d="M39.6993 60.2569L39.7362 59.832L39.3225 59.7285L35.3225 58.7285L35.3207 58.7281C35.1578 58.688 35.0131 58.5945 34.9097 58.4625C34.8062 58.3305 34.75 58.1676 34.75 57.9999V53.1724V52.079L33.9229 52.7942C32.2776 54.217 30.1751 54.9999 28 54.9999C25.8248 54.9999 23.7223 54.217 22.077 52.7942L21.25 52.079V53.1724V57.9998C21.25 57.9999 21.25 57.9999 21.25 57.9999C21.25 58.1671 21.1941 58.3295 21.0912 58.4613C20.9884 58.593 20.8445 58.6866 20.6824 58.7273C20.6824 58.7273 20.6824 58.7273 20.6824 58.7273C20.6823 58.7273 20.6823 58.7273 20.6822 58.7274L16.6824 59.7273L16.2688 59.8307L16.3056 60.2555C16.5594 63.1838 17.9006 65.9108 20.0649 67.8995C22.2292 69.8881 25.0598 70.9942 27.999 70.9999L28.0007 70.9999C30.9406 70.9955 33.7723 69.8902 35.9377 67.9017C38.103 65.9132 39.4451 63.1857 39.6993 60.2569Z" fill="white" stroke="#FF6600"/>
<path d="M33.6816 50.9479L33.6812 50.9483C32.9681 51.7505 32.0931 52.3927 31.1139 52.8324C30.1347 53.2721 29.0734 53.4995 28 53.4995C26.9266 53.4995 25.8653 53.2721 24.8861 52.8324C23.9069 52.3927 23.0319 51.7505 22.3188 50.9483L21.4539 49.9759C17.2943 45.2996 14.9975 39.2582 15 32.9996L15 32.9991C15.0023 31.2766 15.4964 29.5906 16.4241 28.1393C17.3518 26.6879 18.6746 25.5316 20.237 24.8063L20.2382 24.8057L25.14 22.5461C25.1401 22.546 25.1402 22.546 25.1403 22.5459C28.1764 21.1405 30.9079 19.1541 33.1806 16.6989L33.8494 15.9764L34.0382 16.9427C34.5066 19.3389 35.3957 21.6332 36.6645 23.7191L38.9 26.6998L38.9007 26.7008C40.2587 28.5201 40.9947 30.7284 41 32.9987L41 32.9996C41.0023 39.2578 38.7052 45.2987 34.5453 49.9741L33.6816 50.9479ZM33.6816 50.9479L34.5448 49.9747L33.6816 50.9479Z" fill="white" stroke="#FF6600"/>
<path d="M14.2263 60.3411L9.49011 61.5248C9.49007 61.5248 9.49004 61.5248 9.49001 61.5248C7.13606 62.1127 5.04631 63.4709 3.55319 65.3833C2.06008 67.2957 1.24936 69.6524 1.25 72.0787C1.25 72.0787 1.25 72.0788 1.25 72.0788L1.25 75.4999V75.9999H1.75H54.25H54.75V75.4999V72.0788C54.75 72.0788 54.75 72.0787 54.75 72.0787C54.7506 69.6524 53.9399 67.2957 52.4468 65.3833C50.9537 63.4709 48.8639 62.1127 46.51 61.5248C46.51 61.5248 46.5099 61.5248 46.5099 61.5248L41.7737 60.3411L41.2209 60.2029L41.1558 60.769C40.7844 63.9979 39.2386 66.9774 36.8127 69.1403C34.3868 71.3032 31.2501 72.4985 28 72.4985C24.7499 72.4985 21.6132 71.3032 19.1873 69.1403C16.7614 66.9774 15.2156 63.9979 14.8442 60.769L14.7791 60.2029L14.2263 60.3411Z" fill="white" stroke="#FF6600"/>
<path d="M51.5367 41.7561L51.3395 41.2201L50.8343 41.4865C49.5751 42.1506 48.1732 42.4984 46.7497 42.5C46.6359 42.4999 46.5237 42.4739 46.4214 42.424C46.319 42.3741 46.2294 42.3014 46.1592 42.2116C46.0891 42.1219 46.0404 42.0173 46.0167 41.9058C45.993 41.7944 45.9951 41.679 46.0226 41.5685L49.7351 26.7175L49.75 26.6578V26.5963V23C49.75 17.2315 47.4585 11.6993 43.3796 7.62043C39.3007 3.54151 33.7685 1.25 28 1.25C22.2315 1.25 16.6993 3.54151 12.6204 7.62043C8.54151 11.6993 6.25 17.2315 6.25 23V31.711C6.2474 36.7819 4.92378 41.7646 2.40953 46.1683L2.40941 46.1686C1.79969 47.2377 1.42077 48.4228 1.29706 49.6473C1.17335 50.8719 1.30759 52.1088 1.69115 53.2783C2.0747 54.4478 2.69904 55.524 3.52394 56.4374C4.34884 57.3509 5.35598 58.0814 6.48045 58.5818L6.48071 58.5819L9.41196 59.8844L9.56914 59.9543L9.73603 59.9126L19.371 57.5089L19.75 57.4143V57.0238V50.43V50.251L19.6364 50.1126C15.6743 45.2893 13.5059 39.2422 13.5 33.0002C13.5051 30.9926 14.0827 29.028 15.1651 27.3371C16.2475 25.6462 17.7899 24.299 19.611 23.4539C19.6113 23.4538 19.6115 23.4537 19.6117 23.4536L24.5119 21.1941L24.5126 21.1937C28.1223 19.5217 31.2615 16.9815 33.6499 13.8002L33.65 13.8C33.7383 13.6823 33.8591 13.5932 33.9976 13.5437C34.1361 13.4942 34.2861 13.4865 34.429 13.5216C34.5718 13.5567 34.7012 13.633 34.801 13.741C34.9008 13.8491 34.9666 13.9841 34.9903 14.1292L34.9904 14.1301C35.1331 14.9955 35.4678 16.6467 35.9498 18.3281C36.4258 19.9885 37.0673 21.7589 37.85 22.8025L37.8501 22.8027L40.0993 25.799C40.0993 25.7991 40.0994 25.7992 40.0994 25.7992C41.652 27.8797 42.4937 30.4047 42.5 33.0007C42.494 39.2425 40.3255 45.2894 36.3636 50.1126L36.25 50.251V50.43V57.0238V57.4141L36.6287 57.5088L46.2637 59.9176L46.4311 59.9594L46.5887 59.8891L49.5194 58.5819C50.6446 58.0815 51.6524 57.3509 52.4778 56.437C53.3032 55.5231 53.9279 54.4464 54.3115 53.2762C54.6951 52.1061 54.8291 50.8685 54.7049 49.6434C54.5807 48.4182 54.2011 47.2327 53.5904 46.1633L53.5903 46.163C52.7844 44.7537 52.0975 43.2796 51.5367 41.7561Z" fill="white" stroke="#FF6600"/>
<path d="M59.9699 13.1202C61.1047 12.692 62.0669 11.9021 62.708 10.8725C63.3492 9.84259 63.6333 8.63018 63.5165 7.42264C63.3996 6.21509 62.8883 5.07964 62.0616 4.19178C61.2348 3.30392 60.1386 2.71308 58.9425 2.51057C57.7463 2.30807 56.5168 2.50517 55.4438 3.07143C54.3709 3.63768 53.5143 4.54155 53.0065 5.64335C52.4987 6.74514 52.368 7.98352 52.6344 9.16708C52.9009 10.3504 53.5495 11.4131 54.4802 12.1909C54.5874 12.2811 54.6672 12.3996 54.7104 12.5329C54.7538 12.6663 54.7588 12.8092 54.725 12.9453C54.725 12.9454 54.7249 12.9455 54.7249 12.9457L47.9163 40.1764L47.7143 40.9843L48.5224 40.7828C49.8012 40.4638 50.9704 39.8059 51.9067 38.8783C52.8431 37.9507 53.5119 36.7877 53.8429 35.5119L53.8429 35.5119L59.5164 13.6263L59.5166 13.6256L59.5166 13.6257C59.5465 13.5115 59.6032 13.406 59.6821 13.3181C59.7609 13.2301 59.8596 13.1623 59.9699 13.1202ZM59.9699 13.1202C59.9696 13.1203 59.9693 13.1204 59.969 13.1205L59.7926 12.6526L59.9706 13.1199C59.9704 13.12 59.9701 13.1201 59.9699 13.1202ZM58.0001 10.0001C57.6046 10.0001 57.2179 9.88285 56.889 9.66308C56.5601 9.44332 56.3037 9.13096 56.1524 8.76551C56.001 8.40006 55.9614 7.99793 56.0385 7.60996C56.1157 7.222 56.3062 6.86563 56.5859 6.58593C56.8656 6.30622 57.222 6.11574 57.6099 6.03857C57.9979 5.9614 58.4 6.00101 58.7655 6.15238C59.1309 6.30376 59.4433 6.56011 59.6631 6.889C59.8828 7.2179 60.0001 7.60458 60.0001 8.00014C60.0001 8.53058 59.7894 9.03928 59.4143 9.41436C59.0393 9.78943 58.5306 10.0001 58.0001 10.0001Z" fill="white" stroke="#FF6600"/>
<path d="M69.25 13.75C68.1391 13.7479 67.054 14.0847 66.1394 14.7154C65.2249 15.346 64.5245 16.2404 64.1316 17.2794C64.0888 17.3902 64.0202 17.4892 63.9316 17.5683C63.8427 17.6478 63.7361 17.7048 63.6206 17.7348L60.0259 18.666L59.7412 18.7398L59.6673 19.0245L58.5861 23.1945L58.3748 24.0095L59.1915 23.8051L64.3052 22.5251L64.3054 22.525C64.4418 22.4908 64.5851 22.4957 64.719 22.539C64.8528 22.5824 64.9717 22.6625 65.0621 22.7703L65.0625 22.7707C65.6567 23.4768 66.4194 24.0217 67.28 24.3549C68.1407 24.6881 69.0714 24.7988 69.9862 24.6769C70.901 24.555 71.7703 24.2043 72.5136 23.6573C73.2569 23.1103 73.8503 22.3847 74.2388 21.5476C74.6273 20.7104 74.7984 19.7889 74.7363 18.8681C74.6741 17.9473 74.3808 17.057 73.8833 16.2797C73.3859 15.5024 72.7004 14.863 71.8904 14.4209C71.0806 13.9789 70.1725 13.7481 69.25 13.75ZM69.25 13.75C69.2497 13.75 69.2493 13.75 69.249 13.75L69.2501 14.25L69.2511 13.75C69.2507 13.75 69.2504 13.75 69.25 13.75ZM69.2501 21.25C68.8545 21.25 68.4678 21.1327 68.1389 20.913C67.81 20.6932 67.5537 20.3808 67.4023 20.0154C67.2509 19.6499 67.2113 19.2478 67.2885 18.8598C67.3657 18.4719 67.5561 18.1155 67.8359 17.8358C68.1156 17.5561 68.4719 17.3656 68.8599 17.2884C69.2478 17.2113 69.65 17.2509 70.0154 17.4023C70.3809 17.5536 70.6932 17.81 70.913 18.1389C71.1328 18.4678 71.2501 18.8544 71.2501 19.25C71.2501 19.7804 71.0394 20.2892 70.6643 20.6642C70.2892 21.0393 69.7805 21.25 69.2501 21.25Z" fill="white" stroke="#FF6600"/>
</svg>
