<svg width="80" height="80" viewBox="0 0 80 80" fill="none" xmlns="http://www.w3.org/2000/svg">
<path d="M0.5 69.0728H8.07143V79.4999H0.5V69.0728Z" fill="white" stroke="#FF6600"/>
<path d="M13.7857 19.0713V25.7135C13.7812 29.3809 10.8101 32.3521 7.14286 32.357C3.47568 32.3521 0.504707 29.381 0.5 25.7138V19.0713H13.7857Z" fill="white" stroke="#FF6600"/>
<path d="M5.09021 37.5981C4.43406 39.6031 4.02075 41.6806 3.85948 43.7859H0.698207C1.24354 41.1955 2.8411 38.9576 5.09021 37.5981Z" fill="white" stroke="#FF6600"/>
<path d="M0.5 36.3464V33.8362C1.01011 34.2538 1.55847 34.6228 2.13772 34.9383C1.5547 35.3631 1.00703 35.834 0.5 36.3464Z" fill="white" stroke="#FF6600"/>
<path d="M5.71429 60.5002H6.21429V60.0002V57.1431V56.6431H5.71429H2.85714H2.35714V57.1431V60.0002V60.5002H2.85714H5.71429ZM8.07143 65.2145H0.5V47.6431H8.07143V65.2145Z" fill="white" stroke="#FF6600"/>
<path d="M19.4999 69.0728V79.4999H11.9285V69.0728H19.4999Z" fill="white" stroke="#FF6600"/>
<path d="M2.02199 15.2157L11.078 0.5H18.8173L14.2896 15.2157H2.02199Z" fill="white" stroke="#FF6600"/>
<path d="M10.0001 36.2144C10.0796 36.2144 10.1534 36.2177 10.2315 36.2224C11.3498 38.605 12.0401 41.1651 12.2716 43.7858H7.72855C7.95997 41.1647 8.65019 38.6042 9.76829 36.2218C9.84663 36.2174 9.92129 36.2144 10.0001 36.2144Z" fill="white" stroke="#FF6600"/>
<path d="M55.7335 4.00317L55.7331 4.00272C54.6226 2.67899 53.3507 1.50236 51.9485 0.5H58.4665L61.8616 15.2143H60.392C60.0172 11.0941 58.3937 7.18166 55.7335 4.00317Z" fill="white" stroke="#FF6600"/>
<path d="M23.4234 15.6608L23.4235 15.6591C24.1908 7.08793 31.3655 0.515117 39.9704 0.5C40.4736 0.500014 40.9792 0.523688 41.4874 0.570444L41.4886 0.570553C48.085 1.16106 53.703 5.61016 55.7887 11.8964C57.7525 17.8153 56.2326 24.3004 51.9286 28.7254V27.5774C52.7513 27.3571 53.3571 26.6064 53.3571 25.7143V14.8395C53.3755 9.39803 50.0607 4.5003 45.0021 2.4951C44.4087 2.25835 43.7357 2.32969 43.2054 2.68859C42.6756 3.04709 42.3571 3.64496 42.3571 4.28571V33.6071C41.2692 33.7641 40.1687 33.8139 39.0714 33.7554V22.5131C39.9893 21.4071 40.4956 20.0147 40.5 18.5729V18.5714V7.14286C40.5 6.07779 39.6365 5.21429 38.5714 5.21429C37.5064 5.21429 36.6428 6.07779 36.6428 7.14286V12.3571H36.2143V7.14286C36.2143 6.07779 35.3508 5.21429 34.2857 5.21429C33.2206 5.21429 32.3571 6.07779 32.3571 7.14286V12.3571H31.9286V7.14286C31.9286 6.07779 31.0651 5.21429 30 5.21429C28.9349 5.21429 28.0714 6.07779 28.0714 7.14286L28.0714 18.5714L28.0714 18.5729C28.0758 20.0146 28.5821 21.4083 29.5 22.5145V30.0466C28.6734 29.3792 27.9119 28.6341 27.2254 27.8212C24.384 24.4386 23.0151 20.0588 23.4234 15.6608Z" fill="white" stroke="#FF6600"/>
<path d="M28.0531 0.5C27.645 0.789038 27.2473 1.0928 26.8608 1.41077L26.859 1.41229C22.7003 4.86746 20.0861 9.8333 19.5912 15.2143H18.3257L22.8533 0.5H28.0531ZM27.1785 1.79681L27.1785 1.79688L27.1785 1.79681Z" fill="white" stroke="#FF6600"/>
<path d="M17.1428 60.5002H17.6428V60.0002V57.1431V56.6431H17.1428H14.2856H13.7856V57.1431V60.0002V60.5002H14.2856H17.1428ZM19.4999 65.2145H11.9285V47.6431H19.4999V65.2145Z" fill="white" stroke="#FF6600"/>
<path d="M62.424 0.5H68.9218L77.9779 15.2157H65.8204L62.424 0.5Z" fill="white" stroke="#FF6600"/>
<path d="M53.9963 32.1127C57.659 28.7094 59.9487 24.068 60.4094 19.0713H62.357V25.7141L62.357 25.7141L62.3571 25.7184C62.3759 27.933 61.2802 30.0082 59.441 31.242C57.8301 32.3225 55.8378 32.6297 53.9963 32.1127Z" fill="white" stroke="#FF6600"/>
<path d="M35.86 20.3113L35.86 20.3113L35.8568 20.3142C35.451 20.6794 35.2184 21.2001 35.2184 21.7474V33.0702C34.9829 32.9997 34.7488 32.9238 34.5158 32.8434C34.5153 32.8432 34.5148 32.843 34.5144 32.8429L34.3509 32.7854C34.0152 32.6669 33.6854 32.5348 33.357 32.392V21.746C33.357 21.1987 33.1244 20.678 32.7186 20.3128L32.7187 20.3127L32.7148 20.3093C32.2154 19.869 31.9291 19.2361 31.9285 18.5713V16.2144H32.357V18.5715C32.357 19.6366 33.2205 20.5001 34.2856 20.5001C35.3507 20.5001 36.2142 19.6366 36.2142 18.5715V16.2144H36.6428V18.5715V18.5719C36.6433 19.2369 36.3581 19.8705 35.86 20.3113Z" fill="white" stroke="#FF6600"/>
<path d="M24.2662 30.2893L24.2681 30.2915C24.8115 30.9334 25.3927 31.5417 26.009 32.1127C24.1674 32.6287 22.1754 32.321 20.5643 31.2412L20.5642 31.2411C18.7236 30.008 17.6265 27.9333 17.6428 25.7178H17.6428V25.7141V19.0713H19.6065C19.9818 23.1942 21.6053 27.1087 24.2663 30.2893L24.2662 30.2893Z" fill="white" stroke="#FF6600"/>
<path d="M48.0715 31.6823C47.4714 32.0173 46.8512 32.3145 46.2144 32.5725V27.6431H48.0715V31.6823Z" fill="white" stroke="#FF6600"/>
<path d="M49.5001 14.8371V14.8389V23.7858H46.2144V7.67431C48.296 9.45212 49.5101 12.0664 49.5001 14.8371Z" fill="white" stroke="#FF6600"/>
<path d="M35.2147 55.8499L35.2143 55.8591V55.8684V62.8571C35.2143 63.9221 36.0778 64.7856 37.1429 64.7856H39.5V65.2142H34.2857C33.773 65.2142 33.3572 64.7984 33.3572 64.2856V55.7142C33.3572 55.2021 33.7718 54.7868 34.2837 54.7856C34.3337 54.7862 34.3835 54.7904 34.4323 54.7983C34.9071 54.9219 35.2329 55.3587 35.2147 55.8499Z" fill="white" stroke="#FF6600"/>
<path d="M35.2143 45.7157C35.2143 46.2285 34.7985 46.6443 34.2857 46.6443C33.773 46.6443 33.3572 46.2285 33.3572 45.7157C33.3572 45.2029 33.773 44.7871 34.2857 44.7871C34.7985 44.7871 35.2143 45.2029 35.2143 45.7157Z" fill="white" stroke="#FF6600"/>
<path d="M67.6429 55.8683V55.8589L67.6425 55.8494C67.6239 55.3581 67.9491 54.9212 68.4236 54.7972C68.6918 54.7557 68.9649 54.8321 69.1727 55.007C69.3802 55.1836 69.5 55.4424 69.5 55.7142V64.2856C69.5 64.7984 69.0842 65.2142 68.5715 65.2142H63.3572V64.7856H65.7143C66.7794 64.7856 67.6429 63.9221 67.6429 62.857V55.8683Z" fill="white" stroke="#FF6600"/>
<path d="M63.3572 69.0728H65.2143V70.9299H63.3572V69.0728Z" fill="white" stroke="#FF6600"/>
<path d="M66.2144 25.7141V19.0713H79.5001V25.7141C79.5001 29.3826 76.5257 32.357 72.8572 32.357C69.1887 32.357 66.2144 29.3826 66.2144 25.7141Z" fill="white" stroke="#FF6600"/>
<path d="M69.5 45.7157C69.5 46.2285 69.0842 46.6443 68.5714 46.6443C68.0586 46.6443 67.6428 46.2285 67.6428 45.7157C67.6428 45.2029 68.0586 44.7871 68.5714 44.7871C69.0842 44.7871 69.5 45.2029 69.5 45.7157Z" fill="white" stroke="#FF6600"/>
<path d="M54.6863 58.0715H48.1708C48.844 56.9371 50.0741 56.2161 51.4285 56.2144C52.783 56.2161 54.0131 56.9371 54.6863 58.0715Z" fill="white" stroke="#FF6600"/>
<mask id="path-26-inside-1_232_2231" fill="white">
<path d="M64.2858 30.8398C62.9248 33.1494 60.685 34.8089 58.079 35.4381C55.4737 36.0672 52.7239 35.6124 50.4583 34.1783C47.3277 36.1168 43.7179 37.1436 40.0356 37.1429C39.4301 37.1429 38.8226 37.1157 38.2129 37.0612C37.2552 36.9678 36.3058 36.8066 35.3711 36.5785L35.2288 36.5458C34.7385 36.4258 34.253 36.2926 33.7744 36.137C33.72 36.1203 33.667 36.0986 33.6126 36.0812C32.184 35.6048 30.8148 34.9651 29.5313 34.1755C27.5565 35.4527 25.1814 35.9591 22.8572 35.5999V71.4286H34.2857V68.5714H30C27.6333 68.5714 25.7143 66.6525 25.7143 64.2857V58.5714C25.7143 57.7825 26.354 57.1429 27.1429 57.1429C27.9318 57.1429 28.5715 57.7825 28.5715 58.5714V64.2857C28.5715 65.0746 29.2111 65.7143 30 65.7143H30.263C30.0935 65.2567 30.0049 64.7733 30 64.2857V55.7143C29.9993 54.4524 30.5553 53.2547 31.5186 52.44C32.4826 51.6253 33.7556 51.2765 35 51.4872C37.0941 51.8903 38.5987 53.736 38.5715 55.8684V61.4286H40V60C40 59.2111 40.6397 58.5714 41.4286 58.5714H44.4287C45.0056 55.768 47.1966 53.577 50 53.0001V51.4286C46.8443 51.4286 44.2857 48.87 44.2857 45.7143H47.1429C47.1429 47.2921 48.4222 48.5714 50 48.5714V44.2857H52.8572V48.5714C54.435 48.5714 55.7143 47.2921 55.7143 45.7143H58.5715C58.5715 48.87 56.0129 51.4286 52.8572 51.4286V53.0001C55.6606 53.577 57.8516 55.768 58.4285 58.5714H61.4286C62.2175 58.5714 62.8572 59.2111 62.8572 60V61.4286H64.2858V55.8684C64.2592 53.7367 65.7631 51.8917 67.8572 51.4886C69.1009 51.2786 70.3746 51.6267 71.3379 52.4407C72.3012 53.2554 72.8572 54.4531 72.8572 55.7143V64.2857C72.8523 64.7733 72.7637 65.2567 72.5942 65.7143H72.8572C73.6461 65.7143 74.2858 65.0746 74.2858 64.2857V58.5714C74.2858 57.7825 74.9254 57.1429 75.7143 57.1429C76.5032 57.1429 77.1429 57.7825 77.1429 58.5714V64.2857C77.1429 66.6525 75.2239 68.5714 72.8572 68.5714H68.5715V71.4286H80V32.7016C77.837 34.9233 74.7643 36.0121 71.6846 35.648C68.6056 35.2846 65.8713 33.5086 64.2858 30.844V30.8398ZM34.2857 50C31.919 50 30 48.0811 30 45.7143C30 43.3475 31.919 41.4286 34.2857 41.4286C36.6525 41.4286 38.5715 43.3475 38.5715 45.7143C38.5715 48.0811 36.6525 50 34.2857 50ZM46.7286 42.4414C46.1649 42.9939 45.2637 42.9939 44.7001 42.4414C44.4371 42.1694 44.2892 41.8066 44.2857 41.4286C44.2857 40.6396 44.9254 40 45.7143 40C46.5032 40 47.1429 40.6396 47.1429 41.4286C47.1401 41.8073 46.9915 42.1708 46.7286 42.4428V42.4414ZM52.4428 41.0128C52.3047 41.1433 52.145 41.2493 51.9713 41.3274C51.799 41.3965 51.6142 41.4307 51.4286 41.4286C51.0491 41.43 50.6843 41.2807 50.4144 41.0142C50.1514 40.7422 50.0028 40.3788 50 40C50.0056 39.6219 50.1535 39.2599 50.4144 38.9858C50.8322 38.5944 51.4377 38.4773 51.9713 38.6858C52.1443 38.7584 52.304 38.8595 52.4428 38.9858C52.9953 39.5494 52.9953 40.4506 52.4428 41.0142V41.0128ZM58.4571 41.9699C58.3915 42.1463 58.2897 42.3075 58.1571 42.4414C57.8837 42.703 57.521 42.8509 57.1429 42.8571C56.9553 42.862 56.7697 42.823 56.6002 42.7427C56.4272 42.6702 56.2675 42.5691 56.1287 42.4428C55.9961 42.3089 55.8943 42.1477 55.8287 41.9713C55.7555 41.7997 55.7164 41.6155 55.7143 41.4286C55.7199 41.0505 55.8678 40.6885 56.1287 40.4143C56.2675 40.2881 56.4272 40.1869 56.6002 40.1144C57.1331 39.9044 57.74 40.0216 58.1571 40.4143C58.418 40.6885 58.5659 41.0505 58.5715 41.4286C58.5763 41.6162 58.5373 41.8018 58.4571 41.9713V41.9699ZM68.5715 50C66.2047 50 64.2858 48.0811 64.2858 45.7143C64.2858 43.3475 66.2047 41.4286 68.5715 41.4286C70.9382 41.4286 72.8572 43.3475 72.8572 45.7143C72.8572 48.0811 70.9382 50 68.5715 50Z"/>
</mask>
<path d="M64.2858 30.8398C62.9248 33.1494 60.685 34.8089 58.079 35.4381C55.4737 36.0672 52.7239 35.6124 50.4583 34.1783C47.3277 36.1168 43.7179 37.1436 40.0356 37.1429C39.4301 37.1429 38.8226 37.1157 38.2129 37.0612C37.2552 36.9678 36.3058 36.8066 35.3711 36.5785L35.2288 36.5458C34.7385 36.4258 34.253 36.2926 33.7744 36.137C33.72 36.1203 33.667 36.0986 33.6126 36.0812C32.184 35.6048 30.8148 34.9651 29.5313 34.1755C27.5565 35.4527 25.1814 35.9591 22.8572 35.5999V71.4286H34.2857V68.5714H30C27.6333 68.5714 25.7143 66.6525 25.7143 64.2857V58.5714C25.7143 57.7825 26.354 57.1429 27.1429 57.1429C27.9318 57.1429 28.5715 57.7825 28.5715 58.5714V64.2857C28.5715 65.0746 29.2111 65.7143 30 65.7143H30.263C30.0935 65.2567 30.0049 64.7733 30 64.2857V55.7143C29.9993 54.4524 30.5553 53.2547 31.5186 52.44C32.4826 51.6253 33.7556 51.2765 35 51.4872C37.0941 51.8903 38.5987 53.736 38.5715 55.8684V61.4286H40V60C40 59.2111 40.6397 58.5714 41.4286 58.5714H44.4287C45.0056 55.768 47.1966 53.577 50 53.0001V51.4286C46.8443 51.4286 44.2857 48.87 44.2857 45.7143H47.1429C47.1429 47.2921 48.4222 48.5714 50 48.5714V44.2857H52.8572V48.5714C54.435 48.5714 55.7143 47.2921 55.7143 45.7143H58.5715C58.5715 48.87 56.0129 51.4286 52.8572 51.4286V53.0001C55.6606 53.577 57.8516 55.768 58.4285 58.5714H61.4286C62.2175 58.5714 62.8572 59.2111 62.8572 60V61.4286H64.2858V55.8684C64.2592 53.7367 65.7631 51.8917 67.8572 51.4886C69.1009 51.2786 70.3746 51.6267 71.3379 52.4407C72.3012 53.2554 72.8572 54.4531 72.8572 55.7143V64.2857C72.8523 64.7733 72.7637 65.2567 72.5942 65.7143H72.8572C73.6461 65.7143 74.2858 65.0746 74.2858 64.2857V58.5714C74.2858 57.7825 74.9254 57.1429 75.7143 57.1429C76.5032 57.1429 77.1429 57.7825 77.1429 58.5714V64.2857C77.1429 66.6525 75.2239 68.5714 72.8572 68.5714H68.5715V71.4286H80V32.7016C77.837 34.9233 74.7643 36.0121 71.6846 35.648C68.6056 35.2846 65.8713 33.5086 64.2858 30.844V30.8398ZM34.2857 50C31.919 50 30 48.0811 30 45.7143C30 43.3475 31.919 41.4286 34.2857 41.4286C36.6525 41.4286 38.5715 43.3475 38.5715 45.7143C38.5715 48.0811 36.6525 50 34.2857 50ZM46.7286 42.4414C46.1649 42.9939 45.2637 42.9939 44.7001 42.4414C44.4371 42.1694 44.2892 41.8066 44.2857 41.4286C44.2857 40.6396 44.9254 40 45.7143 40C46.5032 40 47.1429 40.6396 47.1429 41.4286C47.1401 41.8073 46.9915 42.1708 46.7286 42.4428V42.4414ZM52.4428 41.0128C52.3047 41.1433 52.145 41.2493 51.9713 41.3274C51.799 41.3965 51.6142 41.4307 51.4286 41.4286C51.0491 41.43 50.6843 41.2807 50.4144 41.0142C50.1514 40.7422 50.0028 40.3788 50 40C50.0056 39.6219 50.1535 39.2599 50.4144 38.9858C50.8322 38.5944 51.4377 38.4773 51.9713 38.6858C52.1443 38.7584 52.304 38.8595 52.4428 38.9858C52.9953 39.5494 52.9953 40.4506 52.4428 41.0142V41.0128ZM58.4571 41.9699C58.3915 42.1463 58.2897 42.3075 58.1571 42.4414C57.8837 42.703 57.521 42.8509 57.1429 42.8571C56.9553 42.862 56.7697 42.823 56.6002 42.7427C56.4272 42.6702 56.2675 42.5691 56.1287 42.4428C55.9961 42.3089 55.8943 42.1477 55.8287 41.9713C55.7555 41.7997 55.7164 41.6155 55.7143 41.4286C55.7199 41.0505 55.8678 40.6885 56.1287 40.4143C56.2675 40.2881 56.4272 40.1869 56.6002 40.1144C57.1331 39.9044 57.74 40.0216 58.1571 40.4143C58.418 40.6885 58.5659 41.0505 58.5715 41.4286C58.5763 41.6162 58.5373 41.8018 58.4571 41.9713V41.9699ZM68.5715 50C66.2047 50 64.2858 48.0811 64.2858 45.7143C64.2858 43.3475 66.2047 41.4286 68.5715 41.4286C70.9382 41.4286 72.8572 43.3475 72.8572 45.7143C72.8572 48.0811 70.9382 50 68.5715 50Z" fill="white" stroke="#FF6600" stroke-width="2" mask="url(#path-26-inside-1_232_2231)"/>
<path d="M23.3572 79.5V74.7871H41.4286H79.5V79.5H23.3572Z" fill="white" stroke="#FF6600"/>
<path d="M19.4999 36.3479C18.1029 34.9314 16.4055 33.8423 14.5315 33.1629C14.9665 32.7296 15.3627 32.259 15.7157 31.7564C16.6934 33.1389 17.9909 34.268 19.4999 35.0456V36.3479Z" fill="white" stroke="#FF6600"/>
<path d="M16.1405 43.7859C15.9791 41.6805 15.5653 39.6029 14.9086 37.5979C17.1583 38.9571 18.7564 41.1954 19.3018 43.7859H16.1405Z" fill="white" stroke="#FF6600"/>
<path d="M37.6428 69.0728H39.5V70.9299H37.6428V69.0728Z" fill="white" stroke="#FF6600"/>
<path d="M45.7143 63.7873H45.2143V64.2873V70.9302H43.3572V61.9302H59.5V70.9302H57.6429V64.2873V63.7873H57.1429H54.2858H53.7858V64.2873V70.9302H49.0715V64.2873V63.7873H48.5715H45.7143Z" fill="white" stroke="#FF6600"/>
</svg>
