<svg width="107" height="102" viewBox="0 0 107 102" fill="none" xmlns="http://www.w3.org/2000/svg">
<path d="M50.544 93.7436C50.7778 97.1686 51.1758 99.8227 51.4085 101.18H56.7662C54.9103 97.2423 54.2628 92.3773 54.8412 86.6798C55.287 82.2884 56.3922 78.1311 57.447 74.9395C55.4146 75.3521 53.4019 75.644 51.4258 75.8367C50.163 82.6933 50.2417 89.3162 50.544 93.7436Z" fill="white" stroke="#FF6600"/>
<path d="M14.9708 76.8866C14.926 76.9293 14.8807 76.9724 14.8357 77.0153L20.9375 101.179H26.1559L20.7952 82.3099C20.6675 81.8606 20.7839 81.3734 21.098 81.0417L27.7156 74.0536C24.4137 73.3562 20.929 72.594 18.8241 71.978C17.7363 74.2557 16.4936 75.4379 14.9708 76.8866Z" fill="white" stroke="#FF6600"/>
<path d="M101.59 29.8895C101.523 29.8895 101.457 29.8837 101.391 29.8722L97.1732 29.1299C96.9033 32.4023 97.8908 35.299 100.12 37.7543C100.722 38.4172 101.342 38.9666 101.91 39.4084C101.77 37.1431 102.136 34.8972 102.198 34.5405C102.292 33.9981 102.705 33.5808 103.223 33.5062C103.74 33.4318 104.244 33.7166 104.472 34.2126L104.492 34.2559C104.915 32.7364 104.869 31.149 104.358 29.5088C103.029 29.8689 101.839 29.8895 101.59 29.8895Z" fill="white" stroke="#FF6600"/>
<path d="M83.3989 6.57706C84.3307 5.7072 85.3929 5.02582 86.5626 4.55675C87.1086 4.33788 87.6638 4.17076 88.223 4.05288C85.9704 1.94436 82.5424 0.153821 78.0459 1.86062C79.6275 2.74802 81.6588 4.22765 83.3989 6.57706Z" fill="white" stroke="#FF6600"/>
<path d="M104.491 21.1506L97.0047 10.0839C94.817 6.84814 90.8759 5.55584 87.4206 6.94105C85.5226 7.70226 84.0385 9.13728 83.0094 11.2063C82.1783 12.879 81.1594 14.5232 79.8951 16.2324C76.9911 20.1575 73.5038 23.4872 69.8867 26.8347C69.6565 27.0476 69.4276 27.2603 69.1997 27.472C65.2867 31.1067 61.5907 34.5399 56.1577 35.6722C50.7044 36.8097 45.0954 36.315 39.8467 35.6109C38.6904 35.456 37.5197 35.2804 36.2802 35.0945C28.565 33.9376 19.8207 32.6263 13.1911 36.3246C10.8937 37.6063 8.95284 39.5326 7.42262 42.0497C7.39431 42.0972 7.36287 42.143 7.32835 42.1868C7.30599 42.2152 7.28255 42.2424 7.25808 42.2684C7.19601 42.3347 7.12662 42.3943 7.0506 42.4457C5.3127 43.6209 3.32727 44.2425 1.125 44.3047C1.91804 45.2535 2.9865 46.2966 4.22244 46.9037C4.75222 47.1639 5.02962 47.7872 4.88122 48.3839C4.87561 48.4066 4.87062 48.4286 4.86549 48.4513C3.98557 52.3326 4.62152 56.0141 5.29479 59.9118C5.43472 60.7218 5.57937 61.5592 5.71083 62.4022C6.51029 67.5209 6.14053 72.0683 4.5805 76.3041C4.34548 76.9412 4.06193 77.5329 3.78767 78.1052C3.35304 79.012 2.94261 79.8685 2.79953 80.7583C2.63882 81.7543 2.60232 82.8499 2.68107 84.3114C2.85156 87.4593 3.53994 90.6111 4.12058 93.0052C4.69234 95.3618 5.35365 96.8886 6.11928 98.6564C6.45841 99.4395 6.80663 100.243 7.17639 101.179H11.2101L8.14702 89.9036C7.56521 87.7618 7.50718 85.4867 7.97927 83.324C8.45478 81.1456 9.45809 79.1305 10.8807 77.4964C10.9384 77.43 10.9975 77.363 11.0574 77.296C11.1691 77.1715 11.2797 77.0513 11.3862 76.9388C12.1083 76.1763 12.7701 75.5466 13.354 74.9911C14.9891 73.4356 16.0692 72.4079 17.0555 69.9388C17.3025 69.3205 17.961 69.0101 18.5617 69.2288C20.5603 69.956 26.2428 71.1459 30.3952 72.0152C30.3972 72.0156 30.3991 72.016 30.401 72.0164C30.4014 72.0165 30.4017 72.0166 30.4021 72.0167C38.822 73.7812 51.4952 74.9468 64.0556 70.4788C64.4088 70.3532 64.7976 70.407 65.1085 70.6245C65.4193 70.8422 65.6176 71.1993 65.6454 71.5921L67.7468 101.179H73.0766L71.3392 96.7932C71.2618 96.5977 71.2317 96.3849 71.2516 96.1741C71.2565 96.1231 71.7375 91.0069 71.9757 85.4644C72.4002 75.5898 71.6958 72.9391 71.3732 72.2578C71.0865 71.6525 71.2976 70.916 71.8541 70.5802C79.6066 65.902 84.4662 57.1245 84.5362 47.6733C84.5756 42.333 84.8525 38.0635 85.3806 34.6718C84.9391 34.4746 84.503 34.2247 84.0843 33.921C82.967 33.1105 81.4759 31.5713 80.7172 28.8409C80.0148 26.313 80.1112 23.3583 81.0039 20.059C81.1871 19.3818 81.8557 18.9896 82.4969 19.183C83.1382 19.3765 83.5096 20.0824 83.3264 20.7597C82.5611 23.5878 82.4631 26.0651 83.0348 28.1227C83.5936 30.1336 84.6576 31.2424 85.4518 31.8185C86.731 32.7464 88.1184 32.8474 88.67 32.4088C89.028 32.1241 88.9322 31.5227 88.7888 31.0683C88.3783 29.7679 88.1297 28.5506 87.9949 27.4322C87.4478 22.8924 88.7834 19.9888 88.8543 19.839C89.1525 19.209 89.878 18.9536 90.4747 19.2686C91.0695 19.5827 91.3116 20.3452 91.0174 20.9742C90.966 21.0865 90.2458 22.7141 90.2741 25.4045C90.4842 25.3931 90.6976 25.4041 90.9113 25.4418L101.681 27.3373C102.301 27.3228 103.541 27.1855 104.552 26.767C104.557 26.7646 104.562 26.7615 104.567 26.7591C104.603 26.7419 104.639 26.7271 104.676 26.7139C105.256 26.4553 105.747 26.0984 105.977 25.6105C106.409 24.6932 105.887 23.1179 104.507 21.1747C104.502 21.1666 104.496 21.1586 104.491 21.1506ZM95.0213 14.3814C94.8578 16.0398 92.4694 15.7896 92.618 14.1303C92.7801 12.4721 95.1695 12.7227 95.0213 14.3814Z" fill="white" stroke="#FF6600"/>
</svg>
