<svg width="68" height="74" viewBox="0 0 68 74" fill="none" xmlns="http://www.w3.org/2000/svg">
<path fill-rule="evenodd" clip-rule="evenodd" d="M13.3756 72.8937C12.7738 72.8937 12.286 72.4058 12.286 71.8041C12.286 71.2023 12.7738 70.7146 13.3756 70.7146H23.0153C23.0953 70.7146 23.1605 70.6494 23.1605 70.5694V49.8441C23.1605 48.686 22.8554 44.7342 22.0439 43.5169L22.0445 43.5164L21.0017 41.9532C20.3213 40.9479 20.0197 37.6796 20.0197 36.6582V31.1462C20.0197 29.7188 19.6236 28.4762 18.7972 27.3087L3.59493 5.83032L3.55237 5.76904C2.89477 4.91928 3.10533 3.52264 3.97941 2.90552L4.11493 2.78616C4.94405 2.05752 6.24709 2.57624 6.92501 3.3484L19.4585 17.6242C20.905 19.2721 22.6714 20.3658 24.9124 20.3658H37.7009C37.706 20.3658 37.7103 20.3662 37.7154 20.3666L56.57 22.2655C57.7065 22.3799 58.5378 23.4039 58.4257 24.5386C58.4245 24.5505 58.4239 24.5623 58.4239 24.5742H58.4228C58.4228 25.7474 57.1845 26.3676 56.1085 26.3929L40.1753 26.7694C38.5517 26.8078 37.3522 27.9042 37.3522 29.4842V36.6582C37.3522 37.7095 37.0593 40.9183 36.3588 41.971L36.3581 41.9705L35.3125 43.5409C34.5119 44.8162 34.2116 48.6479 34.2116 49.8439V70.5694C34.2116 70.6494 34.2769 70.7146 34.3569 70.7146H43.9965C44.5983 70.7146 45.0861 71.2025 45.0861 71.8041C45.0861 72.4058 44.5983 72.8937 43.9965 72.8937H13.3756ZM28.686 19.349C30.5479 19.349 32.2389 18.4692 33.4674 17.0466C36.1665 13.9215 36.1665 8.81064 33.4674 5.68536C30.8164 2.61592 26.5554 2.61576 23.9045 5.68536C21.2057 8.81048 21.2055 13.9214 23.9045 17.0466C25.1332 18.4692 26.8241 19.349 28.686 19.349ZM28.686 12.1871C27.5773 12.1871 26.6788 13.3426 26.6788 14.7679C26.6788 16.1932 27.5775 17.3487 28.686 17.3487C29.7946 17.3487 30.6932 16.1932 30.6932 14.7679C30.6933 13.3426 29.7946 12.1871 28.686 12.1871ZM25.3967 9.41352L26.9577 9.18808C27.5524 9.10344 27.9658 8.55272 27.8812 7.95816C27.7965 7.36344 27.2458 6.95 26.6513 7.03464L25.0903 7.26008C24.4956 7.34472 24.0821 7.89544 24.1668 8.49C24.2514 9.08472 24.8021 9.49816 25.3967 9.41352ZM33.2053 8.49C33.29 7.89528 32.8765 7.34472 32.2818 7.26008L30.7209 7.03464C30.1261 6.95 29.5756 7.36344 29.4909 7.95816C29.4063 8.55288 29.8197 9.10344 30.4145 9.18808L31.9754 9.41352C32.5701 9.49816 33.1207 9.08472 33.2053 8.49ZM27.7417 70.7146H29.6303C29.7103 70.7146 29.7756 70.6494 29.7756 70.5694V34.5489C29.7756 34.477 29.8268 34.417 29.8977 34.4055C31.1674 34.1998 32.1311 33.0937 32.1311 31.7799V27.8542C32.1311 26.389 30.9364 25.1943 29.4713 25.1943H27.9009C26.4357 25.1943 25.241 26.389 25.241 27.8542V31.7799C25.241 33.0937 26.2049 34.1996 27.4745 34.4055C27.5453 34.417 27.5965 34.477 27.5965 34.5489V70.5694C27.5965 70.6495 27.6617 70.7146 27.7417 70.7146ZM44.0743 37.0722C41.1045 37.0722 39.6065 40.6801 41.709 42.7826C43.8116 44.8852 47.4194 43.3873 47.4194 40.4174V32.9322C47.4194 32.8222 47.5362 32.7522 47.6333 32.8042L52.8805 35.6177C52.9289 35.6436 52.9572 35.6908 52.9572 35.7457V41.2164C52.9572 41.2639 52.9365 41.3049 52.8983 41.3332C52.7709 41.4274 52.4922 41.2098 51.7911 41.2098C48.8213 41.2098 47.3231 44.8175 49.4258 46.9202C51.5284 49.0228 55.1362 47.5247 55.1362 44.555V35.0116H55.1321C55.1317 34.6239 54.9233 34.2492 54.5573 34.054L46.9301 29.9646C46.9282 29.9636 46.9266 29.9626 46.9247 29.9615C46.0876 29.4658 45.2402 30.0911 45.2402 30.8742V37.0788C45.2402 37.1263 45.2196 37.1673 45.1813 37.1956C45.0541 37.2898 44.7759 37.0722 44.0743 37.0722ZM12.6657 25.2946L8.41861 23.0175C7.69253 22.6292 6.82197 23.1642 6.82245 23.9751H6.81829V31.8639C6.81829 31.9138 6.79541 31.9567 6.75413 31.9844C6.58821 32.0959 6.23845 31.7162 5.17477 31.7162C1.78101 31.7162 0.0690141 35.8391 2.47173 38.242C4.87445 40.6447 8.99733 38.9329 8.99733 35.539V26.0334C8.99733 25.9233 9.11413 25.8534 9.21125 25.9054L11.6442 27.2098C12.173 27.4919 12.8305 27.2918 13.1125 26.763C13.3946 26.234 13.1945 25.5766 12.6657 25.2946ZM64.9418 16.3812C61.0929 18.3566 57.6217 17.747 54.3058 14.7642C54.3052 14.7636 54.3045 14.763 54.3039 14.7623C50.4855 11.1826 46.0649 10.5836 41.3021 12.8636C40.7615 13.1222 40.5329 13.77 40.7914 14.3106C41.05 14.8513 41.6978 15.0799 42.2385 14.8214C46.1924 12.9284 49.6441 13.3942 52.8189 16.35L52.8794 16.4078C56.8842 19.9737 61.2741 20.6974 65.9292 18.3134C66.4628 18.0407 66.6741 17.3871 66.4015 16.8535C66.1289 16.3199 65.4753 16.1084 64.9418 16.3812ZM63.2007 1.41832C60.0917 4.47512 56.6727 4.86872 52.5924 3.05608L52.5791 3.05016C47.8666 0.762803 43.4527 1.50968 39.5879 5.10664C39.1484 5.5156 39.1236 6.20344 39.5325 6.64312C39.9415 7.08264 40.6293 7.10744 41.069 6.69848C44.2535 3.73464 47.7554 3.10344 51.6362 5.00904L51.6986 5.03944C54.2743 6.20552 56.6373 6.554 58.8121 6.17928C61.0013 5.802 62.9623 4.69992 64.7244 2.96744C65.1521 2.54664 65.1578 1.8588 64.7372 1.43112C64.3162 1.00328 63.6284 0.997523 63.2007 1.41832ZM64.9345 9.21352C61.4154 11.7321 57.9367 11.6359 54.2154 9.19896C54.2143 9.19816 54.2132 9.19752 54.2121 9.19672C49.8693 6.21576 45.4495 6.21528 41.0324 9.1964C40.5341 9.53256 40.4026 10.209 40.7388 10.7073C41.0749 11.2055 41.7514 11.337 42.2497 11.0009C45.9369 8.51256 49.3652 8.51176 52.9815 10.9922L53.0069 11.0094C57.4489 13.9689 61.9733 13.9958 66.1943 10.9838C66.6833 10.6359 66.7975 9.95752 66.4497 9.46872C66.1017 8.98008 65.4234 8.86568 64.9345 9.21352Z" fill="white" stroke="#FF6600"/>
</svg>
