<svg width="43" height="46" viewBox="0 0 43 46" fill="none" xmlns="http://www.w3.org/2000/svg">
<g clip-path="url(#clip0_180_1085)">
<path d="M20.8884 11.3004L20.8884 11.3004L20.8861 11.2988L20.8813 11.2955C20.7275 11.1906 20.5414 11.0638 20.2829 10.9659C20.0207 10.8666 19.6928 10.8 19.25 10.8C18.4309 10.8 17.7692 11.3862 17.246 12.1821C16.7368 12.9566 16.3257 13.9778 16.0009 15.0162C14.9366 15.2188 14.0457 15.4821 13.4094 15.7905C13.0799 15.9503 12.8085 16.127 12.6169 16.322C12.4246 16.5176 12.3 16.7453 12.3 17C12.3 17.23 12.4014 17.4383 12.5623 17.6202C12.7221 17.8009 12.9483 17.9648 13.2225 18.1138C13.7372 18.3936 14.4538 18.6381 15.3142 18.8392C15.3047 18.9749 15.3 19.1113 15.3 19.25C15.3 19.969 15.422 20.6588 15.6467 21.3H13.1281C12.6708 21.3 12.3 21.6708 12.3 22.1281C12.3 22.2303 12.3179 22.3367 12.3623 22.4395L14.1233 26.8376C12.101 28.4024 10.8 30.8552 10.8 33.6078C10.8 34.487 11.513 35.2 12.3922 35.2H30.6078C31.487 35.2 32.2 34.487 32.2 33.6078C32.2 30.8549 30.8987 28.4067 28.8811 26.8379L30.6389 22.4367L30.6389 22.4367L30.6404 22.4327C30.6742 22.3425 30.7 22.2385 30.7 22.1281C30.7 21.6708 30.3292 21.3 29.8719 21.3H27.3533C27.5781 20.6588 27.7 19.969 27.7 19.25C27.7 19.1113 27.6953 18.9749 27.6858 18.8392C28.5462 18.6381 29.2628 18.3936 29.7775 18.1138C30.0517 17.9648 30.2779 17.8009 30.4377 17.6202C30.5986 17.4383 30.7 17.23 30.7 17C30.7 16.7453 30.5754 16.5176 30.3831 16.322C30.1915 16.127 29.9201 15.9503 29.5906 15.7905C28.9543 15.4821 28.0634 15.2188 26.9991 15.0162C26.6743 13.9778 26.2632 12.9566 25.754 12.1821C25.2308 11.3862 24.5691 10.8 23.75 10.8C23.3072 10.8 22.9793 10.8666 22.7171 10.9659C22.4586 11.0638 22.2725 11.1906 22.1187 11.2955L22.1139 11.2988L22.1133 11.2993C21.8865 11.4552 21.7455 11.55 21.5 11.55C21.2542 11.55 21.1077 11.4544 20.8884 11.3004ZM24.125 21.3H23.5438C22.857 21.3 22.2488 20.8588 22.032 20.209C21.8637 19.698 21.1409 19.698 20.9726 20.209C20.756 20.8585 20.1433 21.3 19.4609 21.3H18.875C17.9495 21.3 17.2 20.5505 17.2 19.625V19.1801C18.4797 19.3536 19.9446 19.45 21.5 19.45C23.0554 19.45 24.5203 19.3536 25.8 19.1801V19.625C25.8 20.5505 25.0505 21.3 24.125 21.3ZM17.2995 24.8734L19.8509 26.1491L20.538 27.5233L19.25 32.6754L17.2995 24.8734ZM23.1491 26.1491L25.7005 24.8734L23.75 32.6754L22.462 27.5233L23.1491 26.1491Z" fill="#FF6600" stroke="#FF6600" stroke-width="0.4"/>
</g>
<defs>
<clipPath id="clip0_180_1085">
<rect width="23" height="26" fill="white" transform="translate(10 10)"/>
</clipPath>
</defs>
</svg>
