<svg width="99" height="102" viewBox="0 0 99 102" fill="none" xmlns="http://www.w3.org/2000/svg">
<path d="M93.6595 36.3881C92.0101 34.9061 90.3653 33.4171 88.645 32.0117C86.988 30.658 85.3072 29.3107 83.5066 28.1421C82.0167 27.1746 80.3346 26.4757 78.7413 25.6507C77.9299 25.231 77.1115 24.8207 76.3229 24.3649C75.4318 23.8497 74.6787 23.205 74.0916 22.3482C72.7286 20.3597 70.8815 18.8301 68.7389 17.6455C67.3402 16.8734 65.873 16.2157 64.4441 15.4921C64.0991 15.3169 63.7853 15.0862 63.4883 14.8235C64.6642 14.5999 65.7052 14.8416 66.6754 15.4827C66.2242 14.262 65.0853 13.6681 64.0929 12.9429C64.1082 12.8922 64.1235 12.8409 64.1385 12.7902C64.9903 12.95 65.8426 13.1108 66.6687 13.2657C66.5592 12.8829 66.2417 12.469 65.4735 11.9754C62.7078 10.1977 59.678 9.24972 56.3114 9.50068C55.1201 9.58971 53.9166 9.70037 52.7572 9.95807C50.3313 10.4972 47.9243 11.1217 45.5233 11.7584C45.0233 11.8908 44.56 12.1977 44.1215 12.4827C41.7526 14.0224 39.3615 15.5354 37.0465 17.1468C34.9541 18.6034 33.4064 20.5499 31.9848 22.5977C29.9882 25.4747 29.394 28.6339 29.7307 32.0131C29.8545 33.2562 29.891 34.5067 29.9929 35.7521C30.1729 37.9452 29.1221 39.5307 27.2053 40.5691C25.277 41.6132 23.24 41.6595 21.2525 40.6516C20.0566 40.0445 19.3067 39.035 18.8037 37.8643C17.7408 35.3919 17.5987 32.8635 18.6404 30.3774C19.654 27.9591 20.827 25.601 21.9379 23.2197C23.2994 20.3007 24.7119 17.4035 25.7482 14.355C26.6607 11.6704 26.7009 9.03016 25.5992 6.38248C24.7247 4.28034 23.2417 2.80353 20.9866 2.0395C17.9778 1.01991 14.9084 0.777466 11.7454 1.19513C9.59833 1.47871 8.046 2.51196 6.94657 4.2305C6.45811 4.994 5.96724 5.7653 5.58065 6.57704C4.83447 8.14287 3.9084 9.6039 2.93429 11.0438C2.67135 11.4331 2.45329 11.8506 2.18141 12.234C1.33653 13.423 1.2613 14.7036 1.77936 15.9967C2.4017 17.5517 3.05664 19.1009 3.81492 20.5988C4.23801 21.4352 4.88307 22.1726 5.46296 22.9317C5.59964 23.1105 5.87394 23.1936 6.08437 23.321C6.2151 23.1062 6.44135 22.8969 6.45737 22.6742C6.50988 21.9687 6.57282 21.2451 6.47115 20.5504C6.10188 18.0199 6.86463 15.7747 8.16239 13.6104C8.65475 12.7884 9.25419 12.1886 10.1797 11.8536C10.906 11.5902 11.5974 11.2364 12.3298 10.9918C13.768 10.5114 14.8225 9.58226 15.7441 8.47807C16.0564 8.10403 16.3633 7.72486 16.6733 7.34923C17.0488 6.89414 17.5525 6.68274 18.1488 6.65099C19.2398 6.59229 20.2327 6.90993 21.1629 7.41148C21.8573 7.78551 22.067 8.44561 22.0944 9.1481C22.1521 10.6207 22.0381 12.0714 21.5193 13.4845C20.6735 15.7885 19.6769 18.0237 18.5624 20.2233C16.6691 23.96 14.9231 27.7633 13.5486 31.709C12.7812 33.9094 12.8581 36.1591 13.2911 38.3958C13.5069 39.5109 13.7963 40.639 14.2568 41.6795C15.1747 43.7542 16.9024 45.1377 19.0182 46.0291C23.0953 47.7469 27.185 47.6123 31.2141 45.854C33.1826 44.9951 34.6969 43.5719 36.1245 42.0589C37.0895 41.0364 38.1492 40.108 39.618 39.8317C40.4697 39.6717 41.3533 39.637 42.2248 39.608C42.8008 39.5892 43.2833 39.9118 43.5483 40.3634C44.0664 41.247 44.5883 42.1449 44.9462 43.0928C45.706 45.1088 46.0395 47.2239 46.2174 49.3498C46.4505 52.1342 46.6664 54.9229 46.7675 57.7132C46.8245 59.2804 46.6984 60.8608 46.5403 62.425C46.4103 63.7138 46.5714 64.97 46.8853 66.1906C47.5395 68.7348 47.6047 71.3173 47.6807 73.9085C47.7665 76.8556 47.8805 79.8021 47.993 82.7479C48.1343 86.4666 48.29 90.1844 48.4284 93.9023C48.4481 94.4398 48.4261 94.9804 48.3852 95.5172C48.3555 95.9124 48.1056 96.0613 47.6725 96.1121C45.4373 96.3726 43.2051 96.6585 40.9774 96.9681C40.7973 96.9935 40.6424 97.0426 40.5047 97.1077C39.3848 97.1496 38.2649 97.1925 37.1457 97.2343C36.3509 97.264 35.6861 97.8442 35.6861 98.6244C35.6861 99.1098 35.9764 99.5717 36.402 99.8219C36.5729 100.322 37.0157 100.728 37.733 100.73C39.8483 100.737 41.9643 100.744 44.0794 100.752C44.7375 100.931 45.4615 101.061 46.1179 100.972C47.2135 100.825 48.3265 100.572 49.3418 100.161C51.4548 99.3062 52.0701 96.4919 50.6203 94.7988C50.4503 94.5998 50.3339 94.3017 50.3216 94.0449C50.2358 92.1953 50.2062 90.3437 50.1151 88.4941C49.9252 84.6395 49.6684 80.7878 49.5157 76.9326C49.4148 74.3892 49.4123 71.8399 49.4397 69.2944C49.4473 68.5687 49.7488 67.85 49.8492 67.1192C50.001 66.007 50.1447 64.8906 50.2025 63.7711C50.3149 61.5663 49.963 59.4157 49.4252 57.266C49.3598 57.0062 49.3067 56.7443 49.2587 56.4809C49.7229 57.0734 50.2328 57.6358 50.7904 58.1647C51.1755 58.5293 51.7339 58.6458 52.2295 58.5127C52.4041 58.4887 52.5797 58.4332 52.7499 58.3383C53.3974 57.9774 53.7263 57.0605 53.2736 56.436C52.7015 55.6467 52.32 54.6879 52.26 53.9244C52.2373 53.6371 52.2244 53.3492 52.241 53.0612C52.2486 52.925 52.257 52.7892 52.2728 52.6538C52.2768 52.632 52.2805 52.606 52.2864 52.5728C52.3799 52.098 52.5198 51.6422 52.7134 51.1957C52.7902 51.0192 52.8079 50.8339 52.7795 50.6539C53.3911 50.4939 54.009 50.3513 54.6173 50.1958C55.9304 49.8607 57.2425 49.525 58.5546 49.19C63.449 47.9397 68.3426 46.6892 73.2374 45.4388C73.4873 45.5091 73.7577 45.5178 74.0206 45.4447C74.754 45.2414 75.4862 45.038 76.2195 44.8348C76.4467 44.9665 76.7096 45.0396 76.9785 45.0396H77.1243C77.5102 45.0396 77.8841 44.8919 78.1569 44.6322C78.4295 44.3726 78.5847 44.0165 78.5847 43.649C78.5847 43.5461 78.5711 43.4449 78.5482 43.3459C78.5467 42.9804 78.4512 42.6129 78.2238 42.3176C78.0262 42.0608 77.8089 41.798 77.4968 41.6563C77.1297 41.4892 76.9491 41.4413 76.5417 41.4094C76.4871 41.4051 76.4316 41.4073 76.3752 41.4124C75.2096 40.7583 74.0443 40.1043 72.8789 39.45C73.8635 39.1164 74.8521 38.8038 75.8541 38.5383C83.1025 36.6156 90.0407 37.3892 96.5703 41.0419C96.8574 41.2026 97.1325 41.3819 97.4135 41.5527C97.4583 41.5252 97.5025 41.4977 97.5472 41.4702C97.3019 40.9449 97.1012 40.3957 96.8034 39.8994C95.9868 38.5443 94.8381 37.4474 93.6595 36.3881ZM55.7142 47.035C54.2319 47.4135 52.7328 47.755 51.2648 48.1798C50.2939 48.4605 49.2189 48.839 48.4172 49.486C48.2554 48.145 48.0943 46.8036 47.9369 45.4621C47.8595 44.8028 47.7865 44.1408 47.766 43.4786C47.7433 42.7442 48.0373 42.454 48.8107 42.4547C49.7656 42.4561 50.7231 42.5633 51.6758 42.5299C53.7933 42.4554 55.9099 42.3425 58.0237 42.205C59.6406 42.1002 61.2527 41.9301 62.8682 41.8021C63.0367 41.7889 68.8164 41.203 68.3149 41.0409C68.6568 40.9258 68.9972 40.8085 69.3367 40.6899C70.5052 41.3454 71.6739 42.0018 72.843 42.6574C67.1337 44.1176 61.4238 45.5763 55.7142 47.035Z" fill="white" stroke="#FF6600"/>
</svg>
