<svg width="80" height="80" viewBox="0 0 80 80" fill="none" xmlns="http://www.w3.org/2000/svg">
<path d="M77.5758 1.21191H2.42428C1.69701 1.21191 1.21216 1.81797 1.21216 2.42404V77.5756C1.21216 78.3028 1.69701 78.7877 2.42428 78.7877H77.5758C78.1819 78.7877 78.7879 78.3028 78.7879 77.5756V2.42404C78.7879 1.81797 78.1819 1.21191 77.5758 1.21191ZM13.697 76.3634H3.6364V60.3634H13.697V76.3634ZM13.697 57.9392H3.6364V36.2422H13.697V57.9392ZM29.697 47.9998V34.9089H50.3031V47.9998H29.697ZM50.3031 56.8483V65.4543H29.697V56.8483H50.3031ZM29.0909 32.4846L27.7576 30.6665L22.9091 23.9998H57.0909L52.2425 30.6665L50.9091 32.4846H29.0909ZM23.5152 28.9695L27.2728 34.0604V48.6059L21.697 52.6059V26.424L23.5152 28.9695ZM27.2728 58.0604V66.3028L23.5152 71.3937L21.697 73.9392V62.0604L27.2728 58.0604ZM22.9091 76.3634L27.7576 69.6968L29.0909 67.8786H50.9091L52.2425 69.6968L57.0909 76.3634H22.9091ZM58.3031 73.818L56.4849 71.2725L52.7273 66.1816V57.4543L58.3031 59.9998V73.818ZM58.3031 51.0301L52.7273 48.4846V34.0604L56.4849 28.9695L58.3031 26.5452V51.0301ZM63.8788 76.3634H60.7273V22.7877C60.7273 22.7877 60.7273 22.7877 60.7273 22.6665C60.7273 22.5452 60.7273 22.5452 60.7273 22.424V22.3028V22.1816C60.7273 22.1816 60.7273 22.1816 60.6061 22.0604C60.6061 22.0604 60.6061 21.9392 60.4849 21.9392L60.3637 21.818C60.3637 21.818 60.2425 21.818 60.2425 21.6968C60.1213 21.6968 60.1213 21.5756 60 21.5756C60 21.5756 60 21.5756 59.8788 21.5756C59.7576 21.5756 59.6364 21.4543 59.5152 21.4543H20.4849C20.3637 21.4543 20.2425 21.4543 20.2425 21.5756C20.2425 21.6968 20.2425 21.5756 20.1213 21.5756C20 21.5756 20 21.6968 19.8788 21.6968C19.8788 21.6968 19.7576 21.6968 19.7576 21.818L19.6364 21.9392C19.6364 21.9392 19.6364 22.0604 19.5152 22.0604V22.1816V22.3028V22.424V22.6665V22.7877V54.9089V61.3331V76.3634H16.3637V17.9392H64.2425V76.3634H63.8788ZM37.3334 12.2422L38.3031 15.5149H31.8788C32.3637 11.5149 35.7576 8.36343 40 8.36343C44.1213 8.36343 47.6364 11.5149 48.1213 15.5149H40.9697L39.7576 11.5149C39.5152 10.9089 38.9091 10.5452 38.3031 10.7877C37.4546 10.9089 37.0909 11.6362 37.3334 12.2422ZM76.3637 76.3634H66.3031V60.3634H76.3637V76.3634ZM68.3637 50.6665C68.8485 50.1816 69.5758 50.1816 70.0606 50.6665L71.6364 52.2422L73.2122 50.6665C73.697 50.1816 74.4243 50.1816 74.9091 50.6665C75.394 51.1513 75.394 51.8786 74.9091 52.3634L72.4849 54.7877C72.2425 55.0301 72 55.1513 71.6364 55.1513C71.2728 55.1513 71.0303 55.0301 70.7879 54.7877L68.3637 52.3634C67.8788 51.8786 67.8788 51.1513 68.3637 50.6665ZM68.3637 41.818L70.7879 39.3937C71.2728 38.9089 72 38.9089 72.4849 39.3937L74.9091 41.818C75.394 42.3028 75.394 43.0301 74.9091 43.5149C74.6667 43.7574 74.3031 43.8786 74.0606 43.8786C73.697 43.8786 73.4546 43.7574 73.2122 43.5149L71.6364 41.9392L70.0606 43.5149C69.5758 43.9998 68.8485 43.9998 68.3637 43.5149C67.8788 43.0301 67.8788 42.3028 68.3637 41.818ZM76.3637 33.818H66.3031V17.9392H70.4243C71.1516 17.9392 71.6364 17.4543 71.6364 16.7271C71.6364 15.9998 71.1516 15.5149 70.4243 15.5149H50.5455C50.0606 10.1816 45.5758 5.93919 40 5.93919C34.4243 5.93919 29.9394 10.1816 29.4546 15.5149H9.57579C8.96973 15.5149 8.36367 15.9998 8.36367 16.7271C8.36367 17.4543 8.96973 17.9392 9.57579 17.9392H13.697V33.9392H3.6364V3.63616H76.3637V33.818Z" fill="white" stroke="#FF6600"/>
<path d="M11.8787 41.0907V53.0907C11.8787 54.4241 10.7878 55.515 9.45446 55.515H7.75749C6.42416 55.515 5.33325 54.4241 5.33325 53.0907V41.0907C5.33325 39.7574 6.42416 38.6665 7.75749 38.6665H9.45446C10.7878 38.6665 11.8787 39.7574 11.8787 41.0907Z" fill="white" stroke="#FF6600"/>
</svg>
