<svg width="68" height="68" viewBox="0 0 68 68" fill="none" xmlns="http://www.w3.org/2000/svg">
<mask id="path-1-inside-1_273_2175" fill="white">
<path d="M14.6 37.5564C13.8002 37.5564 13.0332 37.8741 12.4676 38.4397C11.9021 39.0052 11.5844 39.7723 11.5844 40.5721C11.5844 41.3718 11.9021 42.1389 12.4676 42.7044C13.0332 43.27 13.8002 43.5877 14.6 43.5877H16.5V37.5564H14.6ZM20.9 46.0877H19V52.1127H20.9C21.699 52.1127 22.4652 51.7953 23.0302 51.2303C23.5951 50.6654 23.9125 49.8991 23.9125 49.1002C23.9125 48.3012 23.5951 47.535 23.0302 46.97C22.4652 46.4051 21.699 46.0877 20.9 46.0877ZM20.9 46.0877H19V52.1127H20.9C21.699 52.1127 22.4652 51.7953 23.0302 51.2303C23.5951 50.6654 23.9125 49.8991 23.9125 49.1002C23.9125 48.3012 23.5951 47.535 23.0302 46.97C22.4652 46.4051 21.699 46.0877 20.9 46.0877ZM14.6 37.5564C13.8002 37.5564 13.0332 37.8741 12.4676 38.4397C11.9021 39.0052 11.5844 39.7723 11.5844 40.5721C11.5844 41.3718 11.9021 42.1389 12.4676 42.7044C13.0332 43.27 13.8002 43.5877 14.6 43.5877H16.5V37.5564H14.6ZM50.35 64.6252V65.2502C50.3499 65.5785 50.4145 65.9036 50.5401 66.207C50.6657 66.5103 50.8499 66.786 51.0821 67.0181C51.3142 67.2503 51.5898 67.4344 51.8932 67.56C52.1965 67.6857 52.5217 67.7503 52.85 67.7502H62.7687C63.0971 67.7503 63.4222 67.6857 63.7256 67.56C64.0289 67.4344 64.3045 67.2503 64.5367 67.0181C64.7689 66.786 64.953 66.5103 65.0786 66.207C65.2042 65.9036 65.2688 65.5785 65.2687 65.2502V64.6252H50.35ZM58.5437 38.2002H37.75V62.1252H66.5C66.8312 62.1242 67.1486 61.9922 67.3828 61.758C67.617 61.5238 67.749 61.2064 67.75 60.8752V49.5939C67.7464 46.9292 66.8312 44.3459 65.1565 42.2733C63.4818 40.2006 61.1483 38.7633 58.5437 38.2002ZM55.6062 56.7002C54.4332 56.7002 53.2864 56.3523 52.311 55.7006C51.3356 55.0489 50.5754 54.1225 50.1265 53.0387C49.6776 51.9549 49.5601 50.7623 49.789 49.6118C50.0178 48.4612 50.5827 47.4044 51.4122 46.5749C52.2417 45.7454 53.2986 45.1805 54.4491 44.9517C55.5997 44.7228 56.7922 44.8403 57.876 45.2892C58.9598 45.7381 59.8862 46.4983 60.5379 47.4737C61.1896 48.4491 61.5375 49.5958 61.5375 50.7689C61.5372 52.3419 60.9122 53.8503 59.7999 54.9626C58.6877 56.0748 57.1792 56.6999 55.6062 56.7002ZM43.4812 24.0752H37.75V35.7002H58.1625C57.3787 32.394 55.5036 29.4486 52.8398 27.3393C50.176 25.23 46.879 24.0801 43.4812 24.0752ZM14.6 37.5564C13.8002 37.5564 13.0332 37.8741 12.4676 38.4397C11.9021 39.0052 11.5844 39.7723 11.5844 40.5721C11.5844 41.3718 11.9021 42.1389 12.4676 42.7044C13.0332 43.27 13.8002 43.5877 14.6 43.5877H16.5V37.5564H14.6ZM20.9 46.0877H19V52.1127H20.9C21.699 52.1127 22.4652 51.7953 23.0302 51.2303C23.5951 50.6654 23.9125 49.8991 23.9125 49.1002C23.9125 48.3012 23.5951 47.535 23.0302 46.97C22.4652 46.4051 21.699 46.0877 20.9 46.0877ZM20.9 46.0877H19V52.1127H20.9C21.699 52.1127 22.4652 51.7953 23.0302 51.2303C23.5951 50.6654 23.9125 49.8991 23.9125 49.1002C23.9125 48.3012 23.5951 47.535 23.0302 46.97C22.4652 46.4051 21.699 46.0877 20.9 46.0877ZM14.6 37.5564C13.8002 37.5564 13.0332 37.8741 12.4676 38.4397C11.9021 39.0052 11.5844 39.7723 11.5844 40.5721C11.5844 41.3718 11.9021 42.1389 12.4676 42.7044C13.0332 43.27 13.8002 43.5877 14.6 43.5877H16.5V37.5564H14.6ZM14.6 37.5564C13.8002 37.5564 13.0332 37.8741 12.4676 38.4397C11.9021 39.0052 11.5844 39.7723 11.5844 40.5721C11.5844 41.3718 11.9021 42.1389 12.4676 42.7044C13.0332 43.27 13.8002 43.5877 14.6 43.5877H16.5V37.5564H14.6ZM20.9 46.0877H19V52.1127H20.9C21.699 52.1127 22.4652 51.7953 23.0302 51.2303C23.5951 50.6654 23.9125 49.8991 23.9125 49.1002C23.9125 48.3012 23.5951 47.535 23.0302 46.97C22.4652 46.4051 21.699 46.0877 20.9 46.0877ZM20.9 46.0877H19V52.1127H20.9C21.699 52.1127 22.4652 51.7953 23.0302 51.2303C23.5951 50.6654 23.9125 49.8991 23.9125 49.1002C23.9125 48.3012 23.5951 47.535 23.0302 46.97C22.4652 46.4051 21.699 46.0877 20.9 46.0877ZM11.5813 40.5689C11.5829 41.3691 11.9015 42.1359 12.4672 42.7017C13.033 43.2675 13.7999 43.586 14.6 43.5877H16.5V37.5564H14.6C13.8009 37.5577 13.0347 37.8754 12.4691 38.4399C11.9034 39.0043 11.5842 39.7698 11.5813 40.5689ZM34.8187 14.7314L18.5688 0.556432C18.3426 0.357069 18.0515 0.24707 17.75 0.24707C17.4485 0.24707 17.1574 0.357069 16.9313 0.556432L0.681251 14.7314C0.545727 14.8485 0.437047 14.9934 0.362623 15.1562C0.2882 15.3191 0.249785 15.4961 0.250001 15.6752V66.5002C0.25099 66.8314 0.383004 67.1488 0.61721 67.383C0.851417 67.6172 1.16878 67.7492 1.5 67.7502H34C34.3312 67.7492 34.6486 67.6172 34.8828 67.383C35.117 67.1488 35.249 66.8314 35.25 66.5002V15.6752C35.2502 15.4961 35.2118 15.3191 35.1374 15.1562C35.063 14.9934 34.9543 14.8485 34.8187 14.7314ZM17.75 11.5814C18.6919 11.5814 19.6127 11.8607 20.3959 12.3841C21.1791 12.9074 21.7895 13.6512 22.15 14.5214C22.5104 15.3916 22.6048 16.3492 22.421 17.273C22.2372 18.1969 21.7836 19.0455 21.1176 19.7115C20.4515 20.3776 19.603 20.8312 18.6791 21.0149C17.7553 21.1987 16.7977 21.1044 15.9275 20.7439C15.0572 20.3834 14.3134 19.773 13.7901 18.9898C13.2668 18.2066 12.9875 17.2859 12.9875 16.3439C12.9893 15.0814 13.4917 13.8711 14.3844 12.9783C15.2772 12.0856 16.4875 11.5832 17.75 11.5814ZM20.9 43.5877C22.362 43.5877 23.7641 44.1685 24.7979 45.2023C25.8317 46.2361 26.4125 47.6382 26.4125 49.1002C26.4125 50.5622 25.8317 51.9643 24.7979 52.9981C23.7641 54.0319 22.362 54.6127 20.9 54.6127H19V56.6564C19 56.9879 18.8683 57.3059 18.6339 57.5403C18.3995 57.7747 18.0815 57.9064 17.75 57.9064C17.4185 57.9064 17.1005 57.7747 16.8661 57.5403C16.6317 57.3059 16.5 56.9879 16.5 56.6564V54.6127H10.3313C9.99973 54.6127 9.68179 54.481 9.44737 54.2466C9.21295 54.0121 9.08125 53.6942 9.08125 53.3627C9.08125 53.0312 9.21295 52.7132 9.44737 52.4788C9.68179 52.2444 9.99973 52.1127 10.3313 52.1127H16.5V46.0877H14.6C13.1372 46.0877 11.7342 45.5066 10.6999 44.4722C9.66548 43.4378 9.08438 42.0349 9.08438 40.5721C9.08438 39.1092 9.66548 37.7063 10.6999 36.6719C11.7342 35.6375 13.1372 35.0564 14.6 35.0564H16.5V33.0127C16.5 32.6812 16.6317 32.3632 16.8661 32.1288C17.1005 31.8944 17.4185 31.7627 17.75 31.7627C18.0815 31.7627 18.3995 31.8944 18.6339 32.1288C18.8683 32.3632 19 32.6812 19 33.0127V35.0564H25.1687C25.5003 35.0564 25.8182 35.1881 26.0526 35.4225C26.2871 35.657 26.4187 35.9749 26.4187 36.3064C26.4187 36.638 26.2871 36.9559 26.0526 37.1903C25.8182 37.4247 25.5003 37.5564 25.1687 37.5564H19V43.5877H20.9ZM19 52.1127H20.9C21.699 52.1127 22.4652 51.7953 23.0302 51.2303C23.5951 50.6654 23.9125 49.8991 23.9125 49.1002C23.9125 48.3012 23.5951 47.535 23.0302 46.97C22.4652 46.4051 21.699 46.0877 20.9 46.0877H19V52.1127ZM11.5813 40.5689C11.5829 41.3691 11.9015 42.1359 12.4672 42.7017C13.033 43.2675 13.7999 43.586 14.6 43.5877H16.5V37.5564H14.6C13.8009 37.5577 13.0347 37.8754 12.4691 38.4399C11.9034 39.0043 11.5842 39.7698 11.5813 40.5689ZM14.6 37.5564C13.8002 37.5564 13.0332 37.8741 12.4676 38.4397C11.9021 39.0052 11.5844 39.7723 11.5844 40.5721C11.5844 41.3718 11.9021 42.1389 12.4676 42.7044C13.0332 43.27 13.8002 43.5877 14.6 43.5877H16.5V37.5564H14.6ZM20.9 46.0877H19V52.1127H20.9C21.699 52.1127 22.4652 51.7953 23.0302 51.2303C23.5951 50.6654 23.9125 49.8991 23.9125 49.1002C23.9125 48.3012 23.5951 47.535 23.0302 46.97C22.4652 46.4051 21.699 46.0877 20.9 46.0877ZM20.9 46.0877H19V52.1127H20.9C21.699 52.1127 22.4652 51.7953 23.0302 51.2303C23.5951 50.6654 23.9125 49.8991 23.9125 49.1002C23.9125 48.3012 23.5951 47.535 23.0302 46.97C22.4652 46.4051 21.699 46.0877 20.9 46.0877ZM14.6 37.5564C13.8002 37.5564 13.0332 37.8741 12.4676 38.4397C11.9021 39.0052 11.5844 39.7723 11.5844 40.5721C11.5844 41.3718 11.9021 42.1389 12.4676 42.7044C13.0332 43.27 13.8002 43.5877 14.6 43.5877H16.5V37.5564H14.6ZM14.6 37.5564C13.8002 37.5564 13.0332 37.8741 12.4676 38.4397C11.9021 39.0052 11.5844 39.7723 11.5844 40.5721C11.5844 41.3718 11.9021 42.1389 12.4676 42.7044C13.0332 43.27 13.8002 43.5877 14.6 43.5877H16.5V37.5564H14.6ZM20.9 46.0877H19V52.1127H20.9C21.699 52.1127 22.4652 51.7953 23.0302 51.2303C23.5951 50.6654 23.9125 49.8991 23.9125 49.1002C23.9125 48.3012 23.5951 47.535 23.0302 46.97C22.4652 46.4051 21.699 46.0877 20.9 46.0877ZM20.9 46.0877H19V52.1127H20.9C21.699 52.1127 22.4652 51.7953 23.0302 51.2303C23.5951 50.6654 23.9125 49.8991 23.9125 49.1002C23.9125 48.3012 23.5951 47.535 23.0302 46.97C22.4652 46.4051 21.699 46.0877 20.9 46.0877ZM14.6 37.5564C13.8002 37.5564 13.0332 37.8741 12.4676 38.4397C11.9021 39.0052 11.5844 39.7723 11.5844 40.5721C11.5844 41.3718 11.9021 42.1389 12.4676 42.7044C13.0332 43.27 13.8002 43.5877 14.6 43.5877H16.5V37.5564H14.6Z"/>
</mask>
<path d="M14.6 37.5564C13.8002 37.5564 13.0332 37.8741 12.4676 38.4397C11.9021 39.0052 11.5844 39.7723 11.5844 40.5721C11.5844 41.3718 11.9021 42.1389 12.4676 42.7044C13.0332 43.27 13.8002 43.5877 14.6 43.5877H16.5V37.5564H14.6ZM20.9 46.0877H19V52.1127H20.9C21.699 52.1127 22.4652 51.7953 23.0302 51.2303C23.5951 50.6654 23.9125 49.8991 23.9125 49.1002C23.9125 48.3012 23.5951 47.535 23.0302 46.97C22.4652 46.4051 21.699 46.0877 20.9 46.0877ZM20.9 46.0877H19V52.1127H20.9C21.699 52.1127 22.4652 51.7953 23.0302 51.2303C23.5951 50.6654 23.9125 49.8991 23.9125 49.1002C23.9125 48.3012 23.5951 47.535 23.0302 46.97C22.4652 46.4051 21.699 46.0877 20.9 46.0877ZM14.6 37.5564C13.8002 37.5564 13.0332 37.8741 12.4676 38.4397C11.9021 39.0052 11.5844 39.7723 11.5844 40.5721C11.5844 41.3718 11.9021 42.1389 12.4676 42.7044C13.0332 43.27 13.8002 43.5877 14.6 43.5877H16.5V37.5564H14.6ZM50.35 64.6252V65.2502C50.3499 65.5785 50.4145 65.9036 50.5401 66.207C50.6657 66.5103 50.8499 66.786 51.0821 67.0181C51.3142 67.2503 51.5898 67.4344 51.8932 67.56C52.1965 67.6857 52.5217 67.7503 52.85 67.7502H62.7687C63.0971 67.7503 63.4222 67.6857 63.7256 67.56C64.0289 67.4344 64.3045 67.2503 64.5367 67.0181C64.7689 66.786 64.953 66.5103 65.0786 66.207C65.2042 65.9036 65.2688 65.5785 65.2687 65.2502V64.6252H50.35ZM58.5437 38.2002H37.75V62.1252H66.5C66.8312 62.1242 67.1486 61.9922 67.3828 61.758C67.617 61.5238 67.749 61.2064 67.75 60.8752V49.5939C67.7464 46.9292 66.8312 44.3459 65.1565 42.2733C63.4818 40.2006 61.1483 38.7633 58.5437 38.2002ZM55.6062 56.7002C54.4332 56.7002 53.2864 56.3523 52.311 55.7006C51.3356 55.0489 50.5754 54.1225 50.1265 53.0387C49.6776 51.9549 49.5601 50.7623 49.789 49.6118C50.0178 48.4612 50.5827 47.4044 51.4122 46.5749C52.2417 45.7454 53.2986 45.1805 54.4491 44.9517C55.5997 44.7228 56.7922 44.8403 57.876 45.2892C58.9598 45.7381 59.8862 46.4983 60.5379 47.4737C61.1896 48.4491 61.5375 49.5958 61.5375 50.7689C61.5372 52.3419 60.9122 53.8503 59.7999 54.9626C58.6877 56.0748 57.1792 56.6999 55.6062 56.7002ZM43.4812 24.0752H37.75V35.7002H58.1625C57.3787 32.394 55.5036 29.4486 52.8398 27.3393C50.176 25.23 46.879 24.0801 43.4812 24.0752ZM14.6 37.5564C13.8002 37.5564 13.0332 37.8741 12.4676 38.4397C11.9021 39.0052 11.5844 39.7723 11.5844 40.5721C11.5844 41.3718 11.9021 42.1389 12.4676 42.7044C13.0332 43.27 13.8002 43.5877 14.6 43.5877H16.5V37.5564H14.6ZM20.9 46.0877H19V52.1127H20.9C21.699 52.1127 22.4652 51.7953 23.0302 51.2303C23.5951 50.6654 23.9125 49.8991 23.9125 49.1002C23.9125 48.3012 23.5951 47.535 23.0302 46.97C22.4652 46.4051 21.699 46.0877 20.9 46.0877ZM20.9 46.0877H19V52.1127H20.9C21.699 52.1127 22.4652 51.7953 23.0302 51.2303C23.5951 50.6654 23.9125 49.8991 23.9125 49.1002C23.9125 48.3012 23.5951 47.535 23.0302 46.97C22.4652 46.4051 21.699 46.0877 20.9 46.0877ZM14.6 37.5564C13.8002 37.5564 13.0332 37.8741 12.4676 38.4397C11.9021 39.0052 11.5844 39.7723 11.5844 40.5721C11.5844 41.3718 11.9021 42.1389 12.4676 42.7044C13.0332 43.27 13.8002 43.5877 14.6 43.5877H16.5V37.5564H14.6ZM14.6 37.5564C13.8002 37.5564 13.0332 37.8741 12.4676 38.4397C11.9021 39.0052 11.5844 39.7723 11.5844 40.5721C11.5844 41.3718 11.9021 42.1389 12.4676 42.7044C13.0332 43.27 13.8002 43.5877 14.6 43.5877H16.5V37.5564H14.6ZM20.9 46.0877H19V52.1127H20.9C21.699 52.1127 22.4652 51.7953 23.0302 51.2303C23.5951 50.6654 23.9125 49.8991 23.9125 49.1002C23.9125 48.3012 23.5951 47.535 23.0302 46.97C22.4652 46.4051 21.699 46.0877 20.9 46.0877ZM20.9 46.0877H19V52.1127H20.9C21.699 52.1127 22.4652 51.7953 23.0302 51.2303C23.5951 50.6654 23.9125 49.8991 23.9125 49.1002C23.9125 48.3012 23.5951 47.535 23.0302 46.97C22.4652 46.4051 21.699 46.0877 20.9 46.0877ZM11.5813 40.5689C11.5829 41.3691 11.9015 42.1359 12.4672 42.7017C13.033 43.2675 13.7999 43.586 14.6 43.5877H16.5V37.5564H14.6C13.8009 37.5577 13.0347 37.8754 12.4691 38.4399C11.9034 39.0043 11.5842 39.7698 11.5813 40.5689ZM34.8187 14.7314L18.5688 0.556432C18.3426 0.357069 18.0515 0.24707 17.75 0.24707C17.4485 0.24707 17.1574 0.357069 16.9313 0.556432L0.681251 14.7314C0.545727 14.8485 0.437047 14.9934 0.362623 15.1562C0.2882 15.3191 0.249785 15.4961 0.250001 15.6752V66.5002C0.25099 66.8314 0.383004 67.1488 0.61721 67.383C0.851417 67.6172 1.16878 67.7492 1.5 67.7502H34C34.3312 67.7492 34.6486 67.6172 34.8828 67.383C35.117 67.1488 35.249 66.8314 35.25 66.5002V15.6752C35.2502 15.4961 35.2118 15.3191 35.1374 15.1562C35.063 14.9934 34.9543 14.8485 34.8187 14.7314ZM17.75 11.5814C18.6919 11.5814 19.6127 11.8607 20.3959 12.3841C21.1791 12.9074 21.7895 13.6512 22.15 14.5214C22.5104 15.3916 22.6048 16.3492 22.421 17.273C22.2372 18.1969 21.7836 19.0455 21.1176 19.7115C20.4515 20.3776 19.603 20.8312 18.6791 21.0149C17.7553 21.1987 16.7977 21.1044 15.9275 20.7439C15.0572 20.3834 14.3134 19.773 13.7901 18.9898C13.2668 18.2066 12.9875 17.2859 12.9875 16.3439C12.9893 15.0814 13.4917 13.8711 14.3844 12.9783C15.2772 12.0856 16.4875 11.5832 17.75 11.5814ZM20.9 43.5877C22.362 43.5877 23.7641 44.1685 24.7979 45.2023C25.8317 46.2361 26.4125 47.6382 26.4125 49.1002C26.4125 50.5622 25.8317 51.9643 24.7979 52.9981C23.7641 54.0319 22.362 54.6127 20.9 54.6127H19V56.6564C19 56.9879 18.8683 57.3059 18.6339 57.5403C18.3995 57.7747 18.0815 57.9064 17.75 57.9064C17.4185 57.9064 17.1005 57.7747 16.8661 57.5403C16.6317 57.3059 16.5 56.9879 16.5 56.6564V54.6127H10.3313C9.99973 54.6127 9.68179 54.481 9.44737 54.2466C9.21295 54.0121 9.08125 53.6942 9.08125 53.3627C9.08125 53.0312 9.21295 52.7132 9.44737 52.4788C9.68179 52.2444 9.99973 52.1127 10.3313 52.1127H16.5V46.0877H14.6C13.1372 46.0877 11.7342 45.5066 10.6999 44.4722C9.66548 43.4378 9.08438 42.0349 9.08438 40.5721C9.08438 39.1092 9.66548 37.7063 10.6999 36.6719C11.7342 35.6375 13.1372 35.0564 14.6 35.0564H16.5V33.0127C16.5 32.6812 16.6317 32.3632 16.8661 32.1288C17.1005 31.8944 17.4185 31.7627 17.75 31.7627C18.0815 31.7627 18.3995 31.8944 18.6339 32.1288C18.8683 32.3632 19 32.6812 19 33.0127V35.0564H25.1687C25.5003 35.0564 25.8182 35.1881 26.0526 35.4225C26.2871 35.657 26.4187 35.9749 26.4187 36.3064C26.4187 36.638 26.2871 36.9559 26.0526 37.1903C25.8182 37.4247 25.5003 37.5564 25.1687 37.5564H19V43.5877H20.9ZM19 52.1127H20.9C21.699 52.1127 22.4652 51.7953 23.0302 51.2303C23.5951 50.6654 23.9125 49.8991 23.9125 49.1002C23.9125 48.3012 23.5951 47.535 23.0302 46.97C22.4652 46.4051 21.699 46.0877 20.9 46.0877H19V52.1127ZM11.5813 40.5689C11.5829 41.3691 11.9015 42.1359 12.4672 42.7017C13.033 43.2675 13.7999 43.586 14.6 43.5877H16.5V37.5564H14.6C13.8009 37.5577 13.0347 37.8754 12.4691 38.4399C11.9034 39.0043 11.5842 39.7698 11.5813 40.5689ZM14.6 37.5564C13.8002 37.5564 13.0332 37.8741 12.4676 38.4397C11.9021 39.0052 11.5844 39.7723 11.5844 40.5721C11.5844 41.3718 11.9021 42.1389 12.4676 42.7044C13.0332 43.27 13.8002 43.5877 14.6 43.5877H16.5V37.5564H14.6ZM20.9 46.0877H19V52.1127H20.9C21.699 52.1127 22.4652 51.7953 23.0302 51.2303C23.5951 50.6654 23.9125 49.8991 23.9125 49.1002C23.9125 48.3012 23.5951 47.535 23.0302 46.97C22.4652 46.4051 21.699 46.0877 20.9 46.0877ZM20.9 46.0877H19V52.1127H20.9C21.699 52.1127 22.4652 51.7953 23.0302 51.2303C23.5951 50.6654 23.9125 49.8991 23.9125 49.1002C23.9125 48.3012 23.5951 47.535 23.0302 46.97C22.4652 46.4051 21.699 46.0877 20.9 46.0877ZM14.6 37.5564C13.8002 37.5564 13.0332 37.8741 12.4676 38.4397C11.9021 39.0052 11.5844 39.7723 11.5844 40.5721C11.5844 41.3718 11.9021 42.1389 12.4676 42.7044C13.0332 43.27 13.8002 43.5877 14.6 43.5877H16.5V37.5564H14.6ZM14.6 37.5564C13.8002 37.5564 13.0332 37.8741 12.4676 38.4397C11.9021 39.0052 11.5844 39.7723 11.5844 40.5721C11.5844 41.3718 11.9021 42.1389 12.4676 42.7044C13.0332 43.27 13.8002 43.5877 14.6 43.5877H16.5V37.5564H14.6ZM20.9 46.0877H19V52.1127H20.9C21.699 52.1127 22.4652 51.7953 23.0302 51.2303C23.5951 50.6654 23.9125 49.8991 23.9125 49.1002C23.9125 48.3012 23.5951 47.535 23.0302 46.97C22.4652 46.4051 21.699 46.0877 20.9 46.0877ZM20.9 46.0877H19V52.1127H20.9C21.699 52.1127 22.4652 51.7953 23.0302 51.2303C23.5951 50.6654 23.9125 49.8991 23.9125 49.1002C23.9125 48.3012 23.5951 47.535 23.0302 46.97C22.4652 46.4051 21.699 46.0877 20.9 46.0877ZM14.6 37.5564C13.8002 37.5564 13.0332 37.8741 12.4676 38.4397C11.9021 39.0052 11.5844 39.7723 11.5844 40.5721C11.5844 41.3718 11.9021 42.1389 12.4676 42.7044C13.0332 43.27 13.8002 43.5877 14.6 43.5877H16.5V37.5564H14.6Z" fill="white"/>
<path d="M11.5844 40.5721H11.0844H11.5844ZM16.5 43.5877V44.0877H17V43.5877H16.5ZM16.5 37.5564H17V37.0564H16.5V37.5564ZM20.9 46.0877V45.5877V46.0877ZM19 46.0877V45.5877H18.5V46.0877H19ZM19 52.1127H18.5V52.6127H19V52.1127ZM11.5813 40.5689L11.0812 40.5671L11.0813 40.57L11.5813 40.5689ZM14.6 37.0564C13.6676 37.0564 12.7734 37.4268 12.1141 38.0861L12.8212 38.7932C13.293 38.3215 13.9328 38.0564 14.6 38.0564V37.0564ZM12.1141 38.0861C11.4548 38.7454 11.0844 39.6397 11.0844 40.5721H12.0844C12.0844 39.9049 12.3494 39.265 12.8212 38.7932L12.1141 38.0861ZM11.0844 40.5721C11.0844 41.5045 11.4548 42.3987 12.1141 43.058L12.8212 42.3509C12.3494 41.8791 12.0844 41.2392 12.0844 40.5721H11.0844ZM12.1141 43.058C12.7734 43.7173 13.6676 44.0877 14.6 44.0877V43.0877C13.9328 43.0877 13.293 42.8226 12.8212 42.3509L12.1141 43.058ZM14.6 44.0877H16.5V43.0877H14.6V44.0877ZM17 43.5877V37.5564H16V43.5877H17ZM16.5 37.0564H14.6V38.0564H16.5V37.0564ZM20.9 45.5877H19V46.5877H20.9V45.5877ZM18.5 46.0877V52.1127H19.5V46.0877H18.5ZM19 52.6127H20.9V51.6127H19V52.6127ZM20.9 52.6127C21.8316 52.6127 22.725 52.2426 23.3837 51.5839L22.6766 50.8768C22.2054 51.348 21.5664 51.6127 20.9 51.6127V52.6127ZM23.3837 51.5839C24.0424 50.9252 24.4125 50.0318 24.4125 49.1002H23.4125C23.4125 49.7665 23.1478 50.4056 22.6766 50.8768L23.3837 51.5839ZM24.4125 49.1002C24.4125 48.1686 24.0424 47.2752 23.3837 46.6165L22.6766 47.3236C23.1478 47.7948 23.4125 48.4338 23.4125 49.1002H24.4125ZM23.3837 46.6165C22.725 45.9578 21.8316 45.5877 20.9 45.5877L20.9 46.5877C21.5664 46.5877 22.2054 46.8524 22.6766 47.3236L23.3837 46.6165ZM11.0813 40.57C11.0832 41.5023 11.4544 42.396 12.1137 43.0552L12.8208 42.3481C12.3485 41.8759 12.0826 41.2358 12.0812 40.5679L11.0813 40.57ZM12.1137 43.0552C12.773 43.7145 13.6666 44.0858 14.599 44.0877L14.601 43.0877C13.9332 43.0863 13.2931 42.8204 12.8208 42.3481L12.1137 43.0552ZM14.5992 37.0564C13.6679 37.058 12.7751 37.4281 12.1159 38.0859L12.8223 38.7938C13.2944 38.3226 13.9338 38.0575 14.6008 38.0564L14.5992 37.0564ZM12.1159 38.0859C11.4567 38.7438 11.0847 39.6358 11.0813 40.5671L12.0812 40.5708C12.0837 39.9038 12.3501 39.2649 12.8223 38.7938L12.1159 38.0859ZM50.35 64.6252V63.6252H49.35V64.6252H50.35ZM50.35 65.2502L51.35 65.2504V65.2502H50.35ZM52.85 67.7502L52.85 66.7502L52.8498 66.7502L52.85 67.7502ZM62.7687 67.7502L62.769 66.7502H62.7687V67.7502ZM65.2687 65.2502L64.2687 65.2502L64.2687 65.2504L65.2687 65.2502ZM65.2687 64.6252H66.2687V63.6252H65.2687V64.6252ZM58.5437 38.2002L58.7551 37.2228L58.6506 37.2002H58.5437V38.2002ZM37.75 38.2002V37.2002H36.75V38.2002H37.75ZM37.75 62.1252H36.75V63.1252H37.75V62.1252ZM66.5 62.1252L66.5 63.1252L66.503 63.1252L66.5 62.1252ZM67.75 60.8752L68.75 60.8782V60.8752H67.75ZM67.75 49.5939L68.75 49.5939L68.75 49.5926L67.75 49.5939ZM55.6062 56.7002L55.6062 57.7002L55.6065 57.7002L55.6062 56.7002ZM61.5375 50.7689L62.5375 50.7691V50.7689L61.5375 50.7689ZM43.4812 24.0752L43.4827 23.0752H43.4812V24.0752ZM37.75 24.0752V23.0752H36.75V24.0752H37.75ZM37.75 35.7002H36.75V36.7002H37.75V35.7002ZM58.1625 35.7002V36.7002H59.4273L59.1355 35.4695L58.1625 35.7002ZM34.8187 14.7314L34.1614 15.485L34.1651 15.4883L34.8187 14.7314ZM18.5688 0.556432L17.9075 1.30658L17.9114 1.31001L18.5688 0.556432ZM17.75 0.24707V1.24707V0.24707ZM16.9313 0.556432L17.5886 1.31002L17.5925 1.30657L16.9313 0.556432ZM0.681251 14.7314L1.33487 15.4883L1.33861 15.485L0.681251 14.7314ZM0.250001 15.6752L1.25 15.6752L1.25 15.674L0.250001 15.6752ZM0.250001 66.5002L-0.750004 66.5002L-0.749995 66.5032L0.250001 66.5002ZM1.5 67.7502L1.49701 68.7502H1.5V67.7502ZM34 67.7502L34 68.7502L34.003 68.7502L34 67.7502ZM35.25 66.5002L36.25 66.5032V66.5002H35.25ZM35.25 15.6752L34.25 15.674V15.6752H35.25ZM17.75 11.5814L17.75 10.5814L17.7486 10.5814L17.75 11.5814ZM12.9875 16.3439L11.9875 16.3425V16.3439L12.9875 16.3439ZM26.4125 49.1002H25.4125H26.4125ZM20.9 54.6127L20.9 55.6127L20.9 54.6127ZM19 54.6127V53.6127H18V54.6127H19ZM16.5 54.6127H17.5V53.6127H16.5V54.6127ZM16.5 52.1127V53.1127H17.5V52.1127H16.5ZM16.5 46.0877H17.5V45.0877H16.5V46.0877ZM16.5 35.0564V36.0564H17.5V35.0564H16.5ZM19 35.0564H18V36.0564H19V35.0564ZM19 37.5564V36.5564H18V37.5564H19ZM19 43.5877H18V44.5877H19V43.5877ZM49.35 64.6252V65.2502H51.35V64.6252H49.35ZM49.35 65.2499C49.3499 65.7096 49.4403 66.1648 49.6162 66.5896L51.4641 65.8244C51.3887 65.6425 51.35 65.4474 51.35 65.2504L49.35 65.2499ZM49.6162 66.5896C49.7921 67.0143 50.0499 67.4002 50.3749 67.7252L51.7892 66.311C51.6499 66.1717 51.5394 66.0064 51.4641 65.8244L49.6162 66.5896ZM50.3749 67.7252C50.7 68.0503 51.0859 68.3081 51.5106 68.484L52.2758 66.6361C52.0938 66.5608 51.9284 66.4503 51.7892 66.311L50.3749 67.7252ZM51.5106 68.484C51.9353 68.6598 52.3906 68.7503 52.8503 68.7502L52.8498 66.7502C52.6528 66.7502 52.4577 66.7115 52.2758 66.6361L51.5106 68.484ZM52.85 68.7502H62.7687V66.7502H52.85V68.7502ZM62.7685 68.7502C63.2282 68.7503 63.6834 68.6598 64.1081 68.484L63.343 66.6361C63.161 66.7115 62.966 66.7502 62.769 66.7502L62.7685 68.7502ZM64.1081 68.484C64.5328 68.3081 64.9188 68.0503 65.2438 67.7252L63.8296 66.311C63.6903 66.4503 63.525 66.5608 63.343 66.6361L64.1081 68.484ZM65.2438 67.7252C65.5689 67.4002 65.8267 67.0143 66.0025 66.5896L64.1547 65.8244C64.0793 66.0064 63.9689 66.1717 63.8296 66.311L65.2438 67.7252ZM66.0025 66.5896C66.1784 66.1648 66.2689 65.7096 66.2687 65.2499L64.2687 65.2504C64.2688 65.4474 64.23 65.6424 64.1547 65.8244L66.0025 66.5896ZM66.2687 65.2502V64.6252H64.2687V65.2502H66.2687ZM65.2687 63.6252H50.35V65.6252H65.2687V63.6252ZM58.5437 37.2002H37.75V39.2002H58.5437V37.2002ZM36.75 38.2002V62.1252H38.75V38.2002H36.75ZM37.75 63.1252H66.5V61.1252H37.75V63.1252ZM66.503 63.1252C67.0984 63.1234 67.6689 62.8861 68.0899 62.4651L66.6757 61.0509C66.6283 61.0983 66.5641 61.125 66.497 61.1252L66.503 63.1252ZM68.0899 62.4651C68.5109 62.0441 68.7482 61.4736 68.75 60.8782L66.75 60.8722C66.7498 60.9392 66.7231 61.0035 66.6757 61.0509L68.0899 62.4651ZM68.75 60.8752V49.5939H66.75V60.8752H68.75ZM68.75 49.5926C68.7461 46.6996 67.7525 43.895 65.9343 41.6448L64.3787 42.9018C65.9099 44.7969 66.7467 47.1588 66.75 49.5953L68.75 49.5926ZM65.9343 41.6448C64.1161 39.3946 61.5827 37.8341 58.7551 37.2228L58.3324 39.1776C60.7138 39.6925 62.8474 41.0067 64.3787 42.9018L65.9343 41.6448ZM55.6062 55.7002C54.6309 55.7002 53.6775 55.411 52.8666 54.8691L51.7555 56.5321C52.8953 57.2937 54.2354 57.7002 55.6062 57.7002V55.7002ZM52.8666 54.8691C52.0557 54.3273 51.4236 53.5571 51.0504 52.656L49.2026 53.4214C49.7272 54.6879 50.6156 55.7704 51.7555 56.5321L52.8666 54.8691ZM51.0504 52.656C50.6771 51.755 50.5795 50.7635 50.7698 49.8069L48.8082 49.4167C48.5407 50.7612 48.678 52.1549 49.2026 53.4214L51.0504 52.656ZM50.7698 49.8069C50.96 48.8503 51.4297 47.9717 52.1193 47.282L50.7051 45.8678C49.7358 46.8372 49.0756 48.0722 48.8082 49.4167L50.7698 49.8069ZM52.1193 47.282C52.809 46.5924 53.6876 46.1227 54.6442 45.9324L54.254 43.9709C52.9095 44.2383 51.6745 44.8985 50.7051 45.8678L52.1193 47.282ZM54.6442 45.9324C55.6008 45.7422 56.5923 45.8398 57.4934 46.2131L58.2587 44.3653C56.9922 43.8407 55.5986 43.7034 54.254 43.9709L54.6442 45.9324ZM57.4934 46.2131C58.3944 46.5863 59.1646 47.2183 59.7064 48.0293L61.3694 46.9181C60.6078 45.7783 59.5252 44.8899 58.2587 44.3653L57.4934 46.2131ZM59.7064 48.0293C60.2483 48.8402 60.5375 49.7936 60.5375 50.7689L62.5375 50.7689C62.5375 49.3981 62.131 48.058 61.3694 46.9181L59.7064 48.0293ZM60.5375 50.7687C60.5372 52.0765 60.0176 53.3307 59.0928 54.2555L60.507 55.6697C61.8068 54.37 62.5371 52.6072 62.5375 50.7691L60.5375 50.7687ZM59.0928 54.2555C58.168 55.1803 56.9139 55.6999 55.606 55.7002L55.6065 57.7002C57.4446 57.6998 59.2073 56.9694 60.507 55.6697L59.0928 54.2555ZM43.4812 23.0752H37.75V25.0752H43.4812V23.0752ZM36.75 24.0752V35.7002H38.75V24.0752H36.75ZM37.75 36.7002H58.1625V34.7002H37.75V36.7002ZM59.1355 35.4695C58.2999 31.9446 56.3006 28.8042 53.4605 26.5553L52.219 28.1233C54.7065 30.093 56.4576 32.8435 57.1895 35.9309L59.1355 35.4695ZM53.4605 26.5553C50.6205 24.3064 47.1053 23.0804 43.4827 23.0752L43.4798 25.0752C46.6527 25.0798 49.7315 26.1536 52.219 28.1233L53.4605 26.5553ZM35.4761 13.9778L19.2261 -0.19715L17.9114 1.31001L34.1614 15.485L35.4761 13.9778ZM19.23 -0.193706C18.8212 -0.554089 18.295 -0.75293 17.75 -0.75293V1.24707C17.808 1.24707 17.864 1.26823 17.9075 1.30657L19.23 -0.193706ZM17.75 -0.75293C17.205 -0.75293 16.6788 -0.554089 16.27 -0.193706L17.5925 1.30657C17.636 1.26823 17.692 1.24707 17.75 1.24707L17.75 -0.75293ZM16.2739 -0.19715L0.0238959 13.9778L1.33861 15.485L17.5886 1.31001L16.2739 -0.19715ZM0.0276369 13.9746C-0.216744 14.1857 -0.412717 14.4469 -0.546916 14.7406L1.27216 15.5719C1.28681 15.5398 1.3082 15.5113 1.33486 15.4883L0.0276369 13.9746ZM-0.546916 14.7406C-0.681117 15.0343 -0.750387 15.3535 -0.749998 15.6764L1.25 15.674C1.24996 15.6387 1.25752 15.6039 1.27216 15.5719L-0.546916 14.7406ZM-0.749999 15.6752V66.5002H1.25V15.6752H-0.749999ZM-0.749995 66.5032C-0.748216 67.0986 -0.510912 67.6691 -0.0898966 68.0901L1.32432 66.6759C1.27692 66.6285 1.2502 66.5642 1.25 66.4972L-0.749995 66.5032ZM-0.0898966 68.0901C0.331124 68.5111 0.901631 68.7484 1.49701 68.7502L1.50299 66.7502C1.43594 66.75 1.37171 66.7233 1.32432 66.6759L-0.0898966 68.0901ZM1.5 68.7502H34V66.7502H1.5V68.7502ZM34.003 68.7502C34.5984 68.7484 35.1689 68.5111 35.5899 68.0901L34.1757 66.6759C34.1283 66.7233 34.0641 66.75 33.997 66.7502L34.003 68.7502ZM35.5899 68.0901C36.0109 67.6691 36.2482 67.0986 36.25 66.5032L34.25 66.4972C34.2498 66.5642 34.2231 66.6285 34.1757 66.6759L35.5899 68.0901ZM36.25 66.5002V15.6752H34.25V66.5002H36.25ZM36.25 15.6764C36.2504 15.3535 36.1811 15.0343 36.0469 14.7406L34.2278 15.5719C34.2425 15.6039 34.25 15.6387 34.25 15.674L36.25 15.6764ZM36.0469 14.7406C35.9127 14.4469 35.7167 14.1857 35.4724 13.9746L34.1651 15.4883C34.1918 15.5113 34.2132 15.5398 34.2278 15.5719L36.0469 14.7406ZM17.75 12.5814C18.4942 12.5814 19.2216 12.8021 19.8403 13.2155L20.9515 11.5526C20.0038 10.9194 18.8897 10.5814 17.75 10.5814V12.5814ZM19.8403 13.2155C20.4591 13.629 20.9413 14.2166 21.2261 14.9041L23.0739 14.1387C22.6377 13.0858 21.8991 12.1858 20.9515 11.5526L19.8403 13.2155ZM21.2261 14.9041C21.5109 15.5916 21.5854 16.3481 21.4402 17.078L23.4018 17.4681C23.6241 16.3503 23.51 15.1917 23.0739 14.1387L21.2261 14.9041ZM21.4402 17.078C21.295 17.8078 20.9367 18.4782 20.4105 19.0044L21.8247 20.4186C22.6306 19.6127 23.1794 18.586 23.4018 17.4681L21.4402 17.078ZM20.4105 19.0044C19.8843 19.5306 19.2139 19.889 18.484 20.0341L18.8742 21.9957C19.992 21.7734 21.0188 21.2245 21.8247 20.4186L20.4105 19.0044ZM18.484 20.0341C17.7542 20.1793 16.9977 20.1048 16.3102 19.82L15.5448 21.6678C16.5977 22.1039 17.7564 22.2181 18.8742 21.9957L18.484 20.0341ZM16.3102 19.82C15.6226 19.5353 15.035 19.053 14.6216 18.4343L12.9587 19.5454C13.5918 20.493 14.4918 21.2316 15.5448 21.6678L16.3102 19.82ZM14.6216 18.4343C14.2082 17.8155 13.9875 17.0881 13.9875 16.3439L11.9875 16.3439C11.9875 17.4836 12.3255 18.5978 12.9587 19.5454L14.6216 18.4343ZM13.9875 16.3454C13.9889 15.3476 14.386 14.391 15.0915 13.6855L13.6773 12.2712C12.5974 13.3512 11.9897 14.8152 11.9875 16.3425L13.9875 16.3454ZM15.0915 13.6855C15.7971 12.9799 16.7536 12.5829 17.7514 12.5814L17.7486 10.5814C16.2213 10.5836 14.7572 11.1913 13.6773 12.2712L15.0915 13.6855ZM20.9 44.5877C22.0968 44.5877 23.2446 45.0631 24.0908 45.9094L25.505 44.4952C24.2837 43.2738 22.6272 42.5877 20.9 42.5877V44.5877ZM24.0908 45.9094C24.9371 46.7556 25.4125 47.9034 25.4125 49.1002H27.4125C27.4125 47.373 26.7264 45.7165 25.505 44.4952L24.0908 45.9094ZM25.4125 49.1002C25.4125 50.297 24.9371 51.4447 24.0908 52.291L25.505 53.7052C26.7264 52.4839 27.4125 50.8274 27.4125 49.1002H25.4125ZM24.0908 52.291C23.2446 53.1373 22.0968 53.6127 20.9 53.6127L20.9 55.6127C22.6272 55.6127 24.2837 54.9265 25.505 53.7052L24.0908 52.291ZM20.9 53.6127H19V55.6127H20.9V53.6127ZM18 54.6127V56.6564H20V54.6127H18ZM18 56.6564C18 56.7227 17.9737 56.7863 17.9268 56.8332L19.341 58.2474C19.763 57.8255 20 57.2532 20 56.6564H18ZM17.9268 56.8332C17.8799 56.8801 17.8163 56.9064 17.75 56.9064V58.9064C18.3467 58.9064 18.919 58.6694 19.341 58.2474L17.9268 56.8332ZM17.75 56.9064C17.6837 56.9064 17.6201 56.8801 17.5732 56.8332L16.159 58.2474C16.581 58.6694 17.1533 58.9064 17.75 58.9064V56.9064ZM17.5732 56.8332C17.5263 56.7863 17.5 56.7227 17.5 56.6564H15.5C15.5 57.2532 15.7371 57.8255 16.159 58.2474L17.5732 56.8332ZM17.5 56.6564V54.6127H15.5V56.6564H17.5ZM16.5 53.6127H10.3313V55.6127H16.5V53.6127ZM10.3313 53.6127C10.265 53.6127 10.2014 53.5864 10.1545 53.5395L8.74026 54.9537C9.1622 55.3756 9.7345 55.6127 10.3313 55.6127V53.6127ZM10.1545 53.5395C10.1076 53.4926 10.0813 53.429 10.0813 53.3627H8.08125C8.08125 53.9594 8.31831 54.5317 8.74026 54.9537L10.1545 53.5395ZM10.0813 53.3627C10.0813 53.2964 10.1076 53.2328 10.1545 53.1859L8.74026 51.7717C8.3183 52.1937 8.08125 52.7659 8.08125 53.3627H10.0813ZM10.1545 53.1859C10.2014 53.139 10.2649 53.1127 10.3313 53.1127V51.1127C9.73452 51.1127 9.16222 51.3497 8.74026 51.7717L10.1545 53.1859ZM10.3313 53.1127H16.5V51.1127H10.3313V53.1127ZM17.5 52.1127V46.0877H15.5V52.1127H17.5ZM16.5 45.0877H14.6V47.0877H16.5V45.0877ZM14.6 45.0877C13.4024 45.0877 12.2538 44.6119 11.407 43.7651L9.99276 45.1793C11.2147 46.4012 12.872 47.0877 14.6 47.0877V45.0877ZM11.407 43.7651C10.5601 42.9182 10.0844 41.7697 10.0844 40.5721H8.08438C8.08438 42.3001 8.77084 43.9574 9.99276 45.1793L11.407 43.7651ZM10.0844 40.5721C10.0844 39.3744 10.5601 38.2259 11.407 37.379L9.99276 35.9648C8.77084 37.1867 8.08438 38.844 8.08438 40.5721H10.0844ZM11.407 37.379C12.2538 36.5322 13.4024 36.0564 14.6 36.0564V34.0564C12.872 34.0564 11.2147 34.7429 9.99276 35.9648L11.407 37.379ZM14.6 36.0564H16.5V34.0564H14.6V36.0564ZM17.5 35.0564V33.0127H15.5V35.0564H17.5ZM17.5 33.0127C17.5 32.9464 17.5263 32.8828 17.5732 32.8359L16.159 31.4217C15.7371 31.8436 15.5 32.4159 15.5 33.0127H17.5ZM17.5732 32.8359C17.6201 32.789 17.6837 32.7627 17.75 32.7627V30.7627C17.1533 30.7627 16.581 30.9997 16.159 31.4217L17.5732 32.8359ZM17.75 32.7627C17.8163 32.7627 17.8799 32.789 17.9268 32.8359L19.341 31.4217C18.919 30.9997 18.3467 30.7627 17.75 30.7627V32.7627ZM17.9268 32.8359C17.9737 32.8828 18 32.9464 18 33.0127H20C20 32.4159 19.7629 31.8436 19.341 31.4217L17.9268 32.8359ZM18 33.0127V35.0564H20V33.0127H18ZM19 36.0564H25.1687V34.0564H19V36.0564ZM25.1687 36.0564C25.2351 36.0564 25.2986 36.0828 25.3455 36.1297L26.7597 34.7154C26.3378 34.2935 25.7655 34.0564 25.1687 34.0564V36.0564ZM25.3455 36.1297C25.3924 36.1765 25.4187 36.2401 25.4187 36.3064H27.4187C27.4187 35.7097 27.1817 35.1374 26.7597 34.7154L25.3455 36.1297ZM25.4187 36.3064C25.4187 36.3727 25.3924 36.4363 25.3455 36.4832L26.7597 37.8974C27.1817 37.4755 27.4187 36.9032 27.4187 36.3064H25.4187ZM25.3455 36.4832C25.2986 36.5301 25.235 36.5564 25.1687 36.5564V38.5564C25.7655 38.5564 26.3378 38.3194 26.7597 37.8974L25.3455 36.4832ZM25.1687 36.5564H19V38.5564H25.1687V36.5564ZM18 37.5564V43.5877H20V37.5564H18ZM19 44.5877H20.9V42.5877H19V44.5877Z" fill="#FF6600" mask="url(#path-1-inside-1_273_2175)"/>
</svg>
