<svg width="107" height="102" viewBox="0 0 107 102" fill="none" xmlns="http://www.w3.org/2000/svg">
<path d="M22.5332 72.7381V64.4766L14.2277 72.3865C13.6123 72.9141 13.3047 73.6758 13.3047 74.4375V86.3516C13.3047 87.1133 13.6123 87.875 14.2277 88.4021L26.5324 100.121C27.7014 101.293 29.6697 101.293 30.8389 100.121C32 99.015 32.0716 97.0957 30.8389 96.0193C31.5704 96.7195 20.0727 85.7104 19.4572 85.1209V75.6676L22.5332 72.7381Z" fill="white" stroke="#FF6600"/>
<path d="M76.1614 96.0193C74.9311 97.0936 74.9969 99.0119 76.1614 100.121C77.3303 101.293 79.2986 101.293 80.4678 100.121L92.7725 88.4021C93.3877 87.875 93.6953 87.1133 93.6953 86.3516V74.4375C93.6953 73.6172 93.3262 72.8553 92.7112 72.3281L84.4668 64.9453V72.9727L87.543 75.7264V85.1209C88.2745 84.4203 76.7768 95.4299 76.1614 96.0193Z" fill="white" stroke="#FF6600"/>
<path d="M72.1621 1H66.0098C64.3095 1 62.9336 2.31035 62.9336 3.92969C62.9336 5.54902 64.3095 6.85938 66.0098 6.85938C67.707 6.85938 69.0859 8.36797 69.0859 9.98438V12.9141H66.0098C64.3095 12.9141 62.9336 14.2244 62.9336 15.8438C62.9336 17.4631 64.3095 18.7734 66.0098 18.7734H69.0859V21.7031C69.0859 23.3195 67.707 24.6328 66.0098 24.6328H62.3688C61.0621 21.1281 57.3752 18.7734 53.5 18.7734C49.6218 18.7734 45.9349 21.1281 44.6312 24.6328H40.9902C39.293 24.6328 37.9141 23.3195 37.9141 21.7031V18.7734H40.9902C42.6905 18.7734 44.0664 17.4631 44.0664 15.8438C44.0664 14.2244 42.6905 12.9141 40.9902 12.9141H37.9141V9.98438C37.9141 8.36797 39.293 6.85938 40.9902 6.85938C42.6905 6.85938 44.0664 5.54902 44.0664 3.92969C44.0664 2.31035 42.6905 1 40.9902 1H34.8379C26.3573 1 19.457 7.76699 19.457 15.8438C19.457 23.9205 26.3573 30.4922 34.8379 30.4922C34.8379 36.9553 40.3563 42.2109 47.1426 42.2109H59.8574C66.6437 42.2109 72.1621 36.9553 72.1621 30.4922C80.6427 30.4922 87.543 23.9205 87.543 15.8438C87.543 7.76699 80.6427 1 72.1621 1Z" fill="white" stroke="#FF6600"/>
<path d="M86.6417 47.2119L98.9464 35.4932C99.5232 34.9439 99.8477 34.2 99.8477 33.4219V15.8438C99.8477 14.2244 98.4718 12.9141 96.7715 12.9141C95.0712 12.9141 93.6953 14.2244 93.6953 15.8438V32.2088L83.1931 42.2109H73.5448C73.168 42.6094 72.7724 42.9846 72.3596 43.3488C75.1936 44.3455 77.6796 45.9721 79.6663 48.0703H84.4668C85.2838 48.0703 86.065 47.7613 86.6417 47.2119Z" fill="white" stroke="#FF6600"/>
<path d="M92.794 54.7881C92.2173 54.2387 91.4362 53.9297 90.6191 53.9297H83.3331C84.0226 55.7715 84.4668 57.7244 84.4668 59.7891H89.3454L99.8477 69.7912V86.3516C99.8477 87.9709 101.224 89.2812 102.924 89.2812C104.624 89.2812 106 87.9709 106 86.3516V68.5781C106 67.8 105.676 67.0561 105.099 66.5068L92.794 54.7881Z" fill="white" stroke="#FF6600"/>
<path d="M4.07617 89.2812C5.77647 89.2812 7.15234 87.9709 7.15234 86.3516V69.7912L17.6546 59.7891H22.5332C22.5332 57.7295 22.9368 55.766 23.6248 53.9297H16.3809C15.5638 53.9297 14.7827 54.2387 14.206 54.7881L1.90132 66.5068C1.32443 67.0561 1 67.8 1 68.5781V86.3516C1 87.9709 2.37587 89.2812 4.07617 89.2812Z" fill="white" stroke="#FF6600"/>
<path d="M10.2285 12.9141C8.52821 12.9141 7.15234 14.2244 7.15234 15.8438V33.4219C7.15234 34.2 7.47678 34.9439 8.05366 35.4932L20.3583 47.2119C20.935 47.7613 21.7162 48.0703 22.5332 48.0703H27.3173C29.3045 45.9818 31.7892 44.3303 34.6265 43.3375C34.2183 42.9766 33.8277 42.6051 33.4553 42.2109H23.8069L13.3047 32.2088V15.8438C13.3047 14.2244 11.9288 12.9141 10.2285 12.9141Z" fill="white" stroke="#FF6600"/>
<path d="M78.3145 59.7891C78.3145 53.326 72.796 48.0703 66.0098 48.0703H56.5762V82.4395L68.0074 96.5572C74.2229 92.2988 78.3145 85.1992 78.3145 77.3672V59.7891Z" fill="white" stroke="#FF6600"/>
<path d="M28.6855 59.7891V77.3672C28.6855 85.1988 32.7771 92.2982 38.9922 96.5568L50.4238 82.4395V48.0703H40.9902C34.204 48.0703 28.6855 53.326 28.6855 59.7891Z" fill="white" stroke="#FF6600"/>
<path d="M53.5 101C56.6196 101 59.7842 100.389 62.5329 99.3756L53.5 88.2744L44.4663 99.3752C47.2154 100.388 50.3799 101 53.5 101Z" fill="white" stroke="#FF6600"/>
</svg>
