<svg width="80" height="78" viewBox="0 0 80 78" fill="none" xmlns="http://www.w3.org/2000/svg">
<path d="M16.987 15.4435H63.0131C63.6705 15.4435 64.2302 14.7927 64.2302 14.0215V2.01703C64.2302 1.2458 63.6705 0.591797 63.0131 0.591797H16.987C16.3264 0.591797 15.7699 1.2458 15.7699 2.01703V14.0215C15.7693 14.7927 16.3264 15.4435 16.987 15.4435ZM54.6273 4.41857C54.6305 4.16178 54.7348 3.9166 54.9175 3.73615C55.1002 3.5557 55.3467 3.45451 55.6035 3.45451C55.8603 3.45451 56.1068 3.5557 56.2895 3.73615C56.4723 3.9166 56.5765 4.16178 56.5797 4.41857V10.6463H60.4034C60.6624 10.6463 60.9107 10.7491 61.0938 10.9322C61.2769 11.1153 61.3797 11.3636 61.3797 11.6226C61.3797 11.8815 61.2769 12.1298 61.0938 12.3129C60.9107 12.496 60.6624 12.5989 60.4034 12.5989H55.6034C55.3446 12.5986 55.0964 12.4957 54.9134 12.3127C54.7303 12.1296 54.6274 11.8814 54.6271 11.6226L54.6273 4.41857ZM46.2251 4.41857C46.225 4.29032 46.2501 4.1633 46.2991 4.04478C46.3481 3.92627 46.42 3.81858 46.5107 3.72791C46.6014 3.63723 46.7091 3.56533 46.8276 3.51634C46.9462 3.46735 47.0732 3.44223 47.2014 3.44241H50.8001C51.0568 3.44564 51.302 3.54991 51.4825 3.73264C51.6629 3.91536 51.7641 4.16183 51.7641 4.41864C51.7641 4.67545 51.6629 4.92192 51.4825 5.10465C51.302 5.28738 51.0568 5.39165 50.8001 5.39487H48.1776V7.04472H49.5802C49.837 7.04794 50.0822 7.15222 50.2626 7.33494C50.4431 7.51767 50.5443 7.76414 50.5443 8.02095C50.5443 8.27776 50.4431 8.52423 50.2626 8.70696C50.0822 8.88969 49.837 8.99396 49.5802 8.99718H48.1776V10.6463H50.8001C51.059 10.6463 51.3073 10.7491 51.4904 10.9322C51.6735 11.1153 51.7764 11.3636 51.7764 11.6226C51.7764 11.8815 51.6735 12.1298 51.4904 12.3129C51.3073 12.496 51.059 12.5989 50.8001 12.5989H47.2014C46.9426 12.5986 46.6944 12.4957 46.5114 12.3127C46.3283 12.1296 46.2254 11.8814 46.2251 11.6226V4.41857ZM37.5985 3.44241H42.4016C42.5308 3.44079 42.6591 3.46484 42.779 3.51317C42.8988 3.56151 43.0079 3.63316 43.0999 3.72397C43.1918 3.81478 43.2648 3.92295 43.3147 4.0422C43.3645 4.16145 43.3902 4.2894 43.3902 4.41864C43.3902 4.54789 43.3645 4.67584 43.3147 4.79509C43.2648 4.91434 43.1918 5.0225 43.0999 5.11332C43.0079 5.20413 42.8988 5.27578 42.779 5.32411C42.6591 5.37244 42.5308 5.3965 42.4016 5.39487H40.9764V11.6232C40.978 11.7524 40.9539 11.8807 40.9056 12.0005C40.8573 12.1204 40.7856 12.2295 40.6948 12.3214C40.604 12.4134 40.4958 12.4864 40.3766 12.5363C40.2573 12.5861 40.1294 12.6117 40.0001 12.6117C39.8709 12.6117 39.7429 12.5861 39.6237 12.5363C39.5044 12.4864 39.3963 12.4134 39.3055 12.3214C39.2146 12.2295 39.143 12.1204 39.0947 12.0005C39.0463 11.8807 39.0223 11.7524 39.0239 11.6232V5.39487H37.5985C37.3417 5.39165 37.0965 5.28738 36.9161 5.10465C36.7356 4.92192 36.6345 4.67545 36.6345 4.41864C36.6345 4.16183 36.7356 3.91536 36.9161 3.73264C37.0965 3.54991 37.3417 3.44564 37.5985 3.44241ZM28.2202 6.50395C28.2202 5.69184 28.5428 4.91299 29.1171 4.33874C29.6913 3.76448 30.4702 3.44187 31.2823 3.44187C32.0944 3.44187 32.8732 3.76448 33.4475 4.33874C34.0217 4.91299 34.3444 5.69184 34.3444 6.50395V9.5341C34.3444 10.3462 34.0217 11.1251 33.4475 11.6993C32.8732 12.2736 32.0944 12.5962 31.2823 12.5962C30.4702 12.5962 29.6913 12.2736 29.1171 11.6993C28.5428 11.1251 28.2202 10.3462 28.2202 9.5341V6.50395ZM18.6202 4.4181C18.6234 4.16131 18.7277 3.91614 18.9104 3.73569C19.0932 3.55524 19.3396 3.45405 19.5964 3.45405C19.8532 3.45405 20.0997 3.55524 20.2824 3.73569C20.4652 3.91614 20.5694 4.16131 20.5727 4.4181V7.04472H23.4201V4.41857C23.4233 4.16178 23.5275 3.9166 23.7103 3.73615C23.893 3.5557 24.1395 3.45451 24.3963 3.45451C24.6531 3.45451 24.8996 3.5557 25.0823 3.73615C25.265 3.9166 25.3693 4.16178 25.3725 4.41857V11.62C25.3693 11.8767 25.265 12.1219 25.0823 12.3024C24.8996 12.4828 24.6531 12.584 24.3963 12.584C24.1395 12.584 23.893 12.4828 23.7103 12.3024C23.5275 12.1219 23.4233 11.8767 23.4201 11.62V8.99718H20.573V11.62C20.5698 11.8767 20.4655 12.1219 20.2828 12.3024C20.1 12.4828 19.8536 12.584 19.5967 12.584C19.3399 12.584 19.0935 12.4828 18.9107 12.3024C18.728 12.1219 18.6237 11.8767 18.6205 11.62L18.6202 4.4181Z" fill="white" stroke="#FF6600"/>
<path d="M31.2821 10.6436C31.5763 10.6432 31.8584 10.5262 32.0664 10.3182C32.2744 10.1102 32.3915 9.82822 32.3918 9.53403V6.50434C32.3884 6.21232 32.27 5.93342 32.0623 5.72813C31.8545 5.52284 31.5743 5.40771 31.2822 5.40771C30.9902 5.40771 30.7099 5.52284 30.5022 5.72813C30.2945 5.93342 30.176 6.21232 30.1726 6.50434V9.53403C30.173 9.82819 30.29 10.1102 30.498 10.3182C30.706 10.5262 30.988 10.6432 31.2821 10.6436Z" fill="white" stroke="#FF6600"/>
<path d="M32.5742 34.2002H36.6224V39.4491H32.5742V34.2002Z" fill="white" stroke="#FF6600"/>
<path d="M21.7705 22.1992H25.8219V27.4481H21.7705V22.1992Z" fill="white" stroke="#FF6600"/>
<path d="M21.7705 46.2017H25.8219V51.4506H21.7705V46.2017Z" fill="white" stroke="#FF6600"/>
<path d="M21.7705 34.2002H25.8219V39.4491H21.7705V34.2002Z" fill="white" stroke="#FF6600"/>
<path d="M32.5742 46.2017H36.6224V51.4506H32.5742V46.2017Z" fill="white" stroke="#FF6600"/>
<path d="M32.5742 22.1992H36.6224V27.4481H32.5742V22.1992Z" fill="white" stroke="#FF6600"/>
<path d="M78.4083 75.456H74.6434V65.0038C75.9776 63.0937 77.4322 58.3525 77.4322 55.1958C77.4322 52.2217 75.714 49.8038 73.6053 49.8038C71.4965 49.8038 69.7817 52.2217 69.7817 55.1958C69.7817 58.4305 71.3145 63.4386 72.6909 65.2023V75.4495H70.7385V65.7783C68.8185 62.8366 67.8293 57.4868 67.8293 55.1958C67.8293 51.5675 69.9086 48.5509 72.6293 47.9588V19.5828L64.9819 17.6694V75.4495H63.0294V17.396H16.9706V75.4495H15.0182V17.6694L7.36771 19.5828V47.9588C10.0908 48.5509 12.1708 51.5675 12.1708 55.1958C12.1708 57.6266 11.1816 62.6283 9.38202 65.5472V75.456H7.42956V65.0071C8.76048 63.0994 10.2183 58.3557 10.2183 55.1958C10.2183 52.2217 8.5034 49.8038 6.3914 49.8038C4.28279 49.8038 2.56787 52.2217 2.56787 55.1958C2.56787 58.4112 4.09402 63.4354 5.4771 65.2023V75.456H1.59171C1.46248 75.4544 1.33421 75.4784 1.21435 75.5268C1.09448 75.5751 0.98541 75.6467 0.89345 75.7376C0.80149 75.8284 0.728477 75.9365 0.678643 76.0558C0.62881 76.175 0.603149 76.303 0.603149 76.4322C0.603149 76.5615 0.62881 76.6894 0.678643 76.8087C0.728477 76.9279 0.80149 77.0361 0.89345 77.1269C0.98541 77.2177 1.09448 77.2894 1.21435 77.3377C1.33421 77.386 1.46248 77.4101 1.59171 77.4085H78.4083C78.5376 77.4101 78.6658 77.386 78.7857 77.3377C78.9056 77.2894 79.0146 77.2177 79.1066 77.1269C79.1985 77.0361 79.2716 76.9279 79.3214 76.8087C79.3712 76.6894 79.3969 76.5615 79.3969 76.4322C79.3969 76.303 79.3712 76.175 79.3214 76.0558C79.2716 75.9365 79.1985 75.8284 79.1066 75.7376C79.0146 75.6467 78.9056 75.5751 78.7857 75.5268C78.6658 75.4784 78.5376 75.4544 78.4083 75.456ZM41.4254 21.2229C41.4252 21.0947 41.4503 20.9676 41.4993 20.8491C41.5483 20.7306 41.6202 20.6229 41.7109 20.5322C41.8016 20.4415 41.9093 20.3696 42.0278 20.3206C42.1463 20.2716 42.2733 20.2465 42.4016 20.2466H48.4016C48.6604 20.2469 48.9086 20.3498 49.0916 20.5328C49.2747 20.7159 49.3776 20.9641 49.3779 21.2229V28.4243C49.3771 28.683 49.274 28.9308 49.0911 29.1138C48.9081 29.2967 48.6602 29.3997 48.4016 29.4005H42.4016C42.1427 29.4003 41.8946 29.2973 41.7115 29.1143C41.5285 28.9313 41.4256 28.6831 41.4254 28.4243V21.2229ZM41.4254 33.2241C41.4252 33.0959 41.4503 32.9689 41.4993 32.8504C41.5483 32.7318 41.6202 32.6241 41.7109 32.5334C41.8016 32.4428 41.9093 32.3708 42.0278 32.3218C42.1463 32.2728 42.2733 32.2477 42.4016 32.2478H48.4016C48.6604 32.248 48.9086 32.351 49.0917 32.534C49.2747 32.7171 49.3777 32.9653 49.3779 33.2241V40.4254C49.3777 40.6843 49.2747 40.9325 49.0917 41.1155C48.9086 41.2986 48.6604 41.4015 48.4016 41.4017H42.4016C42.2733 41.4018 42.1463 41.3767 42.0278 41.3277C41.9093 41.2787 41.8016 41.2068 41.7109 41.1161C41.6202 41.0254 41.5483 40.9177 41.4993 40.7992C41.4503 40.6807 41.4252 40.5536 41.4254 40.4254V33.2241ZM41.4254 45.2252C41.4256 44.9664 41.5285 44.7182 41.7115 44.5352C41.8946 44.3522 42.1427 44.2493 42.4016 44.2491H48.4016C48.6602 44.2498 48.9081 44.3529 49.0911 44.5358C49.274 44.7187 49.3771 44.9665 49.3779 45.2252V52.4266C49.3776 52.6855 49.2747 52.9337 49.0916 53.1167C48.9086 53.2997 48.6604 53.4027 48.4016 53.4029H42.4016C42.2733 53.4031 42.1463 53.3779 42.0278 53.3289C41.9093 53.2799 41.8016 53.208 41.7109 53.1173C41.6202 53.0266 41.5483 52.9189 41.4993 52.8004C41.4503 52.6819 41.4252 52.5549 41.4254 52.4266V45.2252ZM30.6217 21.2229C30.6215 21.0947 30.6467 20.9676 30.6956 20.8491C30.7446 20.7306 30.8165 20.6229 30.9072 20.5322C30.9979 20.4415 31.1056 20.3696 31.2241 20.3206C31.3426 20.2716 31.4696 20.2465 31.5979 20.2466H37.5979C37.7261 20.2465 37.8532 20.2716 37.9717 20.3206C38.0902 20.3696 38.1979 20.4415 38.2886 20.5322C38.3793 20.6229 38.4512 20.7306 38.5002 20.8491C38.5492 20.9676 38.5743 21.0947 38.5742 21.2229V28.4243C38.5739 28.6831 38.471 28.9313 38.2879 29.1143C38.1049 29.2973 37.8567 29.4003 37.5979 29.4005H31.5979C31.339 29.4003 31.0909 29.2973 30.9078 29.1143C30.7248 28.9313 30.6219 28.6831 30.6217 28.4243V21.2229ZM30.6217 33.2241C30.6215 33.0959 30.6467 32.9689 30.6956 32.8504C30.7446 32.7318 30.8165 32.6241 30.9072 32.5334C30.9979 32.4428 31.1056 32.3708 31.2241 32.3218C31.3426 32.2728 31.4696 32.2477 31.5979 32.2478H37.5979C37.7261 32.2477 37.8532 32.2728 37.9717 32.3218C38.0902 32.3708 38.1979 32.4427 38.2886 32.5334C38.3793 32.6241 38.4512 32.7318 38.5002 32.8503C38.5492 32.9689 38.5744 33.0959 38.5742 33.2241V40.4254C38.5744 40.5536 38.5492 40.6807 38.5002 40.7992C38.4512 40.9177 38.3793 41.0254 38.2886 41.1161C38.1979 41.2068 38.0902 41.2787 37.9717 41.3277C37.8532 41.3767 37.7261 41.4019 37.5979 41.4017H31.5979C31.4696 41.4018 31.3426 41.3767 31.2241 41.3277C31.1056 41.2787 30.9979 41.2068 30.9072 41.1161C30.8165 41.0254 30.7446 40.9177 30.6956 40.7992C30.6467 40.6807 30.6215 40.5536 30.6217 40.4254V33.2241ZM30.6217 45.2252C30.6219 44.9664 30.7248 44.7182 30.9078 44.5352C31.0909 44.3522 31.339 44.2493 31.5979 44.2491H37.5979C37.8567 44.2493 38.1049 44.3522 38.2879 44.5352C38.471 44.7182 38.5739 44.9664 38.5742 45.2252V52.4266C38.5743 52.5549 38.5492 52.6819 38.5002 52.8004C38.4512 52.9189 38.3793 53.0266 38.2886 53.1173C38.1979 53.208 38.0902 53.2799 37.9717 53.3289C37.8532 53.3779 37.7261 53.4031 37.5979 53.4029H31.5979C31.4696 53.4031 31.3426 53.3779 31.2241 53.3289C31.1056 53.2799 30.9979 53.208 30.9072 53.1173C30.8165 53.0266 30.7446 52.9189 30.6956 52.8004C30.6467 52.6819 30.6215 52.5549 30.6217 52.4266V45.2252ZM19.818 21.2229C19.8182 20.9641 19.9211 20.7159 20.1041 20.5328C20.2872 20.3498 20.5353 20.2469 20.7942 20.2466H26.798C27.0569 20.2469 27.3051 20.3498 27.4881 20.5328C27.6711 20.7159 27.7741 20.9641 27.7743 21.2229V28.4243C27.7736 28.683 27.6704 28.9308 27.4875 29.1138C27.3046 29.2967 27.0567 29.3997 26.798 29.4005H20.7942C20.5355 29.3997 20.2876 29.2966 20.1047 29.1137C19.9218 28.9308 19.8188 28.683 19.818 28.4243V21.2229ZM19.818 33.2241C19.8182 32.9653 19.9211 32.7171 20.1041 32.534C20.2871 32.351 20.5353 32.248 20.7942 32.2478H26.798C27.0569 32.248 27.3051 32.351 27.4882 32.534C27.6712 32.7171 27.7741 32.9653 27.7743 33.2241V40.4254C27.7741 40.6843 27.6712 40.9325 27.4882 41.1155C27.3051 41.2986 27.0569 41.4015 26.798 41.4017H20.7942C20.5353 41.4015 20.2871 41.2986 20.1041 41.1155C19.9211 40.9324 19.8182 40.6842 19.818 40.4254V33.2241ZM19.818 52.4266V45.2252C19.8188 44.9666 19.9218 44.7187 20.1047 44.5358C20.2876 44.3529 20.5355 44.2498 20.7942 44.2491H26.798C27.0567 44.2498 27.3046 44.3529 27.4875 44.5358C27.6704 44.7187 27.7736 44.9665 27.7743 45.2252V52.4266C27.7741 52.6855 27.6711 52.9337 27.4881 53.1167C27.3051 53.2997 27.0569 53.4027 26.798 53.4029H20.7942C20.5353 53.4027 20.2872 53.2997 20.1041 53.1167C19.9211 52.9336 19.8182 52.6855 19.818 52.4266ZM37.374 68.0309C37.374 68.2899 37.2712 68.5382 37.0881 68.7213C36.905 68.9044 36.6566 69.0072 36.3977 69.0072C36.1388 69.0072 35.8905 68.9044 35.7074 68.7213C35.5243 68.5382 35.4214 68.2899 35.4214 68.0309V66.8294C35.4214 66.5705 35.5243 66.3221 35.7074 66.139C35.8905 65.9559 36.1388 65.8531 36.3977 65.8531C36.6566 65.8531 36.905 65.9559 37.0881 66.139C37.2712 66.3221 37.374 66.5705 37.374 66.8294V68.0309ZM44.5753 68.0309C44.5769 68.1602 44.5528 68.2884 44.5045 68.4083C44.4562 68.5281 44.3845 68.6372 44.2937 68.7292C44.2029 68.8211 44.0947 68.8942 43.9755 68.944C43.8562 68.9938 43.7283 69.0195 43.599 69.0195C43.4698 69.0195 43.3418 68.9938 43.2226 68.944C43.1033 68.8942 42.9952 68.8211 42.9043 68.7292C42.8135 68.6372 42.7419 68.5281 42.6936 68.4083C42.6452 68.2884 42.6212 68.1602 42.6228 68.0309V66.8294C42.6212 66.7002 42.6452 66.5719 42.6936 66.452C42.7419 66.3322 42.8135 66.2231 42.9043 66.1311C42.9952 66.0392 43.1033 65.9661 43.2226 65.9163C43.3418 65.8665 43.4698 65.8408 43.599 65.8408C43.7283 65.8408 43.8562 65.8665 43.9755 65.9163C44.0947 65.9661 44.2029 66.0392 44.2937 66.1311C44.3845 66.2231 44.4562 66.3322 44.5045 66.452C44.5528 66.5719 44.5769 66.7002 44.5753 66.8294V68.0309ZM53.2639 59.4075H50.5793V75.4495H48.6266V59.4068H40.9763V75.4495H39.0239V59.4068H31.3734V75.4495H29.4209V59.4068H26.798C26.5412 59.4035 26.2961 59.2993 26.1156 59.1165C25.9352 58.9338 25.834 58.6873 25.834 58.4305C25.834 58.1737 25.9352 57.9273 26.1156 57.7445C26.2961 57.5618 26.5412 57.4575 26.798 57.4543H53.2639C53.5207 57.4575 53.7658 57.5618 53.9463 57.7445C54.1267 57.9273 54.2279 58.1737 54.2279 58.4305C54.2279 58.6873 54.1267 58.9338 53.9463 59.1165C53.7658 59.2993 53.5207 59.4035 53.2639 59.4068V59.4075ZM60.1788 52.4274C60.179 52.5556 60.1539 52.6827 60.1049 52.8012C60.0559 52.9197 59.984 53.0274 59.8933 53.1181C59.8026 53.2088 59.6949 53.2807 59.5764 53.3297C59.4579 53.3787 59.3309 53.4038 59.2026 53.4037H53.2026C53.0744 53.4038 52.9474 53.3787 52.8288 53.3297C52.7103 53.2807 52.6026 53.2088 52.5119 53.1181C52.4212 53.0274 52.3493 52.9197 52.3003 52.8012C52.2513 52.6827 52.2262 52.5556 52.2263 52.4274V45.2252C52.2266 44.9664 52.3295 44.7182 52.5126 44.5352C52.6956 44.3522 52.9438 44.2493 53.2026 44.2491H59.2026C59.4615 44.2493 59.7096 44.3522 59.8927 44.5352C60.0757 44.7182 60.1786 44.9664 60.1788 45.2252V52.4274ZM60.1788 40.4262C60.179 40.5544 60.1539 40.6814 60.1049 40.7999C60.0559 40.9185 59.984 41.0262 59.8933 41.1169C59.8026 41.2075 59.6949 41.2795 59.5764 41.3285C59.4579 41.3775 59.3309 41.4026 59.2026 41.4025H53.2026C53.0744 41.4026 52.9473 41.3775 52.8288 41.3285C52.7103 41.2795 52.6026 41.2076 52.5119 41.1169C52.4212 41.0262 52.3493 40.9185 52.3003 40.8C52.2513 40.6815 52.2261 40.5544 52.2263 40.4262V33.2241C52.2261 33.0959 52.2513 32.9689 52.3003 32.8503C52.3493 32.7318 52.4212 32.6241 52.5119 32.5334C52.6026 32.4427 52.7103 32.3708 52.8288 32.3218C52.9473 32.2728 53.0744 32.2477 53.2026 32.2478H59.2026C59.3309 32.2477 59.4579 32.2728 59.5764 32.3218C59.6949 32.3708 59.8026 32.4428 59.8933 32.5334C59.984 32.6241 60.0559 32.7318 60.1049 32.8504C60.1539 32.9689 60.179 33.0959 60.1788 33.2241V40.4262ZM60.1788 28.4251C60.1786 28.6839 60.0757 28.9321 59.8927 29.1151C59.7096 29.2981 59.4615 29.401 59.2026 29.4012H53.2026C52.9438 29.401 52.6956 29.2981 52.5126 29.1151C52.3295 28.9321 52.2266 28.6839 52.2263 28.4251V21.2229C52.2262 21.0947 52.2513 20.9676 52.3003 20.8491C52.3493 20.7306 52.4212 20.6229 52.5119 20.5322C52.6026 20.4415 52.7103 20.3696 52.8288 20.3206C52.9474 20.2716 53.0744 20.2465 53.2026 20.2466H59.2026C59.3309 20.2465 59.4579 20.2716 59.5764 20.3206C59.6949 20.3696 59.8026 20.4415 59.8933 20.5322C59.984 20.6229 60.0559 20.7306 60.1049 20.8491C60.1539 20.9676 60.179 21.0947 60.1788 21.2229V28.4251Z" fill="white" stroke="#FF6600"/>
<path d="M54.1782 34.2002H58.2264V39.4491H54.1782V34.2002Z" fill="white" stroke="#FF6600"/>
<path d="M54.1782 22.1992H58.2264V27.4481H54.1782V22.1992Z" fill="white" stroke="#FF6600"/>
<path d="M43.3778 46.2017H47.426V51.4506H43.3778V46.2017Z" fill="white" stroke="#FF6600"/>
<path d="M43.3778 34.2002H47.426V39.4491H43.3778V34.2002Z" fill="white" stroke="#FF6600"/>
<path d="M43.3778 22.1992H47.426V27.4481H43.3778V22.1992Z" fill="white" stroke="#FF6600"/>
<path d="M54.1782 46.2017H58.2264V51.4506H54.1782V46.2017Z" fill="white" stroke="#FF6600"/>
</svg>
