<svg width="87" height="102" viewBox="0 0 87 102" fill="none" xmlns="http://www.w3.org/2000/svg">
<path d="M78.7311 13.5374C78.1384 12.7917 77.0263 12.6425 76.2431 13.2085C75.4583 13.7712 75.3017 14.8339 75.8925 15.5813C76.0028 15.7219 86.7928 29.7014 81.1496 48.9909L52.1114 63.633C51.6629 63.2246 51.1843 62.8482 50.6771 62.5059C56.735 60.4364 61.5258 55.8433 63.6489 50.0502C63.7664 50.0129 63.8821 49.9739 63.9924 49.9112L72.8906 44.8265C73.4262 44.5197 73.7537 43.9689 73.7537 43.374C73.7537 10.9728 62.9141 1.78154 62.4531 1.40694C61.7056 0.798549 60.5845 0.881555 59.942 1.59502C59.3048 2.30692 59.3938 3.37643 60.1413 3.98482C60.2391 4.06627 69.988 12.3456 70.1908 42.4164L64.7309 45.5349C64.8111 44.8247 64.8554 44.1044 64.8554 43.374C64.8554 32.1589 55.2755 23.0353 43.4997 23.0353C31.7239 23.0353 22.1441 32.1587 22.1441 43.374C22.1441 44.1044 22.1886 44.8247 22.2686 45.5349L16.8087 42.4164C17.0117 12.7034 26.7232 4.10181 26.869 3.97467C27.6075 3.36628 27.6911 2.3036 27.0577 1.59502C26.417 0.881555 25.294 0.798354 24.5484 1.40694C24.0857 1.78154 13.2459 10.9728 13.2459 43.374C13.2459 43.9689 13.575 44.5197 14.109 44.8265L23.0072 49.9112C23.1176 49.9739 23.2351 50.0129 23.3507 50.0502C25.4739 55.8433 30.2646 60.4366 36.3242 62.5059C35.8152 62.8482 35.3365 63.2244 34.888 63.633L5.84988 48.9909C0.206638 29.7014 10.9966 15.7219 11.107 15.5813C11.6978 14.8339 11.5411 13.7712 10.7581 13.2085C9.97147 12.6425 8.85935 12.7915 8.26832 13.5374C7.76466 14.1714 -3.98796 29.2947 2.64108 50.6334C2.77622 51.0707 3.09122 51.4367 3.5149 51.6504L30.7984 65.4078H9.68682C8.9625 65.4078 8.30934 65.8263 8.0372 66.4671C2.12696 80.372 11.2708 97.6531 11.6623 98.3836C11.9773 98.9683 12.602 99.3056 13.2479 99.3056C13.5203 99.3056 13.798 99.2447 14.0576 99.1191C14.9314 98.692 15.2784 97.6699 14.8299 96.8361C14.7444 96.6768 6.51186 81.1313 10.9218 68.7976H31.5673C31.3733 69.4128 31.2363 70.0501 31.1507 70.7026L20.1134 72.2043C19.5245 72.284 19.0171 72.6381 18.761 73.1485C11.6016 87.3533 25.6714 100.016 26.2728 100.548C26.6163 100.85 27.0505 101.001 27.483 101.001C27.9616 101.001 28.4368 100.818 28.7893 100.458C29.4566 99.7701 29.414 98.6988 28.6931 98.0615C28.5687 97.9513 16.4992 87.099 21.5889 75.4279L31.2221 74.116C31.7613 77.2294 33.5712 79.9329 36.1339 81.7311C34.1496 82.9362 32.8219 85.0379 32.8219 87.4412C32.8219 91.1784 36.0145 94.2207 39.9404 94.2207C40.9246 94.2207 41.7201 93.4614 41.7201 92.5259C41.7201 91.5886 40.9246 90.831 39.9404 90.831C37.9793 90.831 36.3812 89.3107 36.3812 87.4412C36.3812 85.5699 37.9793 84.0514 39.9404 84.0514C40.2821 84.0514 40.5846 83.9344 40.8553 83.7752C41.7078 83.9516 42.5923 84.0514 43.4997 84.0514C44.4074 84.0514 45.2919 83.9514 46.1442 83.7752C46.4165 83.9346 46.7171 84.0514 47.0588 84.0514C49.0218 84.0514 50.6181 85.5699 50.6181 87.4412C50.6181 89.3107 49.0218 90.831 47.0588 90.831C46.0746 90.831 45.2791 91.5886 45.2791 92.5259C45.2791 93.4614 46.0746 94.2207 47.0588 94.2207C50.9847 94.2207 54.1773 91.1784 54.1773 87.4412C54.1773 85.0379 52.8497 82.9362 50.8654 81.7329C53.428 79.9329 55.238 77.2296 55.7771 74.116L65.4121 75.4279C70.4806 87.065 58.4306 97.9529 58.3043 98.0631C57.5853 98.7021 57.5461 99.7732 58.2153 100.458C58.5641 100.817 59.0411 101 59.5179 101C59.9504 101 60.3827 100.85 60.7262 100.548C61.3295 100.016 75.3974 87.3531 68.2381 73.1483C67.9817 72.6381 67.4746 72.2838 66.8872 72.2041L55.8483 70.7024C55.7628 70.0499 55.6258 69.4126 55.4318 68.7974H76.0772C80.4747 81.1091 72.2547 96.6766 72.1675 96.8375C71.7227 97.6715 72.0678 98.6918 72.9435 99.1189C73.2033 99.2443 73.4792 99.3054 73.7515 99.3054C74.3975 99.3054 75.0221 98.9681 75.3371 98.3834C75.7286 97.6529 84.8725 80.3718 78.9622 66.4669C78.6917 65.8263 78.0367 65.4076 77.3126 65.4076H56.201L83.4845 51.6502C83.908 51.4367 84.223 51.0705 84.3584 50.6332C90.989 29.2947 79.2346 14.1712 78.7311 13.5374Z" fill="white" stroke="#FF6600"/>
</svg>
