<svg width="754" height="568" viewBox="0 0 754 568" fill="none" xmlns="http://www.w3.org/2000/svg">
<path d="M639.136 328.291L569.43 337.827C596.399 333.084 619.296 328.565 638.774 324.556L639.136 328.291Z" fill="url(#paint0_linear_339_2183)"/>
<path d="M184.557 337.827L114.826 328.291L115.189 324.556C119.478 325.44 123.949 326.337 128.577 327.27C144.949 330.569 163.521 334.13 184.557 337.827Z" fill="url(#paint1_linear_339_2183)"/>
<path d="M638.581 322.602L619.767 128.691C611.539 43.9105 533.59 -14.6388 452.73 3.2136L376.981 19.9331C462.215 39.852 502.126 96.4219 502.126 160.972C502.126 161.793 502.114 162.59 502.09 163.362C502.114 164.246 502.126 165.117 502.126 166.014C502.126 178.027 500.724 188.796 497.909 198.32C495.094 207.844 491.275 216.745 486.454 225.024C481.633 233.302 475.99 241.071 469.574 248.304C463.134 255.549 456.307 262.708 449.069 269.729C442.23 276.365 436.515 282.365 431.899 287.743C427.271 293.122 423.658 298.412 421.048 303.579C418.426 308.77 416.529 314.248 415.321 320.037C414.342 324.755 413.762 329.984 413.581 335.761C413.544 337.118 413.508 338.499 413.508 339.919V353.837L337.312 357.447H328.068L376.981 364.145L569.32 337.852C569.357 337.852 569.405 337.84 569.429 337.84C596.399 333.096 619.296 328.577 638.774 324.569L638.581 322.602Z" fill="url(#paint2_linear_339_2183)"/>
<path d="M502.127 160.972C502.127 161.793 502.115 162.59 502.091 163.362C501.777 147.8 498.575 133.147 492.485 119.441C486.057 104.937 477.115 92.4132 465.66 81.8686C454.205 71.2991 440.431 63.0327 424.372 57.0197C409.872 51.6291 394.08 48.6413 376.994 48.1059C375.109 48.0313 373.236 48.0063 371.327 48.0063C353.251 48.0063 336.963 50.9071 322.499 56.7085C308.036 62.5098 295.457 70.0541 284.824 79.3662C274.179 88.6908 265.322 99.1483 258.301 110.739C251.269 122.341 246.134 133.932 242.932 145.51L312.265 175.326C313.86 168.715 316.373 162.291 319.793 156.079C323.2 149.854 327.538 144.265 332.758 139.31C337.978 134.343 344.007 130.409 350.834 127.508C357.673 124.607 365.31 123.163 373.744 123.163C374.855 123.163 375.931 123.188 377.006 123.238C391.144 123.86 402.405 128.603 410.827 137.442C415.032 141.874 418.258 146.63 420.506 151.697C423.103 157.511 424.384 163.735 424.384 170.371C424.384 182.385 421.363 192.531 415.346 200.81C410.706 207.184 404.652 214.031 397.161 221.376C394.913 223.58 392.533 225.833 390.032 228.136C385.331 232.219 381.006 236.166 377.018 240C372.088 244.731 367.69 249.263 363.811 253.595C356.779 261.475 351.16 269.331 346.931 277.199C342.714 285.067 339.597 293.246 337.579 301.724C335.573 310.214 334.57 319.427 334.57 329.362V356.675L328.106 357.447L184.594 337.827C184.582 337.827 184.582 337.827 184.582 337.827C163.558 334.13 144.986 330.582 128.601 327.27C123.973 326.336 119.502 325.428 115.213 324.556L134.232 128.691C142.46 43.9105 220.409 -14.6388 301.257 3.2136L377.018 19.9331C462.217 39.852 502.127 96.4219 502.127 160.972Z" fill="url(#paint3_linear_339_2183)"/>
<path d="M638.763 322.552C638.691 322.564 638.642 322.577 638.57 322.589C619.14 326.586 596.303 331.092 569.418 335.823C569.394 335.823 569.345 335.835 569.309 335.835C568.826 335.923 568.318 336.022 567.823 336.097C516.711 345.035 465.165 350.351 413.509 352.032C387.204 352.916 360.863 352.841 334.546 351.82C284.896 349.928 235.319 344.687 186.177 336.097C185.633 336.01 185.114 335.91 184.57 335.823C184.558 335.823 184.558 335.823 184.558 335.823C163.533 332.125 144.961 328.577 128.577 325.266C124.021 324.345 119.623 323.448 115.382 322.589C115.309 322.577 115.261 322.564 115.189 322.552C16.6385 302.21 5.67908 294.653 0 337.043C24.6617 444.157 178.13 501.013 298.599 518.928C287.675 504.039 281.718 485.962 281.694 467.251C281.658 444.194 290.346 422.508 306.151 406.187C321.955 389.878 342.98 380.89 365.346 380.89C366.24 380.89 367.146 380.902 368.052 380.939C411.395 382.359 446.907 418.424 448.913 463.018C449.493 476.003 447.221 488.888 442.376 500.69L443.729 502.084C449.457 503.08 454.737 505.844 458.942 510.151L465.829 517.26C508.869 510.164 555.402 498.2 598.417 480.87C674.058 450.394 738.727 403.336 754 337.006C748.297 294.653 737.325 302.21 638.763 322.552Z" fill="url(#paint4_linear_339_2183)"/>
<path d="M463.957 548.918L442.691 526.995C440.649 524.904 437.35 524.891 435.308 526.97L418.96 510.126L413.74 504.748C421.956 493.556 426.608 479.426 425.92 464.138C424.47 431.783 398.733 405.676 367.316 404.643C332.879 403.51 304.641 431.969 304.69 467.213C304.714 483.198 310.695 497.914 320.47 509.018C331.164 521.169 346.413 529.012 363.389 529.56C379.52 530.07 394.274 524.094 405.415 513.986L426.657 535.872L425.678 536.88C423.636 538.984 423.636 542.407 425.678 544.511L446.944 566.422C448.986 568.526 452.309 568.526 454.351 566.422L463.957 556.525C466.011 554.434 466.011 551.01 463.957 548.918ZM329.931 450.494C336.045 436.75 349.518 427.214 365.154 427.214C386.541 427.214 403.88 445.079 403.88 467.114C403.88 471.322 403.252 475.368 402.068 479.177C397.113 495.324 382.457 507.026 365.154 507.026C343.766 507.026 326.427 489.162 326.427 467.126C326.439 461.176 327.684 455.548 329.931 450.494Z" fill="url(#paint5_linear_339_2183)"/>
<defs>
<linearGradient id="paint0_linear_339_2183" x1="604.928" y1="335.415" x2="604.179" y2="331.833" gradientUnits="userSpaceOnUse">
<stop stop-color="#2C003E"/>
<stop offset="0.9804" stop-color="#FF3B3F"/>
</linearGradient>
<linearGradient id="paint1_linear_339_2183" x1="161.523" y1="358.423" x2="144.686" y2="324.436" gradientUnits="userSpaceOnUse">
<stop stop-color="#2C003E"/>
<stop offset="0.9804" stop-color="#FF3B3F"/>
</linearGradient>
<linearGradient id="paint2_linear_339_2183" x1="539.542" y1="373.706" x2="366.787" y2="24.9807" gradientUnits="userSpaceOnUse">
<stop stop-color="#FF0B00"/>
<stop offset="1" stop-color="#FE9A01"/>
</linearGradient>
<linearGradient id="paint3_linear_339_2183" x1="476.022" y1="62.4887" x2="84.3119" y2="285.725" gradientUnits="userSpaceOnUse">
<stop stop-color="#FF0B00"/>
<stop offset="1" stop-color="#FE9A01"/>
</linearGradient>
<linearGradient id="paint4_linear_339_2183" x1="-238.119" y1="472.248" x2="562.951" y2="377.595" gradientUnits="userSpaceOnUse">
<stop stop-color="#FF0B00"/>
<stop offset="0.2221" stop-color="#FF0E00"/>
<stop offset="0.3875" stop-color="#FF1700"/>
<stop offset="0.5348" stop-color="#FF2800"/>
<stop offset="0.6712" stop-color="#FF3E00"/>
<stop offset="0.8004" stop-color="#FE5C01"/>
<stop offset="0.9223" stop-color="#FE7F01"/>
<stop offset="1" stop-color="#FE9A01"/>
</linearGradient>
<linearGradient id="paint5_linear_339_2183" x1="110.943" y1="74.5876" x2="483.414" y2="615.96" gradientUnits="userSpaceOnUse">
<stop stop-color="#FF0B00"/>
<stop offset="1" stop-color="#FE9A01"/>
</linearGradient>
</defs>
</svg>
