<svg width="82" height="82" viewBox="0 0 82 82" fill="none" xmlns="http://www.w3.org/2000/svg">
<path d="M41.4341 61.2573L41 60.4976L40.5659 61.2573L36.3024 68.7182C36.3024 68.7182 36.3024 68.7182 36.3024 68.7182C35.3356 70.4102 35.3423 72.4323 36.3205 74.1179L36.3205 74.1179C37.2989 75.8036 39.0511 76.8127 41 76.8127C42.9489 76.8127 44.7013 75.8034 45.6795 74.1179C46.6577 72.4324 46.6644 70.4104 45.6974 68.7184C45.6974 68.7184 45.6974 68.7184 45.6974 68.7184L41.4341 61.2573Z" fill="white" stroke="#FF6600"/>
<path d="M52.1938 32.5917L43.2749 20.6998C43.2749 20.6998 43.2749 20.6998 43.2749 20.6998C42.7803 20.0402 42.0236 19.6279 41.2014 19.5695L41.201 19.5695C40.3793 19.5119 39.5723 19.8119 38.989 20.3952L30.0495 29.3345L18.1263 33.8057C18.1263 33.8057 18.1263 33.8057 18.1263 33.8057C17.2258 34.1433 16.5574 34.913 16.3489 35.8515L13.4412 48.9362L6.41103 54.5605L6.41098 54.5605C5.90435 54.966 5.55131 55.5324 5.41099 56.1663C5.41099 56.1663 5.41099 56.1663 5.41098 56.1663L0.567243 78.0413L1.05532 78.1493L0.56724 78.0413C0.380868 78.8831 0.586591 79.764 1.12606 80.4363L1.12616 80.4365C1.66591 81.1087 2.4815 81.4998 3.3437 81.4998H14.7181H15.1301L15.2088 81.0954L18.8777 62.2618C18.9757 61.759 19.2785 61.3196 19.7135 61.0489L28.5264 55.5653L28.6463 55.4907L28.7095 55.3644L36.2259 40.3316C36.4526 39.8782 36.8557 39.5383 37.3407 39.3915L37.3408 39.3915C37.8255 39.2448 38.3498 39.304 38.7899 39.5554L49.7275 45.8054L49.7275 45.8054C49.9585 45.9373 50.1583 46.1179 50.3131 46.3346L58.1255 57.2719C58.1255 57.272 58.1255 57.272 58.1256 57.272C58.3036 57.5214 58.4168 57.8111 58.4547 58.115L58.9509 58.053L58.4547 58.115L59.9352 69.9583L59.9527 70.0983L60.0409 70.2086L68.9234 81.3122L69.0735 81.4998H69.3138H78.6562C79.4993 81.4998 80.2989 81.1256 80.8392 80.4786L80.8392 80.4785C81.3795 79.8313 81.6048 78.9778 81.4542 78.1482L80.9623 78.2375L81.4542 78.1482L78.173 60.0681C78.0435 59.3551 77.6469 58.7182 77.0637 58.2878L68.413 51.9026L64.0102 38.6944L64.0102 38.6943C63.7533 37.9239 63.1791 37.2998 62.4327 36.9798L62.4327 36.9798L52.1938 32.5917Z" fill="white" stroke="#FF6600"/>
<path d="M56.3579 71.0724L56.3579 71.0723L54.869 59.1612L54.8533 59.0356L54.7797 58.9326L47.6105 48.8957L47.5468 48.8066L47.4517 48.7522L39.1112 43.9863L38.6523 43.7241L38.416 44.1968L31.7114 57.6057L32.1586 57.8293L31.7114 57.6057C31.5592 57.9103 31.3255 58.1667 31.0363 58.3467L22.5284 63.6404L22.3434 63.7555L22.3018 63.9693L19.0029 80.9043L18.8869 81.4999H19.4937H40.9999H63.311H64.3513L63.7014 80.6876L56.7477 71.9954L56.7476 71.9954C56.535 71.7297 56.4001 71.4101 56.3579 71.0724ZM40.9999 80.4999C37.7174 80.4999 34.7787 78.8076 33.1311 75.9685C31.4835 73.1294 31.4721 69.7386 33.1007 66.8883L39.399 55.8663L39.399 55.8663C39.7272 55.2919 40.3382 54.9373 40.9997 54.9373C41.6614 54.9373 42.2724 55.2919 42.6004 55.8662L42.6005 55.8663L48.8987 66.8883L49.2753 66.6731L48.8987 66.8883C50.5273 69.7383 50.5161 73.1291 48.8685 75.9684L48.8685 75.9684C47.2211 78.8078 44.2826 80.4999 40.9999 80.4999Z" fill="white" stroke="#FF6600"/>
<path d="M3.34375 31.1875C4.91431 31.1875 6.1875 29.9143 6.1875 28.3438C6.1875 26.7732 4.91431 25.5 3.34375 25.5C1.77319 25.5 0.5 26.7732 0.5 28.3438C0.5 29.9143 1.77319 31.1875 3.34375 31.1875Z" fill="white" stroke="#FF6600"/>
<path d="M16.7812 11.8125C18.3518 11.8125 19.625 10.5393 19.625 8.96875C19.625 7.39819 18.3518 6.125 16.7812 6.125C15.2107 6.125 13.9375 7.39819 13.9375 8.96875C13.9375 10.5393 15.2107 11.8125 16.7812 11.8125Z" fill="white" stroke="#FF6600"/>
<path d="M56.1663 17.4225L56.1663 17.4225C55.2335 16.5259 53.8132 16.3716 52.7101 17.0477C51.6068 17.7234 51.0988 19.0588 51.474 20.2972L51.474 20.2972C52.4094 23.3842 54.3471 26.1551 56.9319 28.1038C59.6072 30.1209 62.7985 31.1875 66.1562 31.1875C74.6172 31.1875 81.5 24.3047 81.5 15.8438C81.5 7.38276 74.6172 0.5 66.1562 0.5C64.979 0.5 63.7712 0.647519 62.5661 0.937119C61.3077 1.2395 60.4123 2.35331 60.3873 3.64721C60.3622 4.94106 61.2138 6.08883 62.4598 6.43957C65.261 7.22832 67.2187 9.8119 67.2187 12.7188C67.2187 16.3196 64.2884 19.25 60.6875 19.25C58.998 19.25 57.3932 18.602 56.1663 17.4225Z" fill="white" stroke="#FF6600"/>
<path d="M38.6562 10.875C40.2268 10.875 41.5 9.60181 41.5 8.03125C41.5 6.46069 40.2268 5.1875 38.6562 5.1875C37.0857 5.1875 35.8125 6.46069 35.8125 8.03125C35.8125 9.60181 37.0857 10.875 38.6562 10.875Z" fill="white" stroke="#FF6600"/>
</svg>
