<svg width="82" height="82" viewBox="0 0 82 82" fill="none" xmlns="http://www.w3.org/2000/svg">
<path d="M1 69.5728H9.57143V80.9999H1V69.5728Z" fill="white" stroke="#FF6600"/>
<path d="M8.14286 33.857C12.0861 33.8521 15.2808 30.6574 15.2857 26.7141V19.5713H1V26.7141C1.00488 30.6574 4.19964 33.8521 8.14286 33.857Z" fill="white" stroke="#FF6600"/>
<path d="M1.10107 45.2859H5.3268C5.48165 42.645 6.04039 40.0432 6.98417 37.5718C3.82638 38.9599 1.6047 41.8735 1.10107 45.2859Z" fill="white" stroke="#FF6600"/>
<path d="M4.12849 35.8689C2.95731 35.3521 1.89495 34.6168 1 33.7017V38.6528C1.88449 37.5612 2.94127 36.6209 4.12849 35.8689Z" fill="white" stroke="#FF6600"/>
<path d="M1 48.1431V66.7145H9.57143V48.1431H1ZM6.71429 61.0002H3.85714V58.1431H6.71429V61.0002Z" fill="white" stroke="#FF6600"/>
<path d="M12.4285 80.9999H20.9999V69.5728H12.4285V80.9999Z" fill="white" stroke="#FF6600"/>
<path d="M20.4942 1H11.7987L2.1272 16.7157H15.6589L20.4942 1Z" fill="white" stroke="#FF6600"/>
<path d="M11.556 36.7416C11.3698 36.7318 11.187 36.7144 11.0001 36.7144C10.8131 36.7144 10.6304 36.7304 10.4441 36.7402C9.146 39.4152 8.38009 42.3177 8.18896 45.2858H13.8112C13.62 42.3184 12.8541 39.4166 11.556 36.7416Z" fill="white" stroke="#FF6600"/>
<path d="M56.3501 5.32408C59.0426 8.54116 60.6462 12.529 60.9301 16.7143H63.4901L59.8643 1H51.2712C53.1944 2.14676 54.911 3.60882 56.3501 5.32408Z" fill="white" stroke="#FF6600"/>
<path d="M23.9255 16.6145C23.5049 21.1458 24.9153 25.6582 27.8429 29.1431C28.7699 30.2411 29.8302 31.219 31 32.054V23.3298C30.0834 22.2926 29.5756 20.9561 29.5714 19.5714V8.14286C29.5714 7.35393 30.2111 6.71429 31 6.71429C31.7889 6.71429 32.4286 7.35393 32.4286 8.14286V13.8571H33.8571V8.14286C33.8571 7.35393 34.4968 6.71429 35.2857 6.71429C36.0746 6.71429 36.7143 7.35393 36.7143 8.14286V13.8571H38.1428V8.14286C38.1428 7.35393 38.7825 6.71429 39.5714 6.71429C40.3603 6.71429 41 7.35393 41 8.14286V19.5714C40.9958 20.9561 40.488 22.2912 39.5714 23.3284V35.2229C41.0021 35.3387 42.4418 35.2753 43.8571 35.0346V5.28571C43.8571 4.81138 44.0929 4.36844 44.4856 4.10268C44.8783 3.83691 45.3771 3.7839 45.8172 3.95968C50.6854 5.88909 53.8753 10.6024 53.8571 15.8389V26.7143C53.8571 27.5032 53.2175 28.1429 52.4286 28.1429V30.8975C57.5123 26.3474 59.4117 19.2143 57.2632 12.739C55.1148 6.26367 49.328 1.6808 42.5332 1.07254C42.01 1.02441 41.489 1 40.97 1C32.1063 1.01535 24.7158 7.78571 23.9255 16.6145Z" fill="white" stroke="#FF6600"/>
<path d="M21.0657 16.7143C21.074 16.5957 21.0657 16.4771 21.0803 16.3585C21.54 11.0718 24.0965 6.18834 28.1785 2.79688C28.9856 2.13281 29.8429 1.53223 30.7427 1H23.4841L18.6487 16.7143H21.0657Z" fill="white" stroke="#FF6600"/>
<path d="M12.4285 48.1431V66.7145H20.9999V48.1431H12.4285ZM18.1428 61.0002H15.2856V58.1431H18.1428V61.0002Z" fill="white" stroke="#FF6600"/>
<path d="M79.8727 16.7157L70.2012 1H62.7954L66.4226 16.7157H79.8727Z" fill="white" stroke="#FF6600"/>
<path d="M60.9197 19.934C60.4656 25.1217 57.9907 29.9235 54.03 33.3039C56.2266 34.2274 58.7405 33.9847 60.7195 32.6572C62.6984 31.3298 63.8773 29.097 63.857 26.7141V19.5713H60.9343C60.926 19.6927 60.9301 19.8126 60.9197 19.934Z" fill="white" stroke="#FF6600"/>
<path d="M34 33.7812C34.3886 33.9542 34.7813 34.1146 35.1845 34.2569L35.3512 34.3155C35.7997 34.4704 36.2545 34.6099 36.7184 34.7271V22.7474C36.7184 22.3421 36.8907 21.9564 37.1913 21.6858C37.7968 21.15 38.1435 20.38 38.1428 19.5715V16.7144H36.7142V19.5715C36.7142 20.3604 36.0745 21.0001 35.2856 21.0001C34.4967 21.0001 33.857 20.3604 33.857 19.5715V16.7144H32.4285V19.5715C32.4292 20.38 32.7772 21.1493 33.3841 21.6844C33.6847 21.955 33.857 22.3408 33.857 22.746V33.7142L34 33.7812Z" fill="white" stroke="#FF6600"/>
<path d="M25.6497 30.9685C22.9565 27.7493 21.3529 23.7593 21.0683 19.5713H18.1428V26.7141C18.1253 29.0977 19.3056 31.3298 21.2859 32.6565C23.2655 33.9833 25.7795 34.2267 27.9768 33.3039C27.139 32.5903 26.3612 31.809 25.6497 30.9685Z" fill="white" stroke="#FF6600"/>
<path d="M46.7144 34.2975C47.7056 33.9445 48.6619 33.5016 49.5715 32.9729V28.1431H46.7144V34.2975Z" fill="white" stroke="#FF6600"/>
<path d="M51.0001 15.8389C51.0119 12.5716 49.4076 9.51081 46.7144 7.66162V25.2858H51.0001V15.8389Z" fill="white" stroke="#FF6600"/>
<path d="M35.5355 55.3087C35.4532 55.294 35.3695 55.2863 35.2857 55.2856C34.4968 55.2856 33.8572 55.9253 33.8572 56.7142V65.2856C33.8572 66.0746 34.4968 66.7142 35.2857 66.7142H41V65.2856H38.1429C37.354 65.2856 36.7143 64.646 36.7143 63.8571V56.8684C36.7415 56.1346 36.2491 55.483 35.5355 55.3087Z" fill="white" stroke="#FF6600"/>
<path d="M36.7143 46.7157C36.7143 47.5046 36.0747 48.1443 35.2857 48.1443C34.4968 48.1443 33.8572 47.5046 33.8572 46.7157C33.8572 45.9268 34.4968 45.2871 35.2857 45.2871C36.0747 45.2871 36.7143 45.9268 36.7143 46.7157Z" fill="white" stroke="#FF6600"/>
<path d="M69.5715 66.7142C70.3604 66.7142 71 66.0745 71 65.2856V56.7142C71 56.295 70.8152 55.8967 70.4957 55.6253C70.1707 55.3512 69.741 55.2347 69.3217 55.3072C68.6075 55.4816 68.115 56.1338 68.1429 56.8683V63.857C68.1429 64.646 67.5032 65.2856 66.7143 65.2856H63.8572V66.7142H69.5715Z" fill="white" stroke="#FF6600"/>
<path d="M63.8572 69.5728H66.7143V72.4299H63.8572V69.5728Z" fill="white" stroke="#FF6600"/>
<path d="M66.7144 19.5713V26.7141C66.7144 30.6588 69.9126 33.857 73.8572 33.857C77.8018 33.857 81.0001 30.6588 81.0001 26.7141V19.5713H66.7144Z" fill="white" stroke="#FF6600"/>
<path d="M71 46.7157C71 47.5046 70.3603 48.1443 69.5714 48.1443C68.7825 48.1443 68.1428 47.5046 68.1428 46.7157C68.1428 45.9268 68.7825 45.2871 69.5714 45.2871C70.3603 45.2871 71 45.9268 71 46.7157Z" fill="white" stroke="#FF6600"/>
<path d="M52.4285 56.7144C50.6128 56.7164 48.9945 57.8604 48.387 59.5715H56.4701C55.8625 57.8604 54.2442 56.7164 52.4285 56.7144Z" fill="white" stroke="#FF6600"/>
<path d="M65.2858 31.8398C63.9248 34.1494 61.685 35.8089 59.079 36.4381C56.4737 37.0672 53.7239 36.6124 51.4583 35.1783C48.3277 37.1168 44.7179 38.1436 41.0356 38.1429C40.4301 38.1429 39.8226 38.1157 39.2129 38.0612C38.2552 37.9678 37.3058 37.8066 36.3711 37.5785L36.2288 37.5458C35.7385 37.4258 35.253 37.2926 34.7744 37.137C34.72 37.1203 34.667 37.0986 34.6126 37.0812C33.184 36.6048 31.8148 35.9651 30.5313 35.1755C28.5565 36.4527 26.1814 36.9591 23.8572 36.5999V72.4286H35.2857V69.5714H31C28.6333 69.5714 26.7143 67.6525 26.7143 65.2857V59.5714C26.7143 58.7825 27.354 58.1429 28.1429 58.1429C28.9318 58.1429 29.5715 58.7825 29.5715 59.5714V65.2857C29.5715 66.0746 30.2111 66.7143 31 66.7143H31.263C31.0935 66.2567 31.0049 65.7733 31 65.2857V56.7143C30.9993 55.4524 31.5553 54.2547 32.5186 53.44C33.4826 52.6253 34.7556 52.2765 36 52.4872C38.0941 52.8903 39.5987 54.736 39.5715 56.8684V62.4286H41V61C41 60.2111 41.6397 59.5714 42.4286 59.5714H45.4287C46.0056 56.768 48.1966 54.577 51 54.0001V52.4286C47.8443 52.4286 45.2857 49.87 45.2857 46.7143H48.1429C48.1429 48.2921 49.4222 49.5714 51 49.5714V45.2857H53.8572V49.5714C55.435 49.5714 56.7143 48.2921 56.7143 46.7143H59.5715C59.5715 49.87 57.0129 52.4286 53.8572 52.4286V54.0001C56.6606 54.577 58.8516 56.768 59.4285 59.5714H62.4286C63.2175 59.5714 63.8572 60.2111 63.8572 61V62.4286H65.2858V56.8684C65.2592 54.7367 66.7631 52.8917 68.8572 52.4886C70.1009 52.2786 71.3746 52.6267 72.3379 53.4407C73.3012 54.2554 73.8572 55.4531 73.8572 56.7143V65.2857C73.8523 65.7733 73.7637 66.2567 73.5942 66.7143H73.8572C74.6461 66.7143 75.2858 66.0746 75.2858 65.2857V59.5714C75.2858 58.7825 75.9254 58.1429 76.7143 58.1429C77.5032 58.1429 78.1429 58.7825 78.1429 59.5714V65.2857C78.1429 67.6525 76.2239 69.5714 73.8572 69.5714H69.5715V72.4286H81V33.7016C78.837 35.9233 75.7643 37.0121 72.6846 36.648C69.6056 36.2846 66.8713 34.5086 65.2858 31.844V31.8398ZM35.2857 51C32.919 51 31 49.0811 31 46.7143C31 44.3475 32.919 42.4286 35.2857 42.4286C37.6525 42.4286 39.5715 44.3475 39.5715 46.7143C39.5715 49.0811 37.6525 51 35.2857 51ZM47.7286 43.4414C47.1649 43.9939 46.2637 43.9939 45.7001 43.4414C45.4371 43.1694 45.2892 42.8066 45.2857 42.4286C45.2857 41.6396 45.9254 41 46.7143 41C47.5032 41 48.1429 41.6396 48.1429 42.4286C48.1401 42.8073 47.9915 43.1708 47.7286 43.4428V43.4414ZM53.4428 42.0128C53.3047 42.1433 53.145 42.2493 52.9713 42.3274C52.799 42.3965 52.6142 42.4307 52.4286 42.4286C52.0491 42.43 51.6843 42.2807 51.4144 42.0142C51.1514 41.7422 51.0028 41.3788 51 41C51.0056 40.6219 51.1535 40.2599 51.4144 39.9858C51.8322 39.5944 52.4377 39.4773 52.9713 39.6858C53.1443 39.7584 53.304 39.8595 53.4428 39.9858C53.9953 40.5494 53.9953 41.4506 53.4428 42.0142V42.0128ZM59.4571 42.9699C59.3915 43.1463 59.2897 43.3075 59.1571 43.4414C58.8837 43.703 58.521 43.8509 58.1429 43.8571C57.9553 43.862 57.7697 43.823 57.6002 43.7427C57.4272 43.6702 57.2675 43.5691 57.1287 43.4428C56.9961 43.3089 56.8943 43.1477 56.8287 42.9713C56.7555 42.7997 56.7164 42.6155 56.7143 42.4286C56.7199 42.0505 56.8678 41.6885 57.1287 41.4143C57.2675 41.2881 57.4272 41.1869 57.6002 41.1144C58.1331 40.9044 58.74 41.0216 59.1571 41.4143C59.418 41.6885 59.5659 42.0505 59.5715 42.4286C59.5763 42.6162 59.5373 42.8018 59.4571 42.9713V42.9699ZM69.5715 51C67.2047 51 65.2858 49.0811 65.2858 46.7143C65.2858 44.3475 67.2047 42.4286 69.5715 42.4286C71.9382 42.4286 73.8572 44.3475 73.8572 46.7143C73.8572 49.0811 71.9382 51 69.5715 51Z" fill="white" stroke="#FF6600"/>
<path d="M42.4286 75.2871H23.8572V81H81V75.2871H42.4286Z" fill="white" stroke="#FF6600"/>
<path d="M16.7142 31.8398C16.1429 32.7983 15.4161 33.6542 14.563 34.3726C17.0965 35.1085 19.344 36.6048 20.9999 38.6583V35.7356C19.2205 34.8853 17.7298 33.5307 16.7142 31.8398Z" fill="white" stroke="#FF6600"/>
<path d="M20.8989 45.2859C20.3953 41.8735 18.1729 38.9592 15.0144 37.5718C15.9589 40.0432 16.5183 42.645 16.6732 45.2859H20.8989Z" fill="white" stroke="#FF6600"/>
<path d="M38.1428 69.5728H41V72.4299H38.1428V69.5728Z" fill="white" stroke="#FF6600"/>
<path d="M43.8572 62.4302V72.4302H46.7143V65.2873H49.5715V72.4302H55.2858V65.2873H58.1429V72.4302H61V62.4302H43.8572Z" fill="white" stroke="#FF6600"/>
</svg>
