<svg width="138" height="100" viewBox="0 0 138 100" fill="none" xmlns="http://www.w3.org/2000/svg">
<path d="M64.4462 13.6541L64.4459 13.6548L54.7505 33.7124L33.1 36.9262L33.0995 36.9263C31.207 37.2117 29.6293 38.5437 29.0453 40.3686C28.4624 42.1903 28.9344 44.2036 30.2916 45.5524C30.2916 45.5524 30.2916 45.5524 30.2917 45.5525L46.0045 61.1843L42.2947 83.2764L42.2946 83.2768C41.9794 85.1789 42.7672 87.1131 44.3293 88.2395C45.8909 89.3656 47.9572 89.5083 49.6607 88.6043L49.6616 88.6039L69.0043 78.2203L88.347 88.6039L88.3478 88.6043C90.0502 89.5077 92.1172 89.3817 93.6803 88.2387C95.2406 87.0977 96.0293 85.1797 95.7139 83.2768L95.7138 83.2762L91.989 61.1843L107.702 45.5525C109.058 44.2046 109.547 42.191 108.948 40.3671C108.349 38.5445 106.787 37.2119 104.894 36.9263L104.893 36.9262L83.2277 33.7124L73.5326 13.6555C72.6963 11.9102 70.9292 10.8 68.9891 10.8C67.048 10.8 65.2973 11.911 64.4462 13.6541Z" fill="#FF6600" stroke="#FF6600" stroke-width="0.4"/>
</svg>
