<svg width="92" height="78" viewBox="0 0 92 78" fill="none" xmlns="http://www.w3.org/2000/svg">
<path fill-rule="evenodd" clip-rule="evenodd" d="M69.5141 56.7155C75.3266 57.6108 82.5922 57.1202 86.8875 55.2765C89.7109 54.064 91.3125 52.2015 91.3125 50.0483C91.3125 46.6811 90.1406 43.5687 88.1547 41.0608C87.6188 40.3858 86.6359 40.2702 85.9594 40.8062C85.2828 41.3421 85.1687 42.3249 85.7047 43.0015C87.2609 44.9687 88.1875 47.4077 88.1875 50.0483C88.1875 50.6561 87.7672 51.1265 87.1859 51.5577C86.2875 52.2233 85.0078 52.7312 83.5188 53.1233C78.8125 54.3624 72.1047 54.3577 67.4297 53.0999C66.1781 51.3093 64.6844 49.6858 62.9906 48.2687C63.9109 42.5468 69.1922 38.1905 75.5187 38.1905C78.1625 38.1905 80.6203 38.9499 82.6578 40.2546C83.3828 40.7186 84.35 40.5077 84.8156 39.7811C85.2812 39.0546 85.0688 38.0874 84.3422 37.6233C83.3688 36.9983 82.3172 36.4749 81.2031 36.0671C83.0359 34.4749 84.1969 32.128 84.1969 29.5124C84.1969 24.7218 80.3078 20.8327 75.5187 20.8327C74.3094 20.8327 73.1594 21.0811 72.1141 21.528C70.3172 18.9421 67.6953 16.9077 64.5984 15.7733C66.4328 14.1811 67.5922 11.8343 67.5922 9.21865C67.5922 4.42803 63.7047 0.540527 58.9141 0.540527C54.125 0.540527 50.2359 4.42803 50.2359 9.21865C50.2359 11.8343 51.3953 14.1811 53.2297 15.7733C51.5609 16.3843 50.0297 17.2561 48.6922 18.3358C46.9156 17.9796 45.0844 17.9796 43.3078 18.3358C41.9703 17.2561 40.4391 16.3843 38.7703 15.7733C40.6047 14.1811 41.7641 11.8343 41.7641 9.21865C41.7641 4.42803 37.875 0.540527 33.0859 0.540527C28.2953 0.540527 24.4078 4.42803 24.4078 9.21865C24.4078 11.8343 25.5672 14.1811 27.4016 15.7733C24.3047 16.9093 21.6812 18.9421 19.8859 21.528C18.8406 21.0811 17.6906 20.8327 16.4812 20.8327C11.6922 20.8327 7.80312 24.7218 7.80312 29.5124C7.80312 32.128 8.9625 34.4749 10.7969 36.0671C4.875 38.2374 0.6875 43.6968 0.6875 50.0483C0.6875 52.2015 2.28906 54.064 5.1125 55.2765C9.40781 57.1202 16.6734 57.6108 22.4859 56.7155C21.0938 59.7077 20.3219 63.0124 20.3219 66.4843C20.3219 68.8796 21.6328 70.9655 24.0109 72.6296C24.7172 73.1249 25.6922 72.9515 26.1859 72.2452C26.6813 71.539 26.5094 70.564 25.8016 70.0702C24.3781 69.0734 23.4469 67.9171 23.4469 66.4843C23.4469 54.7702 33.5766 45.3061 46 45.3061C58.4234 45.3061 68.5531 54.7702 68.5531 66.4843C68.5531 67.7468 67.8203 68.7968 66.675 69.7124C65.2469 70.8546 63.2078 71.7608 60.8047 72.4733C53.1484 74.739 41.9141 74.939 33.5984 73.0905C32.7562 72.903 31.9203 73.4358 31.7328 74.2765C31.5469 75.1186 32.0781 75.9546 32.9203 76.1405C43.2187 78.4311 57.7312 77.6999 65.5141 74.0421C69.4094 72.2124 71.6781 69.5905 71.6781 66.4843C71.6781 63.0124 70.9062 59.7077 69.5141 56.7155ZM29.0094 48.2687C28.0891 42.5468 22.8078 38.1905 16.4812 38.1905C9.51406 38.1905 3.8125 43.478 3.8125 50.0483C3.8125 50.6561 4.23281 51.1265 4.81406 51.5577C5.7125 52.2233 6.99219 52.7312 8.48125 53.1233C13.1875 54.3624 19.8953 54.3577 24.5703 53.0999C25.8219 51.3108 27.3156 49.6858 29.0094 48.2687ZM33.4031 36.8702C29.5797 36.8983 25.7313 36.4015 22.8422 35.414C22.6281 35.6437 22.4031 35.8608 22.1672 36.0671C26.8687 37.7921 30.4781 41.589 31.7656 46.2593C33.8734 44.9265 36.2031 43.8796 38.6906 43.1811C37.8641 42.6561 37.0828 42.0327 36.3625 41.3108C35.0531 39.9999 34.0656 38.4858 33.4031 36.8702ZM69.8328 36.0671C69.5969 35.8608 69.3703 35.6437 69.1578 35.414C66.2687 36.4015 62.4188 36.8983 58.5969 36.8718C57.9313 38.4905 56.9406 40.0093 55.625 41.3233C54.9078 42.039 54.1313 42.6593 53.3094 43.1811C55.7969 43.8796 58.125 44.9249 60.2344 46.2593C61.5219 41.589 65.1312 37.7905 69.8328 36.0671ZM69.5078 23.253C67.2375 20.0202 63.3344 17.8968 58.9141 17.8968C56.5062 17.8968 54.2516 18.5265 52.3312 19.6233C53.5203 20.2483 54.6375 21.0608 55.6375 22.0624C56.2469 22.6718 56.2453 23.6624 55.6359 24.2718C55.025 24.8812 54.0359 24.8796 53.4266 24.2702C49.3328 20.1718 42.6828 20.1671 38.5844 24.2608C34.4844 28.353 34.4812 35.0046 38.5734 39.103C42.6672 43.2015 49.3172 43.2062 53.4156 39.1124C56.5422 35.9905 57.2859 31.3811 55.6484 27.5499C55.3094 26.7577 55.6766 25.8374 56.4703 25.4983C57.2625 25.1593 58.1813 25.528 58.5203 26.3202C59.5266 28.6733 59.8406 31.2515 59.4625 33.7452C62.3297 33.7077 65.1641 33.3608 67.4391 32.6874C67.0531 31.703 66.8391 30.6327 66.8391 29.5124C66.8391 27.0546 67.8641 24.8327 69.5078 23.253ZM75.5187 23.9577C78.5828 23.9577 81.0719 26.4468 81.0719 29.5124C81.0719 32.5765 78.5828 35.0655 75.5187 35.0655C72.4531 35.0655 69.9641 32.5765 69.9641 29.5124C69.9641 26.4468 72.4531 23.9577 75.5187 23.9577ZM16.4812 23.9577C19.5469 23.9577 22.0359 26.4468 22.0359 29.5124C22.0359 32.5765 19.5469 35.0655 16.4812 35.0655C13.4172 35.0655 10.9281 32.5765 10.9281 29.5124C10.9281 26.4468 13.4172 23.9577 16.4812 23.9577ZM39.6687 19.6233C37.7484 18.5265 35.4938 17.8968 33.0859 17.8968C28.6656 17.8968 24.7625 20.0202 22.4922 23.253C24.1359 24.8327 25.1609 27.0546 25.1609 29.5124C25.1609 30.6327 24.9484 31.703 24.5609 32.6874C26.8359 33.3608 29.6703 33.7077 32.5375 33.7452C31.9094 29.6046 33.1891 25.2311 36.375 22.0499C37.3719 21.0546 38.4844 20.2452 39.6687 19.6233ZM58.9141 3.66553C61.9797 3.66553 64.4672 6.15303 64.4672 9.21865C64.4672 12.2827 61.9797 14.7718 58.9141 14.7718C55.8484 14.7718 53.3609 12.2827 53.3609 9.21865C53.3609 6.15303 55.8484 3.66553 58.9141 3.66553ZM33.0859 3.66553C36.1516 3.66553 38.6391 6.15303 38.6391 9.21865C38.6391 12.2827 36.1516 14.7718 33.0859 14.7718C30.0203 14.7718 27.5328 12.2827 27.5328 9.21865C27.5328 6.15303 30.0203 3.66553 33.0859 3.66553Z" fill="white" stroke="#FF6600"/>
<path d="M28.9517 74.9375C29.8146 74.9375 30.5142 74.2379 30.5142 73.375C30.5142 72.5121 29.8146 71.8125 28.9517 71.8125C28.0887 71.8125 27.3892 72.5121 27.3892 73.375C27.3892 74.2379 28.0887 74.9375 28.9517 74.9375Z" fill="white" stroke="#FF6600"/>
</svg>
