<svg width="100" height="100" viewBox="0 0 100 100" fill="none" xmlns="http://www.w3.org/2000/svg">
<path d="M50.3738 91.789H4.41495C3.63787 91.789 3 91.1512 3 90.3741V89.589C3 85.0196 6.72165 81.2993 11.2705 81.2993H43.5183C48.0671 81.2993 51.7888 85.0196 51.7888 89.589V90.3741C51.7888 91.1512 51.1509 91.789 50.3738 91.789Z" fill="white" stroke="#FF6600"/>
<path d="M10.6598 78.578C10.6598 74.7936 13.7305 71.7246 17.4941 71.7246H37.2947C41.0582 71.7246 44.1289 74.7936 44.1289 78.578V82.2143H10.6598V78.578Z" fill="white" stroke="#FF6600"/>
<path d="M19.8834 51.2023L19.8793 51.1994C18.5169 50.2303 17.6222 48.7665 17.3492 47.1059C17.0985 45.4273 17.4831 43.7702 18.4704 42.4102C19.4595 41.0478 20.9258 40.1529 22.5862 39.8801C23.5674 39.7313 24.55 39.8031 25.462 40.0937L25.8016 40.2019L26.0146 39.9162L41.631 18.9752L41.8568 18.6723L41.6272 18.3723C40.9882 17.5378 40.5487 16.5695 40.3851 15.5028L40.3851 15.5028L40.3843 15.4978C40.1128 13.8407 40.516 12.1702 41.5007 10.8258L41.502 10.8241C42.4928 9.45932 43.9417 8.56206 45.6185 8.29398L45.6204 8.29366C47.2774 8.02215 48.9479 8.42532 50.2923 9.41007L50.2943 9.41154L63.4868 18.974C64.8516 19.9647 65.7489 21.4137 66.0169 23.0904L66.0173 23.0923C66.2886 24.7487 65.8861 26.4202 64.8955 27.7847C63.9057 29.1482 62.4394 30.0415 60.7861 30.2957L60.7861 30.2956L60.7782 30.2969C59.9894 30.4311 59.1985 30.4028 58.4351 30.2352C58.1778 30.1787 57.9413 30.1089 57.688 30.0169L57.3384 29.8897L57.1162 30.1882L52.3613 36.5747L52.0487 36.9947L52.4825 37.2877L95.6564 66.4448L95.6729 66.4707L95.7527 66.5271C96.4011 66.9858 96.8339 67.6998 96.9616 68.5073C97.0886 69.3099 96.8973 70.1085 96.4329 70.7666C96.4322 70.7675 96.4315 70.7685 96.4308 70.7695L92.5912 76.0367L92.5871 76.0425C92.1262 76.6941 91.43 77.1274 90.6105 77.2509L90.6008 77.2524L90.5912 77.2542C90.2381 77.3217 89.8606 77.3073 89.4857 77.225C89.0865 77.1373 88.7028 76.97 88.3499 76.7243L46.5637 45.1832L46.1611 44.8794L45.8608 45.2845L41.5986 51.0343L41.3621 51.3534L41.6194 51.6559C42.3376 52.5003 42.8147 53.5465 42.9847 54.6722L42.9857 54.6784C43.2571 56.3347 42.8546 58.0062 41.864 59.3708C40.8737 60.7348 39.4257 61.6319 37.7501 61.9005C36.9593 62.0179 36.1657 61.9886 35.4223 61.8254C34.5738 61.6391 33.7795 61.2835 33.0695 60.7818C33.0686 60.7812 33.0678 60.7806 33.0669 60.78L19.8834 51.2023Z" fill="white" stroke="#FF6600"/>
</svg>
