<svg width="82" height="80" viewBox="0 0 82 80" fill="none" xmlns="http://www.w3.org/2000/svg">
<path d="M68.5029 39.9708C68.5484 40.6797 69.1684 41.216 69.8787 41.216H79.6667C80.403 41.216 81 41.813 81 42.5493V65.3827C81 66.119 80.403 66.716 79.6667 66.716H69.8787C69.1684 66.716 68.5484 67.2523 68.5029 67.9612C68.453 68.7378 69.0675 69.3827 69.8334 69.3827H79.6667C80.403 69.3827 81 69.9797 81 70.716V75.216C81 77.4252 79.2092 79.216 77 79.216H63.6667C62.9304 79.216 62.3334 78.619 62.3334 77.8827V57.0493C62.3334 56.313 62.9304 55.716 63.6667 55.716H71.788C72.4984 55.716 73.1184 55.1797 73.1639 54.4708C73.2137 53.6942 72.5992 53.0493 71.8334 53.0493H63.6667C62.9304 53.0493 62.3334 52.4523 62.3334 51.716V36.8543C62.3334 36.1617 62.8625 35.5822 63.5529 35.5263C66.9567 35.2508 69.6667 32.3818 69.6667 28.8827V25.8826C69.6667 25.1463 70.2637 24.5493 71 24.5493H77C79.2092 24.5493 81 26.3401 81 28.5493V37.216C81 37.9523 80.403 38.5493 79.6667 38.5493H69.8334C69.0675 38.5493 68.453 39.1943 68.5029 39.9708Z" fill="white" stroke="#FF6600"/>
<path d="M53.25 24.5492C54.4926 24.5492 55.5 23.1314 55.5 21.3825C55.5 19.6336 54.4926 18.2158 53.25 18.2158C52.0074 18.2158 51 19.6336 51 21.3825C51 23.1314 52.0074 24.5492 53.25 24.5492Z" fill="white" stroke="#FF6600"/>
<path d="M63 9.88281H19C16.795 9.88281 15 11.6778 15 13.8828V28.8828C15 31.0878 16.795 32.8828 19 32.8828H63C65.205 32.8828 67 31.0878 67 28.8828V13.8828C67 11.6778 65.205 9.88281 63 9.88281ZM33 27.2161H27C25.9377 27.2161 25.3002 26.0286 25.8907 25.1431L30.5087 18.216H27C26.2637 18.216 25.6667 17.619 25.6667 16.8826C25.6667 16.1463 26.2637 15.5493 27 15.5493H33C34.0623 15.5493 34.6998 16.7368 34.1093 17.6223L29.4913 24.5495H33C33.7363 24.5495 34.3333 25.1465 34.3333 25.8828C34.3333 26.6191 33.7363 27.2161 33 27.2161ZM41.0833 27.2161C38.3723 27.2161 36.1667 24.5993 36.1667 21.3828C36.1667 18.1663 38.3723 15.5495 41.0833 15.5495C43.7943 15.5495 46 18.1663 46 21.3828C46 24.5993 43.7943 27.2161 41.0833 27.2161ZM53.25 27.2161C50.539 27.2161 48.3333 24.5993 48.3333 21.3828C48.3333 18.1663 50.539 15.5495 53.25 15.5495C55.961 15.5495 58.1667 18.1663 58.1667 21.3828C58.1667 24.5993 55.961 27.2161 53.25 27.2161Z" fill="white" stroke="#FF6600"/>
<path d="M41.0834 24.5492C42.326 24.5492 43.3334 23.1314 43.3334 21.3825C43.3334 19.6336 42.326 18.2158 41.0834 18.2158C39.8407 18.2158 38.8334 19.6336 38.8334 21.3825C38.8334 23.1314 39.8407 24.5492 41.0834 24.5492Z" fill="white" stroke="#FF6600"/>
<path d="M8.83617 54.4708C8.88167 55.1797 9.50167 55.716 10.212 55.716H18.3333C19.0697 55.716 19.6667 56.313 19.6667 57.0493V77.8827C19.6667 78.619 19.0697 79.216 18.3333 79.216H5C2.79083 79.216 1 77.4252 1 75.216V70.716C1 69.9797 1.597 69.3827 2.33333 69.3827H10.4547C11.165 69.3827 11.785 68.8463 11.8305 68.1375C11.8803 67.3608 11.2658 66.716 10.5 66.716H2.33333C1.597 66.716 1 66.119 1 65.3827V42.5493C1 41.813 1.597 41.216 2.33333 41.216H10.4547C11.165 41.216 11.785 40.6797 11.8305 39.9708C11.8803 39.1942 11.2658 38.5493 10.5 38.5493H2.33333C1.597 38.5493 1 37.9523 1 37.216V28.5493C1 26.3401 2.79083 24.5493 5 24.5493H11C11.7363 24.5493 12.3333 25.1463 12.3333 25.8826V28.8827C12.3333 32.3812 15.0428 35.2505 18.4472 35.5263C19.1375 35.5823 19.6667 36.1618 19.6667 36.8543V51.716C19.6667 52.4523 19.0697 53.0493 18.3333 53.0493H10.1667C9.40083 53.0493 8.78633 53.6943 8.83617 54.4708Z" fill="white" stroke="#FF6600"/>
<path d="M27.4618 7.21596H19C15.3181 7.21596 12.3333 10.2008 12.3333 13.8826V20.5493C12.3333 21.2856 11.7363 21.8826 11 21.8826C4.6923 21.8826 4.5783 21.8353 3.6973 22.0103C2.63497 22.2213 1.7593 21.174 2.19047 20.1805C2.7308 18.9356 3.6083 17.8341 4.7883 16.9691C2.0273 13.5126 3.57797 8.35679 8.15664 7.49929C8.8483 4.13096 11.5066 1.49096 14.9416 0.900959C18.1383 0.352626 21.3916 1.77096 23.235 4.40596C24.9923 3.88396 26.6745 4.05329 28.0401 4.68079C29.3286 5.27279 28.88 7.21596 27.4618 7.21596Z" fill="white" stroke="#FF6600"/>
<path d="M79.8095 20.1804C80.2406 21.1739 79.3648 22.2213 78.3025 22.0103C77.445 21.8399 77.5698 21.8826 71 21.8826C70.2636 21.8826 69.6666 21.2856 69.6666 20.5493V13.8826C69.6666 10.2008 66.6818 7.21592 63 7.21592H54.5381C53.12 7.21592 52.6713 5.27242 53.9601 4.68059C55.326 4.05326 57.0085 3.88426 58.765 4.40592C60.6083 1.77092 63.8616 0.354255 67.0583 0.900922C70.4933 1.49092 73.1516 4.13092 73.8433 7.49926C78.4215 8.35659 79.973 13.5121 77.2116 16.9693C78.3916 17.8341 79.2691 18.9356 79.8095 20.1804Z" fill="white" stroke="#FF6600"/>
<path d="M59.0039 76.5493H54.5V47.5443C55.9232 48.1977 57.3075 48.9623 58.6389 49.8367C59.08 50.1263 59.6667 49.8045 59.6667 49.2766V47.6838C59.6667 47.454 59.5492 47.2386 59.354 47.1171C57.8004 46.149 56.1787 45.3083 54.5 44.601V43.2613C54.5 42.551 53.9637 41.931 53.2549 41.8855C52.4782 41.8356 51.8334 42.4502 51.8334 43.216V43.6026C48.7867 42.6026 45.5917 42.026 42.3334 41.9026V40.928C42.3334 40.2176 41.797 39.5976 41.0882 39.5521C40.3115 39.5023 39.6667 40.1168 39.6667 40.8826V41.9026C36.4067 42.0276 33.2134 42.6043 30.1667 43.6026V43.2613C30.1667 42.551 29.6304 41.931 28.9215 41.8855C28.1449 41.8356 27.5 42.4502 27.5 43.216V44.601C25.8214 45.3083 24.1997 46.1505 22.646 47.1188C22.451 47.2405 22.3334 47.4556 22.3334 47.6855V49.2766C22.3334 49.8045 22.9199 50.1263 23.3612 49.8367C24.6925 48.9623 26.0769 48.1978 27.5 47.5443V76.5493H22.9962C22.624 76.5493 22.324 76.8546 22.3295 77.2268C22.336 77.6616 22.3489 78.0477 22.292 78.4558C22.2362 78.8572 22.546 79.216 22.9512 79.216H59.0487C59.4539 79.216 59.7637 78.8573 59.708 78.4558C59.6512 78.0475 59.664 77.6611 59.6705 77.2268C59.676 76.8548 59.376 76.5493 59.0039 76.5493ZM30.1667 46.4593C33.2367 45.371 36.4434 44.7593 39.6667 44.6293V76.5493H30.1667V46.4593ZM42.3334 44.6293C45.5567 44.7593 48.7634 45.371 51.8334 46.4593V76.5493H42.3334V44.6293Z" fill="white" stroke="#FF6600"/>
</svg>
