<svg width="102" height="76" viewBox="0 0 102 76" fill="none" xmlns="http://www.w3.org/2000/svg">
<path fill-rule="evenodd" clip-rule="evenodd" d="M86.389 10.4734C87.5062 11.8158 89.177 12.441 90.9838 13.1053C93.4962 14.0283 96.2739 15.1139 97.4942 19.5172C98.0023 21.3475 97.8295 23.2111 96.7514 24.8436C95.6778 26.6738 93.1166 28.0293 90.0414 29.1215C87.667 27.0756 84.5681 27.4049 81.4962 27.3244C77.6381 27.2264 73.6506 26.809 69.879 26.0213C65.0826 25.016 60.4263 23.1994 55.9099 21.3867C53.4778 20.4107 51.3378 19.1135 48.704 18.6334C38.4155 16.9029 23.1312 26.0277 17.4692 33.9656C18.4456 35.4199 18.3201 37.6334 18.3746 39.2508C17.8061 37.874 17.2492 35.8637 16.0392 34.7711L16.0515 34.7574C12.5967 31.7199 6.37855 32.8037 2.14185 30.5441C4.74265 34.5555 11.4711 34.9631 13.1503 38.3709C11.6747 39.826 9.99697 42.0055 11.2797 43.9893C13.033 46.0772 14.9032 45.5008 16.79 48.8336C18.1234 51.0244 18.6625 55.3768 21.7139 56.0332C24.1069 56.5486 27.0802 56.2469 28.2202 53.9226C28.7202 52.9035 28.6894 51.1379 29.6564 50.3717C30.603 49.7615 33.3121 52.2236 34.4466 52.5625C38.2676 54.242 42.9321 50.9264 46.1112 54.8162C47.4877 56.5016 46.8005 58.2887 46.4693 60.2563C45.8327 64.7561 46.2548 69.6963 42.4444 73.0723C41.1898 74.418 41.4732 74.1721 43.0908 74.0619C44.3582 74.0109 45.6278 73.9385 46.887 73.7953C47.0289 73.7797 48.0166 73.7502 48.0867 73.6365C48.7852 71.5592 49.2255 69.3254 49.593 67.1619C49.9099 65.0318 50.9613 63.2074 51.4469 61.1418C51.9572 58.9803 51.8235 56.7836 53.0314 54.7945C54.3414 52.6438 56.3278 53.2104 57.4492 50.6381C59.541 46.4863 57.8499 37.8518 53.7578 36.225C58.34 37.6236 61.0819 47.3354 58.3484 52.0256C61.1396 51.3828 64.0828 51.6223 66.9369 51.4887C70.1542 51.309 73.3653 50.5805 76.5932 50.8439C72.7989 47.0279 72.6848 41.5621 76.0645 36.9129C72.6945 42.4223 74.3771 49.3017 80.5194 51.5045C84.0976 52.4523 86.1386 54.3828 88.7209 56.7818C91.0051 58.6434 93.038 60.0367 94.1448 62.8193C94.7765 64.4027 94.9844 66.1762 95.2785 67.8381C95.8652 70.208 96.059 72.1572 94.659 74.3342C94.5872 74.4479 94.2949 74.6516 94.4348 74.6732C95.7908 74.8967 97.5502 74.5537 98.9143 74.4264C99.1077 74.4088 100.194 74.393 100.258 74.2559C100.964 72.7254 100.853 70.4639 100.853 68.8277C100.367 67.1541 99.758 65.5199 98.9968 63.9404C98.6161 63.1508 97.972 62.3355 97.8239 61.4635C97.542 59.835 98.8733 57.9439 98.3034 56.3861C97.2889 54.5744 93.8386 54.6324 93.2665 51.5203C92.8692 48.8572 94.25 45.8961 94.5751 43.2605C95.1265 38.8043 94.0792 33.9209 91.178 30.3328C103.154 26.8627 101.021 14.4361 91.5772 11.6438C90.0051 11.0656 88.5011 10.6031 87.5792 9.37265C89.8974 6.59726 87.1644 4.67207 86.3734 1.25391C82.151 3.59961 82.6881 8.04804 86.3734 10.4877L86.389 10.4734ZM70.4938 52.1256C72.0946 53.5424 74.0246 54.2596 75.8147 55.5119C79.4813 58.0772 81.0225 61.5418 80.9259 65.7961C81.1174 69.1178 80.9052 70.0154 78.1172 72.1766C77.7901 72.4293 77.0411 72.7742 76.8416 73.1172C76.788 73.2094 77.0618 73.1467 77.1728 73.1604C77.3908 73.1879 77.611 73.1996 77.8313 73.2133C80.6349 73.5027 83.3948 72.899 84.8394 70.3422C85.7881 68.8158 85.3847 66.5543 85.4567 64.8572C85.5678 62.2881 86.0453 59.1742 87.0657 56.6541C82.9798 52.05 76.4568 51.1314 70.4938 52.1256ZM39.0719 53.9539C37.1335 57.3801 36.6721 58.1774 37.2469 62.0629C37.3187 63.0916 37.0636 64.2381 37.2838 65.2434C37.9218 67.2146 39.599 69.6467 41.6871 70.3641C41.9725 69.3133 42.2457 68.2291 42.4877 67.16C42.5164 67.0209 42.6522 66.6838 42.5781 66.5525C42.0782 65.6492 41.2982 65.0848 40.9547 64.0461C39.4503 60.3094 42.1567 57.6978 45.7037 56.0859C44.4164 53.4309 41.4594 53.7102 39.0719 53.9539ZM11.1829 39.0588C11.397 38.7805 11.6294 38.5082 11.8722 38.2435C11.3197 37.5463 10.4418 37.0088 9.60875 36.5641C7.39267 36.4387 5.0429 36.7092 2.80632 36.225C5.20758 37.9867 8.50994 38.0887 11.1829 39.0588Z" fill="white" stroke="#FF6600"/>
</svg>
