<svg width="79" height="90" viewBox="0 0 79 90" fill="none" xmlns="http://www.w3.org/2000/svg">
<path d="M75.975 2.50737H52.6331C52.3293 2.50299 52.0275 2.55571 51.7451 2.66252C51.4627 2.76933 51.2052 2.92813 50.9874 3.12983C50.7695 3.33153 50.5955 3.57217 50.4754 3.83797C50.3553 4.10378 50.2914 4.38954 50.2874 4.67889C50.2834 5.01137 50.265 9.2987 50.3202 9.47504C50.3701 9.69533 50.4692 9.90281 50.6107 10.0834C50.7523 10.264 50.933 10.4134 51.1405 10.5216C53.3057 11.6308 57.7018 14.6614 57.4722 16.8955C57.3245 18.2702 55.2414 19.6294 51.5998 20.7541C51.283 20.8215 50.9928 20.9732 50.7632 21.1916C50.6117 21.3347 50.4916 21.5051 50.4099 21.6928C50.3282 21.8806 50.2866 22.0819 50.2875 22.2851V32.2053C46.0718 26.6438 40.79 21.8945 37.9522 20.8322C36.3697 20.1803 32.7064 19.1508 32.1782 18.3484C32.1618 18.3484 32.129 17.989 32.8837 16.9736C32.9816 16.8309 33.0641 16.6791 33.1296 16.5205L39.6252 3.49158C39.7611 3.2068 39.8049 2.88999 39.7511 2.58143C39.6974 2.27288 39.5485 1.98651 39.3234 1.75876C39.0983 1.53101 38.8072 1.37216 38.487 1.30241C38.1669 1.23265 37.8322 1.25515 37.5255 1.36704L21.2535 7.61587C19.4983 7.39712 14.971 7.77212 9.75472 15.6769C7.88689 17.1762 5.56516 18.0684 3.12781 18.2233C0.50041 18.2537 -0.159581 20.5374 1.94655 21.9882C4.21567 23.9425 13.6523 25.3999 18.629 23.9095C22.6363 25.207 26.2077 30.326 25.4852 40.4382C25.3543 52.2954 25.223 64.5744 32.2273 72.9792C38.7722 80.8216 36.7053 86.3831 36.6233 86.6018C36.5257 86.839 36.4903 87.0952 36.52 87.3484C36.5497 87.6015 36.6438 87.844 36.794 88.0547C36.9442 88.2655 37.1461 88.4382 37.3822 88.558C37.6183 88.6777 37.8814 88.7409 38.1489 88.742C38.4836 88.7426 38.8102 88.6443 39.0839 88.4609C44.0013 84.8757 47.8609 80.1397 50.2874 74.7132V84.6335C50.2914 84.9228 50.3553 85.2086 50.4754 85.4744C50.5955 85.7402 50.7695 85.9808 50.9873 86.1825C51.2052 86.3842 51.4627 86.543 51.7451 86.6498C52.0275 86.7566 52.3292 86.8093 52.633 86.805H75.975C76.5861 86.8106 77.1745 86.5851 77.6112 86.178C78.048 85.7709 78.2972 85.2154 78.3043 84.6335V4.67889C78.2972 4.09692 78.048 3.54142 77.6112 3.13431C77.1745 2.72719 76.5861 2.50172 75.975 2.50737ZM58.9156 44.0625C58.9221 43.6522 59.0978 43.2609 59.4048 42.973C59.7117 42.6851 60.1252 42.5238 60.556 42.5238C60.9867 42.5238 61.4002 42.6852 61.7071 42.9731C62.0141 43.261 62.1897 43.6523 62.1963 44.0625V74.2135C62.1899 74.6238 62.0142 75.0152 61.7073 75.3032C61.4004 75.5912 60.9868 75.7526 60.5559 75.7526C60.125 75.7526 59.7114 75.5912 59.4045 75.3031C59.0976 75.0151 58.922 74.6237 58.9156 74.2134L58.9156 44.0625ZM70.6604 61.3876C70.6539 61.7978 70.4782 62.1891 70.1712 62.477C69.8643 62.7649 69.4508 62.9262 69.02 62.9262C68.5892 62.9262 68.1757 62.7648 67.8688 62.4769C67.5619 62.189 67.3863 61.7977 67.3797 61.3875V31.2367C67.3864 30.8265 67.5622 30.4354 67.8691 30.1476C68.176 29.8598 68.5894 29.6985 69.0201 29.6985C69.4508 29.6985 69.8642 29.8598 70.1711 30.1476C70.478 30.4354 70.6537 30.8266 70.6604 31.2367L70.6604 61.3876ZM42.7747 38.2823C42.7685 37.872 42.932 37.4758 43.2298 37.1793C43.5276 36.8828 43.936 36.7097 44.3666 36.6974C44.7973 36.6851 45.2158 36.8346 45.5317 37.1136C45.8477 37.3926 46.0358 37.7788 46.0554 38.1887L46.4655 51.7174C46.4739 52.1269 46.3122 52.523 46.0158 52.8196C45.7193 53.1163 45.3119 53.2897 44.8821 53.302C44.4522 53.3144 44.0346 53.1647 43.7199 52.8856C43.4052 52.6065 43.2189 52.2204 43.2013 51.8111L42.7747 38.2823ZM37.378 65.0744C36.9454 65.0837 36.5266 64.9295 36.2131 64.6455C35.8996 64.3616 35.7168 63.971 35.7048 63.5591L35.2783 45.031C35.274 44.8259 35.3121 44.6219 35.3906 44.4308C35.469 44.2397 35.5862 44.0652 35.7355 43.9172C36.037 43.6184 36.4507 43.4458 36.8858 43.4376C37.3208 43.4293 37.7415 43.5859 38.0553 43.873C38.3691 44.1601 38.5502 44.5542 38.5589 44.9685L38.9855 63.4808C38.9929 63.8948 38.828 64.2948 38.5268 64.5934C38.2256 64.8919 37.8126 65.0649 37.378 65.0744ZM18.6781 13.0055C19.2679 13.0114 19.8314 13.2386 20.2463 13.6379C20.6611 14.0372 20.8938 14.5763 20.8938 15.138C20.8938 15.6997 20.6611 16.2387 20.2462 16.638C19.8313 17.0373 19.2678 17.2645 18.678 17.2704C18.0883 17.2645 17.5248 17.0372 17.1099 16.6379C16.695 16.2386 16.4623 15.6996 16.4624 15.1379C16.4624 14.5762 16.6951 14.0371 17.11 13.6379C17.5248 13.2386 18.0884 13.0113 18.6781 13.0055ZM34.8682 5.77245L30.9151 13.7241L24.8294 9.61548L34.8682 5.77245Z" fill="white" stroke="#FF6600"/>
</svg>
