<svg width="100" height="100" viewBox="0 0 100 100" fill="none" xmlns="http://www.w3.org/2000/svg">
<path d="M95 0H85C82.2386 0 80 2.23858 80 5V8.33333H20V5C20 2.23858 17.7614 0 15 0H5C2.23858 0 0 2.23858 0 5V15C0 17.7614 2.23858 20 5 20H8.33333V80H5C2.23858 80 0 82.2386 0 85V95C0 97.7614 2.23858 100 5 100H15C17.7614 100 20 97.7614 20 95V91.6667H80V95C80 97.7614 82.2386 100 85 100H95C97.7614 100 100 97.7614 100 95V85C100 82.2386 97.7614 80 95 80H91.6667V20H95C97.7614 20 100 17.7614 100 15V5C100 2.23858 97.7614 0 95 0ZM3.33333 15V5C3.33333 4.07953 4.07953 3.33333 5 3.33333H15C15.9205 3.33333 16.6667 4.07953 16.6667 5V15C16.6667 15.9205 15.9205 16.6667 15 16.6667H5C4.07953 16.6667 3.33333 15.9205 3.33333 15ZM16.6667 95C16.6667 95.9205 15.9205 96.6667 15 96.6667H5C4.07953 96.6667 3.33333 95.9205 3.33333 95V85C3.33333 84.0795 4.07953 83.3333 5 83.3333H15C15.9205 83.3333 16.6667 84.0795 16.6667 85V95ZM96.6667 85V95C96.6667 95.9205 95.9205 96.6667 95 96.6667H85C84.0795 96.6667 83.3333 95.9205 83.3333 95V85C83.3333 84.0795 84.0795 83.3333 85 83.3333H95C95.9205 83.3333 96.6667 84.0795 96.6667 85ZM85 80C82.2386 80 80 82.2386 80 85V88.3333H41.6667V46.6667H43.3333C45.1743 46.6667 46.6667 45.1743 46.6667 43.3333V41.6667H88.3333V80H85ZM36.6667 43.3333V36.6667H43.3333V43.3333H36.6667ZM88.3333 25H86.6667C85.7462 25 85 25.7462 85 26.6667C85 27.5871 85.7462 28.3333 86.6667 28.3333H88.3333V38.3333H46.6667V36.6667C46.6667 34.8257 45.1743 33.3333 43.3333 33.3333H36.6667C34.8257 33.3333 33.3333 34.8257 33.3333 36.6667V43.3333C33.3333 45.1743 34.8257 46.6667 36.6667 46.6667H38.3333V88.3333H28.3333V86.6667C28.3333 85.7462 27.5871 85 26.6667 85C25.7462 85 25 85.7462 25 86.6667V88.3333H20V85C20 82.2386 17.7614 80 15 80H11.6667V20H15C17.7614 20 20 17.7614 20 15V11.6667H80V15C80 17.7614 82.2386 20 85 20H88.3333V25ZM96.6667 15C96.6667 15.9205 95.9205 16.6667 95 16.6667H85C84.0795 16.6667 83.3333 15.9205 83.3333 15V5C83.3333 4.07953 84.0795 3.33333 85 3.33333H95C95.9205 3.33333 96.6667 4.07953 96.6667 5V15Z" fill="#FF6600"/>
<path d="M76.6667 63.3333C75.7462 63.3333 75 64.0795 75 65V72.6433L55.69 53.3333H63.3333C64.2538 53.3333 65 52.5871 65 51.6667C65 50.7462 64.2538 50 63.3333 50H51.6667C50.7462 50 50 50.7462 50 51.6667V63.3333C50 64.2538 50.7462 65 51.6667 65C52.5871 65 53.3333 64.2538 53.3333 63.3333V55.69L72.6433 75H65C64.0795 75 63.3333 75.7462 63.3333 76.6667C63.3333 77.5871 64.0795 78.3333 65 78.3333H76.6667C77.5871 78.3333 78.3333 77.5871 78.3333 76.6667V65C78.3333 64.0795 77.5871 63.3333 76.6667 63.3333Z" fill="#FF6600"/>
<path d="M26.6667 75C25.7462 75 25 75.7462 25 76.6667V80C25 80.9205 25.7462 81.6667 26.6667 81.6667C27.5871 81.6667 28.3333 80.9205 28.3333 80V76.6667C28.3333 75.7462 27.5871 75 26.6667 75Z" fill="#FF6600"/>
<path d="M26.6667 65C25.7462 65 25 65.7462 25 66.6667V70C25 70.9205 25.7462 71.6667 26.6667 71.6667C27.5871 71.6667 28.3333 70.9205 28.3333 70V66.6667C28.3333 65.7462 27.5871 65 26.6667 65Z" fill="#FF6600"/>
<path d="M26.6667 55C25.7462 55 25 55.7462 25 56.6667V60C25 60.9205 25.7462 61.6667 26.6667 61.6667C27.5871 61.6667 28.3333 60.9205 28.3333 60V56.6667C28.3333 55.7462 27.5871 55 26.6667 55Z" fill="#FF6600"/>
<path d="M26.6667 45C25.7462 45 25 45.7462 25 46.6667V50C25 50.9205 25.7462 51.6667 26.6667 51.6667C27.5871 51.6667 28.3333 50.9205 28.3333 50V46.6667C28.3333 45.7462 27.5871 45 26.6667 45Z" fill="#FF6600"/>
<path d="M26.6667 35C25.7462 35 25 35.7462 25 36.6667V40C25 40.9205 25.7462 41.6667 26.6667 41.6667C27.5871 41.6667 28.3333 40.9205 28.3333 40V36.6667C28.3333 35.7462 27.5871 35 26.6667 35Z" fill="#FF6600"/>
<path d="M40 25H36.6667C35.7462 25 35 25.7462 35 26.6667C35 27.5871 35.7462 28.3333 36.6667 28.3333H40C40.9205 28.3333 41.6667 27.5871 41.6667 26.6667C41.6667 25.7462 40.9205 25 40 25Z" fill="#FF6600"/>
<path d="M50 25H46.6667C45.7462 25 45 25.7462 45 26.6667C45 27.5871 45.7462 28.3333 46.6667 28.3333H50C50.9205 28.3333 51.6667 27.5871 51.6667 26.6667C51.6667 25.7462 50.9205 25 50 25Z" fill="#FF6600"/>
<path d="M60 25H56.6667C55.7462 25 55 25.7462 55 26.6667C55 27.5871 55.7462 28.3333 56.6667 28.3333H60C60.9205 28.3333 61.6667 27.5871 61.6667 26.6667C61.6667 25.7462 60.9205 25 60 25Z" fill="#FF6600"/>
<path d="M70 25H66.6667C65.7462 25 65 25.7462 65 26.6667C65 27.5871 65.7462 28.3333 66.6667 28.3333H70C70.9205 28.3333 71.6667 27.5871 71.6667 26.6667C71.6667 25.7462 70.9205 25 70 25Z" fill="#FF6600"/>
<path d="M80 25H76.6667C75.7462 25 75 25.7462 75 26.6667C75 27.5871 75.7462 28.3333 76.6667 28.3333H80C80.9205 28.3333 81.6667 27.5871 81.6667 26.6667C81.6667 25.7462 80.9205 25 80 25Z" fill="#FF6600"/>
<path d="M30 25H26.6667C25.7462 25 25 25.7462 25 26.6667V30C25 30.9205 25.7462 31.6667 26.6667 31.6667C27.5871 31.6667 28.3333 30.9205 28.3333 30V28.3333H30C30.9205 28.3333 31.6667 27.5871 31.6667 26.6667C31.6667 25.7462 30.9205 25 30 25Z" fill="#FF6600"/>
</svg>
