<svg width="74" height="74" viewBox="0 0 74 74" fill="none" xmlns="http://www.w3.org/2000/svg">
<path d="M67.475 68.1998H67.975V67.6998V47.4123V45.8334L67.0662 47.1245C63.7972 51.7684 58.6225 54.4873 52.9625 54.4873C47.0717 54.4873 41.7275 51.5636 38.4683 46.5883L37.55 45.1866V46.8623V67.6998V68.1998H38.05H39.9625C40.3831 68.1998 40.7125 68.5352 40.7125 68.9498V71.9761C40.7125 72.3907 40.3831 72.7261 39.9625 72.7261H33.6375C33.2262 72.7261 32.8875 72.3874 32.8875 71.9761V68.9498C32.8875 68.5384 33.2262 68.1998 33.6375 68.1998H35.55H36.05V67.6998V47.4498V45.8876L35.1429 47.1595C31.8472 51.7808 26.6974 54.4861 21.0375 54.4861C15.3776 54.4861 10.2041 51.7684 6.93387 47.1232L6.02502 45.8323V47.4111V67.6998V68.1998H6.52502H8.43752C8.85812 68.1998 9.18752 68.5352 9.18752 68.9498V71.9761C9.18752 72.3907 8.85812 72.7261 8.43752 72.7261H2.11252C1.70117 72.7261 1.36252 72.3874 1.36252 71.9761V68.9498C1.36252 68.5384 1.70117 68.1998 2.11252 68.1998H4.02502H4.52502V67.6998V45.0373V44.6522L4.1527 44.5539C2.24187 44.0492 0.837524 42.3049 0.837524 40.2498C0.837524 37.7993 2.82781 35.7998 5.27502 35.7998C7.73556 35.7998 9.72502 37.8001 9.72502 40.2498C9.72502 41.9343 8.78173 43.4083 7.39862 44.1606L6.81087 44.4803L7.28397 44.9534C7.30445 44.9738 7.32672 45.004 7.3765 45.0784C10.3027 50.032 15.4105 52.9873 21.0375 52.9873C26.6768 52.9873 31.7847 50.0322 34.711 45.0784C34.7608 45.004 34.7831 44.9738 34.8036 44.9534L35.2764 44.4806L34.6892 44.1607C33.3057 43.4071 32.3625 41.9341 32.3625 40.2498C32.3625 37.7993 34.3528 35.7998 36.8 35.7998C39.2606 35.7998 41.25 37.8001 41.25 40.2498C41.25 41.8441 40.4087 43.2485 39.1259 44.0362L38.4765 44.4349L39.1008 44.8719C39.1726 44.9222 39.2328 44.9834 39.2822 45.0669C42.2086 50.0276 47.3188 52.9873 52.9625 52.9873C58.5896 52.9873 63.6973 50.032 66.6248 45.0785C66.6746 45.004 66.6968 44.9738 66.7173 44.9534L67.1901 44.4806L66.603 44.1607C65.2194 43.4071 64.2763 41.9341 64.2763 40.2498C64.2763 37.8002 66.2669 35.7998 68.7263 35.7998C71.1735 35.7998 73.1638 37.7993 73.1638 40.2498C73.1638 42.3049 71.7594 44.0492 69.8486 44.5539L69.4763 44.6522V45.0373V67.6998V68.1998H69.9763H71.8888C72.2986 68.1998 72.6375 68.5381 72.6375 68.9498V71.9761C72.6375 72.3874 72.2989 72.7261 71.8875 72.7261H65.5625C65.1419 72.7261 64.8125 72.3907 64.8125 71.9761V68.9498C64.8125 68.5352 65.1419 68.1998 65.5625 68.1998H67.475Z" fill="white" stroke="#FF6600"/>
<path d="M54.2779 3.64113L55.2099 2.7749H53.9375H20.0625H18.7902L19.7221 3.64113L21.6721 5.45363L21.816 5.5874H22.0125H51.9875H52.184L52.3279 5.45363L54.2779 3.64113ZM20.9283 29.1283L21.0875 28.98V28.7624V7.1749V6.95732L20.9283 6.80903L18.7408 4.77153L17.9 3.98839V5.1374V30.7999V31.9489L18.7408 31.1658L20.9283 29.1283ZM20.6217 31.4716L19.6925 32.3374H20.9625H53.0375H54.3075L53.3784 31.4716L51.7284 29.9341L51.7059 29.9131L51.6939 29.9044C51.6918 29.9019 51.689 29.8984 51.6853 29.8937C51.679 29.8856 51.6724 29.8768 51.6625 29.8637L51.5125 29.6637H51.2625H22.7375H22.4875L22.3375 29.8637C22.3277 29.8768 22.3211 29.8856 22.3148 29.8937C22.3111 29.8984 22.3083 29.9019 22.3062 29.9044L22.2942 29.9131L22.2717 29.9341L20.6217 31.4716ZM55.2592 31.1658L56.1 31.9489V30.7999V5.1374V3.98839L55.2592 4.77153L53.0717 6.80903L52.9125 6.95732V7.1749V28.7624V28.98L53.0717 29.1283L55.2592 31.1658ZM17.15 1.2749H56.85C57.2614 1.2749 57.6 1.61354 57.6 2.0249V33.0874C57.6 33.4988 57.2614 33.8374 56.85 33.8374H17.15C16.7387 33.8374 16.4 33.4988 16.4 33.0874V2.0249C16.4 1.61355 16.7387 1.2749 17.15 1.2749Z" fill="white" stroke="#FF6600"/>
</svg>
