<svg width="107" height="92" viewBox="0 0 107 92" fill="none" xmlns="http://www.w3.org/2000/svg">
<path d="M90.3153 30.6222C92.4844 31.285 93.9097 31.1612 96.9188 31.1612C105.016 31.1612 109.017 21.8093 103.34 16.3956L101.078 14.2414V11.3214C101.078 5.9283 96.4967 1.47383 90.7377 1.47383C87.1058 1.47383 82.4194 1.06289 77.5205 4.79608C73.7727 7.65193 71.5466 11.7941 71.5466 17.0831C71.5466 19.9874 70.0557 22.7159 67.5558 24.3819L48.3503 37.1846C39.849 42.8541 33.3649 52.09 32.3278 62.0835C24.7326 60.4677 19.5808 52.9891 21.8371 45.3139C24.7295 35.4755 27.2499 28.4671 27.2499 17.0988C27.2499 10.2062 21.3621 4.59882 14.1249 4.59882C6.88777 4.59882 1 10.2062 1 17.0988V21.7862C1 23.512 2.46917 24.9112 4.28124 24.9112C6.0933 24.9112 7.56247 23.512 7.56247 21.7862V17.0988C7.56247 13.6525 10.5064 10.8488 14.1249 10.8488C17.7435 10.8488 20.6874 13.6525 20.6874 17.0988C20.6874 27.5419 18.3867 33.8702 15.5178 43.6287C12.0809 55.3187 20.4015 66.9154 32.6387 68.4808C34.3536 74.3259 39.7811 78.036 45.7315 78.036C49.9448 78.036 52.3362 76.4091 54.964 74.9052L53.8976 77.954C51.6762 84.3063 56.5548 89.9559 59.4696 90.4852C59.9454 90.5608 58.5597 90.536 76.4685 90.536C78.2813 90.536 79.7497 89.1375 79.7497 87.411C79.7497 85.6844 78.2813 84.286 76.4685 84.286H65.3717C72.8901 69.9653 70.0702 75.905 75.8594 62.1201C76.5833 60.3974 76.8232 58.5732 76.6079 56.8056C82.187 47.9471 80.5497 50.7711 82.59 46.5635C82.7377 47.1611 82.9079 47.7568 83.0966 48.3486C88.5731 65.4859 91.234 71.6409 91.234 82.7235C91.234 83.5848 90.4978 84.286 89.5934 84.286H87.9528C87.9528 82.5594 86.4844 81.161 84.6715 81.161C82.8587 81.161 81.3903 82.5594 81.3903 84.286C81.3903 87.7332 84.3332 90.536 87.9528 90.536H89.5934C94.1174 90.536 97.7965 87.0321 97.7965 82.7235C97.7965 70.6167 94.8719 63.7322 89.374 46.5283C87.6066 41.0006 88.157 35.0674 90.3153 30.6222Z" fill="white" stroke="#FF6600"/>
</svg>
