<svg width="107" height="102" viewBox="0 0 107 102" fill="none" xmlns="http://www.w3.org/2000/svg">
<path d="M66.3766 36.5557C69.6007 34.6426 72.8448 32.946 76.0688 30.9245C77.3705 23.7051 78.532 16.7383 79.6333 9.62713C74.0148 6.06361 68.2499 3.29971 62.3916 1.36084C61.2702 8.5803 60.2089 15.7998 59.3077 23.0192C61.6707 27.7119 64.0737 32.1157 66.3766 36.5557Z" fill="white" stroke="#FF6600"/>
<path d="M63.9738 39.877L56.7847 26.5571L47.1125 31.322C45.9511 38.373 44.823 45.4481 43.7283 52.5472C49.1581 56.2137 54.701 59.3112 60.3292 61.8242L63.9738 39.877Z" fill="white" stroke="#FF6600"/>
<path d="M83.5182 52.2942C81.3154 46.8796 79.1127 41.465 76.8498 36.1948C73.5256 37.9275 70.2014 39.8046 66.9574 42.0065C65.896 48.9733 64.8347 55.9761 63.6732 62.9068C69.3367 65.2606 75.0957 66.7936 80.8949 67.4912C81.6959 62.4376 82.537 57.3478 83.5182 52.2942Z" fill="white" stroke="#FF6600"/>
<path d="M29.9308 25.7267L28.8695 26.7374C25.8257 30.1306 23.5428 32.6574 22.8619 36.7364C27.4477 41.0681 36.0385 47.3851 40.7445 50.9948C41.8659 44.2446 42.9472 37.4583 44.0086 30.7081L37.4603 21.9004C34.5166 23.4887 32.7544 24.0662 29.9308 25.7267Z" fill="white" stroke="#FF6600"/>
<path d="M85.8413 49.0456C88.5046 47.9627 91.168 46.952 93.8514 45.9051C94.5122 41.8261 95.2131 37.7471 95.8539 33.6681C91.8774 25.2393 87.2193 17.9379 82.0365 12.0098C80.895 18.7961 79.7536 25.6545 78.6722 32.4769C81.0552 37.9637 83.5183 43.4866 85.8413 49.0456Z" fill="white" stroke="#FF6600"/>
<path d="M102.803 56.265C101.506 49.9746 99.8693 43.9293 97.9164 38.2163C97.3557 41.0319 96.795 43.8836 96.2142 46.7353C98.0566 50.6699 99.8388 55.1459 102.803 56.265Z" fill="white" stroke="#FF6600"/>
<path d="M86.2418 53.666C85.4007 58.5391 84.6398 63.4483 83.8387 68.3576C88.5402 68.881 93.2551 68.881 97.9565 68.3576C98.3372 68.3434 98.712 68.1843 99.0563 67.8909C99.4005 67.5975 99.7065 67.1763 99.9542 66.6549C100.202 66.1335 100.386 65.5236 100.493 64.8653C100.601 64.2069 100.631 63.5149 100.58 62.8347C98.7798 58.3013 96.7701 54.0507 94.5723 50.1284L86.2418 53.666Z" fill="white" stroke="#FF6600"/>
<path d="M18.2761 35.5452C22.2812 27.6399 25.9258 19.157 30.9521 13.4536C23.1423 9.84389 16.1535 -0.768713 7.66277 1.39713C6.61897 1.60608 5.61123 2.20841 4.70496 3.16501C3.7987 4.12161 3.01417 5.41109 2.40232 6.94972C1.79047 8.48836 1.36497 10.2418 1.15346 12.0961C0.941953 13.9504 0.949153 15.8641 1.1746 17.7131C3.93808 18.5433 6.70156 19.1931 9.46504 19.8068L3.93808 21.756C8.25609 27.7652 13.1027 32.4262 18.2761 35.5452ZM9.24476 7.0283C14.7116 7.60586 6.64148 15.4751 9.24476 7.0283Z" fill="white" stroke="#FF6600"/>
<path d="M56.9048 20.7091C57.7859 14.1394 58.647 7.56971 59.4881 1C53.2501 1.7048 47.1002 4.01435 41.2251 7.85849C40.6844 11.4682 40.1637 15.0779 39.623 18.6877C41.8058 21.2867 44.0086 23.9218 46.1713 26.5569C49.7558 24.6437 53.3203 22.6945 56.9048 20.7091Z" fill="white" stroke="#FF6600"/>
<path d="M29.7105 46.3383C27.0472 43.6671 24.4239 40.9598 21.7005 38.3247C20.0103 41.1547 18.795 44.7836 18.1932 48.7979C17.5913 52.8121 17.627 57.0504 18.2962 61.0299C21.4401 77.2376 29.4502 88.2834 37.4603 96.7301C39.0093 98.3879 40.7507 99.3747 42.5472 99.6128C44.3438 99.8508 46.1465 99.3336 47.8133 98.1018C42.5067 84.4932 36.7794 71.462 31.673 57.6007C30.2756 54.4066 29.5773 50.399 29.7105 46.3383Z" fill="white" stroke="#FF6600"/>
<path d="M102.362 72.292C97.1155 72.7613 91.8689 73.05 86.6223 73.2305C89.4459 82.3631 89.6862 96.6938 96.0942 100.412C100.099 103.011 103.243 96.405 105.927 92.1094C106.128 88.5411 105.915 84.9364 105.301 81.5246C104.687 78.1128 103.687 74.9686 102.362 72.292Z" fill="white" stroke="#FF6600"/>
<path d="M37.7207 13.0562C36.3131 12.9542 34.9187 13.5796 33.7018 14.8586C32.4848 16.1377 31.4961 18.0172 30.8521 20.2756C33.2551 20.6005 38.4216 18.8317 37.7207 13.0562Z" fill="white" stroke="#FF6600"/>
<path d="M58.3666 77.6706C78.8524 84.2764 85.0802 73.2667 85.0802 73.2667C85.0802 73.2667 48.6944 70.9565 31.673 49.0454C31.673 49.0454 37.9008 71.0648 58.3666 77.6706Z" fill="white" stroke="#FF6600"/>
</svg>
