<svg width="95" height="74" viewBox="0 0 95 74" fill="none" xmlns="http://www.w3.org/2000/svg">
<path fill-rule="evenodd" clip-rule="evenodd" d="M46.0044 66.92C46.1183 65.6001 45.8473 64.4113 45.3525 63.2957C44.6824 61.7847 44.424 60.1921 44.4157 58.5509C44.4114 57.718 44.3873 56.8852 44.363 56.0524C44.3148 54.3929 44.2665 52.7332 44.3766 51.0726L44.38 51.0211C44.3966 50.7827 44.4142 50.531 44.279 50.2906C43.9431 50.2626 43.8254 50.5041 43.7172 50.7263C43.6962 50.7694 43.6755 50.8117 43.6536 50.8512C42.5973 52.7649 41.9905 54.8339 41.9058 57.0498C41.8793 57.7419 41.6566 58.0216 41.0116 58.0887C38.7864 58.3203 36.5694 58.4864 34.3272 58.2694C29.7299 57.8246 25.7584 55.9334 22.3812 52.6151C20.1563 50.4291 18.1223 48.0522 16.2227 45.5446C16.1515 45.4507 16.0724 45.3634 15.9702 45.2505C15.9144 45.1891 15.8518 45.12 15.7798 45.0381C15.7977 45.6955 15.9856 46.2015 16.1665 46.6886C16.1848 46.7378 16.203 46.7867 16.2209 46.8357C16.8469 48.5428 17.6047 50.2025 18.7583 51.5636C19.9287 52.9444 19.5552 54.1714 18.7734 55.4693C18.4988 55.9252 18.1962 56.362 17.8936 56.7988C17.768 56.9801 17.6422 57.1617 17.5186 57.3442C15.9166 59.7118 15.7726 62.4275 15.9216 65.1871C15.9644 65.9805 16.4235 66.6599 16.9043 67.2838C17.1144 67.5564 17.337 67.8183 17.5596 68.0802C18.0919 68.7068 18.6245 69.3334 18.9867 70.1068C19.6208 71.4602 19.2647 72.4059 17.883 72.7673C15.5846 73.3684 13.2436 73.4564 10.8923 73.2807L10.7417 73.2695C9.73612 73.195 8.72896 73.1204 7.7533 72.7982C6.44615 72.3666 6.07256 71.6729 6.39943 70.2433C6.45161 70.015 6.50663 69.787 6.56165 69.559C6.71947 68.9047 6.87739 68.25 6.96968 67.5853C7.15574 66.2451 6.91351 64.9646 6.29138 63.7669C6.12013 63.437 5.97365 63.0925 5.82718 62.7481C5.75977 62.5894 5.69225 62.4308 5.62232 62.2735C4.98927 60.8493 4.84376 59.3939 5.32514 57.8786C6.26576 54.9177 6.25589 51.9644 5.29326 48.9994C4.95487 47.9572 4.78021 46.8671 4.6056 45.7773C4.57954 45.6146 4.55347 45.452 4.52686 45.2895C4.02749 42.2396 4.41222 39.2823 5.20631 36.3478C5.75032 34.3372 6.4576 32.3975 7.31587 30.5168C7.33277 30.4798 7.35272 30.4432 7.37309 30.4059C7.46465 30.2381 7.56472 30.0546 7.43483 29.7424C6.50905 30.389 5.76838 31.1995 5.12102 32.0989C3.56581 34.2598 3.04206 36.7832 2.8708 39.435C2.80792 40.4085 2.70586 41.3792 2.6038 42.3498C2.5608 42.7588 2.5178 43.1677 2.47773 43.5768C2.47545 43.6002 2.47349 43.6237 2.47152 43.6473C2.45567 43.8374 2.4395 44.0313 2.25064 44.1599C2.01898 44.124 1.94497 43.9349 1.8734 43.7519C1.85228 43.6979 1.83136 43.6444 1.80665 43.5956C1.24085 42.4772 1.0061 41.2556 0.903213 40.0086C0.440741 34.4036 2.74568 30.2494 6.93997 27.0989C7.74857 26.4915 8.60548 25.9684 9.46249 25.4452C9.91661 25.1679 10.3708 24.8907 10.8178 24.6009C11.8857 23.9085 12.8729 23.0973 13.8603 22.2859C14.6224 21.6596 15.3847 21.0332 16.1844 20.4613C20.0492 17.6969 24.261 16.1247 28.9628 16.2764C30.8856 16.3384 32.7688 16.7266 34.6513 17.1145C35.0031 17.1871 35.355 17.2596 35.707 17.33C38.7027 17.9288 41.6956 18.0963 44.6893 17.2713C46.662 16.7277 48.1754 15.4052 49.6789 14.0576C49.7991 13.9498 49.919 13.8418 50.039 13.7339C51.211 12.6791 52.3823 11.6249 53.7287 10.8166C53.774 10.7894 53.819 10.7616 53.8639 10.7338L53.8653 10.733C53.9566 10.6767 54.0477 10.6204 54.1412 10.5689C55.4995 9.8215 55.5451 9.8364 56.493 11.1115C57.212 12.0784 58.0419 12.9306 59.0237 13.5841C59.5334 13.9233 59.8438 14.3477 60.0543 14.9389C60.105 15.0815 60.1523 15.2268 60.1995 15.3723C60.3841 15.9406 60.5695 16.5112 60.9703 16.9305C61.2709 16.9167 61.3454 16.7239 61.3992 16.5473C61.6699 15.658 61.9304 14.771 61.9009 13.8116C61.877 13.0325 61.5871 12.5075 60.9068 12.1765C59.6893 11.584 58.7343 10.6475 57.9474 9.5035C57.0884 8.2548 56.9353 6.8249 57.165 5.3825C57.2394 4.9152 57.3437 4.4534 57.4481 3.9914C57.6896 2.9228 57.9312 1.8532 57.803 0.713597C57.8664 0.706997 57.9198 0.696897 57.9653 0.688397C58.0447 0.673497 58.1003 0.662997 58.1441 0.682597C60.0325 1.5265 61.7908 2.5776 63.1638 4.2449C64.2324 5.5425 64.5676 7.1064 64.655 8.7675C64.67 9.0522 64.691 9.3427 64.758 9.6171C65.0537 10.8295 65.3124 11.0315 66.4958 11.0824C66.8175 11.0963 67.1386 11.1292 67.4666 11.1628C67.618 11.1783 67.771 11.194 67.9262 11.208C68.0624 10.8251 67.9603 10.4692 67.8632 10.1304C67.8383 10.0436 67.8137 9.9579 67.7935 9.8731C67.2328 7.5164 67.8167 5.5195 69.3858 3.8041C70.3673 2.731 71.4841 1.8405 72.6853 1.0679C72.709 1.0526 72.7328 1.0368 72.7567 1.0209C72.9202 0.911997 73.092 0.797696 73.3059 0.825596C73.3131 0.832496 73.3216 0.839397 73.3304 0.846197C73.3348 0.849597 73.3394 0.852996 73.344 0.856396C73.3722 0.877596 73.3995 0.898096 73.3993 0.918196C73.3827 2.1564 73.6578 3.3376 73.9335 4.5218C73.998 4.7985 74.0625 5.0756 74.1233 5.3534C74.6811 7.9022 73.6488 9.8241 71.8616 11.4048C71.7424 11.5103 71.6165 11.6073 71.4906 11.7044C71.4153 11.7624 71.34 11.8204 71.2661 11.8803C70.7228 12.3204 70.5855 12.8924 70.8654 13.5377C71.9201 15.9686 73.1499 18.2785 75.0402 20.111C76.8852 21.8995 78.5816 21.8247 80.2829 19.9066C80.8119 19.3101 81.2627 18.6549 81.7133 17.9937C82.1714 17.3213 82.5388 17.3457 82.9254 18.0811C83.7978 19.7409 83.9099 21.5397 83.7139 23.3825C83.688 23.6246 83.6487 23.8652 83.6094 24.1058C83.5716 24.3368 83.5339 24.5678 83.5081 24.8003C83.3902 25.8641 83.8011 26.2395 84.7696 25.9536C85.5853 25.7129 86.3148 25.2857 86.9731 24.7259C88.835 23.1423 90.1373 21.1234 90.9946 18.7775C91.2538 18.0683 91.4806 17.3457 91.7075 16.623C91.8159 16.2776 91.9246 15.9316 92.0366 15.5876C92.1342 15.2876 92.2347 14.9787 92.6099 14.9816C92.9594 14.9842 93.1213 15.2554 93.2481 15.5432C93.763 16.7121 93.9142 17.9797 94.0379 19.2363C94.5029 23.9595 93.7126 28.4442 91.6295 32.6533C91.2844 33.3508 90.8983 34.0482 90.4172 34.6414C89.7898 35.415 89.7218 36.2375 89.8941 37.17C90.2486 39.0889 89.7011 40.6701 88.2482 41.8769C86.3127 43.4846 84.0824 44.3507 81.6749 44.7042C77.9892 45.2454 74.3544 44.9436 70.9109 43.4192C65.1228 40.857 61.106 36.516 59.5137 29.9269C59.0166 27.8702 58.9684 25.7559 59.0195 23.6403C59.0209 23.581 59.0263 23.5202 59.0316 23.4587C59.0529 23.2151 59.075 22.9623 58.8588 22.7629C58.5978 22.7694 58.5174 22.9598 58.4384 23.1471C58.4177 23.1959 58.3972 23.2446 58.3736 23.2897C56.691 26.5023 56.7838 29.7968 58.012 33.1236C59.8357 38.0635 63.0166 41.7184 67.3978 44.2248C67.4484 44.2537 67.5017 44.2794 67.5556 44.3054C67.7468 44.3976 67.9465 44.4938 68.0621 44.7524C67.7359 45.3397 67.271 45.8232 66.8047 46.2984C64.7533 48.3888 62.5176 50.2542 59.879 51.3837C57.2543 52.5072 56.0498 54.719 55.3584 57.3521C54.7393 59.7098 54.5482 62.1525 54.5967 64.61C54.6147 65.5179 54.904 66.301 55.4228 66.9898C55.9148 67.643 56.4416 68.2673 56.9674 68.8906L56.9712 68.8951C57.3059 69.2919 57.5809 69.7309 57.815 70.1952C58.4539 71.463 58.0982 72.406 56.7759 72.7593C54.5253 73.3607 52.2277 73.4481 49.9212 73.282L49.757 73.2702C48.6884 73.1938 47.6182 73.1174 46.5772 72.8033C45.3398 72.4301 44.9005 71.7081 45.2105 70.3971C45.2923 70.0513 45.3833 69.7079 45.4748 69.3628C45.6838 68.5742 45.8953 67.7766 46.0044 66.92ZM72.9112 31.2396C73.6581 30.272 73.6226 29.1854 72.8224 28.5246C72.0671 27.9009 71.0636 27.9593 70.4374 28.6636C69.7998 29.3806 69.7812 30.371 70.391 31.1325C71.055 31.9614 71.9166 32.0244 72.9112 31.2396ZM83.7337 40.3662C83.7791 39.7181 83.425 39.3082 82.9792 38.9611C82.5066 38.5932 81.9527 38.4718 81.4002 38.3508C81.2733 38.323 81.1466 38.2952 81.0209 38.2645C80.8281 38.2173 80.5991 38.1947 80.4549 38.3842C80.288 38.6033 80.3882 38.8401 80.4924 39.0538C81.0053 40.1056 82.1971 40.974 83.7337 40.3662ZM63.2037 58.4198C62.4913 60.5032 62.2611 62.6064 62.3615 64.7517C62.4026 65.632 62.7984 66.3443 63.4606 66.8865C64.4887 67.7283 65.4431 68.6209 65.7692 70.0549C66.0234 71.1729 65.684 71.8435 64.6359 72.0563C63.37 72.3134 62.0878 72.376 60.8006 72.3342C60.4737 72.3236 60.1994 72.2611 60.2906 71.8004C60.5706 70.3851 60.0102 69.2105 59.2851 68.1207C58.8027 67.3959 58.2395 66.7287 57.6796 66.0657L57.5983 65.9692C57.1559 65.445 56.9348 64.8996 56.9562 64.1619C57.0063 62.4382 57.1042 60.7302 57.3589 59.02C57.6813 56.8545 58.5927 55.2333 60.4847 54.2292C62.5664 53.1243 64.5068 51.7655 66.3366 50.233C66.457 50.1322 66.5939 50.0526 66.7297 49.9737L66.7958 49.9351C66.8131 49.925 66.8394 49.9324 66.8915 49.947C66.9251 49.9564 66.9694 49.9688 67.0289 49.9814C66.4838 51.3794 65.8292 52.7154 65.1735 54.0538C64.4745 55.4804 63.7743 56.9098 63.2037 58.4198ZM23.9825 64.1782C24.034 62.7062 24.5789 61.4455 25.2985 60.1809C25.6042 59.6779 25.8839 59.2193 26.1502 58.7823C26.1366 58.751 26.127 58.7229 26.1188 58.6988C26.1045 58.6567 26.0943 58.6269 26.0744 58.6141C25.8891 58.4941 25.7034 58.3749 25.5176 58.2556C24.3157 57.4839 23.114 56.7122 22.022 55.763C21.838 55.6031 21.6631 55.6452 21.4987 55.8528C19.858 57.9268 18.3818 60.0673 18.254 62.9411C18.1957 64.2545 18.212 65.4352 19.3029 66.371C19.9801 66.952 20.4637 67.7709 20.9266 68.5676C21.4818 69.523 21.849 70.5333 21.6509 71.6941C21.6015 71.9828 21.5975 72.3087 21.9979 72.3244C23.5322 72.3844 25.067 72.369 26.5619 71.9549C27.275 71.7575 27.5652 71.1201 27.45 70.3379C27.2324 68.8588 26.4036 67.8328 25.3043 66.994C24.4007 66.3046 23.9397 65.4036 23.9825 64.1782Z" fill="white" stroke="#FF6600"/>
</svg>
