<svg width="80" height="80" viewBox="0 0 80 80" fill="none" xmlns="http://www.w3.org/2000/svg">
<path d="M66.1667 53.3334V53.8334H66.6667H75C75.6439 53.8334 76.1668 54.3562 76.1669 55V78.3333C76.1669 78.9771 75.644 79.5 75.0002 79.5H70.5002V61.6667C70.5002 60.4706 69.5296 59.5 68.3334 59.5H58.3334C57.1373 59.5 56.1667 60.4706 56.1667 61.6667V79.5H1.66672C1.02283 79.5 0.5 78.9773 0.5 78.3333V55C0.5 54.3562 1.0228 53.8335 1.66663 53.8336H1.66672H3.33328H3.83328V53.3336V28.3336C3.83328 27.6897 4.35614 27.1669 5 27.1669H6.02H6.71352L6.49438 26.5089L3.89438 18.7022L3.8943 18.7019C3.85386 18.5807 3.83328 18.4574 3.83328 18.3334V11.6667C3.83328 11.0229 4.35614 10.5 5 10.5H13.3333H13.8333V10V1.66672C13.8333 1.02286 14.3561 0.5 15 0.5C15.6439 0.5 16.1667 1.02286 16.1667 1.66672V10V10.5H16.6667H25C25.6439 10.5 26.1667 11.0229 26.1667 11.6667V18.3333C26.1667 18.4572 26.1461 18.5806 26.1057 18.7018L26.1056 18.702L23.5056 26.5087L23.2865 27.1667H23.98H25C25.6439 27.1667 26.1667 27.6896 26.1667 28.3334V53.3334V53.8334H26.6667H43.3333H43.8333V53.3334V48.3334C43.8333 47.6896 44.3561 47.1667 45 47.1667H65C65.6439 47.1667 66.1667 47.6896 66.1667 48.3334V53.3334ZM20.442 42.1667H20.5002V41.6667V35C20.5002 33.8039 19.5296 32.8333 18.3334 32.8333H11.6667C10.4706 32.8333 9.5 33.8039 9.5 35V41.6667C9.5 42.8629 10.4706 43.8334 11.6667 43.8334H18.3333C19.3573 43.8334 20.2161 43.122 20.442 42.1667ZM33.7752 68.8334H33.8334V68.3334V61.6667C33.8334 60.4706 32.8629 59.5 31.6667 59.5H25C23.8039 59.5 22.8333 60.4706 22.8333 61.6667V68.3334C22.8333 69.5296 23.8039 70.5002 25 70.5002H31.6666C32.6906 70.5002 33.5494 69.7887 33.7752 68.8334ZM15 70.5002C16.1961 70.5002 17.1667 69.5296 17.1667 68.3334V61.6667C17.1667 60.4706 16.1961 59.5 15 59.5H8.33328C7.13714 59.5 6.16656 60.4706 6.16656 61.6667V68.3334C6.16656 69.5296 7.13714 70.5002 8.33328 70.5002H15ZM11.6667 20.5H18.3333C19.5293 20.5 20.5002 19.5297 20.5002 18.3334C20.5002 17.1373 19.5296 16.1667 18.3334 16.1667H11.6667C10.4706 16.1667 9.5 17.1373 9.5 18.3334C9.5 19.5296 10.4706 20.5 11.6667 20.5ZM48.3333 70.5002C49.5294 70.5002 50.5 69.5296 50.5 68.3334V61.6667C50.5 60.4706 49.5294 59.5 48.3333 59.5H41.6666C40.4704 59.5 39.4998 60.4706 39.4998 61.6667V68.3334C39.4998 69.5296 40.4704 70.5002 41.6666 70.5002H48.3333Z" fill="white" stroke="#FF6600"/>
<path d="M70.4727 14.5859L70.4727 14.5859L70.4785 14.5831C73.157 13.2815 75.8693 13.4901 78.4599 15.262C79.1044 15.7064 79.4973 16.4545 79.5 17.2718L79.5 17.2735C79.5056 18.085 79.1334 18.8242 78.5203 19.2679L45.5301 36.0411L45.5155 36.0485L45.5014 36.0569C45.1533 36.2636 44.6138 36.4101 43.9634 36.4101C43.0143 36.4101 41.8226 36.0638 40.5114 35.4852C39.2102 34.911 37.8361 34.1284 36.5356 33.3011C33.9351 31.6469 31.6683 29.8392 30.9297 29.2361C30.5462 28.9227 30.4022 28.4048 30.5676 27.9414L30.5676 27.9414C30.7333 27.4772 31.1746 27.1666 31.6667 27.1666H35C35.2527 27.1666 35.4608 27.2091 37.3814 27.6757C38.1079 27.854 39.2049 28.1224 40.2475 28.3584C41.2773 28.5916 42.2927 28.8024 42.8356 28.8544L42.9827 28.8684L43.1138 28.8003L51.2805 24.557L51.9862 24.1904L51.3499 23.7133L40.9732 15.9333L40.9714 15.932C40.5748 15.6374 40.41 15.1233 40.5601 14.647C40.7095 14.1733 41.1406 13.8472 41.6374 13.8332L41.6375 13.8332L46.5636 13.6934C49.3508 13.6941 52.0469 14.5266 54.4095 16.0996L54.4315 16.1142L54.4549 16.1265L60.3016 19.1832L60.5491 19.3126L60.7891 19.1697L61.0481 19.0155L70.4727 14.5859Z" fill="white" stroke="#FF6600"/>
</svg>
