<svg width="100" height="100" viewBox="0 0 100 100" fill="none" xmlns="http://www.w3.org/2000/svg">
<path fill-rule="evenodd" clip-rule="evenodd" d="M74.5167 63.4449C71.8219 63.4449 69.1271 62.0389 66.4909 60.6329C64.0305 59.4027 61.5114 58.0553 59.3439 58.0553C57.1763 58.0553 55.0674 59.2855 52.8413 60.6329C50.498 62.0389 48.0375 63.4449 45.2841 63.4449C42.5894 63.4449 39.8946 62.0389 37.2584 60.6329C34.8565 59.4027 32.396 58.0553 30.1699 58.0553C28.0024 58.0553 25.8934 59.3441 23.6673 60.6329C21.2654 62.0389 18.8049 63.4449 16.1101 63.4449C13.4739 63.4449 10.7792 62.0389 8.14295 60.6329C5.74108 59.4027 3.22204 58.0553 1.05449 58.0553C0.46867 58.0553 0.0585938 57.6452 0.0585938 57.118C0.0585938 56.5907 0.46867 56.1221 1.05449 56.1221C3.6907 56.1221 6.44407 57.528 9.02169 58.934C11.4236 60.2228 13.9426 61.5116 16.1101 61.5116C18.2777 61.5116 20.4452 60.2814 22.6714 58.934C25.0147 57.5866 27.4751 56.1221 30.1699 56.1221C32.8647 56.1221 35.5595 57.528 38.1957 58.934C40.5976 60.2228 43.1166 61.5116 45.2841 61.5116C47.5103 61.5116 49.6192 60.2814 51.8454 58.934C54.1886 57.5866 56.6491 56.1221 59.3439 56.1221C61.9801 56.1221 64.7335 57.528 67.3697 58.934C69.7715 60.2228 72.2906 61.5116 74.5167 61.5116C76.6843 61.5116 78.7932 60.2814 81.0193 58.934C83.4212 57.5866 85.8231 56.1221 88.5179 56.1221C89.1037 56.1221 89.5138 56.5907 89.5138 57.118C89.5138 57.6452 89.1037 58.0553 88.5179 58.0553C86.3503 58.0553 84.2414 59.3441 82.0152 60.6329C79.6134 62.0389 77.2115 63.4449 74.5167 63.4449Z" fill="#FF6600"/>
<path fill-rule="evenodd" clip-rule="evenodd" d="M73.7553 63.3862C73.2281 63.3862 72.7594 62.9761 72.7594 62.4489C72.6422 47.3932 60.34 35.2081 45.2843 35.2081C30.2872 35.2081 17.985 47.3932 17.8678 62.4489C17.8678 62.9761 17.4577 63.3862 16.8719 63.3862C16.3446 63.3862 15.9346 62.9761 15.9346 62.4489C15.9932 54.5989 19.0394 47.2761 24.6048 41.7693C30.1115 36.2626 37.4929 33.2163 45.2843 33.2163C53.1343 33.2163 60.5157 36.2626 66.0224 41.7693C71.5878 47.2761 74.634 54.5989 74.6926 62.4489C74.6926 62.9761 74.2826 63.3862 73.7553 63.3862Z" fill="#FF6600"/>
<path fill-rule="evenodd" clip-rule="evenodd" d="M23.081 55.8291C23.0224 55.8291 22.9052 55.8291 22.7881 55.7705C22.2608 55.5948 22.0265 55.0675 22.2022 54.5403C24.7799 47.1589 30.8138 41.3593 38.3124 39.1331C38.8396 38.9574 39.3668 39.2503 39.5426 39.7775C39.7183 40.3048 39.4254 40.832 38.8982 41.0078C31.9269 43.0581 26.3616 48.3891 24.0183 55.1847C23.9011 55.5948 23.491 55.8291 23.081 55.8291Z" fill="#FF6600"/>
<path fill-rule="evenodd" clip-rule="evenodd" d="M45.284 29.643C44.7567 29.643 44.2881 29.1744 44.2881 28.6471V22.7889C44.2881 22.2616 44.7567 21.8516 45.284 21.8516C45.8112 21.8516 46.2799 22.2616 46.2799 22.7889V28.6471C46.2799 29.1744 45.8112 29.643 45.284 29.643Z" fill="#FF6600"/>
<path fill-rule="evenodd" clip-rule="evenodd" d="M54.13 30.8146C54.0714 30.8146 53.9542 30.8146 53.8956 30.756C53.3684 30.6388 53.0755 30.1116 53.1926 29.5844L54.13 25.8937C54.2471 25.3664 54.7744 25.0735 55.3016 25.1907C55.8288 25.3078 56.1218 25.8351 56.0046 26.3623L55.0673 30.053C54.9501 30.5217 54.54 30.8146 54.13 30.8146Z" fill="#FF6600"/>
<path fill-rule="evenodd" clip-rule="evenodd" d="M69.3611 39.6016C69.1268 39.6016 68.8339 39.4845 68.6581 39.3087C68.2481 38.8986 68.2481 38.3128 68.6581 37.9027L71.2943 35.208C71.6458 34.8565 72.2902 34.8565 72.6417 35.208C73.0518 35.618 73.0518 36.2039 72.7003 36.6139L70.0641 39.3087C69.8298 39.4845 69.5955 39.6016 69.3611 39.6016Z" fill="#FF6600"/>
<path fill-rule="evenodd" clip-rule="evenodd" d="M78.1486 54.7745C77.6799 54.7745 77.3284 54.5402 77.2112 54.0715C77.0355 53.5443 77.3284 53.017 77.8557 52.8999L81.4878 51.904C82.015 51.7282 82.5422 52.0797 82.718 52.5484C82.8352 53.0756 82.5422 53.6028 82.015 53.7786L78.3829 54.7745C78.3243 54.7745 78.2071 54.7745 78.1486 54.7745Z" fill="#FF6600"/>
<path fill-rule="evenodd" clip-rule="evenodd" d="M12.4779 54.7745C12.4193 54.7745 12.3607 54.7745 12.2435 54.7745L8.61144 53.7786C8.0842 53.6028 7.79129 53.0756 7.90846 52.5484C8.0842 52.0797 8.61144 51.7282 9.13869 51.904L12.7708 52.8999C13.298 53.017 13.5909 53.5443 13.4738 54.0715C13.3566 54.5402 12.9465 54.7745 12.4779 54.7745Z" fill="#FF6600"/>
<path fill-rule="evenodd" clip-rule="evenodd" d="M21.2649 39.6016C21.0306 39.6016 20.7963 39.4845 20.5619 39.3087L17.9843 36.6139C17.5742 36.2039 17.5742 35.618 17.9843 35.208C18.3358 34.8565 18.9802 34.8565 19.3317 35.208L21.9679 37.9027C22.378 38.3128 22.378 38.8986 21.9679 39.3087C21.7922 39.4845 21.5578 39.6016 21.2649 39.6016Z" fill="#FF6600"/>
<path fill-rule="evenodd" clip-rule="evenodd" d="M36.497 30.8146C36.0869 30.8146 35.6768 30.5217 35.5596 30.053L34.6223 26.3623C34.5052 25.8351 34.7981 25.3078 35.3253 25.1907C35.8526 25.0735 36.3798 25.3664 36.497 25.8937L37.4343 29.5844C37.61 30.1116 37.2585 30.6388 36.7313 30.756C36.6727 30.8146 36.6141 30.8146 36.497 30.8146Z" fill="#FF6600"/>
<path fill-rule="evenodd" clip-rule="evenodd" d="M62.2732 34.2122C62.0975 34.2122 61.9217 34.1536 61.746 34.0364C61.2773 33.8021 61.1602 33.2163 61.3945 32.7476L64.3822 27.6509C64.6751 27.1823 65.2609 27.0065 65.7296 27.2995C66.1983 27.5338 66.374 28.1782 66.0811 28.6468L63.0934 33.6849C62.9176 34.0364 62.6247 34.2122 62.2732 34.2122Z" fill="#FF6600"/>
<path fill-rule="evenodd" clip-rule="evenodd" d="M74.7508 46.6315C74.3993 46.6315 74.0478 46.4558 73.872 46.1043C73.6377 45.6356 73.7549 45.0498 74.2235 44.7569L79.2616 41.8864C79.7303 41.5935 80.3161 41.7692 80.609 42.2379C80.9019 42.7065 80.7262 43.2923 80.2575 43.5267L75.2194 46.4558C75.0437 46.5729 74.8679 46.6315 74.7508 46.6315Z" fill="#FF6600"/>
<path fill-rule="evenodd" clip-rule="evenodd" d="M15.8754 46.6317C15.7583 46.6317 15.5825 46.5731 15.4068 46.456L10.3101 43.5268C9.84147 43.2925 9.66572 42.7067 9.95863 42.238C10.2515 41.7694 10.8374 41.5936 11.306 41.828L16.4027 44.7571C16.8713 45.05 16.9885 45.6358 16.7542 46.1045C16.5784 46.456 16.2269 46.6317 15.8754 46.6317Z" fill="#FF6600"/>
<path fill-rule="evenodd" clip-rule="evenodd" d="M28.3534 34.2122C28.0605 34.2122 27.709 34.0364 27.5332 33.6849L24.5455 28.6468C24.2526 28.1782 24.4284 27.5338 24.897 27.2995C25.3657 27.0065 25.9515 27.1823 26.2444 27.6509L29.2321 32.7476C29.4665 33.2163 29.3493 33.8021 28.8806 34.0364C28.7049 34.1536 28.5291 34.2122 28.3534 34.2122Z" fill="#FF6600"/>
<path fill-rule="evenodd" clip-rule="evenodd" d="M74.5167 73.1109C71.8219 73.1109 69.1271 71.7049 66.4909 70.2989C64.0305 69.0687 61.5114 67.7213 59.3439 67.7213C57.1763 67.7213 55.0674 68.9515 52.8413 70.2989C50.498 71.7049 48.0375 73.1109 45.2841 73.1109C42.5894 73.1109 39.8946 71.7049 37.2584 70.2989C34.8565 69.0687 32.396 67.7213 30.1699 67.7213C28.0024 67.7213 25.8934 68.9515 23.6673 70.2989C21.2654 71.7049 18.8049 73.1109 16.1101 73.1109C13.4739 73.1109 10.7792 71.7049 8.14295 70.2989C5.74108 69.0687 3.22204 67.7213 1.05449 67.7213C0.46867 67.7213 0.0585938 67.3112 0.0585938 66.784C0.0585938 66.1982 0.46867 65.7881 1.05449 65.7881C3.6907 65.7881 6.44407 67.1941 9.02169 68.6C11.4236 69.8303 13.9426 71.1777 16.1101 71.1777C18.2777 71.1777 20.4452 69.9474 22.6714 68.6C25.0147 67.1941 27.4751 65.7881 30.1699 65.7881C32.8647 65.7881 35.5595 67.1941 38.1957 68.6C40.5976 69.8303 43.1166 71.1777 45.2841 71.1777C47.5103 71.1777 49.6192 69.9474 51.8454 68.6C54.1886 67.1941 56.6491 65.7881 59.3439 65.7881C61.9801 65.7881 64.7335 67.1941 67.3697 68.6C69.7715 69.8303 72.2906 71.1777 74.5167 71.1777C76.6843 71.1777 78.7932 69.9474 81.0193 68.6C83.4212 67.1941 85.8231 65.7881 88.5179 65.7881C89.1037 65.7881 89.5138 66.1982 89.5138 66.784C89.5138 67.3112 89.1037 67.7213 88.5179 67.7213C86.3503 67.7213 84.2414 68.9515 82.0152 70.2989C79.6134 71.7049 77.2115 73.1109 74.5167 73.1109Z" fill="#FF6600"/>
<path fill-rule="evenodd" clip-rule="evenodd" d="M74.5167 82.7769C71.8219 82.7769 69.1271 81.3709 66.4909 79.9649C64.0305 78.7347 61.5114 77.3873 59.3439 77.3873C57.1763 77.3873 55.0674 78.6175 52.8413 79.9649C50.498 81.3123 48.0375 82.7769 45.2841 82.7769C42.5894 82.7769 39.8946 81.3709 37.2584 79.9649C34.8565 78.7347 32.396 77.3873 30.1699 77.3873C28.0024 77.3873 25.8934 78.6175 23.6673 79.9649C21.2654 81.3709 18.8049 82.7769 16.1101 82.7769C13.4739 82.7769 10.7792 81.3709 8.14295 79.9649C5.74108 78.7347 3.22204 77.3873 1.05449 77.3873C0.46867 77.3873 0.0585938 76.9772 0.0585938 76.3914C0.0585938 75.8642 0.46867 75.4541 1.05449 75.4541C3.6907 75.4541 6.44407 76.8601 9.02169 78.2661C11.4236 79.4963 13.9426 80.8437 16.1101 80.8437C18.2777 80.8437 20.4452 79.6134 22.6714 78.2661C25.0147 76.8601 27.4751 75.4541 30.1699 75.4541C32.8647 75.4541 35.5595 76.8601 38.1957 78.2661C40.5976 79.4963 43.1166 80.8437 45.2841 80.8437C47.5103 80.8437 49.6192 79.5549 51.8454 78.2661C54.1886 76.8601 56.6491 75.4541 59.3439 75.4541C61.9801 75.4541 64.7335 76.8601 67.3697 78.2661C69.7715 79.4963 72.2906 80.8437 74.5167 80.8437C76.6843 80.8437 78.7932 79.6134 81.0193 78.2661C83.4212 76.8601 85.8231 75.4541 88.5179 75.4541C89.1037 75.4541 89.5138 75.8642 89.5138 76.3914C89.5138 76.9772 89.1037 77.3873 88.5179 77.3873C86.3503 77.3873 84.2414 78.6175 82.0152 79.9649C79.6134 81.3709 77.2115 82.7769 74.5167 82.7769Z" fill="#FF6600"/>
<path fill-rule="evenodd" clip-rule="evenodd" d="M88.5179 91.4472H1.05449C0.46867 91.4472 0.0585938 90.9785 0.0585938 90.4513V57.118C0.0585938 56.5907 0.46867 56.1221 1.05449 56.1221C1.58173 56.1221 1.99181 56.5907 1.99181 57.118V89.514H87.5806V57.118C87.5806 56.5907 87.9906 56.1221 88.5179 56.1221C89.1037 56.1221 89.5138 56.5907 89.5138 57.118V90.4513C89.5138 90.9785 89.1037 91.4472 88.5179 91.4472Z" fill="#FF6600"/>
<path fill-rule="evenodd" clip-rule="evenodd" d="M86.7017 38.4888C84.1827 38.4888 82.1323 36.3798 82.1323 33.8022V23.2574L81.195 24.1361H81.1364C80.1991 24.8977 79.0274 25.3078 77.7972 25.1906C76.567 25.132 75.5125 24.5462 74.6923 23.6089C73.8722 22.6716 73.4621 21.4999 73.5793 20.2697C73.6378 19.0395 74.2237 17.9264 75.161 17.1648L83.4797 9.90062C84.2998 9.02188 85.4715 8.55322 86.7017 8.55322C87.9905 8.55322 89.1036 9.02188 89.9823 9.90062L98.3596 17.1648C100.234 18.8051 100.469 21.6757 98.8282 23.6089C98.0667 24.5462 96.895 25.132 95.6648 25.1906C94.4346 25.3078 93.2629 24.8977 92.3256 24.1361L91.3297 23.2574V33.8022C91.3297 36.4384 89.3379 38.4888 86.7017 38.4888ZM83.1282 20.1525C83.2453 20.1525 83.3625 20.1525 83.4797 20.2111C83.8312 20.3868 84.0655 20.7383 84.0655 21.0898V33.8022C84.0655 35.3253 85.2371 36.497 86.7017 36.497C88.2248 36.497 89.3965 35.3253 89.3965 33.8022V21.0898C89.3965 20.7383 89.6308 20.3868 89.9823 20.2111C90.2752 20.0354 90.6853 20.0939 90.9782 20.3868L93.6144 22.6716C94.1417 23.0816 94.7861 23.316 95.489 23.2574C96.2506 23.1988 96.895 22.9059 97.3637 22.3201C98.301 21.2656 98.1838 19.5667 97.0708 18.6294L88.6935 11.3652C88.6349 11.3652 88.6349 11.3066 88.5763 11.3066C88.1077 10.7794 87.4633 10.4864 86.7017 10.4864C85.9987 10.4864 85.3543 10.7794 84.8856 11.3066C84.8271 11.3066 84.8271 11.3652 84.7685 11.3652L76.4498 18.6294C75.864 19.098 75.5711 19.7424 75.5125 20.3868C75.4539 21.0898 75.6882 21.7928 76.1569 22.3201C76.6255 22.9059 77.2699 23.1988 77.9729 23.2574C78.6759 23.316 79.3203 23.0816 79.9062 22.6716L82.4252 20.3868C82.6595 20.2111 82.8938 20.1525 83.1282 20.1525Z" fill="#FF6600"/>
<path fill-rule="evenodd" clip-rule="evenodd" d="M92.6769 18.5123C92.5011 18.5123 92.2668 18.4537 92.0325 18.278L86.7601 13.65C86.35 13.2985 86.2914 12.6541 86.6429 12.244C86.9944 11.8339 87.5802 11.8339 87.9903 12.1854L93.3213 16.8134C93.7314 17.1649 93.7899 17.7508 93.4385 18.1608C93.2627 18.3952 92.9698 18.5123 92.6769 18.5123Z" fill="#FF6600"/>
</svg>
