<svg width="80" height="76" viewBox="0 0 80 76" fill="none" xmlns="http://www.w3.org/2000/svg">
<path d="M4.89273 14.3059V13.8059H4.39273H2.66236C1.46826 13.8059 0.5 12.8378 0.5 11.6438V2.85838C0.5 1.66442 1.46826 0.696289 2.66236 0.696289H77.3376C78.5317 0.696289 79.5 1.66442 79.5 2.85838V11.6438C79.5 12.8378 78.5317 13.8059 77.3376 13.8059H75.6073H75.1073V14.3059V26.5958V27.0151L75.5202 27.0881C76.5337 27.2674 77.3034 28.151 77.3034 29.2147V46.7851C77.3034 47.8489 76.5339 48.7327 75.5203 48.9117L75.1073 48.9847V49.4041V61.6937V62.1937H75.6073H77.3376C78.5317 62.1937 79.5 63.162 79.5 64.356V73.1415C79.5 74.3354 78.5317 75.3036 77.3376 75.3036H2.66236C1.46826 75.3036 0.5 74.3354 0.5 73.1415V64.356C0.5 63.162 1.46833 62.1937 2.66236 62.1937H4.39273H4.89273V61.6937V14.3059ZM17.5706 62.1937H18.0706V61.6937V40.6623V40.1623H17.5706H9.71717H9.21717V40.6623V61.6937V62.1937H9.71717H17.5706ZM17.5706 35.8376H18.0706V35.3376V14.3059V13.8059H17.5706H9.71717H9.21717V14.3059V35.3376V35.8376H9.71717H17.5706ZM30.7486 62.1937H31.2486V61.6937V40.6623V40.1623H30.7486H22.8951H22.3951V40.6623V61.6937V62.1937H22.8951H30.7486ZM30.7486 35.8376H31.2486V35.3376V14.3059V13.8059H30.7486H22.8951H22.3951V14.3059V35.3376V35.8376H22.8951H30.7486ZM43.9267 62.1937H44.4267V61.6937V40.6623V40.1623H43.9267H36.0733H35.5733V40.6623V61.6937V62.1937H36.0733H43.9267ZM43.9267 35.8376H44.4267V35.3376V14.3059V13.8059H43.9267H36.0733H35.5733V14.3059V35.3376V35.8376H36.0733H43.9267ZM57.1049 62.1937H57.6049V61.6937V49.4041V48.9847L57.192 48.9117C56.1782 48.7325 55.4086 47.8488 55.4086 46.7851V40.6623V40.1623H54.9086H49.2512H48.7512V40.6623V61.6937V62.1937H49.2512H57.1049ZM57.1919 27.0881L57.6049 27.0152V26.5958V14.3059V13.8059H57.1049H49.2512H48.7512V14.3059V35.3376V35.8376H49.2512H54.9086H55.4086V35.3376V29.2147C55.4086 28.1508 56.1782 27.2671 57.1919 27.0881ZM70.2828 62.1937H70.7828V61.6937V49.4475V48.9475H70.2828H62.4294H61.9294V49.4475V61.6937V62.1937H62.4294H70.2828ZM70.2828 27.0524H70.7828V26.5524V14.3059V13.8059H70.2828H62.4294H61.9294V14.3059V26.5524V27.0524H62.4294H70.2828ZM66.3561 32.708C64.1718 32.708 62.3951 34.4844 62.3951 36.669C62.3951 37.8455 62.9127 38.9005 63.7268 39.6247V40.6623C63.7268 42.1145 64.9042 43.2918 66.3564 43.2918C67.8088 43.2918 68.9862 42.1145 68.9862 40.6623V39.6246C69.7998 38.9004 70.3171 37.8456 70.3171 36.669C70.3171 34.4845 68.5407 32.708 66.3561 32.708Z" fill="white" stroke="#FF6600"/>
</svg>
