<svg width="80" height="80" viewBox="0 0 80 80" fill="none" xmlns="http://www.w3.org/2000/svg">
<path d="M48 71.25V60C48 59.5858 48.3358 59.25 48.75 59.25H79.5V72H48.75C48.3358 72 48 71.6642 48 71.25Z" fill="white" stroke="#FF6600"/>
<path d="M73 20.5H79.5V55.75H73V20.5Z" fill="white" stroke="#FF6600"/>
<path d="M48.75 20.5H63.75C64.1642 20.5 64.5 20.8358 64.5 21.25V28.75C64.5 29.1642 64.1642 29.5 63.75 29.5H48.75C48.3358 29.5 48 29.1642 48 28.75V21.25C48 20.8358 48.3358 20.5 48.75 20.5Z" fill="white" stroke="#FF6600"/>
<path d="M39.25 1.25C39.25 0.835758 39.5858 0.5 40 0.5H79.5V7H40C39.5858 7 39.25 6.66419 39.25 6.25V1.25Z" fill="white" stroke="#FF6600"/>
<path d="M66.829 16.5852L66.3818 16.8089L66.829 16.5852L63.7863 10.5H79.5V17H67.5C67.2159 17 66.9561 16.8395 66.829 16.5852Z" fill="white" stroke="#FF6600"/>
<path d="M55.5 10.5H57V17H55.5V10.5Z" fill="white" stroke="#FF6600"/>
<path d="M11.4153 45.75L12.7821 35.5H32.2179L33.5846 45.75H11.4153Z" fill="white" stroke="#FF6600"/>
<path d="M34.5 61.25C34.5 62.3546 33.6046 63.25 32.5 63.25C31.3954 63.25 30.5 62.3546 30.5 61.25C30.5 60.1454 31.3954 59.25 32.5 59.25C33.6046 59.25 34.5 60.1454 34.5 61.25Z" fill="white" stroke="#FF6600"/>
<path d="M14.5 61.25C14.5 62.3546 13.6046 63.25 12.5 63.25C11.3954 63.25 10.5 62.3546 10.5 61.25C10.5 60.1454 11.3954 59.25 12.5 59.25C13.6046 59.25 14.5 60.1454 14.5 61.25Z" fill="white" stroke="#FF6600"/>
<path d="M40.0363 29.569L40.0363 29.569L44.4485 62.1642C44.7156 64.1357 43.9519 66.0715 42.4002 67.3454C42.4002 67.3455 42.4002 67.3455 42.4002 67.3455L38.3487 70.6706L38.3486 70.6707C37.3046 71.5282 35.9814 72 34.6229 72H34.5228H33.7138L34.0756 72.7236L36.9211 78.4145C37.1063 78.7849 36.9566 79.2348 36.5866 79.4205C36.4772 79.4747 36.3625 79.5 36.2514 79.5C35.974 79.5 35.7102 79.3475 35.5792 79.0855L34.6747 77.2764L34.5365 77H34.2274H10.7728H10.4638L10.3256 77.2764L9.42109 79.0855C9.29007 79.3475 9.02624 79.5 8.74892 79.5C8.63773 79.5 8.52294 79.4747 8.41352 79.4204C8.04367 79.2347 7.89404 78.7848 8.07919 78.4145L10.9247 72.7236L11.2865 72H10.4774H10.3773C9.01886 72 7.69554 71.5281 6.65147 70.6718L2.60077 67.3455L2.60067 67.3454C1.04835 66.0714 0.284171 64.1357 0.551751 62.1644L0.551775 62.1642L4.96462 29.569L4.96464 29.5688C5.18087 27.9666 6.58 26.75 8.22341 26.75H36.7769C38.4202 26.75 39.8195 27.9666 40.0363 29.569ZM9.51553 33.519L9.51551 33.5191L7.01553 52.269C7.01553 52.269 7.01552 52.2691 7.01551 52.2691C6.94882 52.7687 7.10125 53.2725 7.43278 53.6526L7.43351 53.6535C7.76615 54.0331 8.24639 54.25 8.75014 54.25H36.2501C36.7539 54.25 37.2341 54.0331 37.5668 53.6535L37.5675 53.6526C37.8991 53.2725 38.0515 52.7687 37.9848 52.269L35.4848 33.5191L35.4848 33.519C35.3686 32.6496 34.6272 32 33.7501 32H11.2501C10.3731 32 9.63169 32.6496 9.51553 33.519ZM11.5756 74.7764L11.2138 75.5H12.0228H32.9774H33.7865L33.4247 74.7764L32.1747 72.2764L32.0365 72H31.7274H13.2728H12.9638L12.8256 72.2764L11.5756 74.7764ZM23.7501 63C24.7164 63 25.5001 62.2172 25.5001 61.25C25.5001 60.2828 24.7164 59.5 23.7501 59.5H21.2501C20.2839 59.5 19.5001 60.2828 19.5001 61.25C19.5001 62.2172 20.2839 63 21.2501 63H23.7501ZM12.5001 55.75C9.46708 55.75 7.00014 58.2162 7.00014 61.25C7.00014 64.2837 9.46708 66.75 12.5001 66.75C15.5332 66.75 18.0001 64.2837 18.0001 61.25C18.0001 58.2162 15.5332 55.75 12.5001 55.75ZM27.0001 61.25C27.0001 64.2837 29.4671 66.75 32.5001 66.75C35.5332 66.75 38.0001 64.2837 38.0001 61.25C38.0001 58.2162 35.5332 55.75 32.5001 55.75C29.4671 55.75 27.0001 58.2162 27.0001 61.25Z" fill="white" stroke="#FF6600"/>
<path d="M10.7487 50.75L10.9487 49.25H34.0513L34.2513 50.75H10.7487Z" fill="white" stroke="#FF6600"/>
<path d="M23.25 20V20.5H23.75H33.75C34.1613 20.5 34.5 20.8387 34.5 21.25V23.25H10.5V21.25C10.5 20.8387 10.8387 20.5 11.25 20.5H21.25H21.75V20V15V14.5H21.25H11.25C10.8357 14.5 10.5 14.1646 10.5 13.75C10.5 13.3354 10.8357 13 11.25 13H33.75C34.1643 13 34.5 13.3354 34.5 13.75C34.5 14.1646 34.1643 14.5 33.75 14.5H23.75H23.25V15V20Z" fill="white" stroke="#FF6600"/>
</svg>
