<svg width="107" height="102" viewBox="0 0 107 102" fill="none" xmlns="http://www.w3.org/2000/svg">
<path d="M1.13413 23.8072C1.13413 23.8072 4.45045 23.1943 5.46928 22.7311C8.18698 21.4945 8.99027 19.5822 10.7956 17.0637C13.1357 13.799 20.6863 12.3244 20.6863 12.3244L20.91 1C20.91 1 35.2302 12.0543 37.685 15.9322C41.8731 22.5484 43.9813 33.757 43.9813 33.757C43.9813 33.757 44.5896 38.7904 51.7601 45.4682C58.5226 51.7656 83.4599 53.5387 86.2797 81.698C88.6116 81.2682 91.0658 80.3678 92.4614 78.5891C95.2299 75.0586 93.4336 68.6609 91.4397 63.9154C84.1561 46.5856 83.4841 34.6316 89.4959 29.3457C92.9632 26.2973 98.0137 25.967 103.355 28.4398C105.693 29.5223 106.663 32.1973 105.521 34.4145C104.379 36.6318 101.558 37.5518 99.2185 36.468C97.5161 35.6793 96.2619 35.5838 95.9052 35.8963C94.6676 36.9848 93.0249 43.5467 100.195 60.6092C104.402 70.6174 104.332 78.4768 99.9861 83.9693C96.2855 88.6457 90.4223 90.2437 86.0576 90.7525C83.8727 98.4426 74.847 100.6 69.7967 100.6C66.8662 100.6 36.3598 100.6 33.6618 100.6C33.6989 100.635 30.4722 100.438 30.8399 98.4887C31.5097 94.9361 34.6855 93.8199 38.6261 93.8035C42.5667 93.7871 43.6725 93.8576 46.27 93.9004C47.5739 93.9217 33.7169 90.593 34.8149 80.5848C37.7508 60.69 60.2463 68.8752 60.2463 68.8752C38.0656 58.4873 33.4198 75.5451 33.4198 75.5451C33.387 75.6244 28.2231 96.3443 28.2231 96.3443C28.2231 96.3443 27.0548 100.996 22.7309 100.996C19.8008 100.996 15.1434 100.996 12.4454 100.996C12.4823 101.031 9.25564 100.835 9.62355 98.8848C10.6955 93.2004 14.6537 95.5229 18.9845 90.3234C23.3154 85.1236 19.8506 81.0182 19.8506 81.0182C9.74557 65.1457 17.3681 56.416 16.9635 46.8098C16.675 39.9684 12.0554 37.2316 12.0554 37.2316C7.14702 35.0422 4.70885 34.61 2.09985 30.283C0.46968 27.5787 1.13413 23.8072 1.13413 23.8072Z" fill="white" stroke="#FF6600"/>
</svg>
