<svg width="80" height="68" viewBox="0 0 80 68" fill="none" xmlns="http://www.w3.org/2000/svg">
<path d="M62.0349 25.1837L40 0.983887L17.9653 25.1837H62.0349Z" fill="white" stroke="#FF6600"/>
<path d="M66.3223 27.0784C66.2539 27.2332 66.1776 27.3831 66.0943 27.5274H77.6562C78.4686 27.5274 79.2231 27.1068 79.6501 26.4157C80.0772 25.7246 80.1158 24.8617 79.7523 24.1351L70.3773 5.39525C69.9801 4.60135 69.1687 4.1001 68.2812 4.1001H49.177L65.5006 22.0278C66.7503 23.4003 67.0725 25.3807 66.3223 27.0784Z" fill="white" stroke="#FF6600"/>
<path d="M2.34365 27.5273H13.9055C13.8222 27.3829 13.746 27.2331 13.6776 27.0782C12.9274 25.3806 13.2496 23.3999 14.4991 22.0276L30.8229 4.1001H11.7187C10.8312 4.1001 10.0196 4.60135 9.62256 5.39525L0.247559 24.1351C-0.115878 24.8615 -0.0772844 25.7245 0.349747 26.4157C0.776778 27.1067 1.53131 27.5273 2.34365 27.5273Z" fill="white" stroke="#FF6600"/>
<path d="M77.5899 62.3284H75.3124V32.2148H4.6874V62.3284H2.4099C1.14787 62.3284 0.0619294 63.2983 0.00255437 64.5589C-0.0608831 65.9048 1.01162 67.0159 2.34365 67.0159H37.6561V53.1191C37.6561 51.857 38.626 50.7711 39.8866 50.7117C41.2326 50.6483 42.3436 51.7208 42.3436 53.0528V67.0159H77.6561C78.9882 67.0159 80.0607 65.9048 79.9972 64.5589C79.9379 63.2983 78.8519 62.3284 77.5899 62.3284ZM19.8179 57.7483C19.8179 59.0427 18.7685 60.092 17.4741 60.092C16.1797 60.092 15.1304 59.0427 15.1304 57.7483V53.053C15.1304 51.7586 16.1797 50.7092 17.4741 50.7092C18.7685 50.7092 19.8179 51.7586 19.8179 53.053V57.7483ZM19.8179 42.9927C19.8179 44.287 18.7685 45.3364 17.4741 45.3364C16.1797 45.3364 15.1304 44.287 15.1304 42.9927V38.2973C15.1304 37.003 16.1797 35.9536 17.4741 35.9536C18.7685 35.9536 19.8179 37.003 19.8179 38.2973V42.9927ZM31.0808 57.7483C31.0808 59.0427 30.0315 60.092 28.7371 60.092C27.4427 60.092 26.3933 59.0427 26.3933 57.7483V53.053C26.3933 51.7586 27.4427 50.7092 28.7371 50.7092C30.0315 50.7092 31.0808 51.7586 31.0808 53.053V57.7483ZM31.0808 42.9927C31.0808 44.287 30.0315 45.3364 28.7371 45.3364C27.4427 45.3364 26.3933 44.287 26.3933 42.9927V38.2973C26.3933 37.003 27.4427 35.9536 28.7371 35.9536C30.0315 35.9536 31.0808 37.003 31.0808 38.2973V42.9927ZM42.3436 42.9927C42.3436 44.287 41.2943 45.3364 39.9999 45.3364C38.7055 45.3364 37.6561 44.287 37.6561 42.9927V38.2973C37.6561 37.003 38.7055 35.9536 39.9999 35.9536C41.2943 35.9536 42.3436 37.003 42.3436 38.2973V42.9927ZM53.6066 57.7483C53.6066 59.0427 52.5572 60.092 51.2629 60.092C49.9685 60.092 48.9191 59.0427 48.9191 57.7483V53.053C48.9191 51.7586 49.9685 50.7092 51.2629 50.7092C52.5572 50.7092 53.6066 51.7586 53.6066 53.053V57.7483ZM53.6066 42.9927C53.6066 44.287 52.5572 45.3364 51.2629 45.3364C49.9685 45.3364 48.9191 44.287 48.9191 42.9927V38.2973C48.9191 37.003 49.9685 35.9536 51.2629 35.9536C52.5572 35.9536 53.6066 37.003 53.6066 38.2973V42.9927ZM64.8694 57.7483C64.8694 59.0427 63.8201 60.092 62.5257 60.092C61.2313 60.092 60.1819 59.0427 60.1819 57.7483V53.053C60.1819 51.7586 61.2313 50.7092 62.5257 50.7092C63.8201 50.7092 64.8694 51.7586 64.8694 53.053V57.7483ZM64.8694 42.9927C64.8694 44.287 63.8201 45.3364 62.5257 45.3364C61.2313 45.3364 60.1819 44.287 60.1819 42.9927V38.2973C60.1819 37.003 61.2313 35.9536 62.5257 35.9536C63.8201 35.9536 64.8694 37.003 64.8694 38.2973V42.9927Z" fill="white" stroke="#FF6600"/>
</svg>
