<svg width="54" height="90" viewBox="0 0 54 90" fill="none" xmlns="http://www.w3.org/2000/svg">
<path d="M31.7813 28.0996V41.2809C32.6957 42.3207 34.6922 44.9262 35.8986 49.0086C37.3184 53.8133 37.8906 61.715 32.5528 72.075C32.1441 72.8577 31.5149 73.5166 30.7354 73.978C29.9558 74.4394 29.0569 74.685 28.1391 74.6875H26.2032C25.1716 76.6602 22.6611 82.2443 23.371 88.75H35.6234C36.7877 86.0887 40.1573 77.8125 42.2842 66.7012C43.7796 59.0622 44.3751 51.2882 44.0597 43.5234C43.6818 35.2152 42.1287 27.317 39.4455 20H31.7813C31.492 20 31.2079 19.9271 30.9578 19.7888C30.7076 19.6505 30.5003 19.4517 30.3568 19.2125C27.0493 13.6986 21.4376 11.1689 16.9174 10.0088C16.2612 11.1636 15.5931 12.4493 14.9132 13.866C19.0392 16.2453 24.2635 19.2779 27.9467 21.4863C29.1236 22.1872 30.0933 23.1623 30.7643 24.3195C31.4353 25.4767 31.7853 26.7777 31.7813 28.0996Z" fill="white" stroke="#FF6600"/>
<path d="M32.7095 16.875H38.3438C38.3438 16.8102 38.3481 16.7455 38.3565 16.6813C38.7915 14.1901 39.7958 11.8205 41.2986 9.73984C41.6269 9.28528 41.9798 8.84732 42.356 8.42773L38.8526 3.97949C37.8889 3.41504 33.9424 1.25 30.1407 1.25C26.9242 1.25 24.6003 1.25 21.9866 3.40723C20.8833 4.31797 19.776 5.58105 18.6438 7.22793C23.4096 8.58633 29.0394 11.3305 32.7095 16.875ZM31.7813 5.9375C32.1058 5.9375 32.423 6.02914 32.6928 6.20083C32.9626 6.37252 33.1729 6.61655 33.297 6.90206C33.4212 7.18757 33.4537 7.50173 33.3904 7.80483C33.3271 8.10792 33.1709 8.38633 32.9414 8.60485C32.712 8.82337 32.4196 8.97219 32.1014 9.03248C31.7831 9.09277 31.4533 9.06182 31.1535 8.94356C30.8537 8.8253 30.5975 8.62503 30.4172 8.36808C30.2369 8.11113 30.1407 7.80903 30.1407 7.5C30.1407 7.0856 30.3135 6.68817 30.6212 6.39515C30.9289 6.10212 31.3462 5.9375 31.7813 5.9375Z" fill="white" stroke="#FF6600"/>
<path d="M2.25004 88.7499H20.0728C19.2838 80.5788 22.8528 73.9515 23.6594 72.5743C26.6125 58.1142 20.7118 50.7308 20.6515 50.6575C20.3804 50.3333 20.2557 49.9198 20.3048 49.508C20.3538 49.0962 20.5726 48.7199 20.9131 48.4617C21.2535 48.2036 21.6877 48.0848 22.12 48.1315C22.5524 48.1782 22.9476 48.3866 23.2187 48.7108C23.4947 49.0396 29.6991 56.644 27.1804 71.5624H28.1391C28.4439 71.5623 28.7426 71.4814 29.0019 71.3287C29.2612 71.1761 29.4707 70.9578 29.6071 70.6981C38.8739 52.7122 29.0806 43.0751 28.9805 42.9798C28.8282 42.8347 28.7073 42.6624 28.6249 42.4729C28.5425 42.2833 28.5 42.0801 28.5 41.8749V28.0995C28.5024 27.3062 28.2924 26.5254 27.8897 25.8309C27.487 25.1365 26.905 24.5513 26.1987 24.1308C22.6457 22.0005 17.6387 19.0917 13.5863 16.7544C13.0622 17.9454 12.528 19.2142 11.9839 20.5608C8.70549 28.6804 7.11203 40.5663 7.37699 54.9335C7.49077 61.467 7.96501 67.9902 8.79777 74.4763C8.85414 74.871 8.75021 75.2714 8.50718 75.5956L0.915188 85.7183C0.71586 85.9829 0.608964 86.3006 0.609622 86.6263V87.1874C0.610111 87.6016 0.78309 87.9988 1.09062 88.2917C1.39814 88.5846 1.81511 88.7494 2.25004 88.7499Z" fill="white" stroke="#FF6600"/>
<path d="M39.1704 88.75H51.188C50.8476 87.8366 50.2188 87.046 49.3878 86.4865C48.5569 85.927 47.5645 85.6261 46.5469 85.625H40.4017C39.9362 86.8727 39.5164 87.9207 39.1704 88.75Z" fill="white" stroke="#FF6600"/>
<path d="M51.3986 3.32027C49.2175 2.56891 46.1924 2.19586 42.5449 3.46012L44.7462 6.25465C46.7104 4.82291 48.9817 3.82102 51.3986 3.32027Z" fill="white" stroke="#FF6600"/>
</svg>
