<svg width="70" height="68" viewBox="0 0 70 68" fill="none" xmlns="http://www.w3.org/2000/svg">
<path d="M45.8732 56.1977H36.5662V34.687H38.2365C37.8231 36.033 37.6007 37.4682 37.6007 38.9398C37.6007 40.0105 37.9122 41.2853 38.417 42.6666C38.9244 44.0551 39.6403 45.5858 40.4782 47.1787C42.0174 50.1047 43.9853 53.2717 45.8732 56.1977Z" fill="white" stroke="#FF6600"/>
<path d="M24.2048 48.7548C24.2048 49.032 23.9729 49.2639 23.6957 49.2639C23.4131 49.2639 23.1865 49.043 23.1865 48.7548C23.1865 48.4775 23.4184 48.2456 23.6957 48.2456C23.9729 48.2456 24.2048 48.4775 24.2048 48.7548Z" fill="white" stroke="#FF6600"/>
<path d="M43.4823 27.1791C43.508 27.209 43.5339 27.2386 43.5602 27.2679C41.8116 28.5508 40.3593 30.2111 39.3286 32.1246H35.3174C34.6018 32.1246 34.0362 32.6903 34.0362 33.4059V57.4791C34.0362 58.1947 34.6018 58.7604 35.3174 58.7604H47.5606L47.9339 59.3438L47.9365 59.3478C48.7904 60.6544 49.5591 61.8333 50.2042 62.855H32.0087V33.4059C32.0087 32.6801 31.4203 32.1346 30.7466 32.1087L30.737 32.1083H30.7274H7.07735C6.38482 32.1083 5.79607 32.6672 5.79607 33.3896V62.8387H2.49902V28.2682C3.30109 28.7548 4.24921 29.0392 5.25436 29.0392H5.71011C7.31548 29.0392 8.76863 28.3107 9.74636 27.1725C10.7207 28.3102 12.1632 29.0392 13.7834 29.0392H14.1414C15.7614 29.0392 17.2038 28.3104 18.1781 27.173C19.1524 28.3104 20.5947 29.0392 22.2147 29.0392H22.5728C24.1927 29.0392 25.6351 28.3104 26.6094 27.173C27.5837 28.3104 29.0261 29.0392 30.646 29.0392H31.0041C32.624 29.0392 34.0664 28.3104 35.0407 27.173C36.015 28.3104 37.4574 29.0392 39.0774 29.0392H39.4354C41.0511 29.0392 42.504 28.314 43.4823 27.1791Z" fill="white" stroke="#FF6600"/>
<path d="M49.9283 39.1232L49.9265 39.1216C49.7544 38.9667 49.675 38.8933 49.6113 38.8097C49.5567 38.7381 49.5019 38.6419 49.433 38.4438C49.311 38.0374 49.2137 37.3993 49.1413 36.6897C49.0893 36.1801 49.0518 35.6512 49.0259 35.1753H54.9173C54.8925 35.6738 54.8564 36.2295 54.8035 36.76C54.7347 37.4504 54.6407 38.0612 54.5189 38.4478L54.5144 38.4622L54.5126 38.4693C54.5113 38.4725 54.5086 38.4791 54.5037 38.4905C54.5031 38.492 54.5024 38.4936 54.5017 38.4953C54.492 38.5177 54.4726 38.5629 54.4559 38.6187C54.4104 38.7335 54.3691 38.7981 54.3237 38.8531C54.2667 38.922 54.194 38.9882 54.0518 39.1136C53.8507 39.2813 53.5971 39.4987 53.3259 39.8242L53.3177 39.834L53.31 39.8443C53.3044 39.8517 53.2974 39.8609 53.2893 39.8715C53.2891 39.8717 53.289 39.8719 53.2888 39.8721H50.6805C50.6804 39.8719 50.6802 39.8717 50.6801 39.8715C50.6719 39.8609 50.6649 39.8517 50.6593 39.8443L50.6469 39.8276L50.6331 39.8121C50.3899 39.5386 50.1694 39.3402 50.004 39.1915C49.9773 39.1675 49.952 39.1448 49.9283 39.1232Z" fill="white" stroke="#FF6600"/>
<path d="M57.6435 36.1435C57.6197 36.2943 57.5393 36.4805 57.4167 36.6499C57.4482 36.3054 57.4738 35.9657 57.4926 35.6472C57.4973 35.6503 57.5021 35.6537 57.507 35.6575L57.5069 35.6575L57.5118 35.6612C57.5906 35.7203 57.6849 35.9048 57.6447 36.1358L57.6447 36.1358L57.6435 36.1435Z" fill="white" stroke="#FF6600"/>
<path d="M50.6058 23.7212C50.6058 24.0098 50.5593 24.2991 50.4726 24.5704C48.8171 24.7425 47.2454 25.2042 45.7938 25.8946C45.1261 25.3825 44.7207 24.5795 44.7207 23.7212V20.9658H50.6058V23.7212Z" fill="white" stroke="#FF6600"/>
<path d="M33.7105 23.7212C33.7105 25.2355 32.4694 26.4765 30.9551 26.4765H30.5808C29.0665 26.4765 27.8254 25.2355 27.8254 23.7212V20.9658H33.7105V23.7212Z" fill="white" stroke="#FF6600"/>
<path d="M36.2892 23.7212L36.2892 23.7187L36.2755 20.9658H42.158V23.7212C42.158 25.2355 40.9169 26.4765 39.4027 26.4765H39.0446C37.5303 26.4765 36.2892 25.2355 36.2892 23.7212Z" fill="white" stroke="#FF6600"/>
<path d="M16.8153 23.7212C16.8153 25.2355 15.5743 26.4765 14.06 26.4765H13.7019C12.1876 26.4765 10.9465 25.2355 10.9465 23.7212V20.9658H16.8153V23.7212Z" fill="white" stroke="#FF6600"/>
<path d="M20.1917 34.687H29.446V62.8549H20.1917V34.687ZM26.7674 48.7709C26.7674 47.0787 25.3879 45.6992 23.6957 45.6992C22.0035 45.6992 20.624 47.0787 20.624 48.7709C20.624 50.4632 22.0035 51.8427 23.6957 51.8427C25.3879 51.8427 26.7674 50.4632 26.7674 48.7709Z" fill="white" stroke="#FF6600"/>
<path d="M17.613 34.687V62.8549H8.35864V34.687H17.613ZM17.1318 48.7709C17.1318 47.0787 15.7523 45.6992 14.0601 45.6992C12.3679 45.6992 10.9883 47.0787 10.9883 48.7709C10.9883 50.4632 12.3679 51.8427 14.0601 51.8427C15.7523 51.8427 17.1318 50.4632 17.1318 48.7709Z" fill="white" stroke="#FF6600"/>
<path d="M14.5691 48.7548C14.5691 49.032 14.3372 49.2639 14.0599 49.2639C13.7774 49.2639 13.5508 49.043 13.5508 48.7548C13.5508 48.4775 13.7827 48.2456 14.0599 48.2456C14.3372 48.2456 14.5691 48.4775 14.5691 48.7548Z" fill="white" stroke="#FF6600"/>
<path d="M22.5076 26.4765H22.1495C20.6352 26.4765 19.3929 25.2511 19.3779 23.7188V20.9658H25.263V23.7212C25.263 25.2371 24.0366 26.4765 22.5076 26.4765Z" fill="white" stroke="#FF6600"/>
<path d="M52.0335 27.0532C58.5778 27.0532 63.9201 32.3801 63.9201 38.9398C63.9201 40.0415 63.4253 41.6236 62.5647 43.5265C61.7125 45.411 60.5322 47.5454 59.226 49.7289C57.5446 52.5395 55.6773 55.3951 54.0468 57.8885C53.3156 59.0067 52.6321 60.052 52.0343 60.9878C51.4087 60.0054 50.6885 58.9039 49.9176 57.725C48.3153 55.2746 46.4939 52.4891 44.847 49.7408C43.5397 47.5594 42.3581 45.426 41.5046 43.5401C40.6429 41.6361 40.147 40.0498 40.147 38.9398C40.147 32.3647 45.5047 27.0532 52.0335 27.0532ZM52.0335 27.4205C45.8652 27.4205 40.8398 32.446 40.8398 38.6143C40.8398 44.7826 45.8652 49.8081 52.0335 49.8081C58.2019 49.8081 63.2273 44.7826 63.2273 38.6143C63.2273 32.4464 58.2186 27.4205 52.0335 27.4205Z" fill="white" stroke="#FF6600"/>
<mask id="path-15-inside-1_232_2168" fill="white">
<path d="M49.8849 41.9185H47.6062C47.6388 42.3254 47.9968 42.6672 48.42 42.6672H55.5492C55.9724 42.6672 56.3142 42.3417 56.3631 41.9347H54.0843H49.8849V41.9185Z"/>
</mask>
<path d="M49.8849 41.9185H47.6062C47.6388 42.3254 47.9968 42.6672 48.42 42.6672H55.5492C55.9724 42.6672 56.3142 42.3417 56.3631 41.9347H54.0843H49.8849V41.9185Z" fill="white"/>
<path d="M49.8849 41.9185H50.8849V40.9185H49.8849V41.9185ZM47.6062 41.9185V40.9185H46.523L46.6094 41.9982L47.6062 41.9185ZM56.3631 41.9347L57.3559 42.0539L57.4902 40.9347H56.3631V41.9347ZM49.8849 41.9347H48.8849V42.9347H49.8849V41.9347ZM49.8849 40.9185H47.6062V42.9185H49.8849V40.9185ZM46.6094 41.9982C46.6829 42.9176 47.4683 43.6672 48.42 43.6672V41.6672C48.4818 41.6672 48.525 41.692 48.5479 41.7133C48.5693 41.7333 48.5978 41.7731 48.603 41.8387L46.6094 41.9982ZM48.42 43.6672H55.5492V41.6672H48.42V43.6672ZM55.5492 43.6672C56.5062 43.6672 57.2501 42.9355 57.3559 42.0539L55.3702 41.8156C55.375 41.7757 55.3937 41.7412 55.4213 41.716C55.4512 41.6886 55.4976 41.6672 55.5492 41.6672V43.6672ZM56.3631 40.9347H54.0843V42.9347H56.3631V40.9347ZM54.0843 40.9347H49.8849V42.9347H54.0843V40.9347ZM50.8849 41.9347V41.9185H48.8849V41.9347H50.8849Z" fill="#FF6600" mask="url(#path-15-inside-1_232_2168)"/>
<path d="M10.5309 6.82397C10.7156 7.04124 10.9102 7.2484 11.1125 7.44317C10.9095 7.63647 10.7133 7.84274 10.5264 8.0632C10.3442 7.84646 10.1513 7.63866 9.94666 7.44256C10.149 7.24966 10.3446 7.04387 10.5309 6.82397Z" fill="white" stroke="#FF6600"/>
<path d="M30.4293 7.79081H29.9835L30.2064 7.10627L30.4293 7.79081Z" fill="white" stroke="#FF6600"/>
<path d="M56.1089 8.53241L56.1154 8.53659L56.1221 8.54056C57.0108 9.07383 57.7631 9.8795 58.327 10.9604C58.542 11.3863 58.9734 11.6556 59.4556 11.6556C59.9147 11.6556 60.3646 11.3927 60.5829 10.963C61.1637 9.87975 61.8987 9.07731 62.78 8.54608C63.1897 8.32129 63.4225 7.88892 63.4225 7.44447C63.4225 6.97908 63.1724 6.5783 62.7891 6.34838C61.9005 5.81516 61.1482 5.00956 60.5843 3.92877C60.3694 3.50273 59.9379 3.23338 59.4556 3.23338C58.9956 3.23338 58.5448 3.49735 58.327 3.92852C57.7639 5.00788 57.013 5.81279 56.1259 6.34606C55.736 6.57153 55.5049 7.00148 55.5049 7.44447C55.5049 7.9058 55.7506 8.30203 56.1089 8.53241ZM26.0846 11.539L26.0842 11.5403C25.8693 12.2117 26.2441 12.9316 26.9126 13.1455L26.9393 13.1541L26.9669 13.1596C26.9707 13.1603 26.9746 13.1611 26.9787 13.162C27.0529 13.1769 27.177 13.2018 27.3091 13.2018C27.8684 13.2018 28.3473 12.8512 28.5298 12.3299L28.5299 12.3299L28.5335 12.3188L29.1702 10.3534H31.258L31.895 12.3334C31.895 12.3335 31.895 12.3336 31.895 12.3337C32.1091 13.0019 32.8289 13.3766 33.5002 13.1618L33.5087 13.1591L33.5171 13.156C34.1642 12.9231 34.545 12.2166 34.3286 11.5403L34.3282 11.5393C33.9403 10.3362 33.5501 9.13147 33.1596 7.92556C32.5822 6.1431 32.004 4.35801 31.4312 2.57156L31.4314 2.57151L31.427 2.55905C31.2446 2.03773 30.7656 1.6871 30.2064 1.6871C29.6657 1.6871 29.149 2.02256 28.9805 2.5748L26.0846 11.539ZM24.7195 4.44297L24.7196 4.44296L24.7179 4.4385C24.1057 2.78728 22.4817 1.6871 20.7008 1.6871C18.3541 1.6871 16.4246 3.54219 16.4246 5.86563V9.03959C16.4246 11.363 18.3541 13.2181 20.7008 13.2181C22.4817 13.2181 24.1057 12.1179 24.7179 10.4667L24.7195 10.4623C24.9516 9.81749 24.6508 9.06619 23.9709 8.81628C23.2988 8.55265 22.5535 8.90424 22.3137 9.57013L22.7842 9.73949L22.3146 9.56789C22.0814 10.206 21.4306 10.6556 20.7008 10.6556C19.7339 10.6556 18.9871 9.91359 18.9871 9.03959V5.86563C18.9871 4.99163 19.7339 4.24966 20.7008 4.24966C21.4303 4.24966 22.0809 4.69883 22.3143 5.33656C22.5617 6.02123 23.3158 6.32481 23.9627 6.09193L23.9709 6.08897L23.979 6.08572C24.636 5.82293 24.9573 5.10332 24.7195 4.44297ZM7.18115 8.53241L7.18766 8.53659L7.19429 8.54056C8.08299 9.07379 8.83523 9.8794 9.39913 10.9602C9.61409 11.3862 10.0456 11.6556 10.5278 11.6556C10.9869 11.6556 11.4368 11.3927 11.6551 10.9631C12.2359 9.87977 12.971 9.07732 13.8522 8.54608C14.2619 8.32129 14.4948 7.88892 14.4948 7.44447C14.4948 6.97908 14.2446 6.5783 13.8614 6.34838C12.9727 5.81516 12.2204 5.00954 11.6565 3.92872C11.4416 3.50271 11.0101 3.23338 10.5278 3.23338C10.0678 3.23338 9.61688 3.49742 9.39915 3.92869C8.83718 5.00581 8.08817 5.80961 7.20344 6.34288C6.79938 6.56462 6.55575 6.99739 6.57725 7.459C6.58235 7.91411 6.82656 8.30445 7.18115 8.53241ZM64.9292 2.61029V14.3015H5.07056V2.62657C5.07056 1.50291 5.98607 0.587402 7.10972 0.587402H62.89C64.0178 0.587402 64.9292 1.49082 64.9292 2.61029ZM46.4993 1.67082C45.7837 1.67082 45.2181 2.23649 45.2181 2.9521V2.96965V2.9872V3.00475V3.0223V3.03984V3.05739V3.07494V3.09249V3.11004V3.12759V3.14513V3.16268V3.18023V3.19778V3.21533V3.23288V3.25042V3.26797V3.28552V3.30307V3.32062V3.33817V3.35571V3.37326V3.39081V3.40836V3.42591V3.44345V3.461V3.47855V3.4961V3.51365V3.5312V3.54874V3.56629V3.58384V3.60139V3.61894V3.63649V3.65403V3.67158V3.68913V3.70668V3.72423V3.74178V3.75932V3.77687V3.79442V3.81197V3.82952V3.84707V3.86461V3.88216V3.89971V3.91726V3.93481V3.95236V3.9699V3.98745V4.005V4.02255V4.0401V4.05765V4.07519V4.09274V4.11029V4.12784V4.14539V4.16294V4.18048V4.19803V4.21558V4.23313V4.25068V4.26823V4.28577V4.30332V4.32087V4.33842V4.35597V4.37352V4.39106V4.40861V4.42616V4.44371V4.46126V4.47881V4.49635V4.5139V4.53145V4.549V4.56655V4.5841V4.60164V4.61919V4.63674V4.65429V4.67184V4.68939V4.70693V4.72448V4.74203V4.75958V4.77713V4.79468V4.81222V4.82977V4.84732V4.86487V4.88242V4.89997V4.91751V4.93506V4.95261V4.97016V4.98771V5.00526V5.0228V5.04035V5.0579V5.07545V5.093V5.11055V5.12809V5.14564V5.16319V5.18074V5.19829V5.21584V5.23338V5.25093V5.26848V5.28603V5.30358V5.32113V5.33867V5.35622V5.37377V5.39132V5.40887V5.42641V5.44396V5.46151V5.47906V5.49661V5.51416V5.5317V5.54925V5.5668V5.58435V5.6019V5.61945V5.63699V5.65454V5.67209V5.68964V5.70719V5.72474V5.74228V5.75983V5.77738V5.79493V5.81248V5.83003V5.84757V5.86512V5.88267V5.90022V5.91777V5.93532V5.95286V5.97041V5.98796V6.00551V6.02306V6.04061V6.05815V6.0757V6.09325V6.1108V6.12835V6.1459V6.16344V6.18099V6.19854V6.21609V6.23364V6.25119V6.26873V6.28628V6.30383V6.32138V6.33893V6.35648V6.37402V6.39157V6.40912V6.42667V6.44422V6.46177V6.47931V6.49686V6.51441V6.53196V6.54951V6.56706V6.5846V6.60215V6.6197V6.63725V6.6548V6.67235V6.68989V6.70744V6.72499V6.74254V6.76009V6.77764V6.79518V6.81273V6.83028V6.84783V6.86538V6.88293V6.90047V6.91802V6.93557V6.95312V6.97067V6.98822V7.00576V7.02331V7.04086V7.05841V7.07596V7.09351V7.11105V7.1286V7.14615V7.1637V7.18125V7.1988V7.21634V7.23389V7.25144V7.26899V7.28654V7.30409V7.32163V7.33918V7.35673V7.37428V7.39183V7.40938V7.42692V7.44447V7.46202V7.47957V7.49712V7.51467V7.53221V7.54976V7.56731V7.58486V7.60241V7.61996V7.6375V7.65505V7.6726V7.69015V7.7077V7.72524V7.74279V7.76034V7.77789V7.79544V7.81299V7.83053V7.84808V7.86563V7.88318V7.90073V7.91828V7.93582V7.95337V7.97092V7.98847V8.00602V8.02357V8.04111V8.05866V8.07621V8.09376V8.11131V8.12886V8.14641V8.16395V8.1815V8.19905V8.2166V8.23415V8.25169V8.26924V8.28679V8.30434V8.32189V8.33944V8.35698V8.37453V8.39208V8.40963V8.42718V8.44473V8.46227V8.47982V8.49737V8.51492V8.53247V8.55002V8.56756V8.58511V8.60266V8.62021V8.63776V8.65531V8.67285V8.6904V8.70795V8.7255V8.74305V8.7606V8.77814V8.79569V8.81324V8.83079V8.84834V8.86589V8.88343V8.90098V8.91853V8.93608V8.95363V8.97118V8.98872V9.00627V9.02382V9.04137V9.05892V9.07647V9.09401V9.11156V9.12911V9.14666V9.16421V9.18176V9.1993V9.21685V9.2344V9.25195V9.2695V9.28705V9.30459V9.32214V9.33969V9.35724V9.37479V9.39234V9.40988V9.42743V9.44498V9.46253V9.48008V9.49763V9.51517V9.53272V9.55027V9.56782V9.58537V9.60292V9.62046V9.63801V9.65556V9.67311V9.69066V9.70821V9.72575V9.7433V9.76085V9.7784V9.79595V9.8135V9.83104V9.84859V9.86614V9.88369V9.90124V9.91879V9.93633V9.95388V9.97143V9.98898V10.0065V10.0241V10.0416V10.0592V10.0767V10.0943V10.1118V10.1294V10.1469V10.1645V10.182V10.1996V10.2171V10.2347V10.2522V10.2698V10.2873V10.3048V10.3224V10.3399V10.3575V10.375V10.3926V10.4101V10.4277V10.4452V10.4628V10.4803V10.4979V10.5154V10.533V10.5505V10.5681V10.5856V10.6032V10.6207V10.6383V10.6558V10.6734V10.6909V10.7085V10.726V10.7436V10.7611V10.7787V10.7962V10.8137V10.8313V10.8488V10.8664V10.8839V10.9015V10.919V10.9366V10.9541V10.9717V10.9892V11.0068V11.0243V11.0419V11.0594V11.077V11.0945V11.1121V11.1296V11.1472V11.1647V11.1823V11.1998V11.2174V11.2349V11.2525V11.27V11.2876V11.3051V11.3227V11.3402V11.3577V11.3753V11.3928V11.4104V11.4279V11.4455V11.463V11.4806V11.4981V11.5157V11.5332V11.5508V11.5683V11.5859V11.6034V11.621V11.6385V11.6561V11.6736V11.6912V11.7087V11.7263V11.7438V11.7614V11.7789V11.7965V11.814V11.8316V11.8491V11.8666V11.8842V11.9017V11.9193V11.9368C45.2181 12.6592 45.8068 13.2181 46.4993 13.2181H51.9846C52.6839 13.2181 53.2659 12.6362 53.2659 11.9368C53.2659 11.2375 52.6839 10.6556 51.9846 10.6556H47.7806V8.72575H51.9846C52.6839 8.72575 53.2659 8.14381 53.2659 7.44447C53.2659 6.74514 52.6839 6.16319 51.9846 6.16319H47.7806V4.23338H52.2939C53.0162 4.23338 53.5751 3.64463 53.5751 2.9521C53.5751 2.25957 53.0162 1.67082 52.2939 1.67082H46.4993ZM36.8961 1.67082C36.1805 1.67082 35.6148 2.23649 35.6148 2.9521V2.96965V2.9872V3.00475V3.0223V3.03984V3.05739V3.07494V3.09249V3.11004V3.12758V3.14513V3.16268V3.18023V3.19778V3.21533V3.23287V3.25042V3.26797V3.28552V3.30307V3.32062V3.33816V3.35571V3.37326V3.39081V3.40836V3.4259V3.44345V3.461V3.47855V3.4961V3.51364V3.53119V3.54874V3.56629V3.58384V3.60138V3.61893V3.63648V3.65403V3.67157V3.68912V3.70667V3.72422V3.74177V3.75931V3.77686V3.79441V3.81196V3.8295V3.84705V3.8646V3.88214V3.89969V3.91724V3.93479V3.95233V3.96988V3.98743V4.00498V4.02252V4.04007V4.05762V4.07516V4.09271V4.11026V4.1278V4.14535V4.1629V4.18044V4.19799V4.21554V4.23308V4.25063V4.26817V4.28572V4.30327V4.32081V4.33836V4.35591V4.37345V4.391V4.40854V4.42609V4.44363V4.46118V4.47873V4.49627V4.51382V4.53136V4.54891V4.56645V4.584V4.60154V4.61909V4.63663V4.65418V4.67172V4.68927V4.70681V4.72436V4.7419V4.75945V4.77699V4.79454V4.81208V4.82962V4.84717V4.86471V4.88226V4.8998V4.91734V4.93489V4.95243V4.96997V4.98752V5.00506V5.0226V5.04015V5.05769V5.07523V5.09278V5.11032V5.12786V5.14541V5.16295V5.18049V5.19803V5.21558V5.23312V5.25066V5.2682V5.28574V5.30329V5.32083V5.33837V5.35591V5.37345V5.39099V5.40853V5.42608V5.44362V5.46116V5.4787V5.49624V5.51378V5.53132V5.54886V5.5664V5.58394V5.60148V5.61902V5.63656V5.6541V5.67164V5.68918V5.70672V5.72426V5.7418V5.75934V5.77688V5.79441V5.81195V5.82949V5.84703V5.86457V5.88211V5.89964V5.91718V5.93472V5.95226V5.9698V5.98733V6.00487V6.02241V6.03995V6.05748V6.07502V6.09256V6.11009V6.12763V6.14517V6.1627V6.18024V6.19777V6.21531V6.23284V6.25038V6.26792V6.28545V6.30299V6.32052V6.33806V6.35559V6.37313V6.39066V6.40819V6.42573V6.44326V6.4608V6.47833V6.49586V6.5134V6.53093V6.54846V6.566V6.58353V6.60106V6.61859V6.63613V6.65366V6.67119V6.68872V6.70625V6.72379V6.74132V6.75885V6.77638V6.79391V6.81144V6.82897V6.8465V6.86403V6.88156V6.89909V6.91662V6.93415V6.95168V6.96921V6.98674V7.00427V7.0218V7.03933V7.05686V7.07438V7.09191V7.10944V7.12697V7.1445V7.16202V7.17955V7.19708V7.2146V7.23213V7.24966V7.26718V7.28471V7.30224V7.31976V7.33729V7.35481V7.37234V7.38986V7.40739V7.42491V7.44244V7.45996V7.47749V7.49501V7.51253V7.53006V7.54758V7.5651V7.58263V7.60015V7.61767V7.6352V7.65272V7.67024V7.68776V7.70528V7.72281V7.74033V7.75785V7.77537V7.79289V7.81041V7.82793V7.84545V7.86297V7.88049V7.89801V7.91553V7.93305V7.95057V7.96808V7.9856V8.00312V8.02064V8.03816V8.05568V8.07319V8.09071V8.10823V8.12574V8.14326V8.16078V8.17829V8.19581V8.21332V8.23084V8.24835V8.26587V8.28338V8.3009V8.31841V8.33593V8.35344V8.37096V8.38847V8.40598V8.4235V8.44101V8.45852V8.47603V8.49354V8.51106V8.52857V8.54608V8.56359V8.5811V8.59861V8.61612V8.63363V8.65114V8.66865V8.68616V8.70367V8.72118V8.73869V8.7562V8.77371V8.79121V8.80872V8.82623V8.84374V8.86125V8.87875V8.89626V8.91376V8.93127V8.94878V8.96628V8.98379V9.00129V9.0188V9.0363V9.05381V9.07131V9.08881V9.10632V9.12382V9.14132V9.15883V9.17633V9.19383V9.21134V9.22884V9.24634V9.26384V9.28134V9.29884V9.31634V9.33384V9.35134V9.36884V9.38634V9.40384V9.42134V9.43884V9.45634V9.47383V9.49133V9.50883V9.52633V9.54382V9.56132V9.57882V9.59631V9.61381V9.6313V9.6488V9.6663V9.68379V9.70129V9.71878V9.73627V9.75377V9.77126V9.78875V9.80625V9.82374V9.84123V9.85872V9.87621V9.89371V9.9112V9.92869V9.94618V9.96367V9.98116V9.99865V10.0161V10.0336V10.0511V10.0686V10.0861V10.1036V10.1211V10.1386V10.156V10.1735V10.191V10.2085V10.226V10.2435V10.261V10.2784V10.2959V10.3134V10.3309V10.3484V10.3659V10.3833V10.4008V10.4183V10.4358V10.4533V10.4708V10.4882V10.5057V10.5232V10.5407V10.5582V10.5756V10.5931V10.6106V10.6281V10.6456V10.663V10.6805V10.698V10.7155V10.7329V10.7504V10.7679V10.7854V10.8028V10.8203V10.8378V10.8553V10.8727V10.8902V10.9077V10.9252V10.9426V10.9601V10.9776V10.9951V11.0125V11.03V11.0475V11.0649V11.0824V11.0999V11.1173V11.1348V11.1523V11.1698V11.1872V11.2047V11.2222V11.2396V11.2571V11.2746V11.292V11.3095V11.327V11.3444V11.3619V11.3793V11.3968V11.4143V11.4317V11.4492V11.4667V11.4841V11.5016V11.5191V11.5365V11.554V11.5714V11.5889V11.6064V11.6238V11.6413V11.6587V11.6762V11.6936V11.7111V11.7286V11.746V11.7635V11.7809V11.7984V11.8158V11.8333V11.8508V11.8682V11.8857V11.9031V11.9206C35.6148 12.6429 36.2036 13.2018 36.8961 13.2018C37.6117 13.2018 38.1774 12.6362 38.1774 11.9206V8.72575H42.3813C43.0807 8.72575 43.6626 8.14381 43.6626 7.44447C43.6626 6.74514 43.0807 6.16319 42.3813 6.16319H38.1774V4.23338H42.6906C43.3899 4.23338 43.9719 3.65144 43.9719 2.9521C43.9719 2.25957 43.413 1.67082 42.6906 1.67082H36.8961Z" fill="white" stroke="#FF6600"/>
<path d="M1.29443 67.4287V65.4175H1.32546H1.45822H1.59098H1.72374H1.8565H1.98926H2.12202H2.25478H2.38754H2.5203H2.65307H2.78583H2.91859H3.05135H3.18412H3.31688H3.44964H3.58241H3.71517H3.84794H3.9807H4.11347H4.24624H4.379H4.51177H4.64454H4.7773H4.91007H5.04284H5.17561H5.30838H5.44115H5.57392H5.70669H5.83946H5.97223H6.105H6.23777H6.37054H6.50331H6.63609H6.76886H6.90163H7.0344H7.16718H7.29995H7.43273H7.5655H7.69828H7.83105H7.96383H8.0966H8.22938H8.36216H8.49493H8.62771H8.76049H8.89327H9.02605H9.15882H9.2916H9.42438H9.55716H9.68994H9.82272H9.9555H10.0883H10.2211H10.3538H10.4866H10.6194H10.7522H10.885H11.0178H11.1505H11.2833H11.4161H11.5489H11.6817H11.8145H11.9473H12.08H12.2128H12.3456H12.4784H12.6112H12.744H12.8768H13.0095H13.1423H13.2751H13.4079H13.5407H13.6735H13.8063H13.9391H14.0719H14.2047H14.3374H14.4702H14.603H14.7358H14.8686H15.0014H15.1342H15.267H15.3998H15.5326H15.6654H15.7982H15.931H16.0638H16.1965H16.3293H16.4621H16.5949H16.7277H16.8605H16.9933H17.1261H17.2589H17.3917H17.5245H17.6573H17.7901H17.9229H18.0557H18.1885H18.3213H18.4541H18.5869H18.7197H18.8525H18.9853H19.1181H19.2509H19.3837H19.5165H19.6493H19.7821H19.9149H20.0477H20.1805H20.3133H20.4461H20.5789H20.7117H20.8445H20.9774H21.1102H21.243H21.3758H21.5086H21.6414H21.7742H21.907H22.0398H22.1726H22.3054H22.4382H22.571H22.7038H22.8367H22.9695H23.1023H23.2351H23.3679H23.5007H23.6335H23.7663H23.8991H24.0319H24.1647H24.2976H24.4304H24.5632H24.696H24.8288H24.9616H25.0944H25.2272H25.3601H25.4929H25.6257H25.7585H25.8913H26.0241H26.1569H26.2898H26.4226H26.5554H26.6882H26.821H26.9538H27.0867H27.2195H27.3523H27.4851H27.6179H27.7507H27.8836H28.0164H28.1492H28.282H28.4148H28.5476H28.6805H28.8133H28.9461H29.0789H29.2117H29.3446H29.4774H29.6102H29.743H29.8758H30.0087H30.1415H30.2743H30.4071H30.54H30.6728H30.8056H30.9384H31.0712H31.2041H31.3369H31.4697H31.6025H31.7354H31.8682H32.001H32.1338H32.2667H32.3995H32.5323H32.6651H32.798H32.9308H33.0636H33.1964H33.3293H33.4621H33.5949H33.7277H33.8606H33.9934H34.1262H34.2591H34.3919H34.5247H34.6575H34.7904H34.9232H35.056H35.1889H35.3217H35.4545H35.5873H35.7202H35.853H35.9858H36.1187H36.2515H36.3843H36.5171H36.65H36.7828H36.9156H37.0485H37.1813H37.3141H37.447H37.5798H37.7126H37.8455H37.9783H38.1111H38.244H38.3768H38.5096H38.6425H38.7753H38.9081H39.041H39.1738H39.3066H39.4395H39.5723H39.7051H39.838H39.9708H40.1036H40.2365H40.3693H40.5021H40.635H40.7678H40.9007H41.0335H41.1663H41.2992H41.432H41.5648H41.6977H41.8305H41.9633H42.0962H42.229H42.3619H42.4947H42.6275H42.7604H42.8932H43.0261H43.1589H43.2917H43.4246H43.5574H43.6902H43.8231H43.9559H44.0888H44.2216H44.3544H44.4873H44.6201H44.753H44.8858H45.0186H45.1515H45.2843H45.4172H45.55H45.6828H45.8157H45.9485H46.0814H46.2142H46.3471H46.4799H46.6127H46.7456H46.8784H47.0113H47.1441H47.277H47.4098H47.5426H47.6755H47.8083H47.9412H48.074H48.2069H48.3397H48.4725H48.6054H48.7382H48.8711H49.0039H49.1368H49.2696H49.4025H49.5353H49.6681H49.801H49.9338H50.0667H50.1995H50.3324H50.4652H50.5981H50.7309H50.8637H50.9966H51.1294H51.2623H51.3951H51.528H51.6608H51.7937H51.9265H52.0594H52.1922H52.3251H52.4579H52.5907H52.7236H52.8564H52.9893H53.1221H53.255H53.3878H53.5207H53.6535H53.7864H53.9192H54.0521H54.1849H54.3178H54.4506H54.5835H54.7163H54.8492H54.982H55.1149H55.2477H55.3806H55.5134H55.6462H55.7791H55.9119H56.0448H56.1776H56.3105H56.4433H56.5762H56.709H56.8419H56.9747H57.1076H57.2404H57.3733H57.5061H57.639H57.7718H57.9047H58.0375H58.1704H58.3032H58.4361H58.5689H58.7018H58.8346H58.9675H59.1003H59.2332H59.366H59.4989H59.6317H59.7646H59.8974H60.0303H60.1631H60.296H60.4288H60.5617H60.6945H60.8274H60.9602H61.0931H61.2259H61.3588H61.4916H61.6245H61.7574H61.8902H62.0231H62.1559H62.2888H62.4216H62.5545H62.6873H62.8202H62.953H63.0859H63.2187H63.3516H63.4844H63.6173H63.7501H63.883H64.0158H64.1487H64.2815H64.4144H64.5472H64.6801H64.8129H64.9458H65.0786H65.2115H65.3443H65.4772H65.61H65.7429H65.8758H66.0086H66.1415H66.2743H66.4072H66.54H66.6729H66.8057H66.9386H67.0714H67.2043H67.3371H67.47H67.6028H67.7357H67.8685H68.0014H68.1342H68.2671H68.3999H68.5328H68.6656H68.7217V67.4287H1.29443Z" fill="white" stroke="#FF6600"/>
<path d="M5.61245 26.4765H5.25436C3.7368 26.4765 2.49902 25.2485 2.49902 23.7374V20.9658H8.36779V23.7212C8.36779 25.2355 7.12675 26.4765 5.61245 26.4765Z" fill="white" stroke="#FF6600"/>
<path d="M3.53837 18.4034L4.50528 16.8643H65.4962L66.473 18.4034H3.53837Z" fill="white" stroke="#FF6600"/>
<path d="M59.475 6.82397C59.6597 7.04124 59.8543 7.2484 60.0566 7.44317C59.853 7.63704 59.6562 7.84396 59.4688 8.06515C59.2841 7.84787 59.0895 7.64071 58.8872 7.44595C59.0908 7.25207 59.2876 7.04515 59.475 6.82397Z" fill="white" stroke="#FF6600"/>
<path d="M53.1846 20.9658H59.0696V23.7212C59.0696 24.5314 58.7071 25.2899 58.1072 25.8069C56.6248 25.1198 55.0114 24.6747 53.3147 24.5315C53.2293 24.2663 53.1846 23.9923 53.1846 23.7212V20.9658Z" fill="white" stroke="#FF6600"/>
<path d="M56.1793 59.3476L56.1858 59.3377L56.1917 59.3276C56.3015 59.141 56.4159 58.9672 56.5401 58.7784C56.5441 58.7723 56.5481 58.7663 56.5521 58.7603H67.5334V62.8549H53.9093C54.5052 61.9092 55.2201 60.8153 56.0046 59.615C56.0625 59.5264 56.1207 59.4373 56.1793 59.3476Z" fill="white" stroke="#FF6600"/>
<path d="M61.6322 23.7212L61.6322 23.7187L61.6185 20.9658H67.501V23.7212C67.501 25.2355 66.26 26.4765 64.7457 26.4765H64.3876C62.8717 26.4765 61.6322 25.2501 61.6322 23.7212Z" fill="white" stroke="#FF6600"/>
<path d="M47.0137 39.1823L47.0137 39.1824L47.0156 39.1885C47.0971 39.4455 47.1865 39.6646 47.2831 39.8557H46.8411C46.1188 39.8557 45.5599 40.4445 45.5599 41.137V41.8532C45.5599 43.4315 46.858 44.7296 48.4363 44.7296H55.5655C57.1492 44.7296 58.4386 43.4272 58.4581 41.8267H58.4581V41.8207V41.1208C58.4581 40.4598 57.9384 39.9037 57.2909 39.8447C57.3098 39.8364 57.3286 39.8281 57.3474 39.8198L57.3554 39.8162L57.3633 39.8124C58.0414 39.482 58.5675 39.0978 58.8926 38.8088L58.9035 38.799L58.9139 38.7887L58.9144 38.7882L58.9149 38.7877L58.9154 38.7872L58.9158 38.7867L58.9163 38.7863L58.9168 38.7858L58.9173 38.7853L58.9177 38.7848L58.9182 38.7844L58.9187 38.7839L58.9192 38.7834L58.9196 38.7829L58.9201 38.7825L58.9206 38.782L58.9211 38.7815L58.9216 38.781L58.922 38.7805L58.9225 38.7801L58.923 38.7796L58.9235 38.7791L58.9239 38.7786L58.9244 38.7782L58.9249 38.7777L58.9254 38.7772L58.9258 38.7767L58.9263 38.7763L58.9268 38.7758L58.9273 38.7753L58.9278 38.7748L58.9282 38.7743L58.9287 38.7739L58.9292 38.7734L58.9297 38.7729L58.9301 38.7724L58.9306 38.772L58.9311 38.7715L58.9316 38.771L58.932 38.7705L58.9325 38.7701L58.933 38.7696L58.9335 38.7691L58.934 38.7686L58.9344 38.7681L58.9349 38.7677L58.9354 38.7672L58.9359 38.7667L58.9363 38.7662L58.9368 38.7658L58.9373 38.7653L58.9378 38.7648L58.9382 38.7643L58.9387 38.7639L58.9392 38.7634L58.9397 38.7629L58.9402 38.7624L58.9406 38.7619L58.9411 38.7615L58.9416 38.761L58.9421 38.7605L58.9425 38.76L58.943 38.7596L58.9435 38.7591L58.944 38.7586L58.9444 38.7581L58.9449 38.7577L58.9454 38.7572L58.9459 38.7567L58.9464 38.7562L58.9468 38.7557L58.9473 38.7553L58.9478 38.7548L58.9483 38.7543L58.9487 38.7538L58.9492 38.7534L58.9497 38.7529L58.9502 38.7524L58.9506 38.7519L58.9511 38.7515L58.9516 38.751L58.9521 38.7505L58.9526 38.75L58.953 38.7495L58.9535 38.7491L58.954 38.7486L58.9545 38.7481L58.9549 38.7476L58.9554 38.7472L58.9559 38.7467L58.9564 38.7462L58.9568 38.7457L58.9573 38.7453L58.9578 38.7448L58.9583 38.7443L58.9587 38.7438L58.9592 38.7434L58.9597 38.7429L58.9602 38.7424L58.9607 38.7419L58.9611 38.7414L58.9616 38.741L58.9621 38.7405L58.9626 38.74L58.963 38.7395L58.9635 38.7391L58.964 38.7386L58.9645 38.7381L58.9649 38.7376L58.9654 38.7372L58.9659 38.7367L58.9664 38.7362L58.9669 38.7357L58.9673 38.7352L58.9678 38.7348L58.9683 38.7343L58.9688 38.7338L58.9692 38.7333L58.9697 38.7329L58.9702 38.7324L58.9707 38.7319L58.9711 38.7314L58.9716 38.731L58.9721 38.7305L58.9726 38.73L58.9731 38.7295L58.9735 38.729L58.974 38.7286L58.9745 38.7281L58.975 38.7276L58.9754 38.7271L58.9759 38.7267L58.9764 38.7262L58.9769 38.7257L58.9773 38.7252L58.9778 38.7248L58.9783 38.7243L58.9788 38.7238L58.9793 38.7233L58.9797 38.7228L58.9802 38.7224L58.9807 38.7219L58.9812 38.7214L58.9816 38.7209L58.9821 38.7205L58.9826 38.72L58.9831 38.7195L58.9835 38.719L58.984 38.7186L58.9845 38.7181L58.985 38.7176L58.9855 38.7171L58.9859 38.7166L58.9864 38.7162L58.9869 38.7157L58.9874 38.7152L58.9878 38.7147L58.9883 38.7143L58.9888 38.7138L58.9893 38.7133L58.9897 38.7128L58.9902 38.7124L58.9907 38.7119L58.9912 38.7114L58.9917 38.7109L58.9921 38.7104L58.9926 38.71L58.9931 38.7095L58.9936 38.709L58.994 38.7085L58.9945 38.7081L58.995 38.7076L58.9955 38.7071L58.9959 38.7066L58.9964 38.7062L58.9969 38.7057L58.9974 38.7052L58.9979 38.7047L58.9983 38.7042L58.9988 38.7038L58.9993 38.7033L58.9998 38.7028L59.0002 38.7023L59.0007 38.7019L59.0012 38.7014L59.0017 38.7009L59.0021 38.7004L59.0026 38.7L59.0031 38.6995L59.0036 38.699L59.0041 38.6985L59.0045 38.698L59.005 38.6976L59.0055 38.6971L59.006 38.6966L59.0064 38.6961L59.0069 38.6957L59.0074 38.6952L59.0079 38.6947L59.0083 38.6942L59.0088 38.6938L59.0093 38.6933L59.0098 38.6928L59.0103 38.6923L59.0107 38.6918L59.0112 38.6914L59.0117 38.6909L59.0122 38.6904L59.0126 38.6899L59.0131 38.6895L59.0136 38.689L59.0141 38.6885L59.0145 38.688L59.015 38.6876L59.0155 38.6871L59.016 38.6866L59.0164 38.6861L59.0169 38.6857L59.0174 38.6852L59.0179 38.6847L59.0184 38.6842L59.0188 38.6837L59.0193 38.6833L59.0198 38.6828L59.0203 38.6823L59.0207 38.6818L59.0212 38.6814L59.0217 38.6809L59.0222 38.6804L59.0226 38.6799L59.0231 38.6795L59.0236 38.679L59.0241 38.6785L59.0246 38.678L59.025 38.6775L59.0255 38.6771L59.026 38.6766L59.0265 38.6761L59.0269 38.6756L59.0274 38.6752L59.0279 38.6747L59.0284 38.6742L59.0288 38.6737L59.0293 38.6733L59.0298 38.6728L59.0303 38.6723L59.0308 38.6718L59.0312 38.6713L59.0317 38.6709L59.0322 38.6704L59.0327 38.6699L59.0331 38.6694L59.0336 38.669L59.0341 38.6685L59.0346 38.668L59.035 38.6675L59.0355 38.6671L59.036 38.6666L59.0365 38.6661L59.037 38.6656L59.0374 38.6651L59.0379 38.6647L59.0384 38.6642L59.0389 38.6637L59.0393 38.6632L59.0398 38.6628L59.0403 38.6623L59.0408 38.6618L59.0412 38.6613L59.0417 38.6609L59.0422 38.6604L59.0427 38.6599L59.0432 38.6594L59.0436 38.6589L59.0441 38.6585L59.0446 38.658L59.0451 38.6575L59.0455 38.657L59.046 38.6566L59.0465 38.6561L59.047 38.6556L59.0474 38.6551L59.0479 38.6547L59.0484 38.6542L59.0489 38.6537L59.0494 38.6532L59.0498 38.6527L59.0503 38.6523L59.0508 38.6518L59.0513 38.6513L59.0517 38.6508L59.0522 38.6504L59.0527 38.6499L59.0532 38.6494L59.0536 38.6489L59.0541 38.6485L59.0546 38.648L59.0551 38.6475L59.0556 38.647L59.056 38.6465L59.0565 38.6461L59.057 38.6456L59.0575 38.6451L59.0579 38.6446L59.0584 38.6442L59.0589 38.6437L59.0594 38.6432L59.0598 38.6427L59.0603 38.6423L59.0608 38.6418L59.0613 38.6413L59.0618 38.6408L59.0622 38.6403L59.0627 38.6399L59.0632 38.6394L59.0637 38.6389L59.0641 38.6384L59.0646 38.638L59.0651 38.6375L59.0656 38.637L59.066 38.6365L59.0665 38.6361L59.067 38.6356L59.0675 38.6351L59.0679 38.6346L59.0684 38.6341L59.0689 38.6337L59.0694 38.6332L59.0699 38.6327L59.0703 38.6322L59.0708 38.6318L59.0713 38.6313L59.0718 38.6308L59.0722 38.6303L59.0727 38.6299L59.0732 38.6294L59.0737 38.6289L59.0741 38.6284L59.0746 38.628L59.0751 38.6275L59.0756 38.627L59.0761 38.6265L59.0765 38.626L59.077 38.6256L59.0775 38.6251L59.078 38.6246L59.0784 38.6241L59.0789 38.6237L59.0794 38.6232L59.0799 38.6227L59.0803 38.6222L59.0808 38.6218L59.0813 38.6213L59.0818 38.6208L59.0823 38.6203L59.0827 38.6198L59.0832 38.6194L59.0837 38.6189L59.0842 38.6184L59.0846 38.6179L59.0851 38.6175L59.0856 38.617L59.0861 38.6165L59.0865 38.616L59.087 38.6156L59.0875 38.6151L59.088 38.6146L59.0885 38.6141L59.0889 38.6136L59.0894 38.6132L59.0899 38.6127L59.0904 38.6122L59.0908 38.6117L59.0913 38.6113L59.0918 38.6108L59.0923 38.6103L59.0927 38.6098L59.0932 38.6094L59.0937 38.6089L59.0942 38.6084L59.0947 38.6079L59.0951 38.6074L59.0956 38.607L59.0961 38.6065L59.0966 38.606L59.097 38.6055L59.0975 38.6051L59.098 38.6046L59.0985 38.6041L59.0989 38.6036L59.0994 38.6032L59.0999 38.6027L59.1004 38.6022L59.1009 38.6017L59.1013 38.6012L59.1018 38.6008L59.1023 38.6003L59.1028 38.5998L59.1032 38.5993L59.1037 38.5989L59.1042 38.5984L59.1047 38.5979L59.1051 38.5974L59.1056 38.597L59.1061 38.5965L59.1066 38.596L59.1071 38.5955L59.1075 38.595L59.108 38.5946L59.1085 38.5941L59.109 38.5936L59.1094 38.5931L59.1099 38.5927L59.1104 38.5922L59.1109 38.5917L59.1113 38.5912L59.1118 38.5908L59.1123 38.5903L59.1128 38.5898L59.1133 38.5893L59.1137 38.5888L59.1142 38.5884L59.1147 38.5879L59.1152 38.5874L59.1156 38.5869L59.1161 38.5865L59.1166 38.586L59.1171 38.5855L59.1175 38.585L59.118 38.5846L59.1185 38.5841L59.119 38.5836L59.1194 38.5831L59.1199 38.5826L59.1204 38.5822L59.1209 38.5817L59.1214 38.5812L59.1218 38.5807L59.1223 38.5803L59.1228 38.5798L59.1233 38.5793L59.1237 38.5788L59.1242 38.5784L59.1247 38.5779L59.1252 38.5774L59.1257 38.5769L59.1261 38.5765L59.1266 38.576L59.1271 38.5755L59.1276 38.575L59.128 38.5745L59.1285 38.5741L59.129 38.5736L59.1295 38.5731L59.1299 38.5726L59.1304 38.5722L59.1309 38.5717L59.1314 38.5712L59.1318 38.5707L59.1323 38.5703L59.1328 38.5698L59.1333 38.5693L59.1338 38.5688L59.1342 38.5683L59.1347 38.5679L59.1352 38.5674L59.1357 38.5669L59.1361 38.5664L59.1366 38.566L59.1371 38.5655L59.1376 38.565L59.138 38.5645L59.1385 38.5641L59.139 38.5636L59.1395 38.5631L59.14 38.5626L59.1404 38.5621L59.1409 38.5617L59.1414 38.5612L59.1419 38.5607L59.1423 38.5602L59.1428 38.5598L59.1433 38.5593L59.1438 38.5588L59.1442 38.5583L59.1447 38.5579L59.1452 38.5574L59.1457 38.5569L59.1462 38.5564L59.1466 38.5559L59.1471 38.5555L59.1476 38.555L59.1481 38.5545L59.1485 38.554L59.149 38.5536L59.1495 38.5531L59.15 38.5526L59.1504 38.5521L59.1509 38.5517L59.1514 38.5512L59.1519 38.5507L59.1524 38.5502L59.1528 38.5497L59.1533 38.5493L59.1538 38.5488L59.1543 38.5483L59.1547 38.5478L59.1552 38.5474L59.1557 38.5469L59.1562 38.5464L59.1566 38.5459L59.1571 38.5455L59.1576 38.545L59.1581 38.5445L59.1642 38.5384L59.17 38.5321C59.6836 37.9819 60.0619 37.2746 60.1773 36.5436L60.1776 36.5423C60.2167 36.2902 60.2262 36.0379 60.2075 35.7905C60.5142 36.6752 60.6809 37.6252 60.6809 38.6141C60.6809 43.3832 56.8036 47.2454 52.0497 47.2454C47.2963 47.2454 43.4185 43.3675 43.4185 38.6141C43.4185 33.8602 47.2806 29.9829 52.0497 29.9829C54.9644 29.9829 57.5496 31.4348 59.1137 33.6574C59.1041 33.6495 59.0944 33.6417 59.0846 33.6339C58.5562 33.2083 57.9137 33.0164 57.2627 33.0513C57.2397 33.0239 57.215 32.9971 57.1886 32.9707C56.9478 32.7299 56.6251 32.5963 56.2816 32.5963H47.7364C47.3929 32.5963 47.0702 32.7299 46.8294 32.9707C46.5886 33.2114 46.4551 33.5341 46.4551 33.8776C46.4551 33.9618 46.4676 34.8603 46.5417 35.9423C46.6148 37.0108 46.7512 38.3161 47.0137 39.1823Z" fill="white" stroke="#FF6600"/>
<path d="M62.0084 28.4746C62.723 28.8352 63.5304 29.0392 64.3875 29.0392H64.7618C65.7722 29.0392 66.7138 28.752 67.5172 28.2639V32.1083H64.7874C64.0565 30.7512 63.114 29.5265 62.0084 28.4746Z" fill="white" stroke="#FF6600"/>
<path d="M66.4827 38.9398C66.4827 37.4543 66.2604 36.0294 65.8472 34.687H67.5169L67.5014 56.1977H58.194C60.0824 53.272 62.054 50.1051 63.5969 47.1791C64.4368 45.5863 65.1548 44.0555 65.6637 42.6671C66.1701 41.2858 66.4827 40.0108 66.4827 38.9398Z" fill="white" stroke="#FF6600"/>
</svg>
