<svg width="100" height="100" viewBox="0 0 100 100" fill="none" xmlns="http://www.w3.org/2000/svg">
<path d="M12.7105 47.9175C12.4661 47.5511 11.9709 47.4522 11.6047 47.6966C11.5993 47.7002 11.5939 47.7038 11.5886 47.7076C10.4522 48.4624 9.38465 49.3164 8.39882 50.2594C8.08164 50.5676 8.07467 51.0746 8.38287 51.3917C8.69108 51.7089 9.19805 51.7159 9.51523 51.4077L9.5551 51.4157C10.46 50.5323 11.442 49.7317 12.4897 49.0234C12.8561 48.779 12.955 48.284 12.7105 47.9175Z" fill="#FF6600"/>
<path d="M16.5248 45.8734C16.3346 45.4779 15.8607 45.3104 15.4642 45.4986C15.0416 45.698 14.6668 45.9053 14.2362 46.1126C13.8486 46.3218 13.7041 46.8056 13.9132 47.1932C14.0532 47.4523 14.3245 47.6134 14.6189 47.6118C14.7499 47.6112 14.8785 47.5783 14.9937 47.5161C15.3765 47.3168 15.7912 47.1174 16.158 46.934C16.5505 46.741 16.7142 46.2677 16.5248 45.8734Z" fill="#FF6600"/>
<path d="M90.8296 19.6297H90.4308C89.9763 17.5484 87.7594 15.9695 85.104 15.9695C84.0205 15.9579 82.9529 16.233 82.01 16.7669C80.8852 15.7917 79.3108 15.5241 77.9271 16.0732C76.7874 14.7933 75.1429 14.079 73.4296 14.1195C72.1142 14.0993 70.8284 14.511 69.7694 15.2917C68.1745 13.8244 65.3197 12.8994 62.114 12.8994C59.6761 12.8194 57.267 13.4452 55.1764 14.7016C54.5424 14.3154 53.8133 14.1137 53.0711 14.1195C50.9538 14.1193 49.186 15.7347 48.9963 17.8435C48.6019 17.7954 48.2052 17.7715 47.8081 17.7717C44.7459 17.7717 42.2261 19.0954 41.4286 20.9614C37.7525 20.9614 34.8897 22.9391 34.8897 25.4191C34.8897 27.8991 37.8003 29.8687 41.5163 29.8687C42.925 29.8843 44.3177 29.5703 45.5832 28.9517C46.5766 29.5593 47.7202 29.8769 48.8846 29.8687C50.2054 29.855 51.4968 29.477 52.6166 28.7763C63.2623 31.9899 68.4377 39.6373 68.4377 52.1809C68.4339 52.2339 68.4339 52.2874 68.4377 52.3404H66.2048C66.098 52.3406 65.9921 52.3623 65.8938 52.4042C65.3408 50.3647 64.425 48.4415 63.1906 46.7265C62.8477 46.2161 62.5287 45.7297 62.2336 45.2113L62.0821 44.9402C59.8653 41.0567 58.5256 38.7202 54.7537 38.481C52.8718 38.3534 50.6549 39.8765 49.8256 40.4985C44.2436 39.3183 36.7796 39.1588 30.1689 39.1588C13.8773 39.1588 2.5219 47.6116 2.52988 55.1872C2.68936 57.0851 2.60962 62.3003 0.384785 63.648C0.00899539 63.8752 -0.112214 64.3639 0.113658 64.7405C0.340927 65.1162 0.829553 65.2375 1.20614 65.0116C4.67497 62.9223 4.18854 55.8491 4.11677 55.1154C4.11677 49.1188 14.0289 40.7617 30.1689 40.7617C36.8354 40.7617 44.3871 40.9212 49.8495 42.1492C50.0879 42.2026 50.3377 42.144 50.5273 41.9897C51.2131 41.4315 53.2944 39.9961 54.6501 40.0759C57.5687 40.2593 58.5495 41.9817 60.6946 45.7376L60.8541 46.0088C61.173 46.567 61.5239 47.1013 61.8588 47.6036C63.3341 49.8364 64.8572 52.141 65.0486 58.0978C65.1435 61.6564 65.0583 65.2175 64.7934 68.7675C62.3054 66.439 60.6148 62.388 60.4554 57.7071C60.6148 57.7071 60.7743 57.7071 60.9418 57.7071H61.3884C61.8287 57.7077 62.1862 57.351 62.1868 56.9107C62.1868 56.8971 62.1864 56.8834 62.1858 56.8698C62.1643 56.43 61.7905 56.0907 61.3505 56.1122C61.3499 56.1122 61.3491 56.1122 61.3485 56.1122C60.2448 56.1734 59.1446 55.9424 58.1588 55.4424C57.7668 55.2398 57.2848 55.3934 57.0822 55.7853C56.8797 56.1772 57.0332 56.6593 57.4251 56.8618C57.9064 57.1046 58.4115 57.297 58.9323 57.436C58.9448 61.0513 59.9787 64.5897 61.9147 67.6431C61.9147 71.1997 61.0774 75.5536 60.6228 76.1118C60.3001 76.4095 60.2785 76.9123 60.575 77.2362C60.7271 77.4003 60.9412 77.493 61.1651 77.4914C61.3664 77.4908 61.5602 77.4138 61.7073 77.2761C62.6324 76.4228 63.2225 72.4915 63.4298 69.533C63.8205 69.9419 64.2418 70.3203 64.6897 70.6654C64.5635 72.5533 64.1909 74.4163 63.5813 76.2075C62.8875 77.8024 61.6994 78.7912 60.6228 78.6875C59.7297 78.6158 59.028 77.7545 58.6292 76.2952C58.517 75.868 58.0796 75.6128 57.6524 75.7251C57.2252 75.8373 56.97 76.2747 57.0822 76.7019C57.6484 78.8311 58.8924 80.1229 60.4952 80.2505H60.7504C62.441 80.2505 64.0996 78.9268 65.0406 76.8136C65.6516 75.1164 66.0402 73.3473 66.1969 71.5505C67.2876 72.1033 68.4909 72.3982 69.7136 72.4118C70.1539 72.4118 70.511 72.0547 70.511 71.6143C70.511 71.1739 70.1539 70.8169 69.7136 70.8169C68.5092 70.8446 67.3203 70.5412 66.2766 69.9397C66.6165 65.9942 66.7312 62.0326 66.6195 58.0739C66.5862 56.6946 66.4529 55.3194 66.2208 53.9592H89.8328C90.2731 53.9592 90.6302 53.6021 90.6302 53.1617C90.6302 52.7214 90.2731 52.3643 89.8328 52.3643H76.0372C76.0448 52.3115 76.0448 52.2576 76.0372 52.2048C76.0372 42.4522 80.9095 32.9787 87.8791 29.1829C88.8121 29.2707 89.7849 29.3185 90.7897 29.3185C98.3972 29.3185 100 26.695 100 24.494C100 22.2931 98.4371 19.6297 90.8296 19.6297ZM90.8296 27.6758V27.6918C86.5553 27.6918 82.5682 26.7907 80.8935 25.4589C80.5516 25.1856 80.0535 25.239 79.7771 25.5786C78.9797 26.5753 77.026 27.2372 74.9447 27.2372C72.3451 27.2372 70.511 26.2723 69.9528 25.3632C69.7524 25.0401 69.3519 24.9033 68.9959 25.0363C63.8126 26.9581 57.1301 25.6902 57.0344 25.6742C56.6052 25.5754 56.1771 25.8433 56.0785 26.2725C55.987 26.67 56.2102 27.0725 56.5958 27.2053C63.6929 29.9644 69.6179 35.9771 71.6912 42.5878C71.7839 42.8902 72.0468 43.1093 72.361 43.146H72.4487C72.7348 43.1472 72.9996 42.9951 73.1425 42.7473C74.6229 40.2248 76.2804 37.8106 78.1025 35.5225C78.2568 35.4127 78.3671 35.2516 78.4135 35.068C78.9743 32.819 78.4028 30.4381 76.8825 28.6885C78.1891 28.4994 79.4235 27.9715 80.4629 27.1575C82.004 28.0147 83.6868 28.5875 85.4309 28.848C78.884 33.4253 74.4423 42.6994 74.4423 52.2128C74.4349 52.2656 74.4349 52.3194 74.4423 52.3723H70.0006C70.0044 52.3192 70.0044 52.2658 70.0006 52.2128C70.0006 39.1987 64.7216 31.1606 53.9084 27.6359C54.344 27.0544 54.4989 26.3094 54.3311 25.6025C54.2232 25.1753 53.7894 24.9165 53.3622 25.0243C52.935 25.1322 52.6762 25.566 52.7841 25.9932C52.8425 26.2984 52.7506 26.613 52.5369 26.8385C51.5658 27.8253 50.2371 28.3775 48.8527 28.3696C47.8591 28.3883 46.8878 28.0739 46.0936 27.4764C45.8472 27.2829 45.5103 27.2518 45.2324 27.3967C44.1106 28.0414 42.8337 28.3668 41.5403 28.3377C38.813 28.3377 36.5085 27.0299 36.5085 25.4829C36.5085 23.9358 38.813 22.6201 41.5403 22.6201H41.9948C42.3847 22.6265 42.7221 22.3498 42.7922 21.9662C43.0155 20.6983 44.9533 19.3825 47.8001 19.3825C48.4231 19.3823 49.0439 19.4545 49.6502 19.5978C49.9127 19.6596 50.1886 19.5847 50.3838 19.3985C50.579 19.2115 50.6659 18.9383 50.615 18.6728C50.5875 18.5229 50.5744 18.3708 50.5752 18.2183C50.5664 16.8443 51.673 15.7231 53.0472 15.7143C53.0552 15.7143 53.0632 15.7143 53.0711 15.7143C53.658 15.7113 54.2258 15.924 54.666 16.3124C54.9644 16.5676 55.4042 16.5676 55.7027 16.3124C57.0344 15.196 59.4905 14.5022 62.0821 14.5022C65.1602 14.5022 68.015 15.4751 69.0357 16.8945C69.1761 17.0875 69.3956 17.2075 69.6338 17.2215C69.8714 17.2346 70.1023 17.1411 70.2638 16.9663C71.1007 16.1294 72.2466 15.6762 73.4296 15.7143C74.8287 15.6408 76.1636 16.3066 76.9463 17.4687C77.0555 17.6569 77.2371 17.7924 77.4486 17.8435C77.6639 17.8981 77.8922 17.8606 78.0786 17.7398C79.1195 17.0634 80.5048 17.2954 81.2683 18.2741C81.5375 18.6212 82.0367 18.6854 82.3847 18.4176C83.1728 17.8337 84.1311 17.5253 85.112 17.5404C87.2172 17.5404 88.9317 18.8243 88.9317 20.3394V20.4192C88.9305 20.6351 89.0168 20.8422 89.1709 20.9933C89.3266 21.1436 89.5367 21.2242 89.753 21.2166C90.1119 21.2166 90.4707 21.2166 90.8375 21.2166C93.6764 21.2166 98.453 21.6392 98.453 24.4542C98.453 27.2691 93.6684 27.6758 90.8296 27.6758ZM76.9303 34.4699C75.3931 36.3953 73.9684 38.4082 72.664 40.4985C70.3256 35.1164 66.3271 30.6233 61.2528 27.6758C63.8696 27.7882 66.4867 27.4621 68.9959 26.7109C70.3788 28.0095 72.1948 28.7483 74.0915 28.7842C76.6991 29.4541 77.3131 32.4604 76.9303 34.4699Z" fill="#FF6600"/>
<path d="M21.5407 81.3591V73.7835C21.6487 73.1976 21.9039 72.649 22.2823 72.1886C22.5289 71.834 22.7476 71.4608 22.9362 71.0722C23.1168 70.6735 22.9426 70.2038 22.5454 70.0196C22.1459 69.8342 21.6718 70.0077 21.4864 70.4072C21.4858 70.4082 21.4854 70.4094 21.4848 70.4104C21.3319 70.7224 21.1531 71.0212 20.9506 71.3035C20.385 72.0076 20.0359 72.8609 19.9458 73.7596V82.1565C19.9458 82.5969 20.3029 82.954 20.7432 82.954H21.3094C21.87 82.963 22.3847 83.2658 22.665 83.7514H20.7432C20.3029 83.7514 19.9458 84.1085 19.9458 84.5488C19.9458 84.9892 20.3029 85.3463 20.7432 85.3463H23.6459C24.0863 85.3463 24.4433 84.9892 24.4433 84.5488C24.4501 82.8936 23.1894 81.508 21.5407 81.3591Z" fill="#FF6600"/>
<path d="M51.2368 79.9318L50.4394 71.16C50.3973 70.7252 50.0133 70.4055 49.5781 70.4423C49.1401 70.4804 48.8156 70.8656 48.8525 71.3036L49.6499 80.7531C49.6872 81.1652 50.0335 81.4804 50.4473 81.4788H51.0055C51.6279 81.4762 52.1999 81.8207 52.4888 82.3719H50.5111C50.0707 82.3713 49.7133 82.728 49.7127 83.1684C49.7127 83.1819 49.7131 83.1957 49.7137 83.2092C49.7137 83.6496 50.0707 84.0067 50.5111 84.0067H53.5573C53.9977 84.0067 54.3547 83.6496 54.3547 83.2092C54.3488 81.4629 52.9808 80.0249 51.2368 79.9318Z" fill="#FF6600"/>
<path d="M59.5059 48.409C59.4654 48.3123 59.4088 48.2234 59.3385 48.1458C59.1092 47.9195 58.7663 47.8536 58.4693 47.9784C58.3706 48.0148 58.2809 48.0721 58.2061 48.1458C58.1357 48.2234 58.0791 48.3123 58.0386 48.409C57.994 48.5037 57.9721 48.6073 57.9748 48.712C57.9736 48.9239 58.0568 49.1277 58.2061 49.2782C58.2844 49.3378 58.374 49.381 58.4693 49.4058C58.8817 49.5601 59.3412 49.3507 59.4955 48.9383C59.5591 48.7682 59.5629 48.5814 59.5059 48.409Z" fill="#FF6600"/>
<path d="M57.5387 59.3376C57.5355 59.3364 57.5322 59.335 57.529 59.3338C57.4492 59.3338 55.5673 58.5843 53.4062 57.9383C53.3705 56.7719 53.2155 55.6122 52.9437 54.4775C52.8446 54.0371 52.4073 53.7604 51.9669 53.8595C51.5265 53.9585 51.2498 54.3959 51.3489 54.8363C52.226 58.5843 51.6678 61.7899 50.0331 62.4677C49.0602 62.8665 47.6966 62.388 46.2931 61.152C44.5143 59.4662 43.1307 57.4074 42.2422 55.1234C40.1848 50.1554 40.5915 46.0885 42.0189 44.7568C42.2508 44.5714 42.5442 44.4803 42.8403 44.5016L48.4223 45.299C48.8581 45.3556 49.2576 45.0488 49.3154 44.6132C49.377 44.1772 49.0736 43.7739 48.6376 43.7121L42.9918 42.9147H42.8801C42.1886 42.9073 41.5193 43.1607 41.0062 43.6244C38.7893 45.6499 38.7175 50.6339 40.8387 55.7534C41.8189 58.2607 43.3442 60.5186 45.3043 62.3641C46.3874 63.4502 47.8254 64.1099 49.3553 64.2221C49.8174 64.2243 50.2755 64.1348 50.7029 63.9589C52.1862 63.3449 53.0952 61.774 53.3504 59.605C55.2961 60.203 56.9628 60.833 56.9787 60.841C57.0696 60.8787 57.1673 60.8976 57.2658 60.8968C57.5928 60.8868 57.8804 60.6781 57.9915 60.3705C58.1516 59.9602 57.9488 59.4979 57.5387 59.3376Z" fill="#FF6600"/>
<path d="M45.2083 53.4888C44.1477 51.1763 44.1796 49.087 44.8096 48.465C45.1266 48.1594 45.1359 47.6544 44.8301 47.3374C44.8259 47.3331 44.8218 47.3289 44.8176 47.3247C44.5066 47.0155 44.0042 47.0155 43.6932 47.3247C42.4492 48.5447 42.4731 51.3517 43.757 54.1507C43.8854 54.4364 44.1693 54.6206 44.4826 54.6212C44.5965 54.6222 44.7089 54.5947 44.8096 54.5414C45.2097 54.3602 45.3881 53.8897 45.2083 53.4888Z" fill="#FF6600"/>
<path d="M17.8085 12.4131C13.7303 12.4131 10.4243 15.719 10.4243 19.7973C10.4243 23.8756 13.7303 27.1815 17.8085 27.1815C21.885 27.1771 25.1884 23.8736 25.1928 19.7973C25.1928 15.7192 21.8868 12.4131 17.8085 12.4131ZM17.8085 25.5867C14.6112 25.5867 12.0192 22.9946 12.0192 19.7973C12.0192 16.6 14.6112 14.008 17.8085 14.008C21.0058 14.008 23.5979 16.6 23.5979 19.7973C23.5979 22.9948 21.006 25.5867 17.8085 25.5867Z" fill="#FF6600"/>
<path d="M11.1705 12.027C11.1689 12.0254 11.1676 12.0238 11.166 12.0224L9.57109 10.4275C9.26069 10.1149 8.75552 10.1131 8.44273 10.4235C8.12993 10.7339 8.12834 11.2391 8.43874 11.5519L10.0336 13.1547C10.3438 13.4675 10.8486 13.4695 11.1614 13.1593C11.163 13.1577 11.1646 13.1563 11.166 13.1547C11.4788 12.8445 11.4807 12.3398 11.1705 12.027Z" fill="#FF6600"/>
<path d="M27.2309 28.0474C27.2293 28.0458 27.2279 28.0442 27.2263 28.0428L25.6314 26.4479C25.3189 26.1353 24.8117 26.1351 24.4991 26.4479C24.1865 26.7605 24.1865 27.2677 24.4991 27.5803L26.094 29.1751C26.4042 29.4877 26.9089 29.4899 27.2217 29.1797C27.2233 29.1781 27.2249 29.1767 27.2263 29.1751C27.5391 28.8649 27.5411 28.3601 27.2309 28.0474Z" fill="#FF6600"/>
<path d="M11.1579 26.4478C10.8453 26.1352 10.3381 26.1352 10.0255 26.4478L8.43067 28.0427C8.11808 28.3529 8.11589 28.8577 8.42609 29.1705C8.42768 29.1721 8.42908 29.1736 8.43067 29.175C8.58119 29.3244 8.78493 29.4075 8.99685 29.4063C9.20877 29.4075 9.41251 29.3244 9.56303 29.175L11.1579 27.5802C11.4707 27.2676 11.4707 26.7606 11.1579 26.4478Z" fill="#FF6600"/>
<path d="M26.996 10.4472C26.7283 10.2548 26.3698 10.247 26.0939 10.4277L24.499 12.0225C24.1864 12.3327 24.1842 12.8375 24.4944 13.1503C24.496 13.1519 24.4974 13.1535 24.499 13.1549C24.6495 13.3042 24.8533 13.3873 25.0652 13.3861C25.2606 13.3752 25.445 13.2928 25.5835 13.1549L27.1784 11.56C27.4354 11.2024 27.3536 10.7042 26.996 10.4472Z" fill="#FF6600"/>
<path d="M7.63359 19H7.61764H5.36091C4.92053 19 4.56348 19.3571 4.56348 19.7974C4.56348 20.2378 4.92053 20.5949 5.36091 20.5949H7.63359C8.07397 20.5949 8.43102 20.2378 8.43102 19.7974C8.43102 19.3571 8.07397 19 7.63359 19Z" fill="#FF6600"/>
<path d="M30.2726 19H28.0079C27.5675 19 27.2104 19.3571 27.2104 19.7974C27.2104 20.2378 27.5675 20.5949 28.0079 20.5949H30.2726C30.713 20.5949 31.07 20.2378 31.07 19.7974C31.07 19.3571 30.713 19 30.2726 19Z" fill="#FF6600"/>
<path d="M17.8087 6.53613C17.3683 6.53613 17.0112 6.89318 17.0112 7.33357V9.60625C17.0112 10.0466 17.3683 10.4037 17.8087 10.4037C18.249 10.4037 18.6061 10.0466 18.6061 9.60625V7.33357C18.6061 6.89318 18.249 6.53613 17.8087 6.53613Z" fill="#FF6600"/>
<path d="M17.8087 29.1992C17.3683 29.1992 17.0112 29.5563 17.0112 29.9967V32.2614C17.0112 32.7017 17.3683 33.0588 17.8087 33.0588C18.249 33.0588 18.6061 32.7017 18.6061 32.2614V29.9967C18.6061 29.5563 18.249 29.1992 17.8087 29.1992Z" fill="#FF6600"/>
<path d="M77.7835 58.7197H71.2525C70.8121 58.7197 70.4551 59.0768 70.4551 59.5172C70.4551 59.9575 70.8121 60.3146 71.2525 60.3146H77.7835C78.2239 60.3146 78.5809 59.9575 78.5809 59.5172C78.5809 59.0768 78.2239 58.7197 77.7835 58.7197Z" fill="#FF6600"/>
<path d="M53.6773 86.6141H48.9725C48.6443 85.3145 47.5387 84.3586 46.2054 84.2218C46.2771 82.0368 46.5004 76.0162 46.8194 73.7994C46.955 72.8425 47.242 71.4709 47.569 69.884C47.8321 68.6161 48.1192 67.2206 48.3664 65.7852C48.448 65.3448 48.1569 64.9218 47.7165 64.8402C47.2761 64.7587 46.8531 65.0497 46.7716 65.4901C46.5084 66.9175 46.2213 68.3051 45.9741 69.565C45.6392 71.1599 45.3521 72.5713 45.1767 73.5522C44.77 76.3671 44.5387 84.6205 44.5228 84.9714C44.5194 85.1861 44.6027 85.393 44.754 85.5456C44.902 85.7007 45.1059 85.7898 45.3202 85.7928H45.8625C46.4203 85.8045 46.9312 86.1069 47.2101 86.5902H39.8339V74.6287C39.7625 72.9988 39.4005 71.3947 38.7653 69.892C38.3242 69.0265 37.8371 68.1855 37.306 67.3721C36.2853 65.7772 35.3204 64.1823 35.0971 62.412C34.7782 59.8842 35.4081 57.6992 36.1338 55.4983C36.2546 55.0749 36.0094 54.6335 35.5858 54.5127C35.1845 54.3982 34.7628 54.6124 34.6187 55.0039C33.6648 57.4195 33.2878 60.0245 33.5182 62.6114C33.6994 63.8687 34.1161 65.0808 34.7463 66.1839C32.5868 66.9925 30.298 67.4004 27.992 67.388C25.643 67.3992 23.3087 67.0164 21.0863 66.2557C21.3201 65.0226 21.4401 63.7707 21.4451 62.5157C21.4471 61.2611 21.3323 60.009 21.1022 58.7758C21.0229 58.3354 20.6016 58.0425 20.1612 58.1219C19.7209 58.2012 19.428 58.6224 19.5073 59.0628C19.7161 60.1912 19.8201 61.3363 19.8183 62.4838C19.9172 65.7004 19.0022 68.8667 17.2028 71.5347C16.076 72.9842 15.4542 74.7625 15.4325 76.5984V84.9953C15.4325 85.4357 15.7895 85.7928 16.2299 85.7928H16.7721C17.33 85.8045 17.8409 86.1069 18.1198 86.5902H10.6798V75.1869C10.6891 74.2396 10.3018 73.3315 9.61121 72.683C7.35447 70.6256 5.95099 66.7501 5.95099 62.4679C5.9492 61.668 5.99983 60.8688 6.1025 60.0756C6.15972 59.6352 5.84912 59.2317 5.40874 59.1745C4.96835 59.1173 4.56485 59.4278 4.50764 59.8682C4.40218 60.7334 4.34895 61.6042 4.34815 62.4758C4.34815 67.1488 5.94302 71.5187 8.5267 73.8711C8.88853 74.215 9.08829 74.6959 9.07692 75.1949V86.5663L3.82185 86.5583C3.38146 86.5583 3.02441 86.9153 3.02441 87.3557C3.02441 87.7961 3.38146 88.1532 3.82185 88.1532H19.1325C19.5729 88.1532 19.93 87.7961 19.93 87.3557C19.9368 85.7004 18.676 84.3149 17.0273 84.166V76.5984C17.0497 75.1078 17.5594 73.6652 18.4787 72.4916C19.5119 71.0666 20.2741 69.4635 20.7274 67.7628C23.0695 68.5447 25.523 68.9406 27.992 68.935C30.5797 68.9558 33.1476 68.4849 35.5597 67.5475C35.6872 67.7628 35.8228 67.9701 35.9584 68.1854C36.4556 68.9592 36.9133 69.7578 37.33 70.5777C37.8648 71.8738 38.1724 73.2521 38.239 74.6526V87.4115C38.239 87.8519 38.5961 88.209 39.0365 88.209H53.6773C54.1177 88.209 54.4747 87.8519 54.4747 87.4115C54.4747 86.9712 54.1177 86.6141 53.6773 86.6141Z" fill="#FF6600"/>
<path d="M88.4128 86.5581H77.48C77.0397 86.5581 76.6826 86.9152 76.6826 87.3555C76.6826 87.7959 77.0397 88.153 77.48 88.153H88.4128C88.8532 88.153 89.2103 87.7959 89.2103 87.3555C89.2103 86.9152 88.8532 86.5581 88.4128 86.5581Z" fill="#FF6600"/>
<path d="M72.4646 86.5581H70.8697C70.4293 86.5581 70.0723 86.9152 70.0723 87.3555C70.0723 87.7959 70.4293 88.153 70.8697 88.153H72.4646C72.9049 88.153 73.262 87.7959 73.262 87.3555C73.262 86.9152 72.9049 86.5581 72.4646 86.5581Z" fill="#FF6600"/>
<path d="M90.9889 70.3385C89.5023 70.3357 88.1155 71.0861 87.3047 72.3321C86.4977 71.0738 85.1074 70.311 83.6126 70.3066C83.1723 70.3066 82.8152 70.6637 82.8152 71.1041C82.8152 71.5445 83.1723 71.9015 83.6126 71.9015C85.0995 71.9085 86.3197 73.0797 86.3877 74.5649H78.0226C77.5823 74.5645 77.225 74.9214 77.2246 75.3618C77.2246 75.3725 77.2248 75.3835 77.2252 75.3943C77.2252 75.8346 77.5823 76.1917 78.0226 76.1917H87.9427C88.3831 76.1917 88.7401 75.8346 88.7401 75.3943C88.7367 75.0615 88.5268 74.7659 88.2138 74.6526C88.2485 73.1437 89.4795 71.9374 90.9889 71.9334C91.4293 71.9334 91.7863 71.5764 91.7863 71.136C91.7863 70.6956 91.4293 70.3385 90.9889 70.3385Z" fill="#FF6600"/>
<path d="M92.9908 74.5967H91.7867C91.3463 74.5967 90.9893 74.9537 90.9893 75.3941C90.9893 75.8345 91.3463 76.1915 91.7867 76.1915H92.9908C93.4312 76.1915 93.7882 75.8345 93.7882 75.3941C93.7882 74.9537 93.4312 74.5967 92.9908 74.5967Z" fill="#FF6600"/>
<path d="M30.2409 91.8691H18.2794C17.839 91.8691 17.4819 92.2262 17.4819 92.6666C17.4819 93.107 17.839 93.464 18.2794 93.464H30.2409C30.6812 93.464 31.0383 93.107 31.0383 92.6666C31.0383 92.2262 30.6812 91.8691 30.2409 91.8691Z" fill="#FF6600"/>
<path d="M84.4102 58.7197H82.5123C82.0719 58.7197 81.7148 59.0768 81.7148 59.5172C81.7148 59.9575 82.0719 60.3146 82.5123 60.3146H84.4102C84.8505 60.3146 85.2076 59.9575 85.2076 59.5172C85.2076 59.0768 84.8505 58.7197 84.4102 58.7197Z" fill="#FF6600"/>
<path d="M89.0194 47.6118H81.4039C80.9635 47.6118 80.6064 47.9689 80.6064 48.4092C80.6064 48.8496 80.9635 49.2067 81.4039 49.2067H89.0194C89.4597 49.2067 89.8168 48.8496 89.8168 48.4092C89.8168 47.9689 89.4597 47.6118 89.0194 47.6118Z" fill="#FF6600"/>
</svg>
