<svg width="107" height="102" viewBox="0 0 107 102" fill="none" xmlns="http://www.w3.org/2000/svg">
<path d="M99.2258 11.7527C99.2258 11.7527 101.484 9.60215 101.484 4.22581C101.484 4.22581 100.355 1 98.0968 1C95.8387 1 90.1935 8.52688 87.9355 8.52688C85.6774 8.52688 83.4194 9.60215 81.1613 11.7527C78.9032 13.9032 76.6452 16.0538 74.3871 16.0538C72.129 16.0538 67.6129 19.2796 65.3548 16.0538C65.3548 16.0538 65.3548 21.4301 71 22.5054C71 22.5054 67.6129 25.7312 58.5806 30.0323C58.5806 30.0323 50.6774 28.957 45.0323 32.1828H25.8387C25.8387 32.1828 7.77419 31.1075 1 54.7634V74.1183C1 74.1183 7.77419 73.043 10.0323 66.5914V64.4409C10.0323 64.4409 10.0323 62.2903 11.1613 62.2903C12.2903 62.2903 14.5484 71.9677 3.25806 80.5699V87.0215C3.25806 87.0215 2.12903 95.6237 10.0323 101H15.6774C15.6774 101 17.9355 101 17.9355 98.8495C17.9355 96.6989 14.5484 93.4731 11.1613 92.3979C11.1613 92.3979 8.90323 90.2473 11.1613 83.7957C11.1613 83.7957 13.4194 77.3441 17.9355 74.1183C22.4516 70.8925 24.7097 65.5161 24.7097 65.5161V71.9677C24.7097 71.9677 23.5806 78.4194 20.1935 80.5699C20.1935 80.5699 19.0645 91.3226 28.0968 97.7742H37.129C37.129 97.7742 37.129 92.3979 32.6129 92.3979H30.3548C30.3548 92.3979 28.0968 88.0968 28.0968 83.7957C28.0968 79.4946 34.871 62.2903 40.5161 59.0645C40.5161 59.0645 46.1613 61.2151 51.8065 61.2151C57.4516 61.2151 61.9677 60.1398 61.9677 60.1398V74.1183C61.9677 74.1183 63.0968 78.4194 63.0968 80.5699V93.4731C63.0968 93.4731 63.0968 96.6989 67.6129 98.8495H71C71 98.8495 73.2581 98.8495 73.2581 96.6989C73.2581 96.6989 73.2581 94.5484 69.871 93.4731C69.871 93.4731 67.6129 91.3226 67.6129 89.172C67.6129 87.0215 67.6129 74.1183 72.129 70.8925C72.129 70.8925 73.2581 84.871 75.5161 91.3226C75.5161 91.3226 75.5161 95.6237 80.0323 96.6989H85.6774C85.6774 96.6989 85.6774 92.3979 82.2903 91.3226C82.2903 91.3226 80.0323 90.2473 80.0323 87.0215C80.0323 83.7957 80.0323 74.1183 80.0323 74.1183C80.0323 74.1183 89.0645 60.1398 89.0645 47.2366C89.0645 47.2366 94.7097 40.7849 96.9677 30.0323V23.5806C96.9677 23.5806 96.9677 20.3548 100.355 18.2043C103.742 16.0538 106 16.0538 106 12.828C106 12.828 106 10.6774 102.613 11.7527C99.2258 12.828 99.2258 11.7527 99.2258 11.7527Z" fill="white" stroke="#FF6600"/>
</svg>
