<svg width="103" height="76" viewBox="0 0 103 76" fill="none" xmlns="http://www.w3.org/2000/svg">
<path fill-rule="evenodd" clip-rule="evenodd" d="M59.4571 45.313C60.2106 45.7007 60.6277 46.154 60.8615 46.6217C61.1609 47.224 61.1626 47.8903 61.0347 48.6079C60.9523 49.0772 60.8144 49.5754 60.7522 50.0928C60.6799 50.703 60.7253 51.3486 61.2534 51.9989C62.1801 53.141 62.7217 55.454 62.947 58.1498C63.3641 63.157 62.8293 69.5225 62.6561 71.3453L63.8906 72.0533C64.195 72.2343 64.3464 72.5675 64.2791 72.9038L63.8334 74.9269L67.991 74.6738C67.7639 74.3438 67.5621 73.9738 67.3838 73.567C66.7229 72.0613 66.3814 70.0174 66.2738 67.714C65.8735 59.0932 68.7091 46.7386 68.7091 46.7386C68.7613 46.5096 68.916 46.3141 69.133 46.2036C72.7894 44.3423 74.4645 42.4442 75.1154 40.7944C75.4468 39.955 75.5006 39.1974 75.4383 38.5759C75.2315 38.7569 74.9321 38.8354 74.6411 38.7553C64.7029 36.0659 63.8973 32.7726 64.4893 30.2818C64.9232 27.8295 64.1899 25.4733 63.1707 23.5271C61.7596 20.8297 59.7868 18.8979 59.3983 18.5327C58.4346 18.7986 57.5011 19.0213 56.5996 19.2071C57.3817 21.5281 59.1998 28.3677 55.752 33.873C55.6527 34.0589 54.504 36.2533 54.3964 38.8354C54.324 40.5605 54.721 42.4715 56.2969 44.03C56.4163 44.1485 56.4903 44.2943 56.5189 44.4449C57.338 44.5874 58.004 44.7508 58.5405 44.9318C58.7137 44.8934 58.9004 44.9078 59.0753 44.9831C59.2419 45.0535 59.373 45.1721 59.4571 45.313ZM61.0532 36.1892C60.4074 36.1908 59.7885 36.2565 59.2536 36.3798C58.0965 36.6473 57.3212 37.2368 57.1042 37.916C56.9057 38.5375 57.0756 39.3832 58.1554 40.309C59.2906 41.2797 61.6099 42.5003 65.7087 43.8922C66.146 44.0412 66.627 43.8234 66.7834 43.4069C66.9381 42.9904 66.7111 42.5323 66.2738 42.3834C62.4896 41.0987 60.3267 40.0143 59.2805 39.1173C59.0636 38.9331 58.9038 38.7617 58.8012 38.5999C58.7457 38.5134 58.6919 38.4478 58.7137 38.3805C58.7541 38.2539 58.9139 38.1947 59.0854 38.1178C59.4353 37.9624 59.8911 37.8663 60.3956 37.8199C61.3778 37.7302 62.5316 37.8359 63.4987 38.1626C64.0588 38.3533 64.5549 38.6111 64.8829 38.9731L64.9064 38.9988C65.2058 39.3287 65.7322 39.3704 66.0837 39.0869C66.4386 38.8018 66.484 38.2972 66.1847 37.9592C65.6061 37.3025 64.6928 36.8171 63.6501 36.5272C62.8327 36.2998 61.9379 36.1908 61.0886 36.1892H61.0532Z" fill="white" stroke="#FF6600"/>
<path fill-rule="evenodd" clip-rule="evenodd" d="M54.5073 72.2358H54.4602L55.0875 72.4569C55.0842 72.4553 55.0825 72.4537 55.0808 72.4505L54.5073 72.2358Z" fill="white" stroke="#FF6600"/>
<path fill-rule="evenodd" clip-rule="evenodd" d="M7.02461 31.5584C7.99842 31.4415 17.1024 30.4724 24.1865 34.2366C24.5918 34.4529 24.7365 34.9414 24.5111 35.3259C24.284 35.7119 23.7711 35.8512 23.3657 35.635C17.1899 32.3529 9.37251 32.9232 7.56281 33.1106C8.17838 34.6115 9.00418 35.9906 9.77952 37.1775C9.99481 37.0125 10.2572 36.8459 10.5666 36.689C12.452 35.7343 16.248 35.0231 20.9876 37.6196C21.3895 37.8407 21.5274 38.3308 21.297 38.7136C21.0649 39.0965 20.5503 39.2278 20.1483 39.0084C16.1454 36.8139 12.9499 37.2961 11.3554 38.1034C11.1015 38.2331 10.8526 38.4285 10.7029 38.5551C10.7382 38.6047 10.7718 38.656 10.8055 38.7056C11.5606 39.8189 11.8247 40.9417 11.7574 42.0245C12.3545 41.7875 13.1231 41.5328 13.9792 41.3742C15.3415 41.1227 16.9107 41.1227 18.3554 41.7698C18.7759 41.9573 18.9575 42.4346 18.7608 42.835C18.5623 43.2355 18.0611 43.4069 17.6423 43.2195C16.539 42.7261 15.3381 42.7549 14.2987 42.9472C12.7026 43.2419 11.4564 43.9339 11.3807 43.9771L11.3672 43.9851C11.3336 44.0027 11.2999 44.0188 11.2646 44.0332C11.0847 44.4593 10.8643 44.8725 10.6154 45.2714C9.33719 47.3088 7.27353 48.925 6.33336 49.5978C6.67982 51.0394 6.7841 53.1842 6.73532 55.5436C6.63273 60.5236 5.88598 66.4838 5.62024 68.4685L6.62432 68.7552C6.95901 68.8641 7.17598 69.1172 7.22139 69.4504L7.49049 72.2791L11.3824 72.38C9.75261 69.6346 9.20096 66.3461 9.17909 63.2675C9.14209 58.1626 10.5481 53.6599 10.6339 53.3908C10.6507 53.3364 10.6743 53.2819 10.7029 53.2306L10.7163 53.2082L10.7298 53.189C10.7617 53.141 10.7987 53.0961 10.8391 53.0561C16.5794 47.2928 19.7699 44.8229 21.8672 43.2371C24.8878 40.9529 25.5387 40.5701 28.5846 34.3007C28.7797 33.8987 29.2809 33.7241 29.7014 33.9099C30.1218 34.0957 30.3069 34.5714 30.1118 34.9735C29.6257 35.973 29.1951 36.8331 28.8049 37.5796C33.4587 43.133 36.3953 43.3236 44.8568 43.6968C43.4524 41.5712 42.7578 39.4825 42.5038 37.5491C41.0675 36.0627 39.8683 34.8774 39.0913 33.0513C38.3025 31.1948 37.9459 28.6608 38.3042 24.4193C38.5363 21.6658 36.4625 19.8606 33.9818 18.624C29.9352 16.6089 24.7062 16.114 24.7062 16.114C24.5161 16.0964 24.3496 16.0195 24.2201 15.9058C20.5587 16.0339 18.1755 16.6394 17.8172 16.7371C17.7247 16.7755 17.6322 16.8156 17.5414 16.8556C19.4856 17.8135 25.7338 20.772 33.0668 23.0129C33.4133 23.1186 33.6504 23.4246 33.6521 23.7721C33.6521 23.7721 33.6538 33.5254 37.1386 38.2139C37.4061 38.5759 37.3169 39.0756 36.9368 39.3303C36.5584 39.5866 36.0336 39.5001 35.7645 39.1397C32.5824 34.8565 32.0678 26.6185 31.9854 24.3616C23.2144 21.6193 16.1135 17.9512 16.1135 17.9512C15.9789 17.8808 15.873 17.7815 15.7973 17.6645C13.7521 18.6769 12.1157 19.7244 10.824 20.7928C14.366 20.961 22.4945 22.1656 29.5164 29.1958C29.8359 29.5162 29.8225 30.0239 29.4861 30.3283C29.1497 30.6342 28.6182 30.6214 28.297 30.301C19.7077 21.701 9.37419 22.3722 9.15555 22.3866C8.02028 23.6616 7.31725 24.9543 6.94556 26.2453C6.90351 26.3911 6.86483 26.5368 6.83119 26.6826C7.10534 26.6874 7.44508 26.689 7.76463 26.6794C10.9064 26.5785 17.1663 26.2277 22.1716 28.6864C22.5837 28.8899 22.7468 29.3736 22.5332 29.766C22.3213 30.1585 21.8134 30.3123 21.4013 30.1104C15.984 27.4483 9.0025 28.3437 6.66637 28.2972C6.64787 28.2972 6.63105 28.2956 6.61255 28.2956C6.56714 29.4136 6.73028 30.5077 7.02461 31.5584Z" fill="white" stroke="#FF6600"/>
<path fill-rule="evenodd" clip-rule="evenodd" d="M52.5514 45.6094C52.136 49.1029 50.3784 63.4117 48.9152 68.358L49.9159 68.9939C50.1968 69.1861 50.3263 69.4824 50.2741 69.8092L49.7897 72.2359H53.5925C53.1417 69.2246 51.7693 59.0516 57.5348 46.3062C56.4214 45.9986 54.8236 45.7647 52.5514 45.6094Z" fill="white" stroke="#FF6600"/>
<path fill-rule="evenodd" clip-rule="evenodd" d="M27.9572 39.1284C26.6605 41.3757 25.7489 42.2919 24.3076 43.4276C23.5036 44.0603 22.5264 44.7603 21.1978 45.8175C21.228 45.9104 21.2415 46.0113 21.2348 46.1138C20.9421 50.0046 18.0274 51.1755 16.5625 51.5183C17.1192 58.3162 19.3208 67.1821 19.7799 68.9778L21.4988 69.934C21.7074 70.0574 21.8436 70.24 21.8991 70.469L22.2607 72.1941L26.1997 71.9603C22.661 68.0231 21.2062 64.4143 20.8917 61.2908C20.3602 56.0353 23.0562 52.1013 24.8188 50.1423C25.3806 49.5176 25.8482 49.0915 26.0887 48.8849C27.2475 45.8736 29.6475 43.5782 31.2773 42.2887C30.1924 41.4959 29.1228 40.4691 27.9572 39.1284Z" fill="white" stroke="#FF6600"/>
<path fill-rule="evenodd" clip-rule="evenodd" d="M4.96425 29.3756C4.91716 28.7188 4.92725 28.0525 5.00798 27.3797C4.99789 27.266 5.01303 27.1443 5.05844 27.0129C5.08871 26.8255 5.12403 26.6381 5.1644 26.4507C3.3177 28.2223 -0.173884 32.4926 1.29776 38.3968C2.66176 43.8717 2.43471 45.8067 2.08488 47.6824C1.8696 48.8469 1.59209 49.9874 1.65768 52.0665C1.68459 52.917 1.87969 53.6539 1.95537 53.9118C2.10842 53.8413 2.3893 53.7083 2.5844 53.585C3.09569 53.2598 3.65071 52.8738 4.20068 52.6431C4.47315 52.5294 4.74729 52.4493 5.01639 52.4141C4.9508 51.24 4.81289 50.2357 4.57069 49.518C4.45465 49.1769 4.59088 48.8053 4.90371 48.6066C4.90371 48.6066 5.38977 48.2975 6.06588 47.7625C5.98179 47.6632 5.92124 47.543 5.89433 47.4085C4.84484 42.113 4.86671 29.7472 4.86671 29.7472C4.86839 29.6126 4.90202 29.4861 4.96425 29.3756Z" fill="white" stroke="#FF6600"/>
<path fill-rule="evenodd" clip-rule="evenodd" d="M19.2435 47.4292C18.8398 47.7736 18.4109 48.1468 17.9535 48.5521C17.496 48.9589 17.0116 49.3962 16.4969 49.8719C17.3665 49.6012 18.6464 48.9541 19.2435 47.4292Z" fill="white" stroke="#FF6600"/>
<path fill-rule="evenodd" clip-rule="evenodd" d="M6.61755 34.9834C6.71174 38.6899 6.93038 43.5209 7.44504 46.5483C8.05892 45.9444 8.68122 45.2316 9.17065 44.45C10.0822 42.9955 10.5431 41.2752 9.39265 39.5741C8.55003 38.3327 7.49213 36.763 6.61755 34.9834Z" fill="white" stroke="#FF6600"/>
<path fill-rule="evenodd" clip-rule="evenodd" d="M52.0131 43.9693H52.0282C52.8305 44.0174 53.5604 44.075 54.2231 44.1407C52.9902 42.446 52.6421 40.5335 52.7161 38.7715C52.8439 35.7041 54.2685 33.1188 54.2685 33.1188L54.292 33.0771C57.5616 27.8873 55.6123 21.3777 54.9412 19.5132C53.33 19.7775 51.8314 19.9216 50.459 19.9809C51.5304 22.0712 53.3233 27.4324 49.8468 36.0485C49.6803 36.4601 49.1942 36.6667 48.7603 36.5082C48.3264 36.3496 48.1111 35.8851 48.2776 35.4734C50.676 29.5292 50.3917 25.2876 49.7173 22.7552C49.5172 24.0318 49.1875 25.4462 48.6409 26.5402C48.0321 27.756 47.1524 28.5857 46.0172 28.7395C45.0938 30.274 41.6729 36.9198 46.9573 43.7915C47.9581 43.838 49.0277 43.8924 50.1765 43.9597C50.2151 43.9629 51.0763 43.9645 51.6111 43.9677C51.7019 43.9469 51.7995 43.9389 51.897 43.9501C51.9374 43.9533 51.9761 43.9613 52.0131 43.9693Z" fill="white" stroke="#FF6600"/>
<path fill-rule="evenodd" clip-rule="evenodd" d="M75.075 37.2081C74.9825 37.0031 74.9085 36.891 74.9085 36.891C74.8463 36.7997 74.8042 36.6971 74.7857 36.5882C74.4056 34.4114 75.1372 32.1304 76.3768 30.0145C75.3223 29.622 69.1565 26.9454 64.9821 16.6123C63.6769 17.1505 62.4105 17.6102 61.1877 18.0011C62.0455 18.9029 63.5323 20.6248 64.676 22.8128C65.8449 25.0457 66.6488 27.7543 66.1442 30.5687L66.1342 30.6135C65.8617 31.7428 66.0837 32.9938 67.8883 34.272C69.2978 35.2683 71.5599 36.255 75.075 37.2081Z" fill="white" stroke="#FF6600"/>
<path fill-rule="evenodd" clip-rule="evenodd" d="M33.6757 16.7085C34.044 16.8639 34.4073 17.0289 34.7622 17.205C37.8551 18.7476 40.2703 21.1134 39.9793 24.5477C39.6531 28.4304 39.9289 30.7514 40.6504 32.4509C41.0911 33.4856 41.6949 34.2849 42.4046 35.0666C42.6182 30.6425 44.8316 27.5158 44.8316 27.5158C44.9964 27.2835 45.2756 27.149 45.5699 27.1618C46.0038 27.181 46.3385 26.9583 46.6211 26.6316C47.0197 26.1687 47.3123 25.5151 47.5411 24.8039C48.1028 23.066 48.2676 20.9869 48.3164 20.0098C43.4625 19.9217 40.6756 18.8132 40.6723 18.8116C38.2386 17.8362 35.8873 17.1618 33.6757 16.7085Z" fill="white" stroke="#FF6600"/>
<path fill-rule="evenodd" clip-rule="evenodd" d="M90.1429 1.03811C89.6686 1.6548 88.9303 2.75202 88.4695 4.09272C88.0086 5.43822 87.8253 7.04001 88.5468 8.6418C88.7302 9.04866 88.5317 9.51958 88.1045 9.69418C87.679 9.86717 87.1845 9.67976 87.0012 9.27291C86.865 8.97017 86.7523 8.66743 86.6648 8.36469C84.6129 7.85052 82.2785 8.2798 80.1845 8.96536C76.7249 10.0978 73.901 11.9751 73.901 11.9751L73.8825 11.9879C72.5656 12.8145 71.2756 13.5609 70.0176 14.232C70.6331 14.5973 71.9097 15.427 72.9239 16.5739C73.9263 17.7079 74.6528 19.1399 74.4241 20.7193L74.4174 20.7593C74.1432 22.635 74.6596 24.8775 75.4803 26.5354C75.9647 27.5157 76.5231 28.3022 77.1302 28.5729L77.1538 28.5841C77.1925 28.6001 77.2295 28.6193 77.2631 28.6417C77.4229 28.4159 77.586 28.1932 77.7525 27.9738C79.8263 25.2556 82.4433 23.0163 83.7468 21.9751C83.4659 21.7573 83.217 21.5042 83.0067 21.2078C82.5358 20.5463 82.2331 19.6653 82.2045 18.4624C82.1944 18.0219 82.5627 17.6551 83.0269 17.6455C83.4911 17.6358 83.8763 17.9866 83.8864 18.4287C83.9049 19.2488 84.0781 19.8575 84.3993 20.3092C84.7559 20.8122 85.2924 21.0989 85.913 21.2991C86.6665 21.5426 87.5377 21.6547 88.4409 21.7621C91.406 22.1145 94.61 22.4941 96.043 25.616C97.222 26.2903 98.2126 26.7869 99.0586 27.0287C99.7296 27.2194 100.28 27.2498 100.739 26.9615C101.186 26.6812 101.528 26.1558 101.852 25.3853C102.189 24.5844 101.854 23.5192 101.331 22.4028C99.9046 19.3658 96.7763 16.0885 96.7763 16.0885C96.6686 15.9764 96.5963 15.837 96.5694 15.6865C96.0463 12.7968 95.3332 10.9388 94.5898 9.75024C94.1458 9.04065 93.7068 8.59535 93.3099 8.32625C93.135 8.70427 92.9517 9.01502 92.7936 9.23767C92.5329 9.60448 92.0098 9.69898 91.6247 9.45071C91.2412 9.20243 91.1403 8.70427 91.401 8.33906C92.1898 7.23223 93.7321 3.31265 90.1665 1.00928L90.1429 1.03811Z" fill="white" stroke="#FF6600"/>
<path fill-rule="evenodd" clip-rule="evenodd" d="M68.4704 15.0283C67.8111 15.3567 67.1619 15.6626 66.5177 15.9526C68.7008 21.3906 71.4422 24.5718 73.5833 26.3754C72.8634 24.575 72.4749 22.3805 72.7558 20.5112C72.924 19.3948 72.3454 18.4065 71.6373 17.6056C70.4533 16.2681 68.8471 15.4336 68.8471 15.4336C68.6705 15.3407 68.541 15.1949 68.4704 15.0283Z" fill="white" stroke="#FF6600"/>
<path fill-rule="evenodd" clip-rule="evenodd" d="M86.892 3.53714C79.4715 2.96691 65.5809 7.59287 56.5273 17.572C61.2046 16.5773 66.77 14.535 72.9559 10.6507C73.2065 10.4857 76.1128 8.6052 79.638 7.45031C81.8093 6.74072 84.206 6.31785 86.3874 6.67184C86.3437 5.58423 86.5472 4.53986 86.8718 3.59641C86.8785 3.57719 86.8853 3.55797 86.892 3.53714Z" fill="white" stroke="#FF6600"/>
</svg>
