<svg width="109" height="103" viewBox="0 0 109 103" fill="none" xmlns="http://www.w3.org/2000/svg">
<path d="M1.57894 64.6875L1.15558 65.3486L1.93368 65.4527L52.1459 72.1721L60.4681 86.8348C60.4175 87.0207 60.3542 87.2303 60.2821 87.4655C60.2715 87.5003 60.2607 87.5354 60.2497 87.5711C60.1617 87.858 60.0644 88.1752 59.9709 88.51C59.7607 89.2625 59.5625 90.1287 59.5158 91.0247C59.4689 91.9225 59.5731 92.8672 59.9823 93.7657C60.3917 94.6644 61.0922 95.4854 62.1864 96.1584C62.7013 96.5374 63.2077 96.8519 63.6585 97.1319C63.7596 97.1946 63.8579 97.2557 63.9528 97.3153C64.4899 97.6526 64.9118 97.9401 65.222 98.2648C65.5187 98.5756 65.7086 98.9166 65.7749 99.3705C65.8434 99.8396 65.7852 100.467 65.5093 101.351L65.3036 102.01L65.9939 102L107.007 101.401L107.978 101.386L107.403 100.604C105.939 98.614 105.24 97.162 104.944 96.0465C104.652 94.9479 104.744 94.1491 104.921 93.4376C104.98 93.1986 105.044 92.984 105.111 92.7616C105.151 92.6306 105.191 92.4969 105.231 92.3538C105.335 91.9866 105.428 91.5954 105.454 91.1701C105.506 90.2924 105.268 89.3557 104.46 88.1732L104.448 88.1545L104.433 88.137C103.962 87.5665 103.494 87.1248 103.048 86.7316C102.908 86.6079 102.773 86.4914 102.642 86.3782C102.348 86.1243 102.074 85.8871 101.803 85.6231C101.055 84.8933 100.385 83.9985 99.8707 82.2744L99.8686 82.2672L99.8662 82.2602C99.785 82.0148 99.706 81.7607 99.6253 81.501C99.29 80.4221 98.9246 79.2468 98.2455 78.2064L98.2387 78.1959L98.2313 78.1858C97.6367 77.3674 97.1296 76.7997 96.6883 76.328C96.5963 76.2296 96.5084 76.1367 96.4242 76.0477C96.099 75.7039 95.8273 75.4166 95.5717 75.0852C94.953 74.2827 94.4227 73.2068 93.7957 70.5576L93.7928 70.5453L93.7893 70.5332C93.5815 69.8185 93.2841 69.0972 92.9286 68.4243C92.5887 67.761 92.1951 67.111 91.8126 66.4792C91.6512 66.2126 91.4918 65.9492 91.3391 65.6895C90.8152 64.7978 90.3517 63.9181 90.0617 62.9721C89.769 61.9664 89.7065 60.9164 89.7299 59.8237C89.7416 59.2768 89.7746 58.726 89.8092 58.166L89.8148 58.0758C89.8475 57.5481 89.8808 57.0118 89.8962 56.4782C89.9617 54.213 89.7103 51.89 87.6827 49.8523L87.6739 49.8434L87.6647 49.835C86.3939 48.6793 84.4009 47.9049 82.4163 47.5706C80.4353 47.2369 78.3467 47.3223 76.8754 48.0049L76.8754 48.0047L76.8653 48.0097C76.4657 48.206 76.1298 48.3793 75.835 48.5314C75.4344 48.7381 75.1099 48.9055 74.8051 49.0381C74.3085 49.2541 73.9629 49.3292 73.5818 49.285C73.1787 49.2382 72.6822 49.0518 71.9018 48.6245C71.1279 48.2007 70.1264 47.57 68.7166 46.6773C68.4497 46.4803 68.2495 46.3316 68.0981 46.2084C67.9662 46.101 67.8952 46.0315 67.8577 45.9869C67.8677 45.968 67.8827 45.9417 67.9054 45.9067L67.9149 45.892L67.9233 45.8767C68.2715 45.2451 69.1904 44.1585 70.4604 42.8425C71.7151 41.5426 73.2703 40.0611 74.8462 38.6518C76.4224 37.2421 78.0127 35.9104 79.3369 34.9084C79.9995 34.4069 80.5892 33.9929 81.0733 33.6939C81.5762 33.3832 81.908 33.2337 82.0744 33.2014C82.3132 33.1561 82.688 33.1736 83.1813 33.2692C83.6637 33.3627 84.2168 33.5221 84.7909 33.7247C85.9414 34.1307 87.1337 34.6949 87.95 35.1982L87.9551 35.2013C88.0669 35.2683 88.2834 35.4226 88.5932 35.6471C88.6368 35.6786 88.6819 35.7113 88.7283 35.745C89.0006 35.9425 89.3186 36.1731 89.6542 36.4084C90.4106 36.9387 91.3054 37.5281 92.0129 37.8234C92.0991 37.8726 92.2329 37.9198 92.3988 37.8804C92.6634 37.8174 92.7551 37.5957 92.776 37.539C92.8258 37.4047 92.823 37.2545 92.821 37.1807C92.8157 36.9868 92.7811 36.7176 92.7373 36.4382C92.6481 35.8683 92.5041 35.1547 92.4027 34.671L92.4011 34.6633L92.3993 34.6558C91.89 32.5551 90.9933 31.1558 90.0427 29.8575C89.8785 29.6333 89.7139 29.4133 89.5497 29.1941C88.7613 28.1409 87.9855 27.1047 87.3405 25.697C87.1474 25.2727 87.0603 24.7662 86.9608 24.1734L86.9575 24.154C86.8636 23.5946 86.7563 22.955 86.4948 22.3882L86.4886 22.3749L86.4817 22.362C86.0481 21.5509 85.3357 20.9064 84.7025 20.3334C84.6084 20.2483 84.516 20.1648 84.4266 20.0825C83.6982 19.4123 83.1286 18.8032 82.9255 18.0128L82.9188 17.9865L82.9092 17.9611C82.5349 16.9666 82.2677 15.8529 81.9995 14.6673C81.9683 14.5294 81.9371 14.3905 81.9057 14.2507C81.6696 13.2004 81.4234 12.1048 81.0959 11.0377C80.3519 8.61401 79.1653 6.25674 76.6138 4.68578C74.0371 2.86685 71.9231 2.08773 69.776 1.82726C67.9862 1.61013 66.1811 1.75749 64.1233 1.92547C63.7444 1.95641 63.3568 1.98804 62.9593 2.01823L62.9448 2.01933L62.9304 2.02127C60.6526 2.32807 58.987 2.1695 57.5057 1.89719C57.0074 1.80559 56.513 1.69664 56.0149 1.58688C55.0635 1.37723 54.0985 1.1646 53.0669 1.06407C49.819 0.747588 45.7096 1.48171 37.3886 6.0538C34.8462 7.39212 33.103 8.94403 31.8602 10.6687C30.6193 12.3909 29.8947 14.2616 29.3587 16.2095C29.0281 17.411 28.7623 18.6734 28.4934 19.9499C28.3319 20.717 28.1693 21.4892 27.9909 22.2563C27.5152 24.3019 26.9139 26.3852 25.8927 28.4797C23.6901 30.6776 22.2915 33.1844 20.3985 36.6707C20.3132 36.8277 20.2269 36.9868 20.1394 37.1481C18.2632 40.6067 15.8472 45.0605 11.7178 51.1911C10.5001 52.9298 8.05045 56.1735 5.86049 59.05C5.14434 59.9907 4.45731 60.8904 3.85136 61.6838C3.53106 62.1033 3.23341 62.493 2.96609 62.8435C2.20628 63.8397 1.66765 64.549 1.57894 64.6875Z" fill="white" stroke="#FF6600"/>
</svg>
