<svg width="70" height="81" viewBox="0 0 70 81" fill="none" xmlns="http://www.w3.org/2000/svg">
<path d="M17.2779 14.9605L17.5766 14.9056L17.6656 14.6152C18.754 11.0622 20.1242 7.62252 21.7948 5.08131C23.4773 2.52189 25.3779 1 27.5 1C28.854 1 29.8047 1.2027 30.5299 1.47736C31.2566 1.75255 31.7792 2.10731 32.2937 2.45809C33.0296 2.97483 33.784 3.5 35 3.5C36.192 3.5 36.9273 2.99407 37.6568 2.49216C37.6726 2.48129 37.6884 2.47042 37.7042 2.45956C38.2194 2.1083 38.7424 1.75294 39.4701 1.47736C40.1953 1.2027 41.146 1 42.5 1C44.6221 1 46.5227 2.52189 48.2052 5.08131C49.8758 7.62252 51.246 11.0622 52.3344 14.6152L52.4234 14.9056L52.722 14.9605C56.3965 15.6363 59.394 16.5168 61.4596 17.5183C62.4934 18.0195 63.2685 18.539 63.7784 19.0578C64.2868 19.575 64.5 20.0567 64.5 20.5C64.5 20.9026 64.3262 21.3336 63.9185 21.7944C63.508 22.2584 62.8806 22.7278 62.0347 23.1876C60.3432 24.107 57.871 24.9384 54.7978 25.6213L54.3646 25.7176L54.4087 26.1591C54.4696 26.7675 54.5 27.3759 54.5 28C54.5 30.591 53.9971 33.0586 53.0835 35.3121L52.8046 36H53.5469H62.9062C63.7864 36 64.5 36.7136 64.5 37.5938C64.5 37.7813 64.4558 37.9843 64.3774 38.1945C64.3768 38.1962 64.3762 38.1978 64.3756 38.1994L58.3325 53.3302L58.1904 53.686L58.497 53.9157C65.1738 58.9195 69.5 66.8834 69.5 75.8594C69.5 78.1457 67.6457 80 65.3594 80H4.64062C2.35427 80 0.5 78.1457 0.5 75.8594C0.5 66.8831 4.8264 58.9042 11.5176 53.9165L11.8258 53.6867L11.6829 53.3298L5.62042 38.1891L5.61749 38.1818L5.61433 38.1746C5.53644 37.9966 5.5 37.8007 5.5 37.5938C5.5 36.7136 6.21364 36 7.09375 36H16.4531H17.1954L16.9165 35.3121C16.0029 33.0586 15.5 30.591 15.5 28C15.5 27.3759 15.5304 26.7675 15.5913 26.1591L15.6354 25.7176L15.2022 25.6213C12.129 24.9384 9.65678 24.107 7.96534 23.1876C7.11938 22.7278 6.49204 22.2584 6.08151 21.7944C5.67379 21.3336 5.5 20.9026 5.5 20.5C5.5 20.0567 5.71317 19.575 6.22156 19.0578C6.73153 18.539 7.50656 18.0195 8.54039 17.5183C10.606 16.5168 13.6035 15.6363 17.2779 14.9605ZM35.6656 31.5623L35.6663 31.5644C36.5465 34.2049 39.018 36 41.8125 36H43.75C47.4793 36 50.5 32.9793 50.5 29.25V27V26.422L49.9281 26.5052C45.5487 27.1419 40.448 27.5 35 27.5C29.552 27.5 24.4513 27.1419 20.0719 26.5052L19.5 26.422V27V29.25C19.5 32.9793 22.5207 36 26.25 36H28.2031C30.9813 36 33.4689 34.2056 34.3493 31.5644L34.35 31.5623C34.5587 30.9271 35.4569 30.9271 35.6656 31.5623ZM30.4472 50.2764L30.3727 50.1273L30.2236 50.0528L20.2236 45.0528L19.2513 44.5666L19.5149 45.6213L27.0149 75.6213H27.9851L32.9851 55.6213L33.0299 55.4418L32.9472 55.2764L30.4472 50.2764ZM50.4851 45.6213L50.7487 44.5666L49.7764 45.0528L39.7764 50.0528L39.6273 50.1273L39.5528 50.2764L37.0528 55.2764L36.9701 55.4418L37.0149 55.6213L42.0149 75.6213H42.9851L50.4851 45.6213Z" fill="white" stroke="#FF6600"/>
</svg>
