<svg width="107" height="102" viewBox="0 0 107 102" fill="none" xmlns="http://www.w3.org/2000/svg">
<path fill-rule="evenodd" clip-rule="evenodd" d="M77.5551 17.639C75.1123 18.8089 73.6195 18.6284 70.7473 16.7848C70.1049 18.1641 68.8105 18.881 67.0828 19.0852C65.3558 19.2893 63.9862 18.6748 62.8257 17.7573C62.4847 17.8314 62.3223 18.014 62.167 18.1884C62.1107 18.2518 62.055 18.3143 61.9923 18.3698C60.1114 20.0387 56.6245 20.0924 54.7025 18.4744C52.6985 16.7872 52.8497 14.0923 55.1499 12.6302C55.997 12.0918 56.3672 11.587 56.3787 10.6878C56.4033 8.77444 57.7174 7.58783 60.0713 7.09734L60.1182 7.08769C60.6247 6.98262 61.0294 6.8987 61.1027 6.33718C61.4303 3.82674 63.4019 2.5946 66.5057 2.98326C67.2475 3.07615 67.6857 2.95271 68.1777 2.49559C70.2469 0.572725 73.4615 0.497348 75.7 2.30807C76.1086 2.63864 76.4199 2.70425 76.9661 2.56201C79.5888 1.87897 81.2716 2.40974 82.6439 4.35221C82.9144 4.73516 83.2264 4.83373 83.7283 4.86616C86.3325 5.03423 88.3515 6.54919 88.2645 8.52094C88.2037 9.8991 87.9729 11.3299 87.2917 12.6198C86.1953 14.6957 83.3603 15.6198 80.7541 14.863C80.5543 14.805 80.3538 14.7483 80.1138 14.6805C79.9889 14.6452 79.8532 14.6068 79.7013 14.5637C79.4116 15.7832 78.8701 16.8701 77.5551 17.639ZM58.2082 97.5571C57.6581 97.0813 57.1094 96.6064 56.5479 96.1421C56.1813 95.839 56.1865 95.4093 56.1915 94.998C56.1922 94.9478 56.1927 94.898 56.1927 94.8487C56.1915 94.0441 56.1839 93.2393 56.1762 92.4345C56.158 90.5274 56.1398 88.6203 56.2084 86.7151C56.2575 85.3456 55.8987 84.0508 55.5385 82.7514L55.5383 82.7502C55.4698 82.5035 55.4014 82.2564 55.3357 82.0087C55.0639 80.9839 54.7841 79.9606 54.5043 78.9372C54.1469 77.6298 53.7894 76.3224 53.4487 75.0121C53.3475 74.6233 53.1055 74.426 52.7084 74.2459C50.2183 73.1169 48.9244 71.4528 49.2959 69.0739C49.3781 68.5472 49.2209 68.1871 48.5883 67.9073C46.6535 67.0517 45.7793 65.6761 45.8176 63.9007C45.8188 63.8469 45.818 63.7932 45.8173 63.7394C45.8165 63.687 45.8158 63.6341 45.8168 63.5817C45.8282 62.9995 45.4754 62.5892 44.8093 62.4496C44.0841 62.2977 43.6139 62.6894 43.3489 63.169C42.9975 63.8049 42.911 64.4886 43.0251 65.1918C43.2891 66.8203 44.2355 68.1438 45.69 69.253C46.1064 69.5705 46.637 71.5613 46.4485 71.9791C46.3518 72.1932 46.1489 72.2327 45.9173 72.2681C42.2361 72.8322 38.9859 72.355 36.8911 69.3739C36.7619 69.19 36.6025 69.0202 36.4357 68.8422C36.3559 68.757 36.2743 68.6701 36.1933 68.5787C36.384 68.2924 36.6169 68.0237 36.851 67.7537C37.1952 67.3564 37.542 66.9565 37.7596 66.4939C38.0346 65.9093 38.244 65.3248 37.7456 64.7485C37.4268 64.3799 36.9973 64.1289 36.4264 64.1837C35.8907 64.2351 35.5098 64.5332 35.3989 64.9451C35.0614 66.1985 34.0928 67.0588 32.8591 67.766C32.4288 68.0128 32.2981 68.2865 32.4809 68.718C33.5909 71.3382 30.4311 73.7449 27.2682 73.326C26.5337 73.2288 26.039 73.4033 25.6573 73.8369C24.5827 75.058 23.5208 76.2864 22.4588 77.5147L22.4577 77.516C21.998 78.0478 21.5381 78.5797 21.0774 79.1108C20.6163 79.6424 20.7766 80.1885 20.9337 80.7227C20.9802 80.8814 21.0265 81.039 21.0561 81.195C22.1729 87.0702 23.9138 92.8331 25.8352 98.5637C26.4003 100.249 25.688 100.956 23.524 100.973C23.0729 100.977 22.6215 100.975 22.1703 100.973C21.4444 100.971 20.7178 100.968 19.9929 100.987C19.1751 101.008 18.5447 100.763 17.9967 100.291C16.6511 99.1304 15.2936 97.979 13.9333 96.83C13.4922 96.4574 13.1629 96.0371 13.0216 95.5321C11.9977 91.8751 10.975 88.2179 9.95237 84.5606L9.95101 84.5561L9.94925 84.5494L9.9487 84.5477L9.9483 84.546C8.96826 81.0414 7.98823 77.5369 7.00725 74.0325C6.67708 72.8529 7.06291 71.9291 8.28649 71.1752C9.18317 70.6227 10.0437 70.0315 10.9044 69.4402C11.4427 69.0704 11.9811 68.7005 12.5285 68.34C13.1588 67.9248 13.4772 67.4323 13.462 66.7617C13.4356 65.5925 13.4367 64.422 13.4785 63.2533C13.4977 62.7179 13.2539 62.3732 12.7378 62.05C11.2209 61.0998 10.2117 59.904 10.26 58.2671C10.2922 57.1783 10.8664 56.2846 11.7335 55.4744C12.5741 54.6889 12.54 54.5713 11.6464 53.8241C11.4901 53.6934 11.3239 53.5697 11.1578 53.4459C10.7676 53.1557 10.3774 52.8653 10.116 52.4852C9.13307 51.0569 9.29055 49.6542 10.4829 48.3798C11.0406 47.7836 11.0549 47.2923 10.7197 46.6341C9.44613 44.1334 11.1686 41.103 14.6748 40.5275C14.7473 40.5157 14.8201 40.5045 14.893 40.4932C15.141 40.4551 15.3909 40.4169 15.6273 40.3507C16.013 40.2429 16.3677 40.072 16.2665 39.6645C15.5836 36.9168 19.208 34.3481 22.9149 34.9417C24.4727 35.1911 25.1731 35.0658 26.0464 33.874C28.0913 31.083 33.198 31.0551 35.7775 33.6543C36.7957 34.6803 37.2643 34.6532 38.0128 33.5255C40.0699 30.4259 45.8663 30.3449 48.4852 33.3751C48.5599 33.4617 48.6259 33.5555 48.692 33.6495C48.8712 33.9045 49.0515 34.161 49.4118 34.2776C49.9213 34.4426 50.4395 34.4216 50.9093 34.1602C51.6827 33.7299 52.5409 33.4766 53.4682 33.4252C54.0798 33.3914 54.2722 33.1479 54.2013 32.7001C53.9956 31.4023 54.4439 30.2873 55.5922 29.3622C55.8428 29.1602 55.8941 28.9188 55.8462 28.6304C55.7275 27.9182 56.0623 27.3599 56.8837 27.08C57.7144 26.7971 58.3643 27.0787 58.9847 27.5741C60.7379 28.9741 61.4648 30.7844 62.164 32.6153C64.1211 37.7391 69.1365 40.5659 75.7479 40.4774C81.9081 40.3949 87.0864 36.9493 88.9398 33.0903C89.7524 31.3982 89.6357 29.6482 89.456 27.8996C89.3781 27.1404 89.2412 26.385 89.1043 25.6299C89.0557 25.3616 89.007 25.0932 88.9611 24.8249C88.8289 24.0533 89.1035 23.3428 89.3776 22.6334C89.4453 22.4582 89.5133 22.2821 89.5748 22.106C89.7049 21.7338 90.0557 21.8064 90.3948 21.8768L90.4684 21.8918C94.254 22.6519 96.3699 26.2715 94.0345 28.9855C93.9967 29.0293 93.9538 29.071 93.9108 29.1128C93.7871 29.2331 93.6626 29.3541 93.6588 29.5288C96.6762 32.4907 96.8269 33.7061 94.4542 36.4409C95.185 37.1437 95.9462 37.993 95.4973 38.9249C94.9598 40.0406 95.3394 40.9046 95.9527 41.8489C96.3863 42.5165 96.1017 43.2111 95.6656 43.8257C95.3978 44.2033 95.3254 44.537 95.5354 44.9481C96.8532 47.5273 95.4716 49.7012 93.4204 50.9621C92.6233 51.4522 92.6111 51.7869 93.2619 52.4006C95.7043 54.703 95.2336 57.5557 92.131 59.2707C91.2999 59.7301 90.9858 60.0695 91.3224 60.9732C92.2605 63.4911 90.61 65.9399 87.5202 66.8194C86.6642 67.0631 86.2894 67.3599 86.2746 68.1563C86.2393 70.0451 85.1176 71.4972 83.1429 72.49C82.6936 72.7159 82.4033 72.9334 82.3906 73.4114L82.3565 74.699C82.2594 78.3873 82.1622 82.0761 81.9974 85.7625C81.9067 87.7881 82.4812 89.7124 83.056 91.6372L83.0564 91.6385C83.2184 92.1809 83.3802 92.7233 83.5274 93.268C83.8106 94.3171 84.1228 95.361 84.4351 96.405L84.4355 96.4062C84.7014 97.2956 84.9675 98.185 85.2157 99.0776C85.5457 100.266 84.8975 100.932 83.3994 100.963C82.6235 100.98 81.8471 100.977 81.0706 100.975C80.3755 100.972 79.6801 100.97 78.9853 100.981C78.1009 100.996 77.5197 100.58 76.9683 100.122C76.1802 99.4675 75.3985 98.808 74.6167 98.1486L74.6156 98.1476C73.9459 97.5827 73.2762 97.0177 72.6026 96.4559C72.2671 96.1763 72.0938 95.8657 72.0361 95.4738C71.8217 94.0161 71.8431 92.551 71.8974 91.0931C72.0308 87.516 71.7219 83.9574 71.4129 80.398C71.3288 79.4292 71.2447 78.46 71.1695 77.4907C71.0786 76.3187 71.079 75.142 71.0792 73.9654C71.0794 73.4666 71.0796 72.9677 71.0727 72.4695C71.0663 71.9933 71.2922 71.5737 71.5192 71.1522C71.7113 70.7954 71.9041 70.4373 71.9572 70.0424C72.0893 69.0591 72.1584 68.0829 71.8998 67.114C71.7314 66.4829 71.2527 66.0042 70.4056 66.0964C69.5905 66.1852 69.2119 66.6921 69.2203 67.364C69.2255 67.7627 69.2333 68.1613 69.2488 68.5599C69.2923 69.6779 68.8577 70.6834 67.9245 71.4742C67.2502 72.0456 67.0639 72.6428 67.0605 73.4005C67.0434 77.3585 66.9661 81.3175 66.6902 85.2693C66.4612 88.5496 67.2125 91.7098 68.1962 94.8562C68.6057 96.1665 68.9909 97.4822 69.3569 98.8011C69.7693 100.287 69.0957 100.983 67.2141 100.969C66.7628 100.965 66.3113 100.975 65.8579 100.984C64.7069 101.008 63.544 101.031 62.3502 100.85C60.8347 99.8294 59.5176 98.69 58.2082 97.5571ZM35.1949 72.2884C34.3658 73.3181 33.5341 74.1655 32.3521 74.8183C31.4283 75.2952 30.4975 75.7357 29.4892 75.7292C27.7995 75.7182 26.8835 76.483 26.1204 77.5353C25.9532 77.7659 25.7548 77.9817 25.5563 78.1975C25.4606 78.3016 25.3649 78.4059 25.2727 78.5116C24.7886 79.0669 24.6779 79.6555 24.9047 80.3233C26.6333 85.4146 28.3448 90.5098 30.0544 95.6053C30.2051 96.0545 30.4746 96.4459 30.8559 96.778C32.2389 97.982 33.6335 99.1773 35.0333 100.368C35.3985 100.679 35.8166 100.958 36.3791 100.96C36.6842 100.961 36.9894 100.963 37.2946 100.964C38.6565 100.972 40.0201 100.979 41.3794 100.933C42.4591 100.896 42.9488 100.397 42.9663 99.5285C42.9739 99.1531 42.884 98.7928 42.7735 98.4288C41.2803 93.514 39.7942 88.5977 38.3131 83.6804C38.0802 82.9076 38.1484 82.1804 38.6829 81.4643C39.4385 80.4522 40.1575 79.4221 40.8764 78.3919C41.1412 78.0125 41.406 77.6332 41.6725 77.2547C41.9848 76.8115 42.2936 76.3668 42.6346 75.8755C42.7997 75.6378 42.9723 75.3893 43.1564 75.1248C39.9846 75.0027 37.3777 74.0882 35.1949 72.2884ZM99.2863 11.5138C101.201 12.0168 102.932 12.7032 104.615 13.4643C106.211 14.186 106.419 15.1815 105.283 16.3498C102.207 19.5146 96.1682 20.5458 91.8017 18.6585C91.1289 18.3677 90.7065 18.0219 90.6625 17.3194C90.5995 16.3153 90.2216 15.3414 89.8078 14.3898C88.9127 12.3312 90.8533 10.821 92.967 10.7358C95.1163 10.6493 97.1898 10.9187 99.2863 11.5138ZM40.5191 24.3444C39.9993 25.0192 40.0415 25.7112 40.8881 26.3231C44.2229 28.0033 49.4793 27.8535 52.5471 26.0018C53.5495 25.3968 54.4059 24.6707 54.9237 23.7161C55.0757 23.4357 55.1926 23.161 55.0361 22.8765C54.6655 22.2031 54.4062 21.5001 54.147 20.7972C53.9851 20.3581 53.8231 19.9192 53.6341 19.4876C53.1315 18.3394 52.1654 17.6105 50.6244 17.5189C49.6175 17.459 48.6809 17.7373 47.8321 18.1448C44.6876 19.6548 42.4258 21.869 40.5191 24.3444ZM1.26497 56.7054C0.567451 53.9383 1.30828 51.4269 2.77052 49.0057C3.65268 47.545 4.69109 46.1656 5.93625 44.8925C5.96653 44.8616 5.99653 44.8303 6.02667 44.7988C6.33022 44.4822 6.65468 44.1442 7.41207 43.968C7.29424 44.553 7.43583 45.1044 7.57648 45.652C7.78934 46.4808 7.9999 47.3008 7.30523 48.2148C5.77362 50.2301 6.30823 52.3066 7.88994 54.2048C8.30237 54.6999 8.33767 55.072 8.01063 55.6358C6.59644 58.0736 6.96027 60.3773 9.03573 62.4898C9.20977 62.667 9.38925 62.8404 9.56872 63.0139C9.72525 63.1652 9.88191 63.3166 10.0348 63.4702C10.0553 63.4908 10.0501 63.5283 10.045 63.5661C10.0424 63.5847 10.0398 63.6034 10.0403 63.6202C7.31514 63.4574 2.43819 60.6184 1.26497 56.7054ZM71.2735 33.1452C71.8555 33.4014 72.5092 33.467 73.2428 33.5108C73.3513 33.5157 73.4502 33.5241 73.5427 33.5319C73.7136 33.5462 73.8623 33.5587 74.007 33.5447C74.8594 33.4617 75.0448 33.9195 75.2471 34.419L75.2786 34.4964C75.5021 35.0416 75.112 35.1422 74.7196 35.2432C74.6301 35.2663 74.5404 35.2893 74.4578 35.3178C73.8757 35.5183 73.5954 35.859 73.6453 36.3772C73.6937 36.8777 74.0909 37.124 74.6232 37.2602C75.1076 37.3841 75.6085 37.3635 76.1042 37.3429C76.1943 37.3392 76.2854 37.3354 76.375 37.3325C77.8372 37.2863 79.2108 36.9422 80.4536 36.3286C81.0817 36.0185 81.5876 35.5513 81.2487 34.8677C80.9356 34.2362 80.2802 34.1154 79.5444 34.2695C79.0042 34.3827 78.8214 34.2252 78.6381 33.8151C78.3632 33.2003 78.6249 32.8889 79.2668 32.606C79.3796 32.5562 79.4935 32.5074 79.6075 32.4585C80.4423 32.1007 81.2833 31.7401 81.751 30.9983C82.1105 30.428 82.0134 29.9103 81.4859 29.4632C80.9749 29.03 80.3277 28.9801 79.683 29.2225C79.3036 29.3651 78.9522 29.5608 78.6035 29.7551C78.5477 29.7861 78.4919 29.8172 78.4361 29.8479C77.2462 30.5047 75.9718 30.937 74.4994 30.8546C74.1398 30.8345 73.7804 30.8103 73.4211 30.7861C72.9374 30.7536 72.4532 30.7209 71.9687 30.6983C71.1487 30.6599 70.5471 30.9421 70.3718 31.6148C70.1971 32.2847 70.5327 32.819 71.2735 33.1452ZM82.6288 21.763C81.63 21.0001 81.4276 20.1314 81.8937 19.1772C82.2373 18.4738 83.2549 18.0531 84.3148 18.0955C85.3294 18.1362 86.0457 18.5417 86.4445 19.291C86.8777 20.1045 86.6798 20.8603 85.972 21.5071C85.3083 22.1135 84.4446 22.3021 83.4789 22.1063C83.2692 22.0638 83.0746 21.9718 82.8539 21.8675C82.7822 21.8335 82.7074 21.7982 82.6288 21.763ZM61.2273 22.9018C60.6089 23.887 60.897 24.8104 62.1476 25.6695C63.5952 26.3914 65.3759 25.6611 65.8204 24.4685C66.2028 23.4426 65.4005 22.2764 64.0906 21.9817C62.9706 21.7298 61.7084 22.1354 61.2273 22.9018Z" fill="white" stroke="#FF6600"/>
</svg>
