<svg width="74" height="74" viewBox="0 0 74 74" fill="none" xmlns="http://www.w3.org/2000/svg">
<path d="M29 67.8855V69.0002H23.75V65.0702C25.6234 65.7548 27.3913 66.7025 29 67.8855Z" fill="white" stroke="#FF6600"/>
<path d="M29 63.71C27.3469 62.7358 25.585 61.9581 23.75 61.393V51.3202C25.6234 52.0048 27.3913 52.9525 29 54.1355V63.71Z" fill="white" stroke="#FF6600"/>
<path d="M29 24.96C27.3469 23.9857 25.585 23.208 23.75 22.6429V13.6115C24.6782 13.8802 25.5905 14.2016 26.4825 14.5742L27.0302 14.8095L27.0305 14.8096C27.6152 15.0603 28.1134 15.477 28.4635 16.0081C28.8136 16.5392 29.0001 17.1614 29 17.7975V17.7976V24.96Z" fill="white" stroke="#FF6600"/>
<path d="M26.5 3.80214V3.80226V10.8253C19.9656 8.41555 12.7846 8.41514 6.25 10.8242V3.80131C6.25022 3.64355 6.30018 3.48987 6.39278 3.36214C6.48543 3.23435 6.61603 3.13905 6.766 3.0898L6.766 3.0898L6.76768 3.08924L8.40728 2.54438C8.40733 2.54436 8.40738 2.54434 8.40743 2.54433C13.5807 0.83008 19.1688 0.829615 24.3423 2.543C24.3425 2.54305 24.3426 2.5431 24.3428 2.54315L25.987 3.09039C26.1364 3.14015 26.2664 3.23567 26.3584 3.36342C26.4505 3.49117 26.5 3.64466 26.5 3.80214Z" fill="white" stroke="#FF6600"/>
<path d="M29 49.96C27.3469 48.9858 25.585 48.2081 23.75 47.643V38.8202C25.6234 39.5048 27.3913 40.4525 29 41.6355V49.96Z" fill="white" stroke="#FF6600"/>
<path d="M29 37.4601C27.3469 36.4858 25.585 35.7081 23.75 35.143V26.3202C25.6234 27.0048 27.3913 27.9525 29 29.1355V37.4601Z" fill="white" stroke="#FF6600"/>
<path d="M43.75 52.5H49V69H43.75V52.5Z" fill="white" stroke="#FF6600"/>
<path d="M61.4634 48.7866C61.4868 48.8101 61.5 48.8418 61.5 48.875C61.5 48.9082 61.4868 48.9399 61.4634 48.9634C61.4399 48.9868 61.4082 49 61.375 49H40.125C40.0918 49 40.0601 48.9868 40.0366 48.9634C40.0132 48.9399 40 48.9082 40 48.875C40 48.8418 40.0132 48.8101 40.0366 48.7866C40.0601 48.7632 40.0918 48.75 40.125 48.75H61.375C61.4082 48.75 61.4399 48.7632 61.4634 48.7866Z" fill="white" stroke="#FF6600"/>
<path d="M70.25 26.6495V26.6501V69.0001H61.25V52.5001H61.375C62.3364 52.5001 63.2584 52.1182 63.9383 51.4384C64.6181 50.7586 65 49.8365 65 48.8751C65 47.9137 64.6181 46.9917 63.9383 46.3119C63.2584 45.6321 62.3364 45.2501 61.375 45.2501H40.125C39.1636 45.2501 38.2416 45.6321 37.5617 46.3119C36.8819 46.9917 36.5 47.9137 36.5 48.8751C36.5 49.8365 36.8819 50.7586 37.5617 51.4384C38.2416 52.1182 39.1636 52.5001 40.125 52.5001H40.25V69.0001H32.5V20.2841L69.6125 25.907C69.7901 25.9339 69.952 26.0237 70.069 26.1599C70.186 26.2962 70.2502 26.4699 70.25 26.6495ZM63.25 26.5001H62.75V27.0001V37.0001C62.75 37.4643 62.9344 37.9094 63.2626 38.2376C63.5908 38.5658 64.0359 38.7501 64.5 38.7501H69.5H70V38.2501V35.7501V35.2501H69.5H66.25V27.0001V26.5001H65.75H63.25ZM55.75 26.5001H55.25V27.0001V37.0001C55.25 37.4643 55.4344 37.9094 55.7626 38.2376C56.0908 38.5658 56.5359 38.7501 57 38.7501H62H62.5V38.2501V35.7501V35.2501H62H58.75V27.0001V26.5001H58.25H55.75ZM48.25 26.5001H48.2499C47.8595 26.5002 47.4804 26.6309 47.1728 26.8712C46.8653 27.1115 46.6469 27.4477 46.5524 27.8264C46.5524 27.8265 46.5524 27.8265 46.5524 27.8266L44.0524 37.8264L43.9311 38.3117L44.4165 38.4328L46.8415 39.0378L47.3263 39.1587L47.4476 38.674L48.3666 35.0001H50.6334L51.5524 38.674L51.6737 39.1587L52.1585 39.0378L54.5835 38.4328L55.0689 38.3117L54.9476 37.8264L52.4476 27.8266C52.4476 27.8265 52.4476 27.8265 52.4476 27.8264C52.3531 27.4477 52.1347 27.1115 51.8272 26.8712C51.5196 26.6309 51.1405 26.5002 50.7501 26.5001H50.75H48.25ZM35.75 38.7501H36.25V38.2501V34.2128L36.6242 35.1489C36.6243 35.1491 36.6244 35.1492 36.6244 35.1494C36.754 35.4745 36.9782 35.7533 37.2679 35.9497C37.5577 36.1462 37.8998 36.2513 38.25 36.2513C38.6002 36.2513 38.9423 36.1462 39.2321 35.9497C39.5218 35.7533 39.746 35.4745 39.8756 35.1494C39.8756 35.1492 39.8757 35.1491 39.8758 35.1489L40.25 34.2128V38.2501V38.7501H40.75H43.25H43.75V38.2501V28.2501C43.75 27.786 43.5656 27.3409 43.2374 27.0127C42.9092 26.6845 42.4641 26.5001 42 26.5001H40.7502C40.7501 26.5001 40.7501 26.5001 40.75 26.5001C40.4001 26.5 40.0582 26.6049 39.7684 26.801C39.4786 26.9972 39.2543 27.2758 39.1245 27.6008C39.1245 27.6008 39.1244 27.6009 39.1244 27.6009L38.25 29.7882L37.3756 27.6009C37.3756 27.6009 37.3755 27.6008 37.3755 27.6008C37.2457 27.2758 37.0214 26.9972 36.7316 26.801C36.4418 26.6049 36.0999 26.5 35.75 26.5001C35.7499 26.5001 35.7499 26.5001 35.7498 26.5001H34.5C34.0359 26.5001 33.5908 26.6845 33.2626 27.0127C32.9344 27.3409 32.75 27.786 32.75 28.2501V38.2501V38.7501H33.25H35.75Z" fill="white" stroke="#FF6600"/>
<path d="M52.5 52.5H57.75V69H52.5V52.5Z" fill="white" stroke="#FF6600"/>
<path d="M49.2417 31.5L49.5001 30.4665L49.7584 31.5H49.2417Z" fill="white" stroke="#FF6600"/>
<path d="M4.55983 53.6351C4.55998 53.635 4.56013 53.6349 4.56028 53.6348C5.9459 52.7052 7.43632 51.9438 9 51.3663V61.4052C7.16315 61.9833 5.40114 62.775 3.75 63.7635V54.1809L4.55983 53.6351Z" fill="white" stroke="#FF6600"/>
<path d="M4.55983 41.1351C4.55998 41.135 4.56013 41.1349 4.56028 41.1348C5.9459 40.2052 7.43632 39.4438 9 38.8663V47.6552C7.16315 48.2333 5.40114 49.025 3.75 50.0135V41.6809L4.55983 41.1351Z" fill="white" stroke="#FF6600"/>
<path d="M1.375 72.5H72.625C72.6581 72.5 72.6899 72.5132 72.7134 72.5366C72.7368 72.5601 72.75 72.5918 72.75 72.625C72.75 72.6582 72.7368 72.6899 72.7134 72.7134C72.6899 72.7368 72.6581 72.75 72.625 72.75H1.375C1.34185 72.75 1.31005 72.7368 1.28661 72.7134C1.26317 72.6899 1.25 72.6582 1.25 72.625C1.25 72.5918 1.26317 72.5601 1.28661 72.5366C1.31005 72.5132 1.34185 72.5 1.375 72.5Z" fill="white" stroke="#FF6600"/>
<path d="M4.55983 28.6351C4.55998 28.635 4.56013 28.6349 4.56028 28.6348C5.9459 27.7052 7.43632 26.9438 9 26.3663V35.1552C7.16315 35.7333 5.40114 36.525 3.75 37.5135V29.1809L4.55983 28.6351Z" fill="white" stroke="#FF6600"/>
<path d="M20.25 60.5733C17.6814 60.1758 15.0663 60.1831 12.5 60.5949V50.3843C15.0613 49.9096 17.688 49.9077 20.25 50.3787V60.5733Z" fill="white" stroke="#FF6600"/>
<path d="M4.55983 67.3851C4.55998 67.385 4.56013 67.3849 4.56028 67.3848C5.9459 66.4552 7.43632 65.6938 9 65.1163V68.9999H3.75V67.9309L4.55983 67.3851Z" fill="white" stroke="#FF6600"/>
<path d="M6.26649 14.5741C7.15876 14.2014 8.07142 13.88 9 13.6114V22.6629C7.16315 23.241 5.40114 24.0327 3.75 25.0212V17.7976L3.75 17.7975C3.74986 17.1614 3.9364 16.5392 4.28649 16.0081C4.63658 15.477 5.13484 15.0603 5.7195 14.8096L5.72022 14.8093L6.26649 14.5741Z" fill="white" stroke="#FF6600"/>
<path d="M20.25 46.8233C17.6814 46.4258 15.0663 46.4331 12.5 46.8449V37.8843C15.0613 37.4096 17.688 37.4077 20.25 37.8787V46.8233Z" fill="white" stroke="#FF6600"/>
<path d="M20.25 69H12.5V64.1343C15.0613 63.6596 17.688 63.6577 20.25 64.1287V69Z" fill="white" stroke="#FF6600"/>
<path d="M20.25 32.6889C17.6823 31.8865 15.0648 31.9014 12.5 32.7325V13.1527C15.0699 12.3352 17.6801 12.3352 20.25 13.1527V32.6889Z" fill="white" stroke="#FF6600"/>
<path d="M20.25 45.1843C17.6822 44.3833 15.0648 44.3982 12.5 45.2279V25.7711C15.0638 24.7749 17.6862 24.7749 20.25 25.7711V45.1843Z" fill="white" stroke="#FF6600"/>
</svg>
