<svg width="97" height="102" viewBox="0 0 97 102" fill="none" xmlns="http://www.w3.org/2000/svg">
<path d="M76.9794 35.8994C71.9173 31.6279 65.9949 28.4436 62.7087 27.3721C62.4702 27.2941 62.343 27.0469 62.425 26.8197C62.5065 26.5926 62.7665 26.4715 63.0045 26.5493C63.0605 26.5676 67.5754 28.0708 73.2524 31.954C74.5099 29.9462 74.8386 28.133 74.2004 26.6893C73.0671 24.1289 68.8824 22.7265 62.6959 22.8415C44.8623 23.1741 20.1867 34.9668 15.987 44.4261C15.3211 45.926 15.2374 47.2608 15.7379 48.3932C16.6227 50.3921 19.2549 51.6645 23.3572 52.0916C23.1744 48.0808 23.6318 45.5763 23.6635 45.4097C23.7085 45.1737 23.9461 45.0178 24.1938 45.0595C24.4419 45.1021 24.6067 45.3284 24.5617 45.5645C24.5494 45.6297 23.3551 52.1823 25.64 61.1357C27.7471 69.3925 33.3321 81.4435 47.9721 91.9662C56.0447 97.7683 62.7596 101 66.5816 101C68.3321 101.001 69.5617 100.343 69.769 98.6968C70.2565 94.8181 64.8701 86.5008 53.9269 78.727C45.2488 72.5621 37.8584 64.4202 33.7014 54.809C30.7457 47.9756 30.5896 43.1915 30.5845 42.9913C30.5784 42.7513 30.7774 42.5522 31.0292 42.5461C31.2828 42.5457 31.4907 42.7296 31.4971 42.9696C31.4983 43.0104 31.6179 46.5184 33.456 51.7049C34.5884 51.5399 35.7336 51.3416 36.8724 51.1129C35.9025 45.7858 35.5845 41.9361 35.5788 41.8648C35.5597 41.6254 35.748 41.4165 35.9995 41.3985C36.2522 41.3798 36.4704 41.5596 36.4894 41.7991C36.4999 41.9307 37.585 55.0529 41.9132 66.4236C45.0226 70.2262 49.1082 74.219 54.4731 78.0303C57.3175 80.0509 59.7875 82.0989 61.884 84.1002C63.0189 84.2067 64.0981 84.2172 65.1054 84.1317C59.9769 77.5138 54.8071 67.616 51.1682 54.6501C44.6962 46.8484 43.3266 40.4161 43.2714 40.1455C43.2232 39.91 43.3848 39.682 43.632 39.6359C43.8788 39.5892 44.1191 39.7437 44.1675 39.9794C44.1771 40.0259 44.8988 43.3978 47.6793 48.1382C48.2625 47.9352 48.8406 47.7286 49.399 47.5206C49.4275 47.5206 48.6585 44.4193 47.8626 39.1772C47.8265 38.9396 47.9995 38.7192 48.249 38.6846C48.4978 38.6511 48.7299 38.815 48.7662 39.0526C51.5754 57.5503 57.2499 70.0049 61.5156 77.1959C67.2248 86.82 73.0344 91.5169 76.5676 92.7036C77.745 93.099 79.3855 93.3599 80.5177 92.3573C82.1132 90.9443 82.2508 87.4204 80.895 82.6889C74.1666 59.2046 51.8397 35.909 51.6151 35.6764C51.4444 35.4996 51.4565 35.2246 51.6418 35.062C51.8274 34.8996 52.1159 34.9109 52.2869 35.0875C52.3675 35.1707 55.2647 38.1937 59.2686 43.1183C61.6487 41.8544 63.8311 40.5265 65.7692 39.1644C61.0445 33.9649 56.8815 31.6547 56.8388 31.6312C56.6201 31.5114 56.5448 31.2458 56.6704 31.0375C56.7961 30.8293 57.0757 30.7575 57.2935 30.8773C65.7795 35.5136 76.8313 48.7851 79.7452 67.0852C82.2195 82.6248 89.8571 92.2416 93.7347 89.2688C95.0472 88.2621 97.8251 84.2609 95.28 68.8878C92.4894 52.0312 83.7877 41.6446 76.9794 35.8994Z" fill="white" stroke="#FF6600"/>
<path d="M14.8966 48.7307C14.2965 47.3738 14.3802 45.8116 15.1458 44.0875C17.6964 38.343 27.7676 31.3768 40.2072 26.7527C48.1778 23.7914 56.1579 22.0939 62.6779 21.9723C69.3503 21.8491 73.7366 23.4034 75.0417 26.3519C75.8048 28.0781 75.4391 30.1866 73.9911 32.4683C74.4204 32.7727 74.8555 33.0909 75.2947 33.4224C79.2239 30.3107 80.9036 26.3584 80.2853 21.6686C79.44 15.2678 74.349 9.37639 66.3179 5.50469C52.627 -1.09545 34.4243 -0.39394 19.9447 7.2925C3.62813 15.9554 -1.67933 32.2679 1.61101 43.2184C3.79453 50.4859 9.31839 54.4548 16.7694 54.1083C19.06 54.0018 21.2985 53.7424 23.4325 53.3413C23.4232 53.2174 23.4131 53.092 23.4051 52.9705C18.8696 52.5218 15.9285 51.062 14.8966 48.7307Z" fill="white" stroke="#FF6600"/>
</svg>
