<svg width="67" height="103" viewBox="0 0 67 103" fill="none" xmlns="http://www.w3.org/2000/svg">
<path d="M20.9 32.5625C22.2976 32.5689 23.6519 32.1005 24.7194 31.2413C25.7869 30.3821 26.4978 29.1885 26.7242 27.875C24.5945 25.3317 21.9641 23.2087 18.9804 21.625C17.6434 22.0437 16.5081 22.9046 15.78 24.0517C15.0519 25.1988 14.7791 26.5563 15.0111 27.8784C15.2432 29.2004 15.9646 30.3997 17.0448 31.2589C18.1251 32.1182 19.4927 32.5806 20.9 32.5625ZM20.9 25.0156C21.3009 25.0127 21.6938 25.1226 22.0293 25.3316C22.3649 25.5406 22.6281 25.8394 22.7859 26.1904C22.9437 26.5414 22.9891 26.929 22.9164 27.3045C22.8437 27.68 22.6561 28.0267 22.3771 28.301C22.0982 28.5753 21.7404 28.765 21.3486 28.8462C20.9569 28.9274 20.5486 28.8966 20.1752 28.7576C19.8018 28.6186 19.4798 28.3776 19.2497 28.0649C19.0196 27.7522 18.8917 27.3817 18.882 27C18.8754 26.7416 18.9232 26.4847 19.0225 26.2441C19.1218 26.0036 19.2706 25.7845 19.4602 25.5996C19.6497 25.4147 19.8762 25.2677 20.1263 25.1675C20.3764 25.0672 20.645 25.0155 20.9164 25.0156H20.9Z" fill="white" stroke="#FF6600"/>
<path d="M46.0836 32.5625C47.6375 32.5585 49.1274 31.9732 50.2323 30.9326C51.3371 29.8921 51.9684 28.4797 51.9899 27C51.9936 25.828 51.6085 24.6849 50.8897 23.7337C50.1708 22.7825 49.1548 22.0718 47.9867 21.7031C45.0109 23.2911 42.3867 25.4136 40.2594 27.9531C40.5032 29.2523 41.2216 30.4276 42.2874 31.2711C43.3532 32.1146 44.6979 32.572 46.0836 32.5625ZM46.0836 25.0156C46.4845 25.0127 46.8774 25.1226 47.213 25.3316C47.5485 25.5406 47.8117 25.8394 47.9696 26.1904C48.1274 26.5414 48.1728 26.929 48.1001 27.3045C48.0273 27.68 47.8397 28.0267 47.5608 28.301C47.2818 28.5753 46.924 28.765 46.5323 28.8462C46.1405 28.9274 45.7323 28.8966 45.3589 28.7576C44.9854 28.6186 44.6635 28.3776 44.4334 28.0649C44.2033 27.7522 44.0754 27.3817 44.0656 27C44.0568 26.7424 44.1025 26.4858 44.2 26.2453C44.2975 26.0049 44.4447 25.7856 44.633 25.6004C44.8213 25.4153 45.0467 25.2681 45.2959 25.1677C45.5451 25.0672 45.813 25.0155 46.0836 25.0156Z" fill="white" stroke="#FF6600"/>
<path d="M37.2242 29.1094C38.2286 27.5386 39.4235 26.0859 40.7844 24.7812C42.7591 22.918 45.0086 21.3389 47.4617 20.0937C49.0414 19.2551 50.687 18.5342 52.3836 17.9375C62.293 14.5 63.5235 6.6875 63.2774 2C61.8664 4.5625 58.618 7.89063 51.4485 10.8906C50.7758 11.1875 50.0703 11.4687 49.3156 11.75C37.8969 15.9062 36.9289 24.7031 37.2242 29.1094Z" fill="white" stroke="#FF6600"/>
<path d="M31.4 29.6877C32.042 29.3471 32.7652 29.1695 33.5 29.1721C34.2397 29.1723 34.9675 29.3496 35.6164 29.6877C35.1261 25.499 36.1625 21.277 38.5521 17.7296C40.9418 14.1822 44.5392 11.5249 48.7414 10.2033C49.0039 10.2033 49.2172 10.0158 49.4797 9.92208C44.9111 6.61331 39.3298 4.82178 33.5903 4.82178C27.8507 4.82178 22.2694 6.61331 17.7008 9.92208C17.9305 10.0158 18.1602 10.1252 18.4063 10.2033C22.5823 11.5503 26.1486 14.2177 28.5124 17.7623C30.8763 21.3069 31.8952 25.5152 31.4 29.6877Z" fill="white" stroke="#FF6600"/>
<path d="M14.5508 17.875C23.5578 21 27.8726 26.0625 29.7593 29.0937C30.0547 24.6875 29.0539 15.8906 17.7172 11.75C16.9461 11.4687 16.2406 11.1719 15.5187 10.8906C8.38201 7.90625 5.14997 4.64062 3.72263 2.01562C3.46013 6.6875 4.6906 14.5 14.5508 17.875Z" fill="white" stroke="#FF6600"/>
<path d="M36.125 33.25C36.125 32.587 35.8484 31.9511 35.3562 31.4822C34.8639 31.0134 34.1962 30.75 33.5 30.75C32.8038 30.75 32.1361 31.0134 31.6438 31.4822C31.1516 31.9511 30.875 32.587 30.875 33.25C31.4836 35.8023 32.3631 38.289 33.5 40.6719C34.6474 38.293 35.5273 35.8052 36.125 33.25Z" fill="white" stroke="#FF6600"/>
<path d="M10.5312 17.8594C8.70244 21.1002 7.70047 24.7056 7.60642 28.3838C7.51236 32.0619 8.32885 35.7094 9.98981 39.0313C25.2968 38.75 31.5476 43.9219 33.5 46.2187C35.4687 43.9219 41.7031 38.7813 57.0429 39.0313C58.7131 35.7107 59.5319 32.0601 59.432 28.3795C59.3322 24.6989 58.3166 21.0934 56.4687 17.8594C55.3725 18.4787 54.2193 19.0017 53.0234 19.4219C51.9563 19.8024 50.9153 20.246 49.9062 20.75C50.9534 21.3351 51.8384 22.1502 52.4875 23.1274C53.1366 24.1045 53.5308 25.2153 53.6374 26.3671C53.7439 27.519 53.5596 28.6783 53.0999 29.7485C52.6402 30.8187 51.9184 31.7686 50.9948 32.519C50.0711 33.2694 48.9724 33.7986 47.7903 34.0623C46.6082 34.326 45.3771 34.3166 44.1996 34.0349C43.0221 33.7532 41.9324 33.2073 41.0215 32.4429C40.1106 31.6785 39.4049 30.7177 38.9633 29.6406C38.4375 30.4312 37.982 31.2622 37.6015 32.125C37.7427 32.5232 37.8201 32.9393 37.8312 33.3594C37.8312 35.2656 34.8781 41.8594 34.2711 43.1719C34.1993 43.3171 34.0856 43.4397 33.9432 43.5255C33.8008 43.6113 33.6356 43.6567 33.4672 43.6563C33.301 43.6556 33.1386 43.6096 32.999 43.5238C32.8594 43.4379 32.7486 43.3158 32.6797 43.1719C32.089 41.8594 29.1359 35.2656 29.1359 33.3594C29.1389 32.9385 29.2165 32.5212 29.3656 32.125C28.9762 31.2633 28.5154 30.4326 27.9875 29.6406C27.5545 30.7324 26.8518 31.7087 25.9389 32.4871C25.0259 33.2654 23.9295 33.8229 22.7424 34.1123C21.5553 34.4016 20.3125 34.4144 19.1191 34.1496C17.9258 33.8847 16.8169 33.35 15.8865 32.5906C14.956 31.8313 14.2313 30.8696 13.7737 29.7871C13.3161 28.7045 13.139 27.5329 13.2574 26.3714C13.3758 25.2098 13.7863 24.0925 14.4541 23.1141C15.1218 22.1356 16.0273 21.3247 17.0937 20.75C16.0804 20.2728 15.0397 19.8503 13.9765 19.4844C12.7788 19.0432 11.6256 18.4993 10.5312 17.8594Z" fill="white" stroke="#FF6600"/>
<path d="M33.5 50.2188C39.9148 50.2188 45.3945 52.0781 48.8562 55.375C50.2584 50.1119 52.6423 45.1317 55.8945 40.6719C38.6679 40.6719 34.3203 47.9687 34.271 48.0469C34.1957 48.1779 34.0838 48.2866 33.9478 48.3611C33.8117 48.4355 33.6568 48.4728 33.5 48.4687C33.3466 48.4667 33.1964 48.4267 33.0641 48.3528C32.9318 48.2788 32.8219 48.1734 32.7453 48.0469C32.7453 48.0469 28.3156 40.6719 11.1218 40.6719C14.3904 45.1248 16.781 50.107 18.1765 55.375C21.6218 52.0781 27.0851 50.2188 33.5 50.2188Z" fill="white" stroke="#FF6600"/>
<path d="M17.4875 63.375C17.4875 52.8906 11.45 43.9531 9.39919 41.2188C7.34841 43.9687 1.31091 52.9062 1.31091 63.375C1.31091 73.8437 7.34841 82.7969 9.39919 85.5312C11.45 82.7969 17.4875 73.875 17.4875 63.375Z" fill="white" stroke="#FF6600"/>
<path d="M33.5 84.8125C37.4375 84.8125 45.3617 79.1563 49.168 72.4844C48.2861 69.504 47.8281 66.4245 47.8063 63.3281C47.8065 61.3039 48.0097 59.2843 48.4133 57.2969C45.3782 53.8125 39.9805 51.8125 33.5 51.8125C27.0196 51.8125 21.6383 53.8125 18.6032 57.2969C19.0059 59.2847 19.2146 61.3037 19.2266 63.3281C19.2093 66.4299 18.7512 69.5152 17.8649 72.5C21.6547 79.2187 29.5625 84.8125 33.5 84.8125ZM36.9946 72.4063C36.715 73.069 36.2336 73.637 35.6123 74.037C34.991 74.437 34.2582 74.6508 33.5082 74.6508C32.7583 74.6508 32.0255 74.437 31.4041 74.037C30.7828 73.637 30.3014 73.069 30.0219 72.4063C29.9412 72.2031 29.9476 71.9778 30.0397 71.7791C30.1317 71.5803 30.3021 71.424 30.5141 71.3438C30.6185 71.3032 30.7304 71.2827 30.8431 71.2835C30.9559 71.2844 31.0674 71.3065 31.1712 71.3486C31.2749 71.3908 31.3689 71.4521 31.4476 71.529C31.5263 71.606 31.5882 71.697 31.6297 71.7969C31.7819 72.1509 32.0408 72.454 32.3736 72.6681C32.7065 72.8822 33.0984 72.9977 33.5 73C33.9055 73.0051 34.3029 72.8927 34.6399 72.6779C34.9768 72.463 35.2372 72.1558 35.3867 71.7969C35.4716 71.5897 35.6394 71.4231 35.8532 71.3337C36.0671 71.2443 36.3094 71.2395 36.527 71.3203C36.7445 71.4011 36.9195 71.5609 37.0133 71.7646C37.1072 71.9682 37.1122 72.1991 37.0274 72.4063H36.9946ZM39.4555 59.9063C39.6691 59.8335 39.9039 59.8415 40.1115 59.9288C40.319 60.016 40.4835 60.1757 40.5711 60.375C40.7254 60.7285 40.9862 61.0305 41.3205 61.2429C41.6548 61.4554 42.0477 61.5688 42.4496 61.5688C42.8516 61.5688 43.2445 61.4554 43.5788 61.2429C43.9131 61.0305 44.1739 60.7285 44.3281 60.375C44.4157 60.1757 44.5803 60.016 44.7878 59.9288C44.9954 59.8415 45.2302 59.8335 45.4438 59.9063C45.6568 59.9894 45.8265 60.1496 45.9156 60.3517C46.0048 60.5538 46.0062 60.7813 45.9196 60.9844C45.6374 61.6423 45.1559 62.2053 44.5365 62.6017C43.917 62.998 43.1877 63.2096 42.4414 63.2096C41.6952 63.2096 40.9659 62.998 40.3464 62.6017C39.727 62.2053 39.2455 61.6423 38.9633 60.9844C38.9138 60.7976 38.9343 60.6002 39.0211 60.4263C39.108 60.2523 39.2558 60.1126 39.4391 60.0312L39.4555 59.9063ZM39.8657 66.0469C39.9072 65.947 39.9691 65.856 40.0478 65.779C40.1265 65.7021 40.2204 65.6408 40.3242 65.5986C40.4279 65.5565 40.5394 65.5344 40.6522 65.5335C40.765 65.5327 40.8769 65.5532 40.9813 65.5938C41.1932 65.674 41.3636 65.8303 41.4557 66.0291C41.5478 66.2278 41.5541 66.4531 41.4735 66.6563C41.1918 67.3184 40.7084 67.885 40.0856 68.2832C39.4628 68.6815 38.7291 68.893 37.9789 68.8906C37.2306 68.8941 36.4985 68.6828 35.8781 68.2843C35.2577 67.8857 34.7777 67.3184 34.5008 66.6563C34.416 66.4491 34.421 66.2182 34.5149 66.0146C34.6087 65.8109 34.7836 65.6511 35.0012 65.5703C35.2188 65.4895 35.4611 65.4943 35.675 65.5837C35.8888 65.6731 36.0566 65.8397 36.1414 66.0469C36.2931 66.4051 36.5538 66.712 36.89 66.9281C37.2262 67.1442 37.6225 67.2597 38.0281 67.2597C38.4338 67.2597 38.8301 67.1442 39.1663 66.9281C39.5025 66.712 39.7632 66.4051 39.9149 66.0469H39.8657ZM30.5141 59.9063C30.7274 59.8294 30.9639 59.8355 31.1726 59.9232C31.3813 60.0109 31.5455 60.1731 31.6297 60.375C31.7635 60.7494 32.0145 61.0759 32.3488 61.3105C32.6831 61.5451 33.0849 61.6767 33.5 61.6875C33.9031 61.6917 34.2982 61.5808 34.6345 61.3691C34.9707 61.1575 35.2328 60.8548 35.3867 60.5C35.4716 60.2928 35.6394 60.1262 35.8532 60.0368C36.0671 59.9474 36.3094 59.9426 36.527 60.0234C36.7445 60.1042 36.9195 60.2641 37.0133 60.4677C37.1072 60.6714 37.1122 60.9022 37.0274 61.1094C36.7418 61.7661 36.2582 62.3275 35.6376 62.7224C35.017 63.1173 34.2874 63.3281 33.541 63.3281C32.7947 63.3281 32.0651 63.1173 31.4445 62.7224C30.8239 62.3275 30.3403 61.7661 30.0547 61.1094C29.9703 60.9098 29.9691 60.687 30.0514 60.4865C30.1338 60.2861 30.2934 60.1233 30.4977 60.0312L30.5141 59.9063ZM30.9242 66.0469C31.0091 65.8397 31.1769 65.6731 31.3907 65.5837C31.6046 65.4943 31.8469 65.4895 32.0645 65.5703C32.282 65.6511 32.457 65.8109 32.5508 66.0146C32.6447 66.2182 32.6497 66.4491 32.5649 66.6563C32.2853 67.319 31.8039 67.887 31.1826 68.287C30.5613 68.687 29.8285 68.9008 29.0785 68.9008C28.3286 68.9008 27.5958 68.687 26.9745 68.287C26.3531 67.887 25.8717 67.319 25.5922 66.6563C25.5496 66.5568 25.5281 66.4503 25.529 66.3429C25.5298 66.2354 25.5531 66.1293 25.5973 66.0305C25.6416 65.9316 25.706 65.8422 25.7867 65.7672C25.8675 65.6923 25.9631 65.6333 26.068 65.5938C26.2812 65.5112 26.5201 65.5125 26.7324 65.5975C26.9446 65.6824 27.1127 65.844 27.2 66.0469C27.3515 66.4046 27.6124 66.7106 27.9489 66.9251C28.2853 67.1397 28.6818 67.2529 29.0867 67.25C29.4652 67.2478 29.8356 67.146 30.157 66.9557C30.4784 66.7654 30.7383 66.4941 30.9078 66.1719L30.9242 66.0469ZM21.0805 60.9844C21.0385 60.8818 21.0181 60.7723 21.0205 60.6622C21.0229 60.5521 21.0481 60.4435 21.0945 60.3427C21.141 60.2419 21.2079 60.1507 21.2913 60.0745C21.3748 59.9983 21.4732 59.9385 21.5809 59.8984C21.6886 59.8584 21.8036 59.839 21.9192 59.8413C22.0348 59.8436 22.1488 59.8676 22.2546 59.9118C22.3605 59.9561 22.4562 60.0197 22.5362 60.0992C22.6163 60.1787 22.6791 60.2724 22.7211 60.375C22.8787 60.7273 23.1416 61.0277 23.477 61.2389C23.8125 61.4501 24.2057 61.5627 24.6078 61.5627C25.0099 61.5627 25.4032 61.4501 25.7386 61.2389C26.0741 61.0277 26.337 60.7273 26.4946 60.375C26.5788 60.1731 26.743 60.0109 26.9516 59.9232C27.1603 59.8355 27.3968 59.8294 27.6102 59.9063C27.8232 59.9894 27.9929 60.1496 28.0821 60.3517C28.1712 60.5538 28.1726 60.7813 28.086 60.9844C27.8038 61.6423 27.3223 62.2053 26.7029 62.6017C26.0834 62.998 25.3541 63.2096 24.6078 63.2096C23.8616 63.2096 23.1323 62.998 22.5128 62.6017C21.8934 62.2053 21.4119 61.6423 21.1297 60.9844H21.0805Z" fill="white" stroke="#FF6600"/>
<path d="M43.3438 95.3594L45.132 93.9062C44.9516 93.3906 44.7219 92.8125 44.5086 92.2188C44.0656 93.5 43.5898 94.75 43.3438 95.3594Z" fill="white" stroke="#FF6600"/>
<path d="M41.7031 95.6094C41.5227 95.1406 40.932 93.6875 40.407 92.2188C39.8984 93.6875 39.3242 95.1406 39.1437 95.6094C39.0776 95.7641 38.9638 95.8962 38.8174 95.9882C38.671 96.0802 38.4988 96.1279 38.3234 96.125C38.1498 96.1292 37.9792 96.0817 37.8351 95.9894C37.6911 95.897 37.5808 95.7642 37.5195 95.6094C37.2406 94.8906 36.0266 91.8594 35.5672 90.0313C34.0984 89.7135 32.5735 89.7135 31.1047 90.0313C30.5742 91.858 29.9444 93.6573 29.218 95.4219C29.1554 95.577 29.0453 95.7107 28.9019 95.8054C28.7586 95.9002 28.5886 95.9516 28.4141 95.9531C28.2383 95.9486 28.0676 95.8962 27.9222 95.802C27.7767 95.7079 27.6628 95.5759 27.5937 95.4219C27.4297 94.9844 26.8719 93.625 26.3961 92.2969C25.9039 93.6875 25.3789 95.0469 25.182 95.4219C25.1232 95.5584 25.0264 95.677 24.9022 95.7651C24.7779 95.8532 24.6307 95.9074 24.4766 95.9219C27.2357 98.2635 30.2626 100.302 33.5 102C36.6966 100.376 39.6812 98.3986 42.3922 96.1094C42.2409 96.0922 42.0972 96.0368 41.9761 95.9489C41.8549 95.861 41.7606 95.7437 41.7031 95.6094Z" fill="white" stroke="#FF6600"/>
<path d="M54.4508 83.9844C52.5511 81.0333 51.0047 77.8886 49.8407 74.6094C45.6899 80.8594 38.1758 86.4375 33.4344 86.4375C28.693 86.4375 21.3102 80.9531 17.0938 74.6875C15.9255 77.9403 14.3792 81.0587 12.4836 83.9844C14.0002 86.0793 15.6783 88.064 17.504 89.9219C17.4314 89.6348 17.3874 89.3418 17.3727 89.0469C17.3572 88.6623 17.4235 88.2787 17.5674 87.919C17.7114 87.5594 17.9301 87.2311 18.2104 86.9539C18.4908 86.6767 18.827 86.4562 19.1989 86.3058C19.5709 86.1553 19.9709 86.0778 20.375 86.0781C20.7543 86.079 21.1292 86.1544 21.4764 86.2996C21.8237 86.4447 22.1357 86.6566 22.393 86.9219C22.6482 86.6561 22.9587 86.4439 23.3047 86.2987C23.6507 86.1535 24.0247 86.0785 24.4028 86.0785C24.7809 86.0785 25.1549 86.1535 25.5009 86.2987C25.8469 86.4439 26.1574 86.6561 26.4125 86.9219C26.6705 86.6573 26.9826 86.446 27.3297 86.3008C27.6768 86.1557 28.0515 86.0799 28.4305 86.0781C29.1053 86.1001 29.7517 86.3416 30.2622 86.7624C30.7727 87.1832 31.1164 87.7578 31.236 88.3906C32.6353 88.1465 34.0695 88.1465 35.4688 88.3906C35.5618 87.7338 35.8902 87.1278 36.3984 86.675C36.9067 86.2223 37.5635 85.9507 38.2579 85.9062C38.6529 85.9072 39.0432 85.9886 39.4025 86.1449C39.7619 86.3012 40.082 86.5288 40.3415 86.8125C40.6029 86.5311 40.9235 86.3051 41.2824 86.149C41.6412 85.9929 42.0305 85.9102 42.425 85.9062C42.8204 85.9052 43.2114 85.9856 43.5711 86.1421C43.9307 86.2985 44.2506 86.5272 44.5086 86.8125C44.7745 86.528 45.1004 86.3002 45.4652 86.144C45.8299 85.9878 46.2252 85.9068 46.625 85.9062C47.4389 85.9428 48.2049 86.2829 48.7575 86.8531C49.3101 87.4232 49.6049 88.1776 49.5782 88.9531C49.5595 89.2858 49.5045 89.6157 49.4141 89.9375C51.2448 88.074 52.9282 86.0842 54.4508 83.9844Z" fill="white" stroke="#FF6600"/>
<path d="M21.7367 93.7969L23.3773 95.1406C23.1476 94.5313 22.7047 93.4375 22.2945 92.2656C22.1304 92.8125 22.0156 93.3281 21.7367 93.7969Z" fill="white" stroke="#FF6600"/>
<path d="M20.375 87.3906C19.9514 87.4303 19.5605 87.6253 19.285 87.9343C19.0095 88.2434 18.8709 88.6423 18.8985 89.0469C18.9285 89.3806 18.9945 89.7104 19.0953 90.0312H18.7016C13.2958 91.0451 8.00499 92.552 2.90236 94.5312C2.76878 94.5585 2.64381 94.6153 2.53758 94.6971C2.43135 94.7788 2.34685 94.8833 2.29093 95.002C2.235 95.1207 2.20923 95.2503 2.2157 95.3802C2.22216 95.5102 2.26068 95.6369 2.32814 95.75C2.39106 95.8993 2.49997 96.027 2.64053 96.1162C2.78109 96.2055 2.94672 96.2521 3.11564 96.25C3.2238 96.2719 3.3356 96.2719 3.44377 96.25C8.44123 94.3141 13.6219 92.8386 18.9149 91.8437L19.4727 91.75L19.932 93.0469L20.2602 93.9219L20.5883 93.0469C21.1308 91.806 21.527 90.5116 21.7695 89.1875C21.8044 88.982 21.7958 88.772 21.7442 88.5697C21.6927 88.3674 21.5992 88.177 21.4693 88.0096C21.3394 87.8422 21.1756 87.7012 20.9877 87.5949C20.7998 87.4886 20.5915 87.4192 20.375 87.3906Z" fill="white" stroke="#FF6600"/>
<path d="M25.8054 89.0471C25.8452 88.8399 25.8367 88.6268 25.7804 88.4231C25.7242 88.2193 25.6216 88.0298 25.4799 87.868C25.3383 87.7062 25.161 87.5761 24.9607 87.4867C24.7604 87.3974 24.5419 87.3511 24.3207 87.3511C24.0995 87.3511 23.8809 87.3974 23.6806 87.4867C23.4803 87.5761 23.303 87.7062 23.1614 87.868C23.0197 88.0298 22.9171 88.2193 22.8609 88.4231C22.8046 88.6268 22.7961 88.8399 22.8359 89.0471C23.0798 90.3692 23.4703 91.6629 24.0007 92.9065L24.3289 93.7815L24.657 92.9065C25.1624 91.656 25.5468 90.3642 25.8054 89.0471Z" fill="white" stroke="#FF6600"/>
<path d="M26.839 89.0466C27.0816 90.3708 27.4777 91.6652 28.0203 92.906L28.3484 93.781L28.6601 92.906C29.2005 91.6644 29.5966 90.3703 29.8414 89.0466C29.8634 88.8463 29.841 88.6439 29.7755 88.4523C29.7101 88.2608 29.6032 88.0845 29.4617 87.9349C29.3201 87.7852 29.1472 87.6656 28.954 87.5837C28.7608 87.5018 28.5517 87.4595 28.3402 87.4595C28.1287 87.4595 27.9196 87.5018 27.7264 87.5837C27.5332 87.6656 27.3602 87.7852 27.2187 87.9349C27.0772 88.0845 26.9702 88.2608 26.9048 88.4523C26.8394 88.6439 26.817 88.8463 26.839 89.0466Z" fill="white" stroke="#FF6600"/>
<path d="M36.7812 88.9532C37.0534 90.3537 37.4711 91.7251 38.0281 93.0469L38.3398 93.9219L38.6679 93.0469C39.2174 91.7226 39.6348 90.352 39.9148 88.9532C39.9911 88.7194 40.0086 88.4717 39.9659 88.2303C39.9232 87.9888 39.8215 87.7603 39.669 87.5631C39.5165 87.366 39.3175 87.2057 39.0881 87.0952C38.8586 86.9848 38.6051 86.9272 38.348 86.9272C38.0909 86.9272 37.8374 86.9848 37.608 87.0952C37.3785 87.2057 37.1795 87.366 37.027 87.5631C36.8746 87.7603 36.7729 87.9888 36.7302 88.2303C36.6875 88.4717 36.705 88.7194 36.7812 88.9532Z" fill="white" stroke="#FF6600"/>
<path d="M42.425 87.2188C42.2005 87.2281 41.9804 87.2813 41.7783 87.3751C41.5763 87.4689 41.3966 87.6011 41.2505 87.7638C41.1044 87.9264 40.9949 88.1159 40.9288 88.3205C40.8627 88.5251 40.8415 88.7404 40.8665 88.9531C41.1387 90.3537 41.5563 91.725 42.1133 93.0469L42.425 93.9219L42.7532 93.0469C43.3026 91.7225 43.7201 90.3519 44 88.9531C44.025 88.7391 44.0033 88.5225 43.9363 88.3169C43.8692 88.1113 43.7583 87.9211 43.6104 87.7582C43.4625 87.5954 43.2809 87.4634 43.0769 87.3706C42.8729 87.2777 42.651 87.226 42.425 87.2188Z" fill="white" stroke="#FF6600"/>
<path d="M65.689 63.375C65.689 52.9062 59.6351 43.9687 57.5843 41.2188C54.0065 46.0355 51.4793 51.4868 50.1523 57.25C49.721 59.2657 49.5066 61.3179 49.5124 63.375C49.5358 66.4364 49.9995 69.4803 50.8906 72.4219C52.3604 77.0766 54.6157 81.4726 57.5679 85.4375C59.6351 82.7969 65.689 73.875 65.689 63.375Z" fill="white" stroke="#FF6600"/>
<path d="M64.1633 94.5937C59.0591 92.6188 53.7688 91.1119 48.3641 90.0938H47.9704C48.0821 89.7428 48.1536 89.3813 48.1836 89.0156C48.255 88.7828 48.2684 88.5373 48.2228 88.2986C48.1772 88.06 48.074 87.8347 47.9211 87.6406C47.7683 87.4466 47.5702 87.2891 47.3424 87.1806C47.1145 87.0721 46.8633 87.0156 46.6086 87.0156C46.3539 87.0156 46.1027 87.0721 45.8749 87.1806C45.6471 87.2891 45.449 87.4466 45.2961 87.6406C45.1433 87.8347 45.04 88.06 44.9945 88.2986C44.9489 88.5373 44.9623 88.7828 45.0336 89.0156C45.32 90.4198 45.7429 91.7955 46.2969 93.125L46.625 93.9688L46.9368 93.1094C47.1008 92.7031 47.2813 92.1875 47.4618 91.6719L48.0524 91.7656C53.3449 92.7695 58.5252 94.2501 63.5235 96.1875C63.6268 96.2025 63.7319 96.2025 63.8352 96.1875C64.0324 96.1875 64.2236 96.1224 64.3761 96.0033C64.5286 95.8843 64.6331 95.7185 64.6718 95.5343C64.7104 95.3502 64.6809 95.1589 64.5882 94.9931C64.4955 94.8273 64.3454 94.6972 64.1633 94.625V94.5937Z" fill="white" stroke="#FF6600"/>
</svg>
