<svg width="98" height="98" viewBox="0 0 98 98" fill="none" xmlns="http://www.w3.org/2000/svg">
<path d="M44.5863 60.1318C46.1954 63.5273 47.2409 68.3167 47.5697 73.6212H52.1242C52.4545 68.3167 53.4984 63.5288 55.1075 60.1318C65.6863 37.8031 62.9227 0.559117 49.8485 0.515177C36.2303 0.469723 34.4454 38.7258 44.5863 60.1318Z" fill="white" stroke="#FF6600"/>
<path d="M41.1742 73.6213H44.5227C44.2 68.8032 43.2576 64.4047 41.8485 61.4304C31.7666 40.1607 33.8848 13.8713 41.2273 1.7168C32.4348 4.25922 25.6621 10.7623 22.4166 20.1971C17.5833 34.2426 22.0379 50.1668 33.2651 58.9547C37.2651 62.0607 39.6591 66.9698 39.6591 72.1062C39.6591 72.9395 40.3257 73.6213 41.1742 73.6213Z" fill="white" stroke="#FF6600"/>
<path d="M62.4924 48.2427C60.9469 54.3942 58.9772 59.0306 57.8409 61.4245C56.4318 64.4093 55.4924 68.8033 55.1742 73.6215H58.5378C59.3712 73.6215 60.053 72.9396 60.053 72.1063C60.053 64.8336 63.3863 61.7578 67.2651 58.1821C68.0075 57.5003 68.7499 56.8184 69.4772 56.076C65.8106 55.1518 62.9924 52.0609 62.4924 48.2427Z" fill="white" stroke="#FF6600"/>
<path d="M63.7803 42.0911C64.6591 40.6366 65.947 39.4396 67.4924 38.6517C68.6439 33.6669 73.2954 30.7729 77.7651 30.7729C78.25 30.7729 78.7197 30.8033 79.1894 30.879C79.0242 16.1563 70.3561 5.27749 58.5076 1.77295C64.5894 11.9169 65.8409 29.3411 63.7803 42.0911Z" fill="white" stroke="#FF6600"/>
<path d="M62.0985 79.4241H59.7197L57.8106 76.6514H54.1288L56.0379 79.4241H43.6743L45.5834 76.6514H41.9015L39.9924 79.4241H37.6137C36.7803 79.4241 36.0985 80.1059 36.0985 80.9392C36.0985 81.7877 36.7803 82.4544 37.6137 82.4544H39.0531V94.4544C39.0531 96.1211 40.4167 97.4847 42.0834 97.4847H57.6288C59.3106 97.4847 60.6591 96.1211 60.6591 94.4544V82.4544H62.0985C62.9318 82.4544 63.6137 81.7877 63.6137 80.9392C63.6137 80.1059 62.9318 79.4241 62.0985 79.4241Z" fill="white" stroke="#FF6600"/>
<path d="M94.3409 42.1213C93.3106 41.2425 92.0227 40.7425 90.6894 40.6667C89.7727 37.4258 86.4303 35.5334 83.2349 36.394C79.053 31.2667 70.4152 34.2531 70.2652 40.8334C67.4924 41.5001 65.4318 44.0152 65.4318 47.0001C65.4318 50.5001 68.2803 53.3485 71.7803 53.3485H90.2803C93.7803 53.3485 96.6288 50.5001 96.6288 47.0001C96.6288 45.1061 95.7955 43.3334 94.3409 42.1213Z" fill="white" stroke="#FF6600"/>
<path d="M17.8409 37.1515C17.0227 31.2424 17.5379 25.0758 19.553 19.2121C19.6288 18.9849 19.7197 18.7576 19.8106 18.5303C15.1894 13.8788 6.70455 17.0303 6.58334 23.8636C3.59849 24.5455 1.37122 27.2273 1.37122 30.4243C1.37122 34.1212 4.37122 37.1515 8.08334 37.1515H17.8409Z" fill="white" stroke="#FF6600"/>
<path d="M82.6167 12.0591C84.2879 12.0591 85.647 13.4182 85.647 15.0894C85.647 15.9258 86.3242 16.6046 87.1621 16.6046C88 16.6046 88.6773 15.9258 88.6773 15.0894C88.6773 13.4182 90.0363 12.0591 91.7076 12.0591C92.5454 12.0591 93.2227 11.3803 93.2227 10.544C93.2227 9.7076 92.5454 9.02881 91.7076 9.02881C89.9 9.02881 88.2727 9.82426 87.1621 11.0849C86.0515 9.82426 84.4242 9.02881 82.6167 9.02881C81.7788 9.02881 81.1015 9.7076 81.1015 10.544C81.1015 11.3803 81.7788 12.0591 82.6167 12.0591Z" fill="white" stroke="#FF6600"/>
<path d="M18.4121 51.3364C16.2727 51.3364 14.3591 52.3273 13.1091 53.8728C11.8591 52.3258 9.94544 51.3364 7.80605 51.3364C6.96817 51.3364 6.29089 52.0152 6.29089 52.8516C6.29089 53.6879 6.96817 54.3667 7.80605 54.3667C9.89544 54.3667 11.5939 56.0667 11.5939 58.1546C11.5939 58.991 12.2712 59.6698 13.1091 59.6698C13.947 59.6698 14.6242 58.991 14.6242 58.1546C14.6242 56.0667 16.3227 54.3667 18.4121 54.3667C19.25 54.3667 19.9273 53.6879 19.9273 52.8516C19.9273 52.0152 19.2485 51.3364 18.4121 51.3364Z" fill="white" stroke="#FF6600"/>
</svg>
