<svg width="48" height="76" viewBox="0 0 48 76" fill="none" xmlns="http://www.w3.org/2000/svg">
<path d="M27.2501 47.4249V46.9249H26.7501H22.0751C10.2762 46.9249 0.675049 37.3238 0.675049 25.525V22.4C0.675049 10.6011 10.2762 1 22.0751 1H30.2249C34.7499 1 38.425 4.67708 38.425 9.17493V10.2999C38.425 11.3988 37.5239 12.2999 36.425 12.2999H28.25C24.2484 12.2999 20.9242 9.40433 20.2167 5.58398L20.1295 5.11341L19.6556 5.17987C11.2134 6.36373 4.67502 13.6209 4.67502 22.4V25.525C4.67502 35.1261 12.4738 42.9249 22.0751 42.9249H26.7501H27.2501V42.4249V38.95V38.5131L26.8171 38.4545C18.0103 37.2625 11.1751 29.6949 11.1751 20.5749V17.9499C11.1751 16.8511 12.0761 15.95 13.1751 15.95H45.3251C46.4239 15.95 47.3251 16.8511 47.3251 17.9499V20.5749C47.3251 29.6949 40.4898 37.2625 31.683 38.4545L31.2501 38.5131V38.95V42.4249V42.9249H31.7501H40.6C44.299 42.9249 47.3251 45.9512 47.3251 49.65C47.3251 53.3728 44.3001 56.375 40.6 56.375H31.7501H31.2501V56.875V61.275V61.775H31.7501H37.5501C38.6522 61.775 39.5501 62.6544 39.5501 63.775C39.5501 64.8738 38.649 65.775 37.5501 65.775H31.7501H31.2501V66.275V70.5V71H31.7501H35.8251C36.9239 71 37.8251 71.9012 37.8251 73C37.8251 74.0988 36.9239 75 35.8251 75H22.6751C21.5545 75 20.6751 74.1021 20.6751 73C20.6751 71.8979 21.5545 71 22.6751 71H26.7501H27.2501V70.5V66.275V65.775H26.7501H26.1001C22.4273 65.775 19.425 62.7749 19.425 59.075C19.425 55.3749 22.4273 52.375 26.1001 52.375H26.7501H27.2501V51.875V47.4249ZM26.7501 61.775H27.2501V61.275V56.875V56.375H26.7501H26.1001C24.6164 56.375 23.425 57.6064 23.425 59.075C23.425 60.5436 24.6164 61.775 26.1001 61.775H26.7501ZM31.2501 51.875V52.375H31.7501H40.6C42.1011 52.375 43.325 51.151 43.325 49.6499C43.325 48.1488 42.1011 46.9249 40.6 46.9249L31.7501 46.9249H31.2501V47.4249V51.875ZM33.6499 8.29995H34.3935L34.113 7.61131C33.4888 6.07913 31.9847 5 30.2249 5H24.8501H24.1065L24.387 5.68864C25.0104 7.21896 26.5134 8.29995 28.25 8.29995H33.6499ZM22.925 27.2999C22.925 28.9478 24.2456 30.2999 25.925 30.2999H26.2501V30.625C26.2501 32.2761 27.5988 33.625 29.2501 33.625C30.9012 33.625 32.2501 32.2761 32.2501 30.625V30.2999H32.575C34.2263 30.2999 35.575 28.951 35.575 27.2999C35.575 25.6488 34.2263 24.2999 32.575 24.2999H32.2501V23.975C32.2501 22.2955 30.8979 20.975 29.2501 20.975C27.6021 20.975 26.2501 22.2955 26.2501 23.975V24.2999H25.925C24.2456 24.2999 22.925 25.6521 22.925 27.2999Z" fill="white" stroke="#FF6600"/>
</svg>
