<svg width="107" height="98" viewBox="0 0 107 98" fill="none" xmlns="http://www.w3.org/2000/svg">
<path d="M2.90538 73.0643L20.0001 76.2883C21.5814 68.115 29.0863 61.8949 38.1191 61.8949H57.7898C62.6744 61.8949 67.2076 59.5861 69.9142 55.715C74.9071 48.5768 83.2673 44.3168 92.2766 44.3168H96.2014L104.113 33.1502L89.2574 30.3521L92.2224 16.2273L77.3914 19.0512L74.4563 4.91777L61.8904 12.9344L53.5 0.949219L45.1096 12.934L32.5437 4.91738L29.6086 19.0508L14.7776 16.2271L17.7426 30.3519L2.9023 33.1473L11.3197 45.1148L1 53.1059L11.3197 61.0967L2.90538 73.0643Z" fill="white" stroke="#FF6600"/>
<path d="M93.4902 50.1763H92.2766C85.3312 50.1763 78.8844 53.4606 75.0332 58.9653C71.182 64.47 64.7352 67.7544 57.7898 67.7544H38.1191C31.3329 67.7544 25.8145 73.0101 25.8145 79.4731V97.0513C26.4818 97.0513 44.891 97.0513 44.2715 97.0513V91.1919H38.1191V85.3325H62.7285V97.0513C63.3958 97.0513 81.8051 97.0513 81.1855 97.0513V91.1919H75.0332V85.3325L106 67.7544V61.895C99.2138 61.895 93.4902 56.6392 93.4902 50.1763ZM90.4141 64.8247H84.2617V58.9653H90.4141V64.8247Z" fill="white" stroke="#FF6600"/>
</svg>
