<svg width="80" height="80" viewBox="0 0 80 80" fill="none" xmlns="http://www.w3.org/2000/svg">
<path d="M40.4998 19.2495H44.1871V27.9366H40.4998V19.2495Z" fill="white" stroke="#FF6600"/>
<path d="M55.3657 9.04179L55.3658 9.04185C55.7115 9.3874 55.9057 9.85639 55.9056 10.3452V10.3453V27.9364H49.8746V16.4055C49.8746 14.834 48.6026 13.5619 47.0309 13.5619H37.6563C36.0849 13.5619 34.8127 14.8338 34.8127 16.4055V27.9364H28.7817V10.3453C28.7817 9.85665 28.9759 9.38772 29.3217 9.04194L33.0538 5.30988L33.0539 5.30973C33.1941 5.16942 33.3556 5.05289 33.5328 4.96438L33.5328 4.96455L33.545 4.95804L41.5249 0.691749C42.0408 0.436094 42.6466 0.436069 43.1627 0.691762L51.1424 4.95789L51.1423 4.95805L51.1544 4.9641C51.3318 5.05284 51.4933 5.16933 51.6337 5.30972L55.3657 9.04179Z" fill="white" stroke="#FF6600"/>
<path d="M38.8226 56.0604H0.501465V52.373H42.51L38.8226 56.0604Z" fill="white" stroke="#FF6600"/>
<mask id="path-4-inside-1_242_2498" fill="white">
<path d="M22.065 79.9971C22.0615 80.0007 22.0606 80.0014 22.065 79.9971Z"/>
</mask>
<path d="M22.065 79.9971C22.0615 80.0007 22.0606 80.0014 22.065 79.9971Z" fill="white"/>
<path d="M22.065 79.9971L22.7876 80.6883L21.3578 79.29L22.065 79.9971ZM21.3578 79.29C21.3551 79.2928 21.3511 79.2968 21.3466 79.3014C21.3452 79.3028 21.3398 79.3084 21.333 79.3155C21.3311 79.3176 21.3278 79.3211 21.3237 79.3256C21.3211 79.3285 21.3115 79.3389 21.2998 79.3527C21.2951 79.3582 21.2805 79.3755 21.263 79.3987C21.2551 79.4093 21.2364 79.4344 21.2152 79.4681C21.2046 79.485 21.1865 79.5148 21.1671 79.5537C21.1525 79.583 21.1119 79.6666 21.0861 79.782C21.0732 79.8394 20.9818 80.2345 21.2683 80.6083C21.6054 81.0483 22.0896 81.0066 22.2064 80.9896C22.3558 80.9678 22.4634 80.9166 22.4951 80.9014C22.5411 80.8793 22.576 80.8582 22.5946 80.8465C22.6561 80.8077 22.7007 80.7696 22.7022 80.7683C22.7242 80.75 22.7407 80.7345 22.7427 80.7326C22.7484 80.7274 22.7528 80.7231 22.7552 80.7209C22.76 80.7162 22.7638 80.7124 22.7657 80.7106C22.7697 80.7066 22.773 80.7033 22.7751 80.7012C22.7795 80.6967 22.7837 80.6923 22.7876 80.6883L21.3423 79.3058C21.3445 79.3036 21.3473 79.3007 21.3507 79.2972C21.3522 79.2957 21.3551 79.2927 21.3589 79.289C21.3606 79.2873 21.3643 79.2837 21.3691 79.2791C21.3713 79.2769 21.3758 79.2727 21.3814 79.2674C21.3834 79.2656 21.3999 79.2501 21.4218 79.2318C21.4234 79.2305 21.4679 79.1924 21.5295 79.1537C21.5481 79.142 21.5829 79.1208 21.629 79.0987C21.6606 79.0835 21.7682 79.0323 21.9176 79.0105C22.0344 78.9935 22.5186 78.9518 22.8557 79.3918C23.1422 79.7656 23.0508 80.1607 23.0379 80.2181C23.0122 80.3335 22.9715 80.4171 22.9569 80.4464C22.9375 80.4853 22.9194 80.5151 22.9088 80.532C22.8876 80.5657 22.869 80.5908 22.861 80.6014C22.8436 80.6246 22.8289 80.6419 22.8242 80.6474C22.8125 80.6612 22.803 80.6716 22.8004 80.6744C22.7964 80.6788 22.7931 80.6824 22.7912 80.6844C22.7847 80.6913 22.7796 80.6965 22.7787 80.6975C22.7751 80.7011 22.7727 80.7036 22.7721 80.7042L21.3578 79.29Z" fill="#FF6600" mask="url(#path-4-inside-1_242_2498)"/>
<path d="M23.2752 79.4969C29.4329 73.3607 66.6385 36.2786 69.3011 33.6235H75.4745L29.4484 79.4969H23.2752Z" fill="white" stroke="#FF6600"/>
<path d="M79.4983 57.7257L57.5729 79.4973H51.5566L79.4983 51.7026V57.7257Z" fill="white" stroke="#FF6600"/>
<path d="M79.4985 43.6639L43.5107 79.4971H37.4934L79.4985 37.642V43.6639Z" fill="white" stroke="#FF6600"/>
<path d="M48.1974 46.6858H0.501465V42.9985H51.8846L48.1974 46.6858Z" fill="white" stroke="#FF6600"/>
<path d="M29.448 65.4349H0.501465V61.7476H33.1354L29.448 65.4349Z" fill="white" stroke="#FF6600"/>
<path d="M0.501465 77.6535V71.1226H23.6041L15.2295 79.4972H2.34508C1.32587 79.4972 0.501465 78.6729 0.501465 77.6535Z" fill="white" stroke="#FF6600"/>
<path d="M77.6547 79.4971H65.6227L79.4984 65.7606V77.6535C79.4984 78.6727 78.6741 79.4971 77.6547 79.4971Z" fill="white" stroke="#FF6600"/>
<path d="M57.572 37.3109H0.501465V33.6235H61.2593L57.572 37.3109Z" fill="white" stroke="#FF6600"/>
<path d="M77.418 8.87476H61.4174C61.1308 7.43298 60.4422 6.07621 59.3866 5.02055L55.6567 1.29071C55.6566 1.29057 55.6564 1.29043 55.6563 1.29029C55.3657 0.998353 55.0514 0.731196 54.7334 0.5H63.4365C63.7231 0.5 64.0058 0.566689 64.2614 0.694446L64.2614 0.694455L64.2643 0.695866L73.792 5.38156C73.7925 5.38181 73.793 5.38205 73.7935 5.3823C73.9687 5.47015 74.1304 5.58691 74.271 5.7275L77.418 8.87476Z" fill="white" stroke="#FF6600"/>
<path d="M77.6549 27.9365H61.593V14.562H79.4985V25.9366C79.4985 26.9971 78.6325 27.9365 77.6549 27.9365Z" fill="white" stroke="#FF6600"/>
<path d="M9.87607 23.2489V22.8254L9.45826 22.7557C4.26613 21.8905 0.501465 18.2366 0.501465 14.062C0.501465 11.7807 1.69201 8.36506 3.73598 5.5116C5.78223 2.65494 8.58102 0.5 11.7198 0.5C14.8587 0.5 17.6574 2.65494 19.7037 5.51159C21.7476 8.36506 22.9381 11.7807 22.9381 14.062C22.9381 18.2365 19.1734 21.8903 13.9812 22.7557L13.5634 22.8254V23.2489V27.9365H9.87607V23.2489Z" fill="white" stroke="#FF6600"/>
</svg>
