<svg width="27" height="24" viewBox="0 0 27 24" fill="none" xmlns="http://www.w3.org/2000/svg">
<path d="M8.77992 4.66667C8.77992 4.05383 8.90208 3.447 9.13942 2.88081C9.37677 2.31462 9.72464 1.80017 10.1632 1.36683C10.6017 0.933495 11.1224 0.589751 11.6954 0.355229C12.2684 0.120707 12.8825 0 13.5027 0C14.1229 0 14.737 0.120707 15.31 0.355229C15.883 0.589751 16.4037 0.933495 16.8422 1.36683C17.2808 1.80017 17.6286 2.31462 17.866 2.88081C18.1033 3.447 18.2255 4.05383 18.2255 4.66667C18.2255 5.90434 17.7279 7.09133 16.8422 7.9665C15.9565 8.84167 14.7553 9.33333 13.5027 9.33333C12.2501 9.33333 11.0489 8.84167 10.1632 7.9665C9.2775 7.09133 8.77992 5.90434 8.77992 4.66667ZM3.38247 10.6667C4.27715 10.6667 5.13519 10.3155 5.76783 9.69036C6.40047 9.06524 6.75588 8.21739 6.75588 7.33333C6.75588 6.44928 6.40047 5.60143 5.76783 4.97631C5.13519 4.35119 4.27715 4 3.38247 4C2.48778 4 1.62974 4.35119 0.997105 4.97631C0.364468 5.60143 0.00905594 6.44928 0.00905594 7.33333C0.00905594 8.21739 0.364468 9.06524 0.997105 9.69036C1.62974 10.3155 2.48778 10.6667 3.38247 10.6667ZM26.9963 7.33333C26.9963 8.21739 26.6409 9.06524 26.0083 9.69036C25.3757 10.3155 24.5176 10.6667 23.6229 10.6667C22.7282 10.6667 21.8702 10.3155 21.2376 9.69036C20.6049 9.06524 20.2495 8.21739 20.2495 7.33333C20.2495 6.44928 20.6049 5.60143 21.2376 4.97631C21.8702 4.35119 22.7282 4 23.6229 4C24.5176 4 25.3757 4.35119 26.0083 4.97631C26.6409 5.60143 26.9963 6.44928 26.9963 7.33333ZM11.4787 12C9.61653 12 8.10524 13.4933 8.10524 15.3333V18.6667C8.10524 20.0812 8.6739 21.4377 9.68612 22.4379C10.6983 23.4381 12.0712 24 13.5027 24C14.9342 24 16.3071 23.4381 17.3193 22.4379C18.3315 21.4377 18.9002 20.0812 18.9002 18.6667V15.3333C18.9002 13.4933 17.3889 12 15.5267 12H11.4787ZM5.40651 15.3333C5.40651 14.5627 5.55224 13.8267 5.82212 13.152L2.49998 14.032C1.63629 14.2608 0.899844 14.819 0.452501 15.5841C0.00515767 16.3491 -0.116485 17.2584 0.114306 18.112L0.63786 20.0453C0.821365 20.7219 1.13796 21.3562 1.56958 21.9119C2.00119 22.4676 2.53936 22.9338 3.15335 23.284C3.76734 23.6341 4.44512 23.8613 5.14799 23.9526C5.85086 24.0439 6.56504 23.9975 7.24975 23.816L7.29562 23.8027C6.07534 22.3628 5.4066 20.5447 5.40651 18.6667V15.3333ZM21.5989 18.6667C21.5989 20.6213 20.8891 22.4133 19.7098 23.8053L19.753 23.816C21.1354 24.1817 22.6083 23.99 23.8477 23.2829C25.087 22.5758 25.9915 21.4112 26.3621 20.0453L26.8857 18.112C27.1165 17.2584 26.9948 16.3491 26.5475 15.5841C26.1002 14.819 25.3637 14.2608 24.5 14.032L21.186 13.152C21.4532 13.8293 21.5989 14.5653 21.5989 15.3333V18.6667Z" fill="white"/>
</svg>
