<svg width="90" height="100" viewBox="0 0 90 100" fill="none" xmlns="http://www.w3.org/2000/svg">
<path fill-rule="evenodd" clip-rule="evenodd" d="M14.3359 99.9998C13.9452 99.9998 13.5546 99.8045 13.164 99.4138C12.7734 98.8279 12.9687 98.0467 13.5546 97.4607C14.1405 96.8748 18.6327 93.7498 21.5624 86.1326C25.2734 76.1717 23.5155 63.867 16.289 50.5857C11.9921 42.9685 9.45304 35.5467 8.47648 28.5154C7.69523 22.8513 7.89054 17.5779 9.25773 12.8904C11.7968 4.49197 16.4843 0.58572 16.6796 0.390408C17.2655 -0.19553 18.0468 -0.000217138 18.4374 0.58572C19.0234 1.17166 19.0234 1.95291 18.4374 2.53885C18.2421 2.53885 13.9452 6.24978 11.9921 13.6717C9.06241 23.8279 11.4062 36.1326 18.6327 49.4138C22.9296 57.2263 25.2734 64.6482 26.0546 71.6795C26.4452 77.1482 25.8593 82.617 23.9062 87.3045C20.7812 95.7029 15.3124 99.6092 15.1171 99.8045C14.9218 99.9998 14.5312 99.9998 14.3359 99.9998Z" fill="#FF6600"/>
<path fill-rule="evenodd" clip-rule="evenodd" d="M73.1249 99.9998C72.7343 99.9998 72.3437 99.8045 71.953 99.4138C71.5624 98.8279 71.7577 98.0467 72.3437 97.4607C72.9296 96.8748 77.4218 93.7498 80.1562 86.1326C83.8671 76.1717 82.1093 63.867 74.8827 50.5857C70.5859 42.9685 68.0468 35.3513 67.0702 28.5154C66.289 22.8513 66.4843 17.5779 67.8515 12.6951C70.3905 4.49197 75.078 0.390408 75.2734 0.390408C75.8593 -0.19553 76.6405 -0.000217138 77.0312 0.58572C77.6171 1.17166 77.6171 1.95291 77.0312 2.34353C76.8359 2.53885 72.539 6.24978 70.5859 13.6717C67.6562 23.8279 69.9999 36.1326 77.2265 49.4138C81.5234 57.2263 84.0624 64.6482 84.6484 71.4842C85.2343 77.1482 84.453 82.4217 82.6952 87.3045C79.5702 95.7029 74.1015 99.6092 73.9062 99.8045C73.7109 99.9998 73.3202 99.9998 73.1249 99.9998Z" fill="#FF6600"/>
<path fill-rule="evenodd" clip-rule="evenodd" d="M63.5546 99.9998C63.164 99.9998 62.7734 99.8045 62.3827 99.4138C61.9921 98.8279 62.1874 98.0467 62.7734 97.4607C63.3593 96.8748 67.8515 93.7498 70.7812 86.1326C74.4921 76.1717 72.7343 63.867 65.5077 50.5857C61.2109 42.9685 58.6718 35.5467 57.6952 28.5154C56.914 22.8513 57.1093 17.5779 58.4765 12.8904C60.8202 4.49197 65.5077 0.58572 65.703 0.390408C66.289 -0.19553 67.2655 -0.000217138 67.6562 0.58572C68.2421 1.17166 68.0468 1.95291 67.4609 2.53885C67.4609 2.53885 63.164 6.24978 61.2109 13.6717C58.2812 23.8279 60.6249 36.1326 67.8515 49.4138C72.1484 57.2263 74.4921 64.6482 75.2734 71.6795C75.664 77.1482 75.078 82.617 73.1249 87.3045C69.9999 95.7029 64.5312 99.6092 64.3359 99.8045C64.1405 99.9998 63.7499 99.9998 63.5546 99.9998Z" fill="#FF6600"/>
<path fill-rule="evenodd" clip-rule="evenodd" d="M26.0549 99.9998C25.6643 99.9998 25.2737 99.8045 24.883 99.4138C24.4924 98.8279 24.6877 98.0467 25.2737 97.4607C25.8596 96.8748 30.3518 93.7498 33.2815 86.1326C36.9924 76.1717 35.2346 63.867 28.008 50.5857C23.7112 42.9685 20.9768 35.5467 20.0002 28.5154C19.219 22.8513 19.6096 17.5779 20.9768 12.8904C23.3205 4.49197 28.2034 0.58572 28.3987 0.390408C28.9846 -0.19553 29.7659 -0.000217138 30.1565 0.58572C30.7424 1.17166 30.7424 1.95291 30.1565 2.53885C29.9612 2.53885 25.6643 6.24978 23.5159 13.6717C20.7815 23.8279 23.1252 36.1326 30.3518 49.4138C34.6487 57.2263 37.1877 64.6482 37.7737 71.6795C38.1643 77.1482 37.5784 82.617 35.8205 87.3045C32.5002 95.7029 27.0315 99.6092 26.8362 99.8045C26.6409 99.9998 26.2502 99.9998 26.0549 99.9998Z" fill="#FF6600"/>
<path fill-rule="evenodd" clip-rule="evenodd" d="M50.0782 97.0703C49.8829 97.0703 49.4923 97.0703 49.297 96.875C48.711 96.4843 48.5157 95.7031 48.9064 94.9218C48.9064 94.9218 54.1798 86.5234 52.6173 81.0547C52.422 80.2734 52.8126 79.4922 53.5939 79.2968C54.3751 79.1015 55.1564 79.4922 55.3517 80.2734C57.1095 87.1093 51.4454 96.0937 51.2501 96.4843C50.8595 96.875 50.4689 97.0703 50.0782 97.0703Z" fill="#FF6600"/>
<path fill-rule="evenodd" clip-rule="evenodd" d="M53.9844 71.0938C53.2031 71.0938 52.6172 70.5078 52.6172 69.7266C52.6172 69.5312 53.2031 59.7656 49.1016 55.8594C48.5156 55.2734 48.5156 54.4922 49.1016 53.9062C49.6875 53.3203 50.4688 53.3203 51.0547 53.9062C55.9375 58.7891 55.3516 69.3359 55.3516 69.7266C55.3516 70.5078 54.7656 71.0938 53.9844 71.0938Z" fill="#FF6600"/>
<path fill-rule="evenodd" clip-rule="evenodd" d="M46.7576 43.3591C46.367 43.3591 45.9764 43.1638 45.781 42.7732C45.3904 42.5779 38.7498 34.1795 39.9217 27.3435C40.117 26.5623 40.8982 25.9763 41.4842 26.1716C42.2654 26.367 42.8514 27.1482 42.656 27.7341C41.6795 33.3982 47.7342 41.0154 47.9295 41.2107C48.3201 41.7966 48.3201 42.5779 47.7342 42.9685C47.3435 43.3591 47.1482 43.3591 46.7576 43.3591Z" fill="#FF6600"/>
<path fill-rule="evenodd" clip-rule="evenodd" d="M40.8985 20.8984C40.1173 20.8984 39.5313 20.3125 39.5313 19.5312C39.5313 19.1406 39.336 8.39844 44.2188 3.71094C44.8048 3.125 45.586 3.125 46.172 3.71094C46.7579 4.29688 46.7579 5.07812 46.172 5.66406C42.0704 9.57031 42.2657 19.3359 42.2657 19.5312C42.2657 20.3125 41.6798 20.8984 40.8985 20.8984Z" fill="#FF6600"/>
<path fill-rule="evenodd" clip-rule="evenodd" d="M7.5 89.4531C6.71875 89.4531 6.13281 88.8672 6.13281 88.0859V67.9688C2.61719 67.3828 0.078125 64.4531 0.078125 60.7422C0.078125 56.6406 3.39844 53.125 7.5 53.125C11.6016 53.125 14.9219 56.6406 14.9219 60.7422C14.9219 64.4531 12.3828 67.3828 8.86719 67.9688V88.0859C8.86719 88.8672 8.28125 89.4531 7.5 89.4531ZM7.5 55.8594C4.96094 55.8594 2.8125 58.0078 2.8125 60.7422C2.8125 63.2812 4.96094 65.4297 7.5 65.4297C10.0391 65.4297 12.1875 63.2812 12.1875 60.7422C12.1875 58.0078 10.2344 55.8594 7.5 55.8594Z" fill="#FF6600"/>
<path fill-rule="evenodd" clip-rule="evenodd" d="M83.4766 34.9609C82.6953 34.9609 82.1094 34.375 82.1094 33.5938V25C81.1328 24.6094 80.3516 23.6328 79.9609 22.4609C78.0078 22.2656 76.4453 19.7266 76.4453 16.6016C76.4453 13.4766 77.8125 11.1328 79.9609 10.7422C80.3516 8.20312 81.9141 6.25 83.8672 6.25C86.2109 6.25 87.7734 9.375 87.7734 12.1094V12.3047C89.1406 13.4766 89.9219 15.4297 89.9219 17.3828C89.9219 20.1172 88.5547 22.4609 86.7969 23.0469C86.2109 24.2188 85.4297 24.8047 84.8438 25V33.5938C84.8438 34.375 84.2578 34.9609 83.4766 34.9609ZM80.9375 19.5312H81.3281C81.7188 19.7266 82.1094 20.1172 82.3047 20.7031C82.5 21.875 83.0859 22.6562 83.4766 22.6562C83.8672 22.6562 84.2578 22.0703 84.4531 21.2891C84.8438 20.8984 85.2344 20.5078 85.8203 20.5078C86.2109 20.5078 87.1875 19.3359 87.1875 17.3828C87.1875 16.0156 86.4062 14.6484 85.8203 14.2578C85.2344 14.0625 85.0391 13.6719 85.0391 13.0859V12.1094C85.0391 10.1562 84.0625 8.98438 83.8672 8.98438C83.4766 8.98438 82.5 10.1562 82.5 12.1094V12.3047C82.5 12.8906 82.1094 13.2812 81.7188 13.6719C81.1328 13.6719 80.7422 13.6719 80.3516 13.4766C79.9609 13.4766 79.1797 14.6484 79.1797 16.6016C79.1797 18.5547 79.9609 19.5312 80.1562 19.7266C80.5469 19.5312 80.7422 19.5312 80.9375 19.5312Z" fill="#FF6600"/>
</svg>
