<svg width="80" height="36" viewBox="0 0 80 36" fill="none" xmlns="http://www.w3.org/2000/svg">
<path d="M61.6 17.6331L61.75 17.8331H62H73.3333C76.6518 17.8331 79.5 21.1082 79.4998 25.3334C79.4998 29.5585 76.6515 32.8334 73.3331 32.8334H25.3331C25.256 32.8334 25.1826 32.8232 25.1137 32.8035L25.1096 32.8023L14.8002 29.9382L14.1664 29.7622V30.42V34.6667C14.1664 35.1269 13.794 35.5 13.3331 35.5H7.99984C7.59265 35.5 7.24511 35.2051 7.1784 34.8034L7.17835 34.8031L6.01038 27.7964L5.958 27.4821L5.65104 27.3968L2.80041 26.6048L2.16656 26.4287V27.0866V27.9998C2.16656 28.46 1.79414 28.8331 1.33328 28.8331C0.872423 28.8331 0.5 28.46 0.5 27.9998V22.6666C0.5 22.2064 0.872464 21.8333 1.33344 21.8333C1.7943 21.8333 2.16672 22.2064 2.16672 22.6666V23.5798V24.238L2.80077 24.0615L5.65139 23.2683L5.95818 23.1829L6.01054 22.8688L7.17851 15.8621L7.17853 15.8619C7.24513 15.4618 7.59251 15.1666 8 15.1666H13.3333C13.7941 15.1666 14.1666 15.5397 14.1666 15.9998V20.2466V20.9044L14.8004 20.7283L25.1098 17.8643L25.1098 17.8643L25.1145 17.8629C25.1826 17.8433 25.2557 17.8331 25.3333 17.8331H38H38.25L38.4 17.6331L42 12.8332C42 12.8332 42 12.8331 42 12.8331C42.1575 12.6233 42.4051 12.4998 42.6667 12.4998H48H48.5V11.9998V9.33328C48.5 8.87314 48.8724 8.5 49.3333 8.5C49.7941 8.5 50.1666 8.87314 50.1666 9.33328V12V12.5H50.6666H53.3333H53.8333V12V4C53.8333 2.07083 55.4041 0.5 57.3333 0.5C57.7941 0.5 58.1666 0.873142 58.1666 1.33328C58.1666 1.79342 57.7941 2.16656 57.3333 2.16656C56.3209 2.16656 55.5 2.98932 55.5 3.99984V11.9998V12.4998H56H57.3333C57.5949 12.4998 57.8425 12.6233 58 12.8331C58 12.8331 58 12.8332 58 12.8332L61.6 17.6331Z" fill="white" stroke="#FF6600"/>
</svg>
