<svg width="60" height="80" viewBox="0 0 60 80" fill="none" xmlns="http://www.w3.org/2000/svg">
<path d="M9.38477 18.2195L9.38477 18.2197C9.38502 18.9154 9.94836 19.479 10.6443 19.479C11.3403 19.479 11.9038 18.9155 11.9038 18.2195V16.8059C11.9038 16.1099 11.3403 15.5464 10.6443 15.5464C9.94831 15.5464 9.38477 16.1099 9.38477 16.8059L9.38477 18.2195Z" fill="white" stroke="#FF6600"/>
<path d="M14.9237 19.479C15.6197 19.479 16.1832 18.9155 16.1832 18.2195V16.8059C16.1832 16.1099 15.6197 15.5464 14.9237 15.5464C14.2276 15.5464 13.6643 16.1101 13.6643 16.8059L13.6643 18.2193C13.6643 18.2194 13.6643 18.2194 13.6643 18.2194C13.6643 18.2194 13.6643 18.2195 13.6643 18.2195C13.6641 18.9156 14.2278 19.479 14.9237 19.479Z" fill="white" stroke="#FF6600"/>
<path d="M19.203 19.479C19.899 19.479 20.4625 18.9155 20.4625 18.2195V16.8059C20.4625 16.1099 19.899 15.5464 19.203 15.5464C18.507 15.5464 17.9435 16.1099 17.9435 16.8059V18.2195C17.9435 18.9155 18.507 19.479 19.203 19.479Z" fill="white" stroke="#FF6600"/>
<path d="M23.4824 19.479C24.1784 19.479 24.742 18.9155 24.742 18.2195V16.8059C24.742 16.1099 24.1784 15.5464 23.4824 15.5464C22.7864 15.5464 22.2229 16.1099 22.2229 16.8059V18.2195C22.2229 18.9155 22.7864 19.479 23.4824 19.479Z" fill="white" stroke="#FF6600"/>
<path d="M26.5029 18.2195L26.5029 18.2197C26.5032 18.9154 27.0663 19.479 27.7625 19.479C28.4584 19.479 29.022 18.9155 29.022 18.2195V16.8059C29.022 16.1099 28.4584 15.5464 27.7625 15.5464C27.0665 15.5464 26.5029 16.1099 26.5029 16.8059L26.5029 18.2195Z" fill="white" stroke="#FF6600"/>
<path d="M9.38477 27.9129L9.38477 27.9131C9.38502 28.6088 9.94837 29.1724 10.6443 29.1724C11.3403 29.1724 11.9038 28.6089 11.9038 27.9129V26.4993C11.9038 25.8033 11.3403 25.2397 10.6443 25.2397C9.94831 25.2397 9.38477 25.8033 9.38477 26.4993L9.38477 27.9129Z" fill="white" stroke="#FF6600"/>
<path d="M14.9237 29.1724C15.6197 29.1724 16.1832 28.6089 16.1832 27.9129V26.4993C16.1832 25.8033 15.6197 25.2397 14.9237 25.2397C14.2276 25.2397 13.6643 25.8034 13.6643 26.4993L13.6643 27.9127C13.6643 27.9127 13.6643 27.9127 13.6643 27.9128C13.6643 27.9128 13.6643 27.9128 13.6643 27.9129C13.6641 28.609 14.2278 29.1724 14.9237 29.1724Z" fill="white" stroke="#FF6600"/>
<path d="M19.203 29.1724C19.899 29.1724 20.4625 28.6089 20.4625 27.9129V26.4993C20.4625 25.8033 19.899 25.2397 19.203 25.2397C18.507 25.2397 17.9435 25.8033 17.9435 26.4993V27.9129C17.9435 28.6089 18.507 29.1724 19.203 29.1724Z" fill="white" stroke="#FF6600"/>
<path d="M23.4824 29.1724C24.1784 29.1724 24.742 28.6089 24.742 27.9129V26.4993C24.742 25.8033 24.1784 25.2397 23.4824 25.2397C22.7864 25.2397 22.2229 25.8033 22.2229 26.4993V27.9129C22.2229 28.6089 22.7864 29.1724 23.4824 29.1724Z" fill="white" stroke="#FF6600"/>
<path d="M26.5029 27.9129L26.5029 27.9131C26.5032 28.6087 27.0663 29.1724 27.7625 29.1724C28.4584 29.1724 29.022 28.6089 29.022 27.9129V26.4993C29.022 25.8033 28.4584 25.2397 27.7625 25.2397C27.0665 25.2397 26.5029 25.8033 26.5029 26.4993L26.5029 27.9129Z" fill="white" stroke="#FF6600"/>
<path d="M9.38477 37.6062L9.38477 37.6064C9.38502 38.3022 9.94836 38.8658 10.6443 38.8658C11.3403 38.8658 11.9038 38.3022 11.9038 37.6062V36.1926C11.9038 35.4966 11.3403 34.9331 10.6443 34.9331C9.94831 34.9331 9.38477 35.4966 9.38477 36.1926L9.38477 37.6062Z" fill="white" stroke="#FF6600"/>
<path d="M14.9237 38.8658C15.6197 38.8658 16.1832 38.3022 16.1832 37.6062V36.1926C16.1832 35.4966 15.6197 34.9331 14.9237 34.9331C14.2276 34.9331 13.6643 35.4968 13.6643 36.1926L13.6643 37.606C13.6643 37.6061 13.6643 37.6061 13.6643 37.6061C13.6643 37.6062 13.6643 37.6062 13.6643 37.6062C13.6641 38.3023 14.2278 38.8658 14.9237 38.8658Z" fill="white" stroke="#FF6600"/>
<path d="M19.203 38.8658C19.899 38.8658 20.4625 38.3022 20.4625 37.6062V36.1926C20.4625 35.4966 19.899 34.9331 19.203 34.9331C18.507 34.9331 17.9435 35.4966 17.9435 36.1926V37.6062C17.9435 38.3022 18.507 38.8658 19.203 38.8658Z" fill="white" stroke="#FF6600"/>
<path d="M23.4824 38.8658C24.1784 38.8658 24.742 38.3022 24.742 37.6062V36.1926C24.742 35.4966 24.1784 34.9331 23.4824 34.9331C22.7864 34.9331 22.2229 35.4966 22.2229 36.1926V37.6062C22.2229 38.3022 22.7864 38.8658 23.4824 38.8658Z" fill="white" stroke="#FF6600"/>
<path d="M26.5029 37.6062L26.5029 37.6064C26.5032 38.3021 27.0663 38.8658 27.7625 38.8658C28.4585 38.8658 29.022 38.3022 29.022 37.6062V36.1926C29.022 35.4966 28.4584 34.9331 27.7625 34.9331C27.0665 34.9331 26.5029 35.4966 26.5029 36.1926L26.5029 37.6062Z" fill="white" stroke="#FF6600"/>
<path d="M9.38477 47.2996L9.38477 47.2998C9.38502 47.9955 9.94836 48.5591 10.6443 48.5591C11.3403 48.5591 11.9038 47.9956 11.9038 47.2996V45.886C11.9038 45.19 11.3403 44.6265 10.6443 44.6265C9.94831 44.6265 9.38477 45.19 9.38477 45.886L9.38477 47.2996Z" fill="white" stroke="#FF6600"/>
<path d="M14.9237 48.5591C15.6197 48.5591 16.1832 47.9956 16.1832 47.2996V45.886C16.1832 45.19 15.6197 44.6265 14.9237 44.6265C14.2276 44.6265 13.6643 45.1901 13.6643 45.886L13.6643 47.2994C13.6643 47.2994 13.6643 47.2995 13.6643 47.2995C13.6643 47.2995 13.6643 47.2996 13.6643 47.2996C13.6641 47.9957 14.2278 48.5591 14.9237 48.5591Z" fill="white" stroke="#FF6600"/>
<path d="M19.203 48.5591C19.899 48.5591 20.4625 47.9956 20.4625 47.2996V45.886C20.4625 45.19 19.899 44.6265 19.203 44.6265C18.507 44.6265 17.9435 45.19 17.9435 45.886V47.2996C17.9435 47.9956 18.507 48.5591 19.203 48.5591Z" fill="white" stroke="#FF6600"/>
<path d="M23.4824 48.5591C24.1784 48.5591 24.742 47.9956 24.742 47.2996V45.886C24.742 45.19 24.1784 44.6265 23.4824 44.6265C22.7864 44.6265 22.2229 45.19 22.2229 45.886V47.2996C22.2229 47.9956 22.7864 48.5591 23.4824 48.5591Z" fill="white" stroke="#FF6600"/>
<path d="M26.5029 47.2996L26.5029 47.2998C26.5032 47.9954 27.0663 48.5591 27.7625 48.5591C28.4585 48.5591 29.022 47.9956 29.022 47.2996V45.886C29.022 45.19 28.4584 44.6265 27.7625 44.6265C27.0665 44.6265 26.5029 45.19 26.5029 45.886L26.5029 47.2996Z" fill="white" stroke="#FF6600"/>
<path d="M10.6443 54.3198C9.94831 54.3198 9.38477 54.8834 9.38477 55.5794V56.9929C9.38477 57.6889 9.94831 58.2525 10.6443 58.2525C11.3403 58.2525 11.9038 57.6889 11.9038 56.9929V55.5794C11.9038 54.8834 11.3403 54.3198 10.6443 54.3198Z" fill="white" stroke="#FF6600"/>
<path d="M16.1832 55.5794V55.5792C16.183 54.8834 15.6196 54.3198 14.9237 54.3198C14.2276 54.3198 13.6643 54.8835 13.6643 55.5794V56.9929C13.6643 57.6889 14.2278 58.2525 14.9237 58.2525C15.6197 58.2525 16.1832 57.6889 16.1832 56.9929V55.5794Z" fill="white" stroke="#FF6600"/>
<path d="M20.4625 55.5794V55.5792C20.4623 54.8834 19.8989 54.3198 19.203 54.3198C18.507 54.3198 17.9435 54.8834 17.9435 55.5794V56.9929C17.9435 57.6889 18.507 58.2525 19.203 58.2525C19.899 58.2525 20.4625 57.6889 20.4625 56.9929V55.5794Z" fill="white" stroke="#FF6600"/>
<path d="M24.742 55.5794V55.5792C24.7417 54.8834 24.1784 54.3198 23.4824 54.3198C22.7864 54.3198 22.2229 54.8834 22.2229 55.5794V56.9929C22.2229 57.6889 22.7864 58.2525 23.4824 58.2525C24.1784 58.2525 24.742 57.6889 24.742 56.9929V55.5794Z" fill="white" stroke="#FF6600"/>
<path d="M27.7625 54.3198C27.0665 54.3198 26.5029 54.8834 26.5029 55.5794V56.9929C26.5029 57.6889 27.0665 58.2525 27.7625 58.2525C28.4585 58.2525 29.022 57.6889 29.022 56.9929V55.5794C29.022 54.8834 28.4584 54.3198 27.7625 54.3198Z" fill="white" stroke="#FF6600"/>
<mask id="path-26-outside-1_277_2461" maskUnits="userSpaceOnUse" x="0.0913086" y="0.267578" width="60" height="80" fill="black">
<rect fill="white" x="0.0913086" y="0.267578" width="60" height="80"/>
<path d="M58.1493 77.213H56.1443C55.7797 75.9524 53.2355 67.0212 52.7115 65.1832C52.3166 63.1251 50.4558 61.4923 48.2535 61.4923H47.2054V58.9785C47.2054 57.4293 45.9447 56.1685 44.3954 56.1685H37.0287C35.4718 56.1685 34.211 57.4293 34.211 58.9785V61.4923H31.3554L32.1908 56.6393C32.373 55.5382 32.0313 54.3685 31.0441 53.5332L32.1908 46.8576C32.373 45.7563 32.0313 44.5868 31.0441 43.7513L32.1908 37.0834C32.373 35.9746 32.0238 34.8049 31.0441 33.9696L32.1908 27.3016C32.373 26.2004 32.0313 25.0309 31.0441 24.1879L32.1908 17.5199C32.5402 15.4695 30.9605 13.6012 28.8796 13.6012H25.3557L23.8443 8.79383C23.3127 7.11539 21.9077 5.92305 20.2218 5.64211V2.02711C20.2218 1.6018 19.8801 1.26758 19.4622 1.26758C19.0444 1.26758 18.7027 1.6018 18.7027 2.02711V5.64211C17.0168 5.92305 15.6118 7.11539 15.0801 8.79383L13.5688 13.6012H9.52084C7.44756 13.6012 5.86787 15.4695 6.21725 17.5199L7.36396 24.1879C6.38428 25.0234 6.02725 26.1929 6.21725 27.3016L7.36396 33.9696C6.38428 34.7974 6.02725 35.9746 6.21725 37.0834L7.36396 43.7513C6.38428 44.5791 6.02725 45.7487 6.21725 46.8576L7.36396 53.5332C6.38428 54.361 6.02725 55.5305 6.21725 56.6393L7.53865 64.3251C7.49303 64.4238 4.60725 74.5701 3.85537 77.213H1.85084C1.43318 77.213 1.09131 77.5473 1.09131 77.9726C1.09131 78.3902 1.43303 78.7321 1.85084 78.7321H58.1491C58.5668 78.7321 58.9087 78.3904 58.9087 77.9726C58.9087 77.5471 58.5669 77.213 58.1493 77.213ZM35.7301 58.9785C35.7301 58.2646 36.3149 57.6874 37.0288 57.6874H44.3955C45.1019 57.6874 45.6866 58.2646 45.6866 58.9785V61.4923H35.7302V58.9785H35.7301ZM9.52131 15.1201C20.9055 15.2037 25.1888 15.158 28.8797 15.1201C30.019 15.1201 30.8847 16.1377 30.6949 17.2618L29.6241 23.4665C29.3887 23.4057 29.138 23.3754 28.8799 23.3754H9.52131C9.27068 23.3754 9.02006 23.4059 8.77709 23.4665L7.71381 17.2618C7.52396 16.1377 8.38975 15.1201 9.52131 15.1201ZM9.52131 24.8943H28.8797C30.019 24.8943 30.8847 25.9196 30.6949 27.0435L29.6241 33.2482C29.3887 33.1874 29.138 33.1571 28.8799 33.1571H9.52131C9.27068 33.1571 9.02006 33.1876 8.77709 33.2482L7.71381 27.0435C7.52396 25.9195 8.38975 24.8943 9.52131 24.8943ZM9.52131 34.676H28.8797C30.019 34.676 30.8847 35.7088 30.6949 36.8252L29.6241 43.0224C29.3887 42.9693 29.138 42.9388 28.8799 42.9388H9.52131C9.27068 42.9388 9.02006 42.9691 8.77709 43.0224L7.71381 36.8252C7.52396 35.7013 8.38975 34.676 9.52131 34.676ZM9.52131 44.4577H28.8797C30.019 44.4577 30.8847 45.4905 30.6949 46.607L29.6241 52.8041C29.3887 52.751 29.138 52.7205 28.8799 52.7205H9.52131C9.27068 52.7205 9.02006 52.7509 8.77709 52.8041L7.71381 46.607C7.52396 45.4754 8.38975 44.4577 9.52131 44.4577ZM9.52131 54.2395H28.8797C30.019 54.2395 30.8847 55.2648 30.6949 56.3887L29.814 61.4921H11.7466C10.6227 61.4921 9.58225 61.9098 8.77725 62.5934L7.71397 56.3887C7.52397 55.2573 8.38975 54.2395 9.52131 54.2395ZM50.866 77.213V74.3271C50.866 73.9095 50.5243 73.5676 50.1065 73.5676C49.6887 73.5676 49.3469 73.9093 49.3469 74.3271V77.213H45.1168V74.3271C45.1168 73.9095 44.7826 73.5676 44.3572 73.5676C43.9396 73.5676 43.5977 73.9093 43.5977 74.3271V77.213H39.3752V74.3271C39.3752 73.9095 39.0335 73.5676 38.6157 73.5676C38.1979 73.5676 37.8561 73.9093 37.8561 74.3271V77.213H33.6337V74.3271C33.6337 73.9095 33.2919 73.5676 32.8741 73.5676C32.4488 73.5676 32.1146 73.9093 32.1146 74.3271V77.213H27.8844V74.3271C27.8844 73.9095 27.5427 73.5676 27.1249 73.5676C26.7072 73.5676 26.3654 73.9093 26.3654 74.3271V77.213H22.1429V74.3271C22.1429 73.9095 21.8012 73.5676 21.3833 73.5676C20.958 73.5676 20.6238 73.9093 20.6238 74.3271V77.213H16.3937V74.3271C16.3937 73.9095 16.0519 73.5676 15.6341 73.5676C15.2165 73.5676 14.8746 73.9093 14.8746 74.3271V77.213H10.6521V74.3271C10.6521 73.9095 10.3104 73.5676 9.89272 73.5676C9.4674 73.5676 9.13318 73.9093 9.13318 74.3271V77.213H5.43553L7.75943 69.0641H52.2407L54.5646 77.213H50.866Z"/>
</mask>
<path d="M58.1493 77.213H56.1443C55.7797 75.9524 53.2355 67.0212 52.7115 65.1832C52.3166 63.1251 50.4558 61.4923 48.2535 61.4923H47.2054V58.9785C47.2054 57.4293 45.9447 56.1685 44.3954 56.1685H37.0287C35.4718 56.1685 34.211 57.4293 34.211 58.9785V61.4923H31.3554L32.1908 56.6393C32.373 55.5382 32.0313 54.3685 31.0441 53.5332L32.1908 46.8576C32.373 45.7563 32.0313 44.5868 31.0441 43.7513L32.1908 37.0834C32.373 35.9746 32.0238 34.8049 31.0441 33.9696L32.1908 27.3016C32.373 26.2004 32.0313 25.0309 31.0441 24.1879L32.1908 17.5199C32.5402 15.4695 30.9605 13.6012 28.8796 13.6012H25.3557L23.8443 8.79383C23.3127 7.11539 21.9077 5.92305 20.2218 5.64211V2.02711C20.2218 1.6018 19.8801 1.26758 19.4622 1.26758C19.0444 1.26758 18.7027 1.6018 18.7027 2.02711V5.64211C17.0168 5.92305 15.6118 7.11539 15.0801 8.79383L13.5688 13.6012H9.52084C7.44756 13.6012 5.86787 15.4695 6.21725 17.5199L7.36396 24.1879C6.38428 25.0234 6.02725 26.1929 6.21725 27.3016L7.36396 33.9696C6.38428 34.7974 6.02725 35.9746 6.21725 37.0834L7.36396 43.7513C6.38428 44.5791 6.02725 45.7487 6.21725 46.8576L7.36396 53.5332C6.38428 54.361 6.02725 55.5305 6.21725 56.6393L7.53865 64.3251C7.49303 64.4238 4.60725 74.5701 3.85537 77.213H1.85084C1.43318 77.213 1.09131 77.5473 1.09131 77.9726C1.09131 78.3902 1.43303 78.7321 1.85084 78.7321H58.1491C58.5668 78.7321 58.9087 78.3904 58.9087 77.9726C58.9087 77.5471 58.5669 77.213 58.1493 77.213ZM35.7301 58.9785C35.7301 58.2646 36.3149 57.6874 37.0288 57.6874H44.3955C45.1019 57.6874 45.6866 58.2646 45.6866 58.9785V61.4923H35.7302V58.9785H35.7301ZM9.52131 15.1201C20.9055 15.2037 25.1888 15.158 28.8797 15.1201C30.019 15.1201 30.8847 16.1377 30.6949 17.2618L29.6241 23.4665C29.3887 23.4057 29.138 23.3754 28.8799 23.3754H9.52131C9.27068 23.3754 9.02006 23.4059 8.77709 23.4665L7.71381 17.2618C7.52396 16.1377 8.38975 15.1201 9.52131 15.1201ZM9.52131 24.8943H28.8797C30.019 24.8943 30.8847 25.9196 30.6949 27.0435L29.6241 33.2482C29.3887 33.1874 29.138 33.1571 28.8799 33.1571H9.52131C9.27068 33.1571 9.02006 33.1876 8.77709 33.2482L7.71381 27.0435C7.52396 25.9195 8.38975 24.8943 9.52131 24.8943ZM9.52131 34.676H28.8797C30.019 34.676 30.8847 35.7088 30.6949 36.8252L29.6241 43.0224C29.3887 42.9693 29.138 42.9388 28.8799 42.9388H9.52131C9.27068 42.9388 9.02006 42.9691 8.77709 43.0224L7.71381 36.8252C7.52396 35.7013 8.38975 34.676 9.52131 34.676ZM9.52131 44.4577H28.8797C30.019 44.4577 30.8847 45.4905 30.6949 46.607L29.6241 52.8041C29.3887 52.751 29.138 52.7205 28.8799 52.7205H9.52131C9.27068 52.7205 9.02006 52.7509 8.77709 52.8041L7.71381 46.607C7.52396 45.4754 8.38975 44.4577 9.52131 44.4577ZM9.52131 54.2395H28.8797C30.019 54.2395 30.8847 55.2648 30.6949 56.3887L29.814 61.4921H11.7466C10.6227 61.4921 9.58225 61.9098 8.77725 62.5934L7.71397 56.3887C7.52397 55.2573 8.38975 54.2395 9.52131 54.2395ZM50.866 77.213V74.3271C50.866 73.9095 50.5243 73.5676 50.1065 73.5676C49.6887 73.5676 49.3469 73.9093 49.3469 74.3271V77.213H45.1168V74.3271C45.1168 73.9095 44.7826 73.5676 44.3572 73.5676C43.9396 73.5676 43.5977 73.9093 43.5977 74.3271V77.213H39.3752V74.3271C39.3752 73.9095 39.0335 73.5676 38.6157 73.5676C38.1979 73.5676 37.8561 73.9093 37.8561 74.3271V77.213H33.6337V74.3271C33.6337 73.9095 33.2919 73.5676 32.8741 73.5676C32.4488 73.5676 32.1146 73.9093 32.1146 74.3271V77.213H27.8844V74.3271C27.8844 73.9095 27.5427 73.5676 27.1249 73.5676C26.7072 73.5676 26.3654 73.9093 26.3654 74.3271V77.213H22.1429V74.3271C22.1429 73.9095 21.8012 73.5676 21.3833 73.5676C20.958 73.5676 20.6238 73.9093 20.6238 74.3271V77.213H16.3937V74.3271C16.3937 73.9095 16.0519 73.5676 15.6341 73.5676C15.2165 73.5676 14.8746 73.9093 14.8746 74.3271V77.213H10.6521V74.3271C10.6521 73.9095 10.3104 73.5676 9.89272 73.5676C9.4674 73.5676 9.13318 73.9093 9.13318 74.3271V77.213H5.43553L7.75943 69.0641H52.2407L54.5646 77.213H50.866Z" fill="white"/>
<path d="M58.1493 77.213H56.1443C55.7797 75.9524 53.2355 67.0212 52.7115 65.1832C52.3166 63.1251 50.4558 61.4923 48.2535 61.4923H47.2054V58.9785C47.2054 57.4293 45.9447 56.1685 44.3954 56.1685H37.0287C35.4718 56.1685 34.211 57.4293 34.211 58.9785V61.4923H31.3554L32.1908 56.6393C32.373 55.5382 32.0313 54.3685 31.0441 53.5332L32.1908 46.8576C32.373 45.7563 32.0313 44.5868 31.0441 43.7513L32.1908 37.0834C32.373 35.9746 32.0238 34.8049 31.0441 33.9696L32.1908 27.3016C32.373 26.2004 32.0313 25.0309 31.0441 24.1879L32.1908 17.5199C32.5402 15.4695 30.9605 13.6012 28.8796 13.6012H25.3557L23.8443 8.79383C23.3127 7.11539 21.9077 5.92305 20.2218 5.64211V2.02711C20.2218 1.6018 19.8801 1.26758 19.4622 1.26758C19.0444 1.26758 18.7027 1.6018 18.7027 2.02711V5.64211C17.0168 5.92305 15.6118 7.11539 15.0801 8.79383L13.5688 13.6012H9.52084C7.44756 13.6012 5.86787 15.4695 6.21725 17.5199L7.36396 24.1879C6.38428 25.0234 6.02725 26.1929 6.21725 27.3016L7.36396 33.9696C6.38428 34.7974 6.02725 35.9746 6.21725 37.0834L7.36396 43.7513C6.38428 44.5791 6.02725 45.7487 6.21725 46.8576L7.36396 53.5332C6.38428 54.361 6.02725 55.5305 6.21725 56.6393L7.53865 64.3251C7.49303 64.4238 4.60725 74.5701 3.85537 77.213H1.85084C1.43318 77.213 1.09131 77.5473 1.09131 77.9726C1.09131 78.3902 1.43303 78.7321 1.85084 78.7321H58.1491C58.5668 78.7321 58.9087 78.3904 58.9087 77.9726C58.9087 77.5471 58.5669 77.213 58.1493 77.213ZM35.7301 58.9785C35.7301 58.2646 36.3149 57.6874 37.0288 57.6874H44.3955C45.1019 57.6874 45.6866 58.2646 45.6866 58.9785V61.4923H35.7302V58.9785H35.7301ZM9.52131 15.1201C20.9055 15.2037 25.1888 15.158 28.8797 15.1201C30.019 15.1201 30.8847 16.1377 30.6949 17.2618L29.6241 23.4665C29.3887 23.4057 29.138 23.3754 28.8799 23.3754H9.52131C9.27068 23.3754 9.02006 23.4059 8.77709 23.4665L7.71381 17.2618C7.52396 16.1377 8.38975 15.1201 9.52131 15.1201ZM9.52131 24.8943H28.8797C30.019 24.8943 30.8847 25.9196 30.6949 27.0435L29.6241 33.2482C29.3887 33.1874 29.138 33.1571 28.8799 33.1571H9.52131C9.27068 33.1571 9.02006 33.1876 8.77709 33.2482L7.71381 27.0435C7.52396 25.9195 8.38975 24.8943 9.52131 24.8943ZM9.52131 34.676H28.8797C30.019 34.676 30.8847 35.7088 30.6949 36.8252L29.6241 43.0224C29.3887 42.9693 29.138 42.9388 28.8799 42.9388H9.52131C9.27068 42.9388 9.02006 42.9691 8.77709 43.0224L7.71381 36.8252C7.52396 35.7013 8.38975 34.676 9.52131 34.676ZM9.52131 44.4577H28.8797C30.019 44.4577 30.8847 45.4905 30.6949 46.607L29.6241 52.8041C29.3887 52.751 29.138 52.7205 28.8799 52.7205H9.52131C9.27068 52.7205 9.02006 52.7509 8.77709 52.8041L7.71381 46.607C7.52396 45.4754 8.38975 44.4577 9.52131 44.4577ZM9.52131 54.2395H28.8797C30.019 54.2395 30.8847 55.2648 30.6949 56.3887L29.814 61.4921H11.7466C10.6227 61.4921 9.58225 61.9098 8.77725 62.5934L7.71397 56.3887C7.52397 55.2573 8.38975 54.2395 9.52131 54.2395ZM50.866 77.213V74.3271C50.866 73.9095 50.5243 73.5676 50.1065 73.5676C49.6887 73.5676 49.3469 73.9093 49.3469 74.3271V77.213H45.1168V74.3271C45.1168 73.9095 44.7826 73.5676 44.3572 73.5676C43.9396 73.5676 43.5977 73.9093 43.5977 74.3271V77.213H39.3752V74.3271C39.3752 73.9095 39.0335 73.5676 38.6157 73.5676C38.1979 73.5676 37.8561 73.9093 37.8561 74.3271V77.213H33.6337V74.3271C33.6337 73.9095 33.2919 73.5676 32.8741 73.5676C32.4488 73.5676 32.1146 73.9093 32.1146 74.3271V77.213H27.8844V74.3271C27.8844 73.9095 27.5427 73.5676 27.1249 73.5676C26.7072 73.5676 26.3654 73.9093 26.3654 74.3271V77.213H22.1429V74.3271C22.1429 73.9095 21.8012 73.5676 21.3833 73.5676C20.958 73.5676 20.6238 73.9093 20.6238 74.3271V77.213H16.3937V74.3271C16.3937 73.9095 16.0519 73.5676 15.6341 73.5676C15.2165 73.5676 14.8746 73.9093 14.8746 74.3271V77.213H10.6521V74.3271C10.6521 73.9095 10.3104 73.5676 9.89272 73.5676C9.4674 73.5676 9.13318 73.9093 9.13318 74.3271V77.213H5.43553L7.75943 69.0641H52.2407L54.5646 77.213H50.866Z" stroke="#FF6600" stroke-width="2" mask="url(#path-26-outside-1_277_2461)"/>
</svg>
