<svg width="30" height="44" viewBox="0 0 30 44" fill="none" xmlns="http://www.w3.org/2000/svg">
<g clip-path="url(#clip0_182_1556)">
<path d="M11.9933 13C11.9933 12.2044 12.3101 11.4413 12.8739 10.8787C13.4378 10.3161 14.2026 10 15 10C15.7974 10 16.5622 10.3161 17.1261 10.8787C17.6899 11.4413 18.0067 12.2044 18.0067 13C18.0067 13.7956 17.6899 14.5587 17.1261 15.1213C16.5622 15.6839 15.7974 16 15 16C14.2026 16 13.4378 15.6839 12.8739 15.1213C12.3101 14.5587 11.9933 13.7956 11.9933 13ZM10.2034 20.9406C10.3631 18.9953 11.9933 17.5 13.9477 17.5H16.0523C18.0067 17.5 19.6369 18.9953 19.7966 20.9406L19.9892 23.2516C20.1067 24.6484 19.2517 25.8812 18.0067 26.3266V31.75C18.0067 32.9922 16.9966 34 15.7517 34H14.2483C13.0034 34 11.9933 32.9922 11.9933 31.75V26.3266C10.7483 25.8812 9.89332 24.6484 10.0108 23.2516L10.2034 20.9406Z" fill="white"/>
</g>
<defs>
<clipPath id="clip0_182_1556">
<rect width="10" height="24" fill="white" transform="translate(10 10)"/>
</clipPath>
</defs>
</svg>
