<svg width="103" height="69" viewBox="0 0 103 69" fill="none" xmlns="http://www.w3.org/2000/svg">
<path d="M56.3726 42.375C56.0117 43.1094 55.4539 43.9062 54.9453 43.9062H54.9289C54.3383 43.875 53.9281 43.5156 53.682 43.2031C54.6008 42.9531 55.6508 42.6094 56.3726 42.3906V42.375Z" fill="white" stroke="#FF6600"/>
<path d="M49.482 43.1875C49.2359 43.5 48.8258 43.8594 48.2351 43.8906H48.2187C47.7101 43.8906 47.1523 43.1094 46.7914 42.3594C47.5133 42.5938 48.5633 42.9375 49.482 43.1719V43.1875Z" fill="white" stroke="#FF6600"/>
<path d="M88.2172 10.1877C90.0055 6.00024 94.7797 3.25024 102.359 1.98461C96.0922 0.640861 75.8469 -1.98414 57.0617 14.6096C58.4234 15.5002 62.2625 18.3909 63.6734 23.6409C65.0516 28.7815 63.6734 34.5784 59.6047 40.9065C59.5391 41.0159 59.3914 41.1096 59.2438 41.1096C59.1125 41.1096 58.9648 41.0315 58.8828 40.9065C58.7516 40.6877 55.7164 36.0784 56.1758 31.1096C55.3555 32.2034 54.1742 34.1565 53.2555 37.2346C53.2062 37.4221 53.0094 37.5159 52.8453 37.5315L51.4836 37.5002L50.1547 37.5315C49.9578 37.5002 49.7938 37.4221 49.7445 37.2346C48.8094 34.1721 47.6445 32.219 46.8242 31.1096C47.2836 36.0784 44.2648 40.6877 44.1172 40.9065C44.0352 41.0159 43.8547 41.1096 43.7563 41.1096C43.6086 41.1096 43.4609 41.0315 43.3953 40.9065C39.3266 34.5784 37.9484 28.7659 39.3266 23.6409C40.7375 18.3909 44.5766 15.4846 45.9383 14.6096C27.1531 -1.98414 6.90781 0.640861 0.640625 1.98461C8.22031 3.25024 12.9945 6.00024 14.7828 10.1877C17.6539 16.8909 12.0758 25.0471 10.4188 27.2346C18.4906 28.5159 24.1672 31.5159 27.2844 36.1252C30.8773 41.5002 29.8602 47.3284 29.4664 49.0002C36.9969 49.8596 41.5578 51.969 43.0016 55.3127C44.15 57.9534 43.0836 60.6565 42.1648 62.3127C43.2805 61.6877 44.7734 60.9377 45.8891 60.6565C45.9711 60.6409 46.0695 60.6252 46.1516 60.6252C47.9891 60.6252 50.3844 64.8284 51.5 67.0159C52.6648 64.7034 55.2734 60.2034 57.1109 60.6565C58.2266 60.9377 59.7195 61.6877 60.8352 62.3127C59.9 60.6565 58.8336 57.9534 59.9984 55.3127C61.4422 51.969 66.0031 49.844 73.5336 49.0002C73.1398 47.3284 72.1227 41.5002 75.7156 36.1252C78.8328 31.5159 84.493 28.5159 92.5813 27.2346C90.9242 25.0471 85.3461 16.9065 88.2172 10.1877ZM50.532 43.1096C50.532 43.1096 49.8266 44.6565 48.268 44.7034H48.2188C46.693 44.7034 45.7414 42.1252 45.643 41.8284C45.5938 41.6877 45.643 41.5159 45.7414 41.4065C45.8562 41.2971 46.0367 41.2659 46.1844 41.3127C46.2008 41.3284 48.6617 42.1565 50.2531 42.5627C50.368 42.594 50.4828 42.6721 50.532 42.7971C50.5812 42.8909 50.5812 43.0315 50.532 43.1252V43.1096ZM57.5211 41.8284C57.4227 42.1252 56.4875 44.7034 54.9453 44.7034H54.8961C53.3703 44.6565 52.6648 43.1721 52.632 43.1096C52.5828 43.0159 52.5828 42.8752 52.632 42.7815C52.6812 42.6721 52.7797 42.5784 52.9109 42.5471C54.5023 42.1409 56.9633 41.3127 56.9797 41.2971C57.1273 41.2502 57.3078 41.2815 57.4227 41.3909C57.5375 41.5002 57.5703 41.6721 57.5211 41.8127V41.8284Z" fill="white" stroke="#FF6600"/>
</svg>
