<svg width="80" height="80" viewBox="0 0 80 80" fill="none" xmlns="http://www.w3.org/2000/svg">
<path d="M32.8925 39.6425H32.8924L32.8926 39.6512C32.9009 40.1302 32.8138 40.606 32.6363 41.051C32.4588 41.4959 32.1944 41.901 31.8586 42.2427C31.5229 42.5844 31.1224 42.8557 30.6807 43.041C30.2389 43.2262 29.7646 43.3216 29.2856 43.3216C28.8066 43.3216 28.3323 43.2262 27.8905 43.041C27.4488 42.8557 27.0483 42.5844 26.7126 42.2427C26.3768 41.901 26.1124 41.4959 25.9349 41.051C25.7574 40.606 25.6703 40.1302 25.6786 39.6512L25.6787 39.6512V39.6425V38H32.8925V39.6425Z" fill="white" stroke="#FF6600"/>
<path d="M10.4075 42.193C9.73126 42.8695 8.81402 43.2497 7.8575 43.25H7.85735C6.90063 43.25 5.98311 42.8699 5.30661 42.1934C4.63007 41.5168 4.25 40.5993 4.25 39.6425V38H11.4637V39.6425C11.4638 40.5991 11.0838 41.5165 10.4075 42.193Z" fill="white" stroke="#FF6600"/>
<path d="M19.9518 42.9754C19.5141 43.1567 19.045 43.25 18.5712 43.25C17.6145 43.25 16.6969 42.8699 16.0204 42.1934C15.3438 41.5168 14.9637 40.5993 14.9637 39.6425V38H22.1787V39.6425C22.1787 40.1162 22.0854 40.5853 21.9041 41.023C21.7228 41.4607 21.4571 41.8584 21.1221 42.1934C20.7871 42.5284 20.3895 42.7941 19.9518 42.9754Z" fill="white" stroke="#FF6600"/>
<path d="M75.75 39.6425H75.7499L75.7501 39.6512C75.7585 40.1302 75.6713 40.606 75.4938 41.051C75.3163 41.4959 75.0519 41.901 74.7162 42.2427C74.3804 42.5844 73.98 42.8557 73.5382 43.041C73.0964 43.2262 72.6222 43.3216 72.1431 43.3216C71.6641 43.3216 71.1899 43.2262 70.7481 43.041C70.3063 42.8557 69.9059 42.5844 69.5701 42.2427C69.2343 41.901 68.97 41.4959 68.7925 41.051C68.615 40.606 68.5278 40.1302 68.5362 39.6512L68.5363 39.6512V39.6425V38H75.75V39.6425Z" fill="white" stroke="#FF6600"/>
<path d="M36.3925 38H43.6075V39.6425C43.6075 40.5993 43.2274 41.5168 42.5508 42.1934C41.8743 42.8699 40.9567 43.25 40 43.25C39.0432 43.25 38.1256 42.8699 37.4491 42.1934C36.7725 41.5168 36.3925 40.5993 36.3925 39.6425V38Z" fill="white" stroke="#FF6600"/>
<path d="M63.9797 42.1934C63.3031 42.8699 62.3856 43.25 61.4288 43.25C60.472 43.25 59.5544 42.8699 58.8779 42.1934C58.2014 41.5168 57.8213 40.5993 57.8213 39.6425V38H65.0363V39.6425C65.0363 40.5993 64.6562 41.5168 63.9797 42.1934Z" fill="white" stroke="#FF6600"/>
<path d="M54.3213 39.6425H54.3212L54.3214 39.6512C54.3297 40.1302 54.2426 40.606 54.0651 41.051C53.8876 41.4959 53.6232 41.901 53.2875 42.2427C52.9517 42.5844 52.5513 42.8557 52.1095 43.041C51.6677 43.2262 51.1935 43.3216 50.7144 43.3216C50.2354 43.3216 49.7612 43.2262 49.3194 43.041C48.8776 42.8557 48.4772 42.5844 48.1414 42.2427C47.8056 41.901 47.5413 41.4959 47.3638 41.051C47.1862 40.606 47.0991 40.1302 47.1075 39.6512L47.1076 39.6512V39.6425V38H54.3213V39.6425Z" fill="white" stroke="#FF6600"/>
<path d="M6.25 75.5H73.75C74.612 75.5 75.4386 75.8424 76.0481 76.4519C76.6576 77.0614 77 77.888 77 78.75C77 78.9489 76.921 79.1397 76.7803 79.2803C76.6397 79.421 76.4489 79.5 76.25 79.5H3.75C3.55109 79.5 3.36032 79.421 3.21967 79.2803C3.07902 79.1397 3 78.9489 3 78.75C3 77.888 3.34241 77.0614 3.9519 76.4519C4.5614 75.8424 5.38805 75.5 6.25 75.5Z" fill="white" stroke="#FF6600"/>
<path d="M39.25 60.5H49.5V65.75H39.25V60.5Z" fill="white" stroke="#FF6600"/>
<path d="M28.25 57.5V60.75H27.5C27.0359 60.75 26.5908 60.9344 26.2626 61.2626C25.9344 61.5908 25.75 62.0359 25.75 62.5C25.75 62.9641 25.9344 63.4092 26.2626 63.7374C26.5908 64.0656 27.0359 64.25 27.5 64.25H28.25V72H16.75V57.5C16.75 55.975 17.3558 54.5125 18.4341 53.4341C19.5125 52.3558 20.975 51.75 22.5 51.75C24.025 51.75 25.4875 52.3558 26.5659 53.4341C27.6442 54.5125 28.25 55.975 28.25 57.5Z" fill="white" stroke="#FF6600"/>
<path d="M39.25 51.75H49.5V57H39.25V51.75Z" fill="white" stroke="#FF6600"/>
<path d="M53 60.5H63.25V65.75H53V60.5Z" fill="white" stroke="#FF6600"/>
<path d="M53 51.75H63.25V57H53V51.75Z" fill="white" stroke="#FF6600"/>
<path d="M72.1415 46.75L72.1483 46.7499C72.518 46.7456 72.8863 46.7121 73.25 46.6497V72H31.75V57.5C31.75 55.0467 30.7754 52.694 29.0407 50.9592C27.306 49.2245 24.9533 48.25 22.5 48.25C20.0467 48.25 17.694 49.2245 15.9593 50.9592C14.2246 52.694 13.25 55.0467 13.25 57.5V72H6.75V46.6497C7.11368 46.7121 7.48205 46.7456 7.85168 46.7499L7.85168 46.75L7.85854 46.75C8.98691 46.7476 10.0984 46.476 11.1007 45.9577C11.9066 45.5409 12.6232 44.9743 13.2131 44.2903C13.8025 44.9758 14.5193 45.5435 15.326 45.9605C16.3292 46.4792 17.442 46.7498 18.5713 46.7498C19.7005 46.7498 20.8133 46.4792 21.8165 45.9605C22.6228 45.5436 23.3395 44.9763 23.9287 44.2911C24.5178 44.9763 25.2344 45.5436 26.0407 45.9605C27.0437 46.4792 28.1564 46.7498 29.2856 46.7498C30.4148 46.7498 31.5275 46.4792 32.5306 45.9605C33.3369 45.5436 34.0534 44.9763 34.6425 44.2911C35.2318 44.9763 35.9484 45.5436 36.7548 45.9605C37.7579 46.4792 38.8707 46.7498 40 46.7498C41.1293 46.7498 42.2421 46.4792 43.2452 45.9605C44.0516 45.5436 44.7682 44.9763 45.3575 44.2911C45.9466 44.9763 46.6631 45.5436 47.4694 45.9605C48.4725 46.4792 49.5852 46.7498 50.7144 46.7498C51.8436 46.7498 52.9563 46.4792 53.9593 45.9605C54.7656 45.5436 55.4821 44.9763 56.0713 44.2911C56.6605 44.9763 57.3772 45.5436 58.1835 45.9605C59.1867 46.4792 60.2995 46.7498 61.4288 46.7498C62.558 46.7498 63.6708 46.4792 64.674 45.9605C65.4807 45.5435 66.1975 44.9758 66.7869 44.2903C67.3768 44.9743 68.0934 45.5409 68.8993 45.9577C69.9016 46.476 71.0131 46.7476 72.1415 46.75ZM36.2626 48.7625C35.9344 49.0907 35.75 49.5359 35.75 50V67.5C35.75 67.9641 35.9344 68.4092 36.2626 68.7374C36.5908 69.0656 37.0359 69.25 37.5 69.25H65C65.4641 69.25 65.9092 69.0656 66.2374 68.7374C66.5656 68.4092 66.75 67.9641 66.75 67.5V50C66.75 49.5359 66.5656 49.0907 66.2374 48.7625C65.9092 48.4344 65.4641 48.25 65 48.25H37.5C37.0359 48.25 36.5908 48.4344 36.2626 48.7625Z" fill="white" stroke="#FF6600"/>
<path d="M5.68965 34.5L8.43965 31.75H71.5604L74.3104 34.5H5.68965Z" fill="white" stroke="#FF6600"/>
<path d="M45.75 14.9991V15H48.75L49.25 15.002C49.25 15.0018 49.25 15.0015 49.25 15.0012C49.256 13.5716 49.5879 12.1642 50.2183 10.8853C52.7417 11.9402 55.1146 13.3237 57.2755 14.9997C54.6375 17.0399 48.9415 20.75 42.5 20.75C37.0327 20.75 32.11 18.0717 29.25 16.1128V13.8872C32.1098 11.9284 37.0319 9.25047 42.4986 9.25C43.9689 9.25862 45.4326 9.43858 46.8601 9.78576C46.1321 11.4253 45.7531 13.2008 45.75 14.9991ZM53.4722 13.5449C53.1845 13.3526 52.8461 13.25 52.5 13.25C52.0359 13.25 51.5908 13.4344 51.2626 13.7626C50.9344 14.0908 50.75 14.5359 50.75 15C50.75 15.3461 50.8526 15.6845 51.0449 15.9722C51.2372 16.26 51.5105 16.4843 51.8303 16.6168C52.1501 16.7492 52.5019 16.7839 52.8414 16.7164C53.1809 16.6488 53.4927 16.4822 53.7374 16.2374C53.9822 15.9927 54.1488 15.6809 54.2164 15.3414C54.2839 15.0019 54.2492 14.6501 54.1168 14.3303C53.9843 14.0105 53.76 13.7372 53.4722 13.5449Z" fill="white" stroke="#FF6600"/>
<path d="M23.068 11.932C22.3503 11.2143 21.9001 10.2792 21.7815 9.28148C22.7792 9.40012 23.7143 9.85035 24.432 10.568C25.1497 11.2857 25.5999 12.2208 25.7185 13.2185C24.7208 13.0999 23.7857 12.6497 23.068 11.932Z" fill="white" stroke="#FF6600"/>
<path d="M61.2101 16.2631C61.3804 16.0998 61.5159 15.9038 61.6085 15.6869C61.7011 15.4697 61.7489 15.2361 61.7489 15C61.7489 14.7639 61.7011 14.5303 61.6085 14.3131C61.5159 14.0963 61.3806 13.9005 61.2105 13.7373C61.0257 13.5594 58.9159 11.5695 55.578 9.62144C52.2432 7.67524 47.6471 5.75 42.5 5.75H42.4906L42.4812 5.75035C37.4728 5.93838 32.6144 7.48858 28.4269 10.2287C27.8162 8.9829 26.8902 7.91391 25.7364 7.13076C24.4127 6.23234 22.8502 5.75138 21.2504 5.75H21.25H20C19.5359 5.75 19.0908 5.93437 18.7626 6.26256C18.4344 6.59075 18.25 7.03587 18.25 7.5V8.75V8.7502C18.2505 10.0708 18.578 11.3707 19.2031 12.534C19.7162 13.4887 20.4167 14.327 21.26 15C20.4167 15.673 19.7162 16.5113 19.2031 17.466C18.578 18.6293 18.2505 19.9292 18.25 21.2498V21.25V22.5C18.25 22.9641 18.4344 23.4092 18.7626 23.7374C19.0908 24.0656 19.5359 24.25 20 24.25H21.25H21.2504C22.8502 24.2486 24.4127 23.7677 25.7364 22.8692C26.8902 22.0861 27.8162 21.0171 28.4269 19.7713C32.6144 22.5114 37.4728 24.0616 42.4812 24.2496L42.4906 24.25H42.5C47.6471 24.25 52.2432 22.3248 55.578 20.3786C58.9136 18.4319 61.0227 16.4434 61.2101 16.2631ZM61.2101 16.2631C61.21 16.2632 61.2098 16.2634 61.2097 16.2635L60.8638 15.9025L61.2105 16.2627C61.2104 16.2629 61.2102 16.263 61.2101 16.2631ZM70.75 6.2506V28.25H9.25V6.25031C9.2519 4.72582 9.85835 3.26431 10.9363 2.18633C12.0143 1.10835 13.4758 0.501903 15.0003 0.5H64.9997C66.5242 0.501903 67.9857 1.10835 69.0637 2.18633C70.1417 3.26438 70.7482 4.72601 70.75 6.2506Z" fill="white" stroke="#FF6600"/>
<path d="M24.432 19.432C23.7143 20.1497 22.7792 20.5999 21.7815 20.7185C21.9001 19.7208 22.3503 18.7857 23.068 18.068C23.7857 17.3503 24.7208 16.9001 25.7185 16.7815C25.5999 17.7792 25.1497 18.7143 24.432 19.432Z" fill="white" stroke="#FF6600"/>
</svg>
