<svg width="76" height="70" viewBox="0 0 76 70" fill="none" xmlns="http://www.w3.org/2000/svg">
<path d="M10.8828 50.6252C10.7068 50.6196 10.5316 50.6505 10.368 50.7157C10.2044 50.7809 10.0561 50.8792 9.9322 51.0043C9.80831 51.1294 9.71154 51.2787 9.64793 51.4429C9.58431 51.6071 9.55523 51.7827 9.56249 51.9586V55.7814H18.1562V51.9586C18.1625 51.7822 18.1325 51.6065 18.068 51.4422C18.0036 51.278 17.9061 51.1287 17.7815 51.0037C17.657 50.8786 17.5081 50.7805 17.3441 50.7154C17.1801 50.6503 17.0045 50.6196 16.8281 50.6252H10.8828Z" fill="white" stroke="#FF6600"/>
<path d="M26.9792 50.6252C26.8031 50.6197 26.6277 50.6505 26.4641 50.7157C26.3004 50.7809 26.1518 50.8791 26.0278 51.0042C25.9037 51.1292 25.8066 51.2785 25.7427 51.4427C25.6788 51.6069 25.6494 51.7825 25.6563 51.9586V55.7814H34.25V51.9586C34.2566 51.7824 34.2268 51.6067 34.1627 51.4424C34.0985 51.2782 34.0012 51.1289 33.8768 51.0038C33.7525 50.8788 33.6038 50.7806 33.4399 50.7155C33.276 50.6503 33.1005 50.6196 32.9242 50.6252H26.9792Z" fill="white" stroke="#FF6600"/>
<path d="M24.8761 42.8127H18.9311C18.7491 42.8094 18.5683 42.8423 18.3992 42.9094C18.23 42.9765 18.0758 43.0766 17.9456 43.2037C17.8154 43.3309 17.7117 43.4826 17.6406 43.6501C17.5695 43.8176 17.5323 43.9976 17.5312 44.1796V47.969H26.2812V44.1796C26.2795 43.9974 26.2417 43.8173 26.17 43.6497C26.0983 43.4821 25.9941 43.3304 25.8635 43.2034C25.7329 43.0763 25.5783 42.9763 25.4089 42.9093C25.2394 42.8422 25.0583 42.8094 24.8761 42.8127Z" fill="white" stroke="#FF6600"/>
<path d="M10.1875 44.1796C10.1855 43.9972 10.1474 43.817 10.0754 43.6494C10.0034 43.4818 9.89896 43.3301 9.76808 43.2031C9.6372 43.076 9.48247 42.9761 9.31281 42.9091C9.14315 42.8421 8.96191 42.8094 8.77953 42.8127H2.83469C2.65288 42.8096 2.47226 42.8425 2.30329 42.9097C2.13433 42.9769 1.9804 43.077 1.85042 43.2042C1.72044 43.3313 1.61701 43.483 1.54613 43.6505C1.47524 43.8179 1.43832 43.9978 1.4375 44.1796V47.969H10.1875V44.1796Z" fill="white" stroke="#FF6600"/>
<path d="M19.7188 55.3125H24.0938V56.7188H19.7188V55.3125Z" fill="white" stroke="#FF6600"/>
<path d="M50.3438 51.9586C50.3507 51.7825 50.3212 51.6069 50.2573 51.4427C50.1934 51.2785 50.0964 51.1292 49.9723 51.0042C49.8482 50.8791 49.6997 50.7809 49.536 50.7157C49.3723 50.6505 49.1969 50.6197 49.0208 50.6252H43.0758C42.8996 50.6196 42.724 50.6503 42.5602 50.7155C42.3963 50.7806 42.2476 50.8788 42.1232 51.0038C41.9989 51.1289 41.9016 51.2782 41.8374 51.4424C41.7732 51.6067 41.7435 51.7824 41.75 51.9586V55.7814H50.3438V51.9586Z" fill="white" stroke="#FF6600"/>
<path d="M66.4375 51.9586C66.4447 51.7827 66.4156 51.6071 66.352 51.4429C66.2884 51.2787 66.1916 51.1294 66.0677 51.0043C65.9439 50.8792 65.7955 50.7809 65.6319 50.7157C65.4684 50.6505 65.2931 50.6196 65.1171 50.6252H59.1718C58.9955 50.6196 58.8198 50.6503 58.6558 50.7154C58.4918 50.7805 58.3429 50.8786 58.2184 51.0037C58.0939 51.1287 57.9964 51.278 57.9319 51.4422C57.8675 51.6065 57.8374 51.7822 57.8437 51.9586V55.7814H66.4375V51.9586Z" fill="white" stroke="#FF6600"/>
<path d="M51.9062 55.3125H56.2812V56.7188H51.9062V55.3125Z" fill="white" stroke="#FF6600"/>
<path d="M58.4688 44.1796C58.4677 43.9976 58.4305 43.8176 58.3594 43.6501C58.2883 43.4826 58.1846 43.3309 58.0544 43.2037C57.9242 43.0766 57.77 42.9765 57.6008 42.9094C57.4317 42.8423 57.2509 42.8094 57.0689 42.8127H51.1239C50.9417 42.8094 50.7606 42.8422 50.5911 42.9093C50.4217 42.9763 50.2671 43.0763 50.1365 43.2034C50.0059 43.3304 49.9017 43.4821 49.83 43.6497C49.7583 43.8173 49.7205 43.9974 49.7188 44.1796V47.969H58.4688V44.1796Z" fill="white" stroke="#FF6600"/>
<path d="M8 51.9584C8 50.9272 8.45437 50 9.25656 49.5312H1.4375V53.75H8V51.9584Z" fill="white" stroke="#FF6600"/>
<path d="M56.2812 51.9584C56.2812 50.9272 56.7435 50 57.5459 49.5312H50.647C51.4492 50 51.9062 50.9272 51.9062 51.9584V53.75H56.2812V51.9584Z" fill="white" stroke="#FF6600"/>
<path d="M42.375 44.1796C42.3736 43.9975 42.3361 43.8175 42.2647 43.6499C42.1932 43.4824 42.0893 43.3307 41.9589 43.2036C41.8285 43.0765 41.6741 42.9765 41.5048 42.9094C41.3355 42.8423 41.1546 42.8095 40.9725 42.8127H35.0275C34.8454 42.8095 34.6645 42.8423 34.4952 42.9094C34.3259 42.9765 34.1715 43.0765 34.0411 43.2036C33.9107 43.3307 33.8068 43.4824 33.7353 43.6499C33.6639 43.8175 33.6264 43.9975 33.625 44.1796V47.969H42.375V44.1796Z" fill="white" stroke="#FF6600"/>
<path d="M24.0938 51.9584C24.0938 50.9272 24.5508 50 25.353 49.5312H18.4541C19.2564 50 19.7188 50.9272 19.7188 51.9584V53.75H24.0938V51.9584Z" fill="white" stroke="#FF6600"/>
<path d="M35.8125 55.3125H40.1875V56.7188H35.8125V55.3125Z" fill="white" stroke="#FF6600"/>
<path d="M35.8125 51.9584V53.75H40.1875V51.9584C40.1875 50.9272 40.6472 50 41.4494 49.5312H34.5507C35.3528 50 35.8125 50.9272 35.8125 51.9584Z" fill="white" stroke="#FF6600"/>
<path d="M17.5312 65H26.2812V69.375H17.5312V65Z" fill="white" stroke="#FF6600"/>
<path d="M73.1655 58.2812H67.2203C66.8428 58.2947 66.4852 58.454 66.2227 58.7256C65.9602 58.9972 65.8131 59.3599 65.8125 59.7377V63.4375H74.5625V59.7377C74.5625 58.9673 73.9358 58.2812 73.1655 58.2812Z" fill="white" stroke="#FF6600"/>
<path d="M65.8125 65H74.5625V69.375H65.8125V65Z" fill="white" stroke="#FF6600"/>
<path d="M64.25 61.5625V59.7377C64.2455 59.256 64.3671 58.7816 64.6029 58.3617C64.8386 57.9417 65.1803 57.5907 65.5937 57.3438H58.6953C59.1078 57.5912 59.4483 57.9424 59.6827 58.3625C59.9171 58.7825 60.0373 59.2567 60.0312 59.7377V61.5625H64.25Z" fill="white" stroke="#FF6600"/>
<path d="M58.4688 59.7377C58.4699 59.3608 58.3245 58.9982 58.0633 58.7265C57.8022 58.4548 57.4457 58.2951 57.0691 58.2812H51.1239C50.7467 58.2948 50.3894 58.4542 50.1274 58.7258C49.8653 58.9975 49.7188 59.3602 49.7188 59.7377V63.4375H58.4688V59.7377Z" fill="white" stroke="#FF6600"/>
<path d="M49.7188 65H58.4688V69.375H49.7188V65Z" fill="white" stroke="#FF6600"/>
<path d="M68 51.9584V53.75H74.5625V49.5312H66.7434C67.5456 50 68 50.9272 68 51.9584Z" fill="white" stroke="#FF6600"/>
<path d="M1.4375 65H10.1875V69.375H1.4375V65Z" fill="white" stroke="#FF6600"/>
<path d="M73.1653 42.8127H67.2205C67.0381 42.8094 66.8569 42.8421 66.6872 42.9091C66.5175 42.9761 66.3628 43.076 66.2319 43.2031C66.101 43.3301 65.9966 43.4818 65.9246 43.6494C65.8526 43.817 65.8145 43.9972 65.8125 44.1796V47.969H74.5625V44.1796C74.5617 43.9978 74.5248 43.8179 74.4539 43.6505C74.383 43.483 74.2796 43.3313 74.1496 43.2042C74.0196 43.077 73.8657 42.9769 73.6967 42.9097C73.5277 42.8425 73.3471 42.8096 73.1653 42.8127Z" fill="white" stroke="#FF6600"/>
<path d="M11.75 59.7377V61.5625H15.9687V59.7377C15.9627 59.2567 16.0829 58.7825 16.3173 58.3625C16.5517 57.9424 16.8922 57.5912 17.3047 57.3438H10.4062C10.8197 57.5907 11.1614 57.9417 11.3971 58.3617C11.6329 58.7816 11.7545 59.256 11.75 59.7377Z" fill="white" stroke="#FF6600"/>
<path d="M49.4977 57.3438H42.5988C43.0116 57.591 43.3525 57.9421 43.5874 58.3622C43.8223 58.7822 43.943 59.2564 43.9375 59.7377V61.5625H48.1563V59.7377C48.1513 59.2562 48.2725 58.7819 48.5078 58.3619C48.7432 57.9419 49.0844 57.5908 49.4977 57.3438Z" fill="white" stroke="#FF6600"/>
<path d="M10.1875 59.7377C10.1869 59.3599 10.0398 58.9972 9.77729 58.7256C9.51476 58.454 9.15718 58.2947 8.77969 58.2812H2.83453C2.06422 58.2812 1.4375 58.9673 1.4375 59.7377V63.4375H10.1875V59.7377Z" fill="white" stroke="#FF6600"/>
<path d="M32.0625 61.5625V59.7377C32.057 59.2564 32.1777 58.7822 32.4126 58.3622C32.6475 57.9421 32.9884 57.591 33.4012 57.3438H26.5023C26.9155 57.5908 27.2568 57.9419 27.4922 58.3619C27.7275 58.7819 27.8487 59.2562 27.8437 59.7377V61.5625H32.0625Z" fill="white" stroke="#FF6600"/>
<path d="M17.5313 59.7377V63.4375H26.2813V59.7377C26.2812 59.3602 26.1347 58.9975 25.8727 58.7258C25.6106 58.4542 25.2533 58.2948 24.8761 58.2812H18.9309C18.5543 58.2951 18.1978 58.4548 17.9367 58.7265C17.6755 58.9982 17.5302 59.3608 17.5313 59.7377Z" fill="white" stroke="#FF6600"/>
<path d="M33.625 65H42.375V69.375H33.625V65Z" fill="white" stroke="#FF6600"/>
<path d="M42.375 59.7377C42.3756 59.3605 42.2297 58.9978 41.968 58.7261C41.7064 58.4544 41.3494 58.2949 40.9725 58.2812H35.0275C34.6506 58.2949 34.2936 58.4544 34.032 58.7261C33.7703 58.9978 33.6244 59.3605 33.625 59.7377V63.4375H42.375V59.7377Z" fill="white" stroke="#FF6600"/>
<path d="M36.75 17.6825L40.73 15.0408L36.75 12.3989V17.6825Z" fill="white" stroke="#FF6600"/>
<path d="M38 5.47266C36.1081 5.47463 34.2591 6.03748 32.687 7.09004C31.1148 8.1426 29.89 9.63762 29.1674 11.3861C28.4447 13.1347 28.2567 15.0582 28.627 16.9136C28.9973 18.7689 29.9093 20.4729 31.2479 21.81C32.5864 23.1471 34.2913 24.0574 36.147 24.4258C38.0028 24.7942 39.9261 24.6041 41.6739 23.8796C43.4217 23.1551 44.9154 21.9288 45.9663 20.3555C47.0172 18.7823 47.5781 16.9328 47.5781 15.0408C47.5739 12.5027 46.5631 10.07 44.7675 8.27622C42.9719 6.48248 40.5381 5.47423 38 5.47266ZM42.5563 15.6914L36.3835 19.7895C36.2563 19.8744 36.1068 19.9198 35.9539 19.9198C35.8266 19.9198 35.7013 19.8879 35.5896 19.827C35.4663 19.7597 35.3638 19.6601 35.2929 19.5388C35.2221 19.4176 35.1856 19.2793 35.1875 19.1389V10.9427C35.1856 10.8022 35.222 10.6638 35.2929 10.5425C35.3637 10.4212 35.4663 10.3214 35.5896 10.2541C35.7123 10.1873 35.8511 10.1556 35.9907 10.1622C36.1303 10.1688 36.2654 10.2136 36.3813 10.2917L42.5553 14.3905C42.6628 14.4617 42.7509 14.5583 42.812 14.6719C42.873 14.7854 42.905 14.9123 42.905 15.0412C42.9051 15.17 42.8733 15.297 42.8125 15.4106C42.7516 15.5242 42.6636 15.621 42.5563 15.6923V15.6914Z" fill="white" stroke="#FF6600"/>
<path d="M53.4812 30.3303C53.481 30.7914 53.6176 31.2421 53.8737 31.6256C54.1297 32.009 54.4937 32.3079 54.9196 32.4845C55.3456 32.6611 55.8143 32.7073 56.2665 32.6175C56.7188 32.5277 57.1342 32.3057 57.4603 31.9798C57.7864 31.6538 58.0085 31.2384 58.0985 30.7863C58.1886 30.3341 58.1425 29.8653 57.9661 29.4393C57.7897 29.0133 57.4909 28.6492 57.1076 28.393C56.7242 28.1368 56.2735 28 55.8125 28C55.1945 28.0006 54.602 28.2462 54.165 28.6831C53.7279 29.12 53.482 29.7124 53.4812 30.3303Z" fill="white" stroke="#FF6600"/>
<path d="M55.8125 26.4193C56.7064 26.4307 57.5701 26.7446 58.2628 27.3097C58.9555 27.8749 59.4363 28.6579 59.627 29.5313H66.9062V1.70038C66.8978 1.41016 66.7757 1.13487 66.5663 0.933754C66.3569 0.732642 66.0769 0.621794 65.7866 0.625071H10.1991C9.91025 0.622304 9.63204 0.733758 9.42502 0.935161C9.21799 1.13656 9.09893 1.4116 9.09375 1.70038V29.5313H51.9975C52.1882 28.6578 52.6691 27.8747 53.3619 27.3095C54.0547 26.7444 54.9185 26.4306 55.8125 26.4193ZM12.6875 20.4641C12.6875 20.6713 12.6052 20.87 12.4587 21.0166C12.3122 21.1631 12.1135 21.2454 11.9062 21.2454C11.699 21.2454 11.5003 21.1631 11.3538 21.0166C11.2073 20.87 11.125 20.6713 11.125 20.4641V9.30601C11.125 9.09881 11.2073 8.90009 11.3538 8.75358C11.5003 8.60707 11.699 8.52476 11.9062 8.52476C12.1135 8.52476 12.3122 8.60707 12.4587 8.75358C12.6052 8.90009 12.6875 9.09881 12.6875 9.30601V20.4641ZM12.6875 5.9532C12.6875 6.1604 12.6052 6.35911 12.4587 6.50562C12.3122 6.65214 12.1135 6.73445 11.9062 6.73445C11.699 6.73445 11.5003 6.65214 11.3538 6.50562C11.2073 6.35911 11.125 6.1604 11.125 5.9532V5.25476C11.125 5.04756 11.2073 4.84884 11.3538 4.70233C11.5003 4.55582 11.699 4.47351 11.9062 4.47351C12.1135 4.47351 12.3122 4.55582 12.4587 4.70233C12.6052 4.84884 12.6875 5.04756 12.6875 5.25476V5.9532ZM38 26.1719C35.799 26.17 33.648 25.5155 31.8189 24.2912C29.9898 23.067 28.5647 21.3279 27.7238 19.2939C26.8829 17.2599 26.6639 15.0222 27.0945 12.8637C27.5251 10.7052 28.586 8.7229 30.143 7.16725C31.7 5.61161 33.6833 4.55251 35.8422 4.12384C38.0011 3.69517 40.2385 3.91618 42.2718 4.75892C44.3051 5.60167 46.0429 7.02831 47.2655 8.85852C48.4881 10.6887 49.1406 12.8403 49.1406 15.0413C49.136 17.9937 47.9604 20.8236 45.8719 22.9103C43.7833 24.997 40.9523 26.17 38 26.1719Z" fill="white" stroke="#FF6600"/>
<path d="M10.1991 35.3125H65.7866C65.9285 35.3181 66.07 35.2955 66.2032 35.2462C66.3363 35.1969 66.4585 35.1218 66.5625 35.0251C66.6665 34.9285 66.7505 34.8123 66.8094 34.6831C66.8684 34.554 66.9013 34.4144 66.9062 34.2725V31.0938H59.627C59.4469 31.9725 58.9689 32.7622 58.2739 33.3292C57.5788 33.8963 56.7093 34.206 55.8123 34.206C54.9152 34.206 54.0457 33.8963 53.3506 33.3292C52.6556 32.7622 52.1776 31.9725 51.9975 31.0938H9.09375V34.2725C9.09707 34.4137 9.1284 34.5528 9.18594 34.6817C9.24347 34.8107 9.32606 34.9269 9.4289 35.0237C9.53174 35.1204 9.65278 35.1958 9.78499 35.2454C9.91721 35.295 10.058 35.3178 10.1991 35.3125Z" fill="white" stroke="#FF6600"/>
</svg>
