<svg width="76" height="76" viewBox="0 0 76 76" fill="none" xmlns="http://www.w3.org/2000/svg">
<mask id="path-1-outside-1_231_2091" maskUnits="userSpaceOnUse" x="0.761475" y="0.745605" width="75" height="75" fill="black">
<rect fill="white" x="0.761475" y="0.745605" width="75" height="75"/>
<path fill-rule="evenodd" clip-rule="evenodd" d="M12.1006 63.9291C11.8834 64.1538 11.7498 64.4597 11.7498 64.7968V72.9123C11.7498 73.6015 12.3091 74.1609 12.9983 74.1609H14.2469C14.9361 74.1609 15.4954 73.6015 15.4954 72.9123V65.4211H22.9866V72.9123C22.9866 73.6015 23.546 74.1609 24.2352 74.1609H25.4837C26.1729 74.1609 26.7323 73.6015 26.7323 72.9123V64.6283C26.7323 63.8455 26.4214 63.0938 25.867 62.5407C25.3139 61.9864 24.5623 61.6755 23.7795 61.6755H15.4954C15.4954 61.6755 15.4954 61.6755 13.7512 52.6311C13.4703 51.179 12.2267 47.9416 10.5012 47.9416C10.1279 47.9416 9.7746 48.1089 9.53737 48.396C9.30015 48.6844 9.20401 49.0628 9.27643 49.4286L12.1006 63.9291ZM43.1168 11.7339L9.25271 3.26757V2.99414C9.25271 2.30495 8.69336 1.74561 8.00417 1.74561H3.01001C2.32082 1.74561 1.76147 2.30495 1.76147 2.99414V72.9123C1.76147 73.6015 2.32082 74.1609 3.01001 74.1609H8.00417C8.69336 74.1609 9.25271 73.6015 9.25271 72.9123V16.7281H69.1826C69.8718 16.7281 70.4311 16.1687 70.4311 15.4795V12.9825C70.4311 12.2933 69.8718 11.7339 69.1826 11.7339H43.1168ZM37.6033 71.4116C37.682 72.1045 37.9928 72.7538 38.491 73.2519C39.0728 73.8338 39.8619 74.1609 40.6847 74.1609H44.5352C45.3567 74.1609 46.1458 73.8338 46.7276 73.2519C47.2195 72.7613 47.5292 72.122 47.6128 71.4391L37.6033 71.4116ZM59.0694 71.4703C59.1581 72.142 59.4665 72.7688 59.9496 73.2519C60.5315 73.8338 61.3205 74.1609 62.1433 74.1609H66.02C66.8428 74.1609 67.6307 73.8338 68.2125 73.2519C68.6907 72.775 68.9953 72.1582 69.0902 71.499L59.0694 71.4703ZM74.1768 30.6543C74.1768 28.4793 72.4138 26.7164 70.2389 26.7164C63.2246 26.7164 43.9272 26.7164 36.9129 26.7164C35.8678 26.7164 34.8665 27.1309 34.1286 27.87C33.3895 28.6079 32.975 29.6093 32.975 30.6543V54.8085H35.4121C36.1013 54.8085 36.6606 55.3679 36.6606 56.0571C36.6606 56.7463 36.1013 57.3056 35.4121 57.3056H32.975V57.9299H35.703C36.6357 57.9299 37.5296 58.3007 38.1889 58.9587C38.8468 59.6179 39.2177 60.5119 39.2177 61.4445V63.155C39.2177 64.0877 38.8468 64.9816 38.1889 65.6409C37.5296 66.2988 36.6357 66.6697 35.703 66.6697H33.5618C34.0212 67.6647 34.7254 68.5225 35.5994 69.1655L35.6368 69.1667H71.5511C72.4251 68.5237 73.1305 67.666 73.5899 66.6697H71.4487C70.516 66.6697 69.6221 66.2988 68.9629 65.6409C68.3049 64.9816 67.9341 64.0877 67.9341 63.155V61.4445C67.9341 60.5119 68.3049 59.6179 68.9629 58.9587C69.6221 58.3007 70.516 57.9299 71.4487 57.9299H74.1768V57.3056H71.7396C71.0504 57.3056 70.4911 56.7463 70.4911 56.0571C70.4911 55.3679 71.0504 54.8085 71.7396 54.8085H74.1768V30.6543ZM46.393 66.6697H60.7587C61.6689 66.6697 62.5404 66.3088 63.1834 65.6646C63.8276 65.0216 64.1884 64.1501 64.1884 63.2399V60.1111C64.1884 59.2009 63.8276 58.3294 63.1834 57.6864C62.5404 57.0422 61.6689 56.6813 60.7587 56.6813C57.1542 56.6813 49.9975 56.6813 46.393 56.6813C45.4828 56.6813 44.6113 57.0422 43.9683 57.6864C43.3241 58.3294 42.9633 59.2009 42.9633 60.1111V63.2399C42.9633 64.1501 43.3241 65.0216 43.9683 65.6646C44.6113 66.3088 45.4828 66.6697 46.393 66.6697ZM74.1768 60.427H71.4487C71.179 60.427 70.9193 60.5343 70.7295 60.7254C70.5385 60.9151 70.4311 61.1748 70.4311 61.4445V63.155C70.4311 63.4247 70.5385 63.6844 70.7295 63.8742C70.9193 64.0652 71.179 64.1726 71.4487 64.1726H74.1743C74.1755 64.1089 74.1768 64.0452 74.1768 63.9803V60.427ZM46.7089 59.1784V64.1726H46.393C46.1458 64.1726 45.9086 64.0739 45.7338 63.8991C45.559 63.7243 45.4604 63.4871 45.4604 63.2399V60.1111C45.4604 59.8639 45.559 59.6266 45.7338 59.4518C45.9086 59.2771 46.1458 59.1784 46.393 59.1784H46.7089ZM49.206 59.1784V64.1726H50.4545V59.1784H49.206ZM52.9516 59.1784V64.1726H54.2001V59.1784H52.9516ZM56.6972 59.1784V64.1726H57.9457V59.1784H56.6972ZM60.4428 59.1784H60.7587C61.0059 59.1784 61.2431 59.2771 61.4179 59.4518C61.5927 59.6266 61.6914 59.8639 61.6914 60.1111V63.2399C61.6914 63.4871 61.5927 63.7243 61.4179 63.8991C61.2431 64.0739 61.0059 64.1726 60.7587 64.1726H60.4428V59.1784ZM32.975 60.427C32.975 60.427 32.9762 64.1089 32.9787 64.1726H35.703C35.9727 64.1726 36.2324 64.0652 36.4222 63.8742C36.6132 63.6844 36.7206 63.4247 36.7206 63.155V61.4445C36.7206 61.1748 36.6132 60.9151 36.4222 60.7254C36.2324 60.5343 35.9727 60.427 35.703 60.427H32.975ZM37.9691 54.1843H69.1826C69.8718 54.1843 70.4311 53.6249 70.4311 52.9357V32.8555C70.4311 32.165 69.8718 31.6069 69.1826 31.6069H37.9691C37.2799 31.6069 36.7206 32.165 36.7206 32.8555V52.9357C36.7206 53.6249 37.2799 54.1843 37.9691 54.1843ZM52.3273 34.104H39.2177V51.6872H39.566L40.5299 48.7956C40.6997 48.2849 41.1779 47.9416 41.7147 47.9416H49.5743C50.2635 47.9416 50.8228 48.5009 50.8228 49.1901C50.8228 49.8793 50.2635 50.4386 49.5743 50.4386H42.6149L42.1979 51.6872H52.3273V34.104ZM54.8244 34.104V51.6872H56.2377L57.2016 48.7956C57.3714 48.2849 57.8484 47.9416 58.3865 47.9416H66.2448C66.934 47.9416 67.4933 48.5009 67.4933 49.1901C67.4933 49.8793 66.934 50.4386 66.2448 50.4386H59.2854L58.8697 51.6872H67.9341V34.104H54.8244ZM47.8251 37.8596L41.2715 45.1423C40.8108 45.6542 40.852 46.4446 41.3639 46.9053C41.877 47.366 42.6674 47.3248 43.1281 46.8129L49.6804 39.5289C50.1424 39.017 50.0999 38.2267 49.588 37.766C49.0761 37.3053 48.2858 37.3465 47.8251 37.8596ZM64.8215 37.8596L58.2691 45.1423C57.8084 45.6542 57.8496 46.4446 58.3615 46.9053C58.8734 47.366 59.6637 47.3248 60.1244 46.8129L66.678 39.5289C67.1387 39.017 67.0975 38.2267 66.5856 37.766C66.0725 37.3053 65.2834 37.3465 64.8215 37.8596ZM44.1594 36.4937L40.4737 40.5902C40.013 41.1021 40.0542 41.8924 40.5661 42.3531C41.0792 42.8151 41.8683 42.7726 42.3303 42.2607L46.016 38.1642C46.4767 37.6511 46.4355 36.862 45.9236 36.4001C45.4104 35.9394 44.6201 35.9818 44.1594 36.4937ZM61.157 36.4937L57.4713 40.5902C57.0093 41.1021 57.0518 41.8924 57.5637 42.3531C58.0756 42.8151 58.8659 42.7726 59.3266 42.2607L63.0136 38.1642C63.4743 37.6511 63.4331 36.862 62.9199 36.4001C62.408 35.9394 61.6177 35.9818 61.157 36.4937ZM45.4604 30.462H61.6914C62.3806 30.462 62.9399 29.9027 62.9399 29.2135C62.9399 28.5243 62.3806 27.9649 61.6914 27.9649H45.4604C44.7712 27.9649 44.2118 28.5243 44.2118 29.2135C44.2118 29.9027 44.7712 30.462 45.4604 30.462ZM39.8419 27.9799C40.5311 27.9799 41.0905 28.533 41.0905 29.2135C41.0905 29.8939 40.5311 30.447 39.8419 30.447C39.1527 30.447 38.5934 29.8939 38.5934 29.2135C38.5934 28.533 39.1527 27.9799 39.8419 27.9799ZM67.3098 27.9799C67.999 27.9799 68.5583 28.533 68.5583 29.2135C68.5583 29.8939 67.999 30.447 67.3098 30.447C66.6206 30.447 66.0613 29.8939 66.0613 29.2135C66.0613 28.533 66.6206 27.9799 67.3098 27.9799ZM39.5023 24.2193H67.6494C67.2574 22.0881 65.3895 20.4737 63.1447 20.4737C58.1955 20.4737 48.9563 20.4737 44.007 20.4737C41.7622 20.4737 39.8944 22.0881 39.5023 24.2193ZM9.25271 11.7339H32.8214L9.25271 5.84206V11.7339Z"/>
</mask>
<path fill-rule="evenodd" clip-rule="evenodd" d="M12.1006 63.9291C11.8834 64.1538 11.7498 64.4597 11.7498 64.7968V72.9123C11.7498 73.6015 12.3091 74.1609 12.9983 74.1609H14.2469C14.9361 74.1609 15.4954 73.6015 15.4954 72.9123V65.4211H22.9866V72.9123C22.9866 73.6015 23.546 74.1609 24.2352 74.1609H25.4837C26.1729 74.1609 26.7323 73.6015 26.7323 72.9123V64.6283C26.7323 63.8455 26.4214 63.0938 25.867 62.5407C25.3139 61.9864 24.5623 61.6755 23.7795 61.6755H15.4954C15.4954 61.6755 15.4954 61.6755 13.7512 52.6311C13.4703 51.179 12.2267 47.9416 10.5012 47.9416C10.1279 47.9416 9.7746 48.1089 9.53737 48.396C9.30015 48.6844 9.20401 49.0628 9.27643 49.4286L12.1006 63.9291ZM43.1168 11.7339L9.25271 3.26757V2.99414C9.25271 2.30495 8.69336 1.74561 8.00417 1.74561H3.01001C2.32082 1.74561 1.76147 2.30495 1.76147 2.99414V72.9123C1.76147 73.6015 2.32082 74.1609 3.01001 74.1609H8.00417C8.69336 74.1609 9.25271 73.6015 9.25271 72.9123V16.7281H69.1826C69.8718 16.7281 70.4311 16.1687 70.4311 15.4795V12.9825C70.4311 12.2933 69.8718 11.7339 69.1826 11.7339H43.1168ZM37.6033 71.4116C37.682 72.1045 37.9928 72.7538 38.491 73.2519C39.0728 73.8338 39.8619 74.1609 40.6847 74.1609H44.5352C45.3567 74.1609 46.1458 73.8338 46.7276 73.2519C47.2195 72.7613 47.5292 72.122 47.6128 71.4391L37.6033 71.4116ZM59.0694 71.4703C59.1581 72.142 59.4665 72.7688 59.9496 73.2519C60.5315 73.8338 61.3205 74.1609 62.1433 74.1609H66.02C66.8428 74.1609 67.6307 73.8338 68.2125 73.2519C68.6907 72.775 68.9953 72.1582 69.0902 71.499L59.0694 71.4703ZM74.1768 30.6543C74.1768 28.4793 72.4138 26.7164 70.2389 26.7164C63.2246 26.7164 43.9272 26.7164 36.9129 26.7164C35.8678 26.7164 34.8665 27.1309 34.1286 27.87C33.3895 28.6079 32.975 29.6093 32.975 30.6543V54.8085H35.4121C36.1013 54.8085 36.6606 55.3679 36.6606 56.0571C36.6606 56.7463 36.1013 57.3056 35.4121 57.3056H32.975V57.9299H35.703C36.6357 57.9299 37.5296 58.3007 38.1889 58.9587C38.8468 59.6179 39.2177 60.5119 39.2177 61.4445V63.155C39.2177 64.0877 38.8468 64.9816 38.1889 65.6409C37.5296 66.2988 36.6357 66.6697 35.703 66.6697H33.5618C34.0212 67.6647 34.7254 68.5225 35.5994 69.1655L35.6368 69.1667H71.5511C72.4251 68.5237 73.1305 67.666 73.5899 66.6697H71.4487C70.516 66.6697 69.6221 66.2988 68.9629 65.6409C68.3049 64.9816 67.9341 64.0877 67.9341 63.155V61.4445C67.9341 60.5119 68.3049 59.6179 68.9629 58.9587C69.6221 58.3007 70.516 57.9299 71.4487 57.9299H74.1768V57.3056H71.7396C71.0504 57.3056 70.4911 56.7463 70.4911 56.0571C70.4911 55.3679 71.0504 54.8085 71.7396 54.8085H74.1768V30.6543ZM46.393 66.6697H60.7587C61.6689 66.6697 62.5404 66.3088 63.1834 65.6646C63.8276 65.0216 64.1884 64.1501 64.1884 63.2399V60.1111C64.1884 59.2009 63.8276 58.3294 63.1834 57.6864C62.5404 57.0422 61.6689 56.6813 60.7587 56.6813C57.1542 56.6813 49.9975 56.6813 46.393 56.6813C45.4828 56.6813 44.6113 57.0422 43.9683 57.6864C43.3241 58.3294 42.9633 59.2009 42.9633 60.1111V63.2399C42.9633 64.1501 43.3241 65.0216 43.9683 65.6646C44.6113 66.3088 45.4828 66.6697 46.393 66.6697ZM74.1768 60.427H71.4487C71.179 60.427 70.9193 60.5343 70.7295 60.7254C70.5385 60.9151 70.4311 61.1748 70.4311 61.4445V63.155C70.4311 63.4247 70.5385 63.6844 70.7295 63.8742C70.9193 64.0652 71.179 64.1726 71.4487 64.1726H74.1743C74.1755 64.1089 74.1768 64.0452 74.1768 63.9803V60.427ZM46.7089 59.1784V64.1726H46.393C46.1458 64.1726 45.9086 64.0739 45.7338 63.8991C45.559 63.7243 45.4604 63.4871 45.4604 63.2399V60.1111C45.4604 59.8639 45.559 59.6266 45.7338 59.4518C45.9086 59.2771 46.1458 59.1784 46.393 59.1784H46.7089ZM49.206 59.1784V64.1726H50.4545V59.1784H49.206ZM52.9516 59.1784V64.1726H54.2001V59.1784H52.9516ZM56.6972 59.1784V64.1726H57.9457V59.1784H56.6972ZM60.4428 59.1784H60.7587C61.0059 59.1784 61.2431 59.2771 61.4179 59.4518C61.5927 59.6266 61.6914 59.8639 61.6914 60.1111V63.2399C61.6914 63.4871 61.5927 63.7243 61.4179 63.8991C61.2431 64.0739 61.0059 64.1726 60.7587 64.1726H60.4428V59.1784ZM32.975 60.427C32.975 60.427 32.9762 64.1089 32.9787 64.1726H35.703C35.9727 64.1726 36.2324 64.0652 36.4222 63.8742C36.6132 63.6844 36.7206 63.4247 36.7206 63.155V61.4445C36.7206 61.1748 36.6132 60.9151 36.4222 60.7254C36.2324 60.5343 35.9727 60.427 35.703 60.427H32.975ZM37.9691 54.1843H69.1826C69.8718 54.1843 70.4311 53.6249 70.4311 52.9357V32.8555C70.4311 32.165 69.8718 31.6069 69.1826 31.6069H37.9691C37.2799 31.6069 36.7206 32.165 36.7206 32.8555V52.9357C36.7206 53.6249 37.2799 54.1843 37.9691 54.1843ZM52.3273 34.104H39.2177V51.6872H39.566L40.5299 48.7956C40.6997 48.2849 41.1779 47.9416 41.7147 47.9416H49.5743C50.2635 47.9416 50.8228 48.5009 50.8228 49.1901C50.8228 49.8793 50.2635 50.4386 49.5743 50.4386H42.6149L42.1979 51.6872H52.3273V34.104ZM54.8244 34.104V51.6872H56.2377L57.2016 48.7956C57.3714 48.2849 57.8484 47.9416 58.3865 47.9416H66.2448C66.934 47.9416 67.4933 48.5009 67.4933 49.1901C67.4933 49.8793 66.934 50.4386 66.2448 50.4386H59.2854L58.8697 51.6872H67.9341V34.104H54.8244ZM47.8251 37.8596L41.2715 45.1423C40.8108 45.6542 40.852 46.4446 41.3639 46.9053C41.877 47.366 42.6674 47.3248 43.1281 46.8129L49.6804 39.5289C50.1424 39.017 50.0999 38.2267 49.588 37.766C49.0761 37.3053 48.2858 37.3465 47.8251 37.8596ZM64.8215 37.8596L58.2691 45.1423C57.8084 45.6542 57.8496 46.4446 58.3615 46.9053C58.8734 47.366 59.6637 47.3248 60.1244 46.8129L66.678 39.5289C67.1387 39.017 67.0975 38.2267 66.5856 37.766C66.0725 37.3053 65.2834 37.3465 64.8215 37.8596ZM44.1594 36.4937L40.4737 40.5902C40.013 41.1021 40.0542 41.8924 40.5661 42.3531C41.0792 42.8151 41.8683 42.7726 42.3303 42.2607L46.016 38.1642C46.4767 37.6511 46.4355 36.862 45.9236 36.4001C45.4104 35.9394 44.6201 35.9818 44.1594 36.4937ZM61.157 36.4937L57.4713 40.5902C57.0093 41.1021 57.0518 41.8924 57.5637 42.3531C58.0756 42.8151 58.8659 42.7726 59.3266 42.2607L63.0136 38.1642C63.4743 37.6511 63.4331 36.862 62.9199 36.4001C62.408 35.9394 61.6177 35.9818 61.157 36.4937ZM45.4604 30.462H61.6914C62.3806 30.462 62.9399 29.9027 62.9399 29.2135C62.9399 28.5243 62.3806 27.9649 61.6914 27.9649H45.4604C44.7712 27.9649 44.2118 28.5243 44.2118 29.2135C44.2118 29.9027 44.7712 30.462 45.4604 30.462ZM39.8419 27.9799C40.5311 27.9799 41.0905 28.533 41.0905 29.2135C41.0905 29.8939 40.5311 30.447 39.8419 30.447C39.1527 30.447 38.5934 29.8939 38.5934 29.2135C38.5934 28.533 39.1527 27.9799 39.8419 27.9799ZM67.3098 27.9799C67.999 27.9799 68.5583 28.533 68.5583 29.2135C68.5583 29.8939 67.999 30.447 67.3098 30.447C66.6206 30.447 66.0613 29.8939 66.0613 29.2135C66.0613 28.533 66.6206 27.9799 67.3098 27.9799ZM39.5023 24.2193H67.6494C67.2574 22.0881 65.3895 20.4737 63.1447 20.4737C58.1955 20.4737 48.9563 20.4737 44.007 20.4737C41.7622 20.4737 39.8944 22.0881 39.5023 24.2193ZM9.25271 11.7339H32.8214L9.25271 5.84206V11.7339Z" fill="white"/>
<path fill-rule="evenodd" clip-rule="evenodd" d="M12.1006 63.9291C11.8834 64.1538 11.7498 64.4597 11.7498 64.7968V72.9123C11.7498 73.6015 12.3091 74.1609 12.9983 74.1609H14.2469C14.9361 74.1609 15.4954 73.6015 15.4954 72.9123V65.4211H22.9866V72.9123C22.9866 73.6015 23.546 74.1609 24.2352 74.1609H25.4837C26.1729 74.1609 26.7323 73.6015 26.7323 72.9123V64.6283C26.7323 63.8455 26.4214 63.0938 25.867 62.5407C25.3139 61.9864 24.5623 61.6755 23.7795 61.6755H15.4954C15.4954 61.6755 15.4954 61.6755 13.7512 52.6311C13.4703 51.179 12.2267 47.9416 10.5012 47.9416C10.1279 47.9416 9.7746 48.1089 9.53737 48.396C9.30015 48.6844 9.20401 49.0628 9.27643 49.4286L12.1006 63.9291ZM43.1168 11.7339L9.25271 3.26757V2.99414C9.25271 2.30495 8.69336 1.74561 8.00417 1.74561H3.01001C2.32082 1.74561 1.76147 2.30495 1.76147 2.99414V72.9123C1.76147 73.6015 2.32082 74.1609 3.01001 74.1609H8.00417C8.69336 74.1609 9.25271 73.6015 9.25271 72.9123V16.7281H69.1826C69.8718 16.7281 70.4311 16.1687 70.4311 15.4795V12.9825C70.4311 12.2933 69.8718 11.7339 69.1826 11.7339H43.1168ZM37.6033 71.4116C37.682 72.1045 37.9928 72.7538 38.491 73.2519C39.0728 73.8338 39.8619 74.1609 40.6847 74.1609H44.5352C45.3567 74.1609 46.1458 73.8338 46.7276 73.2519C47.2195 72.7613 47.5292 72.122 47.6128 71.4391L37.6033 71.4116ZM59.0694 71.4703C59.1581 72.142 59.4665 72.7688 59.9496 73.2519C60.5315 73.8338 61.3205 74.1609 62.1433 74.1609H66.02C66.8428 74.1609 67.6307 73.8338 68.2125 73.2519C68.6907 72.775 68.9953 72.1582 69.0902 71.499L59.0694 71.4703ZM74.1768 30.6543C74.1768 28.4793 72.4138 26.7164 70.2389 26.7164C63.2246 26.7164 43.9272 26.7164 36.9129 26.7164C35.8678 26.7164 34.8665 27.1309 34.1286 27.87C33.3895 28.6079 32.975 29.6093 32.975 30.6543V54.8085H35.4121C36.1013 54.8085 36.6606 55.3679 36.6606 56.0571C36.6606 56.7463 36.1013 57.3056 35.4121 57.3056H32.975V57.9299H35.703C36.6357 57.9299 37.5296 58.3007 38.1889 58.9587C38.8468 59.6179 39.2177 60.5119 39.2177 61.4445V63.155C39.2177 64.0877 38.8468 64.9816 38.1889 65.6409C37.5296 66.2988 36.6357 66.6697 35.703 66.6697H33.5618C34.0212 67.6647 34.7254 68.5225 35.5994 69.1655L35.6368 69.1667H71.5511C72.4251 68.5237 73.1305 67.666 73.5899 66.6697H71.4487C70.516 66.6697 69.6221 66.2988 68.9629 65.6409C68.3049 64.9816 67.9341 64.0877 67.9341 63.155V61.4445C67.9341 60.5119 68.3049 59.6179 68.9629 58.9587C69.6221 58.3007 70.516 57.9299 71.4487 57.9299H74.1768V57.3056H71.7396C71.0504 57.3056 70.4911 56.7463 70.4911 56.0571C70.4911 55.3679 71.0504 54.8085 71.7396 54.8085H74.1768V30.6543ZM46.393 66.6697H60.7587C61.6689 66.6697 62.5404 66.3088 63.1834 65.6646C63.8276 65.0216 64.1884 64.1501 64.1884 63.2399V60.1111C64.1884 59.2009 63.8276 58.3294 63.1834 57.6864C62.5404 57.0422 61.6689 56.6813 60.7587 56.6813C57.1542 56.6813 49.9975 56.6813 46.393 56.6813C45.4828 56.6813 44.6113 57.0422 43.9683 57.6864C43.3241 58.3294 42.9633 59.2009 42.9633 60.1111V63.2399C42.9633 64.1501 43.3241 65.0216 43.9683 65.6646C44.6113 66.3088 45.4828 66.6697 46.393 66.6697ZM74.1768 60.427H71.4487C71.179 60.427 70.9193 60.5343 70.7295 60.7254C70.5385 60.9151 70.4311 61.1748 70.4311 61.4445V63.155C70.4311 63.4247 70.5385 63.6844 70.7295 63.8742C70.9193 64.0652 71.179 64.1726 71.4487 64.1726H74.1743C74.1755 64.1089 74.1768 64.0452 74.1768 63.9803V60.427ZM46.7089 59.1784V64.1726H46.393C46.1458 64.1726 45.9086 64.0739 45.7338 63.8991C45.559 63.7243 45.4604 63.4871 45.4604 63.2399V60.1111C45.4604 59.8639 45.559 59.6266 45.7338 59.4518C45.9086 59.2771 46.1458 59.1784 46.393 59.1784H46.7089ZM49.206 59.1784V64.1726H50.4545V59.1784H49.206ZM52.9516 59.1784V64.1726H54.2001V59.1784H52.9516ZM56.6972 59.1784V64.1726H57.9457V59.1784H56.6972ZM60.4428 59.1784H60.7587C61.0059 59.1784 61.2431 59.2771 61.4179 59.4518C61.5927 59.6266 61.6914 59.8639 61.6914 60.1111V63.2399C61.6914 63.4871 61.5927 63.7243 61.4179 63.8991C61.2431 64.0739 61.0059 64.1726 60.7587 64.1726H60.4428V59.1784ZM32.975 60.427C32.975 60.427 32.9762 64.1089 32.9787 64.1726H35.703C35.9727 64.1726 36.2324 64.0652 36.4222 63.8742C36.6132 63.6844 36.7206 63.4247 36.7206 63.155V61.4445C36.7206 61.1748 36.6132 60.9151 36.4222 60.7254C36.2324 60.5343 35.9727 60.427 35.703 60.427H32.975ZM37.9691 54.1843H69.1826C69.8718 54.1843 70.4311 53.6249 70.4311 52.9357V32.8555C70.4311 32.165 69.8718 31.6069 69.1826 31.6069H37.9691C37.2799 31.6069 36.7206 32.165 36.7206 32.8555V52.9357C36.7206 53.6249 37.2799 54.1843 37.9691 54.1843ZM52.3273 34.104H39.2177V51.6872H39.566L40.5299 48.7956C40.6997 48.2849 41.1779 47.9416 41.7147 47.9416H49.5743C50.2635 47.9416 50.8228 48.5009 50.8228 49.1901C50.8228 49.8793 50.2635 50.4386 49.5743 50.4386H42.6149L42.1979 51.6872H52.3273V34.104ZM54.8244 34.104V51.6872H56.2377L57.2016 48.7956C57.3714 48.2849 57.8484 47.9416 58.3865 47.9416H66.2448C66.934 47.9416 67.4933 48.5009 67.4933 49.1901C67.4933 49.8793 66.934 50.4386 66.2448 50.4386H59.2854L58.8697 51.6872H67.9341V34.104H54.8244ZM47.8251 37.8596L41.2715 45.1423C40.8108 45.6542 40.852 46.4446 41.3639 46.9053C41.877 47.366 42.6674 47.3248 43.1281 46.8129L49.6804 39.5289C50.1424 39.017 50.0999 38.2267 49.588 37.766C49.0761 37.3053 48.2858 37.3465 47.8251 37.8596ZM64.8215 37.8596L58.2691 45.1423C57.8084 45.6542 57.8496 46.4446 58.3615 46.9053C58.8734 47.366 59.6637 47.3248 60.1244 46.8129L66.678 39.5289C67.1387 39.017 67.0975 38.2267 66.5856 37.766C66.0725 37.3053 65.2834 37.3465 64.8215 37.8596ZM44.1594 36.4937L40.4737 40.5902C40.013 41.1021 40.0542 41.8924 40.5661 42.3531C41.0792 42.8151 41.8683 42.7726 42.3303 42.2607L46.016 38.1642C46.4767 37.6511 46.4355 36.862 45.9236 36.4001C45.4104 35.9394 44.6201 35.9818 44.1594 36.4937ZM61.157 36.4937L57.4713 40.5902C57.0093 41.1021 57.0518 41.8924 57.5637 42.3531C58.0756 42.8151 58.8659 42.7726 59.3266 42.2607L63.0136 38.1642C63.4743 37.6511 63.4331 36.862 62.9199 36.4001C62.408 35.9394 61.6177 35.9818 61.157 36.4937ZM45.4604 30.462H61.6914C62.3806 30.462 62.9399 29.9027 62.9399 29.2135C62.9399 28.5243 62.3806 27.9649 61.6914 27.9649H45.4604C44.7712 27.9649 44.2118 28.5243 44.2118 29.2135C44.2118 29.9027 44.7712 30.462 45.4604 30.462ZM39.8419 27.9799C40.5311 27.9799 41.0905 28.533 41.0905 29.2135C41.0905 29.8939 40.5311 30.447 39.8419 30.447C39.1527 30.447 38.5934 29.8939 38.5934 29.2135C38.5934 28.533 39.1527 27.9799 39.8419 27.9799ZM67.3098 27.9799C67.999 27.9799 68.5583 28.533 68.5583 29.2135C68.5583 29.8939 67.999 30.447 67.3098 30.447C66.6206 30.447 66.0613 29.8939 66.0613 29.2135C66.0613 28.533 66.6206 27.9799 67.3098 27.9799ZM39.5023 24.2193H67.6494C67.2574 22.0881 65.3895 20.4737 63.1447 20.4737C58.1955 20.4737 48.9563 20.4737 44.007 20.4737C41.7622 20.4737 39.8944 22.0881 39.5023 24.2193ZM9.25271 11.7339H32.8214L9.25271 5.84206V11.7339Z" stroke="#FF6600" stroke-width="2" mask="url(#path-1-outside-1_231_2091)"/>
</svg>
