<svg width="82" height="80" viewBox="0 0 82 80" fill="none" xmlns="http://www.w3.org/2000/svg">
<path d="M5.45697 16.2413H21.8404C24.5907 16.2413 26.7973 13.9289 26.7973 11.1233C26.7973 8.3177 24.5907 6.00507 21.8404 6.00507H19.5027C18.8655 3.29853 16.4928 1.26562 13.6488 1.26562C10.8049 1.26562 8.43201 3.29853 7.79462 6.00507H5.45697C2.70662 6.00507 0.5 8.31752 0.5 11.1233C0.5 13.9291 2.70664 16.2413 5.45697 16.2413Z" fill="white" stroke="#FF6600"/>
<path d="M78.3928 66.9466L78.4081 71.9778L70.6036 60.105H79.2343H79.2781L79.3213 60.0974C79.8174 60.0097 80.268 59.8033 80.5275 59.3891C80.7869 58.9749 80.7759 58.4794 80.6382 57.9947L80.6263 57.9525L80.6071 57.913L74.8256 45.9939H77.1186H77.1623L77.2053 45.9863C77.7006 45.8992 78.1505 45.6935 78.4103 45.2805C78.6701 44.8674 78.6607 44.3728 78.5247 43.8886L78.5129 43.8465L78.494 43.8072L72.5676 31.4696H74.7428H74.7911L74.8385 31.4604C75.3526 31.36 75.819 31.1382 76.0692 30.6981C76.3195 30.258 76.2716 29.7438 76.0951 29.2508L76.0788 29.2052L76.0541 29.1637L65.5777 11.5517C64.9946 10.5716 63.5889 10.5573 62.9801 11.5107L62.98 11.5108L59.7861 16.5147C59.3327 17.2251 59.541 18.1686 60.2513 18.622C60.9617 19.0756 61.9051 18.8669 62.3585 18.157L62.3586 18.1569L64.2209 15.2393L72.0598 28.4176H70.1422H70.0985L70.0555 28.4252C69.5602 28.5123 69.1103 28.718 68.8505 29.131C68.5907 29.5441 68.6001 30.0387 68.7361 30.5229L68.7479 30.5649L68.7668 30.6043L74.6932 42.9418H72.3898H72.346L72.3028 42.9495C71.8067 43.0371 71.3561 43.2435 71.0966 43.6577C70.8372 44.0719 70.8482 44.5675 70.9858 45.0522L70.9978 45.0944L71.0169 45.1338L76.7985 57.053H68.5978L56.1548 38.124L59.7669 30.6044L59.7858 30.5651L59.7976 30.5231C59.9336 30.0389 59.943 29.5442 59.6832 29.1312C59.4234 28.7181 58.9734 28.5125 58.4781 28.4253L58.4352 28.4178H58.3915H56.2796L57.3081 26.3973C57.6907 25.646 57.3914 24.7275 56.6406 24.3451L56.6404 24.345C55.8897 23.9631 54.9707 24.2614 54.5885 25.0128L52.4309 29.2515L52.4105 29.2914L52.3976 29.3344C52.2514 29.8212 52.2323 30.3211 52.4898 30.7412C52.7473 31.1612 53.2015 31.3711 53.7017 31.4616L53.7458 31.4696H53.7907H55.9659L54.1989 35.1482L43.0312 18.1588L47.6117 10.8317L47.6117 10.8317C48.0486 10.1326 47.8365 9.21129 47.137 8.77414C46.4377 8.3368 45.5164 8.54951 45.0792 9.24861L45.0792 9.24867L41.127 15.5704L37.1747 9.24866L37.1747 9.24861C36.7375 8.54954 35.8164 8.33678 35.1171 8.77414C34.418 9.21131 34.2052 10.1324 34.6426 10.8317C34.6426 10.8317 34.6426 10.8318 34.6426 10.8318L39.2246 18.1607L3.83996 72.2287L3.85046 66.945L3.85046 66.9449C3.85201 66.1204 3.185 65.4504 2.36018 65.4488H2.35925H2.35922H2.35918H2.35915H2.35912H2.35909H2.35906H2.35902H2.35899H2.35896H2.35893H2.3589H2.35886H2.35883H2.3588H2.35877H2.35873H2.3587H2.35867H2.35864H2.35861H2.35857H2.35854H2.35851H2.35848H2.35845H2.35841H2.35838H2.35835H2.35832H2.35829H2.35825H2.35822H2.35819H2.35816H2.35813H2.35809H2.35806H2.35803H2.358H2.35797H2.35793H2.3579H2.35787H2.35784H2.35781H2.35777H2.35774H2.35771H2.35768H2.35764H2.35761H2.35758H2.35755H2.35752H2.35748H2.35745H2.35742H2.35739H2.35736H2.35732H2.35729H2.35726H2.35723H2.3572C1.53379 65.4488 0.865727 66.1154 0.863928 66.939L0.863928 66.9391L0.843751 77.1684L0.843661 77.214L0.851821 77.2589C0.924793 77.6601 1.08425 78.0202 1.36603 78.2897C1.65085 78.5621 2.01502 78.6983 2.41451 78.732L2.43549 78.7338H2.45654H79.9685H80.0172L80.0649 78.7244C80.5768 78.6238 81.0376 78.4061 81.2982 77.983C81.548 77.5776 81.5422 77.1015 81.4087 76.6334L81.3793 66.9375C81.3768 66.1144 80.7089 65.4488 79.8861 65.4488H79.886H79.886H79.8859H79.8858H79.8858H79.8857H79.8857H79.8856H79.8855H79.8855H79.8854H79.8854H79.8853H79.8852H79.8852H79.8851H79.885H79.885H79.8849H79.8849H79.8848H79.8847H79.8847H79.8846H79.8846H79.8845H79.8844H79.8844H79.8843H79.8843H79.8842H79.8841H79.8841H79.884H79.8839H79.8839H79.8838H79.8838H79.8837H79.8836H79.8836H79.8835H79.8835H79.8834H79.8833H79.8833H79.8832H79.8832H79.8831H79.883L79.883 65.9488V65.9476V65.4488L79.8814 65.4488C79.0569 65.4514 78.3902 66.1218 78.3928 66.9466ZM17.5154 75.6264C27.4555 69.4251 35.5451 61.5391 39.6748 50.3795V75.6264H17.5154ZM42.607 50.4528C46.7411 61.5602 54.8205 69.4499 64.7357 75.6262H42.607V50.4528Z" fill="white" stroke="#FF6600"/>
<path d="M58.8456 23.3176C59.7349 23.3176 60.4558 22.5967 60.4558 21.7074C60.4558 20.8181 59.7349 20.0972 58.8456 20.0972C57.9563 20.0972 57.2354 20.8181 57.2354 21.7074C57.2354 22.5967 57.9563 23.3176 58.8456 23.3176Z" fill="white" stroke="#FF6600"/>
</svg>
