<svg width="83" height="90" viewBox="0 0 83 90" fill="none" xmlns="http://www.w3.org/2000/svg">
<path fill-rule="evenodd" clip-rule="evenodd" d="M69.0689 6.1798C71.8079 3.82706 74.8697 2.06582 78.3082 0.908258C78.5252 0.835168 78.7489 0.778078 78.9727 0.725408C79.8344 0.522518 80.3794 0.820248 80.6136 1.65804C80.8915 2.65199 81.0074 3.67445 81.1043 4.69529C81.273 6.4725 81.2869 8.2537 81.105 10.0308C80.7402 13.5954 79.9216 17.0497 78.3253 20.3128C77.9096 21.1627 77.4671 21.9987 76.9437 22.7914C76.7482 23.0876 76.7296 23.3513 76.8578 23.6682C77.8994 26.2436 79.287 28.554 81.997 29.8676C82.039 29.8879 82.0756 29.9186 82.1243 29.9596C82.1514 29.9823 82.1822 30.0084 82.2199 30.0375L82.0727 30.2046C81.5112 30.8415 80.9581 31.4685 80.4533 32.1319C79.3827 33.5388 78.5129 35.0595 77.6434 36.5795L77.6418 36.5824C77.5347 36.7696 77.4276 36.9567 77.3202 37.1437C75.8457 39.7096 73.6069 41.354 70.7242 42.2607C68.9508 42.8185 67.1819 43.39 65.4131 43.9614C64.9971 44.0958 64.5811 44.2302 64.165 44.3645C63.9445 44.4356 63.728 44.5177 63.5019 44.6034C63.3944 44.6442 63.2847 44.6857 63.1715 44.7273C63.2438 45.028 63.4139 45.2484 63.5801 45.4638C63.6151 45.5091 63.6501 45.5544 63.6838 45.6C65.1757 47.6189 66.2696 49.8088 66.7948 52.2389C67.6892 56.3762 66.7648 60.1847 64.4364 63.7108C62.9243 66.0006 61.4621 68.3018 60.682 70.939C59.9962 73.2576 59.4841 75.6025 59.2682 78.0061C59.1315 79.5272 59.0365 81.047 59.2837 82.5627C59.4745 83.7322 60.0928 84.5981 61.2961 85.0454C62.4449 85.4725 63.2155 86.2369 63.4718 87.4256C63.6735 88.3612 63.1779 89.2216 62.2038 89.2958C60.3846 89.4344 58.5459 89.4907 56.7659 88.9861C54.7862 88.4248 53.7584 86.9754 53.1047 85.2247C52.4425 83.4514 52.3056 81.5931 52.169 79.7364L52.1625 79.6473C51.9061 76.1671 51.637 72.6875 50.4133 69.3587C50.0631 68.4057 49.6846 67.4577 49.0922 66.6115C49.061 66.567 49.0325 66.5114 49.0028 66.4538C48.8928 66.2402 48.7682 65.9983 48.4453 66.1855C48.0944 66.389 48.0008 66.7265 48.2141 67.1434C48.6623 68.0189 48.9931 68.9336 49.1373 69.911C49.5019 72.3842 48.9897 74.6991 47.7727 76.8793C46.0421 79.9795 43.2781 81.9426 39.9475 83.2622C39.4751 83.4493 39.0002 83.6308 38.5251 83.8122C38.1968 83.9376 37.8678 84.0633 37.5403 84.1906C37.5218 84.1979 37.5027 84.2047 37.4835 84.2116C37.3639 84.2547 37.2393 84.2995 37.1957 84.4445C37.3417 84.5845 37.509 84.5712 37.67 84.5585C37.7166 84.5548 37.7627 84.5512 37.8077 84.5513C38.6546 84.554 39.5016 84.5535 40.3486 84.553H40.3501C41.7933 84.5522 43.2364 84.5513 44.6794 84.5659C45.8281 84.5775 46.8798 84.8767 47.7048 85.7106C48.0713 86.0812 48.3173 86.5029 48.4569 86.9923C48.7989 88.1915 48.2149 89.0317 46.9347 89.1618C46.6671 89.189 46.3975 89.2113 46.1289 89.2117C42.7907 89.2162 39.4524 89.2182 36.1142 89.2201L33.8865 89.2214C31.2751 89.223 28.9594 88.4907 27.0989 86.6789C26.0928 85.699 25.3378 84.5464 24.7123 83.3158C23.0803 80.1049 22.4198 76.6988 22.6329 73.1564C22.8711 69.1948 24.173 65.5306 26.3511 62.1603C28.9231 58.1807 32.3449 54.9514 36.2126 52.1286C37.8817 50.9105 39.6442 49.8231 41.4066 48.7357C41.7618 48.5166 42.117 48.2975 42.4713 48.0773C43.1331 47.6661 43.7847 47.2428 44.3358 46.6939C45.1955 45.8379 45.7241 44.8447 45.692 43.6362C45.6789 43.1431 45.8607 43.0342 46.3467 43.1604C48.1542 43.6299 50.0034 43.8175 51.8729 43.8546C54.7201 43.911 57.4986 43.4636 60.2404 42.7881C63.439 42 66.5636 40.9838 69.6877 39.9677C70.1854 39.8059 70.6831 39.644 71.181 39.4831C71.9489 39.2349 72.6794 38.904 73.3132 38.4051L73.3383 38.3854C73.5235 38.24 73.7088 38.0946 73.7879 37.8115C73.5661 37.7272 73.3386 37.7385 73.1136 37.7497C73.0029 37.7552 72.8929 37.7607 72.7844 37.7548C71.4697 37.6828 70.5781 36.8594 70.6402 35.7706C70.6588 35.445 70.7957 35.1681 70.9744 34.9032C71.1 34.7171 71.1544 34.5489 70.9479 34.3677C69.6383 33.2189 68.5023 31.9217 67.3663 30.6247C66.7126 29.8783 66.0588 29.1315 65.3719 28.4134C64.1694 27.1558 62.77 26.1603 60.9663 25.8471C58.236 25.373 56.0974 26.396 54.2796 28.313C54.4713 28.4704 54.665 28.4547 54.8456 28.44C54.8837 28.4369 54.9213 28.4339 54.958 28.4325C56.5261 28.3747 58.0692 28.5113 59.5734 28.9556C59.794 29.0208 59.9622 28.9966 60.1594 28.8656C60.8831 28.3848 61.6377 28.3794 62.3709 28.8408C63.0648 29.2775 63.379 30.1299 63.182 30.935C63.011 31.634 62.368 32.1619 61.5362 32.3002C61.1375 32.3665 60.771 32.2505 60.4097 32.1308C58.4753 31.49 56.4867 31.459 54.4848 31.6669C49.7044 32.1634 45.3875 33.882 41.3285 36.2664L41.2742 36.2981C41.0817 36.4097 40.8832 36.5248 40.7268 36.7801C45.3753 38.921 50.1728 40.4773 55.3693 40.7347C55.317 40.9997 55.1539 41.0504 55.0079 41.0958C54.9774 41.1053 54.9474 41.1146 54.9195 41.1256C52.7901 41.9629 50.5769 42.2235 48.3028 41.9155C43.782 41.3032 39.8033 39.4356 36.062 37.0331C35.9987 36.9924 35.9396 36.9444 35.8842 36.894C35.8658 36.8772 35.8539 36.8539 35.8421 36.8305C35.8369 36.8204 35.8318 36.8102 35.826 36.8006C35.8003 36.6742 35.8819 36.5901 35.9619 36.5132C37.8423 34.7039 38.833 32.4589 39.4467 30.0293C39.5233 29.7262 39.5982 29.4226 39.6733 29.1191C39.8144 28.5483 39.9555 27.9768 40.1071 27.4085C40.1872 27.1079 40.1211 26.8759 39.9051 26.6539C36.7117 23.3711 35.0733 19.4101 34.4214 15.0399C34.0433 12.5047 33.9814 9.9562 34.3761 7.4119C34.542 6.3421 34.9367 5.986 36.0478 6.034C38.7026 6.1485 41.2465 6.7669 43.7146 7.6827C46.4184 8.6858 48.8106 10.1757 50.9791 11.9988C51.3341 12.2973 51.5973 12.338 52.0421 12.13C55.8532 10.3476 59.8278 9.8188 63.9728 10.8403C64.4384 10.955 64.7128 10.8604 64.9884 10.4948C66.1727 8.9245 67.5122 7.4838 69.0689 6.1798ZM41.4641 11.1884C41.2794 11.1432 41.0958 11.0935 40.9124 11.0437C40.3588 10.8936 39.8056 10.7437 39.2197 10.7195C38.7726 10.701 38.5999 10.8463 38.6042 11.2828C38.6153 12.4206 38.6935 13.552 38.8363 14.6812C39.104 16.7961 39.6892 18.8181 40.8195 20.6662C41.5354 21.8366 42.4359 22.8619 43.7302 23.4947C43.7699 23.514 43.8099 23.5352 43.8505 23.5567C44.115 23.6967 44.4052 23.8502 44.7789 23.6084C43.6282 21.7812 43.1869 19.8552 43.7425 17.737C44.1005 17.8508 44.2799 18.0592 44.4499 18.2567C44.4873 18.3003 44.5243 18.3433 44.5627 18.3847C45.0129 18.8698 45.52 19.2909 46.1141 19.6014C46.9644 20.0458 47.2331 19.9313 47.4981 19.0306C47.9754 17.4088 47.6971 15.9102 46.6601 14.5459C45.374 12.854 43.5546 11.9048 41.4641 11.1884ZM74.857 8.228C73.908 9.7552 73.2186 11.3756 72.8433 13.1221C72.3614 15.3656 72.7622 17.4215 74.1709 19.2864C74.1827 19.302 74.1942 19.3179 74.2057 19.3339C74.2806 19.4382 74.356 19.5432 74.5156 19.5411C76.4899 17.7735 78.376 7.8746 77.12 5.5748C76.2094 6.3248 75.5178 7.2114 74.857 8.228ZM71.4664 29.5304C71.6698 30.5797 72.1519 31.5117 72.8009 32.3677C72.8705 32.4595 72.938 32.5569 73.006 32.655C73.2666 33.0311 73.5352 33.4188 73.9665 33.5532C74.8308 33.8225 75.5087 34.2283 75.898 35.1069C76.6655 33.6754 77.3978 32.327 78.3763 31.0267C77.1977 30.4399 76.3419 29.5841 75.5629 28.5952C75.1163 29.0791 74.6504 29.4255 74.0909 29.6404C73.7608 29.7672 73.5294 29.7314 73.3724 29.3549C72.7592 27.8838 73.086 26.6079 74.3671 25.6223C74.3934 25.6021 74.4221 25.5825 74.4511 25.5627C74.5834 25.4724 74.7214 25.3782 74.6664 25.1973C74.6136 25.0236 74.5656 24.8483 74.5177 24.6727C74.3837 24.1833 74.2493 23.6921 74.0092 23.2309C73.5856 23.3752 73.2982 23.62 73.0392 23.8903C71.5168 25.4789 71.0134 27.3386 71.4664 29.5304ZM22.2426 79.345C22.565 80.4849 22.5675 80.4974 21.3999 80.7117C17.6749 81.3952 14.1516 80.747 10.8607 79.0508C5.40593 76.2394 2.37027 71.731 1.23333 66.0085C0.0817977 60.2121 1.24751 54.7471 3.98643 49.5248C5.3129 46.9956 7.05527 44.7323 8.81507 42.4802C11.5128 39.0277 13.0866 35.1655 13.6079 30.8935C13.9927 27.7401 13.9402 24.5951 13.5162 21.4509C13.5116 21.4164 13.521 21.3802 13.5298 21.3462C13.5338 21.3311 13.5375 21.3164 13.54 21.3025C13.6925 21.2371 13.7702 21.3198 13.8438 21.3982C13.858 21.4132 13.872 21.4281 13.8864 21.4418C14.2439 21.7823 14.6019 22.1223 14.9601 22.4623C17.9586 25.3089 20.9567 28.1555 23.6111 31.312C26.2134 34.4066 28.1191 37.8279 29.0384 41.7219C30.3719 47.3699 29.2496 52.6052 26.1395 57.5078C25.7477 58.1254 25.3307 58.7278 24.9138 59.3302C24.3129 60.1984 23.7118 61.0667 23.1857 61.9812C21.4297 65.0331 20.9691 68.3016 21.2395 71.7279C21.3926 73.6667 21.5483 75.6022 21.8635 77.5231C21.9347 77.9571 22.0306 78.3874 22.1302 78.8346C22.1675 79.0019 22.2053 79.172 22.2426 79.345ZM18.1855 53.5582C18.1716 53.5827 18.1541 53.6057 18.1362 53.629C18.0858 53.6952 18.0331 53.7643 18.0544 53.8795C18.4189 54.0712 18.8028 53.989 19.1692 53.9105C19.2608 53.8909 19.3513 53.8715 19.4401 53.8567C23.195 53.2306 26.0829 49.9326 26.1851 46.2863C26.263 43.5027 25.5271 40.9076 24.3294 38.4122C22.8328 35.2936 20.5401 32.7242 18.0638 30.2909C18.0265 30.2543 17.9897 30.2167 17.9524 30.1787C17.7464 29.9687 17.5287 29.747 17.1797 29.6192C17.0749 36.2969 14.6316 42.0224 9.67712 46.866C11.2582 47.0835 12.6215 46.9452 13.9142 46.4231C16.5494 45.3589 18.3587 43.6271 18.6554 40.7212C20.7544 43.1761 22.2078 49.5808 18.1855 53.5582ZM74.6391 42.4746C74.4875 42.2623 74.3358 42.0499 73.9729 42.3066C73.8738 42.3567 73.7779 42.4063 73.684 42.4549C73.4379 42.5823 73.2055 42.7027 72.9643 42.8043C72.3392 43.0678 72.0309 43.1963 71.9547 43.4025C71.8791 43.6069 72.0316 43.8877 72.3294 44.452C73.8388 47.3127 74.4939 50.349 74.0608 53.5258C73.5961 56.9354 71.8858 59.8009 69.4614 62.3011C67.9404 63.8698 66.2001 65.1995 64.4603 66.5289C64.2322 66.7032 64.004 66.8775 63.7765 67.0524C63.4326 67.3165 63.1989 67.6268 63.0376 68.0121C62.0635 70.3387 61.5894 72.762 61.5239 75.2581C61.4843 76.7636 61.4779 78.2711 61.6398 79.7728C61.7979 81.2395 62.0602 82.6829 62.7489 84.0236C63.7352 85.9434 65.1811 87.2819 67.4998 87.6421C68.7237 87.8323 69.9465 87.8248 71.1703 87.8173C71.4429 87.8156 71.7157 87.814 71.9885 87.8145C73.1246 87.8166 73.808 86.9361 73.5556 85.8679C73.2578 84.6065 72.366 83.8599 71.1388 83.5031C69.3507 82.9833 68.5754 81.7428 68.29 80.1067C68.0007 78.4483 68.0221 76.785 68.1589 75.112C68.3374 72.9258 68.758 70.7938 69.4702 68.7084C70.3013 66.2754 71.8922 64.3084 73.5923 62.392C77.1175 58.4183 78.3421 53.8365 77.407 48.7293C76.9944 46.475 76.0619 44.4087 74.6808 42.5324C74.6669 42.5134 74.653 42.494 74.6391 42.4746Z" fill="white" stroke="#FF6600"/>
</svg>
