<svg width="107" height="90" viewBox="0 0 107 90" fill="none" xmlns="http://www.w3.org/2000/svg">
<path d="M28.6105 3.01973C29.6308 2.56236 30.7712 2.13378 32.0014 1.76223C34.8823 0.933313 41.0941 -0.324015 47.9659 2.30525C50.4867 3.27684 52.5573 4.56294 54.2077 5.90628C53.3075 6.02055 52.4672 6.16339 51.6569 6.33486C45.2052 7.64959 39.7737 9.87869 35.1823 12.7082C34.4321 10.7076 33.1718 8.99273 31.4313 7.73523C30.5611 7.10659 29.6308 6.6492 28.7605 6.33486C27.2302 5.79183 27.11 3.70561 28.6105 3.01973ZM37.1645 53.3749C34.7289 56.4633 33.0518 60.3205 31.8827 63.7535C39.1339 55.0715 46.6355 49.8093 55.5359 46.4028C54.7217 44.2621 53.5943 42.5191 52.4948 41.1671C46.552 44.0831 41.2841 48.1988 37.1645 53.3749ZM88.5696 37.9726C83.8515 36.667 79.0499 36.0506 74.3109 36.097C74.3317 38.0124 74.2274 40.1995 73.8655 42.3401C83.8863 41.6707 91.3462 43.5662 93.3364 43.9771C95.946 44.4874 102.07 47.0324 104.923 42.8571C104.86 42.8305 104.805 42.8305 104.742 42.804C98.5277 40.7164 93.0998 39.1125 88.5696 37.9726ZM105.974 40.1995C99.6133 38.0588 93.9975 36.3687 89.3768 35.2288C84.3595 33.8305 79.2447 33.1809 74.1995 33.234C74.1647 32.7038 74.123 32.2332 74.0743 31.8223C73.9908 30.9408 73.0792 30.3643 72.1885 30.6228C71.5621 30.8017 71.1446 31.3584 71.1446 31.9681C71.1446 31.9725 71.1452 31.9764 71.1452 31.9807C71.5771 34.7342 71.8152 38.8578 70.5444 43.5685C69.3128 48.1341 67.0782 51.7145 64.836 54.3775C63.1939 56.3279 59.8175 55.3152 59.7795 52.8155C59.7587 51.4476 59.6076 49.9592 59.2533 48.3885C58.0619 43.1072 55.1732 39.5473 53.2516 37.6393C53.068 37.4527 52.8909 37.2837 52.7259 37.1325C52.7205 37.1275 52.7147 37.1217 52.7093 37.1168C52.264 36.7067 51.6245 36.5479 51.0265 36.72C50.3794 36.9056 50.0106 37.4557 50.0106 38.0256C50.0106 38.3636 50.1428 38.7083 50.4281 38.98L50.435 38.9866C44.3808 42.075 39.0086 46.3432 34.7637 51.665C30.143 57.5237 28.1597 65.5496 27.0811 69.6387L26.928 70.2087C28.5772 71.4944 30.5327 72.8398 32.6343 76.2132C36.0859 81.7272 36.3503 87.2745 35.4248 88.3548C34.5201 89.4152 30.0525 90.2436 24.736 86.784C22.0081 85.0145 20.1153 82.8738 18.8279 80.8127C17.2065 82.6684 14.9866 84.5307 12.0152 85.9026C6.25327 88.5271 1.9318 87.1021 1.21503 85.9026C0.463508 84.7295 1.60476 79.2685 5.86358 74.3244C8.95332 70.7257 11.3263 69.8972 13.4557 68.6115C13.0382 60.0951 13.7549 17.0231 52.2861 9.13644C59.071 7.73805 74.6101 7.30725 86.6489 15.2801C94.7212 20.5953 97.4212 26.686 98.6808 31.4843C98.6808 31.4843 106.51 35.1427 105.974 40.1995ZM89.0428 25.904C89.0428 24.9827 88.2564 24.2338 87.2891 24.2338C86.3219 24.2338 85.5355 24.9827 85.5355 25.904C85.5355 26.8252 86.3219 27.5741 87.2891 27.5741C88.2564 27.5741 89.0428 26.8252 89.0428 25.904Z" fill="white" stroke="#FF6600"/>
</svg>
