<svg width="93" height="79" viewBox="0 0 93 79" fill="none" xmlns="http://www.w3.org/2000/svg">
<path d="M77.9539 45.9042C80.4953 44.8867 84.3153 39.676 85.5782 37.7646C91.1582 29.0026 93.4559 22.4586 92.0202 14.7329C83.9106 37.9649 67.8533 49.1107 57.1538 54.1517C61.7357 53.649 66.1956 52.4138 70.3461 50.4982C70.5594 50.4015 70.7961 50.3615 71.0313 50.3824C71.2665 50.4034 71.4914 50.4845 71.6821 50.6172C71.8729 50.7498 72.0224 50.9292 72.1149 51.1362C72.2075 51.3431 72.2395 51.5701 72.2077 51.793C70.589 63.2165 78.9414 74.2696 82.2273 78.1083L83.7165 75.1021C89.7542 56.6954 77.8245 48.1549 77.695 48.0624C77.5096 47.9328 77.3629 47.7595 77.2692 47.5594C77.1755 47.3594 77.1381 47.1396 77.1608 46.9216C77.1905 46.7016 77.2791 46.4925 77.418 46.3143C77.5568 46.1362 77.7414 45.995 77.9539 45.9042Z" fill="white" stroke="#FF6600"/>
<path d="M90.4016 11.3416C86.7456 10.9714 83.0565 11.0128 79.4106 11.465C77.082 20.1441 72.6424 28.1798 66.4507 34.9229C60.2589 41.6661 52.4885 46.9277 43.7673 50.2826C43.4547 51.406 43.0487 52.504 42.5532 53.5662C44.2044 53.7975 46.9561 54.1365 50.1287 54.3061C59.4523 51.0997 81.2883 40.6012 90.4016 11.3416Z" fill="white" stroke="#FF6600"/>
<path d="M76.5618 11.9429C64.0154 14.5208 58.5852 21.261 54.2887 31.8296C52.4758 35.5603 49.546 40.663 44.5119 43.037C44.6383 44.4605 44.5948 45.8931 44.3823 47.3073C52.168 44.06 59.096 39.2009 64.6624 33.0836C70.2289 26.9662 74.2939 19.7442 76.5618 11.9429Z" fill="white" stroke="#FF6600"/>
<path d="M42.6018 41.1101C47.3445 39.291 50.1772 34.3424 51.9091 30.7813C56.5036 19.3114 62.9226 12.0551 76.4648 9.41487C79.9499 8.76449 83.5015 8.49546 87.0507 8.61301C82.6423 7.11811 77.8845 6.81924 73.3081 7.74974C58.7286 10.3957 44.2965 20.0679 33.9095 30.5808C33.4577 31.123 32.857 31.5353 32.1741 31.7721C31.4912 32.0088 30.7527 32.0607 30.0407 31.922C27.2107 31.4493 24.5993 30.1661 22.5546 28.2436C20.51 26.3212 19.1293 23.8507 18.5967 21.1618C18.5482 20.8931 18.5931 20.6168 18.7246 20.3747C18.8561 20.1326 19.0669 19.938 19.3251 19.8205C27.5018 16.0604 32.4142 10.0062 29.6038 1.8916C28.2236 5.70254 24.0596 5.99241 20.6361 6.80923C19.9078 7.00979 17.5122 7.81145 17.1398 9.53807C17.0838 9.78102 16.9529 10.0025 16.7638 10.1741C16.5747 10.3456 16.3361 10.4594 16.0786 10.5008C15.8211 10.5423 15.5564 10.5094 15.3187 10.4066C15.0809 10.3037 14.8809 10.1354 14.7442 9.92346C11.8037 5.70554 4.45536 6.25285 0.629471 2.53909C0.345604 6.17968 1.31556 9.80919 3.39234 12.8776C5.46912 15.946 8.53953 18.286 12.1383 19.543C12.2999 19.5976 12.4486 19.682 12.576 19.7914C12.7034 19.9007 12.8068 20.0329 12.8805 20.1804C12.9541 20.3279 12.9965 20.4878 13.0052 20.6509C13.0139 20.814 12.9888 20.9771 12.9313 21.131C9.73663 31.3749 16.8225 40.382 26.5282 46.7985C26.7022 46.9146 26.8436 47.0694 26.9403 47.2496C27.0369 47.4297 27.0857 47.6297 27.0825 47.8319C27.0793 48.0342 27.0242 48.2326 26.9219 48.4099C26.8196 48.5872 26.6733 48.7379 26.4958 48.849C25.7345 49.3347 25.0821 49.9595 24.5764 50.6873C24.0707 51.415 23.7218 52.2312 23.5499 53.0884C23.5001 55.5154 22.6757 57.8706 21.1863 59.8406C18.4198 63.7691 15.0287 67.2641 11.1346 70.2001C9.43505 71.4796 8.39904 72.3584 8.41527 73.5917C8.77293 76.0741 11.3907 75.6834 13.4006 74.3776C25.5564 67.8297 43.5936 58.554 41.8088 42.451C41.7672 42.1755 41.8224 41.8946 41.9659 41.6521C42.1093 41.4096 42.3329 41.219 42.6018 41.1101ZM42.6828 29.841C43.2885 29.8529 43.8651 30.0904 44.289 30.5025C44.7129 30.9146 44.9503 31.4686 44.9502 32.0455C44.9502 32.6224 44.7128 33.1763 44.2889 33.5884C43.865 34.0006 43.2884 34.238 42.6827 34.2499C42.0771 34.238 41.5005 34.0005 41.0766 33.5884C40.6527 33.1762 40.4153 32.6223 40.4154 32.0454C40.4154 31.4685 40.6528 30.9145 41.0767 30.5024C41.5006 30.0903 42.0772 29.8528 42.6828 29.841Z" fill="white" stroke="#FF6600"/>
</svg>
