<svg width="107" height="64" viewBox="0 0 107 64" fill="none" xmlns="http://www.w3.org/2000/svg">
<path d="M5.51448 38.8339C5.69621 38.9226 5.68371 39.0182 5.4835 39.0577C4.71982 39.2063 4.12989 39.3505 3.53344 39.385C2.962 39.418 2.38403 39.3505 1.78595 39.3014C1.58266 39.2845 1.50511 39.4077 1.62633 39.5645C3.26747 41.6999 5.96708 41.9181 9.37329 40.2256C9.55447 40.1357 9.71337 40.2171 9.69108 40.4107C9.63926 40.8528 9.3318 41.214 7.73577 42.9994C7.60351 43.1472 7.6604 43.2903 7.86368 43.3056C9.46116 43.4311 10.8568 42.9669 12.095 42.2067C13.4781 41.3577 14.8154 40.386 15.9766 39.2808C16.7543 38.5409 17.4092 37.6847 18.0657 36.8294C18.1861 36.6723 18.351 36.6892 18.4516 36.859C18.5639 37.0476 18.6904 37.228 18.8308 37.396C18.958 37.5482 19.0696 37.8184 19.0555 38.012C18.7967 41.7982 16.2361 45.2339 12.4231 46.5638C9.74652 47.4973 9.74417 47.4973 9.8632 50.1981C10.0228 53.814 10.1515 57.4319 10.3917 61.0428C10.4205 61.4716 11.0585 62.2101 11.4244 62.2158C13.4528 62.2488 15.5019 62.2236 17.5074 61.9624C18.5911 61.8215 18.994 60.5811 18.5771 59.5502C18.039 58.2226 16.7941 57.5037 14.9742 57.4994C14.7701 57.4987 14.6045 57.3502 14.6053 57.1559C14.6082 56.5307 14.6178 55.9078 14.6009 55.2845C14.5587 53.7567 15.2602 52.6044 16.6544 51.9271C18.5942 50.9843 20.5812 50.1276 22.5629 49.2665C25.0446 48.1894 27.3983 46.9533 29.2167 44.9446C29.8287 44.268 30.7484 44.3715 31.0249 45.3099C31.3767 46.5039 31.6695 47.8845 31.37 49.0398C30.996 50.4858 30.0173 51.7962 29.2522 53.1407C28.9299 53.7075 28.7585 54.092 29.4209 54.6173C32.2033 56.8258 34.9694 59.0574 37.6536 61.3729C38.5642 62.1585 39.4697 62.6139 40.6858 62.5204C41.9485 62.4232 43.2206 62.4034 44.4751 62.2472C45.966 62.0607 46.3637 61.2326 45.6638 59.9395C45.4641 59.5704 45.2322 59.2158 44.986 58.8728C44.2787 57.8901 43.365 57.4521 42.194 58.1139C41.4444 58.5377 40.9522 58.4117 40.4295 57.7689C39.1423 56.1863 37.8097 54.6381 36.4324 53.009C36.3045 52.8577 36.3436 52.6563 36.5174 52.5542C40.8935 49.9818 42.2108 46.0976 42.2456 41.3089C42.2471 41.1146 42.3913 41.0321 42.5732 41.1194C46.1155 42.8177 49.3622 42.3423 52.4773 40.1577C52.6415 40.0423 52.7679 40.1037 52.7708 40.2979C52.8063 42.5823 53.6675 44.7746 52.4722 46.9565C52.2505 47.3614 52.5875 48.045 52.6666 48.5996C52.7804 49.3971 52.8944 50.1956 53.0156 51.044C53.043 51.2367 52.9018 51.4184 52.7007 51.4516C52.459 51.4911 52.2896 51.5192 52.1196 51.541C49.0312 51.9396 47.4093 54.7851 48.7296 57.4927C49.2861 58.6353 49.859 58.786 51.0041 58.1679C52.9275 57.1293 54.953 56.2368 56.7619 55.0441C57.4723 54.5758 57.8071 53.4994 58.1525 52.6412C58.6949 51.2902 59.0446 49.8689 59.5849 48.5171C59.948 47.6088 60.4558 46.7528 61.0086 45.7031C61.1003 45.5292 61.2546 45.5257 61.3561 45.694C63.6787 49.5659 65.8742 53.2537 68.1089 56.9188C68.4358 57.4539 68.888 57.9199 69.3116 58.4015C69.4426 58.5508 69.6502 58.5515 69.7782 58.4001C70.1108 58.0081 70.4625 57.5926 70.9149 57.0591C71.0428 56.9076 71.258 56.902 71.3961 57.0456C72.653 58.3537 74.1039 59.7405 75.3377 61.2852C76.0222 62.1428 76.6321 62.601 77.78 62.5433C79.5254 62.4552 81.2781 62.4897 83.0271 62.4974C84.1187 62.5023 84.4441 61.9772 84.1536 61.0558C83.6295 59.3913 82.5797 58.0946 80.9697 57.2632C80.6106 57.0773 80.0444 56.9141 79.7286 57.0549C78.5459 57.5841 77.9375 56.8499 77.2937 56.1896C75.8958 54.7555 74.4617 53.346 73.1755 51.8246C72.6611 51.2164 72.5133 50.3322 72.1701 49.5857C70.9482 46.9231 69.674 44.2811 68.4977 41.6001C67.6578 39.6865 66.9238 37.7315 66.1891 35.8841C66.1167 35.7026 66.1766 35.4456 66.3214 35.309C67.3295 34.3599 68.2575 33.4314 69.2812 32.6118C69.6138 32.3457 70.2865 32.3105 70.7647 32.388C75.3953 33.1386 79.5864 35.0096 83.5563 37.2859C84.5423 37.8512 85.1516 39.1036 85.774 40.1281C86.4481 41.2376 86.9181 42.4577 87.5073 43.6157C87.9893 44.5641 88.7944 45.0471 89.9223 45.016C90.1078 45.0112 90.2943 45.0082 90.4803 45.0069C90.6845 45.0055 90.9394 45.0146 91.0489 45.0201C91.1139 45.0238 91.1806 45.0251 91.2464 45.0251C91.3143 45.0251 91.3824 45.0229 91.4489 45.0195C91.5613 45.0139 91.6765 45.0039 91.706 45.0039C91.724 45.0039 91.7415 45.0039 91.7593 45.0039C94.1603 44.9843 95.596 43.936 95.9256 41.6916C96.2693 39.3514 97.0079 37.3803 99.4517 36.2706C100.6 35.749 101.04 34.6063 101.091 33.4433C101.138 32.3505 101.792 31.8536 102.706 31.4263C105.865 29.9493 106.301 29.4318 105.851 26.0968C105.689 24.9021 105.434 23.7144 105.128 22.5359C105.09 22.3281 105.034 22.1233 104.961 21.9219C104.7 20.9729 104.409 20.0302 104.109 19.0967C103.624 17.5879 103.164 17.5259 101.672 18.28C100.207 19.0199 98.785 19.8394 97.3132 20.5667C96.0299 21.201 95.3469 21.0553 94.803 19.8085C94.3482 18.7664 94.1523 17.6225 93.8384 16.3798C93.7902 16.191 93.6771 16.1791 93.5876 16.3538C93.252 17.0107 92.9083 17.685 92.5779 18.3321C92.4885 18.5067 92.3554 18.5024 92.28 18.3214C92.0102 17.6729 91.7055 16.9415 91.3277 16.034C91.2523 15.8532 91.1578 15.8622 91.1179 16.053C90.9788 16.7275 90.9088 17.1927 90.7439 17.6258C90.6619 17.8426 90.4925 18.0299 90.3218 18.2165C90.1881 18.363 89.9545 18.3897 89.7844 18.2812C89.5264 18.1164 89.2648 17.9545 89.1501 17.725C88.9173 17.2562 88.8751 16.6951 88.7886 16.1677C88.7207 15.7515 88.6888 15.33 88.6276 14.7147C88.6084 14.5211 88.5071 14.5007 88.4027 14.6683C88.0367 15.2568 87.7398 15.7348 87.4693 16.17C87.3651 16.3375 87.1268 16.4136 86.9444 16.3263C84.2368 15.0408 84.1783 12.2853 82.9932 10.0795C82.9001 9.90646 82.8009 9.92751 82.7848 10.1211C82.739 10.6823 82.7118 11.2469 82.5777 11.7883C82.5149 12.0439 82.3197 12.2699 82.1289 12.4965C82.0012 12.6485 81.8015 12.6556 81.6581 12.5177C81.3674 12.2375 81.0362 11.9516 81.0712 11.7136C81.1998 10.816 81.5184 9.94373 81.6323 8.91013C81.6537 8.71652 81.5531 8.67718 81.4178 8.82282C80.9853 9.28957 80.553 9.75564 80.1229 10.2196C79.9876 10.3654 79.7968 10.3463 79.6957 10.1774C79.3275 9.56204 78.8833 8.8185 78.4301 8.0603C78.3288 7.89137 78.1759 7.78007 78.0871 7.81113C77.9984 7.84219 77.9451 8.02372 77.9667 8.21732C77.9955 8.46649 78.0241 8.71652 78.0531 8.96914C78.0754 9.16206 77.9268 9.30994 77.7302 9.25782C76.4351 8.91082 75.6588 7.2562 75.262 4.38042C75.2353 4.1875 75.1576 4.17767 75.0851 4.35919C74.8101 5.05044 74.536 5.74118 74.2648 6.42414C74.1923 6.60584 74.0644 6.61068 73.9787 6.43398C73.6681 5.79691 73.3429 5.1293 72.9407 4.30363C72.8548 4.12762 72.7499 4.13884 72.7071 4.32899C72.5629 4.96882 72.4573 5.4399 72.3596 5.8749C72.3169 6.06506 72.1763 6.23813 72.0455 6.26143C71.9146 6.28541 71.7483 6.1572 71.6744 5.97637C71.1272 4.64649 70.5754 3.30471 69.9586 1.80867C69.884 1.62766 69.7858 1.63405 69.739 1.82334C69.524 2.6956 69.3341 3.46795 69.1321 4.28672C69.0855 4.47618 68.9386 4.50983 68.8045 4.3635C68.1 3.59046 67.4674 2.89645 66.8427 2.21141C66.7089 2.06422 66.5388 1.99589 66.4627 2.05784C66.3864 2.12048 66.3739 2.32185 66.4339 2.50769C66.5136 2.75548 66.5979 3.01534 66.6948 3.31386C66.7546 3.4997 66.6682 3.56096 66.5004 3.45052C65.6798 2.90905 64.9399 2.42124 64.0468 1.83266C63.8791 1.72205 63.8001 1.77985 63.8702 1.96224C64.117 2.60276 64.3094 3.10265 64.5134 3.63291C64.5837 3.8153 64.4918 3.89261 64.3094 3.80547C62.6985 3.03743 61.1943 2.31995 59.4504 1.48789C59.2678 1.40058 59.1939 1.47236 59.2848 1.6463C59.8644 2.76221 60.3241 3.64706 60.7707 4.50741C60.8617 4.68135 60.8586 4.89325 60.7647 4.979C60.6709 5.06494 60.4507 5.05855 60.2717 4.96434C59.2539 4.42787 58.2278 3.88639 57.1085 3.29643C56.9306 3.20204 56.8329 3.27676 56.8912 3.4626C57.0922 4.09622 57.2815 4.69464 57.4672 5.27959C57.5263 5.46544 57.4125 5.58087 57.2138 5.53653C56.4559 5.36829 55.6739 5.19504 54.8874 5.02042C54.6884 4.97607 54.506 5.00627 54.4794 5.08737C54.4527 5.1683 54.5605 5.3317 54.7218 5.45128C55.089 5.72582 55.4648 6.00605 55.8779 6.3144C56.0384 6.43415 56.0027 6.53976 55.7987 6.54959C54.8644 6.59532 54.0409 6.63552 53.2323 6.67504C53.0283 6.68487 52.8116 6.7834 52.7489 6.89401C52.686 7.00531 52.7837 7.16354 52.967 7.24895C53.1326 7.32557 53.3153 7.41012 53.5399 7.51434C53.7233 7.59958 53.7063 7.67412 53.503 7.68396C43.3224 8.18937 35.5694 13.1682 28.0678 18.5723C25.4376 20.4674 22.9501 22.6126 20.7356 24.9359C19.3339 26.4066 18.5489 28.4123 17.5044 30.1872C16.451 31.9782 15.0782 33.4758 13.0306 34.2228C9.97753 35.3357 7.58466 34.6543 5.01605 32.0353C4.87709 31.8931 4.72109 31.9274 4.6767 32.1169C4.43645 33.1419 4.69301 33.6095 6.50337 35.88C6.62676 36.0349 6.56171 36.168 6.3577 36.1595C4.51255 36.0813 3.04226 34.8797 1.34568 32.081C1.24367 31.9128 1.11938 31.9283 1.08242 32.1198C0.600113 34.6132 2.26191 37.2442 5.51448 38.8339Z" fill="white" stroke="#FF6600"/>
</svg>
