<svg width="93" height="90" viewBox="0 0 93 90" fill="none" xmlns="http://www.w3.org/2000/svg">
<path d="M91.3314 60.4515C91.2795 60.1643 91.1446 59.8965 90.942 59.6782C90.7393 59.4599 90.4768 59.2996 90.184 59.2152C89.8911 59.1309 89.5793 59.1259 89.2836 59.2007C88.9879 59.2755 88.7198 59.4273 88.5095 59.639C85.8462 62.2609 82.7127 64.4091 79.2567 65.9823L62.6051 62.0139L54.8451 54.233C55.2206 52.7597 55.5108 51.2679 55.7146 49.7644L61.1778 51.655C61.3591 51.705 61.5468 51.7313 61.7356 51.7331H78.0427L83.7357 57.1703C84.0444 57.4554 84.4583 57.6138 84.8884 57.6114C85.3184 57.6089 85.7303 57.4459 86.0355 57.1573C86.3406 56.8687 86.5147 56.4775 86.5202 56.068C86.5258 55.6584 86.3624 55.2632 86.0651 54.9671L79.8966 49.0768C79.588 48.781 79.1696 48.6127 78.7318 48.6081H62.0308L56.01 46.5456C56.0399 45.045 56.0946 43.5184 56.01 42.077C57.5561 42.4586 59.1299 42.7302 60.7184 42.8895L73.9086 40.0927L80.8482 44.827C81.2011 45.0586 81.6352 45.1493 82.0574 45.0798C82.4797 45.0104 82.8567 44.7862 83.1076 44.4553C83.3585 44.1244 83.4634 43.7131 83.3998 43.3095C83.3362 42.9059 83.1093 42.542 82.7675 42.2958L75.221 37.1398C75.0318 37.0148 74.8178 36.9282 74.592 36.8852C74.3663 36.8422 74.1336 36.8438 73.9085 36.8898L60.3575 39.7646L55.7475 38.8271C55.5999 37.5928 55.403 36.4053 55.2061 35.2491C55.9884 35.4118 56.7847 35.506 57.5849 35.5304L72.3828 32.718C72.8188 32.8883 78.2535 36.5666 78.7317 36.2961C79.0822 36.2889 79.4211 36.1756 79.6994 35.9727C79.9776 35.7698 80.1809 35.4877 80.2796 35.1674C80.3783 34.8471 80.3673 34.5052 80.2483 34.1912C80.1293 33.8772 79.9084 33.6075 79.6177 33.4211L73.5969 29.7494C73.243 29.5303 72.8132 29.4518 72.3993 29.5307L57.2404 32.4057L54.5007 31.9838C54.0017 29.9282 53.3883 27.8994 52.6632 25.9058C53.5203 25.0533 54.0568 23.9545 54.189 22.781L56.5514 21.8122L62.7527 26.234C62.9691 26.3858 63.2204 26.4864 63.4858 26.5271C63.7512 26.5679 64.023 26.5477 64.2785 26.4683L71.1525 24.1715C82.5298 17.4987 76.2974 5.86231 71.8413 1.71919C71.6237 1.51378 71.3505 1.36987 71.0521 1.30347C70.7538 1.23708 70.4419 1.25078 70.1512 1.34307C69.8606 1.43536 69.6024 1.60262 69.4056 1.82625C69.2088 2.04988 69.0809 2.32112 69.0362 2.60981C68.4078 10.3449 60.8506 14.4182 67.7898 21.9685L64.0161 23.2341L57.7655 18.7811C56.7057 17.902 54.9934 19.1787 53.828 19.5311C53.5045 18.6429 52.8509 17.8982 51.9906 17.4374C51.764 15.8816 50.947 14.4587 49.6939 13.4375C49.351 13.1935 48.9218 13.0862 48.4973 13.1384C48.0727 13.1906 47.6862 13.3982 47.4196 13.7171C47.153 14.036 47.0272 14.4413 47.069 14.847C47.1107 15.2528 47.3167 15.6271 47.6433 15.8907C48.0571 16.2474 48.3774 16.6915 48.5783 17.1874C48.3864 17.1664 46.3956 18.2063 46.1666 18.281C44.4193 19.2728 42.4869 17.7597 40.9004 17.1874C41.6881 15.4881 43.1797 15.3612 42.098 13.703C40.046 11.7672 37.9198 14.9666 37.488 17.4372C36.6053 17.8986 35.9418 18.6647 35.6342 19.5778C34.4161 19.204 32.6558 17.8919 31.5984 18.781L25.3478 23.2341L21.5581 21.9685C25.4951 17.4883 25.1839 13.9333 22.4437 9.65648C21.371 7.42089 20.6524 5.04614 20.3113 2.60975C20.2734 2.31908 20.1501 2.04452 19.9554 1.81775C19.7608 1.59098 19.5028 1.42125 19.2112 1.32814C18.9196 1.23503 18.6063 1.22233 18.3075 1.29151C18.0086 1.36069 17.7364 1.50893 17.5222 1.71912C13.0933 5.83475 6.80583 17.541 18.2115 24.1716L25.0853 26.4683C25.341 26.5467 25.6126 26.5663 25.8778 26.5256C26.143 26.4848 26.3943 26.3849 26.6111 26.2339L32.7959 21.8121L35.2897 22.8278C35.4385 23.983 35.9734 25.0621 36.8154 25.9057C36.0904 27.8993 35.477 29.9281 34.9779 31.9837L32.2382 32.4055L17.0794 29.5305C16.6655 29.4517 16.2356 29.5302 15.8817 29.7493L9.86079 33.4211C9.50423 33.6486 9.25565 34.0003 9.16848 34.4006C9.0813 34.8008 9.1625 35.2176 9.39461 35.5615C9.62672 35.9053 9.99121 36.1487 10.4097 36.2393C10.8283 36.3298 11.2674 36.2604 11.6327 36.0459L17.0957 32.7181L31.8936 35.5305C32.6939 35.5066 33.4903 35.4124 34.2725 35.2492C34.0756 36.4054 33.8787 37.5928 33.7311 38.8271L29.1211 39.7646L15.57 36.8898C15.3449 36.8438 15.1123 36.8422 14.8865 36.8852C14.6608 36.9282 14.4467 37.0149 14.2575 37.1398L6.71094 42.2958C6.36807 42.5416 6.1401 42.9057 6.07598 43.3099C6.01185 43.7141 6.11669 44.1261 6.36798 44.4574C6.61927 44.7888 6.99697 45.0131 7.41998 45.0822C7.843 45.1513 8.2776 45.0597 8.63047 44.827L15.5699 40.0928L28.7602 42.8896C28.9872 42.9365 29.2222 42.9365 29.4492 42.8896L33.4686 42.0772C33.3847 43.5129 33.4371 45.0534 33.4686 46.5457L27.4477 48.6082H10.7467C10.3089 48.6129 9.89055 48.7812 9.58193 49.077L3.41338 54.9673C3.11579 55.2633 2.95209 55.6587 2.95752 56.0685C2.96295 56.4782 3.13707 56.8696 3.44241 57.1583C3.74775 57.447 4.1599 57.61 4.59017 57.6123C5.02044 57.6145 5.43444 57.4558 5.74307 57.1703L11.4358 51.7331H27.743C27.9318 51.7312 28.1195 51.7049 28.3008 51.6549L33.764 49.7643C33.9678 51.2679 34.258 52.7596 34.6335 54.2329L26.8735 62.0139L8.8108 66.3262C8.46569 66.4033 8.15879 66.5908 7.94135 66.8574L1.7564 74.2166C1.4951 74.5408 1.3776 74.9495 1.42909 75.3552C1.48059 75.7609 1.69698 76.1313 2.03185 76.3868C2.36671 76.6423 2.79339 76.7627 3.22036 76.7221C3.64733 76.6814 4.04058 76.4831 4.31577 76.1695L10.1561 69.2324L28.1368 64.9357C28.4416 64.8624 28.7196 64.7111 28.9407 64.4982L35.7162 57.6859C36.707 60.6603 38.2641 63.4356 40.3096 65.8732C38.221 68.8479 39.1426 74.4232 42.1967 76.0759C41.5458 80.1425 46.0132 85.5736 50.3009 84.6694C51.9037 88.1593 58.1405 89.8607 61.67 87.6379C61.7778 87.5701 61.8819 87.4972 61.9817 87.4192C63.1794 88.3203 64.6723 88.7906 66.198 88.7473C69.3388 88.839 73.1606 86.6833 74.0398 84.0911C75.9885 84.1373 77.897 83.5587 79.459 82.448C81.0209 81.3373 82.1457 79.7589 82.6528 77.9664C91.1341 75.0033 92.3018 65.69 91.3314 60.4515ZM75.828 72.6229C74.4311 72.9447 73.1364 73.5829 72.0539 74.4833C70.9714 75.3837 70.1331 76.5196 69.6103 77.7946C68.2743 77.6369 66.9182 77.7625 65.6391 78.1622C64.36 78.562 63.1895 79.2261 62.2114 80.107C61.1365 79.1597 59.8342 78.4777 58.4184 78.1209C57.0027 77.7641 55.5167 77.7433 54.0905 78.0603C53.8133 76.9283 53.3002 75.861 52.5815 74.9216C51.8629 73.9822 50.9534 73.1899 49.9071 72.5916C50.271 71.4829 50.3932 70.3151 50.2662 69.1598C50.1393 68.0045 49.7658 66.886 49.1688 65.8731C51.2068 63.4308 52.7632 60.6569 53.7625 57.686L60.538 64.4981C60.759 64.7111 61.037 64.8623 61.3419 64.9356L76.8452 68.623C76.2125 69.8726 75.8658 71.236 75.828 72.6229Z" fill="white" stroke="#FF6600"/>
</svg>
