<svg width="107" height="77" viewBox="0 0 107 77" fill="none" xmlns="http://www.w3.org/2000/svg">
<path fill-rule="evenodd" clip-rule="evenodd" d="M102.518 26.6553C102.747 26.7837 102.95 26.97 103.111 27.207C103.111 27.207 107.128 32.9107 105.533 47.4405C105.424 48.4336 104.568 49.1482 103.621 49.0342C102.673 48.9202 101.993 48.0194 102.102 47.0262C102.852 40.1829 102.268 35.5681 101.569 32.766C101.614 32.5797 101.657 32.3952 101.7 32.2107C102.147 30.2533 102.436 28.3738 102.518 26.6553ZM12.7613 33.0157C12.5423 33.7718 12.1406 35.3728 11.9061 37.5671C10.8113 38.1423 9.35955 38.7284 7.68367 38.9817C5.67847 39.2838 3.42845 39.1463 1.13187 37.9542C1.03187 37.9198 0.976694 37.8077 1.00945 37.7045C1.04394 37.5978 1.15083 37.5417 1.25083 37.5761C3.50258 37.9994 5.44226 37.5001 7.11987 36.7892C9.97162 35.5754 11.7665 33.4788 11.7665 33.4788C12.0527 33.2056 12.4027 33.0518 12.7613 33.0157Z" fill="white" stroke="#FF6600"/>
<path fill-rule="evenodd" clip-rule="evenodd" d="M52.8479 52.061C50.8048 55.0477 49.2324 56.4569 48.941 56.7083C48.4358 57.2402 47.9703 57.7955 47.5444 58.3672C48.6962 60.8527 52.6773 73.351 52.6773 73.351C52.7945 73.7236 52.6704 74.1324 52.3686 74.3658C51.8221 74.7855 51.4152 75.1491 51.1324 75.4657C51.0428 75.5652 50.9583 75.6864 50.8945 75.7859C51.1307 75.8528 51.541 75.9577 51.8979 75.9794C54.2014 76.1259 58.0239 75.4548 59.8342 75.1021C55.698 64.1016 53.6031 55.4945 52.8479 52.061Z" fill="white" stroke="#FF6600"/>
<path fill-rule="evenodd" clip-rule="evenodd" d="M57.7585 2.40283C58.493 3.1626 59.1172 4.08699 59.5844 5.20495C60.243 5.92854 63.5655 9.63696 64.9034 12.421C65.3638 13.3797 65.5879 14.2589 65.5259 14.9282C65.469 15.5288 65.2224 16.0154 64.7586 16.3573C63.9845 17.3016 58.0775 24.3657 52.843 26.475C52.324 27.0321 50.4722 28.9442 48.2584 30.3191C47.0084 31.0933 45.6463 31.6794 44.3291 31.8259C44.2342 34.9627 43.3584 54.4835 36.0445 64.1145C36.0342 64.129 36.0221 64.1434 36.0083 64.1579C36.0083 64.1579 34.61 65.9253 35.0635 71.3341C35.0893 71.6399 34.9652 71.9401 34.7324 72.1283C34.7324 72.1283 33.5203 73.1087 32.7169 74.3099C32.4807 74.6609 32.2789 75.0317 32.1772 75.4007C32.1548 75.4821 32.1358 75.5617 32.1255 75.6413C33.7031 75.777 37.7083 76.052 40.0273 75.5907C40.3514 75.5274 40.6359 75.4496 40.867 75.3483C40.9308 75.3211 41.0066 75.2759 41.0635 75.2379C41.029 75.1457 41.0101 75.048 41.0049 74.9485C41.0049 74.9485 40.5014 63.002 47.7515 55.397C47.7774 55.3717 47.8033 55.3463 47.8308 55.3246C47.8308 55.3246 55.2827 49.1379 59.6844 31.3466C59.8034 30.8636 60.2758 30.5723 60.7362 30.6971C61.1965 30.8238 61.4724 31.3176 61.3534 31.8006C60.2482 36.2652 58.9551 40.0243 57.6258 43.1592L57.6309 43.1646C57.6309 43.1646 65.2569 51.0826 80.326 48.8195C80.4329 47.877 80.6243 46.9454 80.8709 46.0482C82.0898 41.6107 84.6416 38.0217 84.6416 38.0217C84.9261 37.6201 85.4658 37.5387 85.8468 37.8372C86.2296 38.1357 86.3071 38.7019 86.0244 39.1017C86.0244 39.1017 83.6588 42.432 82.5278 46.5493C82.3071 47.3543 82.1312 48.1918 82.033 49.0384C82.1105 49.1488 82.164 49.2808 82.1864 49.4237C82.233 49.7204 82.1364 50.0062 81.9502 50.2052C81.9123 51.7465 82.1743 53.2931 82.9209 54.7204C83.0226 54.9031 84.0244 56.7682 84.4502 58.8612C84.7778 60.473 84.7416 62.2006 83.8916 63.5157C83.7243 63.7961 79.9605 70.1095 79.0329 73.8776C78.8967 74.4293 78.8208 74.9141 78.8588 75.2976C78.8691 75.4043 78.8519 75.5056 78.9208 75.5509C78.9743 75.5852 79.0484 75.5798 79.1381 75.5762C81.2174 75.4894 83.6985 75.9796 85.4606 75.8982C85.8175 75.8801 86.1382 75.8403 86.4071 75.7517C86.5692 75.6974 86.7089 75.6341 86.802 75.5201C86.9054 75.3917 86.9227 75.209 86.9071 74.9738C86.8899 74.6934 86.8158 74.3678 86.6865 73.9861C86.633 73.8269 86.6227 73.6569 86.6554 73.4922L90.1537 56.5439C90.1727 56.4552 90.202 56.3702 90.2451 56.2924C90.2451 56.2924 97.5262 42.7214 100.023 31.788C100.647 29.06 100.975 26.5003 100.785 24.3765C100.669 23.0795 100.364 21.9543 99.7832 21.086C99.7194 20.9901 99.6745 20.8816 99.6487 20.7676C99.6487 20.7676 97.9073 12.8461 90.8813 7.48246C86.1502 3.87173 79.0364 1.45131 68.4862 3.28381C68.4397 3.29285 68.3931 3.29647 68.3449 3.29647C68.3449 3.29647 63.4258 3.29647 57.7585 2.40283Z" fill="white" stroke="#FF6600"/>
<path fill-rule="evenodd" clip-rule="evenodd" d="M96.4864 47.2432C94.2657 52.368 92.1984 56.3261 91.8122 57.0569L91.6777 57.7081C91.7708 57.7823 91.8519 57.8764 91.9122 57.9885C91.9122 57.9885 95.5536 64.765 97.533 67.8782C97.533 67.8782 99.5468 71.0042 98.8226 73.8678C98.8054 73.9365 98.7623 74.0595 98.6726 74.2097C98.6226 74.2929 98.4916 74.5624 98.4295 74.6909C98.5485 74.7415 98.7864 74.8302 99.0313 74.8645C99.1502 74.8808 99.2795 74.8935 99.4209 74.9025C99.802 74.9278 100.261 74.9242 100.814 74.8862C100.836 74.8862 100.857 74.8844 100.88 74.8844C100.88 74.8844 102.83 74.917 104.412 74.3381C105.14 74.074 105.83 73.7231 105.973 73.0212C106.074 72.5291 105.892 71.9285 105.423 71.1507C105.404 71.1163 105.385 71.0819 105.369 71.0476C105.369 71.0476 100.616 60.2986 97.9364 52.283C97.3088 50.4107 96.8037 48.6777 96.4864 47.2432Z" fill="white" stroke="#FF6600"/>
<path fill-rule="evenodd" clip-rule="evenodd" d="M42.6083 31.7371C42.529 31.719 42.4497 31.6973 42.3703 31.6738C40.391 31.0822 38.5772 29.0254 37.8496 24.0923C37.8462 24.0706 37.8444 24.0507 37.8427 24.029C37.8427 24.029 37.4737 19.3673 38.1737 14.6729C38.6617 11.4041 39.691 8.14071 41.6134 6.27203C41.9617 5.93375 42.5083 5.95546 42.8307 6.32087C43.1548 6.68809 43.1341 7.25973 42.7841 7.59982C41.11 9.2261 40.3014 12.106 39.8772 14.9533C39.241 19.2207 39.5289 23.4574 39.5582 23.8499C40.1324 27.7012 41.2927 29.4704 42.8428 29.9335C44.2824 30.3641 45.9169 29.6694 47.3807 28.7613C49.7859 27.2689 51.7273 25.0836 51.7273 25.0836C51.8205 24.9787 51.9342 24.8991 52.0636 24.8503C57.3981 22.817 63.5206 15.0926 63.5206 15.0926C63.5827 15.0148 63.6568 14.9479 63.7396 14.8973C63.8137 14.8502 63.8137 14.7598 63.812 14.6639C63.8102 14.5391 63.7878 14.4034 63.7533 14.2587C63.5895 13.5966 63.1758 12.8061 62.6637 11.9812C60.9895 9.29122 58.236 6.3462 58.236 6.3462L58.0567 6.06038C56.8498 3.02129 54.217 1.74414 51.5222 1.25753C47.3773 0.510415 43.0359 1.61932 42.76 1.69168C36.2892 3.77382 31.7082 2.07157 31.2581 1.89429C30.9581 1.79841 27.496 0.765482 24.215 2.41889C21.8994 3.5875 19.7184 6.11464 18.7287 11.1798C18.6925 11.3661 18.6011 11.5362 18.4683 11.6646C18.4683 11.6646 17.5339 12.5709 16.839 13.9873C16.1752 15.3459 15.7218 17.1929 16.658 19.1538C16.7407 19.3275 16.7683 19.5228 16.7373 19.711L14.57 32.9925C14.5614 33.045 14.5476 33.0974 14.5304 33.1481C14.5304 33.1481 11.9734 40.5758 14.7097 49.6912C14.7131 49.7039 14.7166 49.7166 14.72 49.7274C14.72 49.7274 17.4614 60.3697 12.0217 69.894C11.9648 70.1364 11.8493 70.8129 12.1666 71.3846C12.4476 71.8893 13.0735 72.2239 14.2614 72.2474C15.1287 72.2655 16.2425 72.11 17.6735 71.7156C17.7045 71.5257 17.7045 71.2923 17.5959 71.0825C17.4114 70.7297 16.939 70.5687 16.02 70.5687C15.72 70.5687 15.4407 70.4059 15.2856 70.1364C15.1287 69.8686 15.1149 69.534 15.2528 69.2536C19.7322 60.0495 20.2511 49.9228 20.5029 38.9585C19.0063 39.4723 17.289 39.7292 15.3287 39.5175C15.2235 39.5211 15.1356 39.4343 15.1321 39.324C15.1287 39.2136 15.2114 39.1214 15.3166 39.1177C17.7718 38.6926 19.5735 37.5638 21.0149 36.3265C22.4477 35.0982 23.396 33.7089 23.9529 32.7248C23.2443 32.5964 22.7753 32.4317 22.7753 32.4317C22.3236 32.2725 22.0787 31.7606 22.2305 31.2866C22.3805 30.8127 22.8684 30.5576 23.3201 30.715C23.3201 30.715 23.9684 30.9411 24.8512 31.0334C25.3615 30.4491 26.1995 30.2664 26.9046 30.6427C26.9978 30.6933 27.084 30.7512 27.165 30.8145C27.9736 30.5106 28.6995 29.8883 29.0512 28.6871C29.1719 28.2801 29.5443 28.016 29.9478 28.0522C29.9478 28.0522 30.8047 28.1245 31.6978 27.8803C32.4288 27.6813 33.2323 27.2671 33.3495 26.2251C33.4047 25.7295 33.8323 25.3749 34.3047 25.4328C34.7789 25.4907 35.1168 25.9411 35.0616 26.4368C34.9858 27.1079 34.772 27.6542 34.4685 28.0974C35.8582 29.5808 39.5945 34.2118 41.5893 42.9275C42.3997 37.5059 42.5738 33.016 42.6083 31.7371Z" fill="white" stroke="#FF6600"/>
</svg>
