<svg width="80" height="80" viewBox="0 0 80 80" fill="none" xmlns="http://www.w3.org/2000/svg">
<mask id="path-1-outside-1_195_2363" maskUnits="userSpaceOnUse" x="-0.137207" y="8.56104" width="80" height="72" fill="black">
<rect fill="white" x="-0.137207" y="8.56104" width="80" height="72"/>
<path d="M74.0576 58.2163H73.5187C73.5581 57.8206 73.5653 57.4209 73.54 57.0215C73.3058 53.3259 70.2236 50.322 66.5231 50.1826C65.7865 50.1559 65.065 50.2434 64.3758 50.4259V24.1229C64.3758 23.4756 63.8512 22.951 63.2039 22.951C62.5565 22.951 62.032 23.4756 62.032 24.1229V28.5421H59.61V27.1298C59.61 17.4423 51.7287 9.56104 42.0412 9.56104C32.3537 9.56104 24.4725 17.4423 24.4725 27.1298V28.5421H22.0504V24.1229C22.0504 23.4756 21.5258 22.951 20.8786 22.951C20.2314 22.951 19.7067 23.4756 19.7067 24.1229V54.9565V58.8684C17.1536 59.3568 14.8942 60.9276 13.5565 63.1838C13.385 63.1715 13.2134 63.1653 13.0422 63.1653C9.09232 63.1653 5.87873 66.3785 5.87873 70.3285C5.87873 70.5426 5.88826 70.7559 5.90717 70.9681H5.37873C2.88857 70.9681 0.862793 72.994 0.862793 75.484C0.862793 77.974 2.88826 79.9999 5.37842 79.9999H67.7133C68.7903 79.9999 69.6664 79.1238 69.6664 78.0468V73.5228C69.6664 72.5098 68.8912 71.6749 67.903 71.5793V68.3757H74.0578C76.8589 68.3757 79.1376 66.097 79.1376 63.296C79.1376 60.4951 76.8587 58.2163 74.0576 58.2163ZM59.61 30.8859H62.032V43.5684H59.61V30.8859ZM59.61 45.9121H62.032V51.5153C61.2365 52.0749 60.5494 52.7931 60.0234 53.6418C59.8881 53.5668 59.7498 53.4987 59.61 53.4342V45.9121ZM53.9903 17.7054C56.0408 20.2995 57.2662 23.5742 57.2662 27.1298V32.2218H53.9903V17.7054ZM48.6017 13.3923C49.695 13.9165 50.7161 14.5678 51.6465 15.3265V32.2218H48.6017V13.3923ZM48.6017 42.0851V34.5656H51.6465V39.5312C51.6465 40.1785 52.1711 40.7031 52.8184 40.7031C53.4658 40.7031 53.9903 40.1785 53.9903 39.5312V34.5656H57.2662V52.8662C57.1694 52.8618 57.0726 52.8571 56.9751 52.8571C55.8961 52.8571 54.8795 53.1298 53.9903 53.6095V45.1562C53.9903 44.5088 53.4658 43.9843 52.8184 43.9843C52.1711 43.9843 51.6465 44.5088 51.6465 45.1562V54.9565H48.6017V42.0851ZM43.2129 11.9493C44.2609 12.0295 45.2794 12.2167 46.2578 12.4992V32.2218H43.2129V11.9493ZM43.2129 34.5656H46.2578V40.9132H43.2129V34.5656ZM43.2129 43.257H46.2578V54.9565H43.2129V43.257ZM37.8244 12.4992C38.8028 12.2167 39.8212 12.0295 40.8692 11.9493V32.2218H37.8244V12.4992ZM37.8244 34.5656H40.8692V40.9132H37.8244V34.5656ZM37.8244 43.257H40.8692V54.9565H37.8244V43.257ZM32.4356 15.3265C33.3661 14.5679 34.3872 13.9167 35.4806 13.3923V32.2218H32.4356V15.3265ZM32.4356 34.5656H35.4806V42.0851V54.9565H32.4356V34.5656ZM26.8161 27.1298C26.8161 23.5742 28.0415 20.2996 30.0919 17.7054V32.2218H26.8161V27.1298ZM26.8161 34.5656H30.0919V54.9565H26.8161V34.5656ZM22.0501 30.8859H24.4722V43.5684H22.0501V30.8859ZM22.0501 45.9121H24.4722V54.9565H22.0501V45.9121ZM22.0501 57.3003H50.9503C50.8581 57.5974 50.7861 57.9032 50.7384 58.2173C49.0117 58.2493 47.4931 59.1473 46.599 60.4942H40.4687C39.8215 60.4942 39.2969 61.0187 39.2969 61.666C39.2969 62.3134 39.8215 62.8379 40.4687 62.8379H45.7761C45.7625 62.9888 45.7545 63.1415 45.7545 63.296C45.7545 64.3029 46.0503 65.2417 46.5576 66.032H34.4703C33.3664 65.2784 32.0329 64.8373 30.5984 64.8373C30.4064 64.8373 30.2144 64.8453 30.0234 64.861C29.7751 64.1392 29.4376 63.4617 29.0275 62.8381H34.8437C35.4909 62.8381 36.0156 62.3135 36.0156 61.6662C36.0156 61.0188 35.4909 60.4943 34.8437 60.4943H26.8054C25.4442 59.4898 23.804 58.857 22.0503 58.731L22.0501 57.3003ZM45.2287 77.6562H5.37842C4.18061 77.6562 3.20623 76.6818 3.20623 75.484C3.20623 74.2862 4.18061 73.3118 5.37842 73.3118H7.32982C7.70342 73.3118 8.05467 73.1335 8.27545 72.8323C8.49623 72.5307 8.55982 72.1421 8.44701 71.786C8.29795 71.3156 8.22232 70.8253 8.22232 70.3287C8.22232 67.6712 10.3844 65.5092 13.042 65.5092C13.3556 65.5092 13.6722 65.5403 13.9828 65.6015C14.5106 65.706 15.0417 65.4368 15.2703 64.9495C16.3817 62.5809 18.7886 61.0504 21.4022 61.0504C24.5906 61.0504 27.3773 63.312 28.0286 66.4278C28.094 66.7409 28.2847 67.0137 28.5562 67.1828C28.8278 67.352 29.1565 67.4026 29.4665 67.3232C29.8345 67.2288 30.2153 67.181 30.5984 67.181C33.1023 67.181 35.1394 69.2181 35.1394 71.7221C35.1394 71.8195 35.135 71.9254 35.1256 72.0556C35.1022 72.3801 35.2147 72.6999 35.4364 72.9382C35.6581 73.1765 35.9689 73.312 36.2944 73.312H45.2287C46.4265 73.312 47.4009 74.2863 47.4009 75.4842C47.4009 76.682 46.4265 77.6562 45.2287 77.6562ZM67.3226 77.6562H49.1864C49.5419 77.0112 49.7447 76.2709 49.7447 75.484C49.7447 74.932 49.6447 74.4029 49.4625 73.9134H55.7812C56.4286 73.9134 56.9531 73.3888 56.9531 72.7415C56.9531 72.0942 56.4286 71.5696 55.7812 71.5696H47.4764C46.8139 71.1878 46.0467 70.9679 45.2287 70.9679H37.4422C37.3401 70.0353 37.0498 69.159 36.6122 68.3756H50.8342H65.5592V71.5695H61.4062C60.7589 71.5695 60.2344 72.094 60.2344 72.7413C60.2344 73.3887 60.7589 73.9132 61.4062 73.9132H67.3226V77.6562ZM74.0576 66.0318H66.7309H50.834C49.3255 66.0318 48.0981 64.8046 48.0981 63.2959C48.0981 61.7871 49.3253 60.5599 50.834 60.5599H51.6211C52.3873 60.5599 53.0109 59.9351 53.0109 59.1646C53.0109 56.9788 54.7892 55.2006 56.975 55.2006C57.8064 55.2006 58.6022 55.4554 59.2761 55.9373C59.682 56.2279 60.192 56.3243 60.6758 56.2021C61.157 56.0806 61.5579 55.7556 61.7758 55.3101C62.6395 53.5442 64.4684 52.4451 66.4348 52.5246C68.9484 52.619 71.0417 54.6593 71.2008 57.1696C71.2297 57.6245 71.197 58.0787 71.1034 58.5198C70.9972 59.0206 71.1211 59.536 71.4434 59.9337C71.7659 60.3318 72.2448 60.5601 72.7572 60.5601H74.0576C75.5662 60.5601 76.7937 61.7873 76.7937 63.296C76.7937 64.8048 75.5664 66.0318 74.0576 66.0318Z"/>
</mask>
<path d="M74.0576 58.2163H73.5187C73.5581 57.8206 73.5653 57.4209 73.54 57.0215C73.3058 53.3259 70.2236 50.322 66.5231 50.1826C65.7865 50.1559 65.065 50.2434 64.3758 50.4259V24.1229C64.3758 23.4756 63.8512 22.951 63.2039 22.951C62.5565 22.951 62.032 23.4756 62.032 24.1229V28.5421H59.61V27.1298C59.61 17.4423 51.7287 9.56104 42.0412 9.56104C32.3537 9.56104 24.4725 17.4423 24.4725 27.1298V28.5421H22.0504V24.1229C22.0504 23.4756 21.5258 22.951 20.8786 22.951C20.2314 22.951 19.7067 23.4756 19.7067 24.1229V54.9565V58.8684C17.1536 59.3568 14.8942 60.9276 13.5565 63.1838C13.385 63.1715 13.2134 63.1653 13.0422 63.1653C9.09232 63.1653 5.87873 66.3785 5.87873 70.3285C5.87873 70.5426 5.88826 70.7559 5.90717 70.9681H5.37873C2.88857 70.9681 0.862793 72.994 0.862793 75.484C0.862793 77.974 2.88826 79.9999 5.37842 79.9999H67.7133C68.7903 79.9999 69.6664 79.1238 69.6664 78.0468V73.5228C69.6664 72.5098 68.8912 71.6749 67.903 71.5793V68.3757H74.0578C76.8589 68.3757 79.1376 66.097 79.1376 63.296C79.1376 60.4951 76.8587 58.2163 74.0576 58.2163ZM59.61 30.8859H62.032V43.5684H59.61V30.8859ZM59.61 45.9121H62.032V51.5153C61.2365 52.0749 60.5494 52.7931 60.0234 53.6418C59.8881 53.5668 59.7498 53.4987 59.61 53.4342V45.9121ZM53.9903 17.7054C56.0408 20.2995 57.2662 23.5742 57.2662 27.1298V32.2218H53.9903V17.7054ZM48.6017 13.3923C49.695 13.9165 50.7161 14.5678 51.6465 15.3265V32.2218H48.6017V13.3923ZM48.6017 42.0851V34.5656H51.6465V39.5312C51.6465 40.1785 52.1711 40.7031 52.8184 40.7031C53.4658 40.7031 53.9903 40.1785 53.9903 39.5312V34.5656H57.2662V52.8662C57.1694 52.8618 57.0726 52.8571 56.9751 52.8571C55.8961 52.8571 54.8795 53.1298 53.9903 53.6095V45.1562C53.9903 44.5088 53.4658 43.9843 52.8184 43.9843C52.1711 43.9843 51.6465 44.5088 51.6465 45.1562V54.9565H48.6017V42.0851ZM43.2129 11.9493C44.2609 12.0295 45.2794 12.2167 46.2578 12.4992V32.2218H43.2129V11.9493ZM43.2129 34.5656H46.2578V40.9132H43.2129V34.5656ZM43.2129 43.257H46.2578V54.9565H43.2129V43.257ZM37.8244 12.4992C38.8028 12.2167 39.8212 12.0295 40.8692 11.9493V32.2218H37.8244V12.4992ZM37.8244 34.5656H40.8692V40.9132H37.8244V34.5656ZM37.8244 43.257H40.8692V54.9565H37.8244V43.257ZM32.4356 15.3265C33.3661 14.5679 34.3872 13.9167 35.4806 13.3923V32.2218H32.4356V15.3265ZM32.4356 34.5656H35.4806V42.0851V54.9565H32.4356V34.5656ZM26.8161 27.1298C26.8161 23.5742 28.0415 20.2996 30.0919 17.7054V32.2218H26.8161V27.1298ZM26.8161 34.5656H30.0919V54.9565H26.8161V34.5656ZM22.0501 30.8859H24.4722V43.5684H22.0501V30.8859ZM22.0501 45.9121H24.4722V54.9565H22.0501V45.9121ZM22.0501 57.3003H50.9503C50.8581 57.5974 50.7861 57.9032 50.7384 58.2173C49.0117 58.2493 47.4931 59.1473 46.599 60.4942H40.4687C39.8215 60.4942 39.2969 61.0187 39.2969 61.666C39.2969 62.3134 39.8215 62.8379 40.4687 62.8379H45.7761C45.7625 62.9888 45.7545 63.1415 45.7545 63.296C45.7545 64.3029 46.0503 65.2417 46.5576 66.032H34.4703C33.3664 65.2784 32.0329 64.8373 30.5984 64.8373C30.4064 64.8373 30.2144 64.8453 30.0234 64.861C29.7751 64.1392 29.4376 63.4617 29.0275 62.8381H34.8437C35.4909 62.8381 36.0156 62.3135 36.0156 61.6662C36.0156 61.0188 35.4909 60.4943 34.8437 60.4943H26.8054C25.4442 59.4898 23.804 58.857 22.0503 58.731L22.0501 57.3003ZM45.2287 77.6562H5.37842C4.18061 77.6562 3.20623 76.6818 3.20623 75.484C3.20623 74.2862 4.18061 73.3118 5.37842 73.3118H7.32982C7.70342 73.3118 8.05467 73.1335 8.27545 72.8323C8.49623 72.5307 8.55982 72.1421 8.44701 71.786C8.29795 71.3156 8.22232 70.8253 8.22232 70.3287C8.22232 67.6712 10.3844 65.5092 13.042 65.5092C13.3556 65.5092 13.6722 65.5403 13.9828 65.6015C14.5106 65.706 15.0417 65.4368 15.2703 64.9495C16.3817 62.5809 18.7886 61.0504 21.4022 61.0504C24.5906 61.0504 27.3773 63.312 28.0286 66.4278C28.094 66.7409 28.2847 67.0137 28.5562 67.1828C28.8278 67.352 29.1565 67.4026 29.4665 67.3232C29.8345 67.2288 30.2153 67.181 30.5984 67.181C33.1023 67.181 35.1394 69.2181 35.1394 71.7221C35.1394 71.8195 35.135 71.9254 35.1256 72.0556C35.1022 72.3801 35.2147 72.6999 35.4364 72.9382C35.6581 73.1765 35.9689 73.312 36.2944 73.312H45.2287C46.4265 73.312 47.4009 74.2863 47.4009 75.4842C47.4009 76.682 46.4265 77.6562 45.2287 77.6562ZM67.3226 77.6562H49.1864C49.5419 77.0112 49.7447 76.2709 49.7447 75.484C49.7447 74.932 49.6447 74.4029 49.4625 73.9134H55.7812C56.4286 73.9134 56.9531 73.3888 56.9531 72.7415C56.9531 72.0942 56.4286 71.5696 55.7812 71.5696H47.4764C46.8139 71.1878 46.0467 70.9679 45.2287 70.9679H37.4422C37.3401 70.0353 37.0498 69.159 36.6122 68.3756H50.8342H65.5592V71.5695H61.4062C60.7589 71.5695 60.2344 72.094 60.2344 72.7413C60.2344 73.3887 60.7589 73.9132 61.4062 73.9132H67.3226V77.6562ZM74.0576 66.0318H66.7309H50.834C49.3255 66.0318 48.0981 64.8046 48.0981 63.2959C48.0981 61.7871 49.3253 60.5599 50.834 60.5599H51.6211C52.3873 60.5599 53.0109 59.9351 53.0109 59.1646C53.0109 56.9788 54.7892 55.2006 56.975 55.2006C57.8064 55.2006 58.6022 55.4554 59.2761 55.9373C59.682 56.2279 60.192 56.3243 60.6758 56.2021C61.157 56.0806 61.5579 55.7556 61.7758 55.3101C62.6395 53.5442 64.4684 52.4451 66.4348 52.5246C68.9484 52.619 71.0417 54.6593 71.2008 57.1696C71.2297 57.6245 71.197 58.0787 71.1034 58.5198C70.9972 59.0206 71.1211 59.536 71.4434 59.9337C71.7659 60.3318 72.2448 60.5601 72.7572 60.5601H74.0576C75.5662 60.5601 76.7937 61.7873 76.7937 63.296C76.7937 64.8048 75.5664 66.0318 74.0576 66.0318Z" fill="white"/>
<path d="M74.0576 58.2163H73.5187C73.5581 57.8206 73.5653 57.4209 73.54 57.0215C73.3058 53.3259 70.2236 50.322 66.5231 50.1826C65.7865 50.1559 65.065 50.2434 64.3758 50.4259V24.1229C64.3758 23.4756 63.8512 22.951 63.2039 22.951C62.5565 22.951 62.032 23.4756 62.032 24.1229V28.5421H59.61V27.1298C59.61 17.4423 51.7287 9.56104 42.0412 9.56104C32.3537 9.56104 24.4725 17.4423 24.4725 27.1298V28.5421H22.0504V24.1229C22.0504 23.4756 21.5258 22.951 20.8786 22.951C20.2314 22.951 19.7067 23.4756 19.7067 24.1229V54.9565V58.8684C17.1536 59.3568 14.8942 60.9276 13.5565 63.1838C13.385 63.1715 13.2134 63.1653 13.0422 63.1653C9.09232 63.1653 5.87873 66.3785 5.87873 70.3285C5.87873 70.5426 5.88826 70.7559 5.90717 70.9681H5.37873C2.88857 70.9681 0.862793 72.994 0.862793 75.484C0.862793 77.974 2.88826 79.9999 5.37842 79.9999H67.7133C68.7903 79.9999 69.6664 79.1238 69.6664 78.0468V73.5228C69.6664 72.5098 68.8912 71.6749 67.903 71.5793V68.3757H74.0578C76.8589 68.3757 79.1376 66.097 79.1376 63.296C79.1376 60.4951 76.8587 58.2163 74.0576 58.2163ZM59.61 30.8859H62.032V43.5684H59.61V30.8859ZM59.61 45.9121H62.032V51.5153C61.2365 52.0749 60.5494 52.7931 60.0234 53.6418C59.8881 53.5668 59.7498 53.4987 59.61 53.4342V45.9121ZM53.9903 17.7054C56.0408 20.2995 57.2662 23.5742 57.2662 27.1298V32.2218H53.9903V17.7054ZM48.6017 13.3923C49.695 13.9165 50.7161 14.5678 51.6465 15.3265V32.2218H48.6017V13.3923ZM48.6017 42.0851V34.5656H51.6465V39.5312C51.6465 40.1785 52.1711 40.7031 52.8184 40.7031C53.4658 40.7031 53.9903 40.1785 53.9903 39.5312V34.5656H57.2662V52.8662C57.1694 52.8618 57.0726 52.8571 56.9751 52.8571C55.8961 52.8571 54.8795 53.1298 53.9903 53.6095V45.1562C53.9903 44.5088 53.4658 43.9843 52.8184 43.9843C52.1711 43.9843 51.6465 44.5088 51.6465 45.1562V54.9565H48.6017V42.0851ZM43.2129 11.9493C44.2609 12.0295 45.2794 12.2167 46.2578 12.4992V32.2218H43.2129V11.9493ZM43.2129 34.5656H46.2578V40.9132H43.2129V34.5656ZM43.2129 43.257H46.2578V54.9565H43.2129V43.257ZM37.8244 12.4992C38.8028 12.2167 39.8212 12.0295 40.8692 11.9493V32.2218H37.8244V12.4992ZM37.8244 34.5656H40.8692V40.9132H37.8244V34.5656ZM37.8244 43.257H40.8692V54.9565H37.8244V43.257ZM32.4356 15.3265C33.3661 14.5679 34.3872 13.9167 35.4806 13.3923V32.2218H32.4356V15.3265ZM32.4356 34.5656H35.4806V42.0851V54.9565H32.4356V34.5656ZM26.8161 27.1298C26.8161 23.5742 28.0415 20.2996 30.0919 17.7054V32.2218H26.8161V27.1298ZM26.8161 34.5656H30.0919V54.9565H26.8161V34.5656ZM22.0501 30.8859H24.4722V43.5684H22.0501V30.8859ZM22.0501 45.9121H24.4722V54.9565H22.0501V45.9121ZM22.0501 57.3003H50.9503C50.8581 57.5974 50.7861 57.9032 50.7384 58.2173C49.0117 58.2493 47.4931 59.1473 46.599 60.4942H40.4687C39.8215 60.4942 39.2969 61.0187 39.2969 61.666C39.2969 62.3134 39.8215 62.8379 40.4687 62.8379H45.7761C45.7625 62.9888 45.7545 63.1415 45.7545 63.296C45.7545 64.3029 46.0503 65.2417 46.5576 66.032H34.4703C33.3664 65.2784 32.0329 64.8373 30.5984 64.8373C30.4064 64.8373 30.2144 64.8453 30.0234 64.861C29.7751 64.1392 29.4376 63.4617 29.0275 62.8381H34.8437C35.4909 62.8381 36.0156 62.3135 36.0156 61.6662C36.0156 61.0188 35.4909 60.4943 34.8437 60.4943H26.8054C25.4442 59.4898 23.804 58.857 22.0503 58.731L22.0501 57.3003ZM45.2287 77.6562H5.37842C4.18061 77.6562 3.20623 76.6818 3.20623 75.484C3.20623 74.2862 4.18061 73.3118 5.37842 73.3118H7.32982C7.70342 73.3118 8.05467 73.1335 8.27545 72.8323C8.49623 72.5307 8.55982 72.1421 8.44701 71.786C8.29795 71.3156 8.22232 70.8253 8.22232 70.3287C8.22232 67.6712 10.3844 65.5092 13.042 65.5092C13.3556 65.5092 13.6722 65.5403 13.9828 65.6015C14.5106 65.706 15.0417 65.4368 15.2703 64.9495C16.3817 62.5809 18.7886 61.0504 21.4022 61.0504C24.5906 61.0504 27.3773 63.312 28.0286 66.4278C28.094 66.7409 28.2847 67.0137 28.5562 67.1828C28.8278 67.352 29.1565 67.4026 29.4665 67.3232C29.8345 67.2288 30.2153 67.181 30.5984 67.181C33.1023 67.181 35.1394 69.2181 35.1394 71.7221C35.1394 71.8195 35.135 71.9254 35.1256 72.0556C35.1022 72.3801 35.2147 72.6999 35.4364 72.9382C35.6581 73.1765 35.9689 73.312 36.2944 73.312H45.2287C46.4265 73.312 47.4009 74.2863 47.4009 75.4842C47.4009 76.682 46.4265 77.6562 45.2287 77.6562ZM67.3226 77.6562H49.1864C49.5419 77.0112 49.7447 76.2709 49.7447 75.484C49.7447 74.932 49.6447 74.4029 49.4625 73.9134H55.7812C56.4286 73.9134 56.9531 73.3888 56.9531 72.7415C56.9531 72.0942 56.4286 71.5696 55.7812 71.5696H47.4764C46.8139 71.1878 46.0467 70.9679 45.2287 70.9679H37.4422C37.3401 70.0353 37.0498 69.159 36.6122 68.3756H50.8342H65.5592V71.5695H61.4062C60.7589 71.5695 60.2344 72.094 60.2344 72.7413C60.2344 73.3887 60.7589 73.9132 61.4062 73.9132H67.3226V77.6562ZM74.0576 66.0318H66.7309H50.834C49.3255 66.0318 48.0981 64.8046 48.0981 63.2959C48.0981 61.7871 49.3253 60.5599 50.834 60.5599H51.6211C52.3873 60.5599 53.0109 59.9351 53.0109 59.1646C53.0109 56.9788 54.7892 55.2006 56.975 55.2006C57.8064 55.2006 58.6022 55.4554 59.2761 55.9373C59.682 56.2279 60.192 56.3243 60.6758 56.2021C61.157 56.0806 61.5579 55.7556 61.7758 55.3101C62.6395 53.5442 64.4684 52.4451 66.4348 52.5246C68.9484 52.619 71.0417 54.6593 71.2008 57.1696C71.2297 57.6245 71.197 58.0787 71.1034 58.5198C70.9972 59.0206 71.1211 59.536 71.4434 59.9337C71.7659 60.3318 72.2448 60.5601 72.7572 60.5601H74.0576C75.5662 60.5601 76.7937 61.7873 76.7937 63.296C76.7937 64.8048 75.5664 66.0318 74.0576 66.0318Z" stroke="#FF6600" mask="url(#path-1-outside-1_195_2363)"/>
<path d="M42.7046 6.24344C43.49 6.24344 44.1265 5.60698 44.1265 4.82156V1.17188C44.1265 0.38646 43.49 -0.25 42.7046 -0.25C41.9192 -0.25 41.2827 0.38646 41.2827 1.17188V4.82156C41.2827 5.607 41.9194 6.24344 42.7046 6.24344Z" fill="white" stroke="#FF6600" stroke-width="0.5"/>
<path d="M65.5696 11.7817L65.5696 11.7817C66.1251 11.2264 66.1251 10.3261 65.5698 9.77095C65.0146 9.21597 64.1143 9.21543 63.5591 9.77082C63.5591 9.77083 63.559 9.77084 63.559 9.77085L60.9782 12.3516L65.3929 11.6049L65.5696 11.7817ZM65.5696 11.7817L62.9887 14.3625L65.5696 11.7817ZM61.9833 14.7788C62.3467 14.7788 62.7112 14.64 62.9887 14.3625L61.1549 12.5284C60.6971 12.986 60.6971 13.7281 61.1547 14.1856L60.9779 14.3623C60.9779 14.3623 60.978 14.3623 60.978 14.3624C61.2555 14.6401 61.6198 14.7788 61.9833 14.7788Z" fill="white" stroke="#FF6600" stroke-width="0.5"/>
<path d="M68.1584 33.0244C68.1584 33.8098 68.7949 34.4463 69.5803 34.4463H73.23C74.0154 34.4463 74.6519 33.8098 74.6519 33.0244C74.6519 32.239 74.0154 31.6025 73.23 31.6025H69.5803C68.7951 31.6025 68.1584 32.2392 68.1584 33.0244Z" fill="white" stroke="#FF6600" stroke-width="0.5"/>
<path d="M10.8521 33.1191H14.5017C15.287 33.1191 15.9236 32.4827 15.9236 31.6973C15.9236 30.9118 15.287 30.2754 14.5017 30.2754H10.8521C10.0668 30.2754 9.43018 30.9118 9.43018 31.6973C9.43018 32.4827 10.0668 33.1191 10.8521 33.1191Z" fill="white" stroke="#FF6600" stroke-width="0.5"/>
<path d="M22.0319 13.4242L22.0319 13.4242C22.3095 13.7017 22.6739 13.8405 23.0373 13.8405C23.4007 13.8405 23.7651 13.7017 24.0427 13.4242L24.0427 13.4242C24.5979 12.8687 24.598 11.9686 24.0427 11.4133L21.4619 8.83237L21.4618 8.83233C20.9068 8.27746 20.0065 8.27702 19.4511 8.83236L19.4511 8.83239C18.8959 9.38781 18.8958 10.288 19.4511 10.8433C19.4511 10.8433 19.4511 10.8433 19.4511 10.8433L22.0319 13.4242Z" fill="white" stroke="#FF6600" stroke-width="0.5"/>
<path d="M30.8019 7.20828L30.8019 7.20826L29.4052 3.83639L29.4052 3.83638C29.1047 3.11087 29.4491 2.27916 30.1747 1.97866L30.8019 7.20828ZM30.8019 7.20828C31.029 7.7563 31.5585 8.08634 32.116 8.08634C32.2979 8.08634 32.4823 8.05114 32.6595 7.97783L32.6596 7.97778M30.8019 7.20828L32.6596 7.97778M32.6596 7.97778C33.3852 7.67729 33.7296 6.84557 33.4291 6.12005L33.4291 6.12004M32.6596 7.97778L33.4291 6.12004M33.4291 6.12004L32.0324 2.74818M33.4291 6.12004L32.0324 2.74818M32.0324 2.74818C32.0324 2.74818 32.0324 2.74817 32.0324 2.74817M32.0324 2.74818L32.0324 2.74817M32.0324 2.74817C31.7319 2.02263 30.9001 1.67817 30.1747 1.97865L32.0324 2.74817Z" fill="white" stroke="#FF6600" stroke-width="0.5"/>
<path d="M54.5065 7.71601L54.5065 7.71605C54.2795 8.26406 53.7499 8.5941 53.1924 8.5941C53.0111 8.5941 52.8264 8.55936 52.6487 8.48548C51.9232 8.18493 51.5788 7.35328 51.8793 6.62782L53.2758 3.25581C53.2758 3.2558 53.2758 3.2558 53.2758 3.25579C53.5763 2.53027 54.4079 2.185 55.1337 2.48632L54.5065 7.71601ZM54.5065 7.71601L55.9031 4.34404M54.5065 7.71601L55.9031 4.34404M55.9031 4.34404C55.9031 4.34402 55.9031 4.344 55.9031 4.34398M55.9031 4.34404L55.9031 4.34398M55.9031 4.34398C56.2037 3.61851 55.8593 2.7869 55.1338 2.48634L55.9031 4.34398Z" fill="white" stroke="#FF6600" stroke-width="0.5"/>
<path d="M68.282 23.7488L68.2819 23.7489C68.1047 23.8222 67.9201 23.8574 67.7384 23.8574C67.1809 23.8574 66.6514 23.5274 66.4243 22.9794L68.282 23.7488ZM68.282 23.7488L71.6539 22.3521M68.282 23.7488L71.6539 22.3521M71.6539 22.3521C71.6539 22.3521 71.6539 22.3521 71.6539 22.3521M71.6539 22.3521L71.6539 22.3521M71.6539 22.3521C72.3794 22.0516 72.7241 21.2198 72.4234 20.4943M71.6539 22.3521L72.4234 20.4943M72.4234 20.4943C72.1229 19.769 71.2913 19.424 70.5657 19.7249M72.4234 20.4943L70.5657 19.7249M70.5657 19.7249C70.5656 19.7249 70.5656 19.7249 70.5656 19.7249M70.5657 19.7249L70.5656 19.7249M70.5656 19.7249L67.1938 21.1216L70.5656 19.7249ZM67.1938 21.1216C66.4683 21.4221 66.1236 22.2539 66.4243 22.9794L67.1938 21.1216Z" fill="white" stroke="#FF6600" stroke-width="0.5"/>
<path d="M12.9362 21.1262L16.3078 22.5227L18.1658 21.7532C18.4662 21.0277 18.1218 20.196 17.3962 19.8955C17.3962 19.8955 17.3962 19.8955 17.3962 19.8955L14.0245 18.499L13.9287 18.7299L14.0244 18.4989L14.0245 18.499C13.2985 18.1977 12.467 18.5432 12.1666 19.2685C11.8662 19.994 12.2106 20.8257 12.9362 21.1262C12.9362 21.1262 12.9362 21.1262 12.9362 21.1262Z" fill="white" stroke="#FF6600" stroke-width="0.5"/>
<path d="M7.03352 52.6375L7.03355 52.6375C7.93438 52.9514 8.49781 53.2454 8.91534 53.6629C9.33287 54.0805 9.62684 54.6439 9.94067 55.5446C10.2042 56.3014 10.9192 56.8097 11.72 56.8097C12.521 56.8097 13.2361 56.3014 13.4997 55.5447C13.8136 54.6439 14.1076 54.0805 14.5252 53.663C14.9427 53.2455 15.5062 52.9515 16.407 52.6375L16.3247 52.4014L16.407 52.6375C17.1636 52.3737 17.6717 51.6588 17.6717 50.858C17.6717 50.0572 17.1636 49.3422 16.4068 49.0785L16.4068 49.0785C15.5059 48.7645 14.9425 48.4705 14.525 48.053C14.1134 47.6414 13.8218 47.088 13.5129 46.2093L13.4995 46.171C13.2358 45.4144 12.5208 44.9062 11.7199 44.9062H11.7198C10.919 44.9064 10.2041 45.4147 9.94051 46.1712L9.94051 46.1712C9.62668 47.072 9.33271 47.6354 8.91517 48.0529C8.49762 48.4705 7.93415 48.7645 7.03322 49.0785L7.03321 49.0785C6.27664 49.3422 5.76831 50.0571 5.76831 50.858C5.76831 51.6589 6.27703 52.3738 7.03352 52.6375ZM9.92459 50.8581C10.6721 50.3851 11.2474 49.8098 11.7204 49.0625C12.1933 49.8098 12.7686 50.3852 13.516 50.8581C12.7687 51.3311 12.1933 51.9064 11.7203 52.6538C11.2473 51.9065 10.672 51.3311 9.92459 50.8581Z" fill="white" stroke="#FF6600" stroke-width="0.5"/>
<path d="M71.2538 47.4653L71.2538 47.4653C70.9938 46.7191 70.7522 46.2586 70.4123 45.9187C70.0725 45.5789 69.6119 45.3374 68.8659 45.0774L71.2538 47.4653ZM71.2538 47.4653C71.5086 48.1962 72.1994 48.6874 72.9732 48.6874C73.7471 48.6874 74.4379 48.1962 74.6927 47.4651L74.6927 47.4651M71.2538 47.4653L74.6927 47.4651M74.6927 47.4651C74.9526 46.7191 75.1941 46.2586 75.534 45.9188C75.8739 45.5789 76.3344 45.3374 77.0806 45.0774L77.0806 45.0774M74.6927 47.4651L77.0806 45.0774M77.0806 45.0774C77.8118 44.8225 78.3029 44.1314 78.3027 43.3575M77.0806 45.0774L78.3027 43.3575M74.6927 39.2504L74.7048 39.2851C74.9602 40.0109 75.1995 40.4625 75.5341 40.7971C75.8739 41.1369 76.3344 41.3785 77.0803 41.6385L74.6927 39.2504ZM74.6927 39.2504C74.4379 38.5195 73.7473 38.0283 72.9732 38.0283C72.1994 38.0283 71.5086 38.5195 71.2538 39.2506M74.6927 39.2504L71.2538 39.2506M71.2538 39.2506C70.9938 39.9966 70.7523 40.4571 70.4124 40.797M71.2538 39.2506L70.4124 40.797M70.4124 40.797C70.0726 41.1369 69.6121 41.3784 68.8661 41.6383M70.4124 40.797L68.8661 41.6383M68.8661 41.6383C68.1351 41.893 67.644 42.5837 67.6438 43.3575M68.8661 41.6383L67.6438 43.3575M67.6438 43.3575C67.6436 44.1314 68.1346 44.8225 68.8659 45.0774L67.6438 43.3575ZM78.3027 43.3575C78.3025 42.5836 77.8113 41.8929 77.0805 41.6385L78.3027 43.3575ZM72.9733 42.1637C73.3069 42.6348 73.6963 43.0243 74.1675 43.3579C73.6963 43.6915 73.3069 44.081 72.9732 44.5521C72.6397 44.081 72.2502 43.6915 71.7791 43.3579C72.2502 43.0244 72.6397 42.6349 72.9733 42.1637Z" fill="white" stroke="#FF6600" stroke-width="0.5"/>
</svg>
