<svg width="80" height="80" viewBox="0 0 80 80" fill="none" xmlns="http://www.w3.org/2000/svg">
<path d="M74.0576 58.2163H73.5187C73.5581 57.8206 73.5653 57.4209 73.54 57.0215C73.3058 53.3259 70.2236 50.322 66.5231 50.1826C65.7865 50.1559 65.065 50.2434 64.3758 50.4259V24.1229C64.3758 23.4756 63.8512 22.951 63.2039 22.951C62.5565 22.951 62.032 23.4756 62.032 24.1229V28.5421H59.61V27.1298C59.61 17.4423 51.7287 9.56104 42.0412 9.56104C32.3537 9.56104 24.4725 17.4423 24.4725 27.1298V28.5421H22.0504V24.1229C22.0504 23.4756 21.5258 22.951 20.8786 22.951C20.2314 22.951 19.7067 23.4756 19.7067 24.1229V54.9565V58.8684C17.1536 59.3568 14.8942 60.9276 13.5565 63.1838C13.385 63.1715 13.2134 63.1653 13.0422 63.1653C9.09232 63.1653 5.87873 66.3785 5.87873 70.3285C5.87873 70.5426 5.88826 70.7559 5.90717 70.9681H5.37873C2.88857 70.9681 0.862793 72.994 0.862793 75.484C0.862793 77.974 2.88826 79.9999 5.37842 79.9999H67.7133C68.7903 79.9999 69.6664 79.1238 69.6664 78.0468V73.5228C69.6664 72.5098 68.8912 71.6749 67.903 71.5793V68.3757H74.0578C76.8589 68.3757 79.1376 66.097 79.1376 63.296C79.1376 60.4951 76.8587 58.2163 74.0576 58.2163ZM59.61 30.8859H62.032V43.5684H59.61V30.8859ZM59.61 45.9121H62.032V51.5153C61.2365 52.0749 60.5494 52.7931 60.0234 53.6418C59.8881 53.5668 59.7498 53.4987 59.61 53.4342V45.9121ZM53.9903 17.7054C56.0408 20.2995 57.2662 23.5742 57.2662 27.1298V32.2218H53.9903V17.7054ZM48.6017 13.3923C49.695 13.9165 50.7161 14.5678 51.6465 15.3265V32.2218H48.6017V13.3923ZM48.6017 42.0851V34.5656H51.6465V39.5312C51.6465 40.1785 52.1711 40.7031 52.8184 40.7031C53.4658 40.7031 53.9903 40.1785 53.9903 39.5312V34.5656H57.2662V52.8662C57.1694 52.8618 57.0726 52.8571 56.9751 52.8571C55.8961 52.8571 54.8795 53.1298 53.9903 53.6095V45.1562C53.9903 44.5088 53.4658 43.9843 52.8184 43.9843C52.1711 43.9843 51.6465 44.5088 51.6465 45.1562V54.9565H48.6017V42.0851ZM43.2129 11.9493C44.2609 12.0295 45.2794 12.2167 46.2578 12.4992V32.2218H43.2129V11.9493ZM43.2129 34.5656H46.2578V40.9132H43.2129V34.5656ZM43.2129 43.257H46.2578V54.9565H43.2129V43.257ZM37.8244 12.4992C38.8028 12.2167 39.8212 12.0295 40.8692 11.9493V32.2218H37.8244V12.4992ZM37.8244 34.5656H40.8692V40.9132H37.8244V34.5656ZM37.8244 43.257H40.8692V54.9565H37.8244V43.257ZM32.4356 15.3265C33.3661 14.5679 34.3872 13.9167 35.4806 13.3923V32.2218H32.4356V15.3265ZM32.4356 34.5656H35.4806V42.0851V54.9565H32.4356V34.5656ZM26.8161 27.1298C26.8161 23.5742 28.0415 20.2996 30.0919 17.7054V32.2218H26.8161V27.1298ZM26.8161 34.5656H30.0919V54.9565H26.8161V34.5656ZM22.0501 30.8859H24.4722V43.5684H22.0501V30.8859ZM22.0501 45.9121H24.4722V54.9565H22.0501V45.9121ZM22.0501 57.3003H50.9503C50.8581 57.5974 50.7861 57.9032 50.7384 58.2173C49.0117 58.2493 47.4931 59.1473 46.599 60.4942H40.4687C39.8215 60.4942 39.2969 61.0187 39.2969 61.666C39.2969 62.3134 39.8215 62.8379 40.4687 62.8379H45.7761C45.7625 62.9888 45.7545 63.1415 45.7545 63.296C45.7545 64.3029 46.0503 65.2417 46.5576 66.032H34.4703C33.3664 65.2784 32.0329 64.8373 30.5984 64.8373C30.4064 64.8373 30.2144 64.8453 30.0234 64.861C29.7751 64.1392 29.4376 63.4617 29.0275 62.8381H34.8437C35.4909 62.8381 36.0156 62.3135 36.0156 61.6662C36.0156 61.0188 35.4909 60.4943 34.8437 60.4943H26.8054C25.4442 59.4898 23.804 58.857 22.0503 58.731L22.0501 57.3003ZM45.2287 77.6562H5.37842C4.18061 77.6562 3.20623 76.6818 3.20623 75.484C3.20623 74.2862 4.18061 73.3118 5.37842 73.3118H7.32982C7.70342 73.3118 8.05467 73.1335 8.27545 72.8323C8.49623 72.5307 8.55982 72.1421 8.44701 71.786C8.29795 71.3156 8.22232 70.8253 8.22232 70.3287C8.22232 67.6712 10.3844 65.5092 13.042 65.5092C13.3556 65.5092 13.6722 65.5403 13.9828 65.6015C14.5106 65.706 15.0417 65.4368 15.2703 64.9495C16.3817 62.5809 18.7886 61.0504 21.4022 61.0504C24.5906 61.0504 27.3773 63.312 28.0286 66.4278C28.094 66.7409 28.2847 67.0137 28.5562 67.1828C28.8278 67.352 29.1565 67.4026 29.4665 67.3232C29.8345 67.2288 30.2153 67.181 30.5984 67.181C33.1023 67.181 35.1394 69.2181 35.1394 71.7221C35.1394 71.8195 35.135 71.9254 35.1256 72.0556C35.1022 72.3801 35.2147 72.6999 35.4364 72.9382C35.6581 73.1765 35.9689 73.312 36.2944 73.312H45.2287C46.4265 73.312 47.4009 74.2863 47.4009 75.4842C47.4009 76.682 46.4265 77.6562 45.2287 77.6562ZM67.3226 77.6562H49.1864C49.5419 77.0112 49.7447 76.2709 49.7447 75.484C49.7447 74.932 49.6447 74.4029 49.4625 73.9134H55.7812C56.4286 73.9134 56.9531 73.3888 56.9531 72.7415C56.9531 72.0942 56.4286 71.5696 55.7812 71.5696H47.4764C46.8139 71.1878 46.0467 70.9679 45.2287 70.9679H37.4422C37.3401 70.0353 37.0498 69.159 36.6122 68.3756H50.8342H65.5592V71.5695H61.4062C60.7589 71.5695 60.2344 72.094 60.2344 72.7413C60.2344 73.3887 60.7589 73.9132 61.4062 73.9132H67.3226V77.6562ZM74.0576 66.0318H66.7309H50.834C49.3255 66.0318 48.0981 64.8046 48.0981 63.2959C48.0981 61.7871 49.3253 60.5599 50.834 60.5599H51.6211C52.3873 60.5599 53.0109 59.9351 53.0109 59.1646C53.0109 56.9788 54.7892 55.2006 56.975 55.2006C57.8064 55.2006 58.6022 55.4554 59.2761 55.9373C59.682 56.2279 60.192 56.3243 60.6758 56.2021C61.157 56.0806 61.5579 55.7556 61.7758 55.3101C62.6395 53.5442 64.4684 52.4451 66.4348 52.5246C68.9484 52.619 71.0417 54.6593 71.2008 57.1696C71.2297 57.6245 71.197 58.0787 71.1034 58.5198C70.9972 59.0206 71.1211 59.536 71.4434 59.9337C71.7659 60.3318 72.2448 60.5601 72.7572 60.5601H74.0576C75.5662 60.5601 76.7937 61.7873 76.7937 63.296C76.7937 64.8048 75.5664 66.0318 74.0576 66.0318Z" fill="white" stroke="#FF6600" stroke-width="0.5"/>
<path d="M42.7046 5.99344C43.3519 5.99344 43.8765 5.46891 43.8765 4.82156V1.17188C43.8765 0.524531 43.3519 0 42.7046 0C42.0572 0 41.5327 0.524531 41.5327 1.17188V4.82156C41.5327 5.46891 42.0574 5.99344 42.7046 5.99344Z" fill="white" stroke="#FF6600" stroke-width="0.5"/>
<path d="M61.9833 14.5288C62.2832 14.5288 62.5832 14.4145 62.8119 14.1857L65.3929 11.6049C65.8507 11.1473 65.8507 10.4053 65.393 9.94775C64.9354 9.49025 64.1933 9.48994 63.7358 9.9476L61.1549 12.5284C60.6971 12.986 60.6971 13.7281 61.1547 14.1856C61.3835 14.4145 61.6833 14.5288 61.9833 14.5288Z" fill="white" stroke="#FF6600" stroke-width="0.5"/>
<path d="M68.4084 33.0244C68.4084 33.6718 68.933 34.1963 69.5803 34.1963H73.23C73.8774 34.1963 74.4019 33.6718 74.4019 33.0244C74.4019 32.3771 73.8774 31.8525 73.23 31.8525H69.5803C68.9331 31.8525 68.4084 32.3772 68.4084 33.0244Z" fill="white" stroke="#FF6600" stroke-width="0.5"/>
<path d="M10.8521 32.8691H14.5017C15.1489 32.8691 15.6736 32.3446 15.6736 31.6973C15.6736 31.0499 15.1489 30.5254 14.5017 30.5254H10.8521C10.2049 30.5254 9.68018 31.0499 9.68018 31.6973C9.68018 32.3446 10.2049 32.8691 10.8521 32.8691Z" fill="white" stroke="#FF6600" stroke-width="0.5"/>
<path d="M22.2087 13.2474C22.4374 13.4762 22.7374 13.5905 23.0373 13.5905C23.3371 13.5905 23.6371 13.4762 23.8659 13.2474C24.3235 12.7896 24.3235 12.0477 23.8659 11.5901L21.2851 9.00914C20.8276 8.5518 20.0856 8.55148 19.6279 9.00914C19.1703 9.46695 19.1703 10.2088 19.6279 10.6665L22.2087 13.2474Z" fill="white" stroke="#FF6600" stroke-width="0.5"/>
<path d="M31.0329 7.11259C31.2199 7.564 31.6561 7.83634 32.116 7.83634C32.2655 7.83634 32.4174 7.80743 32.5639 7.74681C33.1619 7.49915 33.4458 6.81368 33.1982 6.21572L31.8014 2.84384C31.5538 2.24587 30.8682 1.96197 30.2704 2.20962C29.6724 2.45728 29.3885 3.14275 29.6361 3.74072L31.0329 7.11259Z" fill="white" stroke="#FF6600" stroke-width="0.5"/>
<path d="M52.7445 8.25457C52.891 8.31551 53.0431 8.34411 53.1924 8.34411C53.6523 8.34411 54.0885 8.07176 54.2756 7.62035L55.6721 4.24832C55.9199 3.65035 55.636 2.96489 55.0379 2.71723C54.4399 2.46895 53.7545 2.75332 53.5068 3.35145L52.1103 6.72348C51.8626 7.32145 52.1465 8.00692 52.7445 8.25457Z" fill="white" stroke="#FF6600" stroke-width="0.5"/>
<path d="M67.7384 23.6074C67.8877 23.6074 68.0398 23.5785 68.1863 23.5179L71.5582 22.1212C72.1562 21.8735 72.4402 21.1879 72.1924 20.5901C71.9448 19.9921 71.2593 19.7079 70.6613 19.9558L67.2895 21.3526C66.6915 21.6002 66.4074 22.2858 66.6552 22.8837C66.8423 23.3351 67.2785 23.6074 67.7384 23.6074Z" fill="white" stroke="#FF6600" stroke-width="0.5"/>
<path d="M13.0318 20.8952L16.4037 22.2918C16.5504 22.3527 16.7023 22.3813 16.8517 22.3813C17.3115 22.3813 17.7479 22.1088 17.9348 21.6576C18.1825 21.0596 17.8985 20.3741 17.3006 20.1265L13.9287 18.7299C13.3306 18.4816 12.6453 18.7662 12.3976 19.3641C12.15 19.9621 12.4339 20.6476 13.0318 20.8952Z" fill="white" stroke="#FF6600" stroke-width="0.5"/>
<path d="M7.11581 52.4014C8.94034 53.0372 9.54112 53.638 10.1767 55.4623C10.4053 56.1188 11.0257 56.5597 11.72 56.5597C12.4146 56.5597 13.035 56.1187 13.2636 55.4625C13.8994 53.638 14.5002 53.0373 16.3247 52.4014C16.981 52.1727 17.4217 51.5523 17.4217 50.858C17.4217 50.1636 16.981 49.5433 16.3246 49.3145C14.4999 48.6788 13.8992 48.078 13.2635 46.2534C13.2635 46.2534 13.2635 46.2534 13.2635 46.2533C13.0347 45.597 12.4144 45.1562 11.7199 45.1562C11.0255 45.1564 10.4052 45.5973 10.1766 46.2534C9.54097 48.078 8.94019 48.6786 7.1155 49.3145C6.45925 49.5433 6.01831 50.1636 6.01831 50.858C6.01831 51.5523 6.45956 52.1727 7.11581 52.4014ZM11.7203 48.5705C12.2808 49.5898 12.9886 50.2978 14.008 50.8581C12.9888 51.4184 12.2807 52.1264 11.7203 53.1458C11.1599 52.1266 10.4521 51.4184 9.43253 50.8581C10.4522 50.2977 11.16 49.5898 11.7203 48.5705Z" fill="white" stroke="#FF6600" stroke-width="0.5"/>
<path d="M72.9732 38.2783C72.3058 38.2783 71.7097 38.7021 71.4899 39.3329C70.9619 40.8477 70.4632 41.3466 68.9483 41.8744C68.3177 42.0941 67.894 42.6902 67.8938 43.3575C67.8936 44.025 68.3172 44.6214 68.9482 44.8413C70.463 45.3693 70.9619 45.8679 71.4899 47.383C71.7097 48.0136 72.3058 48.4374 72.9732 48.4374C73.6407 48.4374 74.2368 48.0136 74.4566 47.3829C74.9844 45.868 75.4832 45.3693 76.9983 44.8413C77.6291 44.6214 78.0529 44.025 78.0527 43.3575C78.0525 42.69 77.6286 42.0939 76.9982 41.8746C75.4833 41.3466 74.9846 40.8479 74.4566 39.3329C74.4566 39.3329 74.4566 39.3329 74.4566 39.3327C74.2368 38.7021 73.6408 38.2783 72.9732 38.2783ZM74.6226 43.3579C73.923 43.7844 73.3999 44.3077 72.9732 45.0072C72.5468 44.3077 72.0235 43.7846 71.324 43.3579C72.0235 42.9314 72.5466 42.4082 72.9733 41.7086C73.3999 42.4082 73.923 42.9313 74.6226 43.3579Z" fill="white" stroke="#FF6600" stroke-width="0.5"/>
</svg>
