<svg width="97" height="94" viewBox="0 0 97 94" fill="none" xmlns="http://www.w3.org/2000/svg">
<path d="M89.5454 39.182C92.1704 36.9851 94.7795 34.4851 95.7022 31.273C97.2454 25.8942 92.425 20.2881 86.6341 21.7123C78.3136 23.7578 70.9954 27.4548 62.325 28.3033C57.5681 28.773 55.6591 26.4548 53.2409 22.4699C49.4227 16.182 46.9886 7.65174 40.7681 3.03053C38.0318 1.00022 33.1 -0.12099 31.2386 3.59113C30.3636 5.3184 30.4909 7.34871 30.7295 9.2578C31.5886 16.1366 38.2704 29.8942 32.7818 36.1214C29.9022 39.379 22.8863 39.6214 18.8295 39.8336C15.1863 40.0154 2.28406 38.6972 1.12269 43.3336C0.772694 44.6972 1.40906 46.1517 2.41133 47.182C3.4136 48.2123 4.74997 48.8942 6.07042 49.5002C10.6363 51.6063 15.1545 53.076 20.1022 53.6366C26.2272 54.3336 31.9863 55.7427 33.625 62.0457C35.3113 68.5911 29.9977 76.3184 29.8863 83.3336C29.8545 85.1063 29.95 86.9245 30.6022 88.5911C33.2113 95.2427 39.4318 93.4396 42.025 88.1063C44.1568 83.6972 46.3045 79.2881 48.4363 74.879C50.1545 71.3336 52.2068 67.2427 56.2 65.6063C62.1659 63.1366 66.875 67.2427 70.9954 70.6517C75.9113 74.7275 81.3363 78.2427 87.1272 81.0911C88.8931 81.9548 91.025 82.773 92.7909 81.8942C95.1931 80.7123 95.1295 77.3942 94.2704 74.9396C91.1045 65.8184 76.9454 56.8033 82.5136 46.5305C84.1045 43.5305 86.9204 41.379 89.5454 39.182ZM83.6113 28.3336C83.9772 27.3487 85.1068 26.8487 86.1409 27.1972C87.175 27.5457 87.7 28.6214 87.3341 29.6063C86.9681 30.5911 85.8386 31.0911 84.8045 30.7426C83.7704 30.3942 83.2454 29.3184 83.6113 28.3336ZM17.175 47.2426C16.2522 47.8033 15.0272 47.5457 14.4545 46.6669C13.8659 45.7881 14.1363 44.6214 15.0591 44.076C15.9818 43.5154 17.2068 43.773 17.7795 44.6517C18.3681 45.5305 18.0977 46.682 17.175 47.2426ZM48.7068 31.9699C49.7886 32.6214 50.1068 33.9851 49.4227 35.0154C48.7386 36.0457 47.3068 36.3487 46.225 35.6972C45.1432 35.0457 44.825 33.682 45.5091 32.6517C46.1932 31.6214 47.625 31.3184 48.7068 31.9699ZM45.6681 24.9245C46.75 25.576 47.0682 26.9396 46.3841 27.9699C45.7 29.0002 44.2682 29.3033 43.1863 28.6517C42.1045 28.0002 41.7863 26.6366 42.4704 25.6063C43.1704 24.5911 44.5863 24.273 45.6681 24.9245ZM42.4227 50.9699C41.3409 51.6214 39.9091 51.3184 39.225 50.3033C38.5409 49.273 38.8591 47.9093 39.925 47.2578C41.0068 46.6063 42.4386 46.9093 43.1227 47.9245C43.8227 48.9548 43.5045 50.3184 42.4227 50.9699ZM43.9659 20.0154C43.2818 21.0457 41.85 21.3487 40.7681 20.6972C39.6863 20.0457 39.3682 18.682 40.0522 17.6517C40.7363 16.6214 42.1682 16.3184 43.25 16.9699C44.3318 17.6214 44.65 18.9851 43.9659 20.0154ZM38.3977 9.74265C38.9863 8.86386 40.1954 8.60628 41.1182 9.15174C42.0409 9.71234 42.3113 10.8639 41.7386 11.7426C41.15 12.6214 39.9409 12.879 39.0182 12.3336C38.0954 11.7881 37.825 10.6214 38.3977 9.74265ZM25.8613 49.2881C24.7795 49.9396 23.3477 49.6366 22.6636 48.6214C21.9795 47.5911 22.2977 46.2275 23.3636 45.576C24.4454 44.9245 25.8772 45.2275 26.5613 46.2426C27.2613 47.273 26.9431 48.6366 25.8613 49.2881ZM34.4522 50.5911C33.3704 51.2427 31.9386 50.9396 31.2545 49.9245C30.5704 48.8942 30.8886 47.5305 31.9545 46.879C33.0363 46.2275 34.4682 46.5305 35.1522 47.5457C35.8522 48.576 35.5341 49.9396 34.4522 50.5911ZM38.0954 82.6669C37.0772 83.0305 35.9318 82.5457 35.55 81.576C35.1682 80.6063 35.6772 79.5154 36.6954 79.1517C37.7136 78.7881 38.8591 79.273 39.2409 80.2427C39.6227 81.2123 39.1136 82.3033 38.0954 82.6669ZM41.7545 75.3942C40.5613 75.8336 39.225 75.2578 38.7636 74.1214C38.3022 72.9851 38.9068 71.7124 40.1 71.273C41.2931 70.8336 42.6295 71.4093 43.0909 72.5457C43.5522 73.682 42.9477 74.9548 41.7545 75.3942ZM44.825 67.6517C43.6318 68.0911 42.2954 67.5154 41.8341 66.379C41.3727 65.2427 41.9772 63.9699 43.1704 63.5305C44.3636 63.0911 45.7 63.6669 46.1613 64.8033C46.6227 65.9396 46.0182 67.2124 44.825 67.6517ZM46.8295 60.2881C45.6363 60.7275 44.3 60.1517 43.8386 59.0154C43.3772 57.879 43.9818 56.6063 45.175 56.1669C46.3682 55.7275 47.7045 56.3033 48.1659 57.4396C48.6272 58.576 48.0227 59.8487 46.8295 60.2881ZM51.8409 51.0154C49.3591 51.0154 47.3545 49.1063 47.3545 46.7427C47.3545 44.379 49.3591 42.4699 51.8409 42.4699C54.3227 42.4699 56.3272 44.379 56.3272 46.7427C56.3272 49.1063 54.3227 51.0154 51.8409 51.0154ZM83.3091 67.576C84.4068 67.576 85.2818 68.4245 85.2818 69.4548C85.2818 70.5002 84.3909 71.3336 83.3091 71.3336C82.2113 71.3336 81.3363 70.4851 81.3363 69.4548C81.3363 68.4245 82.2272 67.576 83.3091 67.576ZM61.2431 40.1214C61.6727 38.9699 62.9931 38.379 64.2022 38.7881C65.4113 39.1972 66.0318 40.4548 65.6022 41.6063C65.1727 42.7578 63.8522 43.3487 62.6431 42.9396C61.45 42.5305 60.8136 41.273 61.2431 40.1214ZM64.1227 55.9093C62.85 55.9093 61.8 54.9245 61.8 53.6972C61.8 52.4699 62.8341 51.4851 64.1227 51.4851C65.4113 51.4851 66.4454 52.4699 66.4454 53.6972C66.4454 54.9245 65.4113 55.9093 64.1227 55.9093ZM67.7977 35.773C68.2272 34.6214 69.5477 34.0305 70.7568 34.4396C71.9659 34.8487 72.5863 36.1063 72.1568 37.2578C71.7272 38.4093 70.4068 39.0002 69.1977 38.5911C67.9886 38.182 67.3682 36.9245 67.7977 35.773ZM70.6454 60.3184C69.3727 60.3184 68.3227 59.3336 68.3227 58.1063C68.3227 56.879 69.3568 55.8942 70.6454 55.8942C71.9181 55.8942 72.9682 56.879 72.9682 58.1063C72.9682 59.3336 71.9181 60.3184 70.6454 60.3184ZM74.9409 46.7881C75.3863 45.576 76.15 44.6366 76.8181 44.1214C77.4863 43.5911 78.0113 43.4245 78.0909 43.5305C78.2818 43.773 76.7227 45.0002 75.975 47.1214C75.1795 49.2427 75.5931 51.1214 75.2909 51.1972C75.1636 51.2427 74.8613 50.8033 74.6704 49.9851C74.4795 49.182 74.4954 48.0002 74.9409 46.7881ZM77.1522 65.8033C75.8795 65.8033 74.8295 64.8184 74.8295 63.5911C74.8295 62.3639 75.8636 61.379 77.1522 61.379C78.4409 61.379 79.475 62.3639 79.475 63.5911C79.475 64.8184 78.425 65.8033 77.1522 65.8033ZM79.7772 33.273C79.3477 34.4245 78.0272 35.0154 76.8181 34.6063C75.6091 34.1972 74.9886 32.9396 75.4181 31.7881C75.8477 30.6366 77.1681 30.0457 78.3772 30.4548C79.5863 30.8639 80.2068 32.1214 79.7772 33.273Z" fill="white" stroke="#FF6600"/>
</svg>
