<svg width="107" height="92" viewBox="0 0 107 92" fill="none" xmlns="http://www.w3.org/2000/svg">
<path d="M48.1938 85.6427L49.75 77.4105C49.8673 76.7726 49.6182 76.1235 49.0967 75.7078C48.5752 75.2921 47.8605 75.173 47.2217 75.3953C46.583 75.6176 46.1173 76.1476 46 76.7855L44.3875 85.4641C44.0429 85.5346 43.7044 85.6301 43.375 85.7498L39.625 87.1962C38.7756 87.5145 38.2903 88.3691 38.4755 89.2204C38.6608 90.0716 39.4628 90.6721 40.375 90.6427C40.6186 90.6429 40.8601 90.6006 41.0875 90.5177L44.8375 89.0712C45.9921 88.5895 47.3418 88.8872 48.1563 89.8034C48.5113 90.3457 49.1432 90.6664 49.8138 90.6447C50.4844 90.623 51.0919 90.2622 51.4075 89.6983C51.7231 89.1343 51.6988 88.4528 51.3438 87.9105C50.6074 86.8245 49.4917 86.0213 48.1938 85.6427Z" fill="white" stroke="#FF6600"/>
<path d="M67.3375 87.1962L63.5875 85.7498C63.2582 85.6301 62.9197 85.5346 62.575 85.4641L61 76.7855C60.8828 76.1476 60.4171 75.6176 59.7784 75.3953C59.1396 75.173 58.4249 75.2921 57.9034 75.7078C57.3819 76.1235 57.1328 76.7726 57.25 77.4105L58.7688 85.6427C57.4709 86.0213 56.3552 86.8245 55.6188 87.9105C55.07 88.7488 55.3386 89.8521 56.2188 90.3748C57.099 90.8975 58.2575 90.6417 58.8063 89.8034C59.6208 88.8872 60.9705 88.5895 62.125 89.0712L65.875 90.5177C66.1142 90.605 66.3689 90.6474 66.625 90.6427C67.5298 90.6536 68.3136 90.0476 68.4884 89.2021C68.6632 88.3566 68.1791 87.5128 67.3375 87.1962Z" fill="white" stroke="#FF6600"/>
<path d="M50.2375 26.7854C49.9314 29.0119 49.7686 31.2542 49.75 33.4997C49.75 34.8925 49.75 36.3568 49.6188 37.8925C51.6901 39.0001 54.2094 39.0338 56.3125 37.9818C55.8695 36.3035 55.5562 34.5966 55.375 32.8747C55.3158 31.6529 55.9172 30.4873 56.9688 29.7854C57.9419 29.179 58.6436 28.2498 58.9375 27.1782C59.3941 25.6275 60.884 24.5596 62.575 24.5711H66.625C66.4188 24.5711 66.3063 24.4104 64.75 23.4997C63.3999 22.7288 61.9503 22.1286 60.4375 21.714C59.3075 21.4468 58.1617 21.2441 57.0063 21.1068C55.591 20.8082 54.116 20.8948 52.75 21.3568C50.5188 22.3925 50.5188 24.5711 50.2375 26.7854Z" fill="white" stroke="#FF6600"/>
<path d="M60.8125 18.1606C62.9901 18.5775 65.0565 19.4096 66.8875 20.6071C67.9271 19.4819 68.5004 18.0344 68.5 16.5356C68.5 13.0839 65.5619 10.2856 61.9375 10.2856C58.3131 10.2856 55.375 13.0839 55.375 16.5356V17.4285C57.2047 17.5375 59.0227 17.7823 60.8125 18.1606Z" fill="white" stroke="#FF6600"/>
<path d="M31.8063 17.4284L44.9313 44.3748C44.9248 44.3274 44.9248 44.2794 44.9313 44.2319C45.6903 40.7014 46.0486 37.1033 46 33.4998C46.0205 31.0752 46.1958 28.6541 46.525 26.2498C46.0411 26.321 45.5522 26.3568 45.0625 26.3569C39.3671 26.3569 34.75 21.9597 34.75 16.5355C34.75 11.1113 39.3671 6.71408 45.0625 6.71408C47.4594 6.70788 49.7823 7.5043 51.625 8.96408V5.89265C49.3669 3.12463 45.929 1.46135 42.25 1.35694C41.3062 1.35607 40.3665 1.4762 39.4563 1.71408C36.1417 2.59136 33.3994 4.81138 31.9563 7.78551C30.4176 10.8219 30.3627 14.3499 31.8063 17.4284Z" fill="white" stroke="#FF6600"/>
<path d="M72.25 16.5355C72.2549 18.818 71.4189 21.0298 69.8875 22.7855C70.5587 23.8927 70.5573 25.2572 69.8838 26.3631C69.2103 27.4691 67.9674 28.1478 66.625 28.1427H62.575C62.0585 30.0347 60.8309 31.6804 59.125 32.7677C59.3873 34.6479 59.7819 36.5092 60.3062 38.3391C60.3081 38.3688 60.3081 38.3986 60.3062 38.4284C60.775 40.2141 61.3938 42.1605 62.1813 44.357L76.6375 14.5177C78 11.746 77.7771 8.5028 76.0467 5.92399C74.3163 3.34517 71.3197 1.79009 68.1063 1.80338C67.9443 1.82093 67.7807 1.82093 67.6187 1.80338C63.0401 0.750803 58.2402 2.3679 55.375 5.92838V8.9641C57.2177 7.50431 59.5406 6.70789 61.9375 6.71409C67.6287 6.72392 72.2397 11.1154 72.25 16.5355Z" fill="white" stroke="#FF6600"/>
<path d="M45.1188 12.1964C45.5662 11.9871 46.0827 11.9561 46.5541 12.1102C47.0255 12.2644 47.4131 12.5909 47.6313 13.0178L50.4438 18.4642C50.725 18.3035 51.4375 17.9821 51.625 17.9106V16.4999C51.6043 13.0529 48.6571 10.2726 45.0377 10.2857C41.4182 10.2988 38.4933 13.1004 38.5001 16.5475C38.507 19.9946 41.443 22.7856 45.0625 22.7856C45.7936 22.7742 46.517 22.6412 47.2 22.3928C47.2034 22.3452 47.2034 22.2975 47.2 22.2499C47.1982 22.2202 47.1982 22.1904 47.2 22.1606L43.45 20.8928C42.7635 20.7252 42.2348 20.2032 42.0837 19.5438C41.9325 18.8843 42.1848 18.2 42.7356 17.7752C43.2864 17.3504 44.0416 17.2577 44.6875 17.5356L45.9438 17.9464L44.2 14.5892C43.984 14.1565 43.9597 13.6593 44.1325 13.2093C44.3052 12.7593 44.6606 12.3943 45.1188 12.1964Z" fill="white" stroke="#FF6600"/>
<path d="M82.8437 30.5531C86.3103 30.5433 89.1131 27.8606 89.1062 24.5591C89.0993 21.2576 86.2853 18.5856 82.8187 18.5889C79.3521 18.5921 76.5437 21.2695 76.5437 24.571C76.5437 26.1606 77.208 27.6849 78.3901 28.8073C79.5721 29.9297 81.1746 30.5579 82.8437 30.5531Z" fill="white" stroke="#FF6600"/>
<path d="M92.9688 47.7857C96.0236 47.7857 98.5 45.4272 98.5 42.5179C98.5 39.6085 96.0236 37.25 92.9688 37.25C89.9139 37.25 87.4375 39.6085 87.4375 42.5179C87.4375 45.4272 89.9139 47.7857 92.9688 47.7857Z" fill="white" stroke="#FF6600"/>
<path d="M92.875 24.5712C92.864 29.0088 89.6459 32.8549 85.1065 33.8558C80.567 34.8568 75.9016 32.749 73.8438 28.7676L64.0188 49.0354C64.2625 49.6069 64.525 50.1783 64.7688 50.7319C64.9563 50.6069 91.0188 33.1426 91.8625 32.3569C94.1161 30.4081 95.521 27.7258 95.8001 24.839C96.1372 21.199 94.5513 17.6376 91.5692 15.3383C88.5871 13.039 84.5994 12.303 80.9313 13.3747C80.7781 14.0456 80.5648 14.7028 80.2938 15.339C81.1173 15.1164 81.969 15.0022 82.825 14.9997C88.3755 14.9997 92.875 19.285 92.875 24.5712Z" fill="white" stroke="#FF6600"/>
<path d="M26.95 62.9105L36.8312 62.1962C37.028 61.2774 37.3039 60.3755 37.6562 59.4998L14.8562 57.6069C17.6379 61.2655 22.2227 63.2761 26.95 62.9105Z" fill="white" stroke="#FF6600"/>
<path d="M66.625 63.8568C66.3701 61.9487 65.6719 60.1186 64.5812 58.4997C63.8875 57.2139 63.4 56.3747 62.3125 54.1604C60.6965 50.8764 59.2939 47.501 58.1125 44.0532V43.9639C57.8125 43.0889 57.5313 42.1782 57.2875 41.4282C55.9534 41.9709 54.5194 42.2562 53.0688 42.2675C51.7864 42.2552 50.5165 42.0254 49.3188 41.5889C48.7304 46.6933 46.8728 51.5906 43.9 55.8747C42.475 57.8389 40.375 61.6068 40.375 63.8568C40.375 70.7604 46.2513 76.3568 53.5 76.3568C60.7487 76.3568 66.625 70.7604 66.625 63.8568Z" fill="white" stroke="#FF6600"/>
<path d="M70.1876 62.1964L80.05 62.9106C84.7583 63.2713 89.327 61.2849 92.125 57.6606L69.2688 59.5535C69.6728 60.4008 69.9808 61.2868 70.1876 62.1964Z" fill="white" stroke="#FF6600"/>
<path d="M105.587 39.857C104.502 35.9447 101.258 32.9102 97.1312 31.9463C96.6186 32.6827 96.0482 33.3811 95.425 34.0356C100.063 35.2507 102.952 39.6442 102.075 44.1484C101.199 48.6525 96.8485 51.7683 92.0617 51.3201C87.2749 50.8719 83.6449 47.0089 83.7062 42.4284L66.3812 54.1249C66.7937 54.9106 66.9812 55.2499 67.4875 56.1784L95.3687 53.8749C98.7964 53.5752 101.911 51.8512 103.881 49.1629C105.85 46.4746 106.475 43.0958 105.587 39.9284V39.857Z" fill="white" stroke="#FF6600"/>
<path d="M17.875 24.571C17.8674 27.001 19.3996 29.1955 21.7554 30.1287C24.1113 31.062 26.8256 30.5498 28.6298 28.8315C30.434 27.1132 30.9718 24.5282 29.9919 22.2845C29.0119 20.0409 26.7078 18.5817 24.1563 18.5889C20.6872 18.5889 17.875 21.2672 17.875 24.571Z" fill="white" stroke="#FF6600"/>
<path d="M16.2063 33.1605L42.4563 50.8927L43.15 49.4284L33.1563 28.7498C30.9867 32.9982 25.8824 35.0984 21.1472 33.6911C16.412 32.2837 13.4678 27.7916 14.2203 23.122C14.9727 18.4525 19.1959 15.0079 24.1563 15.0177C25.2148 15.0283 26.2651 15.1971 27.2688 15.5177C27.1375 14.8391 27.0438 13.9462 27.025 13.732C25.6595 13.2373 24.211 12.9832 22.75 12.982C19.5049 12.9755 16.4061 14.2675 14.2097 16.5427C12.0133 18.8179 10.9213 21.867 11.2 24.9462C11.5529 28.2419 13.3765 31.2341 16.2063 33.1605Z" fill="white" stroke="#FF6600"/>
<path d="M40.6375 54.0178L23.2938 42.3214V42.5178C23.3854 47.1805 19.6938 51.1249 14.8197 51.5723C9.94565 52.0196 5.53105 48.8192 4.68604 44.2257C3.84104 39.6322 6.85029 35.193 11.5938 34.0356C10.9647 33.3686 10.3882 32.6584 9.86875 31.9106C4.3637 33.2421 0.662107 38.1518 1.09702 43.5452C1.53193 48.9387 5.97729 53.2525 11.6313 53.7678L39.325 56.0535C39.6625 55.4999 40.5063 54.1964 40.6375 54.0178Z" fill="white" stroke="#FF6600"/>
<path d="M14.0312 47.7857C17.0861 47.7857 19.5625 45.4272 19.5625 42.5179C19.5625 39.6085 17.0861 37.25 14.0312 37.25C10.9764 37.25 8.5 39.6085 8.5 42.5179C8.5 45.4272 10.9764 47.7857 14.0312 47.7857Z" fill="white" stroke="#FF6600"/>
</svg>
