<svg width="80" height="78" viewBox="0 0 80 78" fill="none" xmlns="http://www.w3.org/2000/svg">
<path d="M30.058 73.75H28.492L29.1739 71.4774L29.217 71.3337L29.1739 71.19L28.9364 70.3989C27.7442 66.4236 24.1508 63.75 20 63.75C15.8492 63.75 12.2558 66.4235 11.0636 70.3988C11.0636 70.3988 11.0636 70.3988 11.0636 70.3989L10.058 73.75H1.25H0.75V74.25V76.75V77.25H1.25H78.75H79.25V76.75V74.25V73.75H78.75H69.942L68.9364 70.3989C67.7442 66.4236 64.1508 63.75 60 63.75C55.8493 63.75 52.2558 66.4235 51.0636 70.3988C51.0636 70.3988 51.0636 70.3988 51.0636 70.3989L50.8261 71.19L50.783 71.3337L50.8261 71.4774L51.508 73.75H49.942L48.9364 70.3989C47.7442 66.4236 44.1508 63.75 40 63.75C35.8492 63.75 32.2558 66.4236 31.0636 70.3989L30.058 73.75Z" fill="white" stroke="#FF6600"/>
<path d="M33.3028 45.7236L33.441 46H33.75H46.25H46.559L46.6972 45.7236L49.1972 40.7236L49.559 40H48.75H31.25H30.441L30.8028 40.7236L33.3028 45.7236Z" fill="white" stroke="#FF6600"/>
<path d="M38.75 26.25H38.25V26.75V38V38.5H38.75H41.25H41.75V38V26.75V26.25H41.25H38.75Z" fill="white" stroke="#FF6600"/>
<path d="M35.432 31.2689L35.2946 30.7879L34.8136 30.9255L32.4111 31.613L31.9306 31.7505L32.0679 32.2311L33.7554 38.1374L33.8591 38.5H34.2362H36.835H37.4978L37.3157 37.8627L35.432 31.2689Z" fill="white" stroke="#FF6600"/>
<path d="M45.1863 30.9255L44.7054 30.7879L44.568 31.2689L42.6843 37.8627L42.5022 38.5H43.165H45.7638H46.1409L46.2445 38.1374L47.932 32.2311L48.0694 31.7505L47.5888 31.613L45.1863 30.9255Z" fill="white" stroke="#FF6600"/>
<path d="M25.5 34.25C25.5 33.4576 24.9727 32.7878 24.25 32.5725V29.1747C25.0012 28.6339 25.5 27.7558 25.5 26.75C25.5 25.8365 25.2296 24.9423 24.7221 24.1825C24.7221 24.1824 24.7221 24.1823 24.722 24.1823L22.9161 21.4727L22.5 20.8485L22.0839 21.4727L20.278 24.1823C20.2779 24.1824 20.2778 24.1825 20.2778 24.1825C19.7704 24.9424 19.5 25.8365 19.5 26.75C19.5 27.755 19.9991 28.6329 20.75 29.1744V32.5725C20.0273 32.7878 19.5 33.4576 19.5 34.25V46.75V47.25H20H25H25.5V46.75V34.25Z" fill="white" stroke="#FF6600"/>
<path d="M60.5 34.25C60.5 33.4576 59.9727 32.7878 59.25 32.5725V29.1747C60.0012 28.6339 60.5 27.7558 60.5 26.75C60.5 25.8365 60.2296 24.9423 59.7221 24.1825C59.7221 24.1824 59.7221 24.1823 59.722 24.1823L57.9161 21.4727L57.5 20.8485L57.0839 21.4727L55.278 24.1823C55.2779 24.1824 55.2778 24.1825 55.2778 24.1825C54.7704 24.9424 54.5 25.8365 54.5 26.75C54.5 27.755 54.9991 28.6329 55.75 29.1744V32.5725C55.0273 32.7878 54.5 33.4576 54.5 34.25V46.75V47.25H55H60H60.5V46.75V34.25Z" fill="white" stroke="#FF6600"/>
<path d="M40 62.25C42.3472 62.25 44.25 60.3472 44.25 58C44.25 55.6528 42.3472 53.75 40 53.75C37.6528 53.75 35.75 55.6528 35.75 58C35.75 60.3472 37.6528 62.25 40 62.25Z" fill="white" stroke="#FF6600"/>
<path d="M20 62.25C22.3472 62.25 24.25 60.3472 24.25 58C24.25 55.6528 22.3472 53.75 20 53.75C17.6528 53.75 15.75 55.6528 15.75 58C15.75 60.3472 17.6528 62.25 20 62.25Z" fill="white" stroke="#FF6600"/>
<path d="M60 62.25C62.3472 62.25 64.25 60.3472 64.25 58C64.25 55.6528 62.3472 53.75 60 53.75C57.6528 53.75 55.75 55.6528 55.75 58C55.75 60.3472 57.6528 62.25 60 62.25Z" fill="white" stroke="#FF6600"/>
<path d="M45.9722 51.5712L45.9724 51.5709C46.732 50.4303 48.0044 49.75 49.375 49.75C50.7455 49.75 52.0179 50.4303 52.7776 51.5709L52.7776 51.571L53.5439 52.721L53.8211 53.1371L54.2373 52.8598L56.3173 51.4736L56.7333 51.1963L56.4561 50.7803L55.6898 49.6303C55.6898 49.6303 55.6898 49.6303 55.6898 49.6303C54.2795 47.5135 51.9184 46.25 49.375 46.25C46.8316 46.25 44.4704 47.5135 43.0602 49.6289L43.0601 49.629L42.2939 50.779L42.0167 51.1951L42.4327 51.4723L44.5127 52.8586L44.9286 53.1357L45.2059 52.72L45.9722 51.5712Z" fill="white" stroke="#FF6600"/>
<path d="M27.2222 51.5712L27.2224 51.5709C27.982 50.4303 29.2544 49.75 30.625 49.75C31.9955 49.75 33.2679 50.4303 34.0276 51.5709L34.0276 51.571L34.7939 52.721L35.0711 53.1371L35.4873 52.8598L37.5673 51.4736L37.9833 51.1963L37.7061 50.7803L36.9398 49.6303C36.9398 49.6303 36.9398 49.6303 36.9398 49.6303C35.5295 47.5135 33.1684 46.25 30.625 46.25C28.0816 46.25 25.7204 47.5135 24.3102 49.6289L24.3101 49.629L23.5439 50.779L23.2667 51.1951L23.6827 51.4723L25.7627 52.8586L26.1786 53.1357L26.4559 52.72L27.2222 51.5712Z" fill="white" stroke="#FF6600"/>
<path d="M16.23 2.21817L12.8253 9.02636L12.4634 9.75H13.2725H66.7275H67.5365L67.1747 9.02636L63.7699 2.21817C63.7699 2.21805 63.7698 2.21793 63.7698 2.21782C63.4725 1.62188 62.8704 1.25 62.205 1.25H17.795C17.1295 1.25 16.5274 1.62187 16.2302 2.21779C16.2301 2.21792 16.23 2.21804 16.23 2.21817Z" fill="white" stroke="#FF6600"/>
<path d="M6.25 11.25H5.75V11.75V14.25V14.75H6.25H73.75H74.25V14.25V11.75V11.25H73.75H6.25Z" fill="white" stroke="#FF6600"/>
<path d="M19.0851 31.8461L19.25 31.6972V31.475V30.0213V29.8334L19.1263 29.692C18.4302 28.8963 18 27.8748 18 26.7488C18 25.5337 18.3558 24.359 19.0297 23.3487L19.0297 23.3487L22.4999 18.1451L25.9702 23.3511L25.9704 23.3514C26.6442 24.3603 27 25.5349 27 26.75C27 27.8747 26.5699 28.8964 25.8734 29.6936L25.75 29.8349V30.0225V31.4762V31.6987L25.9152 31.8476C26.5793 32.4463 27 33.2996 27 34.2512V36.7512V37.2512H27.5H31.2788H31.9417L31.7595 36.6139L30.0756 30.7219L36.3876 28.9157L36.75 28.812V28.435V24.75H43.25V28.435V28.8121L43.6125 28.9157L49.9244 30.7208L48.2405 36.6126L48.0583 37.25H48.7213H52.5H53V36.75V34.25C53 33.2986 53.4205 32.4463 54.0851 31.8461L54.25 31.6972V31.475V30.0213V29.8334L54.1263 29.692C53.4302 28.8963 53 27.8748 53 26.7488C53 25.5337 53.3558 24.359 54.0297 23.3487L54.0297 23.3487L57.4999 18.1451L60.9702 23.3511L60.9704 23.3514C61.6442 24.3603 62 25.5349 62 26.75C62 27.8747 61.5699 28.8964 60.8734 29.6936L60.75 29.8349V30.0225V31.4762V31.6987L60.9152 31.8476C61.5793 32.4463 62 33.2996 62 34.2512V36.7512V37.2512H62.5H73.75H74.25V36.7512V16.75V16.25H73.75H6.25H5.75V16.75V36.75V37.25H6.25H17.5H18V36.75V34.25C18 33.2986 18.4205 32.4463 19.0851 31.8461Z" fill="white" stroke="#FF6600"/>
</svg>
