<svg width="80" height="80" viewBox="0 0 80 80" fill="none" xmlns="http://www.w3.org/2000/svg">
<path fill-rule="evenodd" clip-rule="evenodd" d="M58.675 23.7173C58.675 21.9376 57.2266 20.4907 55.4485 20.4907C53.6688 20.4907 52.2204 21.9376 52.2204 23.7173C52.2204 25.497 53.6688 26.9438 55.4485 26.9438C57.2266 26.9438 58.675 25.4954 58.675 23.7173ZM46.5407 51.3313C48.6735 53.6985 50.8016 55.2985 53.1094 55.5235C57.2125 55.9235 59.325 53.6548 62 50.7829C62.4985 50.2485 63.0157 49.6923 63.5672 49.136L61.0594 42.1438C60.5047 42.3126 59.9438 42.4563 59.3766 42.5751C59.0797 44.4767 57.4313 45.936 55.4469 45.936C53.4641 45.936 51.8157 44.4767 51.5188 42.5751C50.9516 42.4563 50.3907 42.3126 49.836 42.1438L46.5407 51.3313ZM75.7922 68.0642H4.22974V74.9345H75.7922V68.0642ZM70.9938 52.0563V66.1907H75.7922V50.211C73.8532 50.3751 72.3407 51.0657 70.9938 52.0563ZM64.3157 58.4157V66.1892H69.1172V53.672C68.575 54.2001 68.0391 54.7626 67.4844 55.3407C66.5032 56.3704 65.4813 57.4376 64.3157 58.4157ZM57.6391 61.7626V66.1892H62.4407V59.797C61.0829 60.6595 59.5188 61.361 57.6391 61.7626ZM50.9625 61.8829V66.1907H55.7641V62.047C55.1922 62.1017 54.5969 62.1298 53.9704 62.1298C53.5438 62.1298 53.1063 62.1173 52.6516 62.0892C52.075 62.0563 51.5125 61.9845 50.9625 61.8829ZM44.286 58.7595V66.1892H49.0875V61.3907C47.3657 60.8095 45.7766 59.9001 44.286 58.7595ZM37.611 51.697V66.1907H42.411V57.161C40.7079 55.5626 39.1282 53.686 37.611 51.697ZM30.9344 42.4501V66.1892H35.736V49.1548C35.1719 48.3704 34.6141 47.5782 34.0579 46.7907C33.011 45.3095 31.9782 43.8454 30.9344 42.4501ZM24.2579 35.2438V66.1892H29.0594V40.0501C27.5329 38.1938 25.9547 36.5423 24.2579 35.2438ZM17.5829 32.3751V66.1892H22.3829V33.9954C21.0547 33.236 19.65 32.7001 18.1344 32.4501C17.9516 32.4204 17.7672 32.3954 17.5829 32.3751ZM10.9063 33.336V66.1892H15.7079V32.3048C14.1766 32.3673 12.5797 32.711 10.9063 33.336ZM9.0313 34.1423C7.49692 34.8829 5.89849 35.8485 4.22974 37.0407V66.1892H9.0313V34.1423ZM12.8219 11.5345C14.0063 11.3563 14.6594 11.0142 14.875 10.8173C14.6594 10.6204 14.0063 10.2782 12.8219 10.1001C12.4157 10.0392 12.0954 9.71885 12.0344 9.3126C11.8563 8.12822 11.5141 7.4751 11.3172 7.26104C11.1204 7.47666 10.7782 8.12822 10.6 9.3126C10.5391 9.72041 10.2188 10.0392 9.81255 10.1001C8.62817 10.2782 7.97505 10.6204 7.75942 10.8173C7.97505 11.0142 8.62817 11.3563 9.81255 11.5345C10.2188 11.5954 10.5391 11.9157 10.6 12.322C10.7782 13.5063 11.1204 14.1595 11.3172 14.3751C11.5141 14.1595 11.8563 13.5079 12.0344 12.322C12.0954 11.9157 12.4157 11.597 12.8219 11.5345ZM27.4672 17.8079C28.6516 17.6298 29.3032 17.2876 29.5188 17.0907C29.3032 16.8938 28.6516 16.5517 27.4672 16.3735C27.0594 16.3126 26.7407 15.9923 26.6782 15.586C26.5016 14.4017 26.1579 13.7485 25.9625 13.5329C25.7657 13.7485 25.4219 14.4001 25.2454 15.586C25.1829 15.9923 24.8641 16.3126 24.4563 16.3735C23.2719 16.5517 22.6204 16.8938 22.4047 17.0907C22.6204 17.2876 23.2719 17.6298 24.4563 17.8079C24.8641 17.8688 25.1829 18.1876 25.2454 18.5954C25.4219 19.7798 25.7657 20.4329 25.9625 20.6485C26.1579 20.4329 26.5016 19.7798 26.6782 18.5954C26.7407 18.1892 27.0594 17.8688 27.4672 17.8079ZM75.7922 45.147V48.3282C71.275 48.6532 68.6579 51.3923 66.1266 54.047C63.0313 57.2907 59.8313 60.6454 52.7657 60.2188C45.5204 59.7829 40.6969 52.947 35.5891 45.7095C30.7657 38.8735 25.7766 31.8048 18.4391 30.6001C14.1313 29.8923 9.4688 31.2563 4.22974 34.761V31.1173C22.4141 20.7579 31.3422 33.5017 39.2282 44.7563C43.7875 51.2626 47.7235 56.8813 52.9266 57.3892C57.9516 57.8798 60.586 55.0532 63.3719 52.061C66.3172 48.9001 69.3532 45.636 75.7922 45.147ZM54.511 18.7032V9.48291C51.2813 9.69385 48.3422 10.9829 46.05 12.9938L52.5657 19.5095C53.1407 19.1157 53.8 18.836 54.511 18.7032ZM58.3297 19.5095L64.8454 12.9938C62.5532 10.9829 59.6141 9.69385 56.386 9.48291V18.7032C57.0954 18.836 57.7547 19.1157 58.3297 19.5095ZM60.4625 22.7798H69.6797C69.475 19.5501 68.1797 16.611 66.1704 14.3188L59.6547 20.8345C60.05 21.4095 60.3297 22.0688 60.4625 22.7798ZM59.6547 26.5985L66.1704 33.1142C68.1797 30.822 69.475 27.8829 69.6797 24.6548H60.4625C60.3297 25.3657 60.05 26.0235 59.6547 26.5985ZM56.386 28.7313V37.9517C59.6141 37.7407 62.5532 36.4517 64.8454 34.4407L58.3297 27.9251C57.7547 28.3188 57.0954 28.5985 56.386 28.7313ZM52.5657 27.9235L46.05 34.4392C48.3422 36.4501 51.2813 37.7392 54.511 37.9501V28.7298C53.8 28.5985 53.1407 28.3188 52.5657 27.9235ZM50.4329 24.6548H41.2141C41.425 27.8829 42.7141 30.8235 44.725 33.1142L51.2407 26.5985C50.8454 26.0235 50.5657 25.3657 50.4329 24.6548ZM41.2141 22.7798H50.4329C50.5657 22.0688 50.8454 21.4095 51.2407 20.836L44.725 14.3204C42.7141 16.611 41.425 19.5501 41.2141 22.7798ZM37.2047 25.8188C38.3641 25.8188 39.3079 24.8751 39.3079 23.7173C39.3079 22.5579 38.3641 21.6157 37.2047 21.6157C36.0454 21.6157 35.1032 22.5579 35.1032 23.7173C35.1032 24.8751 36.0454 25.8188 37.2047 25.8188ZM40.7782 33.0532C41.1688 32.8579 41.5891 32.7298 42.0266 32.6735C40.8704 30.9454 40.0391 28.9829 39.6188 26.8751C39.275 27.1376 38.8891 27.3454 38.4719 27.486C38.9079 29.4532 39.6938 31.3501 40.7782 33.0532ZM44.0344 38.1032C44.8547 37.2829 44.8547 35.9501 44.0344 35.1298C43.6375 34.7329 43.1094 34.5142 42.5485 34.5142C41.986 34.5142 41.4594 34.7329 41.0625 35.1298C40.6641 35.5267 40.4454 36.0548 40.4454 36.6157C40.4454 37.1767 40.6641 37.7048 41.061 38.1032C41.8813 38.922 43.2157 38.922 44.0344 38.1032ZM51.6782 40.6923C51.8188 40.2751 52.0266 39.8876 52.2891 39.5454C50.1797 39.1251 48.2172 38.2923 46.4891 37.136C46.4329 37.5657 46.3063 37.9876 46.1094 38.3845C47.8141 39.4704 49.711 40.2563 51.6782 40.6923ZM57.55 41.9595C57.55 43.1188 56.6063 44.061 55.4469 44.061C54.2891 44.061 53.3454 43.1188 53.3454 41.9595C53.3454 40.8001 54.2891 39.8579 55.4469 39.8579C56.6063 39.8579 57.55 40.8001 57.55 41.9595ZM64.786 38.3845C64.5891 37.9876 64.4625 37.5657 64.4063 37.136C62.6782 38.2938 60.7157 39.1267 58.6063 39.5454C58.8688 39.8876 59.0766 40.2751 59.2172 40.6923C61.1844 40.2563 63.0813 39.4704 64.786 38.3845ZM69.8329 35.1298C69.4375 34.7329 68.9079 34.5142 68.3454 34.5142C67.7844 34.5142 67.261 34.7329 66.8579 35.1298C66.0391 35.9485 66.0391 37.2829 66.8579 38.1032C67.2594 38.5001 67.7829 38.7188 68.3454 38.7188C68.9063 38.7188 69.436 38.5001 69.8329 38.1032C70.2344 37.7063 70.4516 37.1782 70.4516 36.6157C70.4516 36.0548 70.2344 35.5267 69.8329 35.1298ZM72.4235 27.486C72.0094 27.3454 71.6188 27.1376 71.275 26.8751C70.861 28.9845 70.025 30.947 68.8688 32.6735C69.3094 32.7298 69.7235 32.8595 70.1125 33.0532C71.2047 31.3501 71.9891 29.4532 72.4235 27.486ZM73.6922 21.6157C72.5313 21.6157 71.586 22.5595 71.586 23.7173C71.586 24.8767 72.5297 25.8188 73.6922 25.8188C74.8469 25.8188 75.7922 24.8767 75.7922 23.7173C75.7922 22.5579 74.8485 21.6157 73.6922 21.6157ZM70.1125 14.3782C71.2032 16.0829 71.9891 17.9798 72.4219 19.947C72.0079 20.0876 71.6172 20.2954 71.2735 20.5579C70.8594 18.4485 70.0235 16.486 68.8672 14.7579C69.2969 14.7017 69.7172 14.5751 70.1125 14.3782ZM66.8594 9.33135C66.0407 10.1517 66.0407 11.4845 66.8594 12.3048C67.6829 13.1235 69.0157 13.1251 69.8329 12.3048C70.6563 11.486 70.6563 10.1517 69.8329 9.33135C69.425 8.92197 68.8891 8.71729 68.3454 8.71729C67.8094 8.71729 67.2735 8.92197 66.8594 9.33135ZM55.4485 7.57666C56.6063 7.57666 57.55 6.63291 57.55 5.4751C57.55 4.31572 56.6063 3.37354 55.4485 3.37354C54.2891 3.37354 53.3454 4.31572 53.3454 5.4751C53.3454 6.63291 54.2891 7.57666 55.4485 7.57666ZM58.6063 7.8876C58.8688 7.54541 59.0766 7.15791 59.2172 6.74072C61.1844 7.17822 63.0813 7.96416 64.786 9.0501C64.5891 9.44697 64.4625 9.86885 64.4063 10.2985C62.6782 9.14072 60.7157 8.30791 58.6063 7.8876ZM42.0282 14.7579C40.8704 16.486 40.0391 18.4501 39.6188 20.5595C39.275 20.297 38.8891 20.0892 38.4719 19.9485C38.9079 17.9813 39.6954 16.0829 40.7797 14.3798C41.1766 14.5751 41.5985 14.7017 42.0282 14.7579ZM46.1094 9.04854C47.8141 7.96416 49.711 7.17666 51.6782 6.73916C51.8188 7.15635 52.0266 7.54385 52.2891 7.88604C50.1797 8.30635 48.2172 9.13916 46.4891 10.2954C46.4329 9.86729 46.3063 9.44541 46.1094 9.04854ZM41.061 12.3032C41.8813 13.122 43.2141 13.122 44.0344 12.3032C44.8547 11.4829 44.8547 10.1501 44.0344 9.32978C43.6375 8.93291 43.1094 8.71416 42.5485 8.71416C41.986 8.71416 41.4594 8.93291 41.0625 9.32978H41.061C40.2422 10.1517 40.2422 11.4845 41.061 12.3032Z" fill="white" stroke="#FF6600"/>
</svg>
