<svg width="100" height="106" viewBox="0 0 100 106" fill="none" xmlns="http://www.w3.org/2000/svg">
<path d="M20.525 105.999C31.7568 105.999 41.0156 95.7281 41.0156 82.8112C41.0156 76.6488 43.8596 70.9489 48.4314 67.9341C58.3133 61.4256 64.4531 49.3564 64.4531 36.4364C64.4531 15.6219 48.7279 -1.9367 29.068 0.170485C12.7717 1.9272 0 18.483 0 37.8597V81.6854C0 94.6509 9.05781 105.999 20.525 105.999ZM16.4223 60.3C13.4754 57.7573 11.7188 53.7428 11.7188 49.5538V36.4366C11.7188 23.6524 20.9197 13.2493 32.2266 13.2493C43.5334 13.2493 52.7344 23.6524 52.7344 36.4366C52.7344 38.2676 51.424 39.7491 49.8047 39.7491C48.1854 39.7491 46.875 38.2676 46.875 36.4366C46.875 27.3046 40.3061 19.8742 32.2266 19.8742C26.6773 19.8742 21.899 23.4204 19.4139 28.5748C21.492 27.2937 23.8373 26.4992 26.3672 26.4992C34.4467 26.4992 41.0156 33.9295 41.0156 43.0616C41.0156 48.9554 38.2119 54.4515 33.6914 57.4049C32.3363 58.305 30.5197 57.8145 29.6916 56.1982C28.8791 54.6131 29.3598 52.5881 30.7617 51.6727C33.474 49.8968 35.1562 46.5973 35.1562 43.0616C35.1562 37.5819 31.2137 33.1242 26.3672 33.1242C21.5207 33.1242 17.5781 37.5819 17.5781 43.0616V49.5538C17.5781 51.6889 18.4707 53.7364 19.9756 55.0305C22.1729 56.9197 23.4375 59.8051 23.4375 62.9365C23.4375 68.4162 19.4949 72.8739 14.6484 72.8739C13.0291 72.8739 11.7188 71.3924 11.7188 69.5615C11.7188 67.7305 13.0291 66.249 14.6484 66.249C16.2621 66.249 17.5781 64.7641 17.5781 62.9365C17.5781 61.8915 17.1547 60.9307 16.4223 60.3Z" fill="#FF6600"/>
<path d="M78.4268 82.0768C79.5711 83.3706 81.4252 83.3706 82.5696 82.0768C83.7139 80.7829 83.7139 78.6865 82.5696 77.3927C72.2928 65.7699 72.2928 46.8525 82.5696 35.2297C83.7139 33.9358 83.7139 31.8394 82.5696 30.5456C81.4252 29.2517 79.5711 29.2517 78.4268 30.5456C65.8668 44.753 65.8668 67.8693 78.4268 82.0768Z" fill="#FF6600"/>
<path d="M90.8553 39.9172C89.7109 38.6233 87.8568 38.6233 86.7125 39.9172C82.8443 44.2907 80.7158 50.1101 80.7158 56.3113C80.7158 62.5125 82.8443 68.3321 86.7125 72.7054C87.8568 73.9993 89.7109 73.9993 90.8553 72.7054C91.9996 71.4116 91.9996 69.3152 90.8553 68.0214C88.0916 64.8997 86.5752 60.7397 86.5752 56.3113C86.5752 51.883 88.0916 47.7227 90.8553 44.6012C91.9996 43.3072 91.9996 41.211 90.8553 39.9172Z" fill="#FF6600"/>
<path d="M99.1421 49.2853C97.9978 47.9915 96.1437 47.9915 94.9994 49.2853C91.5718 53.1607 91.5718 59.4622 94.9994 63.3375C96.1437 64.6314 97.9978 64.6314 99.1421 63.3375C100.286 62.0437 100.286 59.9473 99.1421 58.6535C97.9978 57.3627 97.9978 55.2602 99.1421 53.9694C100.287 52.6753 100.287 50.5792 99.1421 49.2853Z" fill="#FF6600"/>
</svg>
