<svg width="100" height="100" viewBox="0 0 100 100" fill="none" xmlns="http://www.w3.org/2000/svg">
<path d="M38.4664 0C20.9123 0 6.63086 14.2814 6.63086 31.8355V78.2293C6.63086 82.5395 7.88125 86.6953 10.2467 90.2477C10.6951 90.9211 11.6045 91.1031 12.2779 90.6549C12.9512 90.2064 13.1336 89.2971 12.6852 88.6236C10.641 85.5539 9.56035 81.9596 9.56035 78.2293V31.8355C9.56055 15.8969 22.5277 2.92969 38.4664 2.92969C54.4051 2.92969 67.3721 15.8969 67.3721 31.8355C67.3721 46.9713 61.693 54.5734 55.6803 62.6221C51.585 68.1043 47.3502 73.773 45.0418 81.9219C43.4869 87.4107 41.4188 91.2516 38.7189 93.6637C36.1178 95.9879 32.9033 97.0703 28.6029 97.0703C24.3727 97.0703 20.3746 95.7437 17.0408 93.2344C16.3941 92.7478 15.4762 92.8773 14.9895 93.5236C14.5029 94.1701 14.6324 95.0885 15.2787 95.575C19.1244 98.4697 23.7318 100 28.6029 100C38.5361 100 44.4754 94.6707 47.8607 82.7203C50.0215 75.0926 53.9104 69.8869 58.0275 64.3754C64.0621 56.2977 70.302 47.9445 70.302 31.8354C70.3018 14.2814 56.0205 0 38.4664 0Z" fill="#FF6600"/>
<path d="M50.3449 17.3785C46.6008 14.3887 41.9012 12.7422 37.1119 12.7422C25.4002 12.7422 15.8721 22.2703 15.8721 33.982C15.8721 34.791 16.5279 35.4469 17.3369 35.4469C18.1459 35.4469 18.8018 34.791 18.8018 33.982C18.8018 30.9709 19.5328 28.1275 20.826 25.6193C24.0262 23.5139 31.1271 23.9379 36.234 27.7398C43.2762 32.9826 41.7379 40.8 40.1939 44.9932C39.9145 45.7523 40.3033 46.5943 41.0625 46.8738C41.2295 46.9354 41.4004 46.9645 41.5684 46.9645C42.1646 46.9645 42.7252 46.5977 42.9432 46.0053C44.6121 41.4719 44.9031 37.2875 43.8076 33.5682C42.8594 30.3484 40.8453 27.5203 37.9834 25.3896C33.7918 22.2689 28.1672 20.9152 23.6529 21.5814C27.001 17.9504 31.7951 15.6717 37.1119 15.6717C41.2992 15.6717 45.243 17.0535 48.5168 19.6678C51.6959 22.2062 53.9678 25.7652 54.9139 29.6887C55.1035 30.4752 55.8947 30.9594 56.6812 30.7693C57.4676 30.5797 57.9516 29.7885 57.7619 29.002C56.6639 24.449 54.0299 20.3211 50.3449 17.3785Z" fill="#FF6600"/>
<path d="M20.7494 69.6457C22.1393 73.7316 25.507 76.502 29.758 77.0559C30.3514 77.1332 30.9279 77.1719 31.4893 77.1719C34.3539 77.1719 36.8135 76.1617 38.9678 74.1092C41.0924 72.0852 42.5838 69.3342 43.8996 66.907C44.5551 65.6979 45.1744 64.5557 45.8131 63.6002C45.8199 63.59 45.8266 63.5799 45.833 63.5695C46.8303 61.9941 47.9072 60.4346 48.9504 58.9242C53.4869 52.3559 57.7719 46.1516 58.2984 36.0459C58.3406 35.2381 57.7197 34.5488 56.9117 34.5068C56.1055 34.4654 55.4147 35.0856 55.3727 35.8936C54.8893 45.1701 50.8334 51.0422 46.5381 57.2615C45.4834 58.7887 44.393 60.3678 43.3672 61.9873C42.657 63.0518 42.0094 64.2463 41.3238 65.5107C38.8102 70.1475 36.2131 74.9424 30.1365 74.1506C27.0176 73.7439 24.5453 71.7072 23.5229 68.702C22.4705 65.6084 23.1859 62.3176 25.3896 60.1139C26.9105 58.5932 27.748 56.5711 27.748 54.4205C27.748 49.9807 24.1361 46.3688 19.6963 46.3688C18.8873 46.3688 18.2314 47.0246 18.2314 47.8336C18.2314 48.6426 18.8873 49.2984 19.6963 49.2984C22.5205 49.2984 24.8184 51.5961 24.8184 54.4205C24.8184 55.7887 24.2855 57.0748 23.3182 58.0424C20.3191 61.0414 19.3348 65.4875 20.7494 69.6457Z" fill="#FF6600"/>
<path d="M73.4082 55.065C73.4082 48.5433 75.9478 42.4121 80.5594 37.8005C81.1314 37.2285 81.1314 36.3009 80.5594 35.7289C79.9873 35.1568 79.0598 35.1568 78.4877 35.7289C73.3228 40.8937 70.4785 47.7609 70.4785 55.0648C70.4785 62.3691 73.323 69.2361 78.4877 74.4009C78.7736 74.6869 79.1486 74.83 79.5234 74.83C79.8982 74.83 80.2732 74.6871 80.5592 74.4009C81.1312 73.8289 81.1312 72.9013 80.5592 72.3292C75.9477 67.7179 73.4082 61.5867 73.4082 55.065Z" fill="#FF6600"/>
<path d="M90.9133 55.0651C90.9133 53.2227 91.633 51.4883 92.94 50.1813C93.5121 49.6092 93.5121 48.6819 92.94 48.1098C92.368 47.5375 91.4404 47.5377 90.8684 48.1098C89.008 49.9699 87.9834 52.4403 87.9834 55.0653C87.9834 57.6903 89.008 60.1604 90.8684 62.0207C91.1543 62.3067 91.5293 62.4498 91.9041 62.4498C92.2789 62.4498 92.6539 62.3069 92.9398 62.0207C93.5121 61.4485 93.5121 60.5209 92.94 59.949C91.633 58.642 90.9133 56.9074 90.9133 55.0651Z" fill="#FF6600"/>
<path d="M86.7537 41.9237C86.1816 41.3516 85.2541 41.3516 84.682 41.9237C81.1666 45.4391 79.2305 50.1063 79.2305 55.0651C79.2305 60.0241 81.1666 64.6911 84.682 68.2065C84.968 68.4924 85.343 68.6356 85.7178 68.6356C86.0928 68.6356 86.4676 68.4924 86.7535 68.2065C87.3256 67.6344 87.3256 66.7069 86.7535 66.1348C83.7914 63.1727 82.1602 59.2415 82.1602 55.0649C82.1602 50.8883 83.7914 46.9571 86.7535 43.995C87.3258 43.4233 87.3258 42.4958 86.7537 41.9237Z" fill="#FF6600"/>
</svg>
