<svg width="78" height="76" viewBox="0 0 78 76" fill="none" xmlns="http://www.w3.org/2000/svg">
<path fill-rule="evenodd" clip-rule="evenodd" d="M22.5367 30.9334C24.5645 35.205 26.5222 40.1048 27.1452 49.6461C28.5372 49.3437 29.9377 49.0997 31.3231 48.9079C30.1016 40.015 27.7387 34.3145 25.3961 29.9137C29.7572 31.1884 32.4509 33.1006 35.0922 35.2714C35.4453 35.5617 35.9639 35.2243 35.8416 34.7839C33.7633 27.2895 29.4475 26.8153 26.4627 27.7271C29.8786 26.0865 32.7933 25.6154 35.8233 25.3192C36.2783 25.2746 36.4064 24.6695 36.0084 24.4445C29.2395 20.6148 25.8527 23.3309 24.3867 26.0864C25.6422 22.5109 27.3698 20.117 29.303 17.765C29.5933 17.4117 29.2558 16.8932 28.8153 17.0156C22.7692 18.6923 21.2927 21.8253 21.4264 24.5409C19.6006 22.5262 16.3413 21.3548 10.8805 24.4445C10.4825 24.6695 10.6106 25.2746 11.0656 25.3192C14.0956 25.6154 17.0103 26.0867 20.4263 27.7271C17.4413 26.8151 13.1256 27.2893 11.0473 34.7839C10.9252 35.2243 11.4434 35.5617 11.7967 35.2714C14.1488 33.3382 16.5428 31.6104 20.1184 30.3551C17.363 31.8209 14.6466 35.2078 18.4764 41.9768C18.7014 42.3748 19.3066 42.2468 19.3511 41.7917C19.6897 38.3284 20.2564 35.0162 22.5372 30.9334H22.5367ZM64.3998 34.5236C63.9631 29.8625 63.2767 25.4515 60.2166 19.9734C57.0289 26.6881 53.9741 34.5959 53.9608 52.9264C53.9608 53.0257 53.9453 53.1109 53.91 53.2039C53.2063 55.0553 49.3642 54.8157 48.1058 53.4271C47.9603 53.2667 47.8927 53.0762 47.9045 52.86C48.8405 35.6015 52.6909 25.8036 56.5 18.6481C50.6453 20.3595 47.1022 22.9543 43.5587 25.8909C43.2091 26.1807 42.6908 25.8503 42.8061 25.4111C45.4598 15.2551 51.1772 14.6031 55.1137 15.8057C50.5098 13.5946 46.6066 13.0178 42.5103 12.634C42.0575 12.5917 41.9248 11.9918 42.3173 11.7625C51.3752 6.45762 55.8789 10.0393 57.8122 13.6734C56.1202 8.85449 53.7681 5.68652 51.143 2.51855C50.8533 2.16887 51.1834 1.65074 51.6227 1.7659C59.8442 3.91434 61.837 8.07027 61.6602 11.6642C64.0764 8.99793 68.4242 7.46809 75.7569 11.7625C76.1494 11.992 76.0166 12.5915 75.5639 12.6339C71.4677 13.0178 67.5644 13.5945 62.9605 15.8056C66.897 14.6028 72.6144 15.2548 75.2681 25.4109C75.3834 25.8501 74.865 26.1806 74.5155 25.8907C71.3475 23.2656 68.1797 20.9136 63.3608 19.2215C66.9948 21.1546 70.5764 25.6584 65.2717 34.7164C65.0423 35.1089 64.4425 34.9762 64.4002 34.5234L64.3998 34.5236ZM25.1489 61.9025C23.2027 62.7784 21.1881 62.7784 19.242 61.9025C18.3322 61.4931 17.4222 61.0836 16.5123 60.6742C14.8303 59.9173 13.0972 59.8145 11.4012 60.3659C11.1348 60.4525 10.8694 60.5553 10.6053 60.6742C9.69547 61.0836 8.78547 61.4931 7.87563 61.9025C6.53172 62.5071 5.15531 62.6943 3.79141 62.464C3.32203 62.3848 2.88625 62.504 2.5225 62.8114C2.15891 63.1187 1.96875 63.5286 1.96875 64.0046V68.0429C2.78766 68.3879 3.62156 68.5604 4.45734 68.5621C5.33109 68.564 6.20812 68.3718 7.07344 67.9876L9.83984 66.7593C10.947 66.2678 12.077 66.0218 13.2102 66.0201C14.338 66.0182 15.468 66.2654 16.5806 66.7595L19.347 67.9878C20.2067 68.3695 21.0839 68.5604 21.9631 68.5604C22.8423 68.5604 23.7194 68.3695 24.5792 67.9878L27.3456 66.7593C28.4583 66.2653 29.5883 66.0182 30.7161 66.0182C31.8439 66.0182 32.9737 66.2653 34.0864 66.7593L36.853 67.9878C37.7127 68.3695 38.5897 68.5604 39.4691 68.5604C40.3484 68.5604 41.2253 68.3695 42.0852 67.9878L44.8516 66.7593C45.9642 66.2653 47.0942 66.0182 48.222 66.0201C49.3552 66.022 50.4853 66.2678 51.5925 66.7595L54.3589 67.9878C55.2186 68.3695 56.0956 68.5604 56.9748 68.5604C57.8541 68.5604 58.7313 68.3695 59.5909 67.9878L62.3573 66.7593C63.47 66.2653 64.6 66.0182 65.7277 66.0182C66.8553 66.0182 67.9853 66.2653 69.0981 66.7593L71.8645 67.9878C72.7242 68.3695 73.6014 68.5604 74.4806 68.5604C75.3164 68.5604 76.1503 68.3879 76.9691 68.0429V64.0046C76.9691 63.5286 76.7789 63.1187 76.4153 62.8114C76.0517 62.504 75.6159 62.3848 75.1464 62.464C73.7825 62.6945 72.4059 62.5071 71.0622 61.9025C70.1523 61.4931 69.2423 61.0836 68.3325 60.674C68.0684 60.5551 67.803 60.4525 67.5367 60.3659C65.8408 59.8143 64.1077 59.9171 62.4256 60.674C61.5156 61.0836 60.6058 61.4931 59.6959 61.9025C57.7497 62.7784 55.7352 62.7784 53.7889 61.9025C52.8789 61.4931 51.9691 61.0836 51.0592 60.6742C49.113 59.7984 47.0986 59.7984 45.1523 60.6742C44.2425 61.0837 43.3325 61.4931 42.4227 61.9026C40.4764 62.7786 38.4619 62.7786 36.5158 61.9026C35.6059 61.4931 34.6959 61.0837 33.7861 60.6742C31.8398 59.7984 29.8255 59.7984 27.8792 60.6742C26.9694 61.0837 26.0594 61.4932 25.1495 61.9026L25.1489 61.9025ZM11.1173 7.02746C9.15266 7.02746 7.55984 8.62027 7.55984 10.585C7.55984 12.5496 9.15266 14.1425 11.1173 14.1425C13.082 14.1425 14.6748 12.5496 14.6748 10.585C14.6748 8.62027 13.082 7.02746 11.1173 7.02746ZM12.0548 3.93824C12.0548 4.45605 11.6352 4.87574 11.1173 4.87574C10.5995 4.87574 10.1798 4.45605 10.1798 3.93824V1.43652C10.1798 0.918711 10.5995 0.499023 11.1173 0.499023C11.6352 0.499023 12.0548 0.918711 12.0548 1.43652V3.93824ZM7.08031 5.22215C7.44641 5.58809 7.44641 6.18168 7.08031 6.54777C6.71422 6.91387 6.12062 6.91387 5.75469 6.54777L3.98563 4.77871C3.61953 4.41277 3.61953 3.81902 3.98563 3.45309C4.35172 3.08715 4.94531 3.08715 5.31125 3.45309L7.08031 5.22215ZM4.47078 9.6473C4.98859 9.6473 5.40828 10.067 5.40828 10.5848C5.40828 11.1026 4.98859 11.5223 4.47078 11.5223H1.96875C1.45094 11.5223 1.03125 11.1026 1.03125 10.5848C1.03125 10.067 1.45094 9.6473 1.96875 9.6473H4.47078ZM5.75469 14.6218C6.12078 14.2557 6.71422 14.2557 7.08031 14.6218C7.44641 14.9879 7.44641 15.5815 7.08031 15.9475L5.31125 17.7165C4.94516 18.0826 4.35156 18.0826 3.98563 17.7165C3.61953 17.3506 3.61953 16.7568 3.98563 16.3909L5.75469 14.6218ZM10.1798 17.2314C10.1798 16.7136 10.5995 16.2939 11.1173 16.2939C11.6352 16.2939 12.0548 16.7136 12.0548 17.2314V19.7332C12.0548 20.2511 11.6352 20.6707 11.1173 20.6707C10.5995 20.6707 10.1798 20.2511 10.1798 19.7332V17.2314ZM15.1544 15.9475C14.7883 15.5815 14.7883 14.9879 15.1544 14.6218C15.5205 14.2557 16.1141 14.2557 16.48 14.6218L18.2492 16.3909C18.6152 16.757 18.6152 17.3506 18.2492 17.7165C17.8833 18.0825 17.2895 18.0826 16.9236 17.7165L15.1544 15.9475ZM17.7639 11.5223C17.2461 11.5223 16.8264 11.1026 16.8264 10.5848C16.8264 10.067 17.2461 9.6473 17.7639 9.6473H20.2658C20.7836 9.6473 21.2033 10.067 21.2033 10.5848C21.2033 11.1026 20.7836 11.5223 20.2658 11.5223H17.7639ZM16.48 6.54777C16.1141 6.91387 15.5205 6.91387 15.1544 6.54777C14.7883 6.18168 14.7883 5.58809 15.1544 5.22215L16.9234 3.45293C17.2894 3.08699 17.883 3.08699 18.2491 3.45293C18.615 3.81902 18.615 4.41262 18.2491 4.77855L16.4798 6.54762L16.48 6.54777ZM65.6717 58.1473C63.3697 55.9379 59.9719 54.0567 55.8363 52.6817L55.8358 52.9278C55.8356 53.2531 55.7783 53.5657 55.6627 53.87C54.3942 57.2075 48.8213 57.009 46.7164 54.6864C46.2356 54.1557 45.9936 53.4736 46.0323 52.7584C46.0714 52.0384 46.1161 51.3179 46.1669 50.597C44.015 50.3484 41.773 50.2168 39.4689 50.2168C28.065 50.2168 18.1745 53.4364 13.2659 58.1473C14.6283 58.1009 15.9817 58.3793 17.2819 58.9643C18.1917 59.3737 19.1016 59.7832 20.0116 60.1926C21.4681 60.8481 22.9231 60.8481 24.3797 60.1926C25.2895 59.7831 26.1995 59.3737 27.1094 58.9642C29.5447 57.8684 32.1197 57.8684 34.5552 58.9642C35.465 59.3736 36.375 59.7831 37.2848 60.1926C38.7414 60.8481 40.1964 60.8481 41.6528 60.1926C42.5627 59.7831 43.4727 59.3737 44.3825 58.9642C46.8178 57.8682 49.393 57.8682 51.8283 58.9642C52.7381 59.3736 53.6481 59.7831 54.558 60.1925C56.0145 60.8479 57.4695 60.8479 58.9261 60.1925C59.8359 59.7829 60.7459 59.3736 61.6558 58.964C62.9559 58.379 64.3094 58.1006 65.6717 58.147V58.1473ZM1.96875 70.0331C2.79422 70.3012 3.62641 70.4354 4.45734 70.4336C5.59047 70.4317 6.72063 70.1859 7.82781 69.6943L10.5942 68.4661C11.4594 68.0818 12.3366 67.8898 13.2103 67.8917C14.0895 67.8936 14.9667 68.0845 15.8264 68.4662L18.5928 69.6945C19.7055 70.1886 20.8355 70.4356 21.9633 70.4356C23.0911 70.4356 24.2211 70.1886 25.3337 69.6945L28.1002 68.4661C28.9598 68.0843 29.837 67.8934 30.7162 67.8934C31.5955 67.8934 32.4725 68.0843 33.3322 68.4661L36.0988 69.6945C37.2114 70.1886 38.3414 70.4356 39.4692 70.4356C40.597 70.4356 41.727 70.1886 42.8395 69.6945L45.6059 68.4661C46.4656 68.0843 47.3427 67.8934 48.222 67.8917C49.0956 67.8898 49.9728 68.082 50.8381 68.4662L53.6045 69.6945C54.7172 70.1886 55.8472 70.4356 56.9748 70.4356C58.1025 70.4356 59.2327 70.1886 60.3453 69.6945L63.1117 68.4661C63.9714 68.0843 64.8484 67.8934 65.7277 67.8934C66.6069 67.8934 67.4839 68.0843 68.3437 68.4661L71.1102 69.6945C72.2228 70.1886 73.3528 70.4356 74.4806 70.4356C75.3116 70.4356 76.1436 70.3014 76.9691 70.0332V73.8414C76.9691 74.5906 76.4558 75.2204 75.722 75.3717C75.3097 75.4567 74.8953 75.4992 74.4805 75.4992C73.6013 75.4992 72.7241 75.3082 71.8644 74.9265L69.098 73.6981C67.9853 73.2042 66.8553 72.957 65.7275 72.957C64.5997 72.957 63.4698 73.2042 62.3572 73.6981L59.5908 74.9265C58.7311 75.3082 57.8539 75.4992 56.9747 75.4992C56.0955 75.4992 55.2184 75.3082 54.3587 74.9265L51.5923 73.6982C50.4852 73.2067 49.3552 72.9609 48.2219 72.9589C47.0942 72.957 45.9641 73.2042 44.8514 73.6981L42.085 74.9265C41.2253 75.3082 40.3483 75.4992 39.4689 75.4992C38.5895 75.4992 37.7127 75.3082 36.8528 74.9265L34.0863 73.6981C32.9736 73.2042 31.8436 72.957 30.7159 72.957C29.5883 72.957 28.4583 73.2042 27.3455 73.6981L24.5791 74.9265C23.7194 75.3082 22.8423 75.4992 21.963 75.4992C21.0836 75.4992 20.2067 75.3082 19.3469 74.9265L16.5805 73.6982C15.4678 73.2042 14.3378 72.9572 13.21 72.9589C12.0769 72.9607 10.9467 73.2065 9.83969 73.6981L7.07328 74.9264C6.20812 75.3106 5.33094 75.5026 4.45719 75.5009C4.04187 75.5 3.62719 75.457 3.21453 75.3717C2.48125 75.22 1.96859 74.5904 1.96859 73.8415V70.0332L1.96875 70.0331Z" fill="white" stroke="#FF6600"/>
</svg>
