<svg width="100" height="100" viewBox="0 0 100 100" fill="none" xmlns="http://www.w3.org/2000/svg">
<path d="M83.3336 0C74.1437 0 66.667 7.47676 66.667 16.6666C66.667 24.6381 78.4773 40.7719 81.2445 44.4439C81.2437 45.6301 81.2445 46.7947 81.2158 47.8637C81.1853 49.0131 82.0928 49.9715 83.2441 50.002C83.2625 50.002 83.2809 50.002 83.3012 50.002C84.4242 50.002 85.352 49.1047 85.3824 47.9736C85.4111 46.8768 85.4103 45.6795 85.4111 44.4596C88.16 40.8127 100 24.6475 100 16.6666C100 7.47676 92.5234 0 83.3336 0ZM83.3336 40.2629C78.7539 33.9621 70.8336 21.9707 70.8336 16.6666C70.8336 9.77363 76.4406 4.1666 83.3336 4.1666C90.2266 4.1666 95.8336 9.77363 95.8336 16.6666C95.8336 21.9707 87.9133 33.9619 83.3336 40.2629Z" fill="#FF6600"/>
<path d="M83.3336 12.5C81.0367 12.5 79.167 14.3697 79.167 16.6666C79.167 18.9635 81.0367 20.8332 83.3336 20.8332C85.6305 20.8332 87.5002 18.9637 87.5002 16.6666C87.5002 14.3697 85.6305 12.5 83.3336 12.5Z" fill="#FF6600"/>
<path d="M25 45.8335C18.107 45.8335 12.5 51.4405 12.5 58.3335C12.5 65.2265 18.107 70.8335 25 70.8335C31.893 70.8335 37.5 65.2265 37.5 58.3335C37.5 51.4405 31.893 45.8335 25 45.8335ZM25 66.6667C20.4041 66.6667 16.6666 62.9294 16.6666 58.3333C16.6666 53.7372 20.4041 50.0001 25 50.0001C29.5959 50.0001 33.3334 53.7374 33.3334 58.3335C33.3334 62.9296 29.5959 66.6667 25 66.6667Z" fill="#FF6600"/>
<path d="M56.5571 75.0857C55.4788 74.6665 54.2784 75.2017 53.8614 76.2759C52.9276 78.6888 51.7599 81.5025 50.1851 84.0802C49.5849 85.0628 49.8962 86.3447 50.8769 86.9449C51.2167 87.1525 51.5909 87.2501 51.9612 87.2501C52.6632 87.2501 53.3487 86.896 53.7415 86.2533C55.4872 83.3927 56.7464 80.3654 57.7474 77.7816C58.1624 76.7091 57.6294 75.5027 56.5571 75.0857Z" fill="#FF6600"/>
<path d="M44.8099 90.2892C42.7224 91.9433 40.3503 93.1884 37.5548 94.0978C36.4603 94.4538 35.862 95.6298 36.2181 96.7243C36.505 97.6033 37.3208 98.1628 38.1997 98.1628C38.4134 98.1628 38.631 98.1302 38.8446 98.0611C42.0733 97.0113 44.9501 95.4956 47.3978 93.5566C48.2991 92.8404 48.4517 91.5302 47.7376 90.6288C47.0173 89.7298 45.7091 89.5691 44.8099 90.2892Z" fill="#FF6600"/>
<path d="M63.7697 60.0442C60.3315 61.9953 58.4211 65.3826 57.2816 67.759C56.7832 68.7967 57.2205 70.0418 58.2582 70.5381C58.5492 70.6785 58.8565 70.7436 59.1574 70.7436C59.9346 70.7436 60.6793 70.3082 61.0373 69.5615C62.4838 66.5444 63.9609 64.7276 65.8285 63.6655C66.8275 63.0979 67.1795 61.8262 66.6098 60.8252C66.0443 59.8244 64.7768 59.4725 63.7697 60.0442Z" fill="#FF6600"/>
<path d="M82.56 54.8871C81.6139 54.2462 80.3139 54.4923 79.6668 55.4445C78.9813 56.4578 77.5773 57.8513 73.3313 58.2318C72.1857 58.3355 71.3395 59.3466 71.4432 60.4941C71.5408 61.5765 72.4502 62.3902 73.5164 62.3902C73.5795 62.3902 73.6426 62.3882 73.7057 62.382C78.2162 61.9771 81.2943 60.4716 83.1174 57.7798C83.7625 56.8279 83.5121 55.532 82.56 54.8871Z" fill="#FF6600"/>
<path d="M29.9365 95.8604C36.5102 88.8503 50 72.7229 50 58.3335C50 44.3157 39.0178 33.3335 25 33.3335C10.9822 33.3335 0 44.3157 0 58.3335C0 76.939 22.6074 98.521 23.5697 99.4306C23.9705 99.811 24.4854 100 25 100C26.5178 100 27.9602 99.9474 29.3273 99.8436C30.4748 99.7561 31.3354 98.7571 31.2479 97.6097C31.1854 96.7884 30.6539 96.1479 29.9365 95.8604ZM25 94.979C20.0785 89.9579 4.1666 72.6157 4.1666 58.3335C4.1666 46.6513 13.318 37.5001 25 37.5001C36.682 37.5001 45.8334 46.6513 45.8334 58.3335C45.8334 72.6157 29.9215 89.9577 25 94.979Z" fill="#FF6600"/>
</svg>
