<svg width="100" height="100" viewBox="0 0 100 100" fill="none" xmlns="http://www.w3.org/2000/svg">
<path d="M20.5412 38.5419C19.7717 38.2917 18.9455 38.713 18.6955 39.4825C17.6301 42.7628 17.0898 46.1856 17.0898 49.6563C17.0898 55.5126 18.6498 61.2653 21.6012 66.2929C21.8738 66.7575 22.3633 67.0163 22.8658 67.0163C23.1178 67.0163 23.373 66.9513 23.6061 66.8145C24.3037 66.405 24.5373 65.5075 24.1277 64.8097C21.4402 60.2317 20.0197 54.9915 20.0197 49.6563C20.0197 46.4936 20.5117 43.3751 21.482 40.3874C21.7318 39.6181 21.3105 38.7917 20.5412 38.5419Z" fill="#FF6600"/>
<path d="M82.8851 48.3801C82.7689 45.3479 82.2371 42.3539 81.3041 39.482C81.0543 38.7125 80.2268 38.2922 79.4584 38.5416C78.6891 38.7914 78.2678 39.618 78.518 40.3873C79.3676 43.0027 79.852 45.7295 79.9578 48.4922C79.9879 49.2815 80.6373 49.901 81.4205 49.901C81.4394 49.901 81.4584 49.9006 81.4775 49.8998C82.2859 49.869 82.9162 49.1885 82.8851 48.3801Z" fill="#FF6600"/>
<path d="M79.4992 55.0123C78.8732 58.4798 77.6529 61.7761 75.8722 64.8097C75.4627 65.5074 75.6962 66.405 76.3939 66.8146C76.6269 66.9513 76.8822 67.0164 77.1341 67.0164C77.6365 67.0164 78.1259 66.7576 78.3988 66.2929C80.3548 62.9609 81.6951 59.3406 82.3824 55.5326C82.5259 54.7365 81.997 53.9746 81.2009 53.8308C80.4058 53.6884 79.6427 54.2162 79.4992 55.0123Z" fill="#FF6600"/>
<path d="M31.5002 38.6291C30.7793 38.2625 29.8973 38.55 29.5307 39.2711C27.8852 42.5084 27.0508 46.0025 27.0508 49.6562C27.0508 52.8058 27.6787 55.8597 28.9174 58.733C29.1563 59.2871 29.6961 59.6183 30.2633 59.6183C30.4568 59.6183 30.6535 59.5798 30.8424 59.4984C31.5854 59.1781 31.9279 58.3162 31.6076 57.5734C30.5279 55.0685 29.9803 52.4046 29.9803 49.6564C29.9803 46.4685 30.7076 43.4209 32.1422 40.5988C32.509 39.8775 32.2215 38.9957 31.5002 38.6291Z" fill="#FF6600"/>
<path d="M69.1577 59.4982C69.3467 59.5796 69.5434 59.6181 69.7368 59.6181C70.304 59.6181 70.844 59.2867 71.0829 58.7328C72.3213 55.8597 72.9495 52.8058 72.9495 49.6562C72.9495 46.0023 72.1153 42.5082 70.4696 39.2711C70.103 38.55 69.221 38.2625 68.5001 38.6291C67.779 38.9957 67.4915 39.8775 67.8581 40.5986C69.2926 43.4205 70.0198 46.4681 70.0198 49.6562C70.0198 52.4046 69.4723 55.0683 68.3924 57.573C68.0719 58.316 68.4147 59.1777 69.1577 59.4982Z" fill="#FF6600"/>
<path d="M63.9074 58.5379V35.9489C63.9074 35.8112 63.9181 35.6754 63.9339 35.5407H86.35C89.4609 35.5407 91.9919 33.0096 91.9919 29.8987C91.9919 26.7877 89.4609 24.2567 86.35 24.2567H74.1837L88.8111 9.62954C89.8767 8.56372 90.4636 7.14692 90.4636 5.63989C90.4636 4.13286 89.8767 2.71606 88.8109 1.65024C86.6109 -0.549365 83.0318 -0.549365 80.8318 1.65024L61.4748 21.0073C61.9478 19.7073 62.2066 18.3055 62.2066 16.844C62.2066 10.1129 56.7306 4.63696 49.9996 4.63696C43.2687 4.63696 37.7925 10.1129 37.7925 16.844C37.7925 18.3055 38.0513 19.7075 38.5244 21.0073L19.1675 1.65024C16.9675 -0.549561 13.3882 -0.549365 11.1884 1.65044C8.98862 3.85024 8.98862 7.42974 11.1884 9.62974L16.6718 15.1131C17.2439 15.685 18.1714 15.685 18.7435 15.1131C19.3156 14.5409 19.3156 13.6135 18.7435 13.0413L13.2603 7.55806C12.2027 6.50044 12.2027 4.77954 13.2603 3.72212C14.3179 2.66431 16.0384 2.6647 17.096 3.72212L39.2726 25.8985C40.1027 26.7288 41.2064 27.186 42.3802 27.186H43.5265C45.4044 28.3657 47.6232 29.051 50 29.051C52.3767 29.051 54.5955 28.3657 56.4734 27.186H57.6195C58.7933 27.186 59.8968 26.7288 60.7273 25.8987L82.9037 3.72192C83.9611 2.6645 85.6818 2.6645 86.7392 3.72192C87.2515 4.23423 87.5339 4.91548 87.5339 5.63989C87.5339 6.36431 87.2517 7.04536 86.7392 7.55767L62.8367 31.4604C61.6378 32.6596 60.9775 34.2536 60.9775 35.9489V59.1407C60.9775 59.142 60.9773 59.1432 60.9773 59.1446V70.9592C60.9773 70.9612 60.9775 70.9631 60.9775 70.9651V94.3584C60.9775 95.854 59.7607 97.0708 58.2652 97.0708C56.7697 97.0708 55.5529 95.854 55.5529 94.3584V85.3518C55.5529 84.5426 54.8972 83.887 54.088 83.887C53.2789 83.887 52.6232 84.5428 52.6232 85.3518V94.3584C52.6232 97.4694 55.1542 100.001 58.2652 100.001C61.3761 100.001 63.9074 97.4696 63.9074 94.3584V74.4961L80.831 91.4198C81.8966 92.4856 83.3134 93.0725 84.8205 93.0725C86.3275 93.0725 87.7443 92.4856 88.8101 91.42C89.8757 90.3542 90.4627 88.9374 90.4627 87.4303C90.4627 85.9233 89.8757 84.5065 88.8101 83.4409L63.9074 58.5379ZM40.7224 16.8438C40.7224 11.7284 44.8843 7.56645 49.9998 7.56645C55.1152 7.56645 59.2771 11.7284 59.2771 16.8438C59.2771 21.9592 55.1152 26.1211 49.9998 26.1211C44.8843 26.1211 40.7224 21.9594 40.7224 16.8438ZM86.35 27.1866C87.8455 27.1866 89.0623 28.4032 89.0623 29.8989C89.0623 31.3944 87.8457 32.6112 86.35 32.6112H65.8296L71.2542 27.1868H86.35V27.1866ZM86.7384 89.3481C86.2261 89.8604 85.5451 90.1426 84.8207 90.1426C84.0962 90.1426 83.4152 89.8606 82.9031 89.3481L63.9076 70.3528V62.6813L86.7386 85.5125C87.2509 86.0247 87.533 86.7057 87.533 87.4301C87.533 88.1545 87.2507 88.8358 86.7384 89.3481Z" fill="#FF6600"/>
<path d="M47.7227 15.1938V13.6738C47.7227 12.8646 47.0668 12.209 46.2578 12.209C45.4488 12.209 44.793 12.8646 44.793 13.6738V15.1938C44.793 16.0029 45.4488 16.6586 46.2578 16.6586C47.0668 16.6586 47.7227 16.0029 47.7227 15.1938Z" fill="#FF6600"/>
<path d="M53.6543 12.209C52.8451 12.209 52.1895 12.8646 52.1895 13.6738V15.1938C52.1895 16.0029 52.8451 16.6586 53.6543 16.6586C54.4635 16.6586 55.1191 16.0029 55.1191 15.1938V13.6738C55.1191 12.8646 54.4635 12.209 53.6543 12.209Z" fill="#FF6600"/>
<path d="M53.9178 18.8865C53.2251 18.4682 52.3247 18.6906 51.9067 19.3832C51.4882 20.076 50.7591 20.4897 49.9559 20.4897C49.1528 20.4897 48.4237 20.076 48.0052 19.3832C47.5872 18.6908 46.6868 18.468 45.994 18.8865C45.3014 19.3047 45.079 20.2051 45.4973 20.8977C46.4509 22.4768 48.1176 23.4194 49.9559 23.4194C51.7942 23.4194 53.461 22.4768 54.4145 20.8977C54.8327 20.2051 54.6102 19.3047 53.9178 18.8865Z" fill="#FF6600"/>
<path d="M52.6234 78.5151C52.6234 79.3243 53.2791 79.98 54.0883 79.98C54.8975 79.98 55.5531 79.3243 55.5531 78.5151V64.1368C55.5531 61.7136 53.5816 59.7421 51.1584 59.7421H48.8412C46.418 59.7421 44.4465 61.7136 44.4465 64.1368V94.3579C44.4465 95.8534 43.2297 97.0702 41.7342 97.0702C40.2387 97.0702 39.0219 95.8534 39.0219 94.3579V70.9646C39.0219 70.9626 39.0221 70.9606 39.0221 70.9587V59.144C39.0221 59.1427 39.0219 59.1415 39.0219 59.1401V35.9485C39.0219 34.2532 38.3617 32.6593 37.1627 31.4599L23.5773 17.8747C23.0053 17.3028 22.0777 17.3028 21.5057 17.8747C20.9336 18.447 20.9336 19.3743 21.5057 19.9466L25.8156 24.2563H13.6498C10.5389 24.2565 8.00781 26.7876 8.00781 29.8983C8.00781 33.0091 10.5387 35.5403 13.6498 35.5403H36.0658C36.0818 35.6749 36.0926 35.8108 36.0926 35.9485V58.5378L11.1898 83.4405C10.1242 84.5062 9.5373 85.9229 9.5373 87.43C9.5373 88.937 10.1242 90.3538 11.1898 91.4194C12.2555 92.4853 13.6723 93.0722 15.1793 93.0722C16.6863 93.0722 18.1031 92.4853 19.1687 91.4196L36.0926 74.4958V94.3581C36.0926 97.469 38.6236 100 41.7346 100C44.8455 100 47.3766 97.4692 47.3766 94.3581V64.1368C47.3766 63.329 48.0338 62.672 48.8414 62.672H51.1586C51.9664 62.672 52.6234 63.329 52.6234 64.1368V78.5151ZM10.9375 29.8983C10.9375 28.4028 12.1541 27.186 13.6498 27.186H28.7457L34.1703 32.6104H13.6498C12.1543 32.6106 10.9375 31.3938 10.9375 29.8983ZM17.0969 89.348C16.5846 89.8603 15.9037 90.1423 15.1791 90.1423C14.4547 90.1423 13.7736 89.8603 13.2613 89.348C12.749 88.8356 12.467 88.1544 12.467 87.43C12.467 86.7056 12.749 86.0245 13.2613 85.5124L36.0924 62.6812V70.3526L17.0969 89.348Z" fill="#FF6600"/>
</svg>
