<svg width="80" height="65" viewBox="0 0 80 65" fill="none" xmlns="http://www.w3.org/2000/svg">
<path d="M39.8875 0.50149C41.7375 0.451493 43.375 1.66392 43.8625 3.45131L53.1125 37.3493L55.325 32.9246C56.675 30.2122 59.45 28.4998 62.475 28.4998H76C78.2125 28.4998 80 30.2872 80 32.4996C80 34.7119 78.2125 36.4993 76 36.4993H62.475L55.575 50.286C54.8375 51.7734 53.25 52.6359 51.6 52.4734C49.95 52.3109 48.575 51.1485 48.1375 49.5486L40.4625 21.4127L31.9125 61.3354C31.525 63.1353 29.975 64.4352 28.1375 64.4977C26.3 64.5602 24.6625 63.3602 24.1625 61.5978L16.9875 36.4993H4C1.7875 36.4993 0 34.7119 0 32.4996C0 30.2872 1.7875 28.4998 4 28.4998H16.9875C20.5625 28.4998 23.7 30.8622 24.675 34.2995L27.45 43.9989L36.0875 3.6638C36.475 1.86391 38.05 0.551487 39.8875 0.50149Z" fill="#FF6600"/>
</svg>
