<svg width="80" height="82" viewBox="0 0 80 82" fill="none" xmlns="http://www.w3.org/2000/svg">
<path d="M58 42.3335C54.6667 42.3335 51.6003 44.467 50.3998 47.6668H65.4668C64.3998 44.467 61.3334 42.3335 58 42.3335Z" fill="white" stroke="#FF6600"/>
<path d="M59.0664 19.8L58 7.6665L56.9336 19.8C57.6003 19.6665 58.3997 19.6665 59.0664 19.8Z" fill="white" stroke="#FF6600"/>
<path d="M58 58.3335C62.3997 58.3335 66 54.7332 66 50.3335H50C50 54.7332 53.6003 58.3335 58 58.3335Z" fill="white" stroke="#FF6600"/>
<path d="M62 26.3335C62 28.5425 60.209 30.3335 58 30.3335C55.791 30.3335 54 28.5425 54 26.3335C54 24.1245 55.791 22.3335 58 22.3335C60.209 22.3335 62 24.1245 62 26.3335Z" fill="white" stroke="#FF6600"/>
<path d="M56.6666 32.8667V39.8003C57.6002 39.6668 58.3997 39.6668 59.3333 39.8003V32.8667C58.3997 33.0002 57.6002 33.0002 56.6666 32.8667Z" fill="white" stroke="#FF6600"/>
<path d="M59.3333 63.5334L60 60.7332C58.6666 61.0002 57.3333 61.0002 56 60.7332L56.6666 63.5334V63.8003L55.4668 78.3335H39.1998L36.6666 22.3335L34.1334 78.3335H19.1998L18 56.8667L18.6666 54.0666C17.3333 54.3335 16 54.3335 14.6666 54.0666L15.3333 56.8667L14.1334 78.3335H0.666626V81.0002H78V78.3335H60.5332L59.3333 63.5334Z" fill="white" stroke="#FF6600"/>
<path d="M18.3997 35.8001L18 34.4668L16.6667 17L15.3333 34.7331L14.9336 35.8001C16.1335 35.6667 17.3333 35.6667 18.3997 35.8001Z" fill="white" stroke="#FF6600"/>
<path d="M23.3333 45.0002C23.3333 48.6818 20.3483 51.6668 16.6667 51.6668C12.985 51.6668 10 48.6818 10 45.0002C10 41.3185 12.985 38.3335 16.6667 38.3335C20.3483 38.3335 23.3333 41.3185 23.3333 45.0002Z" fill="white" stroke="#FF6600"/>
<path d="M19.3334 9H35.3334V6.33333H19.3334C18.5332 6.33333 18 5.80013 18 5C18 4.19987 18.5332 3.66667 19.3334 3.66667H23.3334V1H19.3334C17.0664 1 15.3334 2.73307 15.3334 5C15.3334 7.26693 17.0664 9 19.3334 9Z" fill="white" stroke="#FF6600"/>
<path d="M28.6666 14.3332H42V11.6665H28.6666C26.3997 11.6665 24.6666 13.3996 24.6666 15.6665C24.6666 17.9334 26.3997 19.6665 28.6666 19.6665H32.6666V16.9998H28.6666C27.8665 16.9998 27.3333 16.4666 27.3333 15.6665C27.3333 14.8664 27.8665 14.3332 28.6666 14.3332Z" fill="white" stroke="#FF6600"/>
<path d="M38 6.3335H40.6667V9.00016H38V6.3335Z" fill="white" stroke="#FF6600"/>
<path d="M44.6666 11.6665H47.3333V14.3332H44.6666V11.6665Z" fill="white" stroke="#FF6600"/>
<path d="M68.6666 11.6665C66.3997 11.6665 64.6666 13.3996 64.6666 15.6665C64.6666 17.9334 66.3997 19.6665 68.6666 19.6665H72.6666V16.9998H68.6666C67.8665 16.9998 67.3333 16.4666 67.3333 15.6665C67.3333 14.8664 67.8665 14.3332 68.6666 14.3332H79.3333V11.6665H68.6666Z" fill="white" stroke="#FF6600"/>
<path d="M64.6666 6.3335H75.3333V9.00016H64.6666V6.3335Z" fill="white" stroke="#FF6600"/>
</svg>
