<svg width="80" height="80" viewBox="0 0 80 80" fill="none" xmlns="http://www.w3.org/2000/svg">
<path d="M0.736994 65.4375L6.05834 52.0598L6.33074 51.375H5.59375H1.48038L9.90053 38.08L10.3866 37.3125H9.47812H3.48594L21.2359 13.6458L24.8181 18.4221L10.9197 42.2481L10.481 43H11.3516H15.9868L9.75628 56.3511L9.42428 57.0625H10.2094H15.9868L12.0784 65.4375H0.736994Z" fill="white" stroke="#FF6600"/>
<path d="M32.9688 65.4377H18.3554L24.5859 52.0866L24.9179 51.3752H24.1328H18.3554L24.5859 38.0241L24.9179 37.3127H24.1328H20.383L40 3.68467L59.617 37.3127H55.8672H55.0821L55.4141 38.0241L61.6446 51.3752H55.8672H55.0821L55.4141 52.0866L61.6446 65.4377H47.0312H46.5312V65.9377V75.3127V75.8127H47.0312H51.7188H52.2188V75.3127V71.1252H65.2812V75.3127V75.8127H65.7812H79.5V79.5002H0.5V75.8127H14.2188H14.7188V75.3127V71.1252H27.7672V75.3127V75.8127H28.2672H32.9688H33.4688V75.3127V65.9377V65.4377H32.9688Z" fill="white" stroke="#FF6600"/>
<path d="M73.9308 52.0601L79.2624 65.4375H67.9215L64.0132 57.0625H69.7906H70.5757L70.2437 56.3511L64.0132 43H68.6484H69.5189L69.0803 42.2481L55.1756 18.4112L58.75 13.6458L76.5 37.3125H70.5078H69.5992L70.0854 38.0801L78.507 51.375H74.3953H73.6578L73.9308 52.0601Z" fill="white" stroke="#FF6600"/>
<path d="M0.5 14.875H4.1875V18.5625H0.5V14.875Z" fill="white" stroke="#FF6600"/>
<path d="M10.0312 5.5H13.7188V9.1875H10.0312V5.5Z" fill="white" stroke="#FF6600"/>
<path d="M0.5 0.5H4.1875V4.1875H0.5V0.5Z" fill="white" stroke="#FF6600"/>
<path d="M24.0938 0.5H27.7812V4.1875H24.0938V0.5Z" fill="white" stroke="#FF6600"/>
<path d="M52.2188 0.5H55.9062V4.1875H52.2188V0.5Z" fill="white" stroke="#FF6600"/>
<path d="M66.2812 5.5H69.9688V9.1875H66.2812V5.5Z" fill="white" stroke="#FF6600"/>
<path d="M75.8125 0.5H79.5V4.1875H75.8125V0.5Z" fill="white" stroke="#FF6600"/>
<path d="M75.8125 14.875H79.5V18.5625H75.8125V14.875Z" fill="white" stroke="#FF6600"/>
</svg>
