<svg width="107" height="77" viewBox="0 0 107 77" fill="none" xmlns="http://www.w3.org/2000/svg">
<path fill-rule="evenodd" clip-rule="evenodd" d="M15.3594 17.7546C14.7701 17.8036 14.2496 17.9831 13.7926 18.2933C12.5694 19.1187 11.8289 20.786 11.2688 22.7961C10.1023 26.9958 9.82398 32.6249 9.3962 37.5405C9.00106 42.0853 8.42209 46.0752 7.26244 48.3114C6.15948 50.4381 4.63732 51.4595 2.43312 50.7902C1.5054 50.5081 0.921276 49.2582 1.12915 47.999C1.33703 46.7398 2.25788 45.9446 3.18561 46.2267C4.38306 46.5905 4.76274 45.1844 5.14413 43.4308C5.81072 40.3528 6.03234 36.0365 6.41374 31.7225C6.83637 26.9515 7.46001 22.1968 8.83269 18.7993C10.4493 14.8001 12.9885 12.3913 17.2045 13.2168C17.1616 13.2891 17.1169 13.3637 17.074 13.4406C16.3627 14.6835 15.7786 16.113 15.3594 17.7546Z" fill="white" stroke="#FF6600"/>
<path fill-rule="evenodd" clip-rule="evenodd" d="M26.4285 8.92676C23.2571 9.82453 20.3141 11.5828 18.4312 14.8707C16.9039 17.5384 16.1016 21.2087 16.4143 26.1896C16.416 26.2129 16.416 26.2362 16.416 26.2595C16.416 26.2595 16.4898 29.3726 14.3664 40.2601C15.3233 45.234 18.6013 46.1527 18.6013 46.1527C19.0651 46.2787 19.3692 46.8919 19.2765 47.5239C19.1837 48.1558 18.7318 48.5662 18.2663 48.4403C18.2663 48.4403 15.3697 47.6894 13.6397 43.8675C13.2067 45.9499 12.7085 48.2607 12.1313 50.8211C12.5419 51.9428 13.0676 52.5351 13.5864 52.8056C14.3904 53.2253 15.1258 52.9012 15.1258 52.9012C15.5759 52.696 16.0638 53.0248 16.215 53.6334C16.3662 54.2443 16.1239 54.9066 15.6755 55.1118C15.6755 55.1118 14.3819 55.7181 12.9697 54.9835C12.4783 54.7247 11.9629 54.3096 11.4887 53.6357C10.8788 56.2731 10.1934 59.1529 9.42369 62.2916C9.38418 62.4525 9.31717 62.6018 9.23127 62.7253C9.23127 62.7253 7.28305 65.8431 11.4286 75.1309L17.0345 75.7628C17.1805 75.7022 17.4382 75.546 17.5395 75.1892C17.6306 74.8674 17.5722 74.4383 17.3592 73.8367C17.0327 72.9133 16.373 71.759 15.2237 70.2783C15.0261 70.0241 14.9299 69.658 14.9625 69.2896C14.9625 69.2896 16.0999 56.8467 23.4529 48.6805C22.7468 47.5985 18.5308 40.2857 19.5977 21.232C19.6338 20.5884 20.0461 20.1081 20.5186 20.157C20.991 20.206 21.3466 20.7657 21.3106 21.4069C20.2265 40.7731 24.7724 47.1834 24.7724 47.1834C24.793 47.2114 24.8119 47.2417 24.8308 47.272C25.8375 46.33 26.9439 45.4672 28.1603 44.7186C28.296 42.9091 28.0142 40.4886 27.5968 37.7254C26.9027 33.1432 25.8152 27.682 25.3341 22.4633C24.8703 17.4311 24.994 12.6251 26.4285 8.92676Z" fill="white" stroke="#FF6600"/>
<path fill-rule="evenodd" clip-rule="evenodd" d="M34.6062 42.6216C31.9966 45.5388 29.4557 46.5974 28.9729 46.7793C28.54 47.0428 28.1208 47.3203 27.717 47.6141C27.8854 47.8986 28.0452 48.2484 28.1878 48.6635C28.5211 49.6265 28.7994 51 29.021 52.602C29.825 58.4387 29.9367 67.5003 30.0415 69.7272C30.0896 70.7439 30.7047 71.7443 31.3592 72.6304C32.2646 73.8547 33.3263 74.82 33.7318 75.1698L38.1058 75.5779C38.1007 74.5962 37.9976 73.8873 37.843 73.3813C37.6677 72.8123 37.3774 72.5931 37.3533 72.5768C37.2365 72.5535 37.1231 72.4952 37.0218 72.4089C35.2144 70.8535 34.5186 67.5446 34.5942 63.5921C34.6423 61.1506 34.967 58.4596 35.4017 55.8806C34.0634 55.5565 32.9673 54.4535 32.0189 52.8935C31.7166 52.3968 31.7698 51.6622 32.134 51.2518C32.5 50.8438 33.0429 50.9137 33.3435 51.4104C34.041 52.553 34.8193 53.4181 35.8157 53.607C36.6404 49.3887 37.6351 45.7999 37.9821 44.5967C36.3603 43.7642 35.1886 43.0157 34.6062 42.6216Z" fill="white" stroke="#FF6600"/>
<path fill-rule="evenodd" clip-rule="evenodd" d="M96.0266 0.762718C96.0747 0.76505 96.1228 0.774377 96.1692 0.788368C96.6657 0.942272 96.9853 1.65582 97.1983 2.3787C97.4268 3.15289 97.5385 4.00168 97.3856 4.51936L97.377 4.54501C97.255 4.95775 97.3203 5.41014 97.5179 5.7296C97.5574 6.06073 97.7034 6.3662 97.9336 6.54809C104.582 11.7855 103.452 17.6781 103.452 17.6781C103.371 18.0465 103.431 18.4453 103.61 18.7414C103.99 19.371 104.316 19.9493 104.596 20.481C105.426 22.0527 105.842 23.1743 106.013 23.9788C106.099 24.3752 106.089 24.746 106.084 24.8509C106.025 24.9279 105.974 25.0142 105.931 25.1098C105.273 26.6185 104.562 27.9174 103.854 28.9271C103.112 29.9857 102.394 30.7249 101.746 30.9744C101.378 31.1167 101.054 31.0257 100.837 30.585C100.237 29.3631 99.217 28.4747 98.1896 27.887C96.8633 27.1292 95.5525 26.8587 95.3824 26.826C92.5374 26.1684 90.5376 26.7211 89.1598 27.5816C86.9848 28.941 86.2649 31.1167 86.222 31.2519L86.2082 31.2962C83.8563 39.3458 78.4171 42.9113 75.3728 44.3244C75.6081 44.0119 75.8504 43.7018 76.0995 43.3986C76.0978 43.401 78.0116 41.0714 79.3362 37.7718C80.2622 35.4656 80.8858 32.6977 80.4856 29.9088C80.3945 29.2768 79.9427 28.8641 79.4788 28.9877C79.0132 29.1089 78.7091 29.7222 78.7985 30.3542C79.1197 32.5951 78.5717 34.8034 77.8278 36.6549C76.651 39.5907 74.9501 41.6637 74.9501 41.6637C65.6489 53.0246 66.0457 70.3411 66.0457 70.3411C66.056 70.7888 66.2536 71.1899 66.556 71.3718C67.8273 72.1319 68.3341 72.8105 68.3427 73.5474C68.3461 73.9065 68.2224 74.2306 68.0936 74.4965C67.9836 74.7203 67.8616 74.9115 67.7517 75.0631L60.8865 74.7576C60.1117 70.1102 60.3522 63.3035 60.9157 56.6926C61.8263 45.9987 63.6216 35.8177 63.6216 35.8177C63.7316 35.1905 63.4464 34.5608 62.9859 34.4116C62.5238 34.2624 62.0599 34.6495 61.95 35.2744C61.95 35.2744 61.2679 39.1476 60.5258 44.6415C57.2478 45.8867 53.9956 46.2225 50.9685 46.0313C50.9702 45.7818 50.9135 45.53 50.7933 45.3154C49.3106 42.6688 50.015 40.0337 50.015 40.0337C50.1834 39.4321 49.9617 38.7582 49.5185 38.5274C49.0787 38.3012 48.5856 38.5973 48.4138 39.1896L48.4087 39.2059C48.3795 39.3109 47.5119 42.4496 48.9808 45.8308C47.1184 45.5696 45.3644 45.1289 43.7683 44.6066C43.734 44.5576 43.6962 44.5109 43.6549 44.4713C43.143 43.9606 42.887 43.1351 42.7358 42.3516C42.4815 41.0411 42.54 39.7842 42.5434 39.7073V39.6886C42.5726 39.0544 42.2187 38.5017 41.7497 38.4551C41.2772 38.4084 40.8649 38.8888 40.8305 39.5324C40.8305 39.5324 40.7378 41.1997 41.0745 42.9439C41.1209 43.1841 41.1759 43.4266 41.2394 43.6645C38.8462 42.6664 37.0045 41.5891 35.9651 40.9269C37.197 39.2083 38.3652 37.0233 39.2517 34.2647C39.4407 33.6747 39.2414 32.9892 38.8067 32.7303C38.3721 32.4738 37.867 32.7443 37.6763 33.332C35.637 39.677 31.9364 42.6361 29.9057 43.8394C29.8989 39.6024 28.4815 33.0778 27.5469 26.4553C27.0487 22.9155 26.6982 19.3454 26.8322 16.1041C26.9559 13.1543 27.4782 10.482 28.722 8.42291C35.5941 7.30594 42.6533 9.43728 42.6533 9.43728C42.6671 9.43961 42.6826 9.44427 42.6963 9.44893C42.9042 9.49557 43.1086 9.54221 43.3131 9.58651C41.5195 11.8717 38.4872 17.1278 40.5419 24.7693C40.7051 25.3733 41.1982 25.6857 41.6432 25.4642C42.0881 25.245 42.3183 24.5758 42.1551 23.9695C39.8461 15.3789 45.2424 10.4073 45.4107 10.2534L45.4245 10.2418C45.4812 10.1905 45.5327 10.1298 45.5774 10.0645C47.9122 10.5263 50.0236 10.8481 51.9271 11.0579C51.6437 12.6436 51.0699 16.181 50.874 19.9657C50.6902 23.5078 50.8551 27.2528 51.8103 29.9134C52.0182 30.4917 52.5336 30.7319 52.9597 30.4498C53.3857 30.1676 53.5627 29.4704 53.3548 28.8921C52.513 26.5509 52.4254 23.2466 52.5869 20.1289C52.7947 16.1437 53.439 12.4454 53.6675 11.2282C56.0847 11.4264 58.1309 11.438 59.854 11.3354L59.1428 20.5906C59.1307 20.7352 59.1393 20.8821 59.1685 21.0243C59.2166 21.2552 59.3163 21.4627 59.4537 21.6143C59.5207 21.6889 59.5963 21.7496 59.6771 21.7939C59.7647 21.8405 59.8575 21.8685 59.9519 21.8755C60.0482 21.8825 60.1444 21.8685 60.2371 21.8312C60.3402 21.7892 60.4364 21.7239 60.5206 21.6353C60.6082 21.542 60.6821 21.4278 60.7388 21.2995C60.8006 21.1549 60.8367 20.9964 60.8505 20.8331L61.5926 11.1862C65.7502 10.7058 67.5026 9.55853 67.8015 9.34167C68.2688 9.04552 68.7344 8.76803 69.1948 8.50453C67.8754 13.1846 64.4892 27.6095 68.8873 39.677C69.0986 40.2529 69.614 40.4908 70.0384 40.204C70.4627 39.9195 70.6379 39.2199 70.4266 38.6416C65.4221 24.9116 71.2221 7.93322 71.2221 7.93322C71.2822 7.76066 71.3062 7.57644 71.3011 7.39689C72.6755 6.73464 74.0207 6.20064 75.3247 5.77391C74.7886 7.84927 73.9296 11.9883 74.1513 16.5285C74.1117 16.5728 74.0722 16.6218 74.0327 16.6731C73.7767 17.0135 73.5362 17.5405 73.3438 18.1841C72.7511 20.1476 72.5088 23.3376 72.5088 23.3376C72.4607 23.9788 72.8061 24.5501 73.2768 24.6131C73.7493 24.6784 74.1702 24.2097 74.2183 23.5707C74.2183 23.5707 74.3368 21.9454 74.6237 20.4017C74.9381 21.9618 75.4209 23.5171 76.1235 25.0002C76.3795 25.5412 76.9121 25.6997 77.3107 25.35C77.7093 25.0025 77.8244 24.282 77.5684 23.7386C76.5891 21.6726 76.096 19.4527 75.9002 17.298C75.9036 17.242 75.9036 17.1861 75.9002 17.1278C75.895 17.0462 75.8847 16.9692 75.8676 16.8923C75.4226 10.8107 77.2901 5.33785 77.2901 5.33785C77.3055 5.28888 77.3193 5.23758 77.3313 5.18861C78.7504 4.82484 80.1076 4.58232 81.3858 4.43075C80.9735 5.62233 80.288 7.23132 79.3104 8.39959C78.9548 8.82632 78.9204 9.5632 79.2348 10.0459C79.5475 10.5286 80.0921 10.5752 80.4478 10.1485C81.9837 8.31098 82.92 5.56637 83.3048 4.26752C84.7806 4.1859 86.1206 4.22088 87.2889 4.31649C86.6635 5.60834 85.6671 7.93322 85.0795 10.6429C84.1312 15.0104 84.2222 20.3131 88.263 24.1094C88.653 24.4755 89.189 24.3449 89.4587 23.8156C89.7284 23.2863 89.6305 22.5587 89.2422 22.1926C85.9815 19.1285 85.9626 14.8262 86.7271 11.3028C87.5362 7.57411 89.2079 4.65461 89.2079 4.65461C89.2285 4.61963 89.2474 4.58465 89.2628 4.54734C91.0874 4.82717 92.1817 5.19327 92.2865 5.23058L92.3037 5.23758C92.6817 5.36583 93.0768 5.13031 93.2658 4.66627C93.9496 2.971 94.5766 1.88435 95.159 1.27106C95.4769 0.935275 95.7569 0.760386 96.0129 0.762718H96.0266ZM32.3006 12.1399C32.3006 12.1399 31.0276 23.0834 35.4171 30.0114C35.7263 30.4987 36.2692 30.5547 36.6283 30.135C36.9874 29.7152 37.0286 28.9784 36.7194 28.4887C32.7989 22.3045 33.9963 12.5107 33.9963 12.5107C34.0719 11.8764 33.7524 11.2771 33.2851 11.1745C32.8178 11.0719 32.3762 11.5033 32.3006 12.1399Z" fill="white" stroke="#FF6600"/>
<path fill-rule="evenodd" clip-rule="evenodd" d="M84.3355 39.4346C80.5628 44.7559 75.651 46.7403 74.0481 47.272C74.4862 48.6175 75.4019 51.3201 76.6921 54.5847C76.8038 54.5684 78.8465 54.2256 80.659 50.2638C80.9081 49.7181 81.439 49.5502 81.841 49.8883C82.2447 50.2288 82.3684 50.947 82.1176 51.495C80.4597 55.1211 78.5888 56.322 77.558 56.7184C78.24 58.3554 79.0011 60.0786 79.8292 61.8019C80.3377 61.5477 81.5094 60.7875 82.4749 58.8964C82.7446 58.3694 83.2807 58.2364 83.6706 58.6025C84.0606 58.9687 84.1568 59.6962 83.8871 60.2255C82.8494 62.2589 81.6159 63.2849 80.8067 63.7793C83.0316 68.1212 85.6601 72.2696 88.5189 74.8487L95.6417 75.0282C95.6744 74.6598 95.6932 74.2051 95.6658 73.7294C95.628 73.0881 95.5111 72.3932 95.1401 71.8942C94.7174 71.3252 93.9976 71.0804 92.8551 71.2646C92.551 71.3136 92.2504 71.141 92.0665 70.8076C92.0665 70.8076 87.9073 63.3083 85.6395 53.8898C84.5348 49.31 83.8871 44.2872 84.3355 39.4346Z" fill="white" stroke="#FF6600"/>
</svg>
