<svg width="99" height="92" viewBox="0 0 99 92" fill="none" xmlns="http://www.w3.org/2000/svg">
<path d="M92.7969 10.0625H91.1562L86.2344 6.9375V11.625H82.9531V16.3125L87.875 22.5625L89.5156 28.8125L97.7188 24.125V14.75L92.7969 10.0625Z" fill="white" stroke="#FF6600"/>
<path d="M45.0461 17.8751C43.7897 15.2546 41.9149 12.9458 39.5678 11.1287C37.2206 9.31159 34.4646 8.03527 31.5144 7.39921C28.5643 6.76316 25.4998 6.78454 22.5598 7.46171C19.6197 8.13887 16.8836 9.45352 14.5647 11.3032L22.8447 17.8751H45.0461Z" fill="white" stroke="#FF6600"/>
<path d="M20.6094 31.205V20.1698L12.2252 13.5161C9.16648 16.9022 7.48437 21.2207 7.48438 25.6874C7.48437 30.1541 9.16648 34.4726 12.2252 37.8587L20.6094 31.205Z" fill="white" stroke="#FF6600"/>
<path d="M23.8906 30.375H46.2115C47.0753 27.3041 47.0753 24.0709 46.2115 21H23.8906V30.375Z" fill="white" stroke="#FF6600"/>
<path d="M14.5647 40.0719C16.8836 41.9215 19.6197 43.2362 22.5598 43.9133C25.4998 44.5905 28.5643 44.6119 31.5144 43.9758C34.4646 43.3398 37.2206 42.0635 39.5678 40.2464C41.9149 38.4293 43.7897 36.1205 45.0461 33.5H22.8447L14.5647 40.0719Z" fill="white" stroke="#FF6600"/>
<path d="M22.3045 50.2403C22.5532 50.2847 22.7877 50.3833 22.9898 50.5283C23.1918 50.6734 23.3559 50.861 23.4692 51.0764L27.1719 58.1305L30.8746 51.0764C30.9878 50.861 31.1519 50.6734 31.354 50.5283C31.556 50.3833 31.7905 50.2847 32.0392 50.2403C38.4646 49.0856 44.2062 45.6886 48.14 40.7142C52.0738 35.7399 53.9167 29.5463 53.3078 23.3459C52.699 17.1456 49.6822 11.3849 44.8481 7.19144C40.014 2.99802 33.7107 0.673828 27.1719 0.673828C20.6331 0.673828 14.3297 2.99802 9.49561 7.19144C4.66152 11.3849 1.64478 17.1456 1.03592 23.3459C0.427056 29.5463 2.26991 35.7399 6.20375 40.7142C10.1376 45.6886 15.8792 49.0856 22.3045 50.2403ZM27.1719 3.81237C31.7147 3.81237 36.1554 5.09532 39.9326 7.49898C43.7098 9.90263 46.6538 13.319 48.3922 17.3162C50.1307 21.3133 50.5855 25.7116 49.6993 29.955C48.813 34.1983 46.6255 38.0961 43.4132 41.1553C40.201 44.2146 36.1084 46.298 31.6529 47.1421C27.1973 47.9861 22.5791 47.5529 18.3821 45.8972C14.1851 44.2416 10.5979 41.4378 8.07405 37.8405C5.55021 34.2431 4.20312 30.0138 4.20312 25.6874C4.20996 19.8878 6.63207 14.3276 10.9381 10.2266C15.2441 6.12566 21.0823 3.81889 27.1719 3.81237Z" fill="white" stroke="#FF6600"/>
<path d="M94.4375 89.75V82.7736L90.2461 80.1125C90.0214 79.9698 89.8372 79.7765 89.7098 79.5497C89.5823 79.3229 89.5156 79.0697 89.5156 78.8125V73.3133L81.9278 67.5332C81.5943 67.2785 81.3782 66.9102 81.3252 66.5063L79.6846 54.0063C79.6764 53.942 79.6721 53.8773 79.6719 53.8125V48.7832L74.75 47.6113L68.585 49.0777C68.1842 49.1727 67.7607 49.1203 67.3987 48.9311C67.0367 48.7419 66.7629 48.4297 66.6318 48.0568L65.4702 44.7412L60.3818 45.9521C60.0606 46.0285 59.7226 46.0106 59.4123 45.9006C59.1019 45.7906 58.8338 45.5938 58.6431 45.336C58.4524 45.0782 58.3481 44.7715 58.3439 44.4562C58.3396 44.1409 58.4357 43.8317 58.6194 43.5693L61.9006 38.8818C61.9604 38.7962 62.0291 38.7165 62.1057 38.6439L70.3088 30.8314C70.4612 30.6865 70.6421 30.5716 70.8411 30.4933C71.0401 30.415 71.2534 30.3748 71.4688 30.375H78.0313C78.3863 30.3746 78.7318 30.4843 79.0156 30.6875L82.9531 33.5V30.8242L75 18.7041C74.8365 18.4556 74.7499 18.1682 74.75 17.875V7.85762L61.2005 0.6875H45.898L43.9329 2.55898C48.6742 5.66803 52.3568 10.0303 54.5268 15.1082C56.6969 20.186 57.2596 25.7576 56.1456 31.1363C55.0316 36.515 52.2895 41.4658 48.2574 45.3785C44.2253 49.2912 39.0792 51.9949 33.4534 53.1564L28.6405 62.3238C28.5042 62.5834 28.2948 62.8018 28.0356 62.9544C27.7764 63.107 27.4776 63.1878 27.1729 63.1878C26.8682 63.1878 26.5695 63.107 26.3103 62.9544C26.0511 62.8018 25.8416 62.5834 25.7054 62.3238L20.8924 53.1564C17.0598 52.3606 13.4337 50.841 10.2283 48.6875L1.89191 63.4285L48.6641 67.8826C48.9053 67.9057 49.1381 67.9794 49.3458 68.0984C49.5536 68.2174 49.7311 68.3787 49.8656 68.5707L56.4281 77.9457C56.6075 78.2025 56.7032 78.5041 56.7031 78.8125V85.9781L62.3042 91.3125H95.064L94.6106 90.4488C94.4967 90.2318 94.4375 89.9926 94.4375 89.75Z" fill="white" stroke="#FF6600"/>
</svg>
