<svg width="109" height="103" viewBox="0 0 109 103" fill="none" xmlns="http://www.w3.org/2000/svg">
<path d="M14.4873 56.5456C13.5652 56.1529 12.6697 55.6979 11.8066 55.1836L9.83517 61.695C9.04948 64.1407 9.49831 66.4556 10.6977 67.9663C12.0579 69.6795 12.556 71.282 12.9556 72.5705C13.2833 73.625 13.5241 74.3995 14.1148 75.0045C15.1811 74.1205 15.7469 73.1832 15.7996 72.2144C15.9061 70.2546 14.004 68.3817 13.1811 67.6675C12.6304 67.189 12.2375 66.548 12.0563 65.8321C12.0367 65.7558 12.015 65.6797 11.9879 65.6056C11.7924 65.0613 11.7902 64.4638 11.9815 63.9179C12.6824 61.9082 14.0578 56.834 14.4873 56.5456Z" fill="white" stroke="#FF6600"/>
<path d="M92.3729 63.4372C92.5165 63.2676 92.7043 63.1434 92.9144 63.0792C93.1244 63.0149 93.348 63.0132 93.5589 63.0744C95.7344 63.6782 98.0287 63.6707 100.2 63.0529C99.8451 62.9263 99.4768 62.7809 99.0954 62.6165C95.548 61.0536 92.5086 58.489 90.3327 55.2224C87.7475 51.4122 84.587 49.0391 81.1924 48.3603C80.2076 48.1604 79.1995 48.1092 78.2002 48.2083C78.2759 48.4437 78.3108 48.5873 78.3163 48.6104C78.3525 48.76 78.3594 48.9153 78.3366 49.0676C78.3139 49.2199 78.2619 49.3661 78.1838 49.4977C78.1056 49.6293 78.0028 49.7438 77.8812 49.8346C77.7596 49.9253 77.6217 49.9906 77.4753 50.0265C77.329 50.0624 77.1772 50.0683 77.0286 50.0439C76.8801 50.0195 76.7377 49.9652 76.6097 49.8842C76.4817 49.8032 76.3707 49.697 76.2829 49.5719C76.1952 49.4467 76.1325 49.305 76.0986 49.1549C75.9857 48.7407 75.836 48.3379 75.6515 47.9515C75.6026 47.8745 75.5629 47.7918 75.5332 47.7051C74.3858 45.3935 71.1518 41.1323 62.8581 40.935C60.514 40.9036 58.1749 40.705 55.8578 40.3405C54.1425 40.0401 52.5734 39.1642 51.3974 37.8508C50.2215 36.5374 49.5055 34.8609 49.362 33.0852C49.0553 29.4459 47.9588 26.335 46.1025 23.8386C44.7172 21.976 43.4008 21.1692 43.3885 21.1613C43.1488 21.0182 42.9682 20.7906 42.8806 20.521C42.7931 20.2515 42.8045 19.9584 42.9128 19.6969C43.0211 19.4353 43.2189 19.2232 43.469 19.1002C43.7191 18.9772 44.0045 18.9518 44.2716 19.0287L46.6435 19.7115C43.3739 14.241 36.4897 11.0461 36.4117 11.0113C36.1355 10.8854 35.9194 10.6523 35.811 10.3633C35.7026 10.0743 35.7107 9.75302 35.8336 9.47016C35.9254 9.26633 36.0715 9.09315 36.2552 8.97051C36.4388 8.84788 36.6525 8.78077 36.8717 8.7769L38.4497 8.72506C32.2098 3.97333 23.5307 5.59406 23.434 5.6125C23.2753 5.64371 23.112 5.64002 22.9548 5.60168C22.7976 5.56335 22.6501 5.49124 22.5222 5.39014C22.3943 5.28904 22.2888 5.16126 22.2128 5.01526C22.1367 4.86927 22.0919 4.70839 22.0812 4.5433C22.0296 3.75291 21.4569 2.91277 20.7584 2.17725L21.0156 3.37113C21.0591 3.55659 21.0593 3.74994 21.016 3.93546C20.9727 4.12097 20.8873 4.2934 20.7666 4.4387C20.5905 4.64258 20.3504 4.77714 20.0878 4.81917C19.8251 4.8612 19.5564 4.80806 19.3279 4.66893L18.152 3.95208C18.2634 5.40723 18.2573 6.86932 18.1338 8.32344C18.1194 8.49202 18.0694 8.65539 17.9873 8.80223C17.9051 8.94907 17.7928 9.07587 17.658 9.17385C16.0203 10.3647 13.538 16.8922 12.3578 20.727C12.2948 20.9315 12.1781 21.1144 12.0204 21.2556C11.7714 21.4826 9.60476 23.5656 11.3919 25.7001C11.7169 26.111 12.1373 26.4321 12.6147 26.6339C13.0921 26.8357 13.6113 26.9119 14.1248 26.8554C14.354 26.8406 14.5776 26.7762 14.7807 26.6665C14.9839 26.5567 15.162 26.4041 15.3032 26.2187C15.6214 25.7671 15.9206 24.8016 15.5482 22.7657C15.4922 22.4555 15.556 22.1352 15.7262 21.8722C15.8964 21.6092 16.1596 21.4242 16.4604 21.356C16.756 21.3019 17.0604 21.3693 17.3077 21.5435C17.555 21.7178 17.7252 21.9848 17.7814 22.2868C17.8948 22.8807 17.9645 23.4825 17.9899 24.087C19.5238 23.5932 21.9338 22.354 22.8552 19.3288C22.9013 19.1771 22.977 19.0367 23.0779 18.9161C23.1788 18.7954 23.3026 18.6971 23.4419 18.6272C23.5812 18.5573 23.7329 18.5171 23.8878 18.5093C24.0427 18.5015 24.1976 18.526 24.3429 18.5816C25.9852 19.3307 27.2696 20.7171 27.9135 22.4357C29.0828 25.414 28.5692 29.2757 26.3873 33.9134C22.9613 41.1944 22.4401 45.5857 22.4342 47.5552C22.4259 48.377 22.1292 49.1683 21.5984 49.7848C21.0676 50.4013 20.338 50.8019 19.5428 50.9134C17.3013 51.2282 14.1686 50.4854 9.83305 49.4573L9.79588 49.4485C8.50525 49.1423 7.42239 49.2773 6.57671 49.8501C5.4081 50.6412 4.89313 52.094 4.71432 52.7417C4.64773 52.9825 4.57201 53.2206 4.49264 53.4574L2.48565 59.457C2.21928 60.2028 1.90767 60.9309 1.55263 61.6369C0.781536 63.2516 1.93692 66.0994 2.35086 67.0161C2.79215 67.9878 3.09882 69.0178 3.26199 70.0763L3.87503 74.1327C4.17163 74.0895 4.45661 73.9853 4.71277 73.8262C4.96893 73.6672 5.19096 73.4567 5.36545 73.2073C5.9509 72.2864 5.89 70.6543 5.19007 68.4874C5.11525 68.2524 4.96606 68.0496 4.76609 67.9111C4.2129 67.5363 3.78183 67.0008 3.52831 66.3732C3.27479 65.7456 3.21039 65.0548 3.34341 64.3894C5.06349 55.7177 8.02448 53.1814 10.2057 52.5788C10.6106 52.4689 11.0331 52.4455 11.4472 52.51C11.8612 52.5746 12.2579 52.7256 12.6125 52.9538C15.299 54.6315 18.3162 55.6769 21.4458 56.0143C26.9666 56.5919 32.195 54.79 36.9874 50.6582C37.2051 50.4614 37.4861 50.3538 37.7765 50.3561C38.0669 50.3583 38.3463 50.4703 38.561 50.6706C38.6758 50.784 38.7661 50.9207 38.8261 51.0721C38.886 51.2234 38.9143 51.3859 38.9091 51.5491C38.9039 51.7124 38.8653 51.8726 38.7958 52.0196C38.7263 52.1666 38.6274 52.297 38.5056 52.4025C37.1077 53.6226 35.5939 54.6963 33.9869 55.6075C34.8498 57.0532 35.9446 58.3394 37.2255 59.4121C40.6465 62.3253 45.4231 64.0051 51.094 64.3051C51.091 64.2185 51.0887 64.1326 51.0874 64.0483C51.0342 60.6812 52.0587 58.3663 52.1025 58.2694C52.1646 58.1291 52.2531 58.0028 52.363 57.8978C52.473 57.7927 52.6021 57.7109 52.743 57.6571C52.8839 57.6034 53.0339 57.5787 53.1842 57.5845C53.3344 57.5903 53.4821 57.6264 53.6187 57.6909C53.7553 57.7554 53.878 57.8469 53.9799 57.9601C54.0818 58.0734 54.1608 58.2061 54.2124 58.3508C54.264 58.4954 54.2871 58.6491 54.2804 58.8029C54.2738 58.9567 54.2375 59.1077 54.1736 59.2471C54.034 59.563 50.8018 67.1545 58.1714 74.5154C58.2089 74.5529 58.2439 74.593 58.276 74.6354C59.1783 75.8676 59.9761 77.1765 60.6607 78.5477C62.202 81.6472 62.6871 84.2645 62.1023 86.3268C61.5912 88.1301 60.3104 89.4216 58.2959 90.1648C55.9856 91.0171 55.0708 92.1318 54.0114 93.4226L53.7462 93.7451C53.6266 93.8889 53.4748 94.001 53.3038 94.0717C53.1327 94.1424 52.9475 94.1697 52.7639 94.1512C52.7117 94.1458 47.894 93.714 45.9552 96.5772L46.4852 96.7278C46.7419 96.7952 46.9693 96.9481 47.1318 97.1624C47.281 97.3666 47.361 97.6152 47.3594 97.8703C47.3579 98.1254 47.275 98.3729 47.1233 98.5753L45.383 100.895C46.0247 101.648 47.3822 102.719 49.5012 101.858L51.052 98.3486C51.1249 98.1836 51.2342 98.0382 51.3713 97.9239C51.5085 97.8097 51.6697 97.7296 51.8423 97.6901L55.373 96.8819C56.1358 95.7202 56.976 94.6137 57.8874 93.5702C60.1984 90.9359 62.4465 89.3955 64.5698 88.9915C66.6817 88.5894 68.1415 87.7171 68.68 86.5351C69.1395 85.5271 68.9564 84.2617 68.1363 82.7739C65.5486 78.0805 67.1118 72.313 69.4283 70.7173C69.6192 70.5856 69.8552 70.4408 70.1284 70.2736C72.7175 68.6833 78.7804 64.9594 78.7357 54.0426C78.7348 53.8448 78.7831 53.6501 78.8759 53.4766C78.9686 53.3031 79.1029 53.1567 79.2662 53.0509C79.7297 52.7739 80.2534 52.6196 80.7899 52.6019C81.3263 52.5841 81.8586 52.7035 82.3387 52.9493C84.394 54.0073 85.5893 57.1948 85.993 62.694C86.3109 67.0231 87.7062 69.9944 90.2578 71.7772C93.5676 74.0888 98.9488 74.4015 106.293 72.7156C99.1627 70.6351 92.8512 65.3767 92.52 65.0976C92.4028 64.9993 92.3058 64.8781 92.2348 64.7409C92.1637 64.6038 92.1201 64.4536 92.1064 64.299C92.0927 64.1444 92.1092 63.9886 92.155 63.8407C92.2008 63.6927 92.2748 63.5556 92.3729 63.4372Z" fill="white" stroke="#FF6600"/>
</svg>
