<svg width="107" height="102" viewBox="0 0 107 102" fill="none" xmlns="http://www.w3.org/2000/svg">
<path d="M89.5427 71.9064C87.2297 52.6694 66.3009 44.6272 46.8614 43.4219C46.3163 45.0688 45.495 46.5586 44.4061 47.7742C39.2954 54.1171 30.9673 58.9121 17.239 57.8115C17.8577 61.4366 19.4989 65.6807 22.8092 69.909C28.7459 77.4982 28.3625 78.4497 25.3887 85.859C24.7109 88.0636 23.3579 90.2603 21.52 91.5862C19.8462 93.0396 17.9493 94.6888 18.4763 97.796C18.8851 100.775 24.6832 100.736 29.7083 100.521C32.7412 100.417 34.7237 100.126 37.1838 95.6563C39.0241 92.9406 41.0753 90.7246 42.8058 85.068C45.6422 86.6227 49.2117 87.5799 50.7529 87.8804C51.5138 88.8774 52.4568 89.854 53.5735 90.8043C50.1258 91.2402 44.6316 92.3738 41.9376 95.275C40.722 96.3187 39.0301 100.754 41.5191 101H69.5207C82.043 100.129 91.6048 88.709 89.5427 71.9064Z" fill="white" stroke="#FF6600"/>
<path d="M103.929 74.5464C101.525 71.8718 97.1775 70.8827 91.9474 71.7477C93.2196 82.501 90.1023 89.6281 86.6775 94.0646C93.7876 96.6642 102.201 93.2087 104.593 86.5983C107.219 80.1678 105.683 76.4949 103.929 74.5464Z" fill="white" stroke="#FF6600"/>
<path d="M49.1755 7.51848C49.1514 4.13247 48.5195 1.89373 48.5002 1.82885C48.4073 1.51814 48.177 1.25864 47.8707 1.11637C47.5632 0.97296 47.205 0.962717 46.889 1.08222C42.8142 2.63353 31.3772 7.98967 27.6353 20.0996C29.7758 20.1008 32.0188 20.342 34.0423 20.9054C37.3827 14.1425 43.2291 10.0076 49.1755 7.51848Z" fill="white" stroke="#FF6600"/>
<path d="M67.8734 7.45048C67.9639 6.79946 67.373 6.17347 66.6747 6.18941C60.4847 6.14047 39.217 7.95127 31.8802 28.8773C30.9649 27.8325 32.7931 23.8888 33.1042 23.0272C27.481 21.6842 21.6985 22.3944 16.1742 24.6252C9.95284 27.1747 -0.708746 37.6343 1.23279 46.389C2.48575 52.9163 10.3218 55.8516 20.7712 55.6501C33.0801 55.6501 37.993 51.4082 42.5635 46.3047C45.1466 43.4207 45.9147 38.6347 44.6666 34.1242C42.7335 34.1868 38.965 34.2813 38.1594 34.1424C64.9732 29.7617 67.8457 7.6747 67.8722 7.44934L67.8734 7.45048ZM18.7995 36.8558C15.9981 36.7886 15.9981 32.9132 18.7995 32.8461C21.6009 32.9132 21.5997 36.7886 18.7995 36.8558Z" fill="white" stroke="#FF6600"/>
</svg>
