<svg width="95" height="86" viewBox="0 0 95 86" fill="none" xmlns="http://www.w3.org/2000/svg">
<path d="M21.4822 55.0271C18.9458 54.3086 17.4899 51.7527 18.2452 49.3367C19.0028 46.9131 21.6852 45.5373 24.2194 46.2556C26.755 46.9744 28.2102 49.5308 27.4555 51.9463C26.701 54.3601 24.0174 55.7455 21.4822 55.0271ZM12.5925 53.5199C12.3232 50.4353 13.3603 47.3769 15.2322 44.8732C16.5964 43.0486 18.4007 41.5285 20.5153 40.5371L20.8754 40.3683L20.9373 40.7459C21.0302 41.3111 21.0782 41.8826 21.0782 42.4547C21.0782 43.3701 22.5377 43.3707 22.5377 42.4547C22.5377 41.5015 22.4364 40.7855 22.2504 39.8634C23.4401 39.5308 24.3949 39.3365 25.6896 39.3365C30.8251 39.3365 34.5559 42.9425 34.9833 47.8388C35.2526 50.9236 34.2163 53.982 32.3435 56.4855C30.8014 58.547 28.6868 60.2242 26.2177 61.1822C19.7001 63.7111 13.1843 60.2982 12.5925 53.5199ZM22.8474 56.6084C27.5769 56.6084 30.6178 51.7728 28.3589 47.8006C27.5617 46.3988 26.24 45.3773 24.6357 44.9228C21.3302 43.9863 17.8275 45.7918 16.8446 48.9402C15.652 52.7601 18.6798 56.6084 22.8474 56.6084ZM26.5204 65.1916C25.9974 64.6422 25.5676 64.1365 25.2308 63.6744C21.459 66.5222 19.9888 71.1881 20.8606 77.5642C20.9344 78.1041 21.4506 78.475 22.009 78.4064C22.5708 78.3369 22.9663 77.8466 22.8925 77.3127C22.1118 71.5867 23.2988 67.6103 26.5204 65.1916ZM13.8018 43.9033C13.8018 43.9033 14.2509 43.3767 15.149 42.324C11.0304 39.0377 4.78228 39.6113 1.42699 43.7021C0.896252 44.3492 1.40443 45.2806 2.23254 45.2806C2.92776 45.2806 3.11663 44.7273 3.80836 44.1054C6.62388 41.575 10.9613 41.5138 13.8525 43.8375C13.8365 43.8603 13.8201 43.8812 13.8018 43.9033ZM40.6029 37.858L40.7786 37.8709C45.5163 30.8465 51.5926 25.4009 59.4005 21.649L59.5377 21.5115C61.2192 17.8828 62.3018 13.823 61.7216 9.84098C61.2429 6.55504 59.7559 1.92282 55.9831 0.868912C52.0362 -0.233823 47.9036 3.19333 45.5452 5.81266C39.6168 12.3972 35.3178 20.0386 34.1653 28.7267C33.7168 32.1074 33.7758 35.1736 34.2171 38.5459C36.4238 37.9367 38.3212 37.692 40.6029 37.858ZM7.79446 31.8224C8.35433 31.742 8.92465 31.7007 9.49128 31.7007C14.3924 31.7007 18.5742 34.6922 20.1299 38.8595C21.4114 38.4047 22.0523 38.1773 22.0523 38.1773C19.9414 32.5722 13.9087 28.9584 7.48726 29.8918C6.15343 30.0857 6.45982 32.0142 7.79446 31.8224ZM93.1203 21.756C90.9256 17.324 84.3239 17.1009 79.8173 17.5716C62.5118 19.3795 48.6352 26.8498 40.1849 41.5476C39.0324 43.5523 40.4103 45.9935 42.8015 46.1851C48.8208 46.6675 55.0576 46.4965 61.0467 45.765C69.9932 44.6724 81.2637 41.8923 87.9037 35.732C90.0788 33.714 92.026 31.2013 93.0602 28.4623C93.8647 26.3312 94.165 23.8656 93.1203 21.756ZM35.8126 70.2132C36.4381 75.7492 32.8632 79.4316 26.6135 81.9328C25.5844 82.3447 25.902 83.8103 27.0109 83.8103C27.1415 83.8103 27.2769 83.7857 27.4065 83.7336C34.3047 80.967 38.378 76.6853 37.8944 70.4922C37.2336 70.4924 36.5397 70.3994 35.8126 70.2132ZM68.3585 52.5761C69.0052 50.2902 69.1807 48.2384 68.7404 45.909C64.0427 46.9066 59.8218 47.4103 55.0016 47.6943L55.1525 48.055C57.8715 54.555 55.8705 62.0406 50.1521 66.5451L49.9331 66.7175C50.5042 67.4289 50.962 67.949 51.658 68.5732L51.7616 68.6662C59.6696 67.5787 66.3761 59.584 68.3585 52.5761ZM80.6105 53.1015L80.5552 54.2519C80.185 61.9424 74.6544 69.8392 67.5561 73.4355L66.6043 73.9177L67.6812 73.9648C70.9924 74.1093 74.467 73.866 77.7066 73.1851C79.5505 72.7976 82.4261 72.0177 83.8942 70.7927C84.0009 70.7037 84.0577 70.5892 84.062 70.4543C84.2349 64.9785 83.5528 59.1609 81.1181 54.1468L80.6105 53.1015ZM78.7972 50.4254L78.7451 50.3148C77.037 48.122 74.8948 46.3394 72.3297 45.1152L72.2273 45.0664L70.4292 45.5246L70.1602 45.5892L70.2112 45.849C71.1712 50.7259 69.0474 56.1591 66.2762 60.1933C63.408 64.3685 59.0096 68.3031 53.8581 69.6697L53.2379 69.8342L53.7736 70.1744C56.5916 71.9648 59.9793 72.9908 63.2997 73.5246L63.4248 73.5191C72.7439 71.1541 80.8314 59.7826 78.7972 50.4254ZM46.797 68.9256C49.6247 74.6644 47.2287 79.4025 41.2497 83.5799C40.4489 84.1394 40.8756 85.3439 41.8565 85.3439C42.0677 85.3439 42.281 85.2826 42.4633 85.1547C49.2859 80.3757 51.9511 74.6377 48.5888 67.9716C48.1393 68.28 47.5419 68.598 46.797 68.9256ZM46.238 67.3269C45.0036 65.4308 43.7879 64.0181 42.1469 62.424C41.4749 61.7711 42.5185 60.7968 43.1916 61.4506C44.9126 63.1218 46.2208 64.6537 47.5072 66.6478L47.7611 66.491C52.1945 63.7529 54.8874 59.0867 54.8874 54.0381C54.8874 51.7855 54.4024 49.8117 53.4321 47.7658C49.8139 47.9007 46.2969 47.8607 42.6791 47.5711C39.2434 47.2959 37.2474 43.7599 38.9042 40.8797L39.9089 39.2013C37.1403 39.2013 35.5001 39.4675 32.8673 40.5177L33.1838 40.8142C35.1554 42.6621 36.2123 45.1156 36.4392 47.7236C36.7359 51.1359 35.607 54.5211 33.5336 57.2924C31.8548 59.5361 29.5651 61.3507 26.8887 62.4142L26.5417 62.5521L26.7646 62.8404C28.8773 65.574 31.877 67.53 35.3239 68.389L35.8124 68.5107C35.0811 65.8568 34.1515 63.9197 32.6655 61.559C32.1721 60.775 33.4247 60.0597 33.9181 60.8439C35.5024 63.3613 36.7195 65.8748 37.3514 68.7599C40.3654 69.0775 43.1553 68.7127 45.9386 67.4613L46.238 67.3269Z" fill="white" stroke="#FF6600"/>
</svg>
