<svg width="80" height="80" viewBox="0 0 80 80" fill="none" xmlns="http://www.w3.org/2000/svg">
<path d="M61.1907 17.053C61.1907 18.2144 60.2458 19.1593 59.0844 19.1593C57.923 19.1593 56.9781 18.2144 56.9781 17.053C56.9781 15.8917 57.923 14.9468 59.0844 14.9468C60.2458 14.9468 61.1907 15.8917 61.1907 17.053Z" fill="white" stroke="#FF6600"/>
<path d="M19.4906 14.9469H20.4914L16.9045 20.4504L16.9041 20.4511C16.3359 21.3262 16.2901 22.4407 16.7869 23.3583C17.2839 24.2765 18.2452 24.8469 19.2875 24.8469H25.8922C27.4619 24.8469 28.7359 23.5748 28.7359 22.0031C28.7359 20.4332 27.4621 19.1594 25.8922 19.1594H24.535L28.1202 13.6562C28.6913 12.7815 28.7345 11.6648 28.2381 10.7479C27.7412 9.82989 26.7816 9.25937 25.7375 9.25937H19.4906C17.9192 9.25937 16.6469 10.5317 16.6469 12.1031C16.6469 13.6728 17.919 14.9469 19.4906 14.9469ZM18.8283 75.8123H19.3283V75.3123V61.1717V60.6717H18.8283H11.7562H11.2562V61.1717V75.3123V75.8123H11.7562H18.8283ZM28.2422 75.8125H28.7422V75.3125V61.1719V60.6719H28.2422H23.5156H23.0156V61.1719V75.3125V75.8125H23.5156H28.2422ZM56.4844 75.8125H56.9844V75.3125V61.1719V60.6719H56.4844H51.7578H51.2578V61.1719V75.3125V75.8125H51.7578H56.4844ZM68.2438 75.8125H68.7438V75.3125V61.1719V60.6719H68.2438H61.1719H60.6719V61.1719V75.3125V75.8125H61.1719H68.2438ZM68.2438 56.9844H68.7438V56.4844V34.1063V33.6063H68.2438H11.7562H11.2562V34.1063V56.4844V56.9844H11.7562H28.2422H28.7422V56.4844V50.5891C28.7422 45.3643 32.321 40.9575 37.1562 39.696V75.3125V75.8125H37.6562H42.3438H42.8438V75.3125V39.6963C47.6805 40.9604 51.2578 45.3659 51.2578 50.5891V56.4844V56.9844H51.7578H68.2438ZM11.7188 0.5H68.2812C74.4676 0.5 79.5 5.53239 79.5 11.7188V77.6562C79.5 78.6739 78.6739 79.5 77.6562 79.5H2.34375C1.32614 79.5 0.5 78.6739 0.5 77.6562V11.7188C0.5 5.53244 5.53391 0.5 11.7188 0.5ZM66.8781 17.0531C66.8781 12.7551 63.3824 9.25937 59.0844 9.25937C54.7864 9.25937 51.2906 12.7551 51.2906 17.0531C51.2906 21.3511 54.7864 24.8469 59.0844 24.8469C63.3824 24.8469 66.8781 21.3511 66.8781 17.0531ZM47.7203 17.0531C47.7203 12.7551 44.2246 9.25937 39.9266 9.25937C35.6285 9.25937 32.1328 12.7551 32.1328 17.0531C32.1328 21.3511 35.6285 24.8469 39.9266 24.8469C44.2246 24.8469 47.7203 21.3511 47.7203 17.0531Z" fill="white" stroke="#FF6600"/>
<path d="M42.0328 17.053C42.0328 18.2144 41.0879 19.1593 39.9266 19.1593C38.7652 19.1593 37.8203 18.2144 37.8203 17.053C37.8203 15.8917 38.7652 14.9468 39.9266 14.9468C41.0879 14.9468 42.0328 15.8917 42.0328 17.053Z" fill="white" stroke="#FF6600"/>
</svg>
