<svg width="103" height="84" viewBox="0 0 103 84" fill="none" xmlns="http://www.w3.org/2000/svg">
<path d="M2.14012 71.6353L19.0241 72.1753C21.5021 73.1153 27.0671 70.9553 27.0671 70.9553C29.0201 70.8753 29.8811 70.3553 33.2621 71.0353C36.2021 71.6153 40.3811 70.9553 40.3811 70.9553C43.8461 70.5953 54.3881 71.7353 54.3881 71.7353C57.0131 73.8153 59.3861 71.6753 60.8561 74.5753C61.2341 75.2953 61.6121 75.7353 61.6121 75.7353C61.6808 75.7693 61.7778 75.7959 61.8564 75.8275C61.2495 77.1565 62.0567 79.1097 63.0569 79.5657C66.0927 80.9503 75.7056 80.7679 77.5555 80.8143C77.7638 80.8195 77.9629 80.8657 78.1616 80.9255C79.4403 81.3101 81.7807 81.3623 82.6951 81.3675C82.9586 81.3689 83.2175 81.4313 83.4647 81.5189C84.4586 81.8719 84.9811 81.7715 85.2285 81.6537C85.3747 81.5841 85.5355 81.5725 85.6888 81.6259C87.1836 82.1463 89.6505 81.6891 90.3078 81.5519C90.4197 81.5285 90.5344 81.5499 90.6375 81.5977C92.3326 82.3835 92.0877 80.4243 92.0877 80.4243C92.3465 80.4335 92.5693 80.4977 92.8085 80.5367C94.4074 80.8041 95.6178 81.6531 96.7199 82.6667C96.7195 82.6613 96.718 82.6569 96.7176 82.6513C96.7197 82.6533 96.722 82.6549 96.7243 82.6569C96.6914 82.0861 96.5557 81.6081 96.3673 81.1821C96.3459 81.1335 96.3316 81.0781 96.3085 81.0313C96.2291 80.8713 96.1317 80.7301 96.0334 80.5895C95.9864 80.5219 95.9448 80.4487 95.8938 80.3853C95.8014 80.2713 95.6976 80.1707 95.5933 80.0699C95.517 79.9959 95.4433 79.9199 95.3616 79.8527C95.2669 79.7755 95.1663 79.7069 95.0649 79.6385C94.9545 79.5633 94.8436 79.4899 94.726 79.4243C94.6413 79.3777 94.555 79.3351 94.4673 79.2931C94.3144 79.2193 94.1594 79.1513 93.9987 79.0909C93.9391 79.0689 93.8801 79.0475 93.8196 79.0273C93.6107 78.9561 93.3986 78.8943 93.182 78.8423C93.1697 78.8393 93.1575 78.8363 93.1451 78.8333C93.0416 78.8091 92.9397 78.7789 92.8353 78.7585L92.828 78.7749C90.6148 78.3541 88.2851 78.7865 88.2851 78.7865C87.0868 77.9431 81.669 78.4889 81.669 78.4889C80.4092 77.6641 77.6622 77.0151 76.3949 76.7473C75.9711 76.6577 75.5402 76.6209 75.1067 76.5977C72.7852 76.4737 70.2461 75.6769 69.0646 75.2643C69.1574 75.0651 69.1944 74.8661 69.1933 74.6731C70.6572 75.2547 72.6944 75.5863 74.8314 75.7633C78.6055 76.0785 82.6306 75.9263 84.1052 75.8487C84.2356 75.8403 84.3465 75.8175 84.4439 75.7847C84.7312 75.6927 84.8961 75.5147 85.0947 75.3659C85.1006 75.3615 85.1061 75.3567 85.1124 75.3523C85.1325 75.3377 85.1573 75.3269 85.1783 75.3129C85.2308 75.2787 85.2825 75.2439 85.3434 75.2171C85.3757 75.2029 85.4186 75.1969 85.4543 75.1857C85.5108 75.1675 85.5639 75.1465 85.6311 75.1371C85.6878 75.1293 85.763 75.1359 85.8293 75.1353C85.8946 75.1351 85.9505 75.1271 86.0265 75.1357C86.0307 75.1361 86.0364 75.1379 86.0406 75.1383C86.1878 75.1557 86.3547 75.1893 86.55 75.2459C86.6735 75.2735 86.7939 75.2607 86.9148 75.2561C87.1584 75.2503 87.397 75.2009 87.6013 75.0593C87.636 75.0353 87.6874 75.0243 87.7269 75.0037C88.2552 74.7377 89.1255 74.7263 89.1255 74.7263C89.4375 74.8543 89.6973 74.9055 89.9378 74.9331C90.5871 75.0123 90.9926 74.7939 91.2408 74.5177C91.3246 74.4283 91.4059 74.3365 91.4607 74.2483C91.4867 74.1989 91.5434 74.1677 91.5816 74.1247C91.648 74.0535 91.7047 73.9709 91.7916 73.9287C91.7937 73.9277 91.7969 73.9275 91.799 73.9265C91.9235 73.8679 92.0657 73.8561 92.2087 73.8721C92.2287 73.8747 92.2486 73.8691 92.2681 73.8739C93.294 74.0611 94.9091 74.7261 94.9091 74.7261C94.9045 74.7221 94.9001 74.7197 94.8954 74.7157L94.9015 74.7181C94.4899 74.3531 94.0844 74.0571 93.6833 73.7911C93.6039 73.7383 93.525 73.6845 93.446 73.6353C93.0458 73.3863 92.6531 73.1783 92.2698 73.0133C92.262 73.0101 92.2541 73.0041 92.2463 73.0009C92.2284 72.9933 92.2123 72.9911 92.1946 72.9837C91.7963 72.8167 91.4084 72.6869 91.035 72.5957C91.0308 72.5947 91.0264 72.5931 91.0222 72.5921C90.644 72.5003 90.2828 72.4447 89.9369 72.4147C89.9081 72.4123 89.8809 72.4105 89.8523 72.4083C89.1673 72.3571 88.5553 72.4059 88.0394 72.5021C88.0261 72.5045 88.0133 72.5067 88.0003 72.5091C86.9497 72.7107 86.306 73.0809 86.306 73.0809C86.0765 73.1659 85.7821 73.2239 85.4643 73.2713C83.8028 73.5137 81.1904 73.3069 79.8718 73.1673C79.4573 73.1257 79.0425 73.0011 78.6933 72.7931C77.23 71.9221 73.2917 70.9325 70.7958 70.3593C71.8668 68.7837 72.9366 67.2679 75.3052 66.4747C75.6202 66.3747 75.8932 66.2747 76.1872 66.1547C90.1312 61.2147 100.085 49.1747 101.513 35.1147C101.639 33.8747 101.744 32.7147 101.786 31.6147C101.093 31.8547 100.358 31.9547 99.5392 31.9547C98.8882 31.9547 98.2162 31.8947 97.5442 31.8147C97.0192 31.7547 96.4942 31.6947 95.9692 31.6947C95.1922 31.7347 94.5832 32.1147 94.4782 32.2947L94.8352 33.8547L93.3442 34.3947C92.6722 34.7147 91.8952 34.8747 91.0762 34.8747C89.8582 34.8747 88.6612 34.5347 87.6112 34.2347C86.8342 34.0147 86.0362 33.7747 85.4692 33.7747C85.1542 33.7747 85.0702 33.8547 84.965 33.9747L84.797 34.1947C84.146 35.0347 83.348 35.8747 81.353 35.8747L80.996 35.8547C79.379 35.8347 77.636 35.8147 75.872 35.2547C71.63 33.8747 71.147 30.8947 70.916 29.6147C70.8952 29.4747 70.874 29.3747 70.853 29.2747C70.706 28.6347 70.37 28.1347 69.824 27.5947C69.677 29.8947 70.643 34.1747 74.57 42.1747C77.825 48.7747 74.864 54.7947 69.803 57.3947C53.57 65.7947 47.207 58.7547 39.122 58.7547C38.366 58.7147 36.35 58.7947 33.053 58.0147L33.032 58.0345C32.633 57.9345 31.205 57.6145 29.945 57.1745C23.015 61.2145 8.98696 66.8345 1.74196 69.6745C0.691335 70.0953 0.964125 71.5953 2.14012 71.6353Z" fill="white" stroke="#FF6600"/>
<path d="M76.5013 27.6755C77.9503 27.9555 80.1973 27.2155 81.7093 21.3755C79.8708 23.0815 79.7213 22.7909 79.5043 22.9355C78.5791 23.2267 76.9877 24.3827 76.5013 27.6755Z" fill="white" stroke="#FF6600"/>
<path d="M74.4642 27.1756C74.743 27.259 75.1903 22.2834 78.8532 21.0356C78.8532 21.0356 82.3812 18.7956 82.7382 15.8356L82.7592 15.8556C82.7592 14.8756 84.3762 14.3756 82.5702 12.7556C75.5352 6.41559 70.5162 7.91559 71.3142 11.7956C70.4918 15.7218 70.4966 24.859 74.4642 27.1756Z" fill="white" stroke="#FF6600"/>
<path d="M95.7794 29.6955C97.8584 29.6555 99.9584 30.4755 101.869 29.4355C102.835 4.11552 87.4214 2.77552 86.1194 1.85552C75.6402 -0.424478 71.2094 5.49552 71.2094 5.49552C70.6214 6.11552 70.3904 6.99552 70.3484 7.91552C71.2514 6.95552 72.5954 6.43552 74.1704 6.43552C77.0474 6.43552 80.5334 8.17552 84.0194 11.2955C85.7834 12.8955 85.6574 14.3555 85.3004 15.2555L85.5104 15.0555L83.7464 21.8555C82.4024 27.0755 80.1344 29.7155 77.0264 29.7155C76.7744 29.7155 76.5224 29.6955 76.2914 29.6555L76.1864 30.5355L73.3724 28.8755C73.1834 28.7555 72.9944 28.6355 72.8054 28.4955C72.8474 28.6155 72.8894 28.7155 72.9104 28.8355C73.1624 29.8955 73.0784 32.2355 76.5224 33.3555C77.9924 33.8155 79.5464 33.8355 81.1004 33.8555C82.6544 33.9155 82.6964 33.4755 83.3684 32.6755C85.6152 30.1755 89.6474 33.8555 92.4402 32.5955C92.0622 30.9955 94.0572 29.7755 95.7794 29.6955ZM89.6984 15.2343C87.8414 15.2343 86.3359 13.5591 86.3359 11.4929C86.3359 9.42672 87.8414 7.75212 89.6984 7.75212C91.5555 7.75212 93.0609 9.42672 93.0609 11.4929C93.0609 13.5591 91.5555 15.2343 89.6984 15.2343Z" fill="white" stroke="#FF6600"/>
<path d="M89.6983 9.4502C88.6842 9.4502 87.8621 10.3648 87.8621 11.493C87.8621 12.6212 88.6842 13.536 89.6983 13.536C90.7124 13.536 91.5345 12.6212 91.5345 11.493C91.5345 10.3648 90.7124 9.4502 89.6983 9.4502ZM90.2 12.1232C89.7561 12.1232 89.3959 11.7804 89.3959 11.3576C89.3959 10.9346 89.7558 10.5918 90.2 10.5918C90.6441 10.5918 91.0041 10.9346 91.0041 11.3576C91.0043 11.7804 90.6441 12.1232 90.2 12.1232Z" fill="white" stroke="#FF6600"/>
<path d="M69.4138 23.7601C69.4222 23.7537 69.4266 23.7439 69.435 23.7373C56.482 29.4083 49.9071 35.3333 44.9288 37.1935C38.1305 39.7335 36.3642 43.3931 31.6743 45.9033C27.1935 48.2239 24.6485 46.8207 20.0048 50.3971C19.9894 50.4089 19.9747 50.4179 19.9592 50.4299C19.7702 50.5699 19.8542 50.8699 20.1062 50.9101C24.6844 51.6937 24.9652 53.8215 32.3912 55.8101C32.3962 55.8053 32.3996 55.8027 32.4048 55.7977C34.5968 56.3789 36.9152 56.7723 38.9898 56.7611C45.7086 56.7247 47.6786 59.4399 54.4464 59.3283C54.4448 59.3335 54.4429 59.3385 54.4412 59.3437C57.8936 59.2905 64.4227 57.9015 68.802 55.6439C72.6877 53.6411 75.0911 48.8595 73.2763 44.2947C72.6001 42.6001 64.2182 27.7413 69.4411 23.7477C69.4314 23.7515 69.4232 23.7559 69.4138 23.7601Z" fill="white" stroke="#FF6600"/>
</svg>
