<svg width="107" height="101" viewBox="0 0 107 101" fill="none" xmlns="http://www.w3.org/2000/svg">
<path fill-rule="evenodd" clip-rule="evenodd" d="M53.4683 84.6229C48.978 84.6229 44.4261 82.6896 39.0746 78.5889C34.5843 75.1911 26.2188 64.5877 26.2188 56.5619C26.2188 46.7201 38.4595 38.6357 53.4683 38.6357C68.5386 38.6357 80.7794 46.7201 80.7794 56.5619C80.7794 64.5877 72.4138 75.1911 67.9235 78.5889C62.572 82.6896 57.9586 84.6229 53.4683 84.6229ZM53.4683 80.7564C49.6546 80.7564 45.8409 78.999 41.289 75.5426C40.0588 74.6053 41.5966 72.7892 42.8268 73.7265C51.0694 80.0534 55.8673 80.0534 64.1713 73.7265C65.4015 72.7892 66.8778 74.6053 65.6476 75.5426C61.0957 78.999 57.282 80.7564 53.4683 80.7564ZM31.9393 58.6123C31.2627 58.6123 30.7706 58.0851 30.7706 57.4992C30.7706 49.1806 40.9815 42.4436 53.4683 42.4436C55.0676 42.4436 55.0676 44.7283 53.4683 44.7283C42.2732 44.7283 33.1695 50.4694 33.1695 57.4992C33.1695 58.0851 32.6159 58.6123 31.9393 58.6123Z" fill="white" stroke="#FF6600"/>
<path fill-rule="evenodd" clip-rule="evenodd" d="M87.73 38.05L83.1782 31.1373C74.9357 18.6007 78.8724 7.3529 79.0569 6.88424C79.426 5.82976 81.0868 5.88834 81.3329 7.0014C83.4242 15.1443 86.5613 17.3705 87.9761 17.9563C90.375 9.93052 82.7476 3.07639 82.6246 2.95922C81.7634 2.19765 82.5016 0.791679 83.6703 1.02601C86.6228 1.55325 89.2678 2.7249 90.9901 3.60363C100.463 8.58313 106.245 30.8444 102.308 36.5855C101.755 32.9534 91.1132 29.9071 87.73 38.05Z" fill="white" stroke="#FF6600"/>
<path fill-rule="evenodd" clip-rule="evenodd" d="M79.9182 47.9504C82.0711 45.9586 85.3927 43.6153 89.391 43.1466C89.76 43.088 90.1906 43.2638 90.4367 43.4981C91.1133 44.2011 94.4349 47.9504 93.3892 50.7037C93.2047 51.1138 90.4367 54.3944 82.8092 56.7963C82.8092 53.5743 81.7636 50.5866 79.9182 47.9504Z" fill="white" stroke="#FF6600"/>
<path fill-rule="evenodd" clip-rule="evenodd" d="M24.1887 56.7963C16.5612 54.3944 13.7932 51.1138 13.6087 50.7037C12.5015 47.9504 15.8846 44.2011 16.5612 43.4981C16.8073 43.2638 17.1764 43.088 17.6069 43.1466C21.6052 43.6153 24.9268 46.0171 27.0797 47.9504C25.1728 50.5866 24.1887 53.5743 24.1887 56.7963Z" fill="white" stroke="#FF6600"/>
<path fill-rule="evenodd" clip-rule="evenodd" d="M4.68954 36.5855C3.52082 34.9452 3.15176 32.0746 3.58234 27.9739C4.87408 18.3664 9.24139 7.17715 16.0076 3.60363C17.6685 2.7249 20.3134 1.55325 23.3275 1.02601C24.4962 0.791679 25.2344 2.19765 24.3117 2.95922C24.2502 3.01781 16.5612 9.93052 18.9602 17.9563C20.4365 17.3705 23.512 15.2029 25.6034 7.0014C25.911 5.88834 27.5103 5.77118 27.9409 6.88424C28.1254 7.3529 32.0621 18.6007 23.8196 31.1373L19.2678 38.05C17.0533 32.719 11.6403 31.606 6.28884 34.3593C5.42768 34.828 4.81256 35.6482 4.68954 36.5855Z" fill="white" stroke="#FF6600"/>
<path fill-rule="evenodd" clip-rule="evenodd" d="M88.8372 41.2722C89.3908 38.5188 90.867 34.7695 95.2343 34.7695C96.0955 34.7695 100.278 35.4139 100.34 36.9957C100.34 37.2886 100.524 44.2013 95.6034 49.1222C95.4189 46.6032 93.5735 43.967 91.9127 42.2095C91.0516 41.3307 90.0059 41.155 88.8372 41.2722Z" fill="white" stroke="#FF6600"/>
<path fill-rule="evenodd" clip-rule="evenodd" d="M11.3945 49.1222C6.47354 44.2013 6.59657 37.2886 6.65808 36.9957C6.65808 35.4139 10.8409 34.7695 11.702 34.7695C16.0693 34.7695 17.5456 38.5188 18.1607 41.2722C16.992 41.155 15.9463 41.3307 15.0851 42.2095C13.4243 43.967 11.579 46.6032 11.3945 49.1222Z" fill="white" stroke="#FF6600"/>
<path fill-rule="evenodd" clip-rule="evenodd" d="M39.259 34.5935C34.2766 34.5935 34.2766 25.6304 39.259 25.6304C44.1799 25.6304 44.1799 34.5935 39.259 34.5935Z" fill="white" stroke="#FF6600"/>
<path fill-rule="evenodd" clip-rule="evenodd" d="M42.7038 43.5567C41.5966 43.5567 40.6739 42.9123 40.3664 41.9164L37.9059 33.8907C37.0448 30.9615 41.6581 29.6727 42.5193 32.6018L44.9797 40.6276C45.4103 42.0922 44.3031 43.5567 42.7038 43.5567ZM64.2943 43.5567C62.695 43.5567 61.5263 42.0922 62.0184 40.6276L64.4789 32.6018C65.34 29.6727 69.9534 30.9615 69.0922 33.8907L66.6318 41.9164C66.3242 42.9123 65.34 43.5567 64.2943 43.5567Z" fill="white" stroke="#FF6600"/>
<path fill-rule="evenodd" clip-rule="evenodd" d="M67.7388 34.5935C62.8179 34.5935 62.8179 25.6304 67.7388 25.6304C72.6597 25.6304 72.6597 34.5935 67.7388 34.5935Z" fill="white" stroke="#FF6600"/>
<path fill-rule="evenodd" clip-rule="evenodd" d="M36.9216 76.0114L37.6598 75.7185C40.5508 74.5469 42.3961 78.7648 39.5051 79.9365L27.4489 84.7402L22.528 90.2469L21.1747 97.1597C21.0517 99.6787 18.4067 100.03 17.1149 98.9171C16.2538 98.2141 16.4383 96.9253 16.5613 95.9294C16.8689 93.5861 17.484 91.1257 17.9146 88.7824C18.0376 88.3723 18.2222 88.0208 18.4682 87.7279L24.1888 81.3424C24.4348 81.1081 24.7424 80.8738 25.0499 80.698L35.1993 76.7144L19.0833 79.995L12.6246 86.1462L11.0253 93.879C10.4102 96.8667 5.67382 95.988 6.28894 93.0003L8.01126 84.5645C8.13428 84.1544 8.31881 83.7443 8.68788 83.3928L16.2538 76.2458C16.5613 75.9529 16.9919 75.7185 17.4225 75.6599L34.7687 72.0864C37.1677 71.6178 38.7055 74.3711 36.9216 76.0114ZM71.7986 76.7144L81.8865 80.7566C82.2556 80.8738 82.5631 81.1081 82.8092 81.3424L88.5297 87.7279C88.7758 88.0208 88.9603 88.3723 89.0218 88.7824C89.5139 91.1257 90.0675 93.5861 90.4366 95.9294C90.6211 97.5697 90.7441 98.7414 89.0218 99.3858C87.6686 99.8544 85.8847 99.0929 85.7617 97.1597L84.47 90.2469L79.549 84.7402L67.4928 79.9365C64.5403 78.7648 66.4471 74.5469 69.3382 75.7185L70.0148 76.0114C68.2925 74.3711 69.8302 71.6178 72.1677 72.0864L89.5754 75.6599C90.006 75.7185 90.4366 75.9529 90.7441 76.2458L98.31 83.3928C98.6176 83.7443 98.8636 84.1544 98.9251 84.5645L100.709 93.0003C101.263 95.988 96.5877 96.8667 95.9726 93.879L94.3733 86.1462L87.8531 79.995L71.7986 76.7144ZM88.1606 62.0103L98.064 57.2065L100.647 49.2393C101.632 46.3688 106.183 47.7748 105.261 50.6453L102.37 59.4912C102.185 60.0771 101.755 60.6043 101.14 60.8386L89.9445 66.2868C89.0218 66.6969 79.1185 67.3413 77.2731 67.4584C74.0745 67.7513 73.644 63.1819 76.8425 62.9476L88.1606 62.0103ZM86.6844 69.5088L96.3417 68.3372L101.632 61.5416C103.477 59.1397 107.352 61.8345 105.507 64.2364L99.6018 71.7935C99.1712 72.3208 98.6176 72.6722 98.0025 72.7308C96.2802 72.9652 86.9919 74.254 86.1308 74.0782L73.9515 71.8521C70.8144 71.2663 71.7371 66.7554 74.8742 67.3413L86.6844 69.5088ZM8.93393 57.2065L18.8373 62.0103L30.1554 62.9476C33.2925 63.1819 32.8619 67.7513 29.7248 67.4584C27.8794 67.3413 17.9761 66.6969 17.0534 66.2868L5.85836 60.8972C5.24324 60.6043 4.81266 60.0771 4.62813 59.4912L1.73709 50.6453C0.752909 47.7748 5.36627 46.3688 6.28894 49.2393L8.93393 57.2065ZM10.6562 68.3372L20.3135 69.5088L32.1237 67.3413C35.1993 66.7554 36.122 71.2663 33.0464 71.8521C31.2626 72.145 20.9902 74.254 20.0675 74.1368L8.99544 72.7308C8.38033 72.6722 7.76521 72.3208 7.39614 71.7935L1.49105 64.2364C-0.354297 61.8345 3.45941 59.1397 5.36627 61.5416L10.6562 68.3372Z" fill="white" stroke="#FF6600"/>
</svg>
