<svg width="93" height="76" viewBox="0 0 93 76" fill="none" xmlns="http://www.w3.org/2000/svg">
<path d="M92.3346 60.8641C90.0216 54.9741 79.4078 53.0992 69.4995 52.693L68.384 49.1309C68.0959 48.1914 67.485 47.3713 66.6491 46.8019C65.8133 46.2325 64.8009 45.9468 63.7743 45.9906L43.7607 46.7405C38.1826 46.9505 32.8588 49.0184 28.7176 52.5836L28.2254 53.0055H26.667C25.5226 52.99 24.4306 52.5461 23.6272 51.7699C22.8237 50.9936 22.3733 49.9474 22.3733 48.8574C22.3733 47.7674 22.8238 46.7213 23.6273 45.9451C24.4308 45.1689 25.5227 44.725 26.6671 44.7095H43.1537C47.904 44.7052 52.4581 42.905 55.8154 39.7045C59.1727 36.5039 61.0586 32.165 61.0586 27.6409C61.0586 23.1169 59.1727 18.7779 55.8154 15.5774C52.4581 12.3769 47.904 10.5767 43.1537 10.5724H19.1046C16.2807 10.5896 13.4996 9.91447 11.0289 8.61206C8.55812 7.30964 6.48079 5.4237 4.99664 3.1356C4.16238 1.67144 3.98321 0.744676 2.43744 0.917035C1.81415 1.02641 0.370536 1.27641 0.583801 6.52585C0.747863 10.2599 2.4047 22.5868 17.0704 23.9772H41.464C41.7715 23.9764 42.0762 24.0334 42.3605 24.145C42.6448 24.2565 42.9033 24.4204 43.121 24.6272C43.3387 24.834 43.5115 25.0797 43.6294 25.3502C43.7472 25.6207 43.8079 25.9107 43.8079 26.2035C43.8079 26.4964 43.7472 26.7864 43.6294 27.0569C43.5115 27.3274 43.3387 27.5731 43.121 27.7799C42.9033 27.9867 42.6448 28.1506 42.3605 28.2621C42.0762 28.3737 41.7715 28.4307 41.464 28.4299H29.2918C7.79965 28.2199 -3.96096 53.819 11.5424 68.2854C13.79 70.4081 16.4592 72.083 19.394 73.2123C22.3289 74.3416 25.4705 74.9026 28.6356 74.8626L52.0286 74.597C55.1911 74.6332 58.0502 75.1681 61.1495 75.0969C70.5721 74.8678 79.8765 73.0427 88.6272 69.7069C88.9173 69.5843 89.1645 69.3853 89.3397 69.1332C89.5149 68.8812 89.6107 68.5867 89.6159 68.2845C89.6211 67.9823 89.5354 67.6849 89.3689 67.4276C89.2024 67.1703 88.9622 66.9636 88.6764 66.8321L85.658 65.5511L91.5145 62.817C91.8798 62.6449 92.1656 62.3504 92.3169 61.99C92.4683 61.6296 92.4746 61.2287 92.3346 60.8641ZM58.8365 64.4106C58.5048 61.4618 62.0702 60.1241 64.1024 58.7081C64.4636 58.4857 64.902 58.407 65.3234 58.4891C65.7448 58.5711 66.1156 58.8073 66.3562 59.1469C66.5967 59.4865 66.6878 59.9024 66.6099 60.3053C66.532 60.7082 66.2913 61.0659 65.9395 61.3015L62.5111 63.4888C62.3806 63.5684 62.2751 63.6801 62.2057 63.8121C62.1364 63.9441 62.1059 64.0915 62.1174 64.2387C62.1218 64.3861 62.1685 64.5295 62.2523 64.6534C62.3362 64.7773 62.454 64.8771 62.593 64.9418L67.9738 67.5978C68.3507 67.7928 68.6323 68.1208 68.7578 68.5114C68.8833 68.902 68.8428 69.3239 68.645 69.6864C68.4471 70.0488 68.1078 70.3228 67.7 70.4494C67.2922 70.5759 66.8485 70.5449 66.4644 70.3631L61.0838 67.7228C60.4385 67.4053 59.8915 66.9326 59.4973 66.3516C59.1031 65.7705 58.8753 65.1014 58.8365 64.4106ZM80.6545 62.7077C80.2034 62.7058 79.7713 62.5338 79.453 62.2293C79.1346 61.9247 78.9559 61.5125 78.9559 61.0828C78.9559 60.6531 79.1346 60.2409 79.453 59.9364C79.7713 59.6319 80.2034 59.4599 80.6545 59.458C81.1057 59.4599 81.5378 59.6319 81.8561 59.9364C82.1744 60.2409 82.3532 60.6531 82.3532 61.0828C82.3532 61.5125 82.1744 61.9247 81.8561 62.2293C81.5378 62.5338 81.1057 62.7058 80.6545 62.7077ZM43.8919 49.8652L63.889 49.1153C64.1898 49.1094 64.4846 49.1958 64.7298 49.3618C64.975 49.5278 65.1576 49.7645 65.2506 50.037L66.0545 52.5993C60.3222 52.4999 56.8288 52.919 52.1434 53.0055L33.4914 53.0054C36.6001 51.09 40.1922 50.0055 43.8919 49.8652Z" fill="white" stroke="#FF6600"/>
</svg>
