<svg width="96" height="56" viewBox="0 0 96 56" fill="none" xmlns="http://www.w3.org/2000/svg">
<path d="M93.0781 1.4375C89.162 1.4375 85.4063 2.91908 82.6373 5.55631C79.8682 8.19354 78.3125 11.7704 78.3125 15.5V17.6562C77.2387 18.8083 76.6361 20.2899 76.6148 21.8302C76.5935 23.3706 77.1548 24.8668 78.1963 26.0454C79.2378 27.224 80.6899 28.0064 82.2871 28.2495C83.8843 28.4926 85.5201 28.1801 86.8953 27.3693C88.2706 26.5585 89.2937 25.3034 89.7774 23.8334C90.2612 22.3634 90.1733 20.7768 89.53 19.3634C88.8867 17.95 87.7308 16.8043 86.2736 16.1357C84.8165 15.467 83.1553 15.3201 81.5938 15.7217V15.5C81.5938 12.5992 82.8037 9.8172 84.9574 7.76602C87.1112 5.71484 90.0323 4.5625 93.0781 4.5625C93.5132 4.5625 93.9305 4.39788 94.2382 4.10486C94.5459 3.81183 94.7188 3.4144 94.7188 3C94.7188 2.5856 94.5459 2.18817 94.2382 1.89515C93.9305 1.60212 93.5132 1.4375 93.0781 1.4375Z" fill="white" stroke="#FF6600"/>
<path d="M14.7219 30.875L9.98047 51.4375H4.73047C4.29535 51.4375 3.87805 51.6021 3.57037 51.8951C3.26269 52.1882 3.08984 52.5856 3.08984 53C3.08984 53.4144 3.26269 53.8118 3.57037 54.1049C3.87805 54.3979 4.29535 54.5625 4.73047 54.5625H11.293C11.6685 54.5618 12.0325 54.439 12.3248 54.2146C12.6171 53.9902 12.8203 53.6774 12.9008 53.3281L18.0031 31.125H17.6094C16.6407 31.1292 15.6739 31.0455 14.7219 30.875Z" fill="white" stroke="#FF6600"/>
<path d="M23.5466 6.99188C27.9998 14.3302 37.2892 29.4308 39.6996 31.7263C41.2392 33.1859 43.3238 34.0044 45.4962 34.002C47.6687 33.9997 49.7514 33.1768 51.2875 31.7138C52.8236 30.2508 53.6877 28.2672 53.6901 26.1983C53.6925 24.1293 52.8331 22.1439 51.3004 20.6777C47.6595 18.0152 43.8275 15.5986 39.8325 13.4455L39.8556 13.4586L41.3425 6.98516C42.2673 8.50922 43.3987 10.3645 44.6362 12.3758H55.7703C49.9848 9.06438 43.8891 5.7075 40.8687 4.05453C40.6454 3.93276 40.3952 3.86288 40.1382 3.85059C39.8813 3.8383 39.6249 3.88396 39.39 3.98383C39.1551 4.0837 38.9482 4.23497 38.7863 4.42534C38.6243 4.6157 38.5118 4.83979 38.4579 5.07938L36.9158 11.7731L37.0065 11.8252C31.5206 8.69907 25.9254 5.6186 23.0723 4.05735C22.8497 3.93498 22.5998 3.86448 22.3431 3.85159C22.0864 3.8387 21.8301 3.88378 21.5951 3.98317C21.3602 4.08255 21.1533 4.23342 20.9912 4.42346C20.8291 4.61351 20.7165 4.83735 20.6626 5.07672C19.8454 8.6286 18.2656 15.5002 18.2656 15.5002H21.5961L23.5466 6.99188Z" fill="white" stroke="#FF6600"/>
<path d="M76.6719 28.7188V46.75C80.1528 46.75 83.4912 45.433 85.9526 43.0888C88.4141 40.7446 89.7969 37.5652 89.7969 34.25V28.7188C87.9982 30.268 85.6595 31.1258 83.2344 31.1258C80.8092 31.1258 78.4705 30.268 76.6719 28.7188Z" fill="white" stroke="#FF6600"/>
<path d="M63.5469 15.5H49.4186C50.8997 16.3819 52.3049 17.3743 53.6211 18.4678C54.691 19.4813 55.5391 20.6868 56.1164 22.0146C56.6937 23.3424 56.9887 24.766 56.9844 26.2031C56.9816 26.8424 56.9205 27.4802 56.8018 28.1094C58.8909 26.6635 60.5911 24.7673 61.7635 22.5757C62.9358 20.3842 63.5469 17.9595 63.5469 15.5Z" fill="white" stroke="#FF6600"/>
<path d="M1.20312 15.5C1.20492 19.1659 2.55997 22.7146 5.03127 25.5252C7.50257 28.3358 10.9328 30.2295 14.7219 30.875L18.2656 15.5H1.20312Z" fill="white" stroke="#FF6600"/>
<path d="M24.943 15.5H21.5961L18.0031 31.125H35.1148C32.4242 27.4219 28.4211 21.125 24.943 15.5Z" fill="white" stroke="#FF6600"/>
<path d="M78.3125 51.4375H72.8164L70.6288 46.75H73.3906V21.75C73.3901 19.4413 74.2885 17.2145 75.9119 15.5H66.8281C66.8232 19.2164 65.6602 22.8479 63.4863 25.9342C61.3124 29.0206 58.2256 31.423 54.6168 32.837C54.3104 33.2236 53.9776 33.5906 53.6206 33.9356C51.5289 35.9306 48.708 37.0775 45.7484 37.1361C42.7888 37.1947 39.9202 36.1604 37.7433 34.25H20.9353C23.4005 37.3649 26.4509 40.0173 29.9318 42.0727L27.7734 51.4375H22.5312C22.0961 51.4375 21.6788 51.6021 21.3712 51.8951C21.0635 52.1882 20.8906 52.5856 20.8906 53C20.8906 53.4144 21.0635 53.8118 21.3712 54.1049C21.6788 54.3979 22.0961 54.5625 22.5312 54.5625H29.0938C29.4679 54.5626 29.8309 54.4408 30.1225 54.2174C30.414 53.994 30.6166 53.6824 30.6966 53.3342L32.923 43.6416C37.3537 45.6901 42.2153 46.753 47.1406 46.75H56.4651L54.2773 51.4375H48.7812C48.3461 51.4375 47.9288 51.6021 47.6212 51.8951C47.3135 52.1882 47.1406 52.5856 47.1406 53C47.1406 53.4144 47.3135 53.8118 47.6212 54.1049C47.9288 54.3979 48.3461 54.5625 48.7812 54.5625H55.3438C55.6611 54.5626 55.9716 54.475 56.2377 54.3103C56.5037 54.1456 56.7139 53.9109 56.8426 53.6347L60.0555 46.75H67.0383L70.2511 53.6347C70.3799 53.9109 70.59 54.1456 70.8561 54.3103C71.1221 54.475 71.4327 54.5626 71.75 54.5625H78.3125C78.7476 54.5625 79.1649 54.3979 79.4726 54.1049C79.7803 53.8118 79.9531 53.4144 79.9531 53C79.9531 52.5856 79.7803 52.1882 79.4726 51.8951C79.1649 51.6021 78.7476 51.4375 78.3125 51.4375Z" fill="white" stroke="#FF6600"/>
</svg>
