<svg width="82" height="82" viewBox="0 0 82 82" fill="none" xmlns="http://www.w3.org/2000/svg">
<path d="M69.2645 24.4092C66.1247 24.4092 63.5703 27.0124 63.5703 30.2119C63.5703 30.8716 64.095 31.4062 64.7422 31.4062C65.3894 31.4062 65.9141 30.8716 65.9141 30.2119C65.9141 28.3293 67.417 26.7977 69.2645 26.7977C70.8141 26.7444 70.8169 24.4636 69.2645 24.4092Z" fill="white" stroke="#FF6600" stroke-width="0.5"/>
<path d="M33.5223 62.2231C32.9338 60.8174 30.9232 60.8178 30.3349 62.2229V62.2231L28.609 66.2464C28.3427 66.8671 28.401 67.5762 28.7651 68.1429C29.129 68.7098 29.7431 69.0481 30.4076 69.0481H33.4498C34.1145 69.0481 34.7285 68.7098 35.0924 68.1429C35.4563 67.5758 35.5146 66.8669 35.2484 66.2464L33.5223 62.2231ZM30.9896 66.6596L31.9285 64.4709L32.8674 66.6596H30.9896Z" fill="white" stroke="#FF6600" stroke-width="0.5"/>
<path d="M29.0042 63.4331C29.6171 62.7242 29.8218 61.7573 29.552 60.8466C29.2774 59.9205 28.5676 59.2184 27.6532 58.9687L23.1164 57.7297C22.2018 57.4804 21.2426 57.7264 20.5506 58.3888C19.8701 59.0399 19.5731 59.9816 19.7562 60.9078C20.1748 63.0255 21.6414 64.6704 23.5837 65.2006C25.5476 65.732 27.6031 65.0474 29.0042 63.4331ZM27.2456 61.854C26.4371 62.789 25.2664 63.1874 24.1898 62.8935C23.1135 62.5995 22.2949 61.6579 22.0535 60.4361C22.0248 60.2906 22.0926 60.1891 22.1546 60.1297C22.1964 60.0732 22.3865 59.9879 22.5096 60.0367L27.0464 61.2756C27.2274 61.3251 27.2898 61.475 27.3082 61.5371C27.3329 61.6202 27.342 61.7426 27.2456 61.854Z" fill="white" stroke="#FF6600" stroke-width="0.5"/>
<path d="M45.8438 29.8921C46.4909 29.8921 47.0156 29.3575 47.0156 28.6978V25.4917C46.9619 23.9103 44.7252 23.9116 44.6719 25.4917V28.6978C44.6719 29.3575 45.1966 29.8921 45.8438 29.8921Z" fill="white" stroke="#FF6600" stroke-width="0.5"/>
<path d="M13.9688 34.9858C14.6159 34.9858 15.1406 34.4513 15.1406 33.7915V30.5855C15.0869 29.0041 12.8502 29.0054 12.7969 30.5855V33.7915C12.7969 34.4513 13.3216 34.9858 13.9688 34.9858Z" fill="white" stroke="#FF6600" stroke-width="0.5"/>
<path d="M23.9688 17.47C24.6159 17.47 25.1406 16.9355 25.1406 16.2757V13.0698C25.0869 11.4885 22.8502 11.4897 22.7969 13.0698V16.2759C22.7969 16.9355 23.3216 17.47 23.9688 17.47Z" fill="white" stroke="#FF6600" stroke-width="0.5"/>
<path d="M75.2969 36.0004C75.2969 36.66 75.8216 37.1947 76.4688 37.1947C78.02 37.1401 78.0197 34.8606 76.4688 34.8062C75.8216 34.8062 75.2969 35.3409 75.2969 36.0004Z" fill="white" stroke="#FF6600" stroke-width="0.5"/>
<path d="M8.65625 22.2265C9.30344 22.2265 9.82813 21.6918 9.82813 21.0322C9.77453 19.4513 7.53781 19.4517 7.48438 21.0322C7.48438 21.6918 8.00906 22.2265 8.65625 22.2265Z" fill="white" stroke="#FF6600" stroke-width="0.5"/>
<path d="M12.4063 45.4765C13.0534 45.4765 13.5781 44.9418 13.5781 44.2822C13.5245 42.7013 11.2878 42.7017 11.2344 44.2822C11.2344 44.9418 11.7591 45.4765 12.4063 45.4765Z" fill="white" stroke="#FF6600" stroke-width="0.5"/>
<path d="M46.7813 20.9516C47.4284 20.9516 47.9531 20.4169 47.9531 19.7573C47.8995 18.1764 45.6628 18.1768 45.6094 19.7573C45.6094 20.4169 46.1341 20.9516 46.7813 20.9516Z" fill="white" stroke="#FF6600" stroke-width="0.5"/>
<path d="M79.9286 21.7137C78.5 20.2578 76.1754 20.2578 74.747 21.7137L73.7607 22.7189V8.56158C73.8125 5.99198 71.0982 4.11012 68.7767 5.07939V4.71474C68.6836 0.37872 62.825 -0.413006 61.5925 3.68241C59.2612 2.58351 56.4064 4.47142 56.4648 7.10456V9.07623C54.1428 8.10696 51.429 9.98898 51.4807 12.5584V29.6038C51.4807 33.0043 52.9264 36.1433 55.4681 38.3078V41.3682C54.8657 40.441 54.1581 39.5416 53.3389 38.6671C52.8354 38.1296 52.0326 38.0428 51.4298 38.4597C50.8278 38.8763 50.6117 39.668 50.9156 40.3419C52.5595 43.9876 51.5475 47.6996 49.5101 51.5248C46.239 46.6192 43.53 41.9551 45.4501 37.444C45.7379 36.767 45.5073 35.9825 44.9014 35.5782C44.2946 35.1734 43.4957 35.2718 43.002 35.8119C40.1896 38.8987 38.8914 42.1983 38.9442 46.2515C38.609 46.0945 38.2682 45.9501 37.9234 45.8157C38.6232 34.5489 44.2848 24.2982 35.966 13.2538C35.5112 12.6554 34.7107 12.4904 34.0629 12.8615C33.417 13.2312 33.1398 14.0113 33.4039 14.7162C36.0434 21.7665 32.1387 28.8856 28.0048 36.4228C27.6592 37.053 27.3098 37.6906 26.9623 38.3323C26.4757 34.9904 25.2718 31.4973 22.7675 27.9834C22.3279 27.3671 21.5289 27.1794 20.8679 27.5361C20.2095 27.8918 19.9151 28.6679 20.1678 29.3816C23.2879 37.8328 17.5354 47.1789 13.245 55.7304C13.0831 55.4834 12.9204 55.2334 12.7593 54.9823C12.405 54.4302 11.6785 54.2758 11.1371 54.6368C10.5956 54.9981 10.4437 55.7382 10.7982 56.2901C11.2203 56.9476 11.6512 57.5986 12.0476 58.1912C8.90526 64.8763 6.75058 71.7069 9.49339 78.6111H3.75729C3.53167 78.6111 3.42761 78.4592 3.38573 78.3686C3.33745 78.2645 3.30667 78.1073 3.43386 77.9503C13.0789 66.3211 0.292607 55.136 6.13511 43.6273C6.03417 45.9867 6.64573 48.5123 7.9787 51.3334C8.25948 51.9277 8.95995 52.1777 9.54292 51.8912C10.126 51.605 10.3712 50.8913 10.0903 50.2971C8.24605 46.3943 7.99401 43.2309 9.29667 40.3416C9.60073 39.6675 9.38448 38.876 8.78245 38.4594C8.17964 38.0425 7.37667 38.1296 6.87339 38.6669C1.04448 44.6603 1.58495 51.771 3.50901 59.16C4.88917 65.1391 6.19276 70.7866 1.62558 76.431C0.947607 77.2689 0.809638 78.4017 1.26589 79.3876C1.72604 80.3822 2.68073 81 3.75729 81L76.9153 80.9998C77.9856 80.9998 78.9362 80.3873 79.3961 79.4011C79.8543 78.4185 79.7207 77.2848 79.0476 76.4426C74.7257 71.0353 75.9762 65.6174 77.3003 59.8814C79.154 52.7624 79.6811 45.8934 74.0895 40.1085C73.589 39.5704 72.7879 39.4796 72.1846 39.893C71.5809 40.3066 71.3603 41.0972 71.66 41.7734C73.2086 45.2652 72.2295 48.8256 70.2718 52.4963V37.8513C71.3134 36.8455 72.1657 35.6303 72.7611 34.2989L79.9286 26.9945C81.3571 25.5385 81.3571 23.1698 79.9286 21.7137ZM27.2343 42.8889C30.9712 35.3275 36.8693 27.1652 36.5943 18.9317C40.2517 27.4284 36.1856 36.314 35.6178 45.1048C32.8535 44.4523 29.7739 44.5708 27.1023 45.4015C27.1712 44.5811 27.2189 43.7427 27.2343 42.8889ZM12.0535 78.6115C5.36948 64.0225 24.146 48.8396 23.3798 33.9673C25.1078 38.3266 25.0673 42.5793 24.6534 46.3725C14.2768 51.2952 12.3642 65.9257 21.667 73.1792C22.3356 73.7127 22.719 74.5168 22.719 75.3858C22.719 76.5856 23.0915 77.6981 23.7232 78.6115H12.0535ZM38.7254 76.0554C38.535 76.9719 37.96 77.739 37.1921 78.1868V74.6008C37.1384 73.0194 34.9017 73.0206 34.8484 74.6008V78.6115H33.1018V74.6008C33.0481 73.0194 30.8114 73.0206 30.7581 74.6008V78.6115H29.0117V74.6008C28.9579 73.0194 26.7212 73.0206 26.6679 74.6008V78.1888C25.7109 77.6334 25.0629 76.5861 25.0629 75.3856C25.0629 73.7772 24.3518 72.2875 23.1118 71.2982C19.8439 68.6915 17.9696 64.8364 17.9696 60.7212C17.8932 49.2112 31.9621 42.9427 40.755 50.149C41.2642 50.5558 42.0009 50.4651 42.4003 49.9461C42.7996 49.427 42.7104 48.6762 42.2011 48.2694C41.9303 48.053 41.6509 47.8488 41.3675 47.6509C41.1157 44.9603 41.4523 42.722 42.4584 40.6717C42.4921 45.1677 45.3264 49.5388 48.1981 53.8012C47.8979 54.2898 47.5867 54.7801 47.2675 55.2726C46.9539 54.4207 46.5661 53.5934 46.1051 52.7974C45.7764 52.2293 45.0579 52.0406 44.5003 52.3756C43.9428 52.7106 43.7575 53.443 44.0864 54.0111C44.7801 55.2097 45.2782 56.4896 45.5732 57.8215C45.09 58.5381 44.6065 59.253 44.126 59.976C44.0395 59.3795 43.7584 58.8212 43.3081 58.3903C42.6159 57.728 41.6567 57.4817 40.7421 57.7314L36.2054 58.9702C35.2909 59.2199 34.581 59.922 34.3067 60.8481C34.0367 61.7588 34.2415 62.7257 34.8545 63.4348C36.2556 65.0491 38.3107 65.7335 40.2751 65.2021C40.5642 65.1233 40.8411 65.0168 41.1071 64.8907C40.3779 66.24 39.751 67.598 39.2946 68.9599C38.4454 71.4929 38.2545 73.8431 38.7254 76.0554ZM41.8046 60.4378C41.5632 61.6596 40.7446 62.6011 39.6684 62.8951C38.5921 63.1889 37.4212 62.7908 36.6128 61.8558C36.5164 61.7443 36.5254 61.6218 36.5501 61.5389C36.5685 61.4768 36.6309 61.3269 36.812 61.2774L41.3485 60.0387C41.5296 59.989 41.6573 60.0873 41.7037 60.1315C41.7656 60.1909 41.8334 60.2922 41.8046 60.4378ZM60.6931 78.6479C58.067 76.2447 56.4593 73.7105 55.7893 70.9093C55.6362 70.2687 55.0023 69.876 54.3732 70.0319C53.7445 70.188 53.359 70.8342 53.5123 71.4749C54.1271 74.0449 55.3857 76.3989 57.3361 78.6113H42.2645C35.6478 67.2532 55.0501 55.2645 54.0759 43.6249C57.9615 50.7146 53.7836 58.1298 53.1575 65.5094C53.0982 66.1663 53.5728 66.7477 54.2173 66.808C54.8614 66.8681 55.4323 66.3848 55.4915 65.7281C55.9425 60.93 57.7767 56.2495 58.0286 51.3831C60.4361 46.7341 62.489 41.8359 62.3271 36.868C66.5257 46.6706 60.5871 56.8476 61.3453 67.0185C60.9884 67.784 60.6718 68.5515 60.4142 69.3206C59.2706 72.7329 59.3596 75.8035 60.6931 78.6479ZM74.7712 45.0467C80.1795 56.0815 68.0867 66.7996 77.2304 77.9511C77.3661 78.1208 77.3192 78.2903 77.2792 78.3759C77.2382 78.464 77.1364 78.6115 76.9153 78.6115H63.3426C57.0407 67.7195 75.5473 56.199 74.7712 45.0467ZM78.2712 25.3055L70.9495 32.767C70.8445 32.874 70.7606 33.0003 70.7018 33.1393C70.1718 34.3938 69.3542 35.5258 68.3376 36.4134C68.0776 36.6403 67.9281 36.9717 67.9281 37.3204V56.3853C66.5542 58.4877 65.0696 60.5882 63.7296 62.7249C64.7168 51.9261 69.7543 41.8762 61.7064 31.2078C61.2515 30.6095 60.4512 30.4445 59.8034 30.8151C59.1575 31.1847 58.8801 31.9649 59.144 32.67C60.7814 37.0436 59.9465 41.4456 57.8117 46.3905V37.7309C57.8117 37.3554 57.6384 37.0016 57.3436 36.7761C55.1071 35.0638 53.8243 32.4497 53.8243 29.6038V12.5584C53.8909 10.7756 56.3987 10.7769 56.4646 12.5584V20.4609C56.5184 22.0423 58.7551 22.041 58.8084 20.4609V7.10456C58.875 5.32175 61.3828 5.32302 61.4487 7.10456V20.4609C61.5025 22.0423 63.7392 22.041 63.7925 20.4609V4.71474C63.859 2.93176 66.3668 2.9332 66.4328 4.71474V20.4609C66.4865 22.0423 68.7232 22.041 68.7765 20.4609V8.56158C68.8431 6.77877 71.3509 6.78004 71.4168 8.56158V25.6022C71.4168 26.0851 71.7023 26.5208 72.1403 26.7055C72.5781 26.8905 73.0821 26.7885 73.4173 26.4467L76.404 23.4029C76.9189 22.8782 77.7562 22.8782 78.2711 23.4029C78.7861 23.9273 78.7861 24.781 78.2712 25.3055Z" fill="white" stroke="#FF6600" stroke-width="0.5"/>
</svg>
