<svg width="107" height="68" viewBox="0 0 107 68" fill="none" xmlns="http://www.w3.org/2000/svg">
<path d="M105.738 12.0469L103.293 9.92188C102.866 9.53125 102.62 9.23438 102.555 8.875L102.522 8.75L102.538 8.625C102.768 7.1875 101.964 5.8125 100.586 5.17187L97.4688 3.875L97.4031 3.45312C97.2883 2.79687 96.993 2.26562 96.5828 1.90625C96.1727 1.57812 95.6805 1.42187 95.0899 1.42187C94.8109 1.42187 94.5156 1.46875 94.1055 1.5625C94.0234 1.59375 93.8758 1.65625 93.7117 1.76562L93.1211 2.14062L92.6453 1.625C92.35 1.3125 91.9727 1.09375 91.4969 0.953125C91.2344 0.875 90.9719 0.828125 90.7094 0.828125C89.4625 0.828125 88.3141 1.65625 87.8711 2.875C87.8547 2.95312 87.707 3.29688 87.707 3.29688C87.3789 4.09375 87.1164 4.79688 87.0344 5.4375L86.9852 5.73437L83.2281 8.84375C80.5703 11.4687 77.3219 13.2344 74.2047 14.7344C72.5969 15.4844 70.7594 16.2344 69.6766 16.6719C67.2813 17.6406 65.3781 18.2656 63.1305 18.4687C60.2594 18.7187 57.7328 18.8437 55.6328 18.8437C54.1399 18.8437 52.8602 18.7813 51.7938 18.6563L39.5383 17.5312C39.2102 17.4531 36.7328 17.0781 33.6484 17.0781C29.3992 17.0781 25.8555 17.75 23.132 19.0937C21.7539 19.7344 20.7203 20.4531 19.9656 21.2344C18.4234 22.8125 15.7328 26.4063 14.9453 32.5938C14.7977 34.6563 13.9774 38.8906 11.8281 40.0781C11.5656 40.2188 11.1555 40.4219 10.5156 40.4219C9.94141 40.4219 9.28516 40.25 8.57969 39.9219C8.0711 39.7969 7.39844 39.2188 7.05391 38.375C6.51251 37.0313 6.44688 34.4219 9.25235 29.6094L9.31798 29.4531C9.40001 29.2656 10.007 27.6094 9.02266 26.625C8.62891 26.1875 8.08751 26 7.39844 26C6.93907 26 6.44688 26.0781 5.87266 26.2344C4.36329 26.6719 3.11641 27.8438 2.49298 29.4219C1.37735 32.2969 0.310945 36.5469 1.52501 40.4688C2.18126 42.7031 4.90469 46.8906 10.6469 46.8906C13.6164 46.7813 19.6703 44.6406 21.393 37.25L21.6227 36.2344L23.2141 36.3438C23.2961 37.6719 23.4274 38.9688 23.6242 40.2344C23.7391 41.1406 23.575 42.1563 23.1649 43.2656C22.2297 45.6563 20.6219 47.3594 18.2922 48.375C18.1281 48.4219 14.2891 49.4531 14.3711 52.6563C14.3711 63.9063 16.6516 65.7656 17.6195 66.0469L17.8 66.0781C18.243 66.1094 18.932 66.1563 19.7359 66.1563C23.1813 66.1563 25.5274 65.5 26.4133 64.2656C26.7742 63.7656 27.0695 62.9063 26.4297 61.6719C26.3641 61.5313 26.2492 61.4219 26.1016 61.3438C26.0852 61.3281 25.4945 61.0156 24.8055 60.7656C23.0664 60.0781 21.9344 58.5 22 56.8281V56.7188L22.0328 56.625C22.1641 56.2344 23.3945 52.8594 25.8883 51.5938C32.3359 47.8281 35.0102 46.0469 35.1906 45.2969C35.9453 43.5625 36.8969 41.6719 37.5039 40.7188L37.8977 40.1406L38.5375 40.4375C39.1938 40.7344 40.4406 41.7344 41.2445 45.0156L41.2609 45.1094V45.2188C41.2445 45.6406 41.0805 49.375 40.5555 51.2344C40.375 51.8281 40.1781 52.5469 40.1125 53.375V53.6094C40.1125 54.875 40.5883 56.0938 41.4578 57.0781C41.9828 57.6563 42.6063 58.4063 43.2625 59.2031L43.7055 59.7188C47.643 64.4219 49.1524 66.0156 50.268 66.1094C51.2359 66.2031 52.1547 66.25 52.9914 66.25C55.8953 66.25 57.8149 65.7031 58.4219 64.6875C58.7008 64.2188 58.8649 63.4375 57.9953 62.3281C57.7164 61.9063 56.9945 61.3438 55.0586 60.9688C53.6477 60.7031 52.3188 59.9219 51.3016 58.75C50.8094 58.1719 50.268 57.5156 49.7758 56.8906C48.6109 55.375 48.1516 53.4531 48.5125 51.6406L49.4149 46.9375C49.4313 46.8906 50.7109 42.2188 50.7766 38.4063L50.8586 37.3125L52.0563 37.7812L52.1219 37.8125C54.8125 39.375 58.3234 41.0469 60.0953 41.0469H60.243L63.7539 41.25L63.918 48.9531L65.2797 63.4688C65.3125 63.8125 65.7391 66.6563 70.743 67.1094C70.907 67.1406 71.4813 67.25 72.2359 67.25C73.1383 67.25 74.3688 67.0781 75.0906 66.3125C75.5336 65.8281 75.9438 64.9531 75.4352 63.4844C75.3859 63.3906 75.3531 63.2813 75.3367 63.2656C74.9102 62.6094 73.6797 61.4688 71.7438 61.4688H70.9399V60.7031C70.9399 60.5781 70.9399 60.4063 70.9563 60.2656L71.1695 49.9063C71.268 48.2188 71.8914 43.4688 73.7125 42.0156C73.9094 41.8594 74.1227 41.75 74.3031 41.6875L75.3695 41.3438V42.4063C75.3695 42.5625 75.3531 42.8125 75.2711 43.1875L75.2383 43.3594L75.1891 45.375C75.1891 45.4844 75.2055 45.5781 75.2383 45.6719C75.4516 46.2344 80.4883 59.6406 80.7672 60.5781C80.9969 61.3906 82.3258 65.5469 85.443 66.3906C86.3617 66.5938 87.7563 66.8281 89.0852 66.8281C90.2172 66.8281 91.6938 66.6563 92.35 65.8438C92.8422 65.2031 92.8258 64.3906 92.268 63.4531C91.6445 62.3438 90.5945 61.4688 89.3149 60.9531C88.3141 60.5469 86.9524 59.5 86.0992 56.7813C85.3117 53.8125 83.5563 45.4844 84.9016 42.7031L84.8852 42.6563L84.9836 42.5469C85.5742 41.5781 86.1977 40.6875 86.7883 39.9219C87.3133 39.2344 87.9203 38.5313 88.5109 37.8438C90.0859 36.0156 91.743 34.1406 92.5633 31.7656C93.0719 30.3125 93.6461 27.125 94.1383 24.2031C94.8766 19.375 96.2219 17.7813 97.1899 17.3281C97.518 17.1563 97.8625 17.0781 98.2399 17.0781C99.0109 17.0781 99.7984 17.4219 100.504 17.75L100.914 17.9375C101.111 18.0156 101.308 18.0625 101.488 18.0625C101.866 18.0625 102.21 17.9219 102.489 17.6719C102.965 17.2344 104.212 15.7812 104.868 14.6719L104.95 14.5625L105.065 14.4688C105.344 14.2344 105.852 13.8281 106 12.7813C106.033 12.4844 105.934 12.2188 105.738 12.0469ZM97.1899 9.04688C96.8945 9.54688 96.3531 9.85937 95.7625 9.85937C95.5 9.85937 95.2539 9.79688 95.0078 9.67188C94.2203 9.26563 93.843 8.29687 94.2695 7.5625C94.6961 6.8125 95.5984 6.48437 96.3859 6.89062L96.5336 6.95312C97.3211 7.35937 97.6164 8.29688 97.1899 9.04688Z" fill="white" stroke="#FF6600"/>
</svg>
