<svg width="81" height="81" viewBox="0 0 81 81" fill="none" xmlns="http://www.w3.org/2000/svg">
<path d="M26.3931 22.2675L27.228 23.1197L24.3074 25.8389L23.5637 24.9018L26.3931 22.2675Z" fill="white" stroke="#FF6600"/>
<path d="M22.8612 18.6604L23.696 19.5127L21.1593 21.8734L20.4155 20.9363L22.8612 18.6604Z" fill="white" stroke="#FF6600"/>
<path d="M19.3281 15.0521L20.1629 15.9044L18.0113 17.9077L17.2675 16.9706L19.3281 15.0521Z" fill="white" stroke="#FF6600"/>
<path d="M15.7949 11.445L16.6295 12.2964L14.863 13.942L14.1193 13.005L15.7949 11.445Z" fill="white" stroke="#FF6600"/>
<path d="M32.1809 30.6721L33.4584 29.4827L34.0825 30.1198C33.4879 30.3981 32.8462 30.5852 32.1809 30.6721Z" fill="white" stroke="#FF6600"/>
<path d="M29.9252 25.8744L30.7601 26.7268L27.675 29.6002C27.3373 29.3738 27.0244 29.12 26.7436 28.8366L29.9252 25.8744Z" fill="white" stroke="#FF6600"/>
<path d="M7.82294 5.07543L8.72961 4.23051L9.56428 5.08264L8.56657 6.01155L7.82294 5.07543Z" fill="white" stroke="#FF6600"/>
<path d="M29.0218 74.5725L29.0217 74.5724C27.7186 73.1641 26.9913 71.338 26.9083 69.3056M29.0218 74.5725L27.4079 69.2852M29.0218 74.5725L32.484 78.3118L32.4842 78.312C32.7185 78.5648 32.8427 78.8832 32.8427 79.2039C32.8427 79.7471 32.3557 80.2501 31.682 80.2501C31.3586 80.2501 31.0656 80.1344 30.8479 79.9317L29.1371 78.3389C29.137 78.3388 29.1369 78.3387 29.1368 78.3386C27.37 76.6909 24.5613 76.5505 22.5918 77.9982L22.5917 77.9983C21.1046 79.0922 19.3465 79.8209 17.5092 80.1026C13.8303 80.6606 10.2254 79.6125 7.61424 77.2342C5.00529 74.8579 3.81558 71.5572 4.33184 68.1689C5.04215 63.5109 9.45997 59.6928 14.9177 59.1872L14.9181 59.1872C17.8603 58.9124 20.625 57.5318 22.5014 55.3854M29.0218 74.5725L22.5014 55.3853M26.9083 69.3056L27.4079 69.2852M26.9083 69.3056C26.9083 69.3057 26.9083 69.3058 26.9083 69.3058L27.4079 69.2852M26.9083 69.3056C26.835 67.527 26.2727 65.7824 25.2797 64.2621C23.4987 61.5354 23.7514 57.7344 25.9038 55.399M27.4079 69.2852C27.3309 67.4149 26.7398 65.5832 25.6983 63.9887C24.0361 61.4439 24.282 57.8963 26.2716 55.7377M25.9038 55.399L26.2716 55.7377M25.9038 55.399C25.9039 55.3989 25.9039 55.3988 25.904 55.3988M25.9038 55.399L25.904 55.3988M26.2716 55.7377L25.904 55.3988M26.2716 55.7377L25.904 55.3988M22.5014 55.3853L22.125 55.0563L22.5014 55.3854M22.5014 55.3853C22.5014 55.3854 22.5014 55.3854 22.5014 55.3854M22.5014 55.3853L22.5014 55.3854M31.0344 51.7212C31.3067 51.5857 31.5846 51.4601 31.8672 51.3445L30.9558 51.203C30.7027 51.325 30.454 51.4551 30.21 51.5932L31.0344 51.7212ZM27.6331 54.259L27.2653 53.9203C27.2653 53.9204 27.2652 53.9204 27.2652 53.9204L27.6331 54.259ZM28.4161 51.3146L28.4924 50.8204L28.4156 51.3145C28.4157 51.3145 28.4157 51.3145 28.4157 51.3145C28.4158 51.3145 28.416 51.3145 28.4161 51.3146ZM26.5265 50.7817L26.768 50.5054L26.3916 50.1763L26.1806 50.6296C26.2944 50.6825 26.4097 50.7333 26.5265 50.7817ZM7.65755 69.7156C7.65755 73.833 11.2327 77.1121 15.565 77.1121C19.8972 77.1121 23.4724 73.833 23.4724 69.7156C23.4724 65.5981 19.8972 62.319 15.565 62.319C11.2327 62.319 7.65755 65.5981 7.65755 69.7156Z" fill="white" stroke="#FF6600"/>
<path d="M68.4606 10.5109L68.4606 10.5109L48.5001 39.3169L42.1866 32.8702L68.8568 2.36279C69.5249 3.47241 69.8797 4.72629 69.8797 6.03018C69.8797 7.62114 69.3907 9.16907 68.4606 10.5109Z" fill="white" stroke="#FF6600"/>
<path d="M10.9711 9.03989L12.2628 7.83728L13.0977 8.68957L11.7149 9.97696L10.9711 9.03989Z" fill="white" stroke="#FF6600"/>
<path d="M73.8288 78.2613L73.8289 78.2613L79.1706 80.25H60.0093C59.3996 80.25 58.7824 80.2049 58.1767 80.116L58.1755 80.1158C53.2806 79.4093 49.4277 75.7229 48.7677 71.1951L48.7677 71.1951C48.3963 68.6497 48.971 66.1862 50.4317 64.0608C52.1488 61.5634 51.7896 57.6969 49.6676 55.3908L49.6659 55.389L49.4111 55.1148C49.4109 55.1145 49.4107 55.1142 49.4104 55.114C46.393 51.8375 42.221 49.6477 37.6637 48.9414C37.6637 48.9414 37.6637 48.9414 37.6636 48.9414L29.0549 47.6049L29.0543 47.6048C27.8588 47.4205 26.8467 46.7533 26.264 45.7881L26.2639 45.788L1.46536 4.74385L1.46497 4.7432C1.32354 4.50991 1.25 4.24628 1.25 3.98172C1.25 3.46687 1.52363 2.97483 2.00878 2.67441L2.00939 2.67403L3.7934 1.5658C3.79358 1.56569 3.79376 1.56557 3.79395 1.56546C4.12709 1.35993 4.51426 1.25 4.91741 1.25C5.29519 1.25 5.65986 1.34995 5.9728 1.52837L2.90411 4.38543L2.56591 4.70031L2.85319 5.06224L23.1791 30.6691L23.1793 30.6694C24.9376 32.8811 27.6267 34.2602 30.5553 34.464L30.5556 34.464C30.807 34.4813 31.0585 34.49 31.3085 34.49C33.2862 34.49 35.2046 33.9429 36.8433 32.938L50.3758 46.7557C50.3758 46.7557 50.3758 46.7557 50.3758 46.7557C50.5381 46.9222 50.6204 47.1268 50.6204 47.3348V49.3652C50.6204 51.3612 51.3573 53.3131 52.689 54.8604C52.6892 54.8606 52.6894 54.8608 52.6896 54.861L53.0427 55.2737L53.0433 55.2744C54.9494 57.4931 57.7731 58.9191 60.7909 59.2009L60.791 59.2009C66.2261 59.7072 70.5974 63.5672 71.2608 68.2913L71.2608 68.2914C71.4686 69.7681 71.3567 71.2222 70.927 72.6165C70.2038 74.9623 71.4758 77.3847 73.8288 78.2613ZM34.3241 43.5086C34.3241 45.342 35.9081 46.7672 37.787 46.7672C39.666 46.7672 41.25 45.342 41.25 43.5086C41.25 41.6753 39.666 40.25 37.787 40.25C35.9081 40.25 34.3241 41.6753 34.3241 43.5086ZM52.1018 69.7155C52.1018 73.833 55.677 77.1121 60.0093 77.1121C64.3415 77.1121 67.9167 73.833 67.9167 69.7155C67.9167 65.5981 64.3415 62.319 60.0093 62.319C55.677 62.319 52.1018 65.5981 52.1018 69.7155Z" fill="white" stroke="#FF6600"/>
</svg>
