<svg width="82" height="81" viewBox="0 0 82 81" fill="none" xmlns="http://www.w3.org/2000/svg">
<path d="M68.6786 7.39648C71.7255 7.39648 74.2043 9.87148 74.2043 12.9137C74.2043 15.956 71.7255 18.431 68.6786 18.431C65.6316 18.431 63.1528 15.956 63.1528 12.9137C63.1528 9.87148 65.6316 7.39648 68.6786 7.39648Z" fill="white" stroke="#FF6600"/>
<path d="M68.6787 4.63793C69.4416 4.63793 70.0601 4.02034 70.0601 3.25862V1.87931C70.0601 1.11759 69.4416 0.5 68.6787 0.5C67.9158 0.5 67.2972 1.11759 67.2972 1.87931V3.25862C67.2972 4.02034 67.9158 4.63793 68.6787 4.63793Z" fill="white" stroke="#FF6600"/>
<path d="M60.8641 7.06225C61.1338 7.33156 61.4873 7.46621 61.8409 7.46621C62.1946 7.46621 62.548 7.33156 62.8178 7.06225C63.3574 6.52363 63.3574 5.65035 62.8178 5.11173L61.8409 4.13639C61.3015 3.59777 60.4268 3.59777 59.8874 4.13639C59.3478 4.67501 59.3478 5.54828 59.8874 6.0869L60.8641 7.06225Z" fill="white" stroke="#FF6600"/>
<path d="M57.6272 14.2933H59.0086C59.7715 14.2933 60.39 13.6757 60.39 12.914C60.39 12.1523 59.7715 11.5347 59.0086 11.5347H57.6272C56.8643 11.5347 56.2457 12.1523 56.2457 12.914C56.2457 13.6757 56.8643 14.2933 57.6272 14.2933Z" fill="white" stroke="#FF6600"/>
<path d="M60.8641 18.7653L59.8873 19.7406C59.3476 20.2793 59.3476 21.1525 59.8873 21.6912C60.157 21.9605 60.5105 22.0951 60.8641 22.0951C61.2178 22.0951 61.5712 21.9605 61.841 21.6912L62.8178 20.7158C63.3574 20.1772 63.3574 19.3039 62.8178 18.7653C62.2784 18.2267 61.4036 18.2267 60.8641 18.7653Z" fill="white" stroke="#FF6600"/>
<path d="M67.2972 22.5688V23.9481C67.2972 24.7098 67.9158 25.3274 68.6787 25.3274C69.4416 25.3274 70.0601 24.7098 70.0601 23.9481V22.5688C70.0601 21.807 69.4416 21.1895 68.6787 21.1895C67.9158 21.1895 67.2972 21.807 67.2972 22.5688Z" fill="white" stroke="#FF6600"/>
<path d="M74.5396 18.7653C74 19.3039 74 20.1772 74.5396 20.7158L75.5165 21.6912C75.7862 21.9605 76.1397 22.0951 76.4933 22.0951C76.8469 22.0951 77.2004 21.9605 77.4701 21.6912C78.0098 21.1525 78.0098 20.2793 77.4701 19.7406L76.4933 18.7653C75.9538 18.2267 75.0791 18.2267 74.5396 18.7653Z" fill="white" stroke="#FF6600"/>
<path d="M76.9673 12.914C76.9673 13.6757 77.5858 14.2933 78.3487 14.2933H79.7302C80.4931 14.2933 81.1116 13.6757 81.1116 12.914C81.1116 12.1523 80.4931 11.5347 79.7302 11.5347H78.3487C77.5858 11.5347 76.9673 12.1523 76.9673 12.914Z" fill="white" stroke="#FF6600"/>
<path d="M75.5164 7.46621C75.8699 7.46621 76.2235 7.33156 76.4933 7.06225L77.4701 6.0869C78.0097 5.54828 78.0097 4.67501 77.4701 4.13639C76.9306 3.59777 76.056 3.59777 75.5166 4.13639L74.5397 5.11173C74.0001 5.65035 74.0001 6.52363 74.5397 7.06225C74.8093 7.33156 75.1629 7.46621 75.5164 7.46621Z" fill="white" stroke="#FF6600"/>
<path d="M18.9491 65.3274L18.0332 63.995C17.4124 63.092 16.8598 62.1543 16.3756 61.1895H8.92261C9.05782 62.5763 9.27038 63.957 9.56066 65.3274H18.9491Z" fill="white" stroke="#FF6600"/>
<path d="M10.0263 47.8017C9.69787 49.0404 9.43385 50.2858 9.23181 51.5344H13.9033C13.855 50.1611 13.9283 48.7773 14.1254 47.3965H10.1403C10.103 47.5318 10.0624 47.6658 10.0263 47.8017Z" fill="white" stroke="#FF6600"/>
<path d="M13.0771 75.4621C16.6053 74.1996 20.1987 73.1918 23.8423 72.4458L20.8453 68.0859H10.2538C10.6656 69.5001 11.1598 70.8997 11.7395 72.2796L13.0771 75.4621Z" fill="white" stroke="#FF6600"/>
<path d="M25.8541 28.0861C27.38 28.0861 28.6169 26.851 28.6169 25.3275C28.6169 23.8039 27.38 22.5688 25.8541 22.5688C24.3282 22.5688 23.0912 23.8039 23.0912 25.3275C23.0912 26.851 24.3282 28.0861 25.8541 28.0861Z" fill="white" stroke="#FF6600"/>
<path d="M27.2355 33.6033C28.7589 33.6033 29.9984 32.3658 29.9984 30.8447C29.9984 30.3127 29.8439 29.818 29.5809 29.397C28.5976 30.2956 27.2889 30.8447 25.8541 30.8447C25.3796 30.8447 24.9187 30.7846 24.4789 30.6718C24.4752 30.7289 24.4727 30.7865 24.4727 30.8447C24.4727 32.3658 25.7121 33.6033 27.2355 33.6033Z" fill="white" stroke="#FF6600"/>
<path d="M11.0139 44.6379H14.6894C15.0727 43.2064 15.5891 41.8219 16.2297 40.5H12.7827C12.1149 41.8372 11.5237 43.2176 11.0139 44.6379Z" fill="white" stroke="#FF6600"/>
<path d="M15.8873 6.90954C16.0367 7.30437 15.997 7.74557 15.7794 8.10747L14.1495 10.8173L19.1683 13.0319C19.5829 13.2149 19.8811 13.5892 19.9665 14.0337C20.0519 14.4782 19.9135 14.9361 19.5961 15.2592L19.1235 15.7406C20.4613 16.6313 21.6996 17.5819 22.8082 18.5662C23.4883 17.4218 24.2901 16.2533 25.1968 15.083C24.681 13.9002 24.0763 12.7047 23.3872 11.5209C21.2029 7.76902 17.6179 5.29247 14.9953 3.87575C14.2524 3.47454 13.2754 3.45178 12.3151 3.81334C11.7472 4.02713 11.2404 4.3554 10.8351 4.75937L15.0129 6.08247C15.4158 6.21006 15.738 6.51488 15.8873 6.90954Z" fill="white" stroke="#FF6600"/>
<path d="M28.8566 20.6995C28.944 20.1397 29.3724 19.669 29.9612 19.5566L35.8508 18.4333L34.7531 16.1209C34.5699 15.735 34.5761 15.2864 34.7695 14.9057C34.9631 14.525 35.3222 14.2554 35.7422 14.1752L42.035 12.9752L41.3876 9.50467C41.3161 9.1214 41.4104 8.72588 41.6471 8.41588C41.8839 8.10588 42.2408 7.91036 42.6298 7.87778L47.8197 7.44209C47.5991 6.87605 47.2212 6.36985 46.7123 5.97623C46.108 5.50864 45.3981 5.26416 44.6834 5.26416C44.4109 5.26416 44.1377 5.29985 43.8693 5.37192C40.6214 6.24709 35.9662 8.01985 32.233 11.4947C29.3277 14.1991 26.9063 17.1072 25.2612 19.8426C25.4564 19.8217 25.6539 19.8103 25.8542 19.8103C26.9607 19.8103 27.9915 20.1379 28.8566 20.6995Z" fill="white" stroke="#FF6600"/>
<path d="M40.2549 19.551C39.9078 19.5976 39.5635 19.6479 39.2209 19.7002C39.1972 19.8302 39.157 19.9578 39.0957 20.0783C38.9021 20.459 38.5429 20.7286 38.123 20.8088L31.8302 22.0088L32.2236 24.1181C32.5211 24.0138 32.854 24.0098 33.1681 24.1279L39.024 26.3312L39.5486 24.0133C39.6367 23.6241 39.8892 23.2921 40.2409 23.1029C40.5926 22.9138 41.0095 22.886 41.3832 23.0266L47.6064 25.3681L49.2713 22.3643C49.6286 21.7197 50.4304 21.4691 51.0919 21.7957L55.9285 24.1814C56.0939 23.7074 56.1082 23.2079 55.9632 22.7164C55.7025 21.8329 54.9758 21.1533 53.9696 20.8516C50.6688 19.8619 45.61 18.8329 40.2549 19.551Z" fill="white" stroke="#FF6600"/>
<path d="M31.3882 24.9026C31.3794 24.9021 31.3706 24.9012 31.3618 24.9009C31.3629 24.9154 31.3641 24.9298 31.3651 24.9443L31.3882 24.9026Z" fill="white" stroke="#FF6600"/>
<path d="M20.3284 30.8449C20.8382 30.8449 21.3151 30.7052 21.7247 30.4631C21.7541 30.0375 21.8318 29.6249 21.953 29.2309C20.9499 28.2318 20.3284 26.8507 20.3284 25.3276C18.805 25.3276 17.5656 26.5652 17.5656 28.0863C17.5656 29.6073 18.805 30.8449 20.3284 30.8449Z" fill="white" stroke="#FF6600"/>
<path d="M17.8078 37.7416C18.8373 36.1963 20.054 34.7685 21.4406 33.4897C21.0813 33.5635 20.7095 33.6037 20.3284 33.6037C19.3996 33.6037 18.5242 33.3727 17.7551 32.9668C16.4801 34.4704 15.3288 36.0652 14.3081 37.7416H17.8078Z" fill="white" stroke="#FF6600"/>
<path d="M8.75598 58.4309H15.205C14.7324 57.0842 14.3841 55.6997 14.1653 54.293H8.88912C8.76859 55.6726 8.72404 57.0533 8.75598 58.4309Z" fill="white" stroke="#FF6600"/>
<path d="M47.957 46.704V48.0886C47.957 48.4674 48.2658 48.7755 48.645 48.7755H55.5575C55.9369 48.7755 56.2455 48.4673 56.2455 48.0886V46.704C56.2455 46.3252 55.9367 46.0171 55.5575 46.0171H48.645C48.2658 46.0171 47.957 46.3254 47.957 46.704Z" fill="white" stroke="#FF6600"/>
<path d="M43.8127 62.5688H46.5756V65.3275H43.8127V62.5688Z" fill="white" stroke="#FF6600"/>
<path d="M43.8127 57.0518H46.5756V59.8104H43.8127V57.0518Z" fill="white" stroke="#FF6600"/>
<path d="M78.1577 44.0154L52.1014 31.0073L26.0449 44.0154C25.9272 44.0742 25.8541 44.1925 25.8541 44.3239V47.3652C25.8541 47.524 25.9432 47.6125 26.018 47.6585C26.0926 47.7047 26.2116 47.7447 26.354 47.6737L51.4837 35.1282C51.6782 35.0311 51.8899 34.9825 52.1016 34.9825C52.3133 34.9825 52.525 35.0311 52.7194 35.1282L77.8491 47.6737C77.9914 47.7447 78.1104 47.7047 78.1852 47.6585C78.2599 47.6123 78.349 47.524 78.349 47.3652V44.3239C78.3487 44.1925 78.2755 44.0742 78.1577 44.0154Z" fill="white" stroke="#FF6600"/>
<path d="M31.3799 48.2494V71.2822C34.1243 70.9935 36.889 70.8453 39.6685 70.8453C45.2707 70.8453 50.8143 71.4385 56.2457 72.6061V59.8108C56.2457 59.0491 56.8643 58.4315 57.6272 58.4315H68.6787C69.4416 58.4315 70.0601 59.0491 70.0601 59.8108V76.8527L72.823 77.869V48.2496L52.1014 37.9048L31.3799 48.2494ZM49.3386 66.7073C49.3386 67.4691 48.72 68.0866 47.9571 68.0866H36.9056C36.1427 68.0866 35.5242 67.4691 35.5242 66.7073V55.6729C35.5242 54.9111 36.1427 54.2936 36.9056 54.2936H47.9571C48.72 54.2936 49.3386 54.9111 49.3386 55.6729V66.7073ZM59.0086 46.7046V48.0893C59.0086 49.9893 57.4605 51.5348 55.5578 51.5348H48.6452C46.7423 51.5348 45.1944 49.9891 45.1944 48.0893V46.7046C45.1944 44.8046 46.7425 43.2591 48.6452 43.2591H55.5578C57.4605 43.2591 59.0086 44.8048 59.0086 46.7046Z" fill="white" stroke="#FF6600"/>
<path d="M67.2972 75.8356V61.1895H59.0085V68.086C59.0085 67.3243 59.6271 66.7067 60.39 66.7067H61.7714C62.5343 66.7067 63.1529 67.3243 63.1529 68.086C63.1529 68.8477 62.5343 69.4653 61.7714 69.4653H60.39C59.6271 69.4653 59.0085 68.8477 59.0085 68.086V73.2508C61.6787 73.9265 64.3195 74.7403 66.923 75.6981L67.2972 75.8356Z" fill="white"/>
<path d="M59.0085 68.086V61.1895H67.2972V75.8356L66.923 75.6981C64.3195 74.7403 61.6787 73.9265 59.0085 73.2508V68.086ZM59.0085 68.086C59.0085 67.3243 59.6271 66.7067 60.39 66.7067H61.7714C62.5343 66.7067 63.1529 67.3243 63.1529 68.086C63.1529 68.8477 62.5343 69.4653 61.7714 69.4653H60.39C59.6271 69.4653 59.0085 68.8477 59.0085 68.086Z" stroke="#FF6600"/>
<path d="M12.4899 20.1033C12.9399 20.0518 13.387 20.2243 13.6859 20.5647C13.9845 20.905 14.0971 21.37 13.9869 21.809L13.4267 24.0402L17.0855 23.6226C17.997 22.9605 19.1174 22.5686 20.3284 22.5686C20.5235 22.5686 20.7152 22.5824 20.905 22.6024C21.0652 22.1164 21.2593 21.6142 21.4878 21.0966C19.7953 19.5088 17.7043 17.9899 15.3652 16.6702C11.5808 14.5352 7.23375 14.2087 4.25399 14.3095C3.40976 14.3383 2.55535 14.8118 1.9097 15.6083C1.5279 16.0793 1.2568 16.6183 1.11157 17.1716L5.38625 16.2045C5.79809 16.1112 6.23066 16.2114 6.55944 16.4768C6.88822 16.7419 7.07748 17.1428 7.07281 17.5649L7.03845 20.7257L12.4899 20.1033Z" fill="white" stroke="#FF6600"/>
<path d="M39.6684 73.6035C30.6654 73.6035 21.8171 75.1792 13.369 78.2868L7.35229 80.5001H71.9845L65.9678 78.2868C57.5197 75.1792 48.6714 73.6035 39.6684 73.6035Z" fill="white" stroke="#FF6600"/>
<path d="M38.287 57.0518H41.0499V59.8104H38.287V57.0518Z" fill="white" stroke="#FF6600"/>
<path d="M38.287 62.5688H41.0499V65.3275H38.287V62.5688Z" fill="white" stroke="#FF6600"/>
</svg>
