<svg width="82" height="80" viewBox="0 0 82 80" fill="none" xmlns="http://www.w3.org/2000/svg">
<path d="M80.6378 21.8319L80.6548 21.8147L80.6702 21.796C81.1972 21.1513 81.4999 20.3401 81.4999 19.4526C81.4999 17.4109 79.8526 15.7525 77.7998 15.7525C76.8963 15.7525 76.0633 16.0751 75.4256 16.6267L75.4122 16.6383L75.3996 16.6509L67.8563 24.1767L58.6755 15.0034L58.6756 15.0033L58.6683 14.9963C57.8576 14.2185 56.7607 13.7134 55.5211 13.7134L55.5208 13.7134L40.5768 13.7226C40.5768 13.7226 40.5767 13.7226 40.5767 13.7226C40.5766 13.7226 40.5766 13.7226 40.5765 13.7226C39.461 13.7227 38.4702 14.2314 37.805 15.0146L27.5123 26.8761C26.7819 27.5348 26.3271 28.4878 26.3271 29.5539C26.3271 31.5326 27.9313 33.1399 29.9255 33.1399C31.0331 33.1399 32.0359 32.6468 32.6989 31.8381L42.1147 20.9559L46.3159 20.9782L26.0868 44.4292L12.063 44.3929C11.6995 44.383 11.3279 44.4161 10.9478 44.4959L10.9478 44.4958L10.942 44.4971C8.53372 45.0319 7.03322 47.4013 7.58622 49.8126C8.05887 51.9273 9.95201 53.347 12.0316 53.3189C12.0327 53.3189 12.0338 53.3189 12.0348 53.3189L28.5933 53.2896C30.4252 53.3518 31.716 52.9575 32.5624 52.5273C32.9847 52.3126 33.2924 52.091 33.4987 51.9177C33.6019 51.8311 33.6797 51.7566 33.7338 51.7011C33.7609 51.6734 33.7821 51.6504 33.7976 51.633C33.8009 51.6293 33.8039 51.6259 33.8067 51.6227C33.8104 51.6184 33.8137 51.6146 33.8166 51.6113L33.8175 51.6102L41.6407 42.8873L50.5637 51.5657L46.7778 68.4203C46.6724 68.7874 46.6314 69.1685 46.6314 69.5498C46.6314 72.0212 48.6421 74.0298 51.1129 74.0298C53.2697 74.0298 55.0787 72.493 55.4971 70.4562L60.1809 49.5759C60.7101 47.848 60.5165 46.5163 60.1656 45.6017C59.991 45.1467 59.7802 44.8019 59.6094 44.5674C59.524 44.45 59.4483 44.36 59.3917 44.2971C59.3634 44.2657 59.3398 44.241 59.3222 44.223C59.3133 44.214 59.3059 44.2067 59.3001 44.2011L59.2964 44.1975L51.2562 36.169L59.7323 26.3696L65.1913 31.8547L65.1942 31.8576L65.1998 31.8634C65.2036 31.8672 65.2081 31.8717 65.2133 31.8769C65.2175 31.881 65.2222 31.8856 65.2273 31.8905C65.2501 31.9127 65.2821 31.9428 65.3229 31.9788C65.4042 32.0508 65.5211 32.1472 65.6703 32.2516C65.9669 32.4594 66.4009 32.7062 66.9431 32.8509C68.0668 33.1506 69.5505 32.9826 71.1108 31.4222L71.1119 31.4211L80.6378 21.8319Z" fill="white" stroke="#FF6600"/>
<path d="M12.224 60.6897L12.2245 60.6895L15.093 59.5612C15.0931 59.5612 15.0931 59.5612 15.0931 59.5611C16.1424 59.1486 16.6586 57.9629 16.2464 56.9138L16.2461 56.913C15.8316 55.8633 14.649 55.3521 13.6 55.7615L13.5987 55.762L10.8233 56.8536C10.7897 56.8408 10.7412 56.8188 10.6782 56.783C10.502 56.6829 10.2597 56.5023 9.98287 56.2243C9.43198 55.6711 8.77372 54.7619 8.25095 53.433L4.44238 43.7521C4.44231 43.752 4.44225 43.7518 4.44218 43.7516C4.03074 42.7003 2.84379 42.1881 1.79487 42.5994L1.79447 42.5996C0.745256 43.012 0.228602 44.1978 0.64284 45.2473C0.642892 45.2475 0.642943 45.2476 0.642994 45.2477L4.45166 54.9289C5.15661 56.7218 6.13968 58.2109 7.25156 59.2591C8.35879 60.303 9.62918 60.9401 10.8977 60.9401C11.3492 60.9401 11.795 60.858 12.224 60.6897ZM10.8741 56.8687C10.8742 56.8689 10.8715 56.8686 10.8657 56.8672C10.8711 56.8678 10.874 56.8685 10.8741 56.8687Z" fill="white" stroke="#FF6600"/>
<path d="M63.0981 70.7338C63.0981 69.6049 62.1834 68.6924 61.0568 68.6924C59.93 68.6924 59.0154 69.6049 59.0154 70.7338V73.722C58.9918 73.7483 58.954 73.7853 58.8976 73.8311C58.7409 73.9581 58.4847 74.1169 58.1244 74.2721C57.4077 74.5809 56.3194 74.858 54.8909 74.858H44.486C43.3594 74.858 42.4446 75.7705 42.4446 76.8994C42.4446 78.0283 43.3594 78.9408 44.486 78.9408H54.8909C57.1572 78.9408 59.1779 78.4291 60.6498 77.5457C62.1198 76.6636 63.0981 75.3684 63.0981 73.8163V70.7338ZM59.0461 73.6822C59.0463 73.6821 59.0451 73.6844 59.042 73.689C59.0443 73.6845 59.0459 73.6822 59.0461 73.6822Z" fill="white" stroke="#FF6600"/>
<path d="M65.4946 16.3766C69.8766 16.3766 73.4259 12.813 73.4259 8.43444C73.4259 4.05198 69.8758 0.5 65.4946 0.5C61.1127 0.5 57.5508 4.05097 57.5508 8.43444C57.5508 12.814 61.1119 16.3766 65.4946 16.3766Z" fill="white" stroke="#FF6600"/>
</svg>
