<svg width="74" height="74" viewBox="0 0 74 74" fill="none" xmlns="http://www.w3.org/2000/svg">
<path d="M13.75 48.75H17.75V72.75H13.75V48.75Z" fill="white" stroke="#FF6600"/>
<path d="M11.25 41.25H62.7513V45.25H11.25V41.25Z" fill="white" stroke="#FF6600"/>
<path d="M38.75 56.25H45.25V72.75H38.75V56.25Z" fill="white" stroke="#FF6600"/>
<path d="M28.75 56.25H35.25V72.75H28.75V56.25Z" fill="white" stroke="#FF6600"/>
<path d="M2 6.25H7.75V12.75H2C1.58614 12.75 1.25 12.4139 1.25 12V7C1.25 6.58614 1.58614 6.25 2 6.25Z" fill="white" stroke="#FF6600"/>
<path d="M55.75 2.75H55.25V3.25V15.75V16.25H55.75H60.75H61.25V15.75V13.25V12.75H60.75H58.75V11.25H60.75H61.25V10.75V8.25V7.75H60.75H58.75V6.25H60.75H61.25V5.75V3.25V2.75H60.75H55.75ZM53.25 8.75H53.75V8.25V7C53.75 4.65636 51.8436 2.75 49.5 2.75C47.1564 2.75 45.25 4.65636 45.25 7V12C45.25 14.3436 47.1564 16.25 49.5 16.25C51.8436 16.25 53.75 14.3436 53.75 12V10.75V10.25H53.25H50.75H50.25V10.75V12C50.25 12.4139 49.9139 12.75 49.5 12.75C49.0861 12.75 48.75 12.4139 48.75 12V7C48.75 6.58614 49.0861 6.25 49.5 6.25C49.9139 6.25 50.25 6.58614 50.25 7V8.25V8.75H50.75H53.25ZM40.75 2.75H40.25V3.25V15.75V16.25H40.75H43.25H43.75V15.75V3.25V2.75H43.25H40.75ZM33.25 2.75H32.75V3.25V15.75V16.25H33.25H38.25H38.75V15.75V13.25V12.75H38.25H36.25V3.25V2.75H35.75H33.25ZM13.25 2.75H12.75V3.25V15.75V16.25H13.25H15.75H16.25V15.75V11.25H17C19.3436 11.25 21.25 9.34364 21.25 7C21.25 4.65636 19.3436 2.75 17 2.75H13.25ZM62 17.75H12C11.5861 17.75 11.25 17.4139 11.25 17V2C11.25 1.58614 11.5861 1.25 12 1.25H62C62.4139 1.25 62.75 1.58614 62.75 2V17C62.75 17.4139 62.4139 17.75 62 17.75ZM25.75 2.75C24.0951 2.75 22.75 4.09511 22.75 5.75V13.25C22.75 14.9049 24.0951 16.25 25.75 16.25H28.25C29.9049 16.25 31.25 14.9049 31.25 13.25V5.75C31.25 4.09511 29.9049 2.75 28.25 2.75H25.75Z" fill="white" stroke="#FF6600"/>
<path d="M26.25 6.25H27.7512V12.75H26.25V6.25Z" fill="white" stroke="#FF6600"/>
<path d="M17 6.25C17.4139 6.25 17.75 6.58614 17.75 7C17.75 7.41386 17.4139 7.75 17 7.75H16.25V6.25H17Z" fill="white" stroke="#FF6600"/>
<path d="M66.25 12.75V6.25H72C72.4139 6.25 72.75 6.58614 72.75 7V12C72.75 12.4139 72.4139 12.75 72 12.75H66.25Z" fill="white" stroke="#FF6600"/>
<path d="M22 32.5H22.5V32V24.5V24H22H14.5H14V24.5V32V32.5H14.5H22ZM34.5 32.5H35V32V24.5V24H34.5H27H26.5V24.5V32V32.5H27H34.5ZM47 32.5H47.5V32V24.5V24H47H39.5H39V24.5V32V32.5H39.5H47ZM59.5 32.5H60V32V24.5V24H59.5H52H51.5V24.5V32V32.5H52H59.5ZM62 21.25C64.3436 21.25 66.25 19.3436 66.25 17V16.25H70.25V72.75H63.75V48.7084C65.1675 48.4698 66.25 47.2346 66.25 45.75V40.75C66.25 39.0951 64.9049 37.75 63.25 37.75H10.75C9.09511 37.75 7.75 39.0951 7.75 40.75V45.75C7.75 47.2346 8.83247 48.4698 10.25 48.7084V72.75H3.75V16.25H7.75V17C7.75 19.3436 9.65636 21.25 12 21.25H62Z" fill="white" stroke="#FF6600"/>
<path d="M22.75 55.75V56.25H23.25H25.25V72.75H21.25V48.75H52.75V72.75H48.75V56.25H50.75H51.25V55.75V53.25V52.75H50.75H23.25H22.75V53.25V55.75Z" fill="white" stroke="#FF6600"/>
<path d="M56.25 48.75H60.25V72.75H56.25V48.75Z" fill="white" stroke="#FF6600"/>
</svg>
