<svg width="78" height="99" viewBox="0 0 78 99" fill="none" xmlns="http://www.w3.org/2000/svg">
<path d="M62.4681 82.2291L65.7413 72.602C64.5582 69.7135 62.6122 65.5932 60.0186 62.2402C59.1968 61.1871 58.5596 60.014 58.1319 58.7666C57.8344 59.0433 57.5135 59.2961 57.1723 59.5225C58.2053 61.8338 61.021 68.6502 61.1679 74.5695C61.2317 77.1402 59.1901 82.9523 57.3887 88.0801C56.5309 90.5215 55.7901 92.6309 55.5418 93.6822C55.3342 94.5611 54.5855 95.4223 53.3156 96.2432C53.2306 96.2983 53.1584 96.3695 53.1037 96.4525C53.0489 96.5355 53.0128 96.6283 52.9976 96.7252C52.9826 96.8229 52.9703 96.9094 52.9598 96.9883H57.4065C57.456 96.9885 57.5049 96.9781 57.5495 96.9578C57.5942 96.9375 57.6334 96.9079 57.6643 96.8711C57.6956 96.8351 57.7178 96.7928 57.7294 96.7475C57.741 96.7021 57.7416 96.6548 57.7312 96.6092C57.6438 96.2063 57.5466 95.7908 57.4408 95.3746C57.3278 94.9273 57.0922 93.9961 59.8246 87.8477C61.0139 85.1717 62.2632 82.6418 62.4681 82.2291Z" fill="white" stroke="#FF6600"/>
<path d="M31.9609 96.9886H33.4006L36.3947 93.8415C36.4707 93.7662 36.53 93.6772 36.5692 93.5796C36.6084 93.4821 36.6267 93.3781 36.623 93.2737L36.2489 82.7499C36.1901 81.116 36.2394 79.4801 36.3966 77.8521C36.696 74.7745 36.9936 68.7345 35.6242 62.8608C35.0501 60.5018 34.7929 58.0828 34.8587 55.662C34.5083 55.362 34.1872 55.0324 33.8991 54.6772C33.7187 56.629 32.9775 59.212 33.7295 62.4374C35.1597 68.5702 34.8525 74.8407 34.5421 78.0323C34.3929 79.5785 34.3461 81.1321 34.402 82.6839L34.7615 92.7937C34.7878 93.5358 34.5133 94.2592 33.9947 94.8138L31.9609 96.9886Z" fill="white" stroke="#FF6600"/>
<path d="M1.75571 13.9536C1.87039 13.9632 1.98582 13.9611 2.10004 13.9474C3.26796 13.453 3.96953 13.3614 7.72471 12.9317C11.0131 12.5552 10.992 10.3673 10.9898 10.2743C10.9863 10.1461 11.0094 10.0184 11.0578 9.8987C11.1061 9.77896 11.1788 9.66946 11.2715 9.57646C11.3643 9.48346 11.4754 9.40877 11.5985 9.35666C11.7216 9.30455 11.8542 9.27604 11.9889 9.27275C12.1236 9.26947 12.2576 9.29148 12.3833 9.33752C12.509 9.38357 12.624 9.45274 12.7217 9.5411C12.8193 9.62947 12.8977 9.73528 12.9524 9.85251C13.0072 9.96973 13.0371 10.0961 13.0405 10.2243C13.0319 11.3317 12.5828 12.3948 11.7838 13.1993C13.0703 14.0661 15.0561 15.5663 16.2186 17.2474C20.5124 23.4571 23.4058 26.5356 25.7308 29.0091C28.178 31.6124 30.1108 33.6687 32.3138 37.9935C32.3246 38.0145 32.3344 38.0358 32.3433 38.0573C32.4059 38.206 33.8529 41.7337 32.3304 45.039C31.8792 46.0155 32.3201 48.0372 33.4788 50.3124C33.9512 51.2455 34.5038 52.1399 35.1309 52.9862C35.5345 50.6886 36.2222 49.4821 36.2784 49.3868C36.4124 49.1636 36.6334 48.9997 36.8935 48.9307C37.1536 48.8617 37.4318 48.8933 37.6676 49.0184C37.9035 49.1436 38.078 49.3523 38.1533 49.5992C38.2286 49.8462 38.1985 50.1114 38.0697 50.3374C38.0529 50.3675 37.4838 51.3907 37.1448 53.3599C36.8278 55.2034 36.6526 58.2747 37.6239 62.4376C39.0541 68.5704 38.7469 74.8409 38.4364 78.0325C38.2873 79.5787 38.2405 81.1323 38.2963 82.6841L38.6968 93.9499C38.7015 94.0804 38.6786 94.2104 38.6296 94.3323C38.5806 94.4542 38.5064 94.5655 38.4114 94.6597L36.0614 96.9888H40.0686C40.3433 96.3091 40.5694 95.6125 40.7454 94.9038C40.784 94.7479 40.7751 94.5848 40.7197 94.4335C39.1201 90.4417 41.7289 68.9319 42.9245 59.8694C43.0524 58.8772 43.3182 57.9057 43.7149 56.9802C44.5124 55.1355 46.8253 48.5794 43.1023 41.6606C43.0409 41.5465 43.0037 41.422 42.9928 41.2941C42.9819 41.1663 42.9976 41.0377 43.0389 40.9156C43.0802 40.7935 43.1464 40.6804 43.2336 40.5827C43.3208 40.485 43.4274 40.4046 43.5473 40.3461C43.6671 40.2876 43.7979 40.2522 43.9321 40.2418C44.0663 40.2314 44.2014 40.2464 44.3295 40.2857C44.4577 40.3251 44.5765 40.3881 44.6791 40.4711C44.7817 40.5542 44.8661 40.6557 44.9275 40.7698C48.7379 47.8517 46.843 54.5784 45.8375 57.1687C47.2463 57.4713 48.6333 57.8592 49.9903 58.33C52.36 59.1356 54.3706 59.0013 55.9663 57.9304C56.6184 57.4866 57.1688 56.9208 57.5837 56.2677C57.1362 51.9837 59.1435 48.5026 59.2666 48.2946C59.332 48.1817 59.4202 48.0823 59.5262 48.002C59.6322 47.9218 59.7538 47.8623 59.884 47.8271C60.0142 47.7918 60.1505 47.7815 60.285 47.7966C60.4194 47.8118 60.5494 47.8522 60.6674 47.9154C60.7853 47.9787 60.889 48.0635 60.9724 48.1651C61.0557 48.2667 61.1171 48.3831 61.153 48.5074C61.1889 48.6317 61.1987 48.7616 61.1816 48.8895C61.1645 49.0174 61.1211 49.1408 61.0536 49.2526C60.9046 49.5075 57.426 55.5979 61.6689 61.0821C65.3705 65.8673 67.7929 72.0823 68.662 74.5323C68.981 75.4307 69.1683 76.3668 69.2186 77.314C69.3827 80.413 69.2514 90.2991 68.944 93.5292C68.8774 94.2297 68.5911 94.895 68.1223 95.4386L66.2766 97.587H71.1086C71.4347 97.1714 72.036 95.961 71.0407 93.3388C70.9177 93.0153 70.592 92.1565 71.6543 72.1749C71.6329 71.8824 71.5539 71.5963 71.4216 71.3315C71.3191 71.0883 71.2309 70.8398 71.1574 70.5872C70.1286 66.9257 69.767 63.1232 70.0886 59.3452C70.239 57.8785 70.5906 56.4368 71.1345 55.0571C71.5638 53.8008 71.7866 52.4887 71.7948 51.1675C71.7959 50.9469 71.8488 50.7294 71.9496 50.5309C72.0505 50.3324 72.1968 50.1579 72.3778 50.0203C72.5588 49.8826 72.7698 49.7854 72.9954 49.7356C73.221 49.6859 73.4555 49.6849 73.6815 49.7327C74.4203 49.8869 75.1443 50.0992 75.8461 50.3675C74.7865 48.805 73.1686 48.0925 72.0914 47.7771C71.2632 47.5334 70.5073 47.1066 69.8855 46.5313C68.9284 45.6437 67.6061 45.012 65.9558 44.654C62.3087 43.8626 54.0908 40.372 50.7081 38.7226C49.4563 38.114 48.3592 37.2523 47.4939 36.1976L45.4827 33.7562C44.7585 32.8677 43.8247 32.1543 42.757 31.6737C33.7959 27.7192 14.3442 9.00107 13.5215 8.20615C13.3881 8.07744 13.2949 7.91599 13.2522 7.73979C13.2095 7.56359 13.219 7.37956 13.2796 7.2082C13.3403 7.03685 13.4497 6.8849 13.5957 6.76929C13.7417 6.65368 13.9186 6.57895 14.1065 6.55342C15.216 6.40283 15.8097 5.45967 16.1038 4.74717C15.5157 4.66206 14.9155 4.69424 14.3412 4.84167C13.7669 4.98911 13.2311 5.24857 12.7676 5.60361C12.6516 5.70214 12.5137 5.77427 12.3641 5.81457C12.2146 5.85486 12.0574 5.86226 11.9044 5.8362C11.7515 5.81015 11.6067 5.75132 11.4811 5.66416C11.3555 5.57701 11.2524 5.4638 11.1795 5.33311C10.7349 4.53662 10.757 3.33486 10.8675 2.4126L9.64753 4.07412C9.52081 4.24677 9.33888 4.37577 9.12888 4.44188C8.91888 4.50798 8.69206 4.50765 8.48227 4.44092C7.94907 4.27119 6.95137 4.85928 6.59555 5.76396C6.12818 6.95146 4.44223 9.37725 1.84123 11.8968C1.50326 12.2243 1.10971 12.7046 1.15422 13.1317C1.19236 13.496 1.54981 13.8042 1.75571 13.9536Z" fill="white" stroke="#FF6600"/>
</svg>
