<svg width="62" height="82" viewBox="0 0 62 82" fill="none" xmlns="http://www.w3.org/2000/svg">
<path d="M56.9755 68.2179C59.5652 64.0222 60.9999 59.2933 60.9999 54.333C60.9999 42.7781 53.7087 32.7545 42.8165 29.1014C41.351 26.7339 38.9452 25.0245 36.1071 24.5123L37.6665 21.3936C38.0782 20.57 37.7446 19.569 36.921 19.1573L38.412 16.1756C39.2356 16.5842 40.2332 16.2537 40.6484 15.4301L44.1574 8.41188C44.5691 7.58829 44.2355 6.58735 43.412 6.17548L33.412 1.17549C32.5868 0.765332 31.589 1.0958 31.1756 1.92095L27.6665 8.93922C27.2548 9.76281 27.5884 10.7638 28.412 11.1756L26.921 14.1573C26.0992 13.7487 25.0965 14.0792 24.6846 14.9028L11.1756 41.921C10.7639 42.7446 11.0975 43.7456 11.9211 44.1574L21.9211 49.1574C22.1603 49.2762 22.4142 49.3332 22.6648 49.3332C23.2768 49.3332 23.8643 48.9963 24.1573 48.412L27.547 41.6335C29.3331 43.2948 31.7071 44.3331 34.3331 44.3331C36.5212 44.3331 38.5304 43.6065 40.1785 42.4101C44.7441 44.6428 47.6663 49.2054 47.6663 54.333C47.6663 61.6849 41.6849 67.6663 34.3331 67.6663H20.9998V64.333H25.9998C26.921 64.333 27.6665 63.5876 27.6665 62.6663C27.6665 61.7451 26.921 60.9996 25.9998 60.9996H19.3331H9.33311H2.66672C1.74547 60.9996 1 61.7451 1 62.6663C1 63.5876 1.74547 64.333 2.66672 64.333H7.66671V67.6663C3.98999 67.6663 1 70.6561 1 74.333V79.333C1 80.2542 1.74547 80.9997 2.66672 80.9997H59.3333C60.2546 80.9997 61 80.2542 61 79.333V74.333C61 71.5955 59.3399 69.2435 56.9755 68.2179ZM34.3334 37.6664C32.4959 37.6664 31.0001 36.1706 31.0001 34.3331C31.0001 32.4956 32.4959 30.9998 34.3334 30.9998C36.1709 30.9998 37.6666 32.4956 37.6666 34.3331C37.6666 36.1706 36.1709 37.6664 34.3334 37.6664Z" fill="white" stroke="#FF6600"/>
</svg>
