<svg width="93" height="84" viewBox="0 0 93 84" fill="none" xmlns="http://www.w3.org/2000/svg">
<path d="M91.0308 13.4637C93.1292 13.1645 92.7238 10.1109 90.5628 10.3708C83.6974 11.3026 79.0788 19.2015 77.4422 22.3124C75.8659 21.9372 74.3065 21.7338 72.7793 21.7031C73.5482 17.8281 76.2002 8.27041 84.2336 3.59358C86.0312 2.5388 84.4029 -0.136876 82.5223 0.927937C72.7384 6.62359 70.0438 18.1217 69.4081 21.8745C63.9928 22.5757 59.4612 25.3738 57.5742 29.6249C50.9745 26.1693 40.0405 28.4085 35.0649 33.8908C29.9867 27.5717 20.5075 27.0644 12.7196 30.3749C0.69376 35.5155 0.562493 49.453 0.562493 50.0468C-0.0148925 51.1894 8.86519 57.8935 17.2968 57.9063C23.9558 58.0326 31.2228 52.816 34.5891 48.0469C35.6391 49.0937 36.968 49.953 38.5102 50.6093L35.7375 62.8436L22.9407 60.5936C22.2515 60.4687 21.5789 60.7656 21.218 61.3281L9.01176 80.9374C7.96986 82.6957 10.6837 84.3068 11.8337 82.5311C11.8336 82.5312 23.4657 63.8593 23.4657 63.8593L36.7055 66.1874C37.5914 66.3436 38.4282 65.8124 38.6086 64.9843L41.6601 51.5624C43.5505 51.9816 45.5451 52.0579 47.5008 51.8749L49.9453 61.4531C50.1258 62.1561 50.782 62.6562 51.5367 62.6562H64.432L73.5539 80.3437C74.5119 82.1616 77.4454 80.8257 76.5069 78.9686C76.507 78.9686 66.9258 60.4061 66.9258 60.4061C66.6469 59.8593 66.0727 59.5312 65.4492 59.5312H52.8328L50.7329 51.328C53.1281 50.7499 55.3594 49.7968 57.2461 48.578L61.6922 53.8905C62.004 54.2655 62.4797 54.4843 62.9719 54.4843H71.9461L76.1461 63.7812C76.2774 64.0624 76.4743 64.2967 76.7367 64.453L86.318 70.703C88.0956 71.8 89.9389 69.3374 88.1719 68.1248C88.1719 68.1249 78.9844 62.1406 78.9844 62.1406L74.5219 52.2967C74.2758 51.7343 73.6852 51.3593 73.0289 51.3593H63.7595L59.7727 46.5937C60.5109 45.8749 61.1508 45.1406 61.6923 44.3593C69.3468 51.4819 77.5563 50.4965 86.5314 45.8434C89.5665 44.203 91.2563 42.6249 91.5844 41.1249C92.3225 37.6728 86.8299 26.8191 80.5485 23.4251C82.0398 20.575 85.9241 14.1649 91.0308 13.4637ZM72.3562 30.6875C72.3962 28.1324 76.362 28.1466 76.4085 30.6875C76.3617 33.2286 72.3958 33.2421 72.3562 30.6875Z" fill="white" stroke="#FF6600"/>
</svg>
