<svg width="107" height="102" viewBox="0 0 107 102" fill="none" xmlns="http://www.w3.org/2000/svg">
<path d="M105.512 15.4333C105.512 15.8061 105.427 16.196 105.258 16.5519C104.453 18.2129 101.447 22.7214 92.8084 22.7214C92.8084 22.7214 86.4566 22.7214 86.4566 26.1112C86.4566 29.5011 94.9256 39.6706 94.9256 51.535C94.9256 51.535 94.9256 61.7045 86.4566 66.7892C77.9877 71.8739 82.2222 95.6028 82.2222 95.6028C82.2222 95.6028 90.6911 95.6028 90.6911 98.9926V100.688H75.8704C75.8704 100.688 69.5187 95.6028 69.5187 85.4333C69.5187 78.8061 70.4291 75.0604 71.0431 73.2468C71.2972 72.6875 71.4666 72.2807 71.5513 72.0604C71.4242 72.2638 71.2548 72.6367 71.0431 73.2468C69.4129 76.857 64.2468 86.5858 55.5873 88.5011C56.2648 86.6706 56.8153 84.4672 56.8153 82.0434C56.8153 71.8739 46.2291 70.179 46.2291 70.179C46.2291 70.179 54.698 73.5689 54.698 80.3485C54.698 83.7383 53.6394 86.7045 52.5808 88.8231C51.5222 90.9417 50.4635 92.2129 50.4635 92.2129C50.4635 92.2129 52.5808 95.6028 58.9325 95.6028C65.2842 95.6028 65.2842 98.9926 65.2842 98.9926V100.688H31.4084C22.9394 100.688 14.4705 98.9926 14.4705 88.8231C14.4705 78.6536 14.4705 73.5689 20.8222 66.7892C27.1739 60.0095 35.6429 61.7045 48.3463 48.1451C56.5824 39.3655 60.3722 30.5689 62.0237 25.4672C62.7012 25.9587 63.6328 26.1112 65.2842 26.1112C69.5187 26.1112 82.2222 26.1112 75.8704 12.5519C77.9877 22.7214 71.636 24.4163 67.4015 24.4163C64.882 24.4163 63.8657 23.2129 62.9976 21.8909C62.426 20.9756 61.8966 20.0095 61.0497 19.3316C58.9325 17.6367 56.8153 19.3316 56.8153 14.2468C56.8153 9.16208 65.2842 0.6875 77.9877 0.6875C90.6911 0.6875 92.8084 9.16208 92.8084 9.16208C95.3279 11.179 99.3506 11.9926 102.188 12.3316C104.093 12.5519 105.512 13.8739 105.512 15.4333Z" fill="white"/>
<path d="M71.0431 73.2468C70.4291 75.0604 69.5187 78.8061 69.5187 85.4333C69.5187 95.6028 75.8704 100.688 75.8704 100.688H90.6911V98.9926C90.6911 95.6028 82.2222 95.6028 82.2222 95.6028C82.2222 95.6028 77.9877 71.8739 86.4566 66.7892C94.9256 61.7045 94.9256 51.535 94.9256 51.535C94.9256 39.6706 86.4566 29.5011 86.4566 26.1112C86.4566 22.7214 92.8084 22.7214 92.8084 22.7214C101.447 22.7214 104.453 18.2129 105.258 16.5519C105.427 16.196 105.512 15.8061 105.512 15.4333C105.512 13.8739 104.093 12.5519 102.188 12.3316C99.3506 11.9926 95.3279 11.179 92.8084 9.16208C92.8084 9.16208 90.6911 0.6875 77.9877 0.6875C65.2842 0.6875 56.8153 9.16208 56.8153 14.2468C56.8153 19.3316 58.9325 17.6367 61.0497 19.3316C61.8966 20.0095 62.426 20.9756 62.9976 21.8909C63.8657 23.2129 64.882 24.4163 67.4015 24.4163C71.636 24.4163 77.9877 22.7214 75.8704 12.5519C82.2222 26.1112 69.5187 26.1112 65.2842 26.1112C63.6328 26.1112 62.7012 25.9587 62.0237 25.4672C60.3722 30.5689 56.5824 39.3655 48.3463 48.1451C35.6429 61.7045 27.1739 60.0095 20.8222 66.7892C14.4705 73.5689 14.4705 78.6536 14.4705 88.8231C14.4705 98.9926 22.9394 100.688 31.4084 100.688H65.2842V98.9926C65.2842 98.9926 65.2842 95.6028 58.9325 95.6028C52.5808 95.6028 50.4635 92.2129 50.4635 92.2129C50.4635 92.2129 51.5222 90.9417 52.5808 88.8231C53.6394 86.7045 54.698 83.7383 54.698 80.3485C54.698 73.5689 46.2291 70.179 46.2291 70.179C46.2291 70.179 56.8153 71.8739 56.8153 82.0434C56.8153 84.4672 56.2648 86.6706 55.5873 88.5011C64.2468 86.5858 69.4129 76.857 71.0431 73.2468ZM71.0431 73.2468C71.2972 72.6875 71.4666 72.2807 71.5513 72.0604C71.4242 72.2638 71.2548 72.6367 71.0431 73.2468Z" stroke="#FF6600"/>
<path d="M71.551 72.0605V72.0435C71.5934 71.9927 71.6145 71.9588 71.6145 71.9249C71.6145 71.891 71.6357 71.874 71.6357 71.874" fill="white"/>
<path d="M71.551 72.0605V72.0435C71.5934 71.9927 71.6145 71.9588 71.6145 71.9249C71.6145 71.891 71.6357 71.874 71.6357 71.874" stroke="#FF6600"/>
<path d="M10.236 66.7891C7.31418 73.823 10.4477 77.6027 12.6708 79.2806C12.3532 82.0603 12.3532 85.145 12.3532 88.823C12.3532 89.5857 12.3956 90.3145 12.5014 90.9925C-0.519605 82.501 -2.17105 69.7891 3.88426 61.7044C10.236 53.2298 25.0567 51.5349 27.1739 53.2298C27.1739 53.2298 14.4705 56.6196 10.236 66.7891Z" fill="white" stroke="#FF6600"/>
</svg>
