<svg width="184" height="139" viewBox="0 0 184 139" fill="none" xmlns="http://www.w3.org/2000/svg">
<g clip-path="url(#clip0_335_2182)">
<path d="M152.333 32.1349C150.058 10.186 128.316 -4.30841 107.054 1.95019L92.5778 5.78507L78.1016 1.95019C56.8401 -4.30841 35.0978 10.186 32.8226 32.1349C30.3232 56.2764 27.6875 81.8768 27.6875 82.3233L92.5778 88.4942L157.468 82.3233C157.468 81.8688 154.832 56.2684 152.333 32.1349ZM111.051 57.7992C105.524 63.7947 100.301 69.4553 100.301 82.8973H84.2782C84.2782 63.2445 92.9303 53.8606 99.2511 47.0121C104.578 41.2398 106.053 39.3343 104.707 34.0564C103.633 29.8229 98.0414 25.4697 91.4322 25.7169C84.8871 25.9641 79.2232 31.0746 77.9494 37.8594L62.1995 34.9493C64.8272 20.8934 76.8599 10.3136 90.8233 9.77941C104.49 9.25321 117.148 18.0152 120.232 30.1418C123.765 44.0143 116.715 51.6602 111.043 57.7992H111.051Z" fill="url(#paint0_radial_335_2182)"/>
<path d="M175.204 74.1435C172.28 74.4703 132.897 82.6743 92.0326 84.6276H91.9845C51.1197 82.6743 11.7289 74.4783 8.81283 74.1435C3.2611 73.5216 -0.800548 77.1013 0.152779 82.5786C0.16079 82.6185 0.168801 82.6583 0.176812 82.7141C4.623 107.573 47.2103 120.8 74.5443 124.459C71.3639 121.27 69.273 117.013 68.9044 112.309C67.9591 100.302 77.957 90.352 90.0218 91.2848C99.3788 92.0103 107.021 99.433 107.967 108.721C108.239 111.392 107.967 113.967 107.246 116.351C106.901 117.483 107.294 118.703 108.263 119.381L114.504 123.71C141.75 119.189 179.667 106.098 183.856 82.7141C183.856 82.6663 183.864 82.6264 183.872 82.5786C184.826 77.0934 180.764 73.5136 175.212 74.1435H175.204Z" fill="url(#paint1_radial_335_2182)"/>
<path d="M107.294 124.746L105.796 124.954L102.239 121.414C104.682 118.177 105.956 114.031 105.371 109.566C104.402 102.167 98.2895 96.2836 90.8311 95.566C80.8492 94.6093 72.4535 102.67 72.9422 112.516C73.3347 120.481 79.6715 127.098 87.6587 127.848C92.1449 128.27 96.2947 126.859 99.4671 124.292L102.968 127.776L102.72 129.195C102.664 129.506 102.768 129.825 102.992 130.056L109.233 136.267L114.328 131.196L108.127 125.025C107.911 124.81 107.598 124.706 107.294 124.746ZM89.2128 120.744C84.2059 120.744 80.1282 116.686 80.1282 111.703C80.1282 106.72 84.2059 102.662 89.2128 102.662C94.2198 102.662 98.2975 106.72 98.2975 111.703C98.2975 116.686 94.2198 120.744 89.2128 120.744Z" fill="url(#paint2_radial_335_2182)"/>
</g>
<defs>
<radialGradient id="paint0_radial_335_2182" cx="0" cy="0" r="1" gradientUnits="userSpaceOnUse" gradientTransform="translate(49.9058 18.1056) rotate(30.5844) scale(124.868 173.704)">
<stop offset="0.36" stop-color="#FF6600"/>
<stop offset="0.52" stop-color="#C34F03"/>
<stop offset="0.645" stop-color="#8B3B05"/>
<stop offset="1" stop-color="#0B0B0B"/>
</radialGradient>
<radialGradient id="paint1_radial_335_2182" cx="0" cy="0" r="1" gradientUnits="userSpaceOnUse" gradientTransform="translate(11.3483 78.8452) rotate(7.20143) scale(192.842 52.817)">
<stop offset="0.264632" stop-color="#FF6600"/>
<stop offset="1" stop-color="#0B0B0B"/>
</radialGradient>
<radialGradient id="paint2_radial_335_2182" cx="0" cy="0" r="1" gradientUnits="userSpaceOnUse" gradientTransform="translate(82.6059 98.0387) rotate(50.4482) scale(49.6283 50.213)">
<stop offset="0.254367" stop-color="#FF6600"/>
<stop offset="1" stop-color="#191919"/>
</radialGradient>
<clipPath id="clip0_335_2182">
<rect width="184" height="138" fill="white" transform="translate(0 0.491211)"/>
</clipPath>
</defs>
</svg>
