<svg width="104" height="85" viewBox="0 0 104 85" fill="none" xmlns="http://www.w3.org/2000/svg">
<path fill-rule="evenodd" clip-rule="evenodd" d="M97.0902 11.214C94.9854 11.0443 93.2663 10.4827 93.2663 10.4827C92.8207 10.3358 92.5825 9.87062 92.7367 9.44458C92.8893 9.01854 93.3777 8.79164 93.8251 8.93855C93.8251 8.93855 96.348 9.76778 98.8727 9.61107C100.246 9.52619 101.636 9.15565 102.513 8.07341C102.993 7.48088 103.31 6.68429 103.416 5.63797C102.211 5.59063 99.9936 5.41597 97.8443 4.78099C95.7224 4.1558 93.6914 3.0752 92.6116 1.32533C90.6731 0.830732 80.5419 -1.26356 77.4174 7.94446C77.3591 8.12075 77.2391 8.27093 77.078 8.37376C77.078 8.37376 70.1194 12.8072 71.4494 21.1876C71.5094 21.5696 71.2814 21.9385 70.9044 22.074C70.9044 22.074 61.8753 25.2799 58.6462 30.9441C58.4953 31.2085 58.204 31.3734 57.8869 31.3718C57.8869 31.3718 41.8049 31.264 28.9776 36.2704C20.7301 39.4877 13.7971 44.8239 13.744 53.8442C14.2016 54.595 15.2283 56.9962 13.3601 61.4966C13.1972 62.285 11.6375 70.685 17.6998 75.9574C18.7247 76.8471 19.4926 77.4347 20.0633 77.7775C20.1045 77.802 20.1473 77.8265 20.1902 77.8493C20.1422 77.6469 20.0702 77.4216 19.9896 77.1833C19.7 76.3198 19.2595 75.329 18.9561 74.5879C18.783 74.1602 18.6528 73.8027 18.5996 73.5726C18.5448 73.3375 18.5533 73.1547 18.5773 73.0404C18.6356 72.763 18.8396 72.5344 19.1172 72.4348C19.3966 72.3369 19.7086 72.381 19.9416 72.554L25.1692 76.4112L25.2686 74.1733C25.32 73.5334 26.0468 73.189 26.6124 73.5367L32.2564 77.2568C32.2084 74.4851 30.8921 67.8578 20.413 62.3127C19.9982 62.094 19.8491 61.5978 20.0788 61.2044C20.3084 60.8093 20.8312 60.6673 21.2443 60.8861C23.3507 62.0009 25.1144 63.1583 26.5884 64.3254C28.4874 62.3535 36.8104 55.6479 55.9707 64.3956C55.9947 64.407 56.0187 64.4184 56.0427 64.4331C56.0427 64.4331 64.9072 69.5391 73.1034 63.9614C73.3228 63.8112 73.5936 63.7753 73.8352 63.8406C73.9072 62.7029 73.8849 61.4998 73.813 60.3278C73.5764 56.4363 72.764 52.8648 72.764 52.8648C72.6629 52.424 72.9577 51.9898 73.4205 51.8935C73.8815 51.7988 74.3391 52.078 74.4385 52.5187C74.4385 52.5187 75.2784 56.2094 75.5252 60.2331C75.6623 62.4988 75.604 64.8657 75.1276 66.769C76.8141 66.8016 79.7775 67.3207 82.1359 70.1839C83.5876 70.1855 87.7508 70.5691 89.074 74.8148C89.2334 75.3339 89.4339 75.6979 89.6945 75.946C89.9687 76.2055 90.3029 76.3182 90.6748 76.3867C91.1839 76.4798 91.7529 76.4896 92.3614 76.5239C94.4113 76.6397 96.8554 76.9613 99.2 80.3092C99.2206 80.3386 99.2377 80.368 99.2549 80.3974L100.741 83.2311C101.281 81.7375 101.816 79.1944 100.969 76.0293C100.012 72.4544 97.3181 68.1336 91.0845 63.5941C88.6661 61.8328 87.432 60.3017 86.8356 58.8995C86.2168 57.4418 86.2665 56.0984 86.5014 54.7256C86.8939 52.4142 87.8999 50.0016 85.91 46.5264C85.6838 46.1314 85.8381 45.6351 86.2528 45.4197C86.6676 45.2042 87.1886 45.3495 87.4149 45.7445C89.2368 48.9276 88.918 51.3255 88.481 53.5128C88.3524 54.1576 88.2067 54.7811 88.121 55.403C102.501 43.9538 95.2288 27.082 94.8894 26.318C92.4231 21.9581 92.4831 18.5612 93.3932 16.0621C94.2673 13.6625 95.9521 12.071 97.0902 11.214Z" fill="white" stroke="#FF6600"/>
<path fill-rule="evenodd" clip-rule="evenodd" d="M12.0866 60.0586C10.94 61.2404 9.34427 62.7307 7.56519 63.9501C5.68155 65.2413 3.59053 66.2011 1.58691 66.3007C2.98379 67.8155 6.05691 70.0436 11.9032 69.7465C11.9375 69.7433 11.97 69.7449 12.0043 69.7465C10.7874 65.1907 11.6958 61.0951 11.6958 61.0951L11.7387 60.9629C11.8706 60.6479 11.9855 60.3475 12.0866 60.0586Z" fill="white" stroke="#FF6600"/>
<path fill-rule="evenodd" clip-rule="evenodd" d="M93.4241 52.5205C92.2089 54.0206 90.7383 55.475 88.9695 56.8527C88.7107 57.0535 88.3662 57.0878 88.08 56.967C88.104 57.1857 88.1434 57.4045 88.1999 57.6265C88.5599 59.0254 89.6482 60.4928 92.1249 62.2982C93.143 63.0393 94.0719 63.7771 94.9186 64.5068C97.9558 63.5225 100.192 63.0589 101.781 62.8565C95.462 58.9764 93.7789 55.0147 93.4241 52.5205Z" fill="white" stroke="#FF6600"/>
</svg>
