<svg width="74" height="74" viewBox="0 0 74 74" fill="none" xmlns="http://www.w3.org/2000/svg">
<path d="M63.6667 30.8337H64.1667V30.3337V24.167H73.1667V58.167H49.1667V24.167H58.1667V30.3337V30.8337H58.6667H63.6667ZM63.6667 54.167H64.1667V53.667V38.667V38.167H63.6667H58.6667H58.1667V38.667V53.667V54.167H58.6667H63.6667Z" fill="white" stroke="#FF6600"/>
<path d="M68.1675 12.0295L68.1952 12.5002H68.6667H72C72.3864 12.5002 72.6695 12.6268 72.8548 12.812C73.0401 12.9973 73.1667 13.2805 73.1667 13.6668V19.8335H20.3333H19.8333V20.3335V25.3335C19.8333 25.7199 19.7067 26.003 19.5214 26.1883C19.3362 26.3736 19.053 26.5002 18.6667 26.5002C18.2803 26.5002 17.9972 26.3736 17.8119 26.1883C17.6266 26.003 17.5 25.7199 17.5 25.3335V20.3335V19.8335H17H13.6667C13.2803 19.8335 12.9972 19.7069 12.8119 19.5216C12.6266 19.3363 12.5 19.0532 12.5 18.6668V13.6668C12.5 13.2805 12.6266 12.9973 12.8119 12.812C12.9972 12.6268 13.2803 12.5002 13.6667 12.5002H16.8333H16.8987L16.9619 12.4833L60.7133 0.838487C62.7676 1.01508 64.5593 2.69914 64.8047 4.8335H54.5H54.4341L54.3704 4.85059L29.537 11.5173L29.6667 12.5002H52H52.4715L52.4991 12.0295L52.4991 12.0294L52.4992 12.0291L52.4992 12.0277L52.4996 12.0218L52.501 11.9984L52.5065 11.9085C52.5114 11.8307 52.5185 11.7188 52.5275 11.5829C52.5457 11.311 52.5715 10.9437 52.6025 10.5614C52.6336 10.1783 52.6695 9.78388 52.7076 9.45635C52.7204 9.34642 52.7328 9.24976 52.7446 9.16683H67.9221C67.9338 9.24976 67.9463 9.34642 67.9591 9.45635C67.9972 9.78388 68.0331 10.1783 68.0641 10.5614C68.0951 10.9437 68.121 11.311 68.1391 11.5829C68.1482 11.7188 68.1553 11.8307 68.1601 11.9085L68.1657 11.9984L68.1671 12.0218L68.1674 12.0277L68.1675 12.0291L68.1675 12.0294L68.1675 12.0295L68.6667 12.0002L68.1675 12.0295Z" fill="white" stroke="#FF6600"/>
<path d="M36.7001 69.067L37.5001 69.667V68.667V62.3337H73.1667V71.8337C73.1667 72.22 73.0401 72.5032 72.8549 72.6884C72.6696 72.8737 72.3865 73.0003 72.0001 73.0003H38.3088C38.2657 72.9718 38.2118 72.9351 38.1477 72.8908C37.9962 72.7861 37.7957 72.6441 37.5622 72.4767C37.0955 72.1423 36.5034 71.7112 35.9205 71.2844C35.3378 70.8578 34.7654 70.4363 34.3386 70.1214C34.1252 69.964 33.9483 69.8332 33.8247 69.7419L33.6815 69.6359L33.6439 69.6081L33.6381 69.6038C32.6258 68.7996 31.2099 68.7992 30.1972 69.6024L28.3727 70.9293L28.3726 70.9292L28.3668 70.9337C27.1561 71.8416 25.6367 72.1511 24.0981 71.8434C23.9669 71.8171 23.6915 71.7037 23.3028 71.5055C22.933 71.3168 22.5105 71.0777 22.1082 70.8405C21.707 70.6038 21.3307 70.3719 21.0545 70.1989C20.9165 70.1125 20.8038 70.041 20.7257 69.9912L20.6358 69.9337L20.6126 69.9187L20.6076 69.9155C19.4643 69.1552 17.875 69.1104 16.8373 70.1229C16.8328 70.1263 16.8276 70.1303 16.8216 70.1348C16.7953 70.1544 16.7548 70.1841 16.7012 70.2216C16.5939 70.2968 16.4345 70.4031 16.2317 70.5236C15.8248 70.7653 15.2505 71.0593 14.5774 71.274C13.2336 71.7024 11.5479 71.8028 9.97346 70.6054L9.97144 70.6038L9.95423 70.5904C9.93965 70.5791 9.91892 70.5632 9.89253 70.5434C9.83979 70.5038 9.76422 70.4486 9.66979 70.3833C9.48154 70.2532 9.2152 70.0811 8.90286 69.9138C8.30241 69.5921 7.43419 69.2338 6.60473 69.3375L6.60472 69.3374L6.59604 69.3387C6.1641 69.4004 5.69844 69.6953 5.29792 70.0016C4.8745 70.3254 4.435 70.7333 4.04236 71.1259C3.64801 71.5203 3.29217 71.9081 3.03542 72.1966C2.90684 72.3411 2.80261 72.4612 2.73026 72.5456C2.69408 72.5878 2.66584 72.621 2.64648 72.6439L2.63223 72.6609C2.16139 73.1181 1.48696 73.1134 1.0203 72.6468C0.552419 72.1789 0.548923 71.5022 1.00981 71.0312L1.04318 71.0019L1.17609 70.8859C1.29125 70.7856 1.45705 70.6418 1.65921 70.4682C2.06373 70.1207 2.61285 69.6545 3.19245 69.1784C3.77301 68.7015 4.3797 68.2183 4.90044 67.8354C5.16107 67.6438 5.3953 67.4809 5.59095 67.3575C5.78776 67.2335 5.91664 67.1682 5.98327 67.1442C7.05449 66.8405 8.09677 66.8477 9.13646 67.2932L10.0985 67.7055L9.81469 66.6981L6.62452 55.373L18.1667 52.7912V66.5003V67.0003H18.6667C19.7937 67.0003 20.8431 67.1632 21.7227 67.7497L22.5001 68.2679V67.3337V52.9579L34.0342 55.5379L30.8543 66.1906L30.6624 66.8337H31.3334C32.4593 66.8337 33.5393 66.9956 34.4431 67.4475C34.4431 67.4475 34.4468 67.4494 34.4552 67.4542C34.4633 67.4588 34.4739 67.4651 34.4872 67.4732C34.5138 67.4894 34.5474 67.5109 34.5879 67.5375C34.6688 67.5907 34.7699 67.66 34.8852 67.7407C35.1155 67.9019 35.3936 68.1027 35.6634 68.2999C35.9328 68.4967 36.1921 68.6886 36.3841 68.8313C36.4801 68.9027 36.5592 68.9616 36.6143 69.0028L36.6779 69.0504L36.6945 69.0628L36.6987 69.066L36.6998 69.0668L36.7 69.0669L36.7001 69.067L37.0001 68.667L36.7001 69.067Z" fill="white" stroke="#FF6600"/>
<path d="M16.1667 30.8335H24.6667C26.4483 30.8335 28.2638 32.0269 29.0287 33.8359L29.328 34.8335H11.672L11.9767 33.8179C12.5767 32.0274 14.2162 30.8335 16.1667 30.8335Z" fill="white" stroke="#FF6600"/>
<path d="M19.6667 39.8337H19.5989L19.5335 39.8517L7.5 43.1768V39.167H33.1667V43.1768L21.1332 39.8517L21.0678 39.8337H21H19.6667Z" fill="white" stroke="#FF6600"/>
<path d="M18.1667 48.5992L5.51019 51.4118L4.62823 48.5139L18.1667 44.8216V48.5992Z" fill="white" stroke="#FF6600"/>
<path d="M36.0384 48.5139L35.1565 51.4118L22.5 48.5992V44.8216L36.0384 48.5139Z" fill="white" stroke="#FF6600"/>
</svg>
