<svg width="82" height="82" viewBox="0 0 82 82" fill="none" xmlns="http://www.w3.org/2000/svg">
<path d="M16.5783 28.4655L16.2042 27.4572L11.7104 15.3458L11.7104 15.3457C11.3261 14.3093 11.5804 13.1439 12.3622 12.3622L16.5783 28.4655ZM16.5783 28.4655L17.1081 27.5296C19.5691 23.1821 23.1819 19.5692 27.5294 17.1082L28.4653 16.5785L27.4571 16.2043L15.3459 11.7105C15.3458 11.7104 15.3458 11.7104 15.3458 11.7104C14.3092 11.3257 13.1438 11.5807 12.3623 12.3622L16.5783 28.4655Z" fill="white" stroke="#FF6600"/>
<path d="M14.5705 33.6363L14.8602 32.598L13.8804 33.0475L2.1489 38.4292C1.14398 38.8901 0.5 39.8944 0.5 40.9998C0.5 42.1051 1.14397 43.1094 2.14887 43.5703C2.14888 43.5703 2.14889 43.5703 2.1489 43.5703L13.8806 48.952L14.8603 49.4015L14.5707 48.3632C13.9168 46.0194 13.5656 43.5501 13.5656 40.9998C13.5656 38.4494 13.9166 35.9801 14.5705 33.6363Z" fill="white" stroke="#FF6600"/>
<path d="M48.3635 14.5705L49.4017 14.8602L48.9523 13.8804L43.5706 2.1489C43.5706 2.14889 43.5706 2.14888 43.5706 2.14886C43.1097 1.14397 42.1054 0.5 41 0.5C39.8946 0.5 38.8903 1.14398 38.4294 2.1489L33.0477 13.8806L32.5982 14.8604L33.6366 14.5707C35.9803 13.9166 38.4495 13.5656 41 13.5656C43.5505 13.5656 46.0197 13.9166 48.3635 14.5705Z" fill="white" stroke="#FF6600"/>
<path d="M65.4217 28.4653L64.8919 27.5294C62.4307 23.1819 58.8179 19.569 54.4704 17.1079L53.5345 16.5781L54.5427 16.204L66.6542 11.7103L66.6542 11.7102C67.6901 11.3261 68.8558 11.5802 69.6377 12.362L65.4217 28.4653ZM65.4217 28.4653L65.7958 27.457M65.4217 28.4653L65.7958 27.457M65.7958 27.457L70.2895 15.3456L70.2895 15.3455M65.7958 27.457L70.2895 15.3455M70.2895 15.3455C70.6739 14.3093 70.4196 13.1437 69.6377 12.362L70.2895 15.3455Z" fill="white" stroke="#FF6600"/>
<path d="M33.6366 67.4297L32.5983 67.14L33.0477 68.1198L38.4295 79.8515C38.8903 80.8562 39.8946 81.5002 41 81.5002C42.1054 81.5002 43.1097 80.8562 43.5706 79.8513L48.9524 68.1196L49.4019 67.1399L48.3636 67.4295C46.0197 68.0834 43.5505 68.4346 41 68.4346C38.4495 68.4346 35.9803 68.0836 33.6366 67.4297Z" fill="white" stroke="#FF6600"/>
<path d="M16.5783 53.5346L17.1081 54.4705C19.5692 58.818 23.1821 62.4309 27.5296 64.892L28.4655 65.4218L27.4572 65.7959L15.3458 70.2896L15.3455 70.2898C15.0255 70.4082 14.6926 70.4662 14.3625 70.4662C13.6257 70.4662 12.9024 70.178 12.3623 69.6379L16.5783 53.5346ZM16.5783 53.5346L16.2042 54.5429M16.5783 53.5346L16.2042 54.5429M16.2042 54.5429L11.7104 66.6543L11.7104 66.6543M16.2042 54.5429L11.7104 66.6543M11.7104 66.6543C11.3261 67.6906 11.5804 68.8561 12.3622 69.6379L11.7104 66.6543Z" fill="white" stroke="#FF6600"/>
<path d="M68.1194 33.0475L67.1396 32.598L67.4293 33.6363C68.0832 35.9802 68.4342 38.4494 68.4342 40.9998C68.4342 43.5501 68.0832 46.0194 67.4293 48.3632L67.1396 49.4015L68.1194 48.952L79.851 43.5704C79.851 43.5704 79.851 43.5703 79.8511 43.5703C80.856 43.1096 81.4999 42.1053 81.4999 40.9999C81.4999 39.8945 80.856 38.8902 79.851 38.4293L68.1194 33.0475Z" fill="white" stroke="#FF6600"/>
<path d="M65.7958 54.5429L65.4217 53.5346L64.892 54.4705C62.431 58.818 58.8181 62.4309 54.4706 64.8918L53.5347 65.4216L54.543 65.7957L66.6543 70.2894C66.6543 70.2895 66.6544 70.2895 66.6544 70.2895C66.9751 70.4085 67.3079 70.466 67.6377 70.466C68.3745 70.466 69.0979 70.1779 69.6379 69.6377C70.4198 68.856 70.6741 67.6906 70.2898 66.6542L70.2898 66.6541L65.7958 54.5429Z" fill="white" stroke="#FF6600"/>
<path d="M17.2219 40.9998C17.2219 54.1116 27.8883 64.7779 41 64.7779C54.1118 64.7779 64.7782 54.1116 64.7782 40.9998C64.7782 27.888 54.1118 17.2217 41 17.2217C27.8883 17.2217 17.2219 27.888 17.2219 40.9998Z" fill="white" stroke="#FF6600"/>
</svg>
