<svg width="138" height="100" viewBox="0 0 138 100" fill="none" xmlns="http://www.w3.org/2000/svg">
<path d="M69 12.5C67.9531 12.5 67.3125 12.0625 66.5781 11.5469C65.5469 10.8437 64.3125 10 61.5 10C56.7344 10 53.375 16.8281 51.1875 23.9688C43.7969 25.3281 39 27.5312 39 30C39 32.2344 42.9062 34.2344 49.0938 35.6094C49.0312 36.2344 49 36.8594 49 37.5C49 40.1562 49.5156 42.6875 50.4531 45H41.0938C39.9375 45 39 45.9375 39 47.0938C39 47.3594 39.0469 47.625 39.1562 47.875L45.2188 63.0156C38.4063 68.0938 34 76.2188 34 85.3594C34 87.9219 36.0781 90 38.6406 90H99.3594C101.922 90 104 87.9219 104 85.3594C104 76.2188 99.5938 68.1094 92.7969 63.0156L98.8438 47.875C98.9375 47.625 99 47.3594 99 47.0938C99 45.9375 98.0625 45 96.9062 45H87.5469C88.4844 42.6875 89 40.1562 89 37.5C89 36.8594 88.9688 36.2344 88.9062 35.6094C95.0938 34.2344 99 32.2344 99 30C99 27.5312 94.2031 25.3281 86.8125 23.9688C84.625 16.8281 81.2656 10 76.5 10C73.6875 10 72.4531 10.8437 71.4219 11.5469C70.6719 12.0625 70.0469 12.5 69 12.5ZM77.75 45H75.8125C73.2344 45 70.9531 43.3438 70.1406 40.9062C69.7812 39.8125 68.2344 39.8125 67.875 40.9062C67.0625 43.3438 64.7656 45 62.2031 45H60.25C56.7969 45 54 42.2031 54 38.75V36.5C58.4062 37.1406 63.5312 37.5 69 37.5C74.4688 37.5 79.5938 37.1406 84 36.5V38.75C84 42.2031 81.2031 45 77.75 45ZM64 60L66.5 65L61.5 85L54 55L64 60ZM84 55L76.5 85L71.5 65L74 60L84 55Z" fill="#FF6600"/>
</svg>
