<svg width="96" height="102" viewBox="0 0 96 102" fill="none" xmlns="http://www.w3.org/2000/svg">
<path d="M11.7158 45.7312C14.05 47.9108 16.7333 49.713 19.6915 51.0878C20.2809 51.3616 20.8371 51.6843 21.3563 52.0485C21.8809 51.6825 22.4398 51.3601 23.0251 51.0878C25.9835 49.7132 28.6672 47.9112 31.0012 45.7312C33.7059 43.2052 35.8687 40.2468 37.4349 36.937C37.3576 37.0116 37.28 37.0858 37.2003 37.1587C32.826 41.1661 27.0778 43.3731 21.0147 43.3731C15.3964 43.3731 10.0492 41.4769 5.81409 38.0101C7.11674 40.4909 8.99793 43.1933 11.7158 45.7312Z" fill="white" stroke="#FF6600"/>
<path d="M23.1253 35.0274C23.1253 33.9231 22.1789 33.0249 21.0152 33.0249C19.8516 33.0249 18.9054 33.9233 18.9054 35.0274C18.9054 36.1315 19.8516 37.03 21.0152 37.03C22.1789 37.03 23.1253 36.1315 23.1253 35.0274Z" fill="white" stroke="#FF6600"/>
<path d="M3.71191 32.8418C4.25291 33.9992 5.02872 35.066 6.02335 35.9771C9.86754 39.499 14.8573 41.5184 20.1547 41.7162V38.5734C18.4558 38.2008 17.1841 36.7541 17.1841 35.0275C17.1841 33.0193 18.9027 31.3857 21.0154 31.3857C23.1281 31.3857 24.8469 33.0195 24.8469 35.0275C24.8469 36.7539 23.575 38.2008 21.8761 38.5734V41.7162C27.1735 41.5182 32.1634 39.499 36.0074 35.9771C38.5937 33.6078 39.7165 30.1936 39.0114 26.8439L36.015 12.6109C35.9939 12.5111 35.9926 12.4084 36.0111 12.3082C37.5475 3.96309 36.9543 1.34512 36.573 1C35.7872 1.05098 32.9999 4.01445 28.7107 11.8865C28.5627 12.1582 28.268 12.3287 27.9466 12.3287H14.0837C13.7626 12.3287 13.4679 12.1582 13.3196 11.8865C9.03143 4.01465 6.24381 1.05117 5.45754 1C5.0765 1.34512 4.48301 3.96328 6.01925 12.3082C6.0377 12.4084 6.03647 12.5111 6.01535 12.6109L3.01895 26.8439C2.58973 28.8826 2.84136 30.9439 3.68423 32.7803C3.6951 32.8 3.70309 32.8211 3.71191 32.8418ZM32.403 22.7979C33.7702 22.7979 34.8785 23.8508 34.8785 25.1498C34.8785 26.4488 33.7702 27.5018 32.403 27.5018C31.0357 27.5018 29.9275 26.4488 29.9275 25.1498C29.9275 23.8508 31.0355 22.7979 32.403 22.7979ZM9.6278 22.7979C10.9951 22.7979 12.1033 23.8508 12.1033 25.1498C12.1033 26.4488 10.9951 27.5018 9.6278 27.5018C8.26055 27.5018 7.1523 26.4488 7.1523 25.1498C7.1523 23.8508 8.26075 22.7979 9.6278 22.7979Z" fill="white" stroke="#FF6600"/>
<path d="M3.93581 50.6757C4.79283 53.9062 7.25562 56.5478 10.5233 57.7417L16.1312 59.7909C17.7905 60.3974 18.9053 61.9397 18.9053 63.629V65.6011C18.9053 66.9646 20.074 68.0739 21.5102 68.0739C22.9463 68.0739 24.1153 66.9647 24.1153 65.6011V60.461C24.1153 57.1237 22.0826 54.0226 18.9367 52.5604C15.8119 51.1085 12.9769 49.2044 10.5104 46.9013C6.74231 43.3821 4.49424 39.564 3.15672 36.3677C2.66002 39.6345 2.62557 42.9347 3.0552 46.2147C3.25146 47.711 3.54739 49.212 3.93581 50.6757Z" fill="white" stroke="#FF6600"/>
<path d="M10.9353 70.5883C11.2356 68.1535 11.003 65.7023 10.2783 63.376C9.13618 63.7258 8.13396 64.2186 7.35282 64.8254C1.71419 69.2066 1.3067 81.5371 10.4809 93.8186C10.6675 94.0686 10.6919 94.3967 10.5444 94.6693C10.3968 94.9418 10.1017 95.1133 9.77951 95.1133H3.83839C2.98076 95.1133 2.183 95.4385 1.59156 96.0287C1.00339 96.616 0.701518 97.3871 0.741713 98.2C0.818412 99.7439 2.25786 101 3.95057 101H21.9476C23.4244 101 24.8655 100.797 26.2512 100.399C23.2661 99.3193 20.6437 97.7873 18.4475 95.8334C10.5338 88.7936 9.99443 78.2193 10.9353 70.5883Z" fill="white" stroke="#FF6600"/>
<path d="M63.7378 85.0734C62.3006 74.6637 59.3229 64.585 54.8868 55.1166C51.129 47.0955 46.3209 39.5082 40.5828 32.5352C40.3123 34.2275 39.8202 35.859 39.1038 37.4029C37.4423 40.9832 35.1218 44.1787 32.2068 46.9012C29.7402 49.2045 26.9052 51.1086 23.7804 52.5604C23.4041 52.7354 23.0421 52.9371 22.6947 53.1588C24.5917 55.0098 25.7467 57.5066 25.8312 60.1494C26.0676 60.0084 26.3199 59.8879 26.5863 59.7906L32.1941 57.7414C35.462 56.5475 37.9246 53.9059 38.7816 50.6754C38.8684 50.3479 39.1573 50.1049 39.5091 50.0629C39.8616 50.0201 40.2039 50.1887 40.3726 50.4855C41.1302 51.8168 41.6388 53.2027 41.8845 54.6053C42.0129 55.3383 42.0366 55.885 42.0596 56.4137C42.0801 56.8779 42.1008 57.358 42.196 57.9945C42.3566 59.0705 42.6595 60.1363 43.0971 61.1697C43.9761 61.224 44.9153 61.3295 45.9225 61.5016C46.3902 61.5815 46.7016 62.0074 46.6177 62.4531C46.5336 62.8986 46.0869 63.1949 45.6185 63.1152C38.9697 61.9795 35.5802 63.9326 34.4321 64.825C28.7935 69.2063 28.386 81.5367 37.56 93.8182C37.7466 94.0682 37.771 94.3963 37.6236 94.669C37.4757 94.9414 37.1808 95.1129 36.8586 95.1129H30.9175C30.0599 95.1129 29.2619 95.4381 28.6705 96.0285C28.0823 96.6158 27.7806 97.3867 27.8208 98.1996C27.8975 99.7436 29.337 101 31.0293 101H49.0263C53.3059 101 57.3763 99.2449 60.1936 96.1859C63.0001 93.1389 64.2919 89.0885 63.7378 85.0734Z" fill="white" stroke="#FF6600"/>
<path d="M86.0677 76.5932L92.7345 74.218L86.7514 68.534C86.5402 68.3332 86.453 68.0424 86.5215 67.7656C86.5902 67.4889 86.8043 67.2658 87.0877 67.1758L94.2616 64.9041L87.8941 61.1234C87.6712 60.991 87.5239 60.7691 87.4944 60.5205C87.4646 60.2719 87.5557 60.0242 87.7417 59.8475L93.9537 53.9459L86.4544 54.6584C86.1001 54.6902 85.7623 54.5154 85.6015 54.2139C85.4407 53.9123 85.4908 53.5477 85.7278 53.2959C87.7649 51.1297 89.3784 48.6772 90.5232 46.007C91.8057 43.0154 92.4739 39.7494 92.4796 36.4814L85.8341 40.4273C85.4877 40.6326 85.038 40.5783 84.7566 40.298C84.4748 40.0174 84.4385 39.5867 84.6698 39.2668C86.8974 36.1852 88.521 32.7914 89.4964 29.1795C90.225 26.4807 90.5742 23.7148 90.5404 20.9342L84.9965 26.2006C84.6885 26.4928 84.2008 26.5209 83.8588 26.266C83.5165 26.0113 83.4271 25.5533 83.6504 25.1986C85.8123 21.7662 86.7717 18.449 86.5016 15.3398C86.413 14.3189 86.2081 13.4277 85.9912 12.4844C85.6087 10.8193 85.2129 9.09805 85.5144 6.70781C85.7209 5.07324 86.2118 3.46367 86.9776 1.90859C86.9415 1.9084 86.9058 1.9082 86.8695 1.9082C83.6321 1.9082 81.1519 3.0207 79.8792 3.74609C76.5036 5.67031 74.9305 8.45117 74.2929 9.9377C74.1475 10.277 73.7841 10.4832 73.4008 10.4424C73.0185 10.4016 72.7107 10.1244 72.6473 9.76289L71.913 5.57637C65.7206 10.9373 61.875 16.7832 60.4745 22.9707C58.6567 31.0018 61.0385 38.2049 63.5601 45.8309C66.4562 54.5898 69.4512 63.6471 65.3894 73.8873C64.9924 74.8881 64.5318 75.8822 64.0234 76.849C64.5972 79.4945 65.0722 82.166 65.444 84.86C65.9893 88.81 64.9327 92.7893 62.5308 96.0072C64.4539 95.6742 66.7702 94.9863 69.0761 93.6006C71.3324 92.2449 73.2946 90.3801 74.7512 88.2084C74.9085 87.9738 75.1801 87.8313 75.4723 87.8299H75.4768C75.7674 87.8299 76.0383 87.9697 76.1977 88.2014C77.0411 89.4316 77.7368 90.7539 78.2657 92.1311C78.572 92.9291 78.8235 93.7479 79.0173 94.5783C80.2896 93.3701 81.6862 91.6354 82.5916 89.3057C83.254 87.601 83.5692 85.8031 83.5284 83.9633C83.5216 83.6582 83.6935 83.3746 83.9742 83.2273C84.255 83.0805 84.5983 83.0941 84.8655 83.2633L89.5973 86.2602C89.6329 84.9045 89.418 83.2207 88.5602 81.4701C87.9078 80.1389 86.9794 78.9633 85.8011 77.9758C85.5738 77.7854 85.4682 77.4957 85.5228 77.2123C85.5775 76.9289 85.7844 76.6939 86.0677 76.5932Z" fill="white" stroke="#FF6600"/>
<path d="M35.2254 93.4739C31.3797 87.9247 29.0878 81.9134 28.7365 76.3985C28.3792 70.7892 30.0588 66.1077 33.3442 63.5548C34.59 62.587 37.0709 61.2284 41.244 61.1308C40.8917 60.1798 40.6384 59.2069 40.492 58.2255C40.3849 57.5081 40.3619 56.9864 40.3398 56.4817C40.3179 55.981 40.2973 55.5077 40.1866 54.8747C40.082 54.2772 39.9216 53.6817 39.7073 53.0923C38.3602 55.9062 35.8945 58.145 32.8102 59.2718L27.2023 61.321C26.6086 61.538 26.1306 61.9458 25.8367 62.4757V65.6009C25.8367 67.8683 23.8956 69.713 21.5103 69.713C19.1251 69.713 17.184 67.8683 17.184 65.6009V63.6288C17.184 62.6134 16.5132 61.6862 15.5147 61.321L10.486 59.4835C12.3614 62.963 13.1243 66.8892 12.6446 70.779C11.7499 78.0341 12.2343 88.0626 19.622 94.6349C21.474 96.2827 23.6589 97.6085 26.1332 98.5907C26.1203 98.4866 26.1064 98.3829 26.1012 98.2769C26.0385 97.012 26.5085 95.8118 27.4244 94.8972C28.3436 93.9794 29.5841 93.4737 30.9169 93.4737L35.2254 93.4739Z" fill="white" stroke="#FF6600"/>
</svg>
