<svg width="107" height="102" viewBox="0 0 107 102" fill="none" xmlns="http://www.w3.org/2000/svg">
<path d="M65.2685 62.7012C64.9276 62.3748 64.452 62.4797 64.2088 62.9372C63.5052 64.2546 62.895 65.671 62.3955 67.1457C61.4443 69.9436 60.8993 73.03 60.7733 76.3233L60.3868 86.451C60.3651 87.0135 60.6886 87.4944 61.1077 87.5206H61.1468C61.5486 87.5206 61.8852 87.098 61.9047 86.553L62.2913 76.4253C62.4064 73.4001 62.9037 70.5702 63.7701 68.0142L79.9312 60.4774C87.6404 56.8839 92.9587 47.1001 93.1628 36.136C93.2279 32.6037 94.0705 29.2142 95.5972 26.3347L98.7156 20.4592C98.9588 20.0016 98.8785 19.3633 98.5375 19.0369C98.1966 18.7105 97.721 18.8183 97.4778 19.2759L94.3594 25.1514C92.6568 28.3631 91.7165 32.1432 91.6427 36.0835C91.4537 46.2025 86.5459 55.2314 79.4317 58.5481L64.8342 65.3533C65.0297 64.9336 65.2294 64.5198 65.4444 64.1176C65.6898 63.6658 65.6095 63.0276 65.2685 62.7012Z" fill="white" stroke="#FF6600"/>
<path d="M95.7645 9.83288C96.1554 10.0427 96.5962 9.78916 96.7526 9.26456C96.9089 8.74288 96.72 8.14833 96.3291 7.93849C94.6613 7.04375 92.8415 6.7698 91.0673 7.14576L86.8436 8.04341C86.4288 8.13084 86.1465 8.65544 86.2116 9.2121C86.2703 9.71339 86.5938 10.0719 86.9608 10.0719C86.9999 10.0719 87.0412 10.069 87.0803 10.0602L88.8045 9.69299L89.6015 11.2872C90.5722 13.2311 92.1206 14.5135 93.8492 14.8049C93.8817 14.8108 93.9143 14.8137 93.9447 14.8137C94.3226 14.8137 94.6483 14.4377 94.6983 13.9218C94.7504 13.3623 94.455 12.8522 94.0403 12.7823C92.7482 12.5637 91.5907 11.6049 90.8632 10.1506L90.4593 9.34034L91.3062 9.15964C92.8111 8.84197 94.3508 9.07512 95.7645 9.83288Z" fill="white" stroke="#FF6600"/>
<path d="M1.80998 101.303C2.39848 101.426 2.98916 101.487 3.57983 101.487C5.6472 101.487 7.69502 100.747 9.48877 99.3272L34.3906 79.6139C37.6979 79.4565 40.9835 78.6405 44.128 77.1745L53.6483 72.7358C54.5669 74.5865 55.2119 76.6645 55.5442 78.8882L56.656 86.3346C56.7277 86.8184 57.0447 87.1536 57.4009 87.1536C57.4508 87.1536 57.5008 87.1477 57.5507 87.1332C57.9633 87.0224 58.2283 86.4862 58.1457 85.9324L57.0339 78.486C56.4345 74.4699 54.9296 70.8793 52.682 68.1047C52.3736 67.7229 51.8915 67.7492 51.607 68.1659C51.3226 68.5798 51.3421 69.2268 51.6526 69.6086C52.0175 70.0574 52.3584 70.5325 52.6776 71.0279L43.6286 75.2481C39.2376 77.2969 34.5534 78.0139 29.9453 77.3727L77.3948 47.7415C79.8748 46.1939 81.9183 43.705 83.306 40.5428C85.0802 36.5005 85.0954 31.6596 83.345 27.5968C81.5947 23.5341 78.4589 21.1384 74.967 21.1821C74.5479 21.188 74.2113 21.6485 74.2134 22.2109C74.2178 22.7734 74.5652 23.231 74.98 23.2223C77.9182 23.1844 80.5545 25.2012 82.0269 28.6198C83.4992 32.0385 83.4862 36.107 81.9943 39.5082C80.763 42.3119 78.9497 44.521 76.752 45.8937L27.0006 76.9617C26.9962 76.9647 26.9941 76.9676 26.9897 76.9676L18.4944 82.2719C16.6963 83.3939 14.6463 83.4726 12.8135 82.5021L28.0538 67.6763C32.1668 63.6748 35.8564 58.9388 39.0182 53.6025C46.9207 40.2572 57.1729 29.3659 68.6628 22.1002C71.6401 20.2175 74.2916 17.4487 76.3872 14.0505L82.3613 15.2338C85.6556 15.8866 88.1486 19.451 88.4266 23.9042L88.5308 25.5713C88.5612 26.0668 88.7545 26.5185 89.0564 26.8041C89.2714 27.0081 89.5233 27.113 89.7795 27.113C89.8859 27.113 89.9923 27.0955 90.0987 27.0577C91.4712 26.5768 92.6916 25.4693 93.5364 23.9392L96.5441 18.4921C96.7938 18.0404 96.7221 17.3992 96.3855 17.064C96.0489 16.7289 95.5733 16.825 95.3214 17.2768L92.3138 22.7239C91.7383 23.7673 90.9305 24.5512 90.0184 24.9622L89.9424 23.7294C89.6058 18.3289 86.5786 14.0039 82.585 13.2111L77.4709 12.1969C81.7272 5.08856 88.6372 1.98467 95.2585 4.27543C96.4854 4.70094 97.5908 5.5811 98.4551 6.82557C98.7417 7.23651 99.2216 7.25982 99.53 6.87511C99.8362 6.49041 99.8536 5.84631 99.5669 5.43246C98.505 3.90238 97.1456 2.8182 95.6385 2.29652C88.2138 -0.274024 80.4546 3.39235 75.8682 11.6402C73.8247 15.3154 71.1102 18.291 68.0179 20.2466C56.3173 27.6435 45.8783 38.7359 37.8326 52.3259C34.7576 57.5195 31.1679 62.1243 27.1678 66.018L11.6104 81.1527C11.2326 81.5199 11.035 82.1116 11.0806 82.7353C11.1262 83.359 11.4085 83.8865 11.8341 84.1488C12.592 84.6122 13.3846 84.9211 14.1903 85.0814L1.17152 97.7534C0.687257 98.2256 0.463582 99.0358 0.604736 99.8168C0.74589 100.598 1.2193 101.181 1.80998 101.303ZM6.59402 94.9963C8.6679 95.2587 10.7505 95.0459 12.7527 94.3756L8.71785 97.5698C6.7482 99.129 4.42242 99.7469 2.1596 99.3126L6.59402 94.9963Z" fill="white" stroke="#FF6600"/>
<path d="M67.451 40.8865C67.2643 40.3823 66.8082 40.1783 66.4326 40.4289L60.2956 44.5353C58.2478 45.9051 55.8786 45.9634 53.7938 44.6927L53.6092 44.582C53.227 44.3488 52.7753 44.5762 52.6038 45.0891C52.43 45.602 52.5994 46.2053 52.9816 46.4385L53.1662 46.5492C54.3671 47.2808 55.6462 47.6451 56.9231 47.6451C58.1566 47.6451 59.3879 47.3041 60.5453 46.625C61.9373 47.9336 63.5595 48.6068 65.2013 48.6068C66.3804 48.6068 67.5683 48.26 68.6845 47.5547L75.2775 43.39C75.6575 43.151 75.8204 42.5419 75.6423 42.0318C75.4643 41.5218 75.0104 41.3032 74.6304 41.5422L68.0374 45.707C66.135 46.9077 63.9808 46.8261 62.1675 45.5583L67.1123 42.2504C67.4858 42.0027 67.6378 41.3907 67.451 40.8865Z" fill="white" stroke="#FF6600"/>
<path d="M99.1305 9.66422L99.1131 9.69628C98.5485 10.7542 97.7841 11.5936 96.8981 12.1211C96.5202 12.3455 96.3682 12.9546 96.5658 13.4413L97.5191 15.77C97.8666 16.6181 98.5137 17.166 99.2325 17.2243L102.258 17.4662C103.313 17.5507 104.268 18.326 104.814 19.5413C104.905 19.7424 105.126 19.7191 105.191 19.5005C106.212 16.0527 105.063 12.1328 102.566 10.5415C101.767 10.0314 101.018 9.55055 100.483 9.20082C100.01 8.88897 99.4388 9.08424 99.1305 9.66422Z" fill="white" stroke="#FF6600"/>
</svg>
