<svg width="79" height="84" viewBox="0 0 79 84" fill="none" xmlns="http://www.w3.org/2000/svg">
<path fill-rule="evenodd" clip-rule="evenodd" d="M24.9904 1.86181C22.2008 3.9413 21.3624 7.7214 23.1418 10.954C24.8473 13.6416 27.9527 14.3834 30.6665 13.7446C31.0456 13.6553 31.1939 13.5144 31.1155 13.1258C30.8921 12.019 31.4211 10.9739 32.4601 10.3743C33.5066 9.7705 34.6055 9.8255 35.6475 10.5298C35.6779 10.5503 35.7067 10.5746 35.7358 10.5992C35.838 10.6852 35.9436 10.7743 36.1328 10.7153L36.148 10.6881L36.1594 10.6677C36.1823 10.6272 36.2079 10.5819 36.2294 10.535L36.2529 10.4848C36.2926 10.3995 36.3327 10.3139 36.3606 10.2253C37.0857 7.9243 36.8571 5.7101 35.5382 3.6437C33.0568 -0.24405 27.6837 -0.14589 24.9904 1.86181ZM61.4375 9.8333C61.2393 11.0059 60.7882 12.0311 59.9762 12.8843C59.5166 13.3673 59.4717 13.7592 59.8253 14.3399C61.3016 16.7638 62.2769 19.3685 62.7688 22.1121C63.3413 25.3045 63.3384 28.4628 61.7517 31.4577C61.2222 32.4571 60.5773 33.3842 59.4973 34.0836C59.396 33.9058 59.2967 33.7322 59.199 33.5614L59.1985 33.5605C58.9577 33.1397 58.727 32.7364 58.501 32.3308C58.3823 32.118 58.4983 31.944 58.632 31.7697C59.8592 30.1716 60.3334 28.3592 60.3683 26.4293C60.4569 21.5255 59.0363 17.0377 55.8534 13.1085C53.2191 9.8564 49.5769 8.0915 45.3008 7.3828C43.5168 7.0872 41.7292 7.0706 39.9322 7.2622C39.1104 7.3498 39.1064 7.3315 38.9486 6.6024L38.9452 6.5862C38.8588 6.1876 38.7664 5.7902 38.6739 5.3922C38.6328 5.215 38.5914 5.0373 38.5508 4.8597C39.0356 4.6256 39.5394 4.5991 40.0219 4.5737C40.0888 4.5702 40.1554 4.5667 40.2214 4.5626C43.3024 4.3746 46.3258 4.6494 49.237 5.6743C49.2631 5.6834 49.2888 5.6936 49.3145 5.7038L49.3528 5.7188C49.3696 5.7253 49.3865 5.7315 49.4035 5.7373C50.3075 6.0434 50.3077 6.0432 50.8005 5.2879L50.8021 5.2856C51.66 3.9706 52.8583 3.0801 54.501 2.7533C57.2533 2.2058 60.0421 3.6488 61.0438 6.1231C61.5257 7.3134 61.6199 8.5359 61.4375 9.8333ZM4.00987 58.9035C3.98593 57.0133 3.96629 55.1231 4.27195 53.1957C4.37705 52.2245 4.5649 51.3172 4.78235 50.4144C4.87559 50.027 5.09767 49.9356 5.47115 50.1298C5.80159 50.3016 6.13318 50.4714 6.46477 50.6411C6.92036 50.8744 7.37606 51.1077 7.82851 51.3461C10.5676 52.7897 13.1476 54.4596 15.7269 56.129C15.9668 56.2843 16.2069 56.4396 16.4469 56.5947C16.8302 56.8424 17.1188 56.8474 17.5288 56.6577C21.0282 55.0383 24.7254 54.6679 28.5548 55.2275C31.0138 55.5868 33.2759 56.4585 35.4412 57.5663C35.8864 57.794 36.3278 57.9659 36.8599 57.9017C39.7311 57.5552 42.5904 57.1485 45.3865 56.4329C48.3675 55.6699 51.0277 54.4439 52.7711 51.9293C54.057 50.0747 54.6142 48.0818 54.0677 45.8937C53.7511 44.6264 53.1334 43.4873 52.2009 42.5126C51.8142 42.1083 51.6829 41.7549 52.0219 41.2456C52.242 40.9148 52.4042 40.5507 52.5728 40.1718C52.6488 40.0009 52.7263 39.8269 52.8109 39.6518C52.6336 39.5945 52.4609 39.5406 52.292 39.4878C51.9292 39.3745 51.5833 39.2665 51.2445 39.1425L51.2144 39.1314C50.3273 38.8066 50.3089 38.7999 49.8773 39.627C49.6499 40.0628 49.4305 40.1923 48.9246 39.9176C47.6576 39.2295 46.2824 38.7663 44.8481 38.4875C41.3649 37.8102 37.8584 37.906 34.3599 38.347C33.2033 38.4928 32.1513 38.4972 31.1955 37.7704C30.7324 37.4181 30.2562 37.0806 29.7799 36.7431C29.2713 36.3827 28.7624 36.0221 28.2698 35.6438C27.7315 35.2304 27.1985 34.8112 26.6655 34.392C25.1717 33.2171 23.6779 32.0423 22.0692 30.9972C19.6035 29.3954 16.9952 28.1174 13.9634 27.7221C13.7465 27.6938 13.5273 27.6938 13.303 27.6938C12.96 27.6938 12.605 27.6938 12.2273 27.5927C14.1433 22.0119 17.4654 17.34 22.2904 13.572C21.7165 12.9569 21.2821 12.3235 20.8562 11.7027C20.7968 11.6162 20.7376 11.53 20.6783 11.444C20.6388 11.4554 20.605 11.4632 20.5758 11.4699C20.5234 11.482 20.4857 11.4908 20.4566 11.5105L20.4149 11.5389C20.2353 11.6608 20.0552 11.7831 19.8882 11.9188C16.6335 14.5631 14.0387 17.6878 11.9944 21.2181C9.90184 24.8319 8.82275 28.7599 7.80751 32.71C6.85348 36.4214 5.86469 40.1273 4.23068 43.6433C1.3772 49.7832 0.415715 56.1505 1.45417 62.7682C2.16712 67.312 3.83126 71.5605 6.19324 75.5797C6.89548 76.7746 6.86954 76.7784 6.08005 76.8949C5.91751 76.9189 5.72263 76.9477 5.49509 76.9926L5.33224 77.0245C4.58653 77.1703 3.8341 77.3175 3.16976 77.6942C2.51005 78.0683 2.47865 78.5287 3.08734 78.9708C3.30511 79.1289 3.5569 79.254 3.8089 79.3631C4.58915 79.701 5.40385 79.9555 6.23345 80.1653C13.3654 81.9687 20.6266 83.0609 28.0073 83.3594C32.8574 83.5556 37.7183 83.6052 42.5628 83.1639C45.0319 82.939 47.1149 82.0018 48.7211 80.1949C49.5656 79.2448 50.3067 78.2354 50.9074 77.1458C52.0076 75.1504 52.8654 73.0892 52.6425 70.7766C52.4471 68.749 51.4007 67.2808 49.3423 66.5163C47.4377 65.809 45.462 65.9407 43.4974 66.2434C43.0393 66.3139 42.7712 66.2334 42.4733 65.9046C39.7363 62.8851 36.5275 60.4253 32.6074 58.8173C28.8766 57.2869 25.0283 56.9235 21.0856 57.9162C14.4644 59.5834 9.73825 65.455 9.24338 72.1728C9.20464 72.6979 9.16684 73.223 9.12589 73.7913L9.06299 74.6645C8.61632 74.1406 8.36317 73.6261 8.1202 73.1321C8.04859 72.9865 7.97771 72.8424 7.90306 72.7007C5.61091 68.3434 4.07192 63.8022 4.00987 58.9035ZM56.2954 68.1026C55.6918 71.6739 54.7156 75.1304 52.8733 78.3863C52.3918 79.2683 51.8021 80.0616 51.2074 80.8615C51.0246 81.1074 50.8412 81.3541 50.6604 81.604C50.9307 81.7302 51.1455 81.7261 51.3465 81.7223C51.3829 81.7216 51.4187 81.7209 51.4544 81.721L51.8932 81.7224C52.8268 81.7253 53.7603 81.7282 54.6938 81.7179C56.4069 81.699 58.1204 81.7126 59.8339 81.7261C62.9384 81.7507 66.0428 81.7752 69.1447 81.6071C71.2086 81.4952 73.08 80.8511 74.4683 79.375C76.7983 76.8977 78.1545 74.03 77.9275 70.6923C77.7963 68.7625 76.8277 67.1881 74.4799 66.4423C72.9057 65.9421 71.29 65.9724 69.6819 66.2158C69.1862 66.2908 68.9781 66.1621 68.7334 65.8033C67.4971 63.9903 66.0256 62.3585 64.2296 60.9959L64.1758 60.9552C63.6511 60.5573 63.3927 60.3613 63.3884 60.1605C63.3842 59.9656 63.6191 59.7662 64.0819 59.3731L64.2161 59.259C67.0752 56.8215 68.2606 53.8093 67.3639 50.2713C66.6333 47.3887 64.7032 45.3426 61.736 44.1753C60.998 43.885 61.0027 43.8759 61.3542 43.2315C61.7188 42.5626 62.0832 41.8935 62.45 41.2197L62.9198 40.357C62.5476 40.0775 62.1169 39.8852 61.686 39.6939C61.481 39.6029 61.3149 39.5216 61.1778 39.4545C60.8787 39.308 60.7169 39.2288 60.5882 39.2629C60.4362 39.3031 60.3304 39.501 60.0996 39.9324C60.0514 40.0224 59.9979 40.1226 59.9373 40.2337C59.595 40.861 59.2525 41.4881 58.8961 42.1405L58.3877 43.0715C57.8889 42.4267 57.521 41.7817 57.1611 41.1508L57.1605 41.1497L57.1598 41.1486C57.0339 40.9278 56.9089 40.7087 56.7796 40.492C56.2166 39.5481 56.2132 39.5503 55.2984 40.1549L55.2732 40.1715C54.9789 40.3659 54.6699 40.5411 54.3562 40.7187C54.2129 40.7999 54.068 40.8821 53.9237 40.9665C57.4977 45.5212 57.5348 49.9396 53.6054 54.2853C53.7066 54.4997 53.8857 54.6698 54.0659 54.8409C54.1204 54.8926 54.1751 54.9445 54.2276 54.9977C55.0041 55.7831 55.6871 56.6152 55.9962 57.6717C56.3538 58.8934 56.565 60.1403 56.6198 61.3966C56.7175 63.6372 56.672 65.8739 56.2954 68.1026ZM45.1516 21.5837C46.8114 22.7446 47.3264 24.4621 46.5713 26.4872C45.8974 28.2945 44.7483 29.7953 42.8597 30.6609C41.3342 31.3599 39.7835 31.3255 38.4153 30.2947C37.0532 29.2684 36.5645 27.8874 36.96 26.3153C37.5655 23.909 39.0747 22.1533 41.6017 21.2587C42.7993 20.8347 43.9933 20.9612 45.1516 21.5837ZM34.1036 34.1179C33.3567 33.6746 32.6066 33.2294 31.9201 32.6509C31.8417 32.588 31.7659 32.5293 31.6925 32.4725C31.5524 32.3641 31.4216 32.2628 31.2995 32.1531C28.6804 29.8 27.2823 26.9462 27.2 23.5512C27.1817 22.7988 26.5783 22.1951 25.8485 22.1704C25.1029 22.1451 24.5058 22.7053 24.4763 23.5072C24.4409 24.4709 24.4871 25.4356 24.6813 26.384C25.2178 29.0032 26.5492 31.2538 28.4576 33.2203C29.7856 34.5884 31.4488 35.5571 33.1496 36.4607C33.9397 36.8804 34.7675 36.6554 35.1355 36.0326C35.4901 35.4329 35.2691 34.8159 34.4899 34.3481C34.3615 34.2709 34.2326 34.1945 34.1036 34.1179ZM63.9911 37.0677C63.4286 37.4866 62.8765 37.8429 62.1004 38.0829C62.0117 37.4455 61.9853 36.863 62.0836 36.2892C62.5962 33.2973 64.1579 30.8325 66.5309 28.7876C67.2452 28.172 67.9962 27.5982 68.8494 27.1409C69.8789 28.9852 66.9429 34.9427 63.9911 37.0677ZM54.5292 23.3375C54.4964 23.4106 54.4625 23.4862 54.4247 23.5643C54.2785 24.1507 54.1965 24.7009 54.2574 25.2575C54.4633 27.1375 55.0602 28.9116 56.011 30.5782C56.435 31.3215 56.6657 31.3715 57.4882 31.0154C57.6829 30.9311 57.8674 30.8104 58.028 30.6768C58.9627 29.8994 59.1602 28.8551 59.0795 27.7857C58.9754 26.4058 58.5435 25.0833 58.1131 23.7658C58.0415 23.5463 57.9698 23.3269 57.8998 23.1074C57.7021 22.4885 57.1983 22.0777 56.4594 22.0137C55.6949 21.9475 55.1642 22.3085 54.7726 22.8718C54.6755 23.0115 54.6056 23.1674 54.5292 23.3375ZM70.8557 40.812C72.6418 41.5414 74.2452 42.4397 75.5658 43.8036C75.1502 44.0821 74.7205 44.11 74.3092 44.1367C74.2366 44.1414 74.1647 44.1461 74.0934 44.1521C70.6463 44.4428 67.3717 43.9677 64.4104 42.1932C64.1591 42.0426 63.9262 41.866 63.6931 41.6894C63.5548 41.5846 63.4166 41.4797 63.2744 41.3803C62.9033 41.1207 62.9722 40.8987 63.3307 40.7008C64.0665 40.2945 64.8829 40.1014 65.7205 40.0464C67.4748 39.9312 69.1829 40.1522 70.8557 40.812ZM66.0842 39.0981C69.7446 39.1753 73.0048 38.1647 75.8339 35.9141C76.3284 35.4853 75.9509 35.4411 75.7012 35.4118C75.6519 35.406 75.6075 35.4008 75.5759 35.3933C73.8353 34.9818 72.0693 34.9018 70.291 35.1382C68.0757 35.4327 66.0347 36.1325 64.279 37.4496L64.2568 37.4662C64.2266 37.4887 64.1962 37.5111 64.1655 37.5336C63.8545 37.7622 63.5278 38.0023 63.3775 38.421C64.2366 38.8715 65.1445 39.0783 66.0842 39.0981ZM53.2632 38.4149C52.4288 38.4843 51.7878 38.2826 51.4245 37.5802C51.3156 37.3698 51.1142 37.3008 50.9073 37.2298C50.8714 37.2175 50.8354 37.2052 50.7997 37.192C49.8414 36.8396 49.0943 36.3004 48.9149 35.2839C48.7928 34.5916 49.2784 33.9523 50.0316 33.9171C52.1852 33.8167 54.3416 33.8264 56.4951 33.9249C57.2415 33.9591 57.7297 34.7695 57.4815 35.4711C57.1497 36.4092 56.348 36.8752 55.413 37.1766C55.042 37.2962 54.7396 37.4265 54.5292 37.7678C54.274 38.1815 53.7889 38.306 53.2632 38.4149ZM50.097 63.34C50.1252 63.2942 50.1552 63.2461 50.186 63.194C51.37 61.0909 52.5318 59.0236 53.7115 56.9248C53.2489 56.5819 52.7519 56.3358 52.2614 56.0928C52.0836 56.0048 51.9067 55.9172 51.7325 55.8255C51.5153 55.7112 51.4162 55.873 51.3242 56.0232L51.3211 56.0282C50.0076 58.1715 48.7725 60.3537 47.5527 62.5437C47.3799 62.854 47.4872 63.0168 47.7912 63.1541C48.276 63.3732 48.7602 63.5952 49.23 63.8401C49.5744 64.0196 49.7866 63.9444 49.937 63.6213C49.9802 63.5283 50.035 63.4399 50.097 63.34Z" fill="white" stroke="#FF6600"/>
</svg>
