<svg width="74" height="90" viewBox="0 0 74 90" fill="none" xmlns="http://www.w3.org/2000/svg">
<path d="M62.1348 10.8203C67.2617 10.8203 69.3125 11.7969 72.3887 8.86719C72.3887 8.86719 67.5084 8.73066 66.2363 6.91406C64.1855 3.98438 59.0586 1.05469 55.9824 1.05469C51.482 1.05469 47.4221 4.34668 45.7261 8.05156C43.8324 12.1859 43.1402 17.0551 43.4005 21.5381C43.5943 24.882 44.2191 28.1742 45.3551 31.3473C46.4662 34.4547 47.9386 37.608 47.007 40.9451C46.2027 43.8236 42.7844 46.5627 40.1217 47.8086C37.285 49.1361 34.2152 50.1432 31.2736 51.2418C24.756 53.6787 17.5085 55.3213 10.5375 55.9881C9.69403 56.0695 0.761855 56.6006 0.611328 55.7422C0.611328 55.7422 1.63672 61.6016 9.83984 62.5781C9.83984 62.5781 8.81445 63.5547 6.76367 64.5312C7.14491 64.3488 8.59666 65.0303 8.93381 65.1432C10.7114 65.7359 12.4747 66.4195 14.1208 67.2961C17.5945 69.1455 19.8983 72.7068 23.0296 74.9805C25.0251 76.4293 27.3828 77.2914 29.835 77.608V83.0859C29.835 84.3082 30.8483 87.4805 35.4746 87.4805H37.5254C38.3754 87.4805 39.0635 86.8244 39.0635 86.0156C39.0635 85.2068 38.3754 84.5508 37.5254 84.5508H35.4746C33.23 84.5508 32.9335 83.5041 32.9111 83.0859V77.7141C33.1531 77.6996 33.3957 77.6957 33.6369 77.6705C36.4719 77.3852 39.1004 76.5262 41.6302 75.4221V82.5977C41.6302 84.7934 42.8094 88.9453 47.2699 88.9453C51.9547 88.9453 54.4085 86.6604 54.5102 86.5635C55.1053 85.9959 55.1045 85.085 54.5165 84.5111C53.9277 83.9359 52.9561 83.9268 52.3472 84.4791C52.2783 84.5424 50.6161 86.0156 47.2699 86.0156C44.8089 86.0156 44.7097 82.9418 44.7064 82.5977V73.9566C45.5755 73.5111 46.4383 73.0541 47.2972 72.5895C54.0375 68.9449 64.2834 64.7189 65.115 56.2045C65.7093 50.1025 62.1477 45.4111 58.8465 40.5367C56.4153 36.9494 54.9798 32.4496 53.9462 28.3328C53.3909 26.1287 52.9062 23.8377 52.9062 21.5625C52.9062 15.7031 57.0078 10.8203 62.1348 10.8203Z" fill="white" stroke="#FF6600"/>
</svg>
