<svg width="82" height="82" viewBox="0 0 82 82" fill="none" xmlns="http://www.w3.org/2000/svg">
<path d="M78.6562 75.8126H69.9062H50.0938V68.5965L50.5535 68.6539C50.5535 68.6539 50.5535 68.6539 50.5535 68.6539C53.6281 69.0383 56.3438 66.6409 56.3438 63.5425C56.3438 60.9445 54.4093 58.7532 51.8314 58.431L6.44655 52.7578C3.37186 52.3734 0.65625 54.7708 0.65625 57.8694C0.65625 60.4673 2.59073 62.6586 5.16859 62.9808C5.1686 62.9808 5.1686 62.9808 5.16861 62.9808L6.90625 63.1981V75.8126H3.34375C1.77323 75.8126 0.5 77.0859 0.5 78.6564C0.5 80.2269 1.77323 81.5001 3.34375 81.5001H78.6562C80.2268 81.5001 81.5 80.2269 81.5 78.6564C81.5 77.0859 80.2268 75.8126 78.6562 75.8126ZM44.4062 75.8126H37.5938V67.034L44.4062 67.8856V75.8126ZM31.9062 75.8126H25.0938V65.4715L31.9062 66.3231V75.8126ZM19.4062 64.7606V75.8126H12.5938V63.909L19.4062 64.7606Z" fill="white" stroke="#FF6600"/>
<path d="M9.40625 49.3438C13.9971 49.3438 17.7188 45.6221 17.7188 41.0312C17.7188 36.4404 13.9971 32.7188 9.40625 32.7188C4.81538 32.7188 1.09375 36.4404 1.09375 41.0312C1.09375 45.6221 4.81538 49.3438 9.40625 49.3438Z" fill="white" stroke="#FF6600"/>
<path d="M34.75 17.9062C36.3206 17.9062 37.5938 16.6331 37.5938 15.0625C37.5938 13.4919 36.3206 12.2188 34.75 12.2188C33.1794 12.2188 31.9062 13.4919 31.9062 15.0625C31.9062 16.6331 33.1794 17.9062 34.75 17.9062Z" fill="white" stroke="#FF6600"/>
<path d="M34.75 29.625C42.7927 29.625 49.3125 23.1052 49.3125 15.0625C49.3125 7.01979 42.7927 0.5 34.75 0.5C26.7073 0.5 20.1875 7.01979 20.1875 15.0625C20.1875 23.1052 26.7073 29.625 34.75 29.625ZM34.75 8.53125C38.3509 8.53125 41.2812 11.4616 41.2812 15.0625C41.2812 18.6634 38.3509 21.5938 34.75 21.5938C31.1491 21.5938 28.2188 18.6634 28.2188 15.0625C28.2188 11.4616 31.1491 8.53125 34.75 8.53125Z" fill="white" stroke="#FF6600"/>
<path d="M29.5625 38.3263L28.9933 38.2551C24.9647 37.7516 21.4062 40.8929 21.4062 44.9528C21.4062 48.3569 23.941 51.2283 27.3188 51.6505L63.1036 56.1237L63.1612 55.6628L63.1036 56.1237C64.0264 56.239 64.7188 57.0233 64.7188 57.9531V71.625C64.7188 74.4901 67.0412 76.8125 69.9062 76.8125C72.7713 76.8125 75.0938 74.4901 75.0938 71.625V52.7352C75.0938 47.755 71.3853 43.5542 66.4436 42.9364L39.9375 39.6232V33.2192V32.5737L39.3124 32.7351C37.8541 33.1119 36.3253 33.3125 34.75 33.3125C33.1746 33.3125 31.6459 33.1119 30.1876 32.7351L29.5625 32.5737V33.2192V38.3263Z" fill="white" stroke="#FF6600"/>
</svg>
