<svg width="66" height="80" viewBox="0 0 66 80" fill="none" xmlns="http://www.w3.org/2000/svg">
<path d="M4.81572 72.3211H5.31572V71.8211V4.36568C5.31572 2.74269 6.6209 1.4375 8.2439 1.4375H43.1053C44.7283 1.4375 46.0334 2.74269 46.0334 4.36568V45.0829V45.5829H46.5334H48.8338C52.4582 45.5829 55.4459 48.57 55.4463 52.1942C55.4463 52.1944 55.4463 52.1947 55.4463 52.1949L55.431 62.579V62.5798C55.431 64.0429 56.5391 65.1509 58.0022 65.1509H59.0548C60.5178 65.1509 61.6259 64.0429 61.6259 62.5798V32.2997V30.456V30.2443L61.4739 30.097C61.2187 29.8496 60.8351 29.5093 60.4042 29.1271C60.1254 28.8798 59.8267 28.6148 59.5302 28.3461L59.2157 28.6932L59.5302 28.3461C58.1438 27.0897 57.4596 26.3662 57.0962 25.7716C56.7581 25.2184 56.6872 24.7617 56.6312 23.9515L56.6314 22.6175L56.6315 22.0173L56.6316 21.8345L56.6316 21.7847L56.6316 21.7717L56.6316 21.7684V21.7676V21.7673V21.7673L56.6317 21.5509L56.474 21.4027L56.4739 21.4026L56.4735 21.4023L56.4721 21.401L56.4666 21.3958L56.4454 21.3758L56.3671 21.3021C56.3011 21.2398 56.2103 21.1539 56.1111 21.0596C55.9109 20.8693 55.682 20.6499 55.551 20.5184L49.8507 14.7957C49.8507 14.7957 49.8507 14.7957 49.8507 14.7957C49.0715 14.0131 49.0738 12.7577 49.8562 11.9783C50.2478 11.5882 50.7565 11.395 51.2659 11.3956C51.7748 11.3966 52.2826 11.5921 52.6731 11.9841L52.6755 11.9865C53.7141 13.015 55.2473 14.5937 56.5235 15.9181C57.1611 16.5797 57.7335 17.1769 58.1465 17.6086C58.353 17.8245 58.5196 17.999 58.6346 18.1195L58.7669 18.2581L58.8012 18.2941L58.81 18.3033L58.8121 18.3056L58.8127 18.3062L58.8128 18.3063L59.1749 17.9615L58.8128 18.3064L58.8164 18.3101L61.539 21.1105L61.5481 21.1199L61.5577 21.1288C63.163 22.6158 64.2168 23.6715 64.7817 25.1261C65.204 26.2134 65.3232 27.966 65.3239 29.5106C65.3242 30.27 65.2962 30.9576 65.2681 31.4553C65.2541 31.704 65.24 31.9048 65.2296 32.0429C65.2275 32.0695 65.2256 32.0938 65.2239 32.1156C65.2212 32.1505 65.2188 32.1791 65.2169 32.2012L65.2135 32.2415L65.2126 32.2513L65.2124 32.2536L65.2124 32.254L65.2103 32.2768V32.2997V62.5798C65.2103 65.9513 62.4261 68.7369 59.055 68.7369H58.0024C54.6314 68.7369 51.8474 65.9517 51.847 62.5805C51.847 62.5802 51.847 62.58 51.847 62.5798L51.8623 52.1957V52.1949C51.8623 50.4782 50.5498 49.1685 48.834 49.1685H46.5336H46.0336V49.6685V71.8211V72.3211H46.5336H47.6252C49.1569 72.3211 50.3886 73.5528 50.3886 75.0845V75.7991C50.3886 77.3308 49.1569 78.5625 47.6252 78.5625H3.43899C1.90737 78.5625 0.676025 77.3309 0.676025 75.7991V75.0845C0.676025 73.5527 1.90737 72.3211 3.43899 72.3211H4.81572ZM12.2053 8.11721H11.7053V8.61721V30.3799V30.8799H12.2053H39.0115H39.5115V30.3799V8.61721V8.11721H39.0115H12.2053Z" fill="white" stroke="#FF6600"/>
</svg>
