<svg width="82" height="82" viewBox="0 0 82 82" fill="none" xmlns="http://www.w3.org/2000/svg">
<path d="M24.2522 26.5735L27.944 23.1362L26.4092 21.5693L22.8848 24.8507L24.2522 26.5735Z" fill="white" stroke="#FF6600"/>
<path d="M21.104 22.6079L24.4121 19.5293L22.8773 17.9624L19.7366 20.8852L21.104 22.6079Z" fill="white" stroke="#FF6600"/>
<path d="M17.956 18.6423L20.879 15.9209L19.3442 14.354L16.5886 16.9195L17.956 18.6423Z" fill="white" stroke="#FF6600"/>
<path d="M14.8078 14.6767L17.3456 12.3126L15.8108 10.7471L13.4404 12.954L14.8078 14.6767Z" fill="white" stroke="#FF6600"/>
<path d="M34.907 30.2467L33.4744 28.7847L30.8655 31.2136C32.3084 31.3047 33.7188 30.9598 34.907 30.2467Z" fill="white" stroke="#FF6600"/>
<path d="M27.7338 30.2287L31.4761 26.7432L29.9413 25.1763L26.042 28.8066C26.5161 29.379 27.0953 29.848 27.7338 30.2287Z" fill="white" stroke="#FF6600"/>
<path d="M10.2803 5.09912L8.74553 3.53223L7.14404 5.02464L8.51145 6.74602L10.2803 5.09912Z" fill="white" stroke="#FF6600"/>
<path d="M29.3887 74.2328C28.1724 72.9183 27.4864 71.208 27.4079 69.2852C27.3309 67.4149 26.7398 65.5832 25.6983 63.9887C24.0361 61.4439 24.282 57.8963 26.2716 55.7377L27.6331 54.259C28.805 52.9859 30.2583 52.0025 31.8672 51.3445L28.4924 50.8204C27.7501 50.7059 27.0464 50.4811 26.3916 50.1763L22.125 55.0563C20.3368 57.1018 17.6924 58.4259 14.8716 58.6894C9.22866 59.2121 4.58866 63.168 3.83755 68.0935C3.29533 71.6521 4.54866 75.1183 7.27755 77.6039C10.0064 80.0894 13.765 81.1763 17.5842 80.597C19.5013 80.3032 21.3353 79.5432 22.8879 78.4011C24.6687 77.0921 27.2094 77.2245 28.7961 78.7045L30.5072 80.2976C30.8213 80.5901 31.2376 80.7501 31.682 80.7501C32.5976 80.7501 33.3427 80.0563 33.3427 79.2039C33.3427 78.7528 33.1679 78.3142 32.8509 77.9721L29.3887 74.2328ZM15.565 76.6121C11.4746 76.6121 8.15755 73.5239 8.15755 69.7156C8.15755 65.9073 11.4746 62.819 15.565 62.819C19.6553 62.819 22.9724 65.9073 22.9724 69.7156C22.9724 73.5239 19.6553 76.6121 15.565 76.6121Z" fill="white" stroke="#FF6600"/>
<path d="M68.8715 10.7957C69.8582 9.37225 70.3797 7.72536 70.3797 6.03018C70.3797 4.40673 69.8656 2.85639 68.9115 1.54053L41.5056 32.8895L48.5664 40.0991L68.8715 10.7957Z" fill="white" stroke="#FF6600"/>
<path d="M13.8137 8.70606L12.2789 7.13916L10.2922 8.98881L11.6596 10.7116L13.8137 8.70606Z" fill="white" stroke="#FF6600"/>
<path d="M80.5722 80.2383L74.0033 77.7928C71.8818 77.0024 70.7648 74.8397 71.4048 72.7638C71.8567 71.2976 71.9737 69.7693 71.7559 68.2217C71.0552 63.2314 66.4641 59.2272 60.8374 58.7031C57.9426 58.4328 55.2404 57.0645 53.4226 54.9486L53.0685 54.5348C51.8122 53.0755 51.1204 51.2383 51.1204 49.3652V47.3348C51.1204 46.99 50.9826 46.6617 50.7337 46.4066L36.9159 32.2976C35.2863 33.39 33.3307 33.99 31.3085 33.99C31.07 33.99 30.83 33.9817 30.59 33.9652C27.7944 33.7707 25.2374 32.4548 23.5707 30.3583L3.24481 4.75138L6.74556 1.49207C6.27296 1.0231 5.61074 0.75 4.91741 0.75C4.42259 0.75 3.94407 0.885172 3.53074 1.14034L1.74556 2.24931C1.12185 2.63552 0.75 3.28379 0.75 3.98172C0.75 4.33897 0.849259 4.69207 1.03741 5.00241L25.8359 46.0466C26.4996 47.1459 27.6448 47.8934 28.9781 48.099L37.587 49.4355C42.0374 50.1252 46.1056 52.2631 49.0433 55.4534L49.2996 55.7293C51.2744 57.8755 51.5959 61.4852 50.0196 63.7776C48.4878 66.0066 47.8833 68.5969 48.273 71.2672C48.9678 76.0341 53.0107 79.8755 58.1041 80.6107C58.7337 80.7031 59.3752 80.75 60.0093 80.75H80.4656C80.6226 80.75 80.75 80.6314 80.75 80.4852C80.75 80.3762 80.6804 80.2783 80.5722 80.2383ZM37.787 46.2672C36.15 46.2672 34.8241 45.0328 34.8241 43.5086C34.8241 41.9845 36.15 40.75 37.787 40.75C39.4241 40.75 40.75 41.9845 40.75 43.5086C40.75 45.0328 39.4241 46.2672 37.787 46.2672ZM60.0093 76.6121C55.9189 76.6121 52.6019 73.5238 52.6019 69.7155C52.6019 65.9072 55.9189 62.819 60.0093 62.819C64.0996 62.819 67.4167 65.9072 67.4167 69.7155C67.4167 73.5238 64.0996 76.6121 60.0093 76.6121Z" fill="white" stroke="#FF6600"/>
</svg>
