<svg width="72" height="80" viewBox="0 0 72 80" fill="none" xmlns="http://www.w3.org/2000/svg">
<path d="M45.8576 6.2825L46.1827 0.5H55.5625L55.9984 6.2825H45.8576Z" fill="white" stroke="#FF6600"/>
<path d="M45.3349 15.6964L45.6579 9.90137H56.2836L56.7186 15.6964H45.3349Z" fill="white" stroke="#FF6600"/>
<path d="M49.9529 30.8968L49.9514 30.8959C49.3834 30.5453 48.6586 30.5492 48.0856 30.8917C48.0852 30.892 48.0848 30.8922 48.0844 30.8924L44.3618 33.0962L45.1353 19.3164H56.9878L58.4632 38.7618L50.1759 43.7452L50.818 32.5538L50.818 32.5538L50.8182 32.5495C50.8507 31.8843 50.529 31.2552 49.9529 30.8968Z" fill="white" stroke="#FF6600"/>
<path d="M20.4682 24.4824L20.7157 19.9824H29.4165L29.758 24.4824H20.4682Z" fill="white" stroke="#FF6600"/>
<path d="M20.928 16.3652L21.1735 11.8652H28.8003L29.1419 16.3652H20.928Z" fill="white" stroke="#FF6600"/>
<path d="M20.0027 32.9138L20.2693 28.1001H30.0314L31.0056 40.9982L26.3707 43.7455L27.1426 32.5721L27.1426 32.5721L27.1429 32.5676C27.1805 31.9415 26.8943 31.326 26.3668 30.9621C25.8293 30.585 25.1549 30.5285 24.5747 30.8021L20.0027 32.9138Z" fill="white" stroke="#FF6600"/>
<path d="M1.28503 75.9839H7.90628V79.5001H1.28503V75.9839Z" fill="white" stroke="#FF6600"/>
<path d="M34.7 75.9839H70.715V79.5001H34.7V75.9839Z" fill="white" stroke="#FF6600"/>
<path d="M11.525 63.0176H31.0813V79.5001H11.525V63.0176Z" fill="white" stroke="#FF6600"/>
<path d="M49.0942 48.6131L49.1015 48.609L49.1086 48.6048L70.7163 35.6344V72.3636H34.705V61.2011C34.705 60.1955 33.9005 59.4023 32.8913 59.4023H9.71626C8.72358 59.4023 7.90376 60.1928 7.90376 61.2011V72.3636H1.29126V45.5198L18.5906 37.5373H18.6141L18.7142 37.4909L23.3096 35.3592L22.5165 46.9241C22.5164 46.9248 22.5164 46.9255 22.5163 46.9263C22.4647 47.6104 22.8142 48.2387 23.3523 48.5935L23.3639 48.6011L23.3759 48.6081C23.6682 48.7783 24.0069 48.8636 24.3288 48.8636C24.6416 48.8636 24.9632 48.7761 25.2351 48.6231L25.2352 48.6232L25.2451 48.6173L33.6965 43.6032C33.7464 43.5803 33.782 43.5547 33.8013 43.5399C33.807 43.5354 33.8126 43.531 33.8179 43.5266L47.0118 35.7217L46.3646 46.946L46.3644 46.9493C46.3305 47.6121 46.6515 48.2526 47.2259 48.6014C47.8186 48.9741 48.54 48.9211 49.0942 48.6131ZM40.1013 69.8136C41.1211 69.8136 41.915 68.9972 41.915 67.9998V62.7136C41.915 61.7099 41.1149 60.9123 40.1013 60.9123C39.1207 60.9123 38.29 61.7044 38.29 62.7136V67.9998C38.29 69.0031 39.116 69.8136 40.1013 69.8136ZM45.0525 69.8136C46.0537 69.8136 46.8663 69.0009 46.8663 67.9998V62.7136C46.8663 61.7062 46.0474 60.9123 45.0525 60.9123C44.042 60.9123 43.2388 61.7093 43.2388 62.7136V67.9998C43.2388 68.9978 44.0358 69.8136 45.0525 69.8136ZM49.9888 69.8136C50.9899 69.8136 51.8025 69.0009 51.8025 67.9998V62.7136C51.8025 61.7062 50.9837 60.9123 49.9888 60.9123C48.977 60.9123 48.1775 61.7105 48.1775 62.7136V67.9998C48.1775 68.9966 48.9708 69.8136 49.9888 69.8136ZM54.9275 69.8136C55.9299 69.8136 56.7388 68.9997 56.7388 67.9998V62.7136C56.7388 61.7074 55.9236 60.9123 54.9275 60.9123C53.917 60.9123 53.1138 61.7093 53.1138 62.7136V67.9998C53.1138 68.9978 53.9108 69.8136 54.9275 69.8136ZM59.865 69.8136C60.8521 69.8136 61.6788 69.0037 61.6788 67.9998V62.7136C61.6788 61.7031 60.8443 60.9123 59.865 60.9123C58.8689 60.9123 58.0538 61.7074 58.0538 62.7136V67.9998C58.0538 68.9997 58.8626 69.8136 59.865 69.8136ZM64.8038 69.8136C65.7936 69.8136 66.6025 68.9972 66.6025 67.9998V62.7136C66.6025 61.7099 65.7874 60.9123 64.8038 60.9123C63.8089 60.9123 62.99 61.7062 62.99 62.7136V67.9998C62.99 69.0009 63.8026 69.8136 64.8038 69.8136Z" fill="white" stroke="#FF6600"/>
</svg>
