<svg width="90" height="71" viewBox="0 0 90 71" fill="none" xmlns="http://www.w3.org/2000/svg">
<path d="M82.4969 11.411C81.8981 11.1735 81.5027 10.622 81.4863 10.0048C81.4732 9.62354 81.0417 0.51416 69.769 0.51416C60.4026 0.51416 57.5168 11.361 56.7703 15.3642C56.9688 15.4001 57.1723 15.4282 57.3691 15.4704C62.0826 16.497 65.8298 19.4329 68.2055 23.9579C70.8813 29.0548 70.5319 34.8813 67.2473 39.9423C63.195 46.186 55.5136 50.4329 45.9684 51.9517C45.9684 51.9517 45.9651 51.9517 45.9635 51.9517C43.414 52.3563 40.7397 52.5782 37.9572 52.5782C29.5458 52.5782 23.126 50.1907 18.3255 47.0938L2.14404 47.9688C6.27678 50.6157 10.9821 54.2001 11.092 56.8548C11.1773 58.9017 11.7089 64.8345 12.0829 68.886C15.105 65.3517 20.3599 59.9907 25.8215 58.0735C28.8829 56.9985 32.0247 57.322 35.6604 57.6892C42.3443 58.3704 50.6655 59.2173 64.035 52.3907C83.857 42.272 81.5191 18.4985 81.4945 18.2579C81.4256 17.6298 81.7619 17.0204 82.3476 16.7204L88.2605 13.6892L82.4953 11.4095L82.4969 11.411ZM74.0461 10.072C73.7262 10.3767 73.3062 10.5298 72.8862 10.5298C72.4662 10.5298 72.0462 10.3767 71.7262 10.072L70.1233 8.54697C69.4819 7.9376 69.4819 6.94854 70.1233 6.3376C70.7648 5.72666 71.8017 5.72666 72.4432 6.3376L74.0461 7.8626C74.6876 8.47197 74.6876 9.46104 74.0461 10.072Z" fill="white" stroke="#FF6600"/>
<path d="M52.8705 46.9455C42.1343 43.0643 34.6497 31.4799 32.2036 27.2314C30.4284 28.2643 28.6106 29.1439 26.8059 29.8939C30.0576 35.4861 37.0221 45.6518 46.0898 48.7674C48.5081 48.3455 50.7771 47.733 52.8705 46.9455Z" fill="white" stroke="#FF6600"/>
<path d="M64.4582 38.2982C67.1701 34.1185 67.4605 29.5216 65.2719 25.3545C63.3229 21.6404 60.4173 19.3388 56.6373 18.5154C50.7508 17.2279 42.9086 19.6482 35.6554 24.9763C35.4208 25.1482 35.178 25.3045 34.9401 25.4701C37.2747 29.531 45.8108 42.9826 57.2952 44.8763C60.3205 43.1232 62.7651 40.9076 64.4582 38.2982Z" fill="white" stroke="#FF6600"/>
<path d="M19.6724 44.2657C19.7265 44.3032 19.784 44.3313 19.8315 44.3751C24.189 47.2282 30.092 49.4532 37.9572 49.4532C38.7004 49.4532 39.4354 49.436 40.1622 49.4048C32.3331 44.6251 26.5466 35.9595 23.7264 31.0532C18.1532 32.9704 13.0344 33.7376 10.1486 34.0329C11.5201 36.4985 14.4847 40.8204 19.6724 44.2657Z" fill="white" stroke="#FF6600"/>
</svg>
