<svg width="74" height="75" viewBox="0 0 74 75" fill="none" xmlns="http://www.w3.org/2000/svg">
<path d="M59.5 28H14.5C13.8096 28 13.25 28.5596 13.25 29.25V33C13.25 33.6904 13.8096 34.25 14.5 34.25H59.5C60.1904 34.25 60.75 33.6904 60.75 33V29.25C60.75 28.5596 60.1904 28 59.5 28Z" fill="white" stroke="#FF6600"/>
<path d="M38.25 13.0544V9.25H45.75C46.0815 9.25 46.3994 9.1183 46.6339 8.88388C46.8683 8.64946 47 8.33152 47 8V3C47 2.66848 46.8683 2.35054 46.6339 2.11612C46.3994 1.8817 46.0815 1.75 45.75 1.75H38.25C38.25 1.41848 38.1183 1.10054 37.8839 0.866116C37.6494 0.631696 37.3315 0.5 37 0.5C36.6685 0.5 36.3505 0.631696 36.1161 0.866116C35.8817 1.10054 35.75 1.41848 35.75 1.75V13.0544C32.3213 13.3255 29.0667 14.676 26.4534 16.912C23.8401 19.148 22.0024 22.1545 21.2042 25.5H52.7957C51.9975 22.1545 50.1599 19.148 47.5466 16.912C44.9332 14.676 41.6786 13.3255 38.25 13.0544Z" fill="white" stroke="#FF6600"/>
<path d="M12 74.25H26.725L27.975 68H12V74.25Z" fill="white" stroke="#FF6600"/>
<path d="M15.75 65.5H28.475L29.225 61.75H15.75V65.5Z" fill="white" stroke="#FF6600"/>
<path d="M31.775 61.75L29.275 74.25H44.725L42.225 61.75H31.775Z" fill="white" stroke="#FF6600"/>
<path d="M7.3125 52.375H9.8125V54.875H7.3125V52.375Z" fill="white" stroke="#FF6600"/>
<path d="M47.275 74.25H62V68H46.025L47.275 74.25Z" fill="white" stroke="#FF6600"/>
<path d="M58.25 61.75H44.775L45.525 65.5H58.25V61.75Z" fill="white" stroke="#FF6600"/>
<path d="M25.125 36.75H32.625V59.25H25.125V36.75Z" fill="white" stroke="#FF6600"/>
<path d="M13.25 60.5C13.25 60.1685 13.3817 59.8505 13.6161 59.6161C13.8505 59.3817 14.1685 59.25 14.5 59.25H16.375V36.75H14.5C13.5058 36.7489 12.5526 36.3535 11.8496 35.6504C11.1465 34.9474 10.7511 33.9942 10.75 33V31.125H2C1.66848 31.125 1.35054 31.2567 1.11612 31.4911C0.881696 31.7255 0.75 32.0435 0.75 32.375V73C0.75 73.3315 0.881696 73.6495 1.11612 73.8839C1.35054 74.1183 1.66848 74.25 2 74.25H9.5V66.75C9.5 66.4185 9.6317 66.1005 9.86612 65.8661C10.1005 65.6317 10.4185 65.5 10.75 65.5H13.25V60.5ZM12.3125 56.125C12.3125 56.4565 12.1808 56.7745 11.9464 57.0089C11.712 57.2433 11.394 57.375 11.0625 57.375H6.0625C5.73098 57.375 5.41304 57.2433 5.17862 57.0089C4.9442 56.7745 4.8125 56.4565 4.8125 56.125V51.125C4.8125 50.7935 4.9442 50.4755 5.17862 50.2411C5.41304 50.0067 5.73098 49.875 6.0625 49.875H11.0625C11.394 49.875 11.712 50.0067 11.9464 50.2411C12.1808 50.4755 12.3125 50.7935 12.3125 51.125V56.125ZM12.3125 44.875C12.3125 45.2065 12.1808 45.5245 11.9464 45.7589C11.712 45.9933 11.394 46.125 11.0625 46.125H6.0625C5.73098 46.125 5.41304 45.9933 5.17862 45.7589C4.9442 45.5245 4.8125 45.2065 4.8125 44.875V39.875C4.8125 39.5435 4.9442 39.2255 5.17862 38.9911C5.41304 38.7567 5.73098 38.625 6.0625 38.625H11.0625C11.394 38.625 11.712 38.7567 11.9464 38.9911C12.1808 39.2255 12.3125 39.5435 12.3125 39.875V44.875Z" fill="white" stroke="#FF6600"/>
<path d="M41.375 36.75H48.875V59.25H41.375V36.75Z" fill="white" stroke="#FF6600"/>
<path d="M51.375 36.75H55.125V59.25H51.375V36.75Z" fill="white" stroke="#FF6600"/>
<path d="M35.125 36.75H38.875V59.25H35.125V36.75Z" fill="white" stroke="#FF6600"/>
<path d="M18.875 36.75H22.625V59.25H18.875V36.75Z" fill="white" stroke="#FF6600"/>
<path d="M72 31.125H63.25V33C63.2489 33.9942 62.8535 34.9474 62.1504 35.6504C61.4474 36.3535 60.4942 36.7489 59.5 36.75H57.625V59.25H59.5C59.8315 59.25 60.1495 59.3817 60.3839 59.6161C60.6183 59.8505 60.75 60.1685 60.75 60.5V65.5H63.25C63.5815 65.5 63.8995 65.6317 64.1339 65.8661C64.3683 66.1005 64.5 66.4185 64.5 66.75V74.25H72C72.3315 74.25 72.6495 74.1183 72.8839 73.8839C73.1183 73.6495 73.25 73.3315 73.25 73V32.375C73.25 32.0435 73.1183 31.7255 72.8839 31.4911C72.6495 31.2567 72.3315 31.125 72 31.125ZM69.1875 56.125C69.1875 56.4565 69.0558 56.7745 68.8214 57.0089C68.587 57.2433 68.269 57.375 67.9375 57.375H62.9375C62.606 57.375 62.288 57.2433 62.0536 57.0089C61.8192 56.7745 61.6875 56.4565 61.6875 56.125V51.125C61.6875 50.7935 61.8192 50.4755 62.0536 50.2411C62.288 50.0067 62.606 49.875 62.9375 49.875H67.9375C68.269 49.875 68.587 50.0067 68.8214 50.2411C69.0558 50.4755 69.1875 50.7935 69.1875 51.125V56.125ZM69.1875 44.875C69.1875 45.2065 69.0558 45.5245 68.8214 45.7589C68.587 45.9933 68.269 46.125 67.9375 46.125H62.9375C62.606 46.125 62.288 45.9933 62.0536 45.7589C61.8192 45.5245 61.6875 45.2065 61.6875 44.875V39.875C61.6875 39.5435 61.8192 39.2255 62.0536 38.9911C62.288 38.7567 62.606 38.625 62.9375 38.625H67.9375C68.269 38.625 68.587 38.7567 68.8214 38.9911C69.0558 39.2255 69.1875 39.5435 69.1875 39.875V44.875Z" fill="white" stroke="#FF6600"/>
<path d="M64.1875 41.125H66.6875V43.625H64.1875V41.125Z" fill="white" stroke="#FF6600"/>
<path d="M64.1875 52.375H66.6875V54.875H64.1875V52.375Z" fill="white" stroke="#FF6600"/>
<path d="M7.3125 41.125H9.8125V43.625H7.3125V41.125Z" fill="white" stroke="#FF6600"/>
</svg>
