<svg width="70" height="58" viewBox="0 0 70 58" fill="none" xmlns="http://www.w3.org/2000/svg">
<path fill-rule="evenodd" clip-rule="evenodd" d="M37.645 35.3076C39.4679 36.7562 41.8443 37.5049 44.7416 37.5375C44.351 37.212 44.0091 36.8376 43.7324 36.4307C40.4445 34.1194 39.1424 31.3849 38.6867 29.0899C36.7335 28.862 35.0407 29.2852 34.2106 29.5619C34.6826 31.7593 35.8708 33.8752 37.645 35.3076Z" fill="white" stroke="#FF6600"/>
<path fill-rule="evenodd" clip-rule="evenodd" d="M45.4252 26.0948C43.6511 24.4509 41.5677 23.8649 40.5748 23.6533C39.354 27.2342 40.1841 30.9616 42.8698 33.6635C42.7721 31.2057 44.0254 28.4224 45.4252 26.0948Z" fill="white" stroke="#FF6600"/>
<path fill-rule="evenodd" clip-rule="evenodd" d="M44.6439 34.7378C45.9623 38.6279 53.3193 38.7581 54.6703 34.7378C55.8422 31.2871 51.8707 25.5252 49.6571 22.8721C47.4435 25.5252 43.4719 31.2871 44.6439 34.7378Z" fill="white" stroke="#FF6600"/>
<path fill-rule="evenodd" clip-rule="evenodd" d="M56.4282 33.6635C59.1139 30.9616 59.944 27.2342 58.7233 23.6533C57.7304 23.8486 55.647 24.4509 53.8728 26.0948C55.2889 28.4224 56.5422 31.2057 56.4282 33.6635Z" fill="white" stroke="#FF6600"/>
<path fill-rule="evenodd" clip-rule="evenodd" d="M55.5656 36.4141C55.2889 36.821 54.9633 37.1954 54.5564 37.5209C57.4536 37.4883 59.83 36.7559 61.653 35.291C64.0457 33.3866 64.827 30.7009 65.0711 29.5453C64.241 29.2686 62.5645 28.8454 60.5951 29.0733C60.1719 31.3683 58.8697 34.1028 55.5656 36.4141Z" fill="white" stroke="#FF6600"/>
<path fill-rule="evenodd" clip-rule="evenodd" d="M68.5218 39.3442C46.1739 39.3442 23.8097 39.3442 1.46182 39.3442C1.08746 39.3442 0.778198 39.6535 0.778198 40.0279V46.1479C0.778198 46.5223 1.08746 46.8478 1.46182 46.8478H68.5218C68.8962 46.8478 69.2055 46.5385 69.2055 46.1642V40.0441C69.2217 39.6535 68.9125 39.3442 68.5218 39.3442Z" fill="white" stroke="#FF6600"/>
<path fill-rule="evenodd" clip-rule="evenodd" d="M9.29091 35.8283C12.3835 37.0816 16.5015 37.7652 20.8799 37.7652H20.9939C26.6419 37.7489 31.9481 36.5607 34.8616 34.6727C32.8596 32.0684 32.5829 29.2525 32.5666 29.106C32.534 28.7805 32.7131 28.4712 33.0223 28.3247C33.0549 28.3085 33.2665 28.2108 33.6409 28.0806C33.299 27.9178 32.941 27.7551 32.5503 27.5923C32.3224 27.6899 32.0783 27.8039 31.8341 27.9015C28.9043 29.0897 25.0305 29.7408 20.9288 29.7408C16.827 29.7408 12.9532 29.0897 10.0234 27.9015C9.77921 27.8039 9.53506 27.7062 9.30719 27.5923C6.44249 28.7479 4.81482 30.2291 4.81482 31.7103C4.8311 33.1915 6.44249 34.6889 9.29091 35.8283Z" fill="white" stroke="#FF6600"/>
<path fill-rule="evenodd" clip-rule="evenodd" d="M20.945 28.1944C29.3275 28.1944 35.1708 25.4111 35.1708 22.9045C35.1708 21.5535 33.5269 20.1537 30.7598 19.1445C28.0416 20.1211 24.591 20.6583 20.945 20.6583C17.299 20.6583 13.8483 20.1211 11.1301 19.1445C8.3631 20.1537 6.71915 21.5535 6.71915 22.9045C6.70287 25.4111 12.5462 28.1944 20.945 28.1944Z" fill="white" stroke="#FF6600"/>
<path fill-rule="evenodd" clip-rule="evenodd" d="M20.945 19.0956C28.9369 19.0956 34.5198 16.4588 34.5198 14.0824C34.5198 12.5198 32.1759 10.9084 28.5137 9.96436C26.414 10.5991 23.826 10.9735 20.9613 10.9735C18.0966 10.9735 15.5086 10.5991 13.4089 9.96436C9.71408 10.9084 7.37024 12.5035 7.37024 14.0824C7.37024 16.4425 12.9369 19.0956 20.945 19.0956Z" fill="white" stroke="#FF6600"/>
<path fill-rule="evenodd" clip-rule="evenodd" d="M20.945 9.39487C22.8005 9.39487 32.355 8.66242 32.355 5.24431C32.355 3.29111 27.6673 1.09375 20.945 1.09375C14.2227 1.09375 9.53503 3.27483 9.53503 5.24431C9.53503 8.66242 19.0732 9.39487 20.945 9.39487Z" fill="white" stroke="#FF6600"/>
<path fill-rule="evenodd" clip-rule="evenodd" d="M14.4018 48.4102H6.29596V52.9025C6.29596 53.4559 6.21457 53.9605 6.01925 54.4651C5.61233 55.5556 5.57978 56.6624 5.72627 56.9066H12.5137C12.6764 56.6299 12.5788 55.4417 12.1718 54.3186C12.1067 54.1396 12.1067 53.928 12.1881 53.7489L14.4018 48.4102Z" fill="white" stroke="#FF6600"/>
<path fill-rule="evenodd" clip-rule="evenodd" d="M63.7039 52.9025V48.4102H55.5981L57.8118 53.7489C57.8932 53.928 57.8932 54.1233 57.8281 54.3186C57.4211 55.4417 57.3072 56.6299 57.4862 56.9066H64.2736C64.4364 56.6462 64.3876 55.5556 63.9806 54.4651C63.7853 53.9442 63.7039 53.4559 63.7039 52.9025Z" fill="white" stroke="#FF6600"/>
</svg>
