<svg width="93" height="78" viewBox="0 0 93 78" fill="none" xmlns="http://www.w3.org/2000/svg">
<path d="M5.30662 51.2164C5.46023 51.1356 5.59533 51.0264 5.70397 50.8952C5.81262 50.764 5.89263 50.6134 5.93928 50.4523L6.20117 49.559C6.42773 48.7596 6.58271 47.9433 6.66444 47.1189C6.81579 45.7234 7.65312 43.5102 10.7824 40.8902C10.9028 40.7894 11.0638 40.6719 11.2674 40.5229C11.9032 40.0584 13.116 39.1703 13.6808 38.2543C12.9288 37.5978 12.2748 36.8462 11.7373 36.0205C10.7436 37.4559 9.64156 39.4029 8.56716 41.3021C7.06803 43.952 5.65197 46.4549 4.48097 47.6725C3.93202 48.291 3.5494 49.0275 3.36617 49.8184C3.30657 50.0574 3.32128 50.3077 3.40851 50.5389C3.49574 50.7701 3.65173 50.9721 3.85744 51.1203C4.06316 51.2686 4.30971 51.3566 4.56703 51.3736C4.82436 51.3907 5.08133 51.3361 5.30662 51.2164Z" fill="white" stroke="#FF6600"/>
<path d="M11.2454 4.02363C11.0522 2.68652 9.92139 1.77637 9.12302 1.29199C8.70546 2.16016 8.52999 3.11619 8.61355 4.06778C8.69711 5.01936 9.03687 5.93436 9.60004 6.72441C10.0017 6.63425 10.4117 6.58237 10.8241 6.56953C10.7935 6.04452 10.8349 5.51795 10.9472 5.00312C11.0198 4.66976 11.1195 4.34227 11.2454 4.02363Z" fill="white" stroke="#FF6600"/>
<path d="M15.6991 73.9559C15.4576 73.9701 15.2226 74.0361 15.0115 74.1487C14.8004 74.2614 14.6186 74.4179 14.4797 74.6066L13.9191 75.6309C13.9022 75.6616 13.894 75.696 13.8951 75.7307C13.8963 75.7653 13.9068 75.7991 13.9257 75.8288C13.9446 75.8585 13.9712 75.883 14.0029 75.9C14.0347 75.917 14.0705 75.926 14.1069 75.926H22.67C22.5589 75.5068 22.5585 75.0681 22.6686 74.6487C22.7787 74.2294 22.996 73.8425 23.3012 73.5225L15.6991 73.9559Z" fill="white" stroke="#FF6600"/>
<path d="M39.6563 71.1287C40.7519 71.098 41.5285 70.8514 41.9651 70.3949C42.3547 69.9883 42.5221 69.349 42.4647 68.4953C42.3789 67.3607 42.23 66.2313 42.0184 65.1117C41.4796 62.0574 40.1769 59.1714 38.2206 56.6975C37.6494 56.5668 37.0931 56.3833 36.5594 56.1494C38.3219 59.9299 40.5027 66.068 39.1192 71.1453C39.3036 71.1391 39.4849 71.1334 39.6563 71.1287Z" fill="white" stroke="#FF6600"/>
<path d="M31.2994 47.377C32.7366 51.0672 34.8194 52.9445 36.4469 53.893C35.4804 51.8238 34.8038 49.0055 35.0934 45.2764C33.6488 46.6551 32.3131 47.1947 31.2994 47.377Z" fill="white" stroke="#FF6600"/>
<path d="M68.6587 68.6178C66.1807 65.7467 65.6471 61.7051 66.8745 55.1061C69.6547 40.158 59.1393 27.5404 59.0329 27.4146C50.0197 16.8482 39.4631 20.3164 30.9809 23.1025C29.942 23.4438 28.9605 23.7666 28.0073 24.0545C24.3204 25.1699 21.3996 24.9529 19.3257 23.41C16.2872 21.1486 16.3235 16.8945 16.4068 15.6443C16.6119 12.5754 14.5223 11.1402 14.5012 11.126C14.375 11.0415 14.2705 10.9311 14.1953 10.8028C14.1202 10.6745 14.0764 10.5318 14.0672 10.3851C14.058 10.2385 14.0837 10.0918 14.1423 9.95593C14.2009 9.82006 14.2909 9.69853 14.4056 9.60039C17.9978 6.52832 16.8551 2.9793 16.0479 1.38086C11.8731 4.34434 12.9799 7.15156 13.0324 7.27715C13.106 7.44077 13.1306 7.62053 13.1038 7.79665C13.0769 7.97278 12.9996 8.13843 12.8803 8.27539C12.7602 8.41284 12.6028 8.51632 12.4253 8.57458C12.2478 8.63285 12.0569 8.64366 11.8733 8.60586C8.89377 8.00684 6.30178 10.7494 5.36806 12.6188C4.53073 14.2951 2.39012 15.8338 0.741705 16.8295C0.688247 16.8616 0.642532 16.9041 0.607573 16.9542C0.572614 17.0043 0.549203 17.0609 0.538883 17.1203C0.527704 17.1809 0.53013 17.243 0.546001 17.3027C0.561873 17.3623 0.590829 17.418 0.630963 17.4662L1.4281 18.4326C1.52928 18.5586 1.66689 18.6536 1.82403 18.7061C1.98116 18.7586 2.15097 18.7663 2.3126 18.7281C3.8917 18.3082 6.2501 18.2531 7.76255 18.4156C9.24342 18.5736 11.0153 17.8408 11.9753 16.6699C12.4367 16.1068 12.8981 15.2074 12.4697 14.1187C12.3745 13.8761 12.3844 13.6074 12.4973 13.3717C12.6101 13.1361 12.8166 12.9528 13.0714 12.8621C13.3262 12.7715 13.6083 12.7809 13.8558 12.8884C14.1032 12.9958 14.2957 13.1925 14.3909 13.4352C14.9834 14.9451 14.6985 16.5211 13.5911 17.8723C12.6066 19.0262 11.2533 19.8423 9.73705 20.1965C10.8929 21.7199 12.2671 24.2875 11.8141 27.5191C11.1447 32.2938 13.5269 36.0897 16.4283 37.7496C16.3525 36.8554 16.11 35.9811 15.7124 35.1678C15.5874 34.9377 15.5636 34.6698 15.646 34.423C15.7284 34.1762 15.9104 33.9707 16.152 33.8517C16.3935 33.7326 16.6748 33.7099 16.934 33.7884C17.1932 33.8669 17.4089 34.0403 17.5339 34.2703C17.6346 34.4551 19.9665 38.8326 17.0298 42.218C15.8324 43.5982 14.776 45.7881 13.7545 47.9059C12.6922 50.1082 11.6888 52.1883 10.5098 53.4137C9.96087 54.0322 9.57826 54.7687 9.39498 55.5596C9.31569 55.8816 9.37186 56.2203 9.55147 56.5034C9.73107 56.7865 10.0199 56.9914 10.356 57.0742C10.6922 57.1571 11.0491 57.1114 11.3504 56.9469C11.6517 56.7824 11.8734 56.5121 11.9681 56.1939L12.23 55.3002C12.4566 54.5009 12.6116 53.6847 12.6932 52.8604C12.8446 51.4648 13.6819 49.2516 16.811 46.6318C19.0509 44.7568 21.6119 40.9037 21.6375 40.865C21.6424 40.8576 21.6492 40.852 21.6543 40.8455C21.6827 40.8049 21.7142 40.7664 21.7487 40.7303C21.7559 40.7229 21.762 40.7141 21.7692 40.7066C21.8066 40.6699 21.847 40.6359 21.89 40.6051C26.0305 37.6502 24.3893 33.5047 24.3714 33.4633C24.3219 33.3438 24.2977 33.2162 24.3001 33.0877C24.3025 32.9593 24.3315 32.8326 24.3853 32.7148C24.4392 32.5971 24.517 32.4906 24.6142 32.4015C24.7113 32.3124 24.826 32.2425 24.9516 32.1957C25.0772 32.1488 25.2112 32.1261 25.3461 32.1287C25.4809 32.1313 25.6139 32.1592 25.7374 32.2108C25.8609 32.2624 25.9725 32.3367 26.0658 32.4295C26.1591 32.5223 26.2323 32.6316 26.2811 32.7514C26.9614 34.407 27.3165 37.9437 24.6216 40.8549C27.089 41.668 29.1501 43.3268 30.4034 45.5082C31.2237 45.5063 33.3746 45.0766 35.7588 41.1861C36.4616 38.3912 37.5401 36.2297 38.4422 35.1994C41.1415 32.1176 44.1475 30.2811 47.3769 29.7406C50.1518 29.277 53.0231 29.7701 55.911 31.2074C56.0304 31.2668 56.1362 31.3481 56.2226 31.4464C56.309 31.5448 56.3742 31.6585 56.4145 31.7809C56.4548 31.9032 56.4693 32.032 56.4574 32.1597C56.4454 32.2875 56.4071 32.4117 56.3447 32.5254C56.2824 32.6391 56.1971 32.7399 56.0938 32.8222C55.9905 32.9044 55.8711 32.9665 55.7426 33.0049C55.6141 33.0433 55.479 33.0571 55.3448 33.0457C55.2107 33.0343 55.0802 32.9979 54.9609 32.9385C49.4769 30.2084 44.449 31.3904 40.017 36.4506C38.9832 37.6311 37.6521 40.8678 37.2214 44.5412C36.8586 47.6352 37.0007 52.0258 39.7375 55.3711C41.9571 58.1245 43.434 61.3542 44.039 64.7773C44.2631 65.9664 44.4206 67.1661 44.5107 68.3711C44.605 69.7736 44.2587 70.8973 43.4808 71.7109C42.6556 72.574 41.389 73.0352 39.7162 73.0822C39.1967 73.0967 38.6088 73.1178 37.9786 73.1408C35.307 73.2367 31.9823 73.3557 29.7274 73.1455C27.8202 72.9668 26.3334 73.8211 24.9719 74.7104C24.8333 74.7953 24.7289 74.9223 24.6755 75.0708C24.6222 75.2192 24.623 75.3805 24.6778 75.5285C24.7241 75.6853 24.8238 75.823 24.9611 75.9202C25.0984 76.0173 25.2656 76.0683 25.4366 76.0652H44.3756C45.1809 76.0652 45.7879 75.5475 46.0777 75.2389C46.4066 74.8906 46.6587 74.4829 46.8189 74.04C46.979 73.5971 47.0441 73.1281 47.0102 72.6607C46.6669 69.7096 46.4128 66.1678 46.2553 62.1334C46.1816 60.4819 46.2387 58.8275 46.4261 57.1842C46.4261 57.1818 46.4261 57.1797 46.4261 57.1773V57.1732C46.5601 56.0034 46.7966 54.8462 47.133 53.7139C47.5864 52.2798 48.4618 50.9996 49.6557 50.0249C50.8495 49.0502 52.3117 48.4218 53.869 48.2143C59.9908 47.3549 60.2513 42.343 60.2595 42.1299C60.2675 41.8709 60.3832 41.6255 60.5812 41.4478C60.7792 41.27 61.0432 41.1745 61.3151 41.1821C61.5871 41.1898 61.8447 41.3 62.0313 41.4885C62.2179 41.6771 62.3183 41.9285 62.3103 42.1875C62.3084 42.2559 62.0232 49.0449 54.1687 50.1465C53.0001 50.299 51.9019 50.7673 51.0042 51.4958C50.1064 52.2244 49.4467 53.1828 49.1032 54.2574C48.898 54.941 48.7357 55.6356 48.6174 56.3375C50.0433 56.233 52.7212 55.6717 55.3944 53.1598C56.3097 52.2797 57.3058 51.4793 58.3709 50.7684C58.5835 50.6309 58.8361 50.5606 59.0929 50.5672C59.3498 50.5739 59.5979 50.6572 59.8024 50.8055C60.0068 50.9537 60.1572 51.1594 60.2322 51.3934C60.3073 51.6274 60.3033 51.878 60.2207 52.1098C59.4193 54.3646 55.7515 65.9006 62.2787 71.5629C66.2699 75.0252 70.3998 76.5613 76.0856 76.6996C80.2281 76.8008 85.2224 76.1748 92.466 74.5973C79.6334 74.0693 72.1757 72.6936 68.6587 68.6178Z" fill="white" stroke="#FF6600"/>
</svg>
