<svg width="74" height="74" viewBox="0 0 74 74" fill="none" xmlns="http://www.w3.org/2000/svg">
<path d="M50.75 30.75H47.2925L49.2137 27.5475C49.57 26.9537 49.91 26.3513 50.255 25.75H43.25V38.25H50.75V30.75Z" fill="white" stroke="#FF6600"/>
<path d="M43.5237 20.75H41.5225L42.7725 23.25H44.1487L43.5237 20.75Z" fill="white" stroke="#FF6600"/>
<path d="M24.9774 18.25H22.9762L22.3512 20.75H23.7274L24.9774 18.25Z" fill="white" stroke="#FF6600"/>
<path d="M20.3988 18.25H18.41C18.7813 18.815 19.1613 19.3763 19.5563 19.9288L19.87 20.3675L20.3988 18.25Z" fill="white" stroke="#FF6600"/>
<path d="M54.3162 17.8938L53.645 16.955C51.5512 14.0225 49.755 10.885 48.25 7.61125V0.75H45.75V7.61125C44.245 10.8838 42.4487 14.0225 40.355 16.9538L39.4287 18.25H54.1525C54.2075 18.1313 54.2612 18.0125 54.3162 17.8938Z" fill="white" stroke="#FF6600"/>
<path d="M47.8987 20.75H46.1012L46.7262 23.25H47.2737L47.8987 20.75Z" fill="white" stroke="#FF6600"/>
<path d="M52.9374 20.75H50.4762L49.8512 23.25H51.64C52.0837 22.4225 52.5162 21.5888 52.9374 20.75Z" fill="white" stroke="#FF6600"/>
<path d="M51.705 28.25H72.295C68.615 22.0275 65.5825 15.4325 63.25 8.5925V0.75H60.75V8.5925C58.4175 15.4325 55.385 22.0275 51.705 28.25Z" fill="white" stroke="#FF6600"/>
<path d="M48.25 60.75V58.25H50.75V52.5175L48.25 50.0175V48.395C46.6075 46.715 44.36 45.75 42 45.75H25.75V53.25H33.25V58.25H35.75V60.75H38.25V58.25H45.75V60.75H48.25Z" fill="white" stroke="#FF6600"/>
<path d="M68.25 45.75V43.25H70.75V30.75H53.25V43.25H55.75V45.75H58.25V43.25H65.75V45.75H68.25ZM64.5 39.5H59.5V34.5H64.5V39.5Z" fill="white" stroke="#FF6600"/>
<path d="M16.875 15.75H27.07L26.145 14.455C24.0513 11.5225 22.255 8.38375 20.75 5.11125V0.75H18.25V5.145C17.2188 7.3775 16.0425 9.54625 14.7375 11.625C15.3875 13.0312 16.1 14.4075 16.875 15.75Z" fill="white" stroke="#FF6600"/>
<path d="M15.75 27.295V38.25H23.25V23.25H17.7725L15.75 27.295Z" fill="white" stroke="#FF6600"/>
<path d="M28.25 60.75V58.25H30.75V55.75H15.75V60.75H18.25V58.25H25.75V60.75H28.25Z" fill="white" stroke="#FF6600"/>
<path d="M50.75 40.75H15.75V47.445C17.8138 44.89 20.9675 43.25 24.5 43.25H42C44.2488 43.25 46.415 43.9375 48.25 45.165V43.25H50.75V40.75Z" fill="white" stroke="#FF6600"/>
<path d="M15.85 53.2501H23.25V45.8501C19.4262 46.4001 16.4 49.4263 15.85 53.2501Z" fill="white" stroke="#FF6600"/>
<path d="M70.75 63.25H63.25V60.75H60.75V63.25H53.25V60.75H50.75V63.25H43.25V60.75H40.75V63.25H33.25V60.75H30.75V63.25H23.25V60.75H20.75V63.25H13.25V60.75H10.75V63.25H3.25V60.75H0.75V73.25H5.75V65.75H13.25V73.25H15.75V65.75H23.25V73.25H28.25V65.75H45.75V73.25H50.75V65.75H58.25V73.25H60.75V65.75H68.25V73.25H73.25V60.75H70.75V63.25Z" fill="white" stroke="#FF6600"/>
<path d="M38.25 68.25H43.25V73.25H38.25V68.25Z" fill="white" stroke="#FF6600"/>
<path d="M30.75 68.25H35.75V73.25H30.75V68.25Z" fill="white" stroke="#FF6600"/>
<path d="M53.25 68.25H55.75V73.25H53.25V68.25Z" fill="white" stroke="#FF6600"/>
<path d="M70.75 45.75V48.25H63.25V45.75H60.75V48.25H53.25V45.75H50.75V48.9825L52.5175 50.75H71.4825L73.25 48.9825V45.75H70.75Z" fill="white" stroke="#FF6600"/>
<path d="M18.25 68.25H20.75V73.25H18.25V68.25Z" fill="white" stroke="#FF6600"/>
<path d="M68.25 60.75V58.25H70.75V53.25H53.25V58.25H55.75V60.75H58.25V58.25H65.75V60.75H68.25Z" fill="white" stroke="#FF6600"/>
<path d="M63.25 68.25H65.75V73.25H63.25V68.25Z" fill="white" stroke="#FF6600"/>
<path d="M8.25 68.25H10.75V73.25H8.25V68.25Z" fill="white" stroke="#FF6600"/>
<path d="M13.25 48.25V28.25H5.75V35.75H8.25V38.25H5.75V53.25H8.25V55.75H5.75V60.75H8.25V58.25H13.25V50.75H10.75V48.25H13.25ZM8.25 30.75H10.75V33.25H8.25V30.75ZM8.25 45.75V43.25H10.75V45.75H8.25Z" fill="white" stroke="#FF6600"/>
<path d="M17.0787 20.75C14.4437 16.9488 12.33 12.845 10.75 8.51375V0.75H8.24999V8.515C6.67124 12.845 4.55749 16.9488 1.92249 20.75H17.0787Z" fill="white" stroke="#FF6600"/>
<path d="M6.02371 23.25H4.02246L5.27246 25.75H6.64871L6.02371 23.25Z" fill="white" stroke="#FF6600"/>
<path d="M14.9774 23.25H12.9762L12.3512 25.75H13.7274L14.9774 23.25Z" fill="white" stroke="#FF6600"/>
<path d="M10.3987 23.25H8.6012L9.2262 25.75H9.7737L10.3987 23.25Z" fill="white" stroke="#FF6600"/>
</svg>
