<svg width="82" height="82" viewBox="0 0 82 82" fill="none" xmlns="http://www.w3.org/2000/svg">
<path d="M58.5 1H23.5C22.8096 1 22.25 1.55964 22.25 2.25V4.75C22.25 5.44036 22.8096 6 23.5 6H58.5C59.1904 6 59.75 5.44036 59.75 4.75V2.25C59.75 1.55964 59.1904 1 58.5 1Z" fill="white" stroke="#FF6600"/>
<path d="M79.75 76H2.25C1.55964 76 1 76.5596 1 77.25V79.75C1 80.4404 1.55964 81 2.25 81H79.75C80.4404 81 81 80.4404 81 79.75V77.25C81 76.5596 80.4404 76 79.75 76Z" fill="white" stroke="#FF6600"/>
<path d="M42.25 58.5H49.75V73.5H42.25V58.5Z" fill="white" stroke="#FF6600"/>
<path d="M42.25 25.4819C42.5049 25.4073 42.7203 25.2353 42.8494 25.0032C42.944 24.7627 42.7511 24.5332 42.6278 24.4179C42.5108 24.3154 42.3843 24.2242 42.25 24.1455V25.4819Z" fill="white" stroke="#FF6600"/>
<path d="M39.1506 19.4967C39.056 19.7372 39.2489 19.9667 39.3722 20.0821C39.4892 20.1846 39.6157 20.2758 39.75 20.3544V19.0181C39.495 19.0926 39.2797 19.2646 39.1506 19.4967Z" fill="white" stroke="#FF6600"/>
<path d="M56 73.5V8.5H26V73.5H29.75V57.25C29.751 56.9188 29.883 56.6014 30.1172 56.3672C30.3514 56.133 30.6688 56.001 31 56H51C51.3312 56.001 51.6486 56.133 51.8828 56.3672C52.117 56.6014 52.249 56.9188 52.25 57.25V73.5H56ZM52.25 48.5H48.5V46H52.25V48.5ZM52.25 43.5H48.5V41H52.25V43.5ZM52.25 38.5H48.5V36H52.25V38.5ZM33.5 53.5H29.75V51H33.5V53.5ZM33.5 48.5H29.75V46H33.5V48.5ZM33.5 43.5H29.75V41H33.5V43.5ZM33.5 38.5H29.75V36H33.5V38.5ZM39.75 53.5H36V51H39.75V53.5ZM39.75 48.5H36V46H39.75V48.5ZM39.75 43.5H36V41H39.75V43.5ZM39.75 38.5H36V36H39.75V38.5ZM29.75 22.25C29.75 20.025 30.4098 17.8499 31.646 15.9998C32.8821 14.1498 34.6391 12.7078 36.6948 11.8564C38.7505 11.0049 41.0125 10.7821 43.1948 11.2162C45.3771 11.6502 47.3816 12.7217 48.955 14.295C50.5283 15.8684 51.5998 17.8729 52.0338 20.0552C52.4679 22.2375 52.2451 24.4995 51.3936 26.5552C50.5422 28.6109 49.1002 30.3679 47.2502 31.604C45.4001 32.8402 43.225 33.5 41 33.5C38.0174 33.4965 35.1579 32.3102 33.0489 30.2011C30.9398 28.0921 29.7535 25.2326 29.75 22.25ZM46 53.5H42.25V51H46V53.5ZM46 48.5H42.25V46H46V48.5ZM46 43.5H42.25V41H46V43.5ZM46 38.5H42.25V36H46V38.5ZM48.5 53.5V51H52.25V53.5H48.5Z" fill="white" stroke="#FF6600"/>
<path d="M32.25 58.5H39.75V73.5H32.25V58.5Z" fill="white" stroke="#FF6600"/>
<path d="M41 13.5C39.2694 13.5 37.5777 14.0132 36.1388 14.9746C34.6998 15.9361 33.5783 17.3027 32.9161 18.9015C32.2538 20.5004 32.0805 22.2597 32.4181 23.957C32.7558 25.6544 33.5891 27.2135 34.8128 28.4372C36.0365 29.6609 37.5956 30.4942 39.293 30.8319C40.9903 31.1695 42.7496 30.9962 44.3485 30.3339C45.9473 29.6717 47.3139 28.5502 48.2754 27.1112C49.2368 25.6723 49.75 23.9806 49.75 22.25C49.7474 19.9302 48.8247 17.7061 47.1843 16.0657C45.5439 14.4253 43.3198 13.5026 41 13.5ZM44.3331 22.59C44.7975 22.9921 45.1272 23.5271 45.2778 24.1226C45.4285 24.7181 45.3927 25.3455 45.1754 25.9201C44.9119 26.4978 44.5046 26.9982 43.9924 27.3735C43.4802 27.7488 42.8803 27.9864 42.25 28.0636V28.5C42.25 28.8315 42.1183 29.1495 41.8839 29.3839C41.6495 29.6183 41.3315 29.75 41 29.75C40.6685 29.75 40.3505 29.6183 40.1161 29.3839C39.8817 29.1495 39.75 28.8315 39.75 28.5V28.0648C38.9056 27.9278 38.134 27.5044 37.565 26.8656C36.9959 26.2269 36.664 25.4117 36.625 24.5571C36.625 24.2276 36.7551 23.9114 36.987 23.6773C37.2188 23.4433 37.5338 23.3102 37.8632 23.307C38.1927 23.3039 38.5101 23.431 38.7464 23.6606C38.9827 23.8903 39.1188 24.2039 39.125 24.5334C39.1379 24.7268 39.2028 24.9132 39.3128 25.0729C39.4228 25.2325 39.5738 25.3595 39.75 25.4404V23.132C38.9899 22.8489 38.2849 22.4354 37.6669 21.91C37.2025 21.5079 36.8728 20.9729 36.7222 20.3774C36.5715 19.7819 36.6073 19.1545 36.8246 18.5799C37.0881 18.0022 37.4954 17.5018 38.0076 17.1265C38.5198 16.7512 39.1197 16.5136 39.75 16.4364V16C39.75 15.6685 39.8817 15.3505 40.1161 15.1161C40.3505 14.8817 40.6685 14.75 41 14.75C41.3315 14.75 41.6495 14.8817 41.8839 15.1161C42.1183 15.3505 42.25 15.6685 42.25 16V16.4352C43.0944 16.5722 43.866 16.9956 44.4351 17.6344C45.0041 18.2731 45.336 19.0883 45.375 19.9429C45.375 20.2744 45.2433 20.5923 45.0089 20.8268C44.7745 21.0612 44.4565 21.1929 44.125 21.1929C43.7935 21.1929 43.4755 21.0612 43.2411 20.8268C43.0067 20.5923 42.875 20.2744 42.875 19.9429C42.8597 19.753 42.7936 19.5707 42.6836 19.4151C42.5737 19.2596 42.4239 19.1364 42.25 19.0586V21.368C43.0102 21.6511 43.7151 22.0646 44.3331 22.59Z" fill="white" stroke="#FF6600"/>
<path d="M58.5 17.9375L77.6988 23.5771C77.792 23.6045 77.8903 23.6098 77.9859 23.5926C78.0815 23.5753 78.1718 23.5361 78.2495 23.4779C78.3273 23.4197 78.3904 23.3441 78.4339 23.2573C78.4774 23.1704 78.5 23.0746 78.5 22.9775V19.75C78.499 19.4798 78.4109 19.2171 78.2488 19.0009C78.0866 18.7848 77.8591 18.6266 77.6 18.55L58.5 12.9375V17.9375Z" fill="white" stroke="#FF6600"/>
<path d="M58.5 59.75H69.75V73.5H58.5V59.75Z" fill="white" stroke="#FF6600"/>
<path d="M76 73.4998V25.6873L58.5 20.5498V57.2498H71C71.3312 57.2508 71.6486 57.3828 71.8828 57.617C72.117 57.8512 72.249 58.1686 72.25 58.4998V73.4998H76ZM68.5 27.2498H72.25V29.7498H68.5V27.2498ZM68.5 32.2498H72.25V34.7498H68.5V32.2498ZM68.5 37.2498H72.25V39.7498H68.5V37.2498ZM68.5 42.2498H72.25V44.7498H68.5V42.2498ZM68.5 47.2498H72.25V49.7498H68.5V47.2498ZM66 54.7498H62.25V52.2498H66V54.7498ZM66 49.7498H62.25V47.2498H66V49.7498ZM66 44.7498H62.25V42.2498H66V44.7498ZM66 39.7498H62.25V37.2498H66V39.7498ZM66 34.7498H62.25V32.2498H66V34.7498ZM66 29.7498H62.25V27.2498H66V29.7498ZM68.5 54.7498V52.2498H72.25V54.7498H68.5Z" fill="white" stroke="#FF6600"/>
<path d="M4.30116 23.5771L23.5 17.9375V12.9375L4.4 18.55C4.14088 18.6266 3.91337 18.7848 3.75124 19.0009C3.58911 19.2171 3.50101 19.4798 3.5 19.75V22.9775C3.5 23.0746 3.52264 23.1704 3.56613 23.2573C3.60961 23.3441 3.67273 23.4196 3.75049 23.4778C3.82825 23.536 3.91851 23.5753 4.0141 23.5926C4.10968 23.6098 4.20797 23.6045 4.30116 23.5771Z" fill="white" stroke="#FF6600"/>
<path d="M12.25 59.75H23.5V73.5H12.25V59.75Z" fill="white" stroke="#FF6600"/>
<path d="M23.5 20.5498L6 25.6873V73.4998H9.75V58.4998C9.75099 58.1686 9.883 57.8512 10.1172 57.617C10.3514 57.3828 10.6688 57.2508 11 57.2498H23.5V20.5498ZM13.5 54.7498H9.75V52.2498H13.5V54.7498ZM13.5 49.7498H9.75V47.2498H13.5V49.7498ZM13.5 44.7498H9.75V42.2498H13.5V44.7498ZM13.5 39.7498H9.75V37.2498H13.5V39.7498ZM13.5 34.7498H9.75V32.2498H13.5V34.7498ZM13.5 29.7498H9.75V27.2498H13.5V29.7498ZM19.75 54.7498H16V52.2498H19.75V54.7498ZM19.75 49.7498H16V47.2498H19.75V49.7498ZM19.75 44.7498H16V42.2498H19.75V44.7498ZM19.75 39.7498H16V37.2498H19.75V39.7498ZM19.75 34.7498H16V32.2498H19.75V34.7498ZM19.75 29.7498H16V27.2498H19.75V29.7498Z" fill="white" stroke="#FF6600"/>
</svg>
