<svg width="107" height="94" viewBox="0 0 107 94" fill="none" xmlns="http://www.w3.org/2000/svg">
<path d="M81.057 16.296C80.9328 13.3353 81.9284 11.1868 83.7905 10.4095C84.8024 9.98717 86.9001 9.66234 89.6027 12.2363C90.7299 13.285 91.9821 14.2039 93.3335 14.9758C92.899 13.316 91.97 11.8109 90.6584 10.643C90.0981 10.1078 89.9543 9.29496 90.2987 8.61435C90.6422 7.93451 91.4007 7.53542 92.1884 7.61895C94.1943 7.81231 96.2188 7.69784 98.1865 7.28097C97.199 6.28093 96.0743 5.41315 94.8415 4.70006L94.213 4.28163C91.4112 2.42465 86.0465 -0.262224 81.6588 2.66286C76.943 5.80682 73.438 13.4745 79.0804 24.734C81.3177 29.1998 83.6939 33.3677 85.7915 37.0446C89.8138 44.0998 93.288 50.1928 94.2503 55.5975C95.0251 59.3315 95.1249 63.1639 94.5459 66.9297C94.1326 70.2082 92.3508 73.1897 89.6019 75.2022C89.0578 75.5843 88.3399 75.6562 87.7243 75.3909C87.1079 75.1256 86.6913 74.5633 86.6337 73.9222C86.576 73.281 86.8871 72.6599 87.4466 72.2988C89.3006 70.8741 90.5025 68.8207 90.7997 66.57C89.4281 59.2882 84.7082 52.974 77.9329 49.3567C75.3431 47.9537 72.5309 46.9637 69.6057 46.4254C69.5188 46.4115 69.4327 46.3922 69.3491 46.3682C61.8405 44.9505 53.527 45.8454 46.8378 46.5639C43.116 47.1277 39.343 47.3172 35.5806 47.13C34.736 47.0411 33.7915 46.9127 32.8105 46.7665C25.6706 45.7402 13.9813 43.4045 8.42173 41.2041C8.78636 42.0626 9.26062 42.8747 9.83396 43.6226C11.6766 46.0882 16.1894 50.4395 25.7185 51.8812C28.4528 52.281 31.2221 52.4288 33.9864 52.322C34.4843 52.2957 34.9715 52.4636 35.3361 52.7868C35.7008 53.1101 35.9111 53.5618 35.9176 54.0359C35.9363 54.5077 35.756 54.9664 35.419 55.3113C35.0811 55.6562 34.6134 55.8597 34.118 55.8759C31.1677 55.9857 28.2125 55.8295 25.293 55.4095L25.2865 55.4103C21.2252 55.1798 17.1867 54.6755 13.2009 53.9021C13.0003 53.8488 12.7957 53.8147 12.5878 53.7993C12.9386 55.0514 15.7882 58.1034 22.3776 59.1745C28.3741 60.279 34.5151 60.487 40.579 59.7917L40.5855 59.8142C41.5308 59.6587 42.4436 60.2225 42.6791 61.1089C42.9154 61.9952 42.3957 62.9048 41.4861 63.1979L41.4983 63.2427C41.4983 63.2427 41.3927 63.266 41.2474 63.2915C35.0974 64.6658 28.776 65.2142 22.4669 64.9218C21.4916 64.8074 20.5024 64.8515 19.5425 65.0533C19.9665 65.4099 20.4399 65.7076 20.9507 65.9389C23.0467 66.8515 25.2905 67.4154 27.5863 67.6079C31.2692 67.9908 34.9943 67.7456 38.587 66.8856C38.6308 66.8747 38.6747 66.8647 38.7177 66.8577C41.4918 66.2297 44.1644 65.2475 46.6632 63.9381C46.9661 63.764 47.3121 63.6705 47.6662 63.6658C48.531 63.6658 49.2839 64.232 49.4836 65.034C49.6834 65.836 49.2782 66.6636 48.5051 67.0333C45.6855 68.5105 42.6694 69.6188 39.5395 70.3281L39.5306 70.3319C36.0865 71.5524 32.5434 72.5006 28.936 73.1665C32.0139 74.462 39.0352 75.445 47.4696 71.216C50.044 69.9104 52.4502 68.3226 54.638 66.4849C54.7054 66.4308 54.776 66.3798 54.85 66.3341C55.6287 65.7595 56.7421 65.8608 57.3934 66.5638C58.0447 67.2676 58.0106 68.3326 57.3147 68.9962C57.2221 69.0805 57.1222 69.1579 57.0174 69.2275C54.664 71.192 52.0823 72.8943 49.3237 74.3019C46.7664 75.9408 43.423 78.019 40.5067 79.6246C47.0514 79.1335 53.2542 76.6369 58.1844 72.5084C59.8728 70.8687 61.1607 69.5028 61.7357 68.8926L61.9907 68.6219L61.9931 68.6204C62.0443 68.5616 62.1052 68.4943 62.1442 68.4564C62.858 67.7827 64.0039 67.768 64.7372 68.4231C65.4697 69.079 65.5265 70.1687 64.8647 70.8904C64.833 70.9275 64.7989 70.9615 64.764 70.9994L64.7518 71.0187L64.5147 71.2686C63.9332 71.8865 62.5673 73.3351 60.7799 75.0684C58.0374 77.7522 55.0619 80.2093 51.8842 82.4136C56.8225 81.8451 65.6419 79.2124 68.8732 73.0946C69.1729 72.5269 69.7681 72.1541 70.434 72.1178C71.1 72.0814 71.7366 72.3854 72.1029 72.9167C72.4691 73.4481 72.5106 74.1248 72.2109 74.6925C67.7298 83.1762 55.5695 86.0672 49.9953 86.0672C49.5161 86.0703 49.037 86.0433 48.5611 85.9868C46.3952 85.7053 45.7439 84.6998 45.5799 83.9063C45.48 83.3896 45.5791 82.856 45.8593 82.4035C43.8501 82.8823 41.7907 83.1429 39.7206 83.18C38.4651 83.2288 37.2113 83.047 36.0272 82.6448C35.0186 82.3208 34.3178 81.446 34.2552 80.4344C34.3218 79.275 35.0885 78.2588 36.2205 77.828C35.9347 77.8372 35.6439 77.8535 35.3654 77.8535C31.754 78.0221 28.1848 77.0561 25.2069 75.104C24.0326 74.4056 23.4674 73.0644 23.8101 71.7867C23.9482 71.3838 24.1918 71.0211 24.5191 70.7333C23.0402 70.4588 21.5931 70.045 20.1995 69.4974C17.4717 70.8122 14.4572 71.4952 11.4005 71.4913C9.01537 71.3969 6.65217 71.0257 4.36126 70.3869C3.25843 70.0914 2.13531 69.8687 1 69.7217C1.01624 69.8122 1.03979 69.9174 1.07309 70.0419C2.28392 74.5053 13.4827 88.4741 36.9936 91.5152C50.6701 93.1703 64.5325 92.7968 78.0888 90.4092C79.6204 90.1262 81.1602 89.857 82.6975 89.5894C88.3237 88.5979 101.736 85.0076 104.747 73.1031C108.588 57.9332 101.108 47.9638 92.4434 36.4212C83.6208 24.6799 81.2284 20.8777 81.057 16.296Z" fill="white" stroke="#FF6600"/>
<path d="M104.268 18.7538C103.615 18.0623 103.029 17.3175 102.517 16.5271C101.884 15.4381 101.344 14.3027 100.901 13.1318C100.742 12.7404 100.581 12.3522 100.415 11.9716C100.27 11.6383 100.094 11.2972 99.9196 10.9538C99.8514 10.8216 99.7872 10.6831 99.7198 10.5493C98.4424 10.9213 97.1227 11.1479 95.7885 11.2245C96.8214 12.9601 97.3257 14.9346 97.2453 16.9277C97.6506 17.1041 98.0225 17.2626 98.3514 17.4011L98.7745 17.5797C99.5964 17.9309 100.726 18.5473 101.921 19.2001C103.027 19.8064 104.881 20.8188 106 21.272C105.907 20.9604 105.768 20.6626 105.586 20.388C105.192 19.8118 104.751 19.265 104.268 18.7538Z" fill="white" stroke="#FF6600"/>
<path d="M16.5174 29.6506L16.3696 29.5825C19.2355 36.5271 26.6304 40.4081 33.6185 43.2837C34.4623 43.4082 35.2703 43.5196 36.0142 43.5969C39.4932 43.7362 42.9779 43.5459 46.4179 43.0292C48.0145 42.8568 49.7085 42.6781 51.4561 42.5188C37.5961 40.784 33.6193 40.1854 22.3491 32.9887C20.4926 31.7435 18.5436 30.6274 16.5174 29.6506Z" fill="white" stroke="#FF6600"/>
</svg>
