<svg width="82" height="82" viewBox="0 0 82 82" fill="none" xmlns="http://www.w3.org/2000/svg">
<path d="M39.7562 31.7575H32.2375C31.1482 31.7575 30.2651 32.6406 30.2651 33.7299V37.1519L29.757 37.6877L27.1324 22.56C26.2496 17.4722 21.8347 13.7573 16.6709 13.7573H1V22.5931H3.0803C3.8231 22.5931 4.46108 22.1485 4.74586 21.5116C4.56387 22.1946 4.50919 22.9296 4.61604 23.6911C4.97283 26.2351 7.11234 28.2029 9.67659 28.3554C12.8362 28.5433 15.4573 26.0365 15.4573 22.9176C15.4573 21.3331 14.7804 19.9073 13.7005 18.9118H16.0559C19.0929 18.9118 21.688 21.1003 22.2004 24.0938L24.8379 39.5003H22.2321L22.2292 36.4968C22.2246 33.0679 19.7041 30.2704 16.6108 30.2607L10.226 30.2402H10.2055L3.8206 30.2201C2.79537 30.2168 1.832 30.5217 1 31.0536V52.846H10.5823C11.5696 52.846 12.4166 53.6184 12.4346 54.6056C12.4528 55.6111 11.6432 56.432 10.6417 56.432H1V60.5778H7.23184C8.21912 60.5778 9.06611 61.3503 9.08407 62.3374C9.10235 63.3429 8.29269 64.1638 7.29121 64.1638H1V73.1441H9.07704C10.062 73.1441 10.8605 72.3455 10.8605 71.3606V68.8095H16.6045V74.3898C16.6045 77.9544 19.5217 80.9395 23.0857 80.8712C26.5394 80.8051 29.3188 77.9849 29.3188 74.5152V68.8095H31.3318C33.2566 68.8095 34.817 67.2491 34.817 65.3242V48.8124C34.817 45.9682 33.5405 43.4235 31.5308 41.7154L33.423 39.7204H39.7562C40.8455 39.7204 41.7286 38.8373 41.7286 37.748V33.7298C41.7286 32.6406 40.8455 31.7575 39.7562 31.7575ZM13.549 39.3545C13.549 37.403 11.9611 35.8152 10.0095 35.8152C8.0579 35.8152 6.47014 37.403 6.47014 39.3545H3.3404C3.3404 35.6771 6.33205 32.6853 10.0095 32.6853C13.6869 32.6853 16.6787 35.6771 16.6787 39.3545H13.549ZM23.1305 60.0302C20.0505 60.0302 17.5537 57.5319 17.5537 54.45C17.5537 51.368 20.0506 48.8695 23.1305 48.8695C26.2104 48.8695 28.7074 51.368 28.7074 54.45C28.7074 57.5319 26.2106 60.0302 23.1305 60.0302Z" fill="white" stroke="#FF6600"/>
<path d="M73.9382 41.6695L70.9116 41.1357C70.4526 41.454 69.9084 41.6612 69.3127 41.7081C59.8268 42.4501 60.2868 42.4265 60.0428 42.4265C59.4611 42.4265 58.8964 42.2674 58.4187 41.9937C58.4154 45.7676 58.4201 75.8752 58.4187 77.3636C58.4187 79.3015 59.9741 80.8725 61.9121 80.8725C63.8501 80.8725 65.4211 79.3015 65.4211 77.3636V49.3167H66.9361V77.3636C66.9361 79.3015 68.5071 80.8725 70.4451 80.8725C72.3831 80.8725 73.9385 79.3015 73.9385 77.3636C73.9324 63.1708 73.9849 55.8386 73.9382 41.6695Z" fill="white" stroke="#FF6600"/>
<path d="M74.0218 21.2939H71.4572C70.754 21.9183 69.9398 22.4195 69.0483 22.7652C70.2835 23.1588 71.2192 24.2723 71.3252 25.6219L71.7979 31.6355L73.9225 32.0121V27.1421H74.0217C74.6312 27.1421 75.1489 27.6305 75.1517 28.1938V34.089L69.5992 33.1045C68.0094 32.8221 66.4915 33.8831 66.2095 35.4733C65.9277 37.0634 66.9881 38.5811 68.5784 38.8629L77.5654 40.4561C79.357 40.7743 80.9999 39.3934 80.9999 37.5769C80.9999 35.2748 80.9999 29.7357 80.9999 28.1936V28.1788C80.9808 24.3826 77.8503 21.2939 74.0218 21.2939Z" fill="white" stroke="#FF6600"/>
<path d="M58.8 23.3297L63.7924 22.9373C62.7105 22.5968 61.7284 22.0302 60.8995 21.2944H59.4701C55.9206 21.2944 52.6789 23.2405 51.0099 26.373L46.6215 34.6092C46.0677 35.6485 46.1916 36.9185 46.9355 37.8314C47.6821 38.7476 48.9027 39.1206 50.0281 38.7892L56.5861 36.8585L56.1178 30.9L55.0582 31.212L56.003 29.4388L55.7989 26.8427C55.6574 25.0426 56.9996 23.4711 58.8 23.3297Z" fill="white" stroke="#FF6600"/>
<path d="M60.1512 40.5203L66.5698 40.0159C64.9742 39.0182 64.0591 37.1206 64.4078 35.1539C64.8628 32.5868 67.2993 30.8707 69.8637 31.2942L69.4296 25.7711C69.3704 25.0183 68.7121 24.4579 67.9615 24.517L58.9492 25.2254C58.1975 25.2844 57.6359 25.9418 57.6949 26.6935L58.6831 39.2664C58.7422 40.0189 59.4005 40.5794 60.1512 40.5203Z" fill="white" stroke="#FF6600"/>
<path d="M60.142 15.8627C60.4069 18.9651 63.0074 21.4011 66.1784 21.4011C69.3711 21.4011 71.9853 18.9317 72.2197 15.7988C70.705 16.9011 68.5 17.6228 66.1357 17.6228C63.818 17.6229 61.6529 16.9295 60.142 15.8627Z" fill="white" stroke="#FF6600"/>
<path d="M59.9183 11.2754V12.4663C59.9207 13.8795 62.701 15.7211 66.1357 15.7211C69.5703 15.7211 72.3531 13.8795 72.3555 12.4663V11.2748C73.1083 11.0339 73.7662 10.6954 74.2572 10.2204C74.8316 9.66471 75.1776 8.92223 75.1776 7.92902C75.1776 6.3336 74.143 4.5851 72.4098 3.25213C70.629 1.88229 68.4008 1.12793 66.1358 1.12793C63.8718 1.12793 61.6439 1.88229 59.8627 3.25213C58.1291 4.58541 57.094 6.33376 57.094 7.92902C57.094 8.92332 57.4409 9.66643 58.0166 10.2224C58.5079 10.6967 59.1655 11.0349 59.9183 11.2754ZM66.1358 7.67142C66.7169 7.67142 67.3668 8.61089 67.3668 9.8681C67.3668 11.1252 66.7169 12.0645 66.1358 12.0645C65.5547 12.0645 64.9047 11.1252 64.9047 9.8681C64.9045 8.61074 65.5545 7.67142 66.1358 7.67142Z" fill="white" stroke="#FF6600"/>
</svg>
