<svg width="71" height="98" viewBox="0 0 71 98" fill="none" xmlns="http://www.w3.org/2000/svg">
<path fill-rule="evenodd" clip-rule="evenodd" d="M38.5668 2.603C39.1011 1.50442 39.6336 0.968101 40.212 0.838476C40.6799 0.733156 41.1239 0.922732 41.4982 1.14958C42.2043 1.57734 42.6892 2.20116 42.6892 2.20116C42.9188 2.49768 43.3289 2.60786 43.6879 2.47175C44.5759 2.13311 45.248 2.11366 45.7567 2.30324C46.9017 2.72938 47.1552 4.07748 47.1552 4.07748C47.1722 4.15688 47.2011 4.23465 47.2419 4.30594C49.2818 7.88359 51.2434 8.87198 52.6113 9.05022C53.2833 9.13772 53.8516 9.04212 54.2888 8.89791C54.4811 9.60437 54.5032 10.4404 54.6376 11.2198C54.8894 12.6846 55.4508 13.9679 57.0637 14.5204C57.5894 14.7002 57.9093 14.9498 58.0777 15.2398C58.4673 15.9074 58.1117 16.6819 58.1117 16.6819C57.9654 17.0173 58.0709 17.4062 58.372 17.6298L62.6934 20.8623C62.7002 20.8688 62.707 20.8736 62.7155 20.8785C63.6444 21.5282 64.2127 21.9917 64.6516 22.2914C65.0497 22.562 65.3764 22.7192 65.7132 22.8002C66.0705 22.8861 66.4465 22.8893 66.9416 22.7905C67.4724 22.6835 68.1972 22.4389 69.3524 22.0727C69.5685 22.003 69.7573 21.9625 69.9223 21.9528C70.0363 21.9447 70.1282 21.9414 70.1945 21.9836C70.3187 22.0629 70.3017 22.2315 70.3034 22.4113C70.3204 23.6492 69.2639 25.605 68.1121 26.3033C67.5915 26.6193 67.27 26.7311 67.0369 26.6176C66.7919 26.4977 66.7408 26.198 66.7289 26.1429C66.7272 26.1348 66.7255 26.1316 66.7255 26.1316C66.6677 25.8707 66.4771 25.6552 66.2185 25.5531L52.0193 19.9663C51.9274 19.9306 51.8304 19.9112 51.7317 19.9063L39.9653 19.4235C37.5716 18.367 36.0761 18.1855 35.1829 18.3654C33.9733 18.6101 33.5054 19.3927 33.3931 20.2563C33.2621 21.2593 33.7198 22.387 33.7198 22.387C33.7623 22.4875 33.8235 22.5782 33.9018 22.6544C41.5765 30.1483 41.6871 33.3565 41.6871 33.3565C41.6871 33.6255 41.8283 33.8783 42.0614 34.029C46.0306 36.5777 46.4083 39.9577 46.0459 41.2442C45.8979 41.7724 45.9336 42.487 46.0918 43.2307C46.3742 44.5723 47.0225 46.0176 47.1535 46.3012C48.8888 51.5705 46.9476 53.1 46.216 55.187C45.9625 55.9129 45.0744 56.4913 44.1574 56.9839C42.5684 57.8362 40.7803 58.3353 40.7803 58.3353C40.5523 58.3985 40.3635 58.5491 40.258 58.7501C39.5468 60.1046 39.8769 61.4301 40.5761 62.5303C40.9436 63.1071 41.4149 63.6159 41.8487 64.0193L39.4328 64.7809C39.0875 64.2575 38.5464 63.4571 38.082 62.8414C37.6771 62.305 37.2926 61.9016 37.0952 61.7833C36.8009 61.6067 36.5389 61.6148 36.3602 61.6537C36.1033 61.712 35.8805 61.8546 35.746 62.1446C31.3668 71.6186 27.9318 73.5435 27.9318 73.5435C27.8366 73.5954 27.7532 73.6634 27.6835 73.7461C22.0946 80.4558 12.7628 79.6391 12.7628 79.6391C12.6743 79.631 12.5842 79.6359 12.4974 79.6553C9.47924 80.3067 7.83236 81.7002 6.92215 83.105C5.67337 85.0332 5.81288 87.0326 5.85882 87.4458C5.79927 90.0658 6.62272 91.5355 7.69625 92.3456C8.74087 93.1347 10.0764 93.3259 11.315 93.2352C13.0197 93.1104 14.5016 92.4655 14.5016 92.4655C14.6122 92.4169 14.7108 92.3472 14.7908 92.2597C16.2403 90.6735 16.4938 89.4922 16.2948 88.7064C16.0277 87.6564 14.9337 87.0456 13.7496 86.8738C13.4944 86.8366 13.2392 86.8187 12.9959 86.8171C13.2732 86.3164 13.6271 85.9924 14.0354 85.8044C14.6632 85.516 15.376 85.55 16.0021 85.6683C17.0519 85.866 17.8923 86.3294 17.8923 86.3294C19.5817 87.2983 19.9441 88.9284 19.9152 90.2975C19.888 91.576 19.5188 92.6567 19.4235 92.9192C14.6292 100.54 5.835 95.8844 4.82101 95.314C1.81136 92.1722 0.765043 89.3189 0.749731 86.9078C0.724211 83.3415 2.93424 80.796 4.00777 79.887C4.03159 79.8676 4.05711 79.8465 4.08263 79.8271C4.11836 79.8238 4.15409 79.8174 4.18982 79.8093C7.23519 79.1223 8.57754 77.2411 9.10836 76.1765C10.4575 76.4374 11.3048 76.2057 11.8356 75.8784C12.3222 75.5802 12.5944 75.1736 12.7458 74.8025C13.7496 74.8706 14.442 74.5724 14.9252 74.1933C15.3097 73.8935 15.5632 73.5225 15.7282 73.187C16.5193 73.3653 17.1931 73.3313 17.7579 73.1919C19.102 72.8581 19.8659 71.8876 20.1857 71.3804C23.7534 69.9254 24.3284 68.1122 24.4033 67.3507C25.7507 65.6737 26.4007 64.4779 26.6661 63.6353C26.9077 62.8673 26.86 62.3164 26.7205 61.9243C26.3275 60.8273 25.1468 60.6912 24.9103 60.6799C24.8746 60.6782 24.8524 60.6782 24.849 60.6782C24.7844 60.6782 24.718 60.6847 24.6534 60.6993C22.4229 61.1886 20.5923 62.9467 19.6243 64.0598C18.9744 63.2594 18.3993 62.8268 17.9536 62.5934C18.0386 61.5856 17.8004 60.8775 17.4857 60.3785C17.2441 59.9928 16.9464 59.719 16.6674 59.5294C17.3836 57.4652 16.0191 55.6909 15.4917 55.1076C14.2362 49.3004 16.8273 45.4133 18.0744 43.9404C18.6528 44.4897 19.3776 44.9029 20.1108 45.2026C21.5978 45.8135 23.0831 45.9545 23.0831 45.9545C23.4114 45.9869 23.7296 45.8346 23.8997 45.5656C25.9413 42.3233 23.4761 40.029 22.0776 39.0649C22.7734 37.8837 22.6424 36.5647 22.1388 35.3495C21.5757 33.9868 20.5362 32.7765 19.9509 32.1624C20.4511 30.9099 20.1976 29.6298 19.6396 28.5134C19.119 27.4683 18.333 26.5804 17.7919 26.0392C18.2955 25.3198 18.4623 24.4837 18.4452 23.6849C18.4316 23.0578 18.3006 22.4583 18.1594 21.9852C19.1836 21.6352 19.7995 20.7294 20.1245 19.6244C20.4749 18.4335 20.463 17.0189 20.4137 16.2088C21.3834 15.7891 22.2188 14.9725 22.8721 14.057C23.556 13.0994 24.0426 12.0527 24.3114 11.4013C26.1727 11.492 27.316 10.3805 27.988 9.14906C28.3572 8.47663 28.5715 7.77179 28.6906 7.27112C30.3086 7.1658 31.4315 6.70239 32.2107 6.17903C32.9389 5.68807 33.3846 5.13392 33.6483 4.69806C34.9464 4.96541 35.9349 4.76287 36.6682 4.42261C37.9612 3.82309 38.5022 2.74234 38.5668 2.603ZM22.8789 56.8122L20.6808 57.4619C20.2316 57.5948 19.9815 58.0485 20.1211 58.4762C20.2589 58.9024 20.7369 59.1422 21.1844 59.0093L23.3842 58.3596C23.8316 58.2267 24.0834 57.773 23.9439 57.3453C23.8044 56.9191 23.3281 56.6793 22.8789 56.8122ZM22.0044 52.6399L19.7246 53.0255C19.2636 53.1033 18.9539 53.5246 19.0373 53.9637C19.119 54.4044 19.5613 54.6993 20.0224 54.6199L22.3022 54.2343C22.7632 54.1565 23.0729 53.7352 22.9895 53.2945C22.9078 52.8554 22.4655 52.5605 22.0044 52.6399ZM22.1371 48.359L19.4643 48.2861C18.9948 48.2731 18.6035 48.6247 18.5899 49.0719C18.5762 49.5191 18.9454 49.8918 19.415 49.9048L22.0878 49.9793C22.5574 49.9923 22.9487 49.639 22.9623 49.1918C22.9759 48.7463 22.6067 48.372 22.1371 48.359ZM26.7937 36.299C26.9587 36.3006 27.1101 36.3492 27.2105 36.44C27.2105 36.44 27.5627 36.7495 28.039 36.9536C28.2976 37.0638 28.6209 37.1967 28.8829 36.986L28.8897 36.9795C29.247 36.6928 29.7812 36.7333 30.0857 37.0719C30.3903 37.4105 30.3494 37.9226 29.9939 38.2142C29.3116 38.77 28.5069 38.7992 27.7787 38.5885C27.0012 38.3633 26.3411 37.8529 26.2169 37.7524L26.1863 37.7265C25.8358 37.43 25.8052 36.9164 26.1182 36.5826C26.2986 36.3898 26.5538 36.299 26.7852 36.299H26.7937ZM25.271 31.7492C25.7524 32.7295 26.4092 33.1621 27.0812 33.2301C27.709 33.295 28.4661 33.026 29.2623 32.2774C29.5974 31.9647 29.6009 31.451 29.2708 31.1318C28.9424 30.8143 28.4031 30.8094 28.068 31.1237C27.8978 31.2841 27.7362 31.4121 27.5797 31.5045C27.4623 31.5726 27.3619 31.6293 27.2615 31.6196C27.1935 31.6131 27.1458 31.558 27.0897 31.4964C26.9893 31.3862 26.8991 31.2404 26.8124 31.0622C26.6133 30.6571 26.1063 30.4821 25.681 30.6717C25.2557 30.8612 25.0719 31.3441 25.271 31.7492ZM24.6823 24.1029C24.9188 24.1045 25.1332 24.1937 25.2301 24.3346C25.2301 24.3346 25.5568 24.7964 26.0298 25.0865C26.1642 25.1691 26.3105 25.2598 26.4704 25.2258C26.5708 25.2031 26.6576 25.127 26.7545 25.0152L26.7664 24.999C27.0608 24.6538 27.5933 24.5987 27.9591 24.8774C28.3249 25.1561 28.3844 25.6665 28.0918 26.0165C27.6954 26.488 27.2649 26.7132 26.8532 26.804C26.2407 26.9385 25.6265 26.7651 25.111 26.4491C24.5054 26.0797 24.0545 25.5256 23.9695 25.4186L23.949 25.3911C23.6768 25.0281 23.7653 24.521 24.1464 24.2617C24.308 24.1515 24.4969 24.1029 24.6721 24.1029H24.6823ZM26.0383 15.4132C26.0944 15.4132 26.1506 15.4197 26.2084 15.431C26.6661 15.5217 26.9604 15.9479 26.8685 16.3838L26.8668 16.3951C26.8532 16.455 26.8141 16.6624 26.8362 16.8958C26.8481 17.0351 26.8617 17.2069 27.0046 17.3025C27.1816 17.4224 27.464 17.4191 27.8893 17.343C28.3521 17.2603 28.7961 17.5504 28.8829 17.9911C28.9697 18.4302 28.6651 18.8531 28.2041 18.9357C27.1424 19.1253 26.4602 18.9228 26.0179 18.623C25.5381 18.2973 25.288 17.8226 25.1859 17.3414C25.0634 16.758 25.174 16.1812 25.2012 16.0581C25.2863 15.6757 25.6385 15.4132 26.0315 15.4132H26.0383ZM35.0791 7.8123C35.0791 7.8123 32.2498 11.8906 35.4636 15.2917C35.7784 15.6238 36.316 15.6514 36.6665 15.3516C37.0152 15.0519 37.0425 14.5398 36.7294 14.2077C34.368 11.7092 36.4946 8.71157 36.4946 8.71157C36.7549 8.3389 36.6495 7.83661 36.2599 7.5887C35.8685 7.33917 35.3394 7.43963 35.0791 7.8123Z" fill="white" stroke="#FF6600"/>
</svg>
