<svg width="95" height="92" viewBox="0 0 95 92" fill="none" xmlns="http://www.w3.org/2000/svg">
<path d="M92.5 44.0286C92.5 44.0286 90.2285 40.7838 86.3537 39.702C84.9992 39.3239 83.6292 39.2663 82.4083 39.3389L84.2159 38.5568L85.4184 37.9841C85.4184 37.9841 89.8277 34.8028 87.3558 26.4677C84.8839 18.1327 87.0572 13.3347 87.0572 13.3347C87.2347 -0.0168717 79.604 1.33523 79.604 1.33523C55.6471 16.0389 53.8725 47.0291 53.8725 47.0291C53.7967 47.7611 53.9422 48.3905 54.1672 48.9304C53.3897 48.2987 52.6111 47.6689 51.8234 47.067C51.6268 46.924 51.4265 46.7944 51.2254 46.6749C50.4481 44.4562 49.0583 39.0977 51.6959 34.4212C51.8816 34.0923 51.752 33.6824 51.4066 33.5064C51.0622 33.3268 50.6308 33.4539 50.446 33.7819C47.9227 38.254 48.6872 43.1364 49.4984 45.9449C48.6672 45.734 47.9601 45.7727 47.6101 46.1049C47.2614 46.4381 47.2208 47.1114 47.4419 47.9028C44.4929 47.1301 39.3669 46.4021 34.6705 48.8053C34.3252 48.9812 34.1955 49.3912 34.3813 49.7201C34.509 49.9477 34.7537 50.0766 35.0071 50.0766C35.1203 50.0766 35.2354 50.0508 35.3419 49.9956C40.2522 47.485 45.8774 48.8064 48.2077 49.547C48.3334 49.7389 48.4698 49.93 48.6202 50.1176C49.2521 50.8677 49.9134 51.6091 50.5766 52.3496C50.0097 52.1354 49.349 51.9969 48.5805 52.069C48.5805 52.069 16.0408 53.7591 0.601909 76.5752C0.601909 76.5752 -0.817675 83.8426 13.2015 83.6736C13.2015 83.6736 18.2392 81.6037 26.9911 83.9579C35.7429 86.3122 39.0833 82.1127 39.0833 82.1127L39.6845 80.9675L40.5059 79.2457C40.4296 80.4085 40.4901 81.7134 40.8871 83.0035C42.0229 86.6939 45.4301 88.8572 45.4301 88.8572C45.4301 88.8572 48.57 90.6388 55.7852 90.7023C63.0006 90.766 68.5455 87.0757 72.1533 82.6854C75.7609 78.2952 73.6898 76.1319 73.6898 76.1319L67.566 67.991C68.9034 69.0275 70.2465 70.0454 71.5949 71.0191C73.2962 72.179 74.9537 72.7929 75.2941 72.4708C75.6331 72.1473 74.9886 70.5686 73.7699 68.9477C72.7475 67.6634 71.6787 66.3843 70.5903 65.1103L79.1384 70.9427C79.1384 70.9427 81.4099 72.9151 86.0196 69.4793C90.6294 66.0434 94.5042 60.7624 94.4375 53.8908C94.3706 47.0191 92.5 44.0286 92.5 44.0286ZM11.0201 73.9026C10.8703 74.6892 10.5189 74.3765 9.86525 74.2636C9.21168 74.1508 8.80322 73.4216 8.95292 72.6349C9.10262 71.8481 9.75388 71.3018 10.4076 71.4146C11.0611 71.5275 11.1698 73.1158 11.0201 73.9026ZM82.7974 44.5843C84.5344 43.6616 87.0062 45.4751 87.0062 45.4751C87.3841 45.8856 88.7462 47.8569 87.2403 47.4157C86.5097 47.2017 85.6646 47.3054 84.9219 47.3941C83.8598 47.5211 82.809 47.7336 81.7665 47.9622C79.7222 48.4104 77.7222 49.0615 75.6426 49.3562C73.837 49.6122 72.8004 48.4064 72.464 47.925C72.3823 47.808 72.3419 47.7338 72.3419 47.7338L82.7974 44.5843ZM71.6559 49.6914C74.4618 50.5185 76.0652 50.0095 76.0652 50.0095C76.0652 50.0095 78.7375 51.8547 78.938 52.3002C79.1384 52.7455 79.1384 53.3182 73.8606 53.8908C68.5828 54.4635 61.347 53.3405 58.8956 51.6639L67.3134 48.3552C67.3134 48.3552 68.85 48.8642 71.6559 49.6914ZM69.7424 46.4374C72.858 44.7904 75.6471 42.4364 79.1037 41.6118C79.5668 41.5012 80.0456 41.4194 80.5206 41.467C80.9954 41.5146 81.4703 41.7052 81.7698 42.0594C82.7394 43.2062 81.1513 44.0391 80.2033 44.3883C78.9723 44.8418 77.6991 45.1833 76.4183 45.4865C75.0031 45.8213 73.5756 46.1102 72.138 46.3435C71.3456 46.4721 70.5314 46.5837 69.7424 46.4374ZM80.3287 31.2161C81.3896 30.7769 82.3341 31.9697 82.8627 32.6708C83.4825 33.4929 83.6463 34.494 82.7965 35.2342C81.8446 36.0632 80.734 36.7049 79.6179 37.3111C72.2179 41.3297 64.1128 44.0545 56.6569 47.9873C59.4884 44.8822 62.1424 41.6305 64.6037 38.2515C64.7989 37.9836 64.9975 37.7101 65.2707 37.5135C65.472 37.3687 65.7059 37.2715 65.9373 37.1755C70.7344 35.1891 75.5315 33.2026 80.3287 31.2161ZM79.9295 26.961C80.091 27.393 80.2875 27.9235 80.1977 28.4006C80.0871 28.989 79.433 29.1683 78.9428 29.3959C78.2998 29.6946 77.6558 29.9911 77.0107 30.2858C76.0929 30.7049 75.173 31.1199 74.2511 31.5308C73.8528 31.7083 73.4548 31.8868 73.0543 32.0598C72.6926 32.2159 71.973 32.3622 71.6973 32.6247C70.1616 33.24 68.4099 34.0539 66.7123 34.1029C66.7981 34.1029 67.5145 32.6655 67.6032 32.5324C68.8285 30.6974 70.6309 29.3364 72.6043 28.2839C74.4942 27.2757 76.3499 26.3732 78.5098 26.0613C79.2055 25.9608 79.7046 26.3596 79.9295 26.961ZM73.409 10.3483C74.235 10.2057 75.0008 10.5947 75.1192 11.2172C75.2377 11.8397 75.5661 12.1745 74.7401 12.3171C73.914 12.4596 72.2462 12.3562 72.1279 11.7337C72.0094 11.1112 72.5829 10.491 73.409 10.3483ZM74.8293 17.2834C74.4398 17.9916 73.3293 19.1811 72.7408 18.8877C72.1524 18.5941 71.991 17.782 72.3805 17.0738C72.7699 16.3654 73.5627 16.0292 74.1512 16.3226C74.7397 16.6161 75.2188 16.575 74.8293 17.2834ZM74.8403 21.2396C75.3343 21.0191 75.8695 20.7245 76.4181 20.9585C77.4308 21.3906 77.2792 22.4655 76.5378 23.0272C74.3577 24.679 72.0242 26.5041 69.179 26.9755C69.2298 26.9671 69.5557 25.9451 69.6118 25.8293C70.4238 24.1533 72.0329 22.493 74.8403 21.2396ZM65.6654 19.254C66.55 18.4115 67.8345 18.2689 68.5345 18.9356C69.2345 19.6022 69.9351 19.7467 69.0505 20.5892C68.1658 21.4317 66.031 22.6532 65.331 21.9865C64.631 21.3199 64.7807 20.0965 65.6654 19.254ZM58.3127 35.4791C60.0845 31.8667 62.7004 28.5994 66.0582 26.2185C66.3487 26.0124 66.686 25.8031 67.0438 25.8564C67.4812 25.9216 67.7538 26.3594 67.8247 26.7756C67.9236 27.3564 67.7542 27.946 67.5626 28.5053C65.9652 33.1674 62.886 37.2852 60.1684 41.3991C59.4748 42.4489 58.7518 43.4839 57.937 44.4527C57.5338 44.9318 57.1087 45.3947 56.6558 45.8319C56.4382 46.0421 56.2144 46.2464 55.984 46.4437C55.8771 46.535 55.2781 46.9036 55.2695 47.0081C55.5955 43.0362 56.5423 39.0886 58.3127 35.4791ZM53.447 56.853C55.2075 59.1877 56.3865 66.0789 55.7852 71.1053C55.184 76.1319 54.5827 76.1319 54.1151 75.941C53.6474 75.7501 51.71 73.2051 51.71 73.2051C51.71 73.2051 52.2445 71.678 51.3759 69.0057C50.5075 66.3334 49.973 64.87 49.973 64.87L53.447 56.853ZM26.7293 63.6746C29.2293 60.4767 32.6601 57.9853 36.453 56.2979C40.243 54.6117 44.3879 53.7101 48.5584 53.3996C48.4488 53.4077 48.0618 53.9783 47.9658 54.08C46.4527 55.6832 44.5849 56.9171 42.6689 58.0651C38.3493 60.6535 34.0257 63.586 29.1305 65.1073C28.5432 65.2897 27.9241 65.4511 27.3143 65.3569C26.8773 65.2894 26.4176 65.0298 26.3491 64.6131C26.2931 64.2725 26.5131 63.9512 26.7293 63.6746ZM16.2348 73.9876C15.491 74.3584 15.5342 73.9021 15.2259 73.3417C14.9178 72.7813 15.2709 72.0263 16.0146 71.6553C16.7583 71.2844 17.6111 71.4381 17.9192 71.9985C18.2274 72.559 16.9784 73.6166 16.2348 73.9876ZM17.9696 67.9925C17.2696 67.3259 17.4193 66.1025 18.3039 65.26C19.1886 64.4175 20.4731 64.2749 21.1731 64.9416C21.8731 65.6082 20.5905 67.6414 19.7059 68.4839C18.8212 69.3263 18.6696 68.6592 17.9696 67.9925ZM21.2065 73.541C20.9606 73.0185 21.2699 72.5089 21.5015 72.0385C22.5383 69.9323 24.0944 68.0372 26.3207 67.0588C26.4424 67.0054 27.5154 66.695 27.5242 66.6468C27.0292 69.3564 25.1129 71.5788 23.3785 73.6551C22.7887 74.3611 21.66 74.5054 21.2065 73.541ZM29.0207 77.1408C28.5196 77.2262 27.9625 77.0391 27.509 76.8852C26.8777 76.6712 26.4588 76.1958 26.5642 75.5333C26.8918 73.4761 27.8396 71.7089 28.898 69.9089C30.0033 68.0295 31.4322 66.3129 33.359 65.146C33.4987 65.0613 35.008 64.3793 35.008 64.2975C34.9566 65.9141 34.102 67.5826 33.4559 69.0451C33.1803 69.3076 33.0266 69.993 32.8627 70.3374C32.5171 71.0636 31.2888 73.5569 30.0657 75.9456C29.8266 76.4124 29.6384 77.0354 29.0207 77.1408ZM38.3765 76.5886C37.7402 77.6515 37.0664 78.7092 36.1958 79.6158C35.4188 80.4251 34.3676 80.2691 33.5042 79.6788C32.7681 79.1754 31.5156 78.2758 31.9768 77.2655C34.0628 72.6966 36.1485 68.1281 38.2343 63.5594C38.335 63.339 38.437 63.1162 38.5892 62.9244C38.7955 62.6644 39.0827 62.4752 39.364 62.2893C42.912 59.9452 46.3262 57.4174 49.5867 54.721C45.4573 61.8218 42.5962 69.5409 38.3765 76.5886ZM43.3623 78.638C42.9904 78.3527 42.7902 77.9004 42.7403 77.4481C42.6903 76.9959 42.7763 76.5399 42.8923 76.0987C43.7582 72.8067 46.2299 70.1505 47.9592 67.1833C48.1129 67.9347 47.9958 68.7102 47.8607 69.4649C47.6156 70.8339 47.3124 72.1934 46.9608 73.5412C46.6426 74.7611 46.2838 75.9737 45.8077 77.146C45.441 78.0489 44.5664 79.5615 43.3623 78.638ZM48.9864 83.848C49.4497 85.2822 47.3798 83.9849 46.9487 83.625C46.9487 83.625 45.0447 81.2708 46.0134 79.6165L49.3204 69.659C49.3204 69.659 49.3983 69.6975 49.5213 69.7753C50.0267 70.0957 51.2927 71.083 51.024 72.8025C50.7145 74.7831 50.0308 76.6879 49.5602 78.6349C49.3202 79.6276 49.0971 80.6284 48.9638 81.6399C48.8706 82.3473 48.7617 83.1522 48.9864 83.848ZM50.8496 86.8925C50.7365 83.9942 50.7064 81.0824 51.0741 78.1982C51.2035 77.1833 51.3741 76.1504 51.7404 75.1852C51.7404 75.1852 53.4729 77.8929 53.4774 77.8999C53.5722 78.048 53.5075 78.4601 53.5191 78.631C53.6089 79.9508 53.7133 81.271 53.8995 82.5822C54.0809 83.8598 54.4354 85.1318 54.9026 86.3411L50.8496 86.8925ZM58.7627 84.978C58.233 85.197 57.6347 85.493 57.0426 85.494C56.4405 85.4949 56.1915 85.0377 56.0219 84.5507C55.7343 83.7256 55.6072 82.8312 55.5277 81.9671C55.3905 80.4773 55.4034 78.9751 55.5657 77.4876C55.9857 77.3542 56.3835 77.7184 56.6491 78.0547C57.9382 79.6873 58.9024 81.5271 59.8592 83.3553C60.2588 84.1191 59.3892 84.7194 58.7627 84.978ZM64.8759 81.2762C64.6956 82.2711 63.1395 83.318 62.0966 82.9266C61.7489 82.7961 61.52 82.4446 61.3211 82.1633C60.5469 81.0681 59.7341 79.998 58.9597 78.9027C58.3848 78.0897 57.466 77.086 57.2463 76.1013C57.01 75.0407 57.2463 71.52 57.2463 71.52L57.1413 71.3079C57.2926 71.6475 57.6171 71.9495 57.8639 72.2254C58.3431 72.7612 58.8442 73.2797 59.3471 73.7953C60.7513 75.235 62.4882 76.9355 63.9299 78.3294C64.3789 78.7634 64.8218 79.1271 64.9486 79.7538C65.0498 80.2542 64.9632 80.7945 64.8759 81.2762ZM68.4205 74.7451C68.8103 75.2117 69.2016 75.6772 69.5947 76.1412C69.7242 76.2941 69.8675 76.5467 70.0377 76.6622C69.897 76.5667 68.4912 77.3706 68.3232 77.4483C67.7132 77.7301 67.1496 78.1623 66.4662 78.2726C65.6383 78.4063 65.2059 77.822 64.6758 77.3227C64.1226 76.8018 63.5978 76.253 63.0856 75.6955C62.1453 74.6722 61.291 73.5204 60.4388 72.4074C59.6559 71.3852 58.7655 70.4403 58.0156 69.3948C57.7491 69.0235 57.7644 68.7187 57.7291 68.2837C57.5468 66.0418 57.2227 62.8858 56.7777 60.6699C56.6216 59.8921 56.4979 58.8036 55.9439 58.1679C57.6611 60.1933 59.3564 62.2643 60.8491 64.4465C61.2087 64.9723 61.5823 65.5218 61.8425 66.1001C62.5835 67.7466 63.9806 69.2634 65.108 70.6866C66.1917 72.0544 67.3004 73.4042 68.4205 74.7451ZM80.5206 65.8317C80.4391 65.9916 79.595 67.3306 79.6952 67.4645C79.5739 67.3024 79.3087 67.166 79.1483 67.0427C77.404 65.7022 75.2976 64.1183 73.4208 62.7697C71.9267 61.6959 70.3338 60.3652 68.605 59.6596C67.9979 59.4118 67.4209 59.056 66.8687 58.7135C64.5775 57.2919 62.403 55.6774 60.2764 54.0419C60.9437 54.5695 62.0868 54.6873 62.9035 54.836C65.2301 55.2598 68.5438 55.5684 70.8978 55.742C71.3546 55.7757 71.6745 55.7611 72.0645 56.0149C73.1622 56.7291 74.1545 57.5772 75.2277 58.3226C76.3963 59.1343 77.6057 59.9479 78.6802 60.8435C79.2656 61.3313 79.8418 61.8311 80.3888 62.358C80.913 62.8627 81.5266 63.2746 81.3862 64.063C81.2703 64.714 80.8166 65.2507 80.5206 65.8317ZM84.54 62.5485C84.0341 62.6317 83.4668 62.7141 82.9414 62.6178C82.2835 62.497 81.9015 62.0752 81.4457 61.6476C80.9862 61.2166 80.5255 60.7866 80.0636 60.358C78.7772 59.1644 76.4023 56.9783 75.0367 55.8705C74.7468 55.6353 74.4298 55.3264 74.0733 55.1822L74.2959 55.2823C74.2959 55.2823 77.9927 55.0572 79.1063 55.2823C80.1403 55.4915 81.1942 56.3666 82.0478 56.914C83.1978 57.6515 84.3214 58.4257 85.4714 59.163C85.7668 59.3525 86.1359 59.5705 86.2728 59.9016C86.6838 60.8948 85.5847 62.3768 84.54 62.5485ZM88.427 56.7265C88.1553 57.323 87.525 58.1514 86.7231 57.7706C84.8034 56.8595 82.8716 55.9412 81.1573 54.7135C80.8044 54.4606 80.4218 54.0817 80.5619 53.6817C82.1238 53.527 83.7011 53.5149 85.2654 53.6455C86.1727 53.7211 87.1117 53.8422 87.9781 54.116C88.4895 54.2777 88.9695 54.5148 88.9686 55.0882C88.9677 55.6521 88.6567 56.2218 88.427 56.7265ZM89.8581 53.0501C88.5883 52.6052 87.2529 52.2676 85.9113 52.0947C84.5345 51.9175 83.1483 51.818 81.7624 51.7325C81.5831 51.7215 81.1503 51.783 80.9948 51.6928C80.9875 51.6884 78.1444 50.0385 78.1444 50.0385C79.1578 49.6896 80.2424 49.5272 81.3081 49.404C84.3364 49.0538 87.394 49.0825 90.437 49.1901L89.8581 53.0501Z" fill="white" stroke="#FF6600"/>
</svg>
