<svg width="103" height="58" viewBox="0 0 103 58" fill="none" xmlns="http://www.w3.org/2000/svg">
<path d="M25.5005 21.1971C32.7195 22.7331 41.248 24.1533 48.5318 23.5363C41.5128 25.7849 32.5418 24.7375 25.2561 23.2777C20.6079 22.2841 12.9763 20.1123 6.05094 17.8911C12.5561 22.2447 26.549 29.1833 26.549 29.1833C22.2014 36.9503 8.28975 34.6067 8.28975 34.6067C5.64648 34.2471 4.5969 35.0983 4.18698 35.9315C3.77391 36.7711 4.14141 37.7557 5.03433 38.1249C6.12759 38.5769 7.42014 38.3923 7.42014 38.3923C13.2581 36.5587 16.612 39.3979 16.612 39.3979C9.5319 41.6455 11.6434 43.3017 11.6434 43.3017C13.4738 45.3037 22.6363 39.8119 22.6363 39.8119C25.99 37.7415 29.0333 38.9245 29.0333 38.9245C30.9586 40.1667 33.8776 39.6343 33.8776 39.6343C37.2935 39.1611 35.3682 36.2629 35.3682 36.2629C34.188 34.4291 35.6166 32.2999 35.6166 32.2999C46.8579 36.0855 60.6457 31.9449 60.6457 31.9449C60.8303 35.5053 58.7513 40.2743 57.671 42.4895C57.2504 43.3515 56.3814 43.9429 55.3843 43.9881C49.4292 44.2585 41.2986 40.3195 39.6585 40.6149C37.762 40.9565 37.548 43.4165 39.2811 44.2257C40.0886 44.6027 40.8958 44.7211 40.8958 44.7211C46.175 44.4255 47.1066 45.8451 47.1066 45.8451C47.1066 47.8561 34.4988 49.2757 34.4988 49.2757C27.6671 49.2757 26.4249 51.7007 26.4249 51.7007C29.4061 53.5343 36.5482 51.9965 36.5482 51.9965C43.8768 50.3403 48.1622 53.7119 48.1622 53.7119C42.697 56.0187 45.9264 57.2017 45.9264 57.2017C49.5907 58.1481 55.4289 53.5345 55.4289 53.5345C57.4163 50.6953 64.31 49.3349 64.31 49.3349C69.4048 48.6025 71.152 41.0681 71.6816 37.6987C71.8139 36.8575 72.3796 36.1459 73.1995 35.8089C76.1139 34.6107 79.1536 29.9341 79.1536 29.9341C78.7189 34.2519 81.0789 37.4461 81.0789 37.4461C83.8738 42.2963 89.4012 41.5865 89.4012 41.5865C87.8495 43.1315 81.2429 44.9977 76.1363 47.1249C76.1716 47.0915 76.2065 47.0581 76.2418 47.0245C73.8641 48.0067 72.3605 48.8727 71.3992 49.5885C70.9199 49.9511 70.7194 50.4545 70.7427 50.9465C70.7639 51.4197 70.9993 51.8775 71.3878 52.1927C71.4023 52.2045 71.4115 52.2205 71.4265 52.2321C71.4355 52.2389 71.4477 52.2421 71.4567 52.2487C71.7291 52.4481 72.068 52.5821 72.4653 52.6023C77.2206 52.8353 82.9374 49.2223 82.9374 49.2223C82.9536 49.2635 82.9771 49.2859 82.9939 49.3255C83.1069 49.5939 83.2358 49.8221 83.3757 50.0233C83.4227 50.0909 83.4683 50.1617 83.518 50.2221C83.6781 50.4159 83.8524 50.5731 84.0397 50.6963C84.0966 50.7337 84.1562 50.7631 84.2155 50.7943C84.411 50.8975 84.6151 50.9783 84.8339 51.0183C84.8679 51.0245 84.9032 51.0273 84.9376 51.0319C85.1644 51.0633 85.4038 51.0585 85.651 51.0311C85.7025 51.0253 85.7522 51.0227 85.8045 51.0145C86.0767 50.9723 86.3591 50.8973 86.65 50.7949C86.684 50.7827 86.7189 50.7691 86.7531 50.7563C91.3842 49.0335 98.0334 40.4037 98.0334 40.4037C105.045 30.9117 102.019 23.4775 92.9964 23.3797C92.0428 23.3695 91.1276 22.9531 90.5394 22.2383C88.3692 19.6017 83.5628 17.5129 83.5628 17.5129C82.4479 17.0409 81.7343 15.9953 81.2994 15.0657C78.0925 8.21211 38.1297 6.42991 37.9144 6.39291C27.6047 6.33371 21.7667 1.89751 21.7667 1.89751C16.2393 -1.71069 13.0097 3.79031 13.0097 3.79031C10.9246 7.24391 3.59625 4.46151 1.50234 9.19831C0.188367 12.1707 2.44755 14.8765 3.19914 15.6643C11.2478 17.7763 20.5668 20.1809 25.5005 21.1971ZM30.1283 11.3857C30.1283 14.5753 27.4132 17.1613 24.0641 17.1613C20.715 17.1613 18.0001 14.5753 18.0001 11.3857C18.0001 3.73911 30.1283 3.74931 30.1283 11.3857ZM10.2213 7.30991C10.8795 7.30991 11.4129 7.81791 11.4129 8.44451C11.4129 9.07131 10.8795 9.57931 10.2213 9.57931C8.64381 9.57931 8.64612 7.30991 10.2213 7.30991Z" fill="white" stroke="#FF6600"/>
<path d="M29.0405 11.9124C26.6328 8.70336 22.1766 8.23156 19.088 10.8586C21.4954 14.0676 25.9514 14.5394 29.0405 11.9124ZM24.0643 9.57915C24.6143 9.57915 25.0601 10.0038 25.0601 10.5274C25.0601 11.0514 24.6143 11.476 24.0643 11.476C23.5143 11.476 23.0685 11.0514 23.0685 10.5274C23.0683 10.0038 23.5143 9.57915 24.0643 9.57915Z" fill="white" stroke="#FF6600"/>
</svg>
