<svg width="82" height="125" viewBox="0 0 82 125" fill="none" xmlns="http://www.w3.org/2000/svg">
<path d="M54.9481 51.6474L54.9478 51.6476L43.2255 59.1485L43.2255 59.1486C36.1682 63.6692 31.9111 71.4549 31.9111 79.7991V80.2143C31.9111 85.2245 35.9736 89.2714 41 89.2714C46.0265 89.2714 50.0889 85.2245 50.0889 80.2143V79.8268C50.0889 77.6262 51.2201 75.5857 53.0522 74.4042C53.0524 74.4041 53.0526 74.4039 53.0528 74.4038L64.7745 66.9033L64.7748 66.9031C74.9982 60.3344 81.2 49.0615 81.2 36.925V35.9286C81.2 16.2487 65.1931 0.3 45.4444 0.3H36.5556C16.8069 0.3 0.8 16.2487 0.8 35.9286C0.8 40.9388 4.86244 44.9857 9.88889 44.9857C14.9153 44.9857 18.9778 40.9388 18.9778 35.9286C18.9778 26.2692 26.8598 18.4143 36.5556 18.4143H45.4444C55.1402 18.4143 63.0222 26.2692 63.0222 35.9286V36.925C63.0222 42.8906 59.9738 48.4457 54.9481 51.6474ZM41 124.7C43.9997 124.7 46.8766 123.513 48.9979 121.399C51.1192 119.285 52.3111 116.418 52.3111 113.429C52.3111 110.439 51.1192 107.572 48.9979 105.458C46.8766 103.344 43.9997 102.157 41 102.157C38.0003 102.157 35.1234 103.344 33.0021 105.458C30.8808 107.572 29.6889 110.439 29.6889 113.429C29.6889 116.418 30.8808 119.285 33.0021 121.399C35.1234 123.513 38.0003 124.7 41 124.7Z" fill="white" stroke="#FF7519" stroke-width="0.4"/>
</svg>
