<svg width="32" height="32" viewBox="0 0 32 32" fill="none" xmlns="http://www.w3.org/2000/svg">
<g clip-path="url(#clip0_150_957)">
<path d="M12.9933 7C12.9933 6.20435 13.3101 5.44129 13.8739 4.87868C14.4378 4.31607 15.2026 4 16 4C16.7974 4 17.5622 4.31607 18.1261 4.87868C18.6899 5.44129 19.0067 6.20435 19.0067 7C19.0067 7.79565 18.6899 8.55871 18.1261 9.12132C17.5622 9.68393 16.7974 10 16 10C15.2026 10 14.4378 9.68393 13.8739 9.12132C13.3101 8.55871 12.9933 7.79565 12.9933 7ZM11.2034 14.9406C11.3631 12.9953 12.9933 11.5 14.9477 11.5H17.0523C19.0067 11.5 20.6369 12.9953 20.7966 14.9406L20.9892 17.2516C21.1067 18.6484 20.2517 19.8812 19.0067 20.3266V25.75C19.0067 26.9922 17.9966 28 16.7517 28H15.2483C14.0034 28 12.9933 26.9922 12.9933 25.75V20.3266C11.7483 19.8812 10.8933 18.6484 11.0108 17.2516L11.2034 14.9406Z" fill="white"/>
</g>
<defs>
<clipPath id="clip0_150_957">
<rect width="10" height="24" fill="white" transform="translate(11 4)"/>
</clipPath>
</defs>
</svg>
