<svg width="25" height="25" viewBox="0 0 25 25" fill="none" xmlns="http://www.w3.org/2000/svg">
<g clip-path="url(#clip0_180_246)">
<path d="M12.7457 0.491211C11.916 0.491211 11.2457 1.16152 11.2457 1.99121V4.99121C11.2457 5.8209 11.916 6.49121 12.7457 6.49121C13.5754 6.49121 14.2457 5.8209 14.2457 4.99121V3.61777C18.5019 4.33027 21.7457 8.0334 21.7457 12.4912C21.7457 17.46 17.7144 21.4912 12.7457 21.4912C7.77692 21.4912 3.74567 17.46 3.74567 12.4912C3.74567 9.97402 4.77692 7.6959 6.44567 6.06465C7.03629 5.4834 7.04567 4.53652 6.4691 3.94121C5.89254 3.3459 4.94098 3.34121 4.34567 3.91777C2.12848 6.09746 0.745667 9.13496 0.745667 12.4912C0.745667 19.1193 6.11754 24.4912 12.7457 24.4912C19.3738 24.4912 24.7457 19.1193 24.7457 12.4912C24.7457 5.86309 19.3738 0.491211 12.7457 0.491211ZM9.79254 7.94434C9.35192 7.50371 8.63942 7.50371 8.20348 7.94434C7.76754 8.38496 7.76285 9.09746 8.20348 9.5334L11.9535 13.2834C12.3941 13.724 13.1066 13.724 13.5425 13.2834C13.9785 12.8428 13.9832 12.1303 13.5425 11.6943L9.79254 7.94434Z" fill="white"/>
</g>
<defs>
<clipPath id="clip0_180_246">
<rect width="24" height="24" fill="white" transform="translate(0.745667 0.491211)"/>
</clipPath>
</defs>
</svg>
