<svg width="80" height="65" viewBox="0 0 80 65" fill="none" xmlns="http://www.w3.org/2000/svg">
<path d="M37 7H37.5V6.5V3.5C37.5 2.11364 38.6136 1 40 1C41.3864 1 42.5 2.11364 42.5 3.5V6.5V7H43H47C48.3864 7 49.5 8.11364 49.5 9.5C49.5 10.8864 48.3864 12 47 12H43H42.5V12.5V18.3V18.5831L42.7428 18.7288L56.8303 27.1787C58.4916 28.1756 59.5 29.9625 59.5 31.9V64H48.5V52.5C48.5 47.8114 44.6886 44 40 44C35.3114 44 31.5 47.8114 31.5 52.5V64H20.5V31.9C20.5 29.9625 21.5084 28.1756 23.1697 27.1787L37.2572 18.7288L37.5 18.5831V18.3V12.5V12H37H33C31.6136 12 30.5 10.8864 30.5 9.5C30.5 8.11364 31.6136 7 33 7H37ZM0.5 47.05C0.5 45.0452 1.58791 43.2003 3.3536 42.2255C3.35377 42.2254 3.35394 42.2253 3.35411 42.2252L15.5 35.5456V64H6C2.96364 64 0.5 61.5364 0.5 58.5V47.05ZM79.5 58.5C79.5 61.5364 77.0364 64 74 64H64.5V35.5456L76.6459 42.2252C76.646 42.2253 76.6461 42.2254 76.6463 42.2255C78.412 43.2003 79.5 45.0452 79.5 47.05V58.5Z" fill="white" stroke="#FF6600"/>
</svg>
