<svg width="78" height="78" viewBox="0 0 78 78" fill="none" xmlns="http://www.w3.org/2000/svg">
<path d="M65.125 18.875H66.625V20.375H65.125V18.875Z" fill="white" stroke="#FF6600"/>
<path d="M76.625 2.75V15.25C76.625 16.0076 76.0076 16.625 75.25 16.625H2.75C1.99239 16.625 1.375 16.0076 1.375 15.25V2.75C1.375 1.99239 1.99239 1.375 2.75 1.375H75.25C76.0076 1.375 76.625 1.99239 76.625 2.75ZM44 5.375H34C33.3789 5.375 32.875 5.87886 32.875 6.5C32.875 7.12114 33.3789 7.625 34 7.625H44C44.6211 7.625 45.125 7.12114 45.125 6.5C45.125 5.87886 44.6211 5.375 44 5.375ZM25.25 12.625H52.75C53.3711 12.625 53.875 12.1211 53.875 11.5C53.875 10.8789 53.3711 10.375 52.75 10.375H25.25C24.6289 10.375 24.125 10.8789 24.125 11.5C24.125 12.1211 24.6289 12.625 25.25 12.625Z" fill="white" stroke="#FF6600"/>
<path d="M70.5179 49.0001C69.515 49.6324 68.4949 50.6161 67.7502 52.136C67.0059 50.616 65.9852 49.6323 64.9822 49.0001C65.9851 48.3678 67.0053 47.384 67.75 45.8639C68.4947 47.384 69.5149 48.3678 70.5179 49.0001Z" fill="white" stroke="#FF6600"/>
<path d="M8.49568 56.5C8.03915 56.8533 7.59465 57.3158 7.21469 57.9196C6.83432 57.3158 6.38966 56.8532 5.93304 56.4999C6.38951 56.1464 6.83376 55.6838 7.21386 55.0799C7.59426 55.6839 8.03899 56.1465 8.49568 56.5Z" fill="white" stroke="#FF6600"/>
<path d="M53.875 18.875H55.375V24.515H53.875V18.875Z" fill="white" stroke="#FF6600"/>
<path d="M32.8186 58.0855L32.818 58.0863C32.6386 58.3772 32.6226 58.7283 32.7748 59.0326L32.7749 59.0329C33.1889 59.8619 34.0206 60.3762 34.9488 60.3762H43.0538C43.9816 60.3762 44.8124 59.8623 45.2278 59.0326L32.8186 58.0855ZM32.8186 58.0855C32.996 57.7966 33.3031 57.625 33.6438 57.625H44.3575M32.8186 58.0855L44.3575 57.625M44.3575 57.625C44.6974 57.625 45.0045 57.796 45.1851 58.0872C45.3646 58.3768 45.3804 58.7273 45.2279 59.0324L44.3575 57.625Z" fill="white" stroke="#FF6600"/>
<path d="M7.83503 76.2901C7.66753 76.2514 7.49128 76.2814 7.34628 76.3739C4.19884 78.4212 2.07451 75.5789 1.82415 75.2439C1.81848 75.2364 1.81377 75.23 1.81003 75.2251C-0.35372 73.1164 1.90628 68.6151 1.93003 68.5701C2.05503 68.3276 2.00628 68.0301 1.81003 67.8389L7.83503 76.2901ZM7.83503 76.2901C7.87128 76.2989 11.205 77.0789 12.77 75.3101L7.83503 76.2901ZM2.15913 67.4809C2.51189 67.8248 2.6007 68.3603 2.37446 68.7992L2.37224 68.8035L2.37215 68.8036C2.36503 68.8178 1.82127 69.9036 1.53871 71.228C1.24668 72.597 1.27692 74.0074 2.159 74.867L2.1858 74.8932L2.20841 74.923C2.21208 74.9278 2.21658 74.9338 2.2219 74.9409C2.33902 75.0973 2.85349 75.7841 3.67281 76.2286C4.0945 76.4573 4.5865 76.6156 5.1411 76.609C5.69286 76.6024 6.33938 76.4324 7.07364 75.9547L7.07736 75.9523C7.33611 75.7873 7.64996 75.7341 7.94773 75.803L7.95236 75.8041L7.95251 75.8041C7.96577 75.8072 8.75461 75.9901 9.71716 75.9668C10.597 75.9455 11.5196 75.7549 12.1646 75.2053C11.8301 74.4597 11.625 73.6342 11.625 72.7501V68.4018C11.211 67.4144 11.0721 66.3169 11.2681 65.2394C11.2681 65.2394 11.2681 65.2394 11.2681 65.2394L12.1706 60.2744L12.1706 60.2742C12.2359 59.9164 12.333 59.5624 12.4233 59.2334C12.4406 59.1706 12.4576 59.1086 12.474 59.0478C12.4739 59.0119 12.4757 58.954 12.4903 58.887L12.492 58.8793L12.4921 58.8793C12.5114 58.7971 12.5429 58.7343 12.5605 58.701C12.5624 58.6973 12.5645 58.6935 12.5665 58.6897C13.1593 56.6249 14.1446 54.6877 15.4853 52.9986C15.5178 52.9479 15.5507 52.9083 15.5628 52.8936C15.5644 52.8918 15.5656 52.8903 15.5664 52.8893L15.5667 52.8888C15.5784 52.8745 15.5901 52.8577 15.6173 52.818L15.6183 52.8165C15.6412 52.7832 15.6773 52.7305 15.7219 52.6777C15.7223 52.6771 15.7228 52.6765 15.7233 52.6759L17.8596 50.1113L17.8597 50.1113C18.8051 48.9768 19.5881 47.7174 20.1881 46.3682C20.1882 46.3682 20.1882 46.3682 20.1882 46.3682L22.6792 40.7653C22.6795 40.7646 22.6798 40.764 22.6801 40.7633C22.6859 40.7501 22.6918 40.7375 22.6976 40.7256C22.619 40.1408 22.4159 39.5774 22.217 39.139C22.0283 38.7228 21.8544 38.4427 21.8233 38.3926C21.8188 38.3854 21.8173 38.3829 21.8192 38.3856L21.8116 38.3749L21.8118 38.3748C21.5175 37.9299 21.5752 37.3366 21.954 36.9578C22.8293 36.0825 22.8456 34.9448 22.5845 33.9247C22.3241 32.9069 21.8118 32.1242 21.8115 32.1237L21.8102 32.1217C21.691 31.9374 21.625 31.7235 21.625 31.5001C21.625 30.5325 21.3267 29.8322 20.8939 29.3115C20.4539 28.782 19.8518 28.4115 19.2125 28.1547C17.925 27.6378 16.596 27.6251 16.5 27.6251C15.8789 27.6251 15.375 27.1213 15.375 26.5001C15.375 24.4465 14.934 23.4852 14.5725 23.0444C14.2836 22.692 14.0131 22.6332 13.9616 22.6251H10.25C10.2494 22.6251 10.2489 22.6251 10.2483 22.6251C10.1963 22.6326 9.91765 22.689 9.6221 23.0385C9.25827 23.4686 8.81253 24.4087 8.81253 26.4251C8.81253 27.0463 8.30867 27.5501 7.68753 27.5501C7.59114 27.5501 6.24374 27.566 4.93826 28.0771C4.28943 28.3312 3.67965 28.6966 3.23476 29.2163C2.79801 29.7264 2.49878 30.409 2.49878 31.3501C2.49878 31.5772 2.42885 31.798 2.30451 31.9823L2.30364 31.9836C2.27046 32.0324 1.75962 32.7982 1.50792 33.7787C1.25708 34.7557 1.28389 35.8412 2.15911 36.6946L2.15942 36.695C2.54943 37.0759 2.60907 37.6809 2.30414 38.1316L2.30306 38.1332C2.27042 38.181 1.75892 38.9501 1.50707 39.9339C1.25606 40.9146 1.28335 42.003 2.15899 42.857C2.51324 43.2023 2.59805 43.7373 2.37539 44.1736L2.37481 44.1748L2.37477 44.1749C2.36882 44.1868 1.8157 45.2959 1.53707 46.7939C1.25543 48.3081 1.26951 50.1319 2.30134 51.6389L1.88902 51.9212L2.30056 51.6378C2.53568 51.9791 2.56173 52.4202 2.37559 52.7857L2.37227 52.7923L2.37222 52.7922L2.37215 52.7924C2.36506 52.8065 1.82127 53.8923 1.53871 55.2168C1.24672 56.5855 1.27691 57.9957 2.15864 58.8554L2.15913 67.4809ZM2.15913 67.4809C1.80401 67.1346 1.57684 66.628 1.46467 65.9888C1.35265 65.3506 1.36207 64.6161 1.44936 63.863C1.62409 62.3554 2.10033 60.8585 2.41544 60.0866L2.41608 60.085C2.58609 59.6645 2.48896 59.177 2.159 58.8558L2.15913 67.4809ZM6.47167 37.8751H6.48003H6.48253H6.48503H6.48878H6.49461C6.57045 37.8745 7.8452 37.8428 9.09416 36.9065C10.322 35.9859 11.6213 34.1179 11.6213 30.2501C11.6213 29.629 12.1251 29.1251 12.7463 29.1251C13.3674 29.1251 13.8713 29.629 13.8713 30.2501C13.8713 34.1119 15.1667 35.9798 16.393 36.9017C17.6372 37.837 18.9092 37.8739 19.0008 37.8751C19.6198 37.8769 20.1213 38.3807 20.1213 39.0001C20.1213 39.6103 19.6369 40.1046 19.033 40.1248L19.0246 40.1251H19.0163H19.015H19.015H19.015H19.015H19.015H19.0149H19.0149H19.0149H19.0149H19.0149H19.0149H19.0149H19.0148H19.0148H19.0148H19.0148H19.0148H19.0148H19.0147H19.0147H19.0147H19.0147H19.0147H19.0147H19.0146H19.0146H19.0146H19.0146H19.0146H19.0146H19.0145H19.0145H19.0145H19.0145H19.0145H19.0145H19.0144H19.0144H19.0144H19.0144H19.0144H19.0144H19.0143H19.0143H19.0143H19.0143H19.0143H19.0143H19.0142H19.0142H19.0142H19.0142H19.0142H19.0142H19.0141H19.0141H19.0141H19.0141H19.0141H19.0141H19.014H19.014H19.014H19.014H19.014H19.014H19.0139H19.0139H19.0139H19.0139H19.0139H19.0138H19.0138H19.0138H19.0138H19.0138H19.0137H19.0137H19.0137H19.0137H19.0137H19.0136H19.0136H19.0136H19.0136H19.0136H19.0135H19.0135H19.0135H19.0135H19.0135H19.0134H19.0134H19.0134H19.0134H19.0134H19.0134H19.0133H19.0133H19.0133H19.0133H19.0132H19.0132H19.0132H19.0132H19.0132H19.0131H19.0131H19.0131H19.0131H19.0131H19.0131H19.013H19.013H19.013H19.013H19.013H19.0129H19.0129H19.0129H19.0129H19.0129H19.0129H19.0128H19.0128H19.0128H19.0128H19.0128H19.0127H19.0127H19.0127H19.0127H19.0127H19.0127H19.0126H19.0126H19.0126H19.0126H19.0126H19.0126H19.0125H19.0075H19.0075H19.0075H19.0075H19.0075H19.0075H19.0074H19.0074H19.0074H19.0074H19.0074H19.0074H19.0073H19.0073H19.0073H19.0073H19.0073H19.0073H19.0072H19.0072H19.0072H19.0072H19.0072H19.0072H19.0072H19.0071H19.0071H19.0071H19.0071H19.0071H19.0071H19.007H19.007H19.007H19.007H19.007H19.007H19.0069H19.0069H19.0069H19.0069H19.0069H19.0068H19.0068H19.0068H19.0068H19.0068H19.0068H19.0068H19.0067H19.0067H19.0067H19.0067H19.0067H19.0067H19.0066H19.0066H19.0066H19.0066H19.0066H19.0065H19.0065H19.0065H19.0065H19.0065H19.0065H19.0064H19.0064H19.0064H19.0064H19.0064H19.0063H19.0063H19.0063H19.0063C19.006 40.1251 19.0058 40.1251 19.0055 40.1251M6.47167 37.8751L12.125 47.7501C12.125 48.0951 12.405 48.3751 12.75 48.3751C13.095 48.3751 13.375 48.0951 13.375 47.7501C13.375 39.7776 18.7563 39.6276 19.0025 39.6251V40.1251H19.0025H19.0026H19.0026H19.0026H19.0026H19.0026H19.0026H19.0027H19.0027H19.0027H19.0027H19.0027H19.0027H19.0028H19.0028H19.0028H19.0028H19.0028H19.0028H19.0028H19.0029H19.0029H19.0029H19.0029H19.0029H19.0029H19.003H19.003H19.003H19.003H19.003H19.003H19.0031H19.0031H19.0031H19.0031H19.0031H19.0031H19.0032H19.0032H19.0032H19.0032H19.0032H19.0033H19.0033H19.0033H19.0033H19.0033H19.0034H19.0034H19.0034H19.0034H19.0034H19.0034H19.0035H19.0035H19.0035H19.0035H19.0035H19.0035H19.0036H19.0036H19.0036H19.0036H19.0036H19.0036H19.0037H19.0037H19.0037H19.0037H19.0037H19.0037H19.0038H19.0038H19.0038H19.0038H19.0038H19.0038H19.0039H19.0039H19.0039H19.0039H19.0039H19.0039H19.004H19.004H19.004H19.004H19.004H19.0041H19.0041H19.0041H19.0041H19.0041H19.0042H19.0042H19.0042H19.0042H19.0042H19.0043H19.0043H19.0043H19.0043H19.0043H19.0044H19.0044H19.0044H19.0044H19.0044H19.0045H19.0045H19.0045H19.0045H19.0045H19.0046H19.0046H19.0046H19.0046H19.0047H19.0047H19.0047H19.0047H19.0047H19.0048H19.0048H19.0048H19.0048H19.0049H19.0049H19.0049H19.0049H19.0049H19.005H19.005H19.005H19.005H19.0051H19.0051H19.0051H19.0051H19.0052H19.0052H19.0052H19.0052H19.0053H19.0053H19.0053H19.0053H19.0054H19.0054H19.0054H19.0054H19.0055H19.0055H19.0055H19.0055M6.47167 37.8751L6.46331 37.8754C5.85936 37.8956 5.37503 38.3899 5.37503 39.0001C5.37503 39.6188 5.87449 40.1233 6.49535 40.1251M6.47167 37.8751L6.49535 40.1251M19.0055 40.1251C18.9117 40.1264 17.6403 40.1639 16.3969 41.0985C15.1704 42.0204 13.875 43.8884 13.875 47.7501C13.875 48.3713 13.3712 48.8751 12.75 48.8751C12.1289 48.8751 11.625 48.3713 11.625 47.7501C11.625 43.8884 10.3296 42.0204 9.10333 41.0985C7.85832 40.1626 6.58546 40.1263 6.49535 40.1251M19.0055 40.1251L6.49535 40.1251M15.8963 53.2851C15.9109 53.2581 15.9295 53.2352 15.9486 53.2118C15.9507 53.2091 15.9529 53.2065 15.955 53.2039C15.9804 53.1726 16.003 53.1397 16.0255 53.1068C16.0508 53.07 16.076 53.0332 16.105 52.9989L18.2438 50.4314C19.2188 49.2614 20.0263 47.9626 20.645 46.5714L23.1375 40.9651C23.1497 40.9371 23.1649 40.9111 23.18 40.8851C23.1912 40.8658 23.2024 40.8466 23.2125 40.8264C23.075 39.4001 22.2375 38.1114 22.2288 38.0989C22.065 37.8514 22.0975 37.5214 22.3075 37.3114L15.8963 53.2851ZM11.515 57.6251V57.6253L11.5109 55.3752C11.5104 55.3752 11.5097 55.3752 11.5087 55.3751C11.4553 55.3739 10.6787 55.3454 9.91718 54.7641C9.16792 54.1921 8.33753 53.0108 8.33753 50.5001C8.33753 49.879 7.83367 49.3751 7.21253 49.3751C6.59139 49.3751 6.08753 49.879 6.08753 50.5001C6.08753 53.0115 5.25736 54.1932 4.50881 54.7652C4.12346 55.0596 3.73403 55.2127 3.43342 55.2921C3.28336 55.3317 3.15696 55.3526 3.06675 55.3635C3.02172 55.3689 2.986 55.3718 2.96122 55.3734C2.95046 55.3741 2.94188 55.3745 2.93562 55.3748C2.92135 55.3743 2.90441 55.3744 2.88538 55.3758C2.28502 55.3995 1.80503 55.8933 1.80503 56.5001C1.80503 57.1163 2.30133 57.6204 2.91999 57.6251C2.97259 57.6263 3.74905 57.6547 4.5105 58.2361C5.25963 58.8081 6.09003 59.9895 6.09003 62.5001C6.09003 63.1213 6.59389 63.6251 7.21503 63.6251C7.83617 63.6251 8.34003 63.1213 8.34003 62.5001C8.34003 59.9888 9.17047 58.8072 9.91968 58.2352C10.3054 57.9408 10.6953 57.7877 10.9966 57.7082C11.1469 57.6686 11.2737 57.6477 11.3643 57.6368C11.4095 57.6313 11.4455 57.6284 11.4705 57.6268C11.4915 57.6255 11.5043 57.6252 11.508 57.6251C11.5083 57.6251 11.5086 57.6251 11.5088 57.6251H11.5138H11.515ZM3.04174 55.3895C3.03954 55.3889 3.03454 55.3876 3.02738 55.3861C3.04921 55.3904 3.05802 55.3935 3.04223 55.3896L3.04174 55.3895Z" fill="white" stroke="#FF6600"/>
<path d="M11.375 18.875H12.875V20.375H11.375V18.875Z" fill="white" stroke="#FF6600"/>
<path d="M12.7498 35.8643C13.4941 37.3843 14.5148 38.368 15.5178 39.0002C14.5149 39.6325 13.4947 40.6163 12.75 42.1364C12.0053 40.6163 10.9851 39.6325 9.98212 39.0001C10.985 38.3679 12.0051 37.3842 12.7498 35.8643Z" fill="white" stroke="#FF6600"/>
<path d="M16.2672 71.8131L16.2672 71.8131L21.625 72.3005V72.7502C21.625 74.8865 19.8864 76.6252 17.75 76.6252C15.6136 76.6252 13.875 74.8865 13.875 72.7502V71.0169C14.5938 71.4562 15.4099 71.7351 16.2672 71.8131Z" fill="white" stroke="#FF6600"/>
<path d="M63.2861 34.0797C63.6665 34.6836 64.1112 35.1463 64.5678 35.4997C64.1108 35.8533 63.6663 36.316 63.2861 36.92C62.9058 36.3161 62.4611 35.8535 62.0045 35.5001C62.4615 35.1463 62.9059 34.6834 63.2861 34.0797Z" fill="white" stroke="#FF6600"/>
<path d="M52.8545 69.3567L52.8531 69.3569C47.3089 69.8651 42.6473 70.1252 39 70.1252C35.3527 70.1252 30.6913 69.8651 25.1472 69.3569L52.8545 69.3567ZM52.8545 69.3567C53.4721 69.2983 53.9266 68.7521 53.8704 68.1337C53.8138 67.5114 53.2628 67.0623 52.649 67.1158L52.6467 67.116C47.1573 67.6203 42.5676 67.8752 39 67.8752C35.4323 67.8752 30.8427 67.6203 25.3532 67.116L25.3532 67.1159L25.3406 67.115C24.7508 67.0759 24.1872 67.5015 24.1295 68.1335L24.1295 68.1337M52.8545 69.3567L24.1295 68.1337M24.1295 68.1337C24.0734 68.7504 24.5264 69.3003 25.1468 69.3569L24.1295 68.1337ZM16.4715 69.5722L16.4714 69.5722C15.5228 69.4862 14.688 69.0235 14.1103 68.2648C13.533 67.5068 13.3107 66.578 13.4806 65.641C13.4806 65.641 13.4806 65.6409 13.4806 65.6409C13.4807 65.6408 13.4807 65.6408 13.4807 65.6407L13.7158 64.3492C20.1983 65.1615 31.188 66.3752 39 66.3752C46.8118 66.3752 57.8013 65.1615 64.2838 64.3492L64.518 65.6407L65.01 65.5514L64.518 65.6407C64.6879 66.5774 64.4647 67.5066 63.8881 68.2651C63.3119 69.0233 62.4762 69.4862 61.5273 69.5722L61.5272 69.5722L55.289 70.1392C55.2764 70.1383 55.2629 70.1377 55.2487 70.1377C55.2014 70.1377 55.1616 70.1436 55.1328 70.1495C55.1208 70.1519 55.1097 70.1546 55.1004 70.157L46.2734 70.9598L46.2733 70.9598C41.4473 71.3995 36.5514 71.3995 31.7253 70.9598L31.7252 70.9598L22.8996 70.1571C22.868 70.1489 22.814 70.1377 22.75 70.1377C22.7358 70.1377 22.7223 70.1383 22.7097 70.1392L16.4715 69.5722ZM22.9339 70.1669L22.9338 70.1669L22.9339 70.1669ZM22.5902 70.1624C22.5908 70.1622 22.5925 70.1617 22.5946 70.161L22.5905 70.1623C22.5899 70.1625 22.5899 70.1625 22.5902 70.1624Z" fill="white" stroke="#FF6600"/>
<path d="M61.7328 71.8131L61.7328 71.8131C62.5901 71.7351 63.4062 71.4562 64.125 71.0169V72.7502C64.125 74.8865 62.3864 76.6252 60.25 76.6252C58.1136 76.6252 56.375 74.8865 56.375 72.7502V72.3005L61.7328 71.8131Z" fill="white" stroke="#FF6600"/>
<path d="M24.6769 57.9584L24.6768 57.9584L24.6758 57.9647C24.6127 58.3732 24.481 58.7742 24.1284 59.0842C23.7731 59.3967 23.1122 59.6874 21.8375 59.6874C21.3773 59.6874 20.8242 59.6381 20.1395 59.5372L15.03 58.3226C15.4936 57.0711 16.1432 55.89 16.9416 54.8079L22.895 55.7722L22.8958 55.7723C23.5052 55.8701 24.0374 56.1964 24.3622 56.6497C24.6443 57.0449 24.7527 57.5063 24.6769 57.9584Z" fill="white" stroke="#FF6600"/>
<path d="M30.9019 56.9025L30.9024 56.9018C31.4932 55.9476 32.5188 55.3738 33.6437 55.3738H44.3575C45.4807 55.3738 46.5079 55.9459 47.099 56.9021L47.0995 56.9028C47.6888 57.8599 47.741 59.0336 47.2384 60.0374C46.4413 61.6316 44.8358 62.625 43.0525 62.625H34.9475C33.1644 62.625 31.5587 61.6331 30.7615 60.0374L30.9019 56.9025ZM30.9019 56.9025C30.3125 57.8583 30.2589 59.0321 30.7614 60.0372L30.9019 56.9025ZM55.7543 47.2806L55.7544 47.2807C56.4394 48.8203 57.3326 50.2559 58.4108 51.5501L58.4109 51.5501L59.4446 52.7904L54.7463 53.5514C53.5633 53.743 52.4922 54.3907 51.8112 55.3398L51.811 55.3401C51.1846 56.2145 50.9283 57.2733 51.1026 58.3134C51.2277 59.1183 51.5662 60.0392 52.3706 60.7567C53.179 61.4779 54.3951 61.9375 56.1637 61.9375C56.7623 61.9375 57.4347 61.875 58.3219 61.7392L58.342 61.7362L58.3618 61.7314L63.5763 60.492C63.5924 60.556 63.606 60.6162 63.6167 60.6752L63.6168 60.6756L63.8812 62.1322C57.4152 62.9402 46.6286 64.125 39 64.125C31.3714 64.125 20.5849 62.9402 14.1188 62.1334L14.3832 60.6768L14.3832 60.6765C14.3939 60.6174 14.4076 60.5572 14.4237 60.493L19.6908 61.7427L19.7108 61.7475L19.7311 61.7506C20.5683 61.8778 21.2401 61.9388 21.8375 61.9388C23.6061 61.9388 24.8218 61.4791 25.6298 60.7589C26.4339 60.0422 26.7721 59.123 26.8973 58.3213C27.0729 57.2752 26.8169 56.2162 26.1902 55.3413L26.19 55.341C25.5091 54.3921 24.4393 53.7443 23.2549 53.5527C23.2549 53.5527 23.2548 53.5527 23.2548 53.5527L18.5563 52.7916L19.5904 51.55L19.5906 51.5498C20.6674 50.2558 21.5606 48.8203 22.2455 47.2807L22.2456 47.2806L24.7381 41.6744L24.7382 41.6741C25.493 39.9736 27.1838 38.875 29.0437 38.875H48.9562C50.816 38.875 52.507 39.9748 53.2618 41.6742L53.2618 41.6744L55.7543 47.2806ZM23.9729 47.4581L24.4325 47.655L23.9729 47.4581C23.6004 48.3276 23.6889 49.3197 24.2097 50.111C24.7298 50.9017 25.6081 51.375 26.555 51.375H51.4462C52.3935 51.375 53.2701 50.9014 53.7911 50.1116C54.3126 49.3209 54.4005 48.3287 54.0286 47.4575L54.0283 47.4569L52.7396 44.4481L52.7395 44.4479C51.6782 41.9742 49.2512 40.3738 46.5587 40.3738H31.4425C28.7499 40.3738 26.323 41.9742 25.2617 44.4492L25.2616 44.4494L23.9729 47.4581Z" fill="white" stroke="#FF6600"/>
<path d="M53.6376 56.6514L53.6377 56.6513C53.9625 56.198 54.4947 55.8715 55.1042 55.7738L55.1049 55.7736L61.0582 54.8094C61.8569 55.8926 62.5066 57.0733 62.9702 58.3255L57.9112 59.53C57.1754 59.6397 56.6223 59.6888 56.1625 59.6888C54.8877 59.6888 54.2271 59.3981 53.8718 59.0851C53.519 58.7743 53.3868 58.3716 53.3229 57.9586L53.3229 57.9586L53.3219 57.9524C53.2473 57.5078 53.3544 57.0466 53.6376 56.6514Z" fill="white" stroke="#FF6600"/>
<path d="M51.9592 48.3444L51.9596 48.3453C52.0367 48.5243 52.0199 48.7113 51.9129 48.873C51.8053 49.0358 51.6393 49.125 51.445 49.125H26.555C26.361 49.125 26.1951 49.036 26.0875 48.8736C25.9813 48.7115 25.9644 48.5237 26.041 48.3441C26.041 48.344 26.0411 48.3439 26.0411 48.3438L27.3295 45.3373C27.3295 45.3372 27.3295 45.3371 27.3296 45.3371C27.3296 45.337 27.3296 45.337 27.3296 45.3369C28.0372 43.6892 29.6504 42.625 31.4425 42.625H46.5575C48.35 42.625 49.9643 43.6896 50.6705 45.3359L51.9592 48.3444Z" fill="white" stroke="#FF6600"/>
<path d="M52.745 26.2637C52.5512 26.2824 50.875 26.5624 50.875 30.6362C50.875 30.9799 50.595 31.2599 50.25 31.2612C50.02 31.2612 44.625 31.3262 44.625 35.6362C44.625 35.7587 44.5887 35.8799 44.5212 35.9824M52.745 26.2637V26.7637C52.7033 26.7637 52.6677 26.7584 52.6402 26.7525C52.6134 26.7468 52.5923 26.7399 52.5797 26.7354C52.5731 26.7331 52.5677 26.7311 52.5641 26.7296L52.557 26.7268L52.5615 26.7286C52.5724 26.733 52.598 26.7429 52.6317 26.7509C52.6487 26.755 52.6674 26.7586 52.6876 26.7611C52.7079 26.7636 52.7287 26.7649 52.75 26.7649H52.7709M52.745 26.2637L52.75 26.3154L52.7931 26.7613C52.7946 26.7612 52.7867 26.7618 52.7709 26.7649M52.745 26.2637C52.7455 26.2637 52.746 26.2639 52.7466 26.2641C52.7475 26.2645 52.7485 26.2649 52.75 26.2649H56.5C56.5006 26.2649 56.5015 26.2646 56.5025 26.2643C56.5034 26.264 56.5043 26.2637 56.505 26.2637M52.7709 26.7649C52.6924 26.7806 52.4188 26.86 52.1349 27.2324C51.7829 27.6942 51.375 28.6591 51.375 30.6362C51.375 31.2571 50.8705 31.7589 50.2518 31.7612L50.25 31.7612C50.1556 31.7612 48.8261 31.7773 47.5381 32.2962C46.8984 32.5539 46.2961 32.925 45.8559 33.4541C45.423 33.9743 45.125 34.6727 45.125 35.6362C45.125 35.8563 45.0601 36.0732 44.9388 36.2574L44.9387 36.2574M52.7709 26.7649H56.4745M44.9387 36.2574C44.9424 36.2516 44.9452 36.2472 44.9471 36.2442C44.9487 36.2417 44.9496 36.2402 44.9499 36.2397L44.5212 35.9824M44.9387 36.2574L44.5212 35.9824M44.9387 36.2574C44.9103 36.3026 44.8307 36.4313 44.7295 36.6237M44.5212 35.9824C44.5211 35.9827 44.5205 35.9835 44.5196 35.985C44.5022 36.0122 44.3499 36.2505 44.1697 36.6237H44.7295M44.7295 36.6237C44.6575 36.7606 44.5744 36.9296 44.4909 37.1237H48.9575C50.6653 37.1237 52.2675 37.7997 53.4509 38.9459C53.5126 38.7676 53.5769 38.5979 53.6415 38.4391M44.7295 36.6237H48.9575C50.7235 36.6237 52.384 37.2943 53.6415 38.4391M53.6415 38.4391C53.7752 38.5608 53.9044 38.6879 54.0287 38.8201C54.1844 38.4124 54.3475 38.0691 54.48 37.8262M53.6415 38.4391C53.7261 38.2312 53.8114 38.0419 53.8922 37.8759M53.8922 37.8759C53.9545 37.9649 54.0205 38.0529 54.0906 38.1399L54.48 37.8262M53.8922 37.8759C53.9441 37.7695 53.9941 37.6727 54.041 37.5867L54.48 37.8262M53.8922 37.8759C53.0862 36.7236 52.9268 35.4176 53.0702 34.2367C53.2163 33.0333 53.6786 31.9279 54.1329 31.1636M54.48 37.8262C52.7387 35.6649 53.7362 32.7474 54.6275 31.3124M54.6275 31.3124L54.1277 31.298C54.129 31.2529 54.1307 31.2081 54.1329 31.1636M54.6275 31.3124C54.686 29.2794 55.7047 27.9547 57.0086 27.1217C56.8419 26.9378 56.6878 26.8468 56.5849 26.8024M54.6275 31.3124L54.2027 31.0486C54.1795 31.086 54.1562 31.1244 54.1329 31.1636M54.1329 31.1636C54.234 29.0877 55.2716 27.694 56.5849 26.8024M56.5849 26.8024C56.7416 26.696 56.9022 26.5967 57.0657 26.5044C56.7874 26.3057 56.5607 26.2689 56.505 26.2637M56.5849 26.8024C56.534 26.7803 56.4956 26.7697 56.4745 26.7649M56.4745 26.7649C56.4627 26.7622 56.4563 26.7613 56.4563 26.7613C56.4563 26.7613 56.4569 26.7614 56.4583 26.7615L56.5 26.317L56.505 26.2637M56.4745 26.7649H56.5C56.5205 26.7649 56.5382 26.7637 56.5523 26.7622C56.5665 26.7607 56.5788 26.7588 56.5887 26.757C56.5987 26.7552 56.6074 26.7534 56.6144 26.7517C56.6214 26.7501 56.6276 26.7485 56.6325 26.7471C56.6421 26.7445 56.6497 26.7422 56.6536 26.7409L56.655 26.7404C56.6515 26.7416 56.6444 26.7438 56.6353 26.7463C56.6305 26.7476 56.6246 26.7491 56.6177 26.7507C56.6109 26.7523 56.6025 26.7541 56.5927 26.7559C56.583 26.7576 56.5709 26.7595 56.5568 26.761C56.5429 26.7624 56.5253 26.7637 56.505 26.7637V26.2637" fill="white" stroke="#FF6600"/>
<path d="M24.361 38.439C24.2757 38.2311 24.1896 38.0416 24.1081 37.8754C24.9139 36.7236 25.0728 35.4178 24.9293 34.2371C24.7831 33.0336 24.3207 31.928 23.8671 31.1638C23.766 29.0875 22.7281 27.6937 21.4145 26.802C21.4605 26.782 21.496 26.7715 21.5171 26.7662H25.2315C25.3073 26.7812 25.5814 26.8594 25.8662 27.2331C26.2183 27.6951 26.6262 28.6604 26.6262 30.6374C26.6262 31.2586 27.1301 31.7624 27.7512 31.7624C27.8472 31.7624 29.1762 31.7751 30.4637 32.292C31.103 32.5488 31.7051 32.9193 32.1451 33.4488C32.5779 33.9695 32.8762 34.6698 32.8762 35.6374C32.8762 35.8575 32.9411 36.0744 33.0624 36.2587L33.0625 36.2586C33.091 36.3038 33.1706 36.4324 33.272 36.6249H29.0437C27.2779 36.6249 25.6188 37.2953 24.361 38.439ZM25.4389 26.7298C25.438 26.7302 25.437 26.7306 25.4359 26.731L25.4414 26.7288L25.4389 26.7298Z" fill="white" stroke="#FF6600"/>
<path d="M22.625 18.875H24.125V24.515H22.625V18.875Z" fill="white" stroke="#FF6600"/>
<path d="M75.6243 52.7892L75.6243 52.7892C75.4342 52.4202 75.4651 51.98 75.6949 51.6409L75.6962 51.6389C76.728 50.1319 76.7421 48.3081 76.4605 46.7939C76.1819 45.2962 75.629 44.1872 75.6228 44.1749L75.6227 44.1748L75.6217 44.1727C75.4005 43.7371 75.4831 43.202 75.8388 42.8568C76.7151 42.0018 76.7309 40.893 76.4692 39.8956C76.2152 38.9278 75.7228 38.1759 75.6929 38.1308C75.3861 37.6797 75.4487 37.0742 75.8381 36.6937L75.8384 36.6934C76.7137 35.8399 76.7405 34.7545 76.4896 33.7774C76.2379 32.797 75.7271 32.0312 75.6939 31.9823L75.6923 31.9799C75.5696 31.7969 75.5 31.5766 75.5 31.3501C75.5 30.4048 75.2005 29.7202 74.764 29.2097C74.3194 28.6896 73.7101 28.3247 73.0617 28.0717C71.757 27.5625 70.4105 27.5501 70.3125 27.5501C69.6914 27.5501 69.1875 27.0463 69.1875 26.4251C69.1875 24.4087 68.7418 23.4686 68.378 23.0385C68.0824 22.6891 67.8038 22.6326 67.7518 22.6251C67.7512 22.6251 67.7506 22.6251 67.75 22.6251H64.027C63.9688 22.6353 63.7067 22.7003 63.4263 23.0436C63.066 23.4848 62.625 24.4467 62.625 26.5001C62.625 27.121 62.1206 27.6229 61.5018 27.6251L61.5 27.6251C61.4057 27.6251 60.0761 27.6412 58.7881 28.1601C58.1485 28.4179 57.5462 28.789 57.1059 29.318C56.6731 29.8383 56.375 30.5367 56.375 31.5001C56.375 31.7202 56.3102 31.9371 56.1889 32.1214L56.1885 32.1219C56.1549 32.1728 55.6454 32.9568 55.3943 33.9611C55.1436 34.964 55.1712 36.0804 56.0461 36.9553C56.4249 37.3341 56.4826 37.9274 56.1883 38.3723L56.181 38.3832L56.1809 38.3831C56.1807 38.3835 56.1799 38.3848 56.1786 38.3869C56.1333 38.4597 55.4749 39.5184 55.3066 40.7327C55.3114 40.7428 55.3162 40.7533 55.3209 40.7642L57.8119 46.3669C57.8119 46.367 57.8119 46.367 57.8119 46.367C58.412 47.7162 59.195 48.9755 60.1404 50.11C60.1404 50.11 60.1404 50.11 60.1404 50.11L62.2767 52.6734C62.2772 52.6739 62.2776 52.6744 62.278 52.675C62.3225 52.7278 62.3589 52.781 62.3812 52.8137L62.3834 52.8169C62.4104 52.8564 62.4209 52.8713 62.4304 52.8827L62.4337 52.8868L62.4337 52.8868C62.4345 52.8878 62.4357 52.8893 62.4372 52.8911C62.4494 52.9058 62.4823 52.9454 62.5148 52.9962C63.8543 54.6853 64.8411 56.6217 65.4339 58.6873C65.4365 58.6922 65.4393 58.6974 65.4419 58.7026C65.4599 58.7373 65.4901 58.7999 65.5087 58.8812L65.509 58.8825C65.5245 58.9512 65.5262 59.0111 65.526 59.0465C65.5425 59.1074 65.5595 59.1693 65.5768 59.2322C65.667 59.5611 65.7642 59.9151 65.8294 60.2729L65.8295 60.2732L66.732 65.2381C66.732 65.2381 66.732 65.2382 66.732 65.2382C66.9279 66.3154 66.7892 67.4141 66.375 68.4007V72.7501C66.375 73.6349 66.1697 74.4609 65.834 75.2084C66.4803 75.7616 67.4036 75.9523 68.2828 75.9726C69.2184 75.9942 69.9877 75.8198 70.0349 75.8091C70.0367 75.8087 70.0375 75.8085 70.0371 75.8086L70.0455 75.8064L70.0456 75.8065C70.3407 75.7355 70.6621 75.7848 70.9247 75.9557L75.6243 52.7892ZM75.6243 52.7892L75.6266 52.7935M75.6243 52.7892L75.6266 52.7935M75.6266 52.7935C75.6264 52.7932 75.6267 52.7938 75.6275 52.7953C75.64 52.8205 75.7724 53.0864 75.9376 53.505C76.1129 53.9488 76.3208 54.5535 76.4625 55.2154C76.7551 56.5822 76.7252 57.9925 75.8402 58.8554M75.6266 52.7935L76.0688 52.5601M76.0688 52.5601C75.9638 52.3564 75.98 52.1114 76.1088 51.9214C78.3888 48.5914 76.0913 43.9926 76.0675 43.9464L76.0688 52.5601ZM76.0688 52.5601C76.0925 52.6051 78.3588 57.0989 76.1888 59.2139M75.727 74.9942L75.7596 74.9622C76.6904 74.0475 76.7323 72.6052 76.4509 71.2342C76.182 69.9244 75.6518 68.8554 75.6228 68.7974C75.3998 68.3603 75.4843 67.8254 75.8405 67.4801M75.727 74.9942L76.1888 67.8389M75.727 74.9942L75.7008 75.0316M75.727 74.9942L75.7008 75.0316M75.8405 67.4801C75.8406 67.48 75.8408 67.4798 75.841 67.4797L76.1888 67.8389M75.8405 67.4801C75.8402 67.4804 75.8399 67.4807 75.8397 67.4809L76.1888 67.8389M75.8405 67.4801C76.1963 67.1327 76.4237 66.6256 76.5361 65.9869C76.6485 65.3484 76.6391 64.614 76.5518 63.8612C76.3769 62.354 75.8998 60.8583 75.5837 60.0873L75.5836 60.0871C75.41 59.6634 75.5113 59.1753 75.8402 58.8554M76.1888 67.8389C78.0125 66.0601 76.705 61.5039 76.0463 59.8976C75.95 59.6626 76.0063 59.3914 76.1888 59.2139M75.8402 58.8554C75.84 58.8556 75.8399 58.8557 75.8398 58.8558L76.1888 59.2139M75.8402 58.8554L76.1888 59.2139M75.7008 75.0316C75.6696 75.076 75.165 75.7854 74.3185 76.2387M75.7008 75.0316L74.3185 76.2387M74.0284 50.1251H74.02H74.0175H74.015H74.0113H74.0113H74.0112H74.0112H74.0112H74.0112H74.0111H74.0111H74.0111H74.0111H74.0111H74.011H74.011H74.011H74.011H74.011H74.0109H74.0109H74.0109H74.0109H74.0108H74.0108H74.0108H74.0108H74.0107H74.0107H74.0107H74.0107H74.0107H74.0106H74.0106H74.0106H74.0106H74.0105H74.0105H74.0105H74.0105H74.0104H74.0104H74.0104H74.0104H74.0103H74.0103H74.0103H74.0103H74.0102H74.0102H74.0102H74.0102H74.0101H74.0101H74.0101H74.01H74.01H74.01H74.01H74.0099H74.0099H74.0099H74.0099H74.0099H74.0098H74.0098H74.0098H74.0098H74.0097H74.0097H74.0097H74.0097H74.0097H74.0096H74.0096H74.0096H74.0096H74.0095H74.0095H74.0095H74.0094H74.0094H74.0094H74.0094H74.0093H74.0093H74.0093H74.0093H74.0092H74.0092H74.0092C73.9136 50.1264 72.6412 50.1639 71.3973 51.0986C70.1704 52.0205 68.875 53.8884 68.875 57.7501C68.875 58.3713 68.3712 58.8751 67.75 58.8751C67.1289 58.8751 66.625 58.3713 66.625 57.7501C66.625 53.8884 65.3296 52.0204 64.1033 51.0985C62.8583 50.1626 61.5854 50.1263 61.4953 50.1251C60.8764 50.1233 60.375 49.6195 60.375 49.0001C60.375 48.3909 60.8578 47.8972 61.4604 47.8755C61.4785 47.8744 61.4949 47.8743 61.5091 47.8748C61.6709 47.8706 62.8944 47.8059 64.0942 46.9065C65.322 45.9859 66.6213 44.1179 66.6213 40.2501C66.6213 39.629 67.1251 39.1251 67.7463 39.1251C68.3674 39.1251 68.8713 39.629 68.8713 40.2501C68.8713 44.1119 70.1667 45.9798 71.393 46.9017C72.6372 47.837 73.9092 47.8739 74.0008 47.8751C74.0015 47.8751 74.0021 47.8751 74.0026 47.8751L73.9975 48.3751L74.0284 50.1251ZM74.0284 50.1251L74.0367 50.1248M74.0284 50.1251L74.0367 50.1248M74.0367 50.1248C74.6388 50.1047 75.1266 49.6115 75.1213 48.9973L74.0367 50.1248ZM74.3185 76.2387C73.5091 76.6722 72.3643 76.8899 70.9252 75.956L74.3185 76.2387ZM64.0389 22.6234C64.039 22.6235 64.0376 22.6237 64.0348 22.6239C64.0375 22.6235 64.0389 22.6234 64.0389 22.6234ZM58.9838 34.3751V34.3749L58.9708 34.3753C58.3633 34.391 57.875 34.8881 57.875 35.5001C57.875 36.1163 58.3713 36.6204 58.9899 36.6251C59.0418 36.6263 59.8193 36.6542 60.5816 37.2361C61.3309 37.8081 62.1613 38.9895 62.1613 41.5001C62.1613 42.1213 62.6651 42.6251 63.2863 42.6251C63.9074 42.6251 64.4113 42.1213 64.4113 41.5001C64.4113 38.9887 65.2414 37.8071 65.9904 37.2352C66.3759 36.9407 66.7657 36.7876 67.0668 36.7082C67.2171 36.6686 67.3438 36.6477 67.4344 36.6368C67.4796 36.6313 67.5155 36.6284 67.5405 36.6268C67.5633 36.6254 67.5765 36.6251 67.5788 36.6251C67.5788 36.6251 67.5788 36.6251 67.5788 36.6251C68.1986 36.6218 68.6963 36.1171 68.6963 35.5001C68.6963 34.879 68.1924 34.3751 67.5713 34.3751C67.5465 34.3751 66.7593 34.3669 65.9875 33.7818C65.242 33.2167 64.4113 32.0366 64.4113 29.5001C64.4113 28.879 63.9074 28.3751 63.2863 28.3751C62.6651 28.3751 62.1613 28.879 62.1613 29.5001C62.1613 32.0115 61.3308 33.1931 60.582 33.7651C60.1965 34.0596 59.8069 34.2126 59.5061 34.2921C59.356 34.3317 59.2296 34.3526 59.1393 34.3635C59.0943 34.3689 59.0585 34.3718 59.0337 34.3734C59.013 34.3747 59.0004 34.375 58.9968 34.3751H58.9938H58.99H58.9863H58.9838Z" fill="white" stroke="#FF6600"/>
</svg>
