<svg width="101" height="102" viewBox="0 0 101 102" fill="none" xmlns="http://www.w3.org/2000/svg">
<path d="M18.1591 2.99241C17.9335 2.44554 18.1386 1.87913 18.8769 1.70335C28.3105 0.297101 37.9697 1.78148 46.3779 6.00023C39.0566 8.51976 31.5712 12.2307 24.6601 17.4065C21.5634 10.5315 20.6816 8.61741 18.1591 2.99241ZM70.2285 22.719C70.1464 22.6213 70.0439 22.5237 69.9413 22.426C69.7773 22.4651 69.6132 22.5237 69.4492 22.5627C69.7158 22.6213 69.9824 22.6604 70.2285 22.719ZM74.9658 21.0002C74.207 21.2151 73.4277 21.4104 72.6689 21.6252C73.0175 21.9768 73.3456 22.3284 73.6943 22.6799C74.1249 22.1135 74.5556 21.5471 74.9658 21.0002ZM79.8671 24.0471L78.0214 21.1565C77.3652 21.9768 76.7704 22.8166 76.1142 23.6565C77.3652 23.8127 78.5956 23.969 79.8671 24.0471ZM82.164 22.9729L84.4814 18.9104C83.0253 19.1643 81.5898 19.4573 80.1337 19.7698L82.164 22.9729ZM90.039 24.1838L86.9833 19.6526L84.3378 24.2619C86.2451 24.301 88.1523 24.2815 90.039 24.1838ZM92.3564 23.1096C93.6894 21.3127 94.8788 19.3987 95.8837 17.426C93.6484 17.6018 91.372 17.8752 89.0341 18.1877L92.3564 23.1096ZM46.1318 53.7346C50.2128 55.7854 54.6425 56.9377 59.2978 57.2307C59.6259 57.2502 59.7695 56.9377 59.7285 56.7034C59.0517 53.0705 58.7851 51.6838 58.0673 47.8166L46.1318 53.7346ZM99.9238 6.68382C99.4316 8.96898 98.2626 12.4455 97.1347 14.8869C87.332 15.5119 77.2216 17.5041 67.829 20.5119L64.5683 21.6057C63.9121 21.801 63.5634 22.5627 63.789 23.1487V23.1682C63.9326 23.5393 64.2812 23.7932 64.6503 23.9299C72.6689 26.0979 81.1796 27.0159 89.5468 26.6448C87.8857 28.5393 86.0605 30.3557 83.9687 32.1721L23.8193 62.0549C20.5996 63.6369 18.6308 66.7229 18.6513 70.1213C18.6718 74.3987 19.4716 78.7151 21.0302 82.9729C23.0195 88.5002 29.8281 86.5666 34.5244 86.6252C33.3759 87.6994 32.2275 88.7737 31.0585 89.8479L29.1308 91.6448C27.9619 92.7776 27.4081 94.3205 27.6132 95.844L28.249 100.805C11.166 90.844 0.830022 74.926 1.0351 58.676C4.52143 54.2815 8.17182 50.258 12.1093 46.3908C18.8769 48.3635 27.7773 47.719 32.8837 43.5393C33.9912 42.4846 37.4365 40.1799 35.6113 38.7737C35.0371 38.383 34.2372 38.5198 33.8271 39.0666C28.4746 46.0588 18.6718 45.5901 13.4423 44.2424C16.7236 35.6291 26.6699 28.0119 37.0263 26.7034C37.0878 26.6838 38.4414 26.3909 43.3222 26.7424C44.0195 26.801 44.6347 26.2932 44.6962 25.6291C44.7578 24.9651 44.2246 24.3791 43.5273 24.3205C38.6669 23.9885 36.9238 24.2424 36.4521 24.3401C32.8837 24.9065 27.5722 26.3127 22.3632 29.8088C15.1855 34.633 12.0068 40.844 10.7148 44.2815C7.39252 47.4846 4.29584 50.8244 1.32221 54.3791C4.04975 36.0784 17.79 25.7073 26.7314 18.969C41.456 7.93382 61.041 3.30491 78.0419 3.46116C86.8808 3.46116 94.3251 4.51585 99.0624 5.43382C99.3495 5.49241 99.5956 5.64866 99.7597 5.88304C99.9443 6.09788 100.006 6.39085 99.9238 6.68382ZM50.541 21.6448C48.1621 20.3362 47.5058 16.9377 48.7773 14.9651C49.1259 14.3596 48.9003 13.6174 48.2851 13.3049C46.1318 12.2698 45.0244 16.7424 45.8857 19.4963C46.7265 22.0744 49.5361 25.1018 50.9306 23.344C51.2998 22.758 51.1357 21.9963 50.541 21.6448ZM56.2216 19.3791C53.8632 18.0315 53.1865 14.6916 54.4579 12.6799C54.8066 12.094 54.581 11.3518 53.9658 11.0198C51.8329 10.0041 50.705 14.4573 51.5664 17.2112C52.3867 19.7893 55.2372 22.8362 56.6113 21.0588C56.9804 20.4924 56.8163 19.7307 56.2216 19.3791ZM71.7665 8.96898L68.7109 8.24632C68.0136 8.07054 67.3369 8.48069 67.1523 9.12523C66.9882 9.78929 67.3984 10.4338 68.0956 10.6096L71.1513 11.3518C71.8281 11.508 72.5253 11.1369 72.7099 10.4534C72.874 9.80882 72.4638 9.14476 71.7665 8.96898Z" fill="white" stroke="#FF6600"/>
</svg>
