<svg width="76" height="68" viewBox="0 0 76 68" fill="none" xmlns="http://www.w3.org/2000/svg">
<path d="M19.875 9C19.875 9.25024 19.7249 9.47485 19.4938 9.57495L11.125 13.1626V20.8561C10.6999 21.0001 10.2812 21.1503 9.875 21.2998V5.25C9.875 5.0376 9.9812 4.84351 10.1564 4.7312C10.3312 4.61279 10.55 4.59387 10.7438 4.67505L19.4938 8.42505C19.7249 8.52515 19.875 8.74976 19.875 9ZM74.4938 8.42505L65.7438 4.67505C65.55 4.59387 65.3312 4.61279 65.1564 4.7312C64.9812 4.84351 64.875 5.0376 64.875 5.25V20.8561C65.3001 21.0001 65.7188 21.1503 66.125 21.2998V13.1626L74.4938 9.57495C74.7249 9.47485 74.875 9.25024 74.875 9C74.875 8.74976 74.7249 8.52515 74.4938 8.42505ZM73.4562 39.675L74.2439 34.3937C69.3126 39.6622 55.15 43.375 38 43.375C20.85 43.375 6.68744 39.6622 1.7561 34.3937L2.54376 39.675C3.08118 40.275 3.76874 40.8689 4.60004 41.431C4.88751 41.6312 4.96259 42.0188 4.7688 42.3002C4.64368 42.4814 4.44989 42.5748 4.25 42.5748C4.13129 42.5748 4.00616 42.5437 3.89996 42.4686C3.5188 42.2062 3.17487 41.9437 2.84375 41.6752L4.8689 55.156C4.875 55.1877 4.875 55.2189 4.875 55.25C4.875 56.6501 12.9564 61.7686 29.875 63.0686V54C29.875 53.6564 30.1564 53.375 30.5 53.375H45.5C45.8436 53.375 46.125 53.6564 46.125 54V63.0686C63.0436 61.7686 71.125 56.6501 71.125 55.25C71.125 55.2189 71.125 55.1877 71.1311 55.156L73.1562 41.6752C72.8251 41.9437 72.4812 42.2062 72.1 42.4686C71.9938 42.5437 71.8687 42.5748 71.75 42.5748C71.5501 42.5748 71.3563 42.4814 71.2312 42.3002C71.0374 42.0188 71.1125 41.6312 71.4 41.431C72.2313 40.8689 72.9188 40.275 73.4562 39.675ZM11.1561 45.2311C11.2626 44.9003 11.6188 44.719 11.9438 44.8313C14.1688 45.5625 16.6624 46.1936 19.3626 46.7002C19.7062 46.7625 19.925 47.0878 19.8625 47.4314C19.8063 47.7311 19.5439 47.9374 19.25 47.9374C19.2125 47.9374 19.1749 47.9313 19.1374 47.9252C16.3813 47.4125 13.8313 46.7686 11.5562 46.019C11.2251 45.9122 11.0499 45.5564 11.1561 45.2311ZM19.2506 56.7502C19.2125 56.7502 19.1737 56.7466 19.1349 56.7393C16.3792 56.2235 13.8289 55.5808 11.5541 54.8301C11.2263 54.722 11.0484 54.3687 11.1564 54.0409C11.2645 53.7137 11.6169 53.5319 11.9459 53.6436C14.1679 54.3766 16.6639 55.0052 19.3651 55.5106C19.7044 55.5747 19.9278 55.9012 19.8643 56.2406C19.8082 56.5409 19.5457 56.7502 19.2506 56.7502ZM34.25 49.5627H34.2314C31.6749 49.4749 29.1313 49.3003 26.6874 49.0439C26.3438 49.0122 26.0939 48.7064 26.1311 48.3628C26.1625 48.0186 26.4686 47.7622 26.8126 47.8062C29.2375 48.0564 31.7439 48.2249 34.2686 48.3127C34.6187 48.325 34.8875 48.6124 34.875 48.9561C34.8625 49.2936 34.5875 49.5627 34.25 49.5627ZM56.6374 46.7002C59.3376 46.1936 61.8312 45.5625 64.0562 44.8313C64.3812 44.719 64.7374 44.9003 64.8439 45.2311C64.9501 45.5564 64.7749 45.9122 64.4438 46.019C62.1687 46.7686 59.6187 47.4125 56.8626 47.9252C56.8251 47.9313 56.7875 47.9374 56.75 47.9374C56.4561 47.9374 56.1937 47.7311 56.1375 47.4314C56.075 47.0878 56.2938 46.7625 56.6374 46.7002ZM49.3126 49.0439C46.8687 49.3003 44.3251 49.4749 41.7686 49.5627H41.75C41.4125 49.5627 41.1375 49.2936 41.125 48.9561C41.1125 48.6124 41.3813 48.325 41.7314 48.3127C44.2561 48.2249 46.7625 48.0564 49.1874 47.8062C49.5314 47.7689 49.8375 48.0186 49.8689 48.3628C49.9061 48.7064 49.6562 49.0122 49.3126 49.0439ZM64.4459 54.8301C62.1711 55.5808 59.6208 56.2235 56.8651 56.7393C56.8263 56.7466 56.7875 56.7502 56.7494 56.7502C56.4543 56.7502 56.1918 56.5409 56.1357 56.2406C56.0722 55.9012 56.2956 55.5747 56.6349 55.5106C59.3361 55.0052 61.8321 54.3766 64.0541 53.6436C64.3821 53.5319 64.7355 53.7137 64.8436 54.0409C64.9516 54.3687 64.7737 54.722 64.4459 54.8301ZM66.3798 22.7659L53.1849 35.9611C56.9532 36.6599 60.3843 37.6182 63.2768 38.8029C69.5784 36.8674 73.8295 34.2441 74.7023 31.3547L74.8726 30.2201C74.85 27.4241 71.6423 24.8179 66.3798 22.7659ZM51.6801 35.698L65.0895 22.2886C58.4263 19.9467 48.9625 18.4391 38.625 18.3805V34.6311C43.162 34.6622 47.5941 35.0303 51.6801 35.698ZM37.375 18.3805C27.0375 18.4391 17.5737 19.9467 10.9105 22.2886L24.3199 35.698C28.4059 35.0303 32.838 34.6622 37.375 34.6311V18.3805ZM14.7178 39.3784C21.1186 41.0856 29.2628 42.125 38 42.125C46.7372 42.125 54.8814 41.0856 61.2822 39.3784C55.0654 37.1433 46.7189 35.875 38 35.875C29.2811 35.875 20.9346 37.1433 14.7178 39.3784ZM1.12744 30.2201L1.29773 31.3547C2.17053 34.2441 6.42163 36.8674 12.7232 38.8029C15.6157 37.6182 19.0468 36.6599 22.8151 35.9611L9.62018 22.7659C4.35773 24.8179 1.15002 27.4241 1.12744 30.2201ZM37.375 54.625H31.125V63.1565C33.0943 63.2828 35.1762 63.3573 37.375 63.3695V54.625ZM38.625 63.3695C40.8238 63.3573 42.9057 63.2828 44.875 63.1565V54.625H38.625V63.3695ZM74.875 55.25C74.875 53.9933 74.2183 52.7537 72.9365 51.5525L72.3738 55.3043C72.2331 58.621 59.2082 64.625 38 64.625C16.7918 64.625 3.76691 58.621 3.62622 55.3043L3.06348 51.5525C1.78204 52.7537 1.125 53.9933 1.125 55.25C1.125 61.6868 18.0116 67.125 38 67.125C57.9884 67.125 74.875 61.6868 74.875 55.25ZM27.375 0.875V12.125H48.625V0.875H27.375ZM31.75 3.375H29.25C28.9048 3.375 28.625 3.09546 28.625 2.75C28.625 2.40454 28.9048 2.125 29.25 2.125H31.75C32.0952 2.125 32.375 2.40454 32.375 2.75C32.375 3.09546 32.0952 3.375 31.75 3.375ZM40.5 3.375H35.5C35.1548 3.375 34.875 3.09546 34.875 2.75C34.875 2.40454 35.1548 2.125 35.5 2.125H40.5C40.8452 2.125 41.125 2.40454 41.125 2.75C41.125 3.09546 40.8452 3.375 40.5 3.375ZM31.125 13.375V17.3502C31.5376 17.3185 31.9563 17.3002 32.375 17.2751V13.375H31.125ZM43.625 13.375V17.2751C44.0437 17.3002 44.4624 17.3185 44.875 17.3502V13.375H43.625Z" fill="white" stroke="#FF6600"/>
</svg>
