<svg width="82" height="83" viewBox="0 0 82 83" fill="none" xmlns="http://www.w3.org/2000/svg">
<path d="M80.1316 48.439L80.1305 48.4383C79.0336 47.7615 77.6143 47.8834 76.6591 48.7553C71.0123 53.8771 63.7089 56.6988 56.0971 56.6988C39.2022 56.6988 25.4557 42.9523 25.4557 26.0574C25.4557 18.445 28.2774 11.1423 33.3991 5.49555C34.2667 4.53941 34.3972 3.12301 33.7157 2.02324L33.7154 2.02273C33.033 0.92461 31.6996 0.41657 30.4668 0.764804L30.4665 0.764892C12.8198 5.76186 0.5 22.0719 0.5 40.43C0.5 63.1622 18.9923 81.6539 41.7239 81.6539C60.0819 81.6539 76.3925 69.3343 81.3895 51.6884C81.743 50.4438 81.2285 49.1199 80.1316 48.439Z" fill="white" stroke="#FF6600"/>
<path d="M43.395 22.0819H45.2907V23.9776C45.2907 25.5776 46.5863 26.8732 48.1863 26.8732C49.7863 26.8732 51.0819 25.5776 51.0819 23.9776V22.0819H52.9776C54.5775 22.0819 55.8732 20.787 55.8732 19.1863C55.8732 17.5861 54.5774 16.2913 52.9776 16.2913H51.0819V14.3956C51.0819 12.7949 49.7862 11.5 48.1863 11.5C46.5864 11.5 45.2907 12.7949 45.2907 14.3956V16.2913H43.395C41.795 16.2913 40.5 17.5863 40.5 19.1863C40.5 20.7868 41.7949 22.0819 43.395 22.0819Z" fill="white" stroke="#FF6600"/>
<path d="M58.395 36.0819H60.2907V37.9776C60.2907 39.5776 61.5863 40.8732 63.1863 40.8732C64.7863 40.8732 66.0819 39.5776 66.0819 37.9776V36.0819H67.9776C69.5775 36.0819 70.8732 34.787 70.8732 33.1863C70.8732 31.5861 69.5774 30.2913 67.9776 30.2913H66.0819V28.3956C66.0819 26.7949 64.7862 25.5 63.1863 25.5C61.5864 25.5 60.2907 26.7949 60.2907 28.3956V30.2913H58.395C56.795 30.2913 55.5 31.5863 55.5 33.1863C55.5 34.7868 56.7949 36.0819 58.395 36.0819Z" fill="white" stroke="#FF6600"/>
<path d="M65.6791 14.579H67.5747V16.4746C67.5747 18.0746 68.8704 19.3703 70.4703 19.3703C72.0703 19.3703 73.366 18.0746 73.366 16.4746V14.579H75.2616C76.8615 14.579 78.1572 13.284 78.1572 11.6834C78.1572 10.0832 76.8614 8.78834 75.2616 8.78834H73.366V6.8927C73.366 5.29201 72.0703 3.99707 70.4703 3.99707C68.8704 3.99707 67.5747 5.29201 67.5747 6.8927V8.78834H65.6791C64.0791 8.78834 62.7841 10.0834 62.7841 11.6834C62.7841 13.2839 64.079 14.579 65.6791 14.579Z" fill="white" stroke="#FF6600"/>
</svg>
