<svg width="32" height="32" viewBox="0 0 32 32" fill="none" xmlns="http://www.w3.org/2000/svg">
<g clip-path="url(#clip0_149_511)">
<path d="M16 4.75C15.6859 4.75 15.4937 4.61875 15.2734 4.46406C14.9641 4.25312 14.5938 4 13.75 4C12.3203 4 11.3125 6.04844 10.6562 8.19063C8.43906 8.59844 7 9.25938 7 10C7 10.6703 8.17188 11.2703 10.0281 11.6828C10.0094 11.8703 10 12.0578 10 12.25C10 13.0469 10.1547 13.8062 10.4359 14.5H7.62813C7.28125 14.5 7 14.7812 7 15.1281C7 15.2078 7.01406 15.2875 7.04688 15.3625L8.86563 19.9047C6.82188 21.4281 5.5 23.8656 5.5 26.6078C5.5 27.3766 6.12344 28 6.89219 28H25.1078C25.8766 28 26.5 27.3766 26.5 26.6078C26.5 23.8656 25.1781 21.4328 23.1391 19.9047L24.9531 15.3625C24.9813 15.2875 25 15.2078 25 15.1281C25 14.7812 24.7188 14.5 24.3719 14.5H21.5641C21.8453 13.8062 22 13.0469 22 12.25C22 12.0578 21.9906 11.8703 21.9719 11.6828C23.8281 11.2703 25 10.6703 25 10C25 9.25938 23.5609 8.59844 21.3438 8.19063C20.6875 6.04844 19.6797 4 18.25 4C17.4062 4 17.0359 4.25312 16.7266 4.46406C16.5016 4.61875 16.3141 4.75 16 4.75ZM18.625 14.5H18.0438C17.2703 14.5 16.5859 14.0031 16.3422 13.2719C16.2344 12.9438 15.7703 12.9438 15.6625 13.2719C15.4187 14.0031 14.7297 14.5 13.9609 14.5H13.375C12.3391 14.5 11.5 13.6609 11.5 12.625V11.95C12.8219 12.1422 14.3594 12.25 16 12.25C17.6406 12.25 19.1781 12.1422 20.5 11.95V12.625C20.5 13.6609 19.6609 14.5 18.625 14.5ZM14.5 19L15.25 20.5L13.75 26.5L11.5 17.5L14.5 19ZM20.5 17.5L18.25 26.5L16.75 20.5L17.5 19L20.5 17.5Z" fill="white"/>
</g>
<defs>
<clipPath id="clip0_149_511">
<rect width="21" height="24" fill="white" transform="translate(5.5 4)"/>
</clipPath>
</defs>
</svg>
