<svg width="80" height="65" viewBox="0 0 80 65" fill="none" xmlns="http://www.w3.org/2000/svg">
<path d="M23 6.5H41C41.55 6.5 42 6.95 42 7.5V12.5H22V7.5C22 6.95 22.45 6.5 23 6.5ZM16 7.5V12.5H8C3.5875 12.5 0 16.0875 0 20.5V32.5H24H44H45.025C49.0625 27.6125 55.1625 24.5 62 24.5C62.675 24.5 63.3375 24.525 64 24.5875V20.5C64 16.0875 60.4125 12.5 56 12.5H48V7.5C48 3.6375 44.8625 0.5 41 0.5H23C19.1375 0.5 16 3.6375 16 7.5ZM40 44.5H28C25.7875 44.5 24 42.7125 24 40.5V36.5H0V52.5C0 56.9125 3.5875 60.5 8 60.5H45.025C41.8875 56.7 40 51.8125 40 46.5C40 45.825 40.025 45.1625 40.0875 44.5H40ZM80 46.5C80 41.7261 78.1036 37.1477 74.7279 33.7721C71.3523 30.3964 66.7739 28.5 62 28.5C57.2261 28.5 52.6477 30.3964 49.2721 33.7721C45.8964 37.1477 44 41.7261 44 46.5C44 51.2739 45.8964 55.8523 49.2721 59.2279C52.6477 62.6036 57.2261 64.5 62 64.5C66.7739 64.5 71.3523 62.6036 74.7279 59.2279C78.1036 55.8523 80 51.2739 80 46.5ZM62 36.5C63.1 36.5 64 37.4 64 38.5V44.5H68C69.1 44.5 70 45.4 70 46.5C70 47.6 69.1 48.5 68 48.5H62C60.9 48.5 60 47.6 60 46.5V38.5C60 37.4 60.9 36.5 62 36.5Z" fill="#FF6600"/>
</svg>
