<svg width="100" height="100" viewBox="0 0 100 100" fill="none" xmlns="http://www.w3.org/2000/svg">
<path d="M77.1771 22.8229C69.9167 15.5625 60.2604 11.5625 50 11.5625C39.7396 11.5625 30.0833 15.5625 22.8229 22.8229C15.5625 30.0833 11.5625 39.7396 11.5625 50C11.5625 60.2604 15.5625 69.9167 22.8229 77.1771C30.0833 84.4375 39.7396 88.4375 50 88.4375C60.2604 88.4375 69.9167 84.4375 77.1771 77.1771C84.4375 69.9167 88.4375 60.2604 88.4375 50C88.4375 39.7396 84.4375 30.0833 77.1771 22.8229ZM80.2813 51.0417H86.3229C86.0729 60.0104 82.5833 68.4271 76.4167 74.9479L72.1458 70.6771C71.7396 70.2708 71.0833 70.2708 70.6771 70.6771C70.2708 71.0833 70.2708 71.7396 70.6771 72.1458L74.9479 76.4167C68.4271 82.5833 60.0104 86.0729 51.0417 86.3229V80.2813C51.0417 79.7083 50.5729 79.2396 50 79.2396C49.4271 79.2396 48.9583 79.7083 48.9583 80.2813V86.3229C39.9896 86.0729 31.5729 82.5833 25.0521 76.4167L29.3229 72.1458C29.7292 71.7396 29.7292 71.0833 29.3229 70.6771C28.9167 70.2708 28.2604 70.2708 27.8542 70.6771L23.5833 74.9479C17.4167 68.4271 13.9271 60.0104 13.6771 51.0417H19.7188C20.2917 51.0417 20.7604 50.5729 20.7604 50C20.7604 49.4271 20.2917 48.9583 19.7188 48.9583H13.6771C13.9271 39.9896 17.4167 31.5729 23.5833 25.0521L27.8542 29.3229C28.0625 29.5313 28.3229 29.625 28.5938 29.625C28.8646 29.625 29.125 29.5208 29.3333 29.3229C29.7396 28.9167 29.7396 28.2604 29.3333 27.8542L25.0625 23.5833C31.5833 17.4167 40 13.9271 48.9687 13.6771V19.7188C48.9687 20.2917 49.4375 20.7604 50.0104 20.7604C50.5833 20.7604 51.0521 20.2917 51.0521 19.7188V13.6771C60.0208 13.9271 68.4375 17.4167 74.9583 23.5833L70.6875 27.8542C70.2813 28.2604 70.2813 28.9167 70.6875 29.3229C70.8958 29.5313 71.1563 29.625 71.4271 29.625C71.6979 29.625 71.9583 29.5208 72.1667 29.3229L76.4375 25.0521C82.6042 31.5729 86.0938 39.9896 86.3438 48.9583H80.3021C79.7292 48.9583 79.2604 49.4271 79.2604 50C79.2604 50.5729 79.7292 51.0417 80.3021 51.0417H80.2813Z" fill="#FF6600"/>
<path d="M50.0003 4.1665C24.7295 4.1665 4.16699 24.729 4.16699 49.9998C4.16699 75.2707 24.7295 95.8332 50.0003 95.8332C75.2712 95.8332 95.8337 75.2707 95.8337 49.9998C95.8337 24.729 75.2712 4.1665 50.0003 4.1665ZM50.0003 93.7498C25.8753 93.7498 6.25033 74.1248 6.25033 49.9998C6.25033 25.8748 25.8753 6.24984 50.0003 6.24984C74.1253 6.24984 93.7503 25.8748 93.7503 49.9998C93.7503 74.1248 74.1253 93.7498 50.0003 93.7498Z" fill="#FF6600"/>
<path d="M53.6455 52.1769C54.0413 51.5207 54.2601 50.7811 54.2601 49.9998C54.2601 48.8644 53.8122 47.7915 53.0101 46.9894C52.458 46.4373 51.7809 46.0728 51.0413 45.8853V27.0832C51.0413 26.5103 50.5726 26.0415 49.9997 26.0415C49.4268 26.0415 48.958 26.5103 48.958 27.0832V45.8853C48.2184 46.0728 47.5413 46.4373 46.9893 46.9894C46.1872 47.7915 45.7393 48.8644 45.7393 49.9998C45.7393 51.1353 46.1872 52.2082 46.9893 53.0103C47.7913 53.8123 48.8643 54.2603 49.9997 54.2603C50.7809 54.2603 51.5205 54.0415 52.1768 53.6457L60.0309 61.4998C60.2393 61.7082 60.4997 61.8019 60.7705 61.8019C61.0413 61.8019 61.3018 61.6978 61.5101 61.4998C61.9163 61.0936 61.9163 60.4373 61.5101 60.0311L53.6559 52.1769H53.6455ZM48.458 51.5415C48.0413 51.1248 47.8226 50.5832 47.8226 49.9998C47.8226 49.4165 48.0518 48.8748 48.458 48.4582C48.8643 48.0415 49.4163 47.8228 49.9997 47.8228C50.583 47.8228 51.1247 48.0519 51.5413 48.4582C51.958 48.8748 52.1768 49.4165 52.1768 49.9998C52.1768 50.5832 51.9476 51.1248 51.5413 51.5415C50.7184 52.3644 49.2809 52.3644 48.458 51.5415Z" fill="#FF6600"/>
</svg>
