<svg width="80" height="80" viewBox="0 0 80 80" fill="none" xmlns="http://www.w3.org/2000/svg">
<path d="M51.986 5.93767L51.7361 6.25002L51.986 6.56236L53.9397 9.00436C54.3825 9.55792 54.4689 10.3162 54.1619 10.955C53.8548 11.5937 53.2088 12 52.5 12H42.3438H41.8438V12.5V20.3538V20.5783L42.0116 20.7275L52.9438 30.445L52.9438 30.445C53.3373 30.7947 53.5625 31.2962 53.5625 31.823V79.5H47.5312V68.2812C47.5312 66.7107 46.258 65.4375 44.6875 65.4375H35.3125C33.742 65.4375 32.4688 66.7107 32.4688 68.2812V79.5H26.4375V31.823C26.4375 31.2964 26.6628 30.7948 27.0564 30.445L27.0564 30.445L37.9884 20.7275L38.1562 20.5783V20.3538V2.34375C38.1562 1.32552 38.9818 0.5 40 0.5H52.5C53.2087 0.5 53.8546 0.906224 54.1615 1.54497L54.1615 1.54505C54.4686 2.18387 54.3823 2.94213 53.9396 3.49544L53.9396 3.49548L51.986 5.93767ZM35.3125 61.75C36.883 61.75 38.1562 60.4768 38.1562 58.9062V54.2188C38.1562 52.6482 36.883 51.375 35.3125 51.375C33.742 51.375 32.4688 52.6482 32.4688 54.2188V58.9062C32.4688 60.4768 33.742 61.75 35.3125 61.75ZM44.6875 61.75C46.258 61.75 47.5312 60.4768 47.5312 58.9062V54.2188C47.5312 52.6482 46.258 51.375 44.6875 51.375C43.117 51.375 41.8438 52.6482 41.8438 54.2188V58.9062C41.8438 60.4768 43.117 61.75 44.6875 61.75ZM40 47.6875C44.1532 47.6875 47.5312 44.3094 47.5312 40.1562C47.5312 36.0031 44.1532 32.625 40 32.625C35.8468 32.625 32.4688 36.0031 32.4688 40.1562C32.4688 44.3094 35.8468 47.6875 40 47.6875Z" fill="white" stroke="#FF6600"/>
<path d="M38.1562 71.125H41.8438V79.5H38.1562V71.125Z" fill="white" stroke="#FF6600"/>
<path d="M41.8438 40.1562C41.8438 41.1745 41.0183 42 40 42C38.9817 42 38.1562 41.1745 38.1562 40.1562C38.1562 39.138 38.9817 38.3125 40 38.3125C41.0183 38.3125 41.8438 39.138 41.8438 40.1562Z" fill="white" stroke="#FF6600"/>
<path d="M74.6562 75.3125V75.8125H75.1562H77.6562C78.6745 75.8125 79.5 76.638 79.5 77.6562C79.5 78.6745 78.6745 79.5 77.6562 79.5H59.25V38.3125H77.6562C78.6745 38.3125 79.5 39.138 79.5 40.1562C79.5 41.1745 78.6745 42 77.6562 42H75.1562H74.6562V42.5V75.3125ZM66.9531 71.125C68.5236 71.125 69.7969 69.8518 69.7969 68.2812V63.5938C69.7969 62.0232 68.5236 60.75 66.9531 60.75C65.3826 60.75 64.1094 62.0232 64.1094 63.5938V68.2812C64.1094 69.8518 65.3826 71.125 66.9531 71.125ZM66.9531 57.0625C68.5236 57.0625 69.7969 55.7893 69.7969 54.2188V49.5312C69.7969 47.9607 68.5236 46.6875 66.9531 46.6875C65.3826 46.6875 64.1094 47.9607 64.1094 49.5312V54.2188C64.1094 55.7893 65.3826 57.0625 66.9531 57.0625Z" fill="white" stroke="#FF6600"/>
<path d="M5.34375 42.5V42H4.84375H2.34375C1.32552 42 0.5 41.1745 0.5 40.1562C0.5 39.138 1.32552 38.3125 2.34375 38.3125H20.75V79.5H2.34375C1.32552 79.5 0.5 78.6745 0.5 77.6562C0.5 76.638 1.32552 75.8125 2.34375 75.8125H4.84375H5.34375V75.3125V42.5ZM13.0469 46.6875C11.4764 46.6875 10.2031 47.9607 10.2031 49.5312V54.2188C10.2031 55.7893 11.4764 57.0625 13.0469 57.0625C14.6174 57.0625 15.8906 55.7893 15.8906 54.2188V49.5312C15.8906 47.9607 14.6174 46.6875 13.0469 46.6875ZM13.0469 60.75C11.4764 60.75 10.2031 62.0232 10.2031 63.5938V68.2812C10.2031 69.8518 11.4764 71.125 13.0469 71.125C14.6174 71.125 15.8906 69.8518 15.8906 68.2812V63.5938C15.8906 62.0232 14.6174 60.75 13.0469 60.75Z" fill="white" stroke="#FF6600"/>
</svg>
