<svg width="107" height="102" viewBox="0 0 107 102" fill="none" xmlns="http://www.w3.org/2000/svg">
<path d="M36.3238 61.9995C39.0155 61.9995 41.207 60.1601 41.207 57.9011C41.207 55.6421 39.0155 53.8027 36.3238 53.8027C33.6322 53.8027 31.4407 55.6421 31.4407 57.9011C31.4407 60.1601 33.6322 61.9995 36.3238 61.9995ZM36.3238 56.2618C37.4021 56.2618 38.2771 56.9962 38.2771 57.9011C38.2771 58.806 37.4021 59.5404 36.3238 59.5404C35.2456 59.5404 34.3706 58.806 34.3706 57.9011C34.3706 56.9962 35.2456 56.2618 36.3238 56.2618Z" fill="white" stroke="#FF6600"/>
<path d="M16.297 46.3518C18.9105 37.6223 21.3794 29.3764 18.264 26.0256C17.1818 24.86 15.4219 24.2944 12.8846 24.2944C5.23954 24.2944 1.40332 29.4469 1.40332 32.3321C1.40332 32.9174 1.55958 33.3912 1.85257 33.6961C2.13384 33.9879 2.54794 34.1305 3.11829 34.1305C6.03843 34.1305 8.44877 32.742 9.95669 31.5764C10.6521 31.0321 11.658 30.9239 12.5116 31.2994C13.3612 31.6764 13.8183 32.4305 13.6757 33.2207C13.2147 35.8961 11.8416 40.7043 7.92334 48.3862C3.71795 56.6207 14.5977 65.8682 20.2055 69.919C25.3699 65.783 30.1027 63.5731 32.4642 62.6272C30.9719 61.7649 29.9191 60.4174 29.6046 58.86C27.1064 59.1764 20.8755 59.6108 17.4729 56.6764C15.2266 54.742 14.6797 51.7764 15.8458 47.8649L16.297 46.3518Z" fill="white" stroke="#FF6600"/>
<path d="M43.1604 57.9011C43.1604 61.0651 40.0938 63.6388 36.324 63.6388C35.7438 63.6388 35.1891 63.5585 34.65 63.4437L34.7125 63.5847C34.5601 63.6339 19.3149 68.6093 9.84933 84.4962L3.9192 98.2142C3.60277 98.9372 3.72192 99.711 4.24735 100.342C4.77668 100.978 5.61073 101.344 6.53658 101.344C7.63432 101.344 8.63244 100.799 9.08364 99.9585L15.8986 87.0765C16.0783 86.7749 19.8755 80.506 26.5342 77.0618C27.8116 74.611 29.3234 72.3798 30.7337 70.5683C31.0286 70.1897 31.6342 70.0847 32.0854 70.3306C32.5366 70.5782 32.6635 71.0864 32.3686 71.4651C29.8352 74.7208 25.581 81.1241 25.581 87.4093C25.581 91.4274 24.952 95.1224 23.7097 98.3913C23.446 99.0847 23.5886 99.8192 24.1004 100.406C24.62 101.001 25.4208 101.342 26.3037 101.342C27.337 101.342 28.2648 100.865 28.7277 100.098C30.47 97.1962 33.394 91.4749 33.394 85.7683C33.394 81.0519 37.5877 76.9224 41.1056 74.288C42.0841 73.5552 43.4378 73.4487 44.557 74.0126C45.686 74.5847 46.2075 75.6503 45.8891 76.729C45.3735 78.4716 45.1137 80.411 45.1137 82.4913C45.1137 87.6798 41.4415 94.0224 38.3612 98.4323C37.9413 99.0339 37.9374 99.7552 38.3534 100.362C39.1757 101.568 41.4825 101.599 42.34 100.429C44.9457 96.8716 51.1629 87.6864 52.624 79.2667C52.7178 78.7208 53.2549 78.3274 53.9034 78.3274C54.5519 78.3274 55.089 78.7208 55.1847 79.2634C56.6458 87.6847 62.863 96.87 65.4687 100.429C66.3262 101.599 68.631 101.568 69.4553 100.362C69.8694 99.7552 69.8655 99.0339 69.4475 98.4323C66.3653 94.0224 62.6931 87.6798 62.6931 82.4913C62.6931 80.411 62.4333 78.4716 61.9196 76.729C61.6012 75.6503 62.1227 74.5847 63.2517 74.0126C64.369 73.447 65.7246 73.5552 66.7032 74.288C70.2191 76.9241 74.4127 81.0536 74.4127 85.77C74.4127 91.4765 77.3368 97.1978 79.0791 100.099C79.5401 100.867 80.4679 101.344 81.5031 101.344C82.386 101.344 83.1868 101.003 83.7064 100.408C84.2181 99.8208 84.3607 99.0847 84.097 98.3929C82.8548 95.1224 82.2258 91.4274 82.2258 87.4093C82.2258 81.9896 79.1162 76.5241 76.5066 72.8946C76.2273 72.5077 76.3777 72.0028 76.8387 71.7683C77.2997 71.5323 77.8993 71.6585 78.1806 72.047C79.21 73.4798 80.3136 75.188 81.2902 77.07C87.9391 80.5175 91.7304 86.7749 91.8906 87.0437L98.727 99.9618C99.1743 100.801 100.174 101.344 101.272 101.344C102.198 101.344 103.032 100.978 103.561 100.342C104.087 99.711 104.206 98.9372 103.89 98.2175L97.9106 84.411C88.4899 68.611 73.2447 63.6355 73.0923 63.5864L73.1548 63.4454C72.6177 63.5585 72.0629 63.6388 71.4828 63.6388C67.713 63.6388 64.6464 61.0651 64.6464 57.9011C64.6464 55.8274 65.9765 54.0241 67.9474 53.0159C71.1058 49.7978 78.3193 40.8978 78.3193 26.7536C78.3193 8.01916 65.707 1.34375 53.9034 1.34375C42.0998 1.34375 29.4875 8.01916 29.4875 26.7536C29.4875 40.8978 36.7009 49.7978 39.8594 53.0159C41.8302 54.0241 43.1604 55.8274 43.1604 57.9011Z" fill="white" stroke="#FF6600"/>
<path d="M8.28657 62.9515C7.75528 63.0482 7.35681 63.4548 7.35681 63.9171C7.35681 64.4679 7.87248 64.9007 8.52877 64.9007L11.7966 65.0925C11.0563 64.3367 10.3453 63.5433 9.66558 62.7236L8.28657 62.9515Z" fill="white" stroke="#FF6600"/>
<path d="M3.425 53.493C2.89175 53.5881 2.49329 53.9963 2.49329 54.4586C2.49329 55.0094 3.007 55.4422 3.66525 55.4422H5.52867C5.31576 54.7061 5.14778 53.9651 5.07746 53.2192L3.425 53.493Z" fill="white" stroke="#FF6600"/>
<path d="M9.09717 41.3438L5.02656 42.0175C4.49332 42.1142 4.09485 42.5208 4.09485 42.9831C4.09485 43.5339 4.61051 43.9667 5.26681 43.9667H7.9467C8.37251 43.0388 8.75535 42.1634 9.09717 41.3438Z" fill="white" stroke="#FF6600"/>
<path d="M66.5995 57.9011C66.5995 60.1601 68.7911 61.9995 71.4827 61.9995C74.1743 61.9995 76.3658 60.1601 76.3658 57.9011C76.3658 55.6421 74.1743 53.8027 71.4827 53.8027C68.7911 53.8027 66.5995 55.6421 66.5995 57.9011ZM71.4827 56.2618C72.5609 56.2618 73.4359 56.9962 73.4359 57.9011C73.4359 58.806 72.5609 59.5404 71.4827 59.5404C70.4045 59.5404 69.5294 58.806 69.5294 57.9011C69.5294 56.9962 70.4045 56.2618 71.4827 56.2618Z" fill="white" stroke="#FF6600"/>
<path d="M87.6109 69.9141C93.2207 65.86 104.087 56.619 99.8852 48.3879C95.967 40.7043 94.5938 35.8961 94.1329 33.2157C93.9903 32.4305 94.4473 31.678 95.297 31.301C96.1506 30.9223 97.1546 31.0338 97.8558 31.5813C99.3579 32.742 101.768 34.1305 104.688 34.1305C105.259 34.1305 105.673 33.9879 105.954 33.6961C106.249 33.3895 106.403 32.9174 106.403 32.3321C106.403 29.4469 102.567 24.2944 94.922 24.2944C92.3847 24.2944 90.6248 24.86 89.5446 26.0239C86.4292 29.3748 88.8981 37.6207 91.5116 46.3502L91.9628 47.8649C93.1289 51.7764 92.58 54.742 90.3357 56.6764C86.9312 59.6075 80.7041 59.1748 78.2039 58.8584C77.8875 60.4157 76.8367 61.7649 75.3444 62.6256C77.7078 63.5748 82.4464 65.7846 87.6109 69.9141Z" fill="white" stroke="#FF6600"/>
<path d="M96.0099 65.0933L99.2093 64.9048C99.936 64.9031 100.45 64.4703 100.45 63.9179C100.45 63.4556 100.051 63.049 99.5004 62.949L98.139 62.7261C97.4612 63.5457 96.7502 64.3392 96.0099 65.0933Z" fill="white" stroke="#FF6600"/>
<path d="M102.54 43.9667C103.196 43.9667 103.712 43.5339 103.712 42.9831C103.712 42.5208 103.313 42.1142 102.762 42.0142L98.7094 41.3438C99.0492 42.1634 99.4321 43.0388 99.8579 43.9667H102.54Z" fill="white" stroke="#FF6600"/>
<path d="M105.313 54.4586C105.313 53.9963 104.915 53.5881 104.366 53.4897L102.729 53.2192C102.661 53.9651 102.493 54.7061 102.278 55.4422H104.141C104.8 55.4422 105.313 55.0094 105.313 54.4586Z" fill="white" stroke="#FF6600"/>
</svg>
