<svg width="72" height="70" viewBox="0 0 72 70" fill="none" xmlns="http://www.w3.org/2000/svg">
<mask id="path-1-inside-1_233_2333" fill="white">
<path d="M69.75 38.75H67.25V25.7875C68.0388 25.9836 68.8409 26.1215 69.65 26.2H69.75C70.0815 26.2133 70.4047 26.0943 70.6485 25.8692C70.8923 25.6442 71.0367 25.3315 71.05 25C71.0632 24.6685 70.9443 24.3453 70.7192 24.1015C70.4942 23.8577 70.1815 23.7133 69.85 23.7C66.4201 23.3978 63.2267 21.8254 60.8958 19.291C58.565 16.7567 57.2647 13.4432 57.25 10V1.25C57.25 0.918479 57.1183 0.600537 56.8839 0.366117C56.6494 0.131696 56.3315 0 56 0H51C50.6685 0 50.3505 0.131696 50.1161 0.366117C49.8817 0.600537 49.75 0.918479 49.75 1.25V10C49.75 13.6467 48.3013 17.1441 45.7227 19.7227C43.1441 22.3013 39.6467 23.75 36 23.75C32.3532 23.75 28.8559 22.3013 26.2773 19.7227C23.6986 17.1441 22.25 13.6467 22.25 10V1.25C22.25 0.918479 22.1183 0.600537 21.8839 0.366117C21.6494 0.131696 21.3315 0 21 0H16C15.6685 0 15.3505 0.131696 15.1161 0.366117C14.8817 0.600537 14.75 0.918479 14.75 1.25V10C14.7477 13.4518 13.453 16.7777 11.121 19.3226C8.7889 21.8675 5.58847 23.447 2.14998 23.75C1.81845 23.7633 1.50578 23.9077 1.28074 24.1515C1.05569 24.3953 0.936714 24.7185 0.949975 25.05C0.963236 25.3815 1.10765 25.6942 1.35145 25.9192C1.59524 26.1443 1.91845 26.2633 2.24998 26.25H2.34998C3.16026 26.1551 3.96244 26.0005 4.74998 25.7875V38.75H2.24998C1.91845 38.75 1.60051 38.8817 1.36609 39.1161C1.13167 39.3505 0.999975 39.6685 0.999975 40V45C0.999975 45.3315 1.13167 45.6495 1.36609 45.8839C1.60051 46.1183 1.91845 46.25 2.24998 46.25H14.75V52.5C14.4351 52.499 14.1314 52.6169 13.8996 52.8301C13.6679 53.0433 13.5252 53.3361 13.5 53.65L13.05 59.05C11.4955 57.5088 9.39518 56.6441 7.20623 56.6441C5.01727 56.6441 2.91693 57.5088 1.36248 59.05C1.24593 59.1666 1.15348 59.3049 1.0904 59.4572C1.02733 59.6095 0.994861 59.7727 0.994861 59.9375C0.994861 60.1023 1.02733 60.2655 1.0904 60.4178C1.15348 60.5701 1.24593 60.7085 1.36248 60.825C1.47902 60.9415 1.61739 61.034 1.76966 61.0971C1.92194 61.1601 2.08515 61.1926 2.24998 61.1926C2.4148 61.1926 2.57801 61.1601 2.73029 61.0971C2.88256 61.034 3.02093 60.9415 3.13748 60.825C3.67731 60.2845 4.31838 59.8558 5.02403 59.5632C5.72969 59.2707 6.48609 59.1201 7.24998 59.1201C8.01387 59.1201 8.77026 59.2707 9.47592 59.5632C10.1816 59.8558 10.8226 60.2845 11.3625 60.825C12.1356 61.5983 13.0534 62.2117 14.0636 62.6302C15.0738 63.0488 16.1565 63.2642 17.25 63.2642C18.3434 63.2642 19.4262 63.0488 20.4364 62.6302C21.4466 62.2117 22.3644 61.5983 23.1375 60.825C23.6765 60.283 24.3173 59.8529 25.023 59.5595C25.7288 59.266 26.4856 59.1149 27.25 59.1149C28.0143 59.1149 28.7711 59.266 29.4769 59.5595C30.1827 59.8529 30.8235 60.283 31.3625 60.825C32.927 62.3807 35.0437 63.2539 37.25 63.2539C39.4563 63.2539 41.5729 62.3807 43.1375 60.825C43.6773 60.2845 44.3184 59.8558 45.024 59.5632C45.7297 59.2707 46.4861 59.1201 47.25 59.1201C48.0139 59.1201 48.7703 59.2707 49.4759 59.5632C50.1816 59.8558 50.8226 60.2845 51.3625 60.825C52.1356 61.5983 53.0534 62.2117 54.0636 62.6302C55.0738 63.0488 56.1565 63.2642 57.25 63.2642C58.3434 63.2642 59.4262 63.0488 60.4364 62.6302C61.4466 62.2117 62.3644 61.5983 63.1375 60.825C63.9307 60.0343 64.9343 59.488 66.0289 59.2509C67.1235 59.0138 68.2632 59.0959 69.3125 59.4875C69.4682 59.5562 69.6363 59.5923 69.8064 59.5938C69.9766 59.5952 70.1453 59.5619 70.3021 59.4958C70.459 59.4298 70.6007 59.3324 70.7185 59.2097C70.8364 59.0869 70.928 58.9414 70.9876 58.782C71.0473 58.6227 71.0738 58.4528 71.0655 58.2828C71.0572 58.1128 71.0142 57.9464 70.9393 57.7936C70.8644 57.6408 70.7591 57.5049 70.6298 57.3942C70.5005 57.2835 70.35 57.2004 70.1875 57.15C68.6889 56.5892 67.0608 56.4701 65.4966 56.8069C63.9323 57.1437 62.4975 57.9222 61.3625 59.05C60.7189 59.694 59.9302 60.1742 59.0625 60.45L58.5 53.65C58.4748 53.3361 58.332 53.0433 58.1003 52.8301C57.8686 52.6169 57.5649 52.499 57.25 52.5V46.25H69.75C70.0815 46.25 70.3994 46.1183 70.6339 45.8839C70.8683 45.6495 71 45.3315 71 45V40C71 39.6685 70.8683 39.3505 70.6339 39.1161C70.3994 38.8817 70.0815 38.75 69.75 38.75ZM42.25 38.75V25C43.1174 24.6259 43.9534 24.1829 44.75 23.675V38.75H42.25ZM39.75 38.75H37.25V26.25C38.092 26.1849 38.9278 26.0554 39.75 25.8625V38.75ZM34.75 38.75H32.25V25.8C33.0705 26.0139 33.9063 26.1644 34.75 26.25V38.75ZM29.75 38.75H27.25V23.675C28.0465 24.1829 28.8825 24.6259 29.75 25V38.75ZM64.75 38.75H62.25V23.6625C63.0431 24.1797 63.8796 24.6272 64.75 25V38.75ZM59.75 21.6625V38.75H57.25V18.6125C57.9564 19.7269 58.7959 20.7511 59.75 21.6625ZM49.75 18.625V38.75H47.25V21.7C48.2009 20.7764 49.0399 19.7444 49.75 18.625ZM24.75 21.7V38.75H22.25V18.625C22.96 19.7444 23.7991 20.7764 24.75 21.7ZM14.75 18.6125V38.75H12.25V21.6625C13.204 20.7511 14.0436 19.7269 14.75 18.6125ZM7.24998 25C8.11952 24.6352 8.95596 24.1961 9.74998 23.6875V38.75H7.24998V25ZM17.25 60.85C16.6332 60.8406 16.0217 60.7352 15.4375 60.5375L15.9 55H21.1L21.4375 59.05H21.3625C20.8293 59.6043 20.191 60.0467 19.4849 60.3515C18.7788 60.6562 18.019 60.8172 17.25 60.825V60.85ZM41.3625 59.1375C40.8226 59.678 40.1816 60.1067 39.4759 60.3993C38.7703 60.6918 38.0139 60.8424 37.25 60.8424C36.4861 60.8424 35.7297 60.6918 35.024 60.3993C34.3184 60.1067 33.6773 59.678 33.1375 59.1375C31.9326 57.9512 30.3954 57.1592 28.73 56.8668C27.0645 56.5743 25.3495 56.7951 23.8125 57.5L23.5 53.75C23.5 53.4185 23.3683 53.1005 23.1339 52.8661C22.8994 52.6317 22.5815 52.5 22.25 52.5V46.25H49.75V52.5C49.4351 52.499 49.1314 52.6169 48.8997 52.8301C48.6679 53.0433 48.5252 53.3361 48.5 53.65L48.25 56.75C46.9979 56.5944 45.7268 56.7263 44.5333 57.1357C43.3399 57.545 42.2554 58.2211 41.3625 59.1125V59.1375ZM50.7 57.5L50.9 55H56.1L56.575 60.7625C55.2748 60.6195 54.0623 60.0375 53.1375 59.1125C52.4264 58.4355 51.6012 57.8896 50.7 57.5Z"/>
</mask>
<path d="M69.75 38.75H67.25V25.7875C68.0388 25.9836 68.8409 26.1215 69.65 26.2H69.75C70.0815 26.2133 70.4047 26.0943 70.6485 25.8692C70.8923 25.6442 71.0367 25.3315 71.05 25C71.0632 24.6685 70.9443 24.3453 70.7192 24.1015C70.4942 23.8577 70.1815 23.7133 69.85 23.7C66.4201 23.3978 63.2267 21.8254 60.8958 19.291C58.565 16.7567 57.2647 13.4432 57.25 10V1.25C57.25 0.918479 57.1183 0.600537 56.8839 0.366117C56.6494 0.131696 56.3315 0 56 0H51C50.6685 0 50.3505 0.131696 50.1161 0.366117C49.8817 0.600537 49.75 0.918479 49.75 1.25V10C49.75 13.6467 48.3013 17.1441 45.7227 19.7227C43.1441 22.3013 39.6467 23.75 36 23.75C32.3532 23.75 28.8559 22.3013 26.2773 19.7227C23.6986 17.1441 22.25 13.6467 22.25 10V1.25C22.25 0.918479 22.1183 0.600537 21.8839 0.366117C21.6494 0.131696 21.3315 0 21 0H16C15.6685 0 15.3505 0.131696 15.1161 0.366117C14.8817 0.600537 14.75 0.918479 14.75 1.25V10C14.7477 13.4518 13.453 16.7777 11.121 19.3226C8.7889 21.8675 5.58847 23.447 2.14998 23.75C1.81845 23.7633 1.50578 23.9077 1.28074 24.1515C1.05569 24.3953 0.936714 24.7185 0.949975 25.05C0.963236 25.3815 1.10765 25.6942 1.35145 25.9192C1.59524 26.1443 1.91845 26.2633 2.24998 26.25H2.34998C3.16026 26.1551 3.96244 26.0005 4.74998 25.7875V38.75H2.24998C1.91845 38.75 1.60051 38.8817 1.36609 39.1161C1.13167 39.3505 0.999975 39.6685 0.999975 40V45C0.999975 45.3315 1.13167 45.6495 1.36609 45.8839C1.60051 46.1183 1.91845 46.25 2.24998 46.25H14.75V52.5C14.4351 52.499 14.1314 52.6169 13.8996 52.8301C13.6679 53.0433 13.5252 53.3361 13.5 53.65L13.05 59.05C11.4955 57.5088 9.39518 56.6441 7.20623 56.6441C5.01727 56.6441 2.91693 57.5088 1.36248 59.05C1.24593 59.1666 1.15348 59.3049 1.0904 59.4572C1.02733 59.6095 0.994861 59.7727 0.994861 59.9375C0.994861 60.1023 1.02733 60.2655 1.0904 60.4178C1.15348 60.5701 1.24593 60.7085 1.36248 60.825C1.47902 60.9415 1.61739 61.034 1.76966 61.0971C1.92194 61.1601 2.08515 61.1926 2.24998 61.1926C2.4148 61.1926 2.57801 61.1601 2.73029 61.0971C2.88256 61.034 3.02093 60.9415 3.13748 60.825C3.67731 60.2845 4.31838 59.8558 5.02403 59.5632C5.72969 59.2707 6.48609 59.1201 7.24998 59.1201C8.01387 59.1201 8.77026 59.2707 9.47592 59.5632C10.1816 59.8558 10.8226 60.2845 11.3625 60.825C12.1356 61.5983 13.0534 62.2117 14.0636 62.6302C15.0738 63.0488 16.1565 63.2642 17.25 63.2642C18.3434 63.2642 19.4262 63.0488 20.4364 62.6302C21.4466 62.2117 22.3644 61.5983 23.1375 60.825C23.6765 60.283 24.3173 59.8529 25.023 59.5595C25.7288 59.266 26.4856 59.1149 27.25 59.1149C28.0143 59.1149 28.7711 59.266 29.4769 59.5595C30.1827 59.8529 30.8235 60.283 31.3625 60.825C32.927 62.3807 35.0437 63.2539 37.25 63.2539C39.4563 63.2539 41.5729 62.3807 43.1375 60.825C43.6773 60.2845 44.3184 59.8558 45.024 59.5632C45.7297 59.2707 46.4861 59.1201 47.25 59.1201C48.0139 59.1201 48.7703 59.2707 49.4759 59.5632C50.1816 59.8558 50.8226 60.2845 51.3625 60.825C52.1356 61.5983 53.0534 62.2117 54.0636 62.6302C55.0738 63.0488 56.1565 63.2642 57.25 63.2642C58.3434 63.2642 59.4262 63.0488 60.4364 62.6302C61.4466 62.2117 62.3644 61.5983 63.1375 60.825C63.9307 60.0343 64.9343 59.488 66.0289 59.2509C67.1235 59.0138 68.2632 59.0959 69.3125 59.4875C69.4682 59.5562 69.6363 59.5923 69.8064 59.5938C69.9766 59.5952 70.1453 59.5619 70.3021 59.4958C70.459 59.4298 70.6007 59.3324 70.7185 59.2097C70.8364 59.0869 70.928 58.9414 70.9876 58.782C71.0473 58.6227 71.0738 58.4528 71.0655 58.2828C71.0572 58.1128 71.0142 57.9464 70.9393 57.7936C70.8644 57.6408 70.7591 57.5049 70.6298 57.3942C70.5005 57.2835 70.35 57.2004 70.1875 57.15C68.6889 56.5892 67.0608 56.4701 65.4966 56.8069C63.9323 57.1437 62.4975 57.9222 61.3625 59.05C60.7189 59.694 59.9302 60.1742 59.0625 60.45L58.5 53.65C58.4748 53.3361 58.332 53.0433 58.1003 52.8301C57.8686 52.6169 57.5649 52.499 57.25 52.5V46.25H69.75C70.0815 46.25 70.3994 46.1183 70.6339 45.8839C70.8683 45.6495 71 45.3315 71 45V40C71 39.6685 70.8683 39.3505 70.6339 39.1161C70.3994 38.8817 70.0815 38.75 69.75 38.75ZM42.25 38.75V25C43.1174 24.6259 43.9534 24.1829 44.75 23.675V38.75H42.25ZM39.75 38.75H37.25V26.25C38.092 26.1849 38.9278 26.0554 39.75 25.8625V38.75ZM34.75 38.75H32.25V25.8C33.0705 26.0139 33.9063 26.1644 34.75 26.25V38.75ZM29.75 38.75H27.25V23.675C28.0465 24.1829 28.8825 24.6259 29.75 25V38.75ZM64.75 38.75H62.25V23.6625C63.0431 24.1797 63.8796 24.6272 64.75 25V38.75ZM59.75 21.6625V38.75H57.25V18.6125C57.9564 19.7269 58.7959 20.7511 59.75 21.6625ZM49.75 18.625V38.75H47.25V21.7C48.2009 20.7764 49.0399 19.7444 49.75 18.625ZM24.75 21.7V38.75H22.25V18.625C22.96 19.7444 23.7991 20.7764 24.75 21.7ZM14.75 18.6125V38.75H12.25V21.6625C13.204 20.7511 14.0436 19.7269 14.75 18.6125ZM7.24998 25C8.11952 24.6352 8.95596 24.1961 9.74998 23.6875V38.75H7.24998V25ZM17.25 60.85C16.6332 60.8406 16.0217 60.7352 15.4375 60.5375L15.9 55H21.1L21.4375 59.05H21.3625C20.8293 59.6043 20.191 60.0467 19.4849 60.3515C18.7788 60.6562 18.019 60.8172 17.25 60.825V60.85ZM41.3625 59.1375C40.8226 59.678 40.1816 60.1067 39.4759 60.3993C38.7703 60.6918 38.0139 60.8424 37.25 60.8424C36.4861 60.8424 35.7297 60.6918 35.024 60.3993C34.3184 60.1067 33.6773 59.678 33.1375 59.1375C31.9326 57.9512 30.3954 57.1592 28.73 56.8668C27.0645 56.5743 25.3495 56.7951 23.8125 57.5L23.5 53.75C23.5 53.4185 23.3683 53.1005 23.1339 52.8661C22.8994 52.6317 22.5815 52.5 22.25 52.5V46.25H49.75V52.5C49.4351 52.499 49.1314 52.6169 48.8997 52.8301C48.6679 53.0433 48.5252 53.3361 48.5 53.65L48.25 56.75C46.9979 56.5944 45.7268 56.7263 44.5333 57.1357C43.3399 57.545 42.2554 58.2211 41.3625 59.1125V59.1375ZM50.7 57.5L50.9 55H56.1L56.575 60.7625C55.2748 60.6195 54.0623 60.0375 53.1375 59.1125C52.4264 58.4355 51.6012 57.8896 50.7 57.5Z" fill="white" stroke="#FF6600" stroke-width="2" mask="url(#path-1-inside-1_233_2333)"/>
<path d="M2.25 68H69.75C69.9489 68 70.1397 68.079 70.2803 68.2197C70.421 68.3603 70.5 68.5511 70.5 68.75C70.5 68.9489 70.421 69.1397 70.2803 69.2803C70.1397 69.421 69.9489 69.5 69.75 69.5H2.25C2.05109 69.5 1.86032 69.421 1.71967 69.2803C1.57902 69.1397 1.5 68.9489 1.5 68.75C1.5 68.5511 1.57902 68.3603 1.71967 68.2197C1.86032 68.079 2.05109 68 2.25 68Z" fill="white" stroke="#FF6600"/>
</svg>
