<svg width="86" height="88" viewBox="0 0 86 88" fill="none" xmlns="http://www.w3.org/2000/svg">
<path d="M72.7366 4.75552C72.3017 3.97924 71.1436 4.13156 70.9204 4.98939L70.4603 6.74527C68.6431 3.08003 65.0307 1.00807 61.2929 0.921875C60.3777 0.926151 59.9723 1.96857 60.5514 2.5846C67.1255 9.57592 67.5606 20.9203 60.3117 28.4118C58.8959 28.1901 57.2573 28.3382 55.7939 28.874C51.8652 30.2792 46.4668 35.4088 43.689 38.6654C41.8387 40.8485 40.3 43.1897 38.812 45.4544C34.5126 51.9881 36.1865 49.8105 33.3439 54.5095C33.0753 53.9749 32.8042 53.4404 32.5305 52.9058C32.0614 51.9924 30.6857 52.3186 30.6654 53.3376C30.614 56.0141 29.924 58.7312 28.6988 61.1404C28.2564 60.4158 27.9773 59.9577 27.482 59.1449C26.9899 58.3362 25.7393 58.6227 25.656 59.5715C25.3119 63.4662 23.8865 67.3236 21.203 71.6668C16.7101 72.191 4.54688 74.0786 4.54688 79.106C4.54688 89.779 58.2443 89.6918 58.2443 79.106C58.2443 77.7439 57.3421 76.5097 55.5643 75.4278C56.683 73.2177 57.5496 70.8839 58.1139 68.4589C58.6298 66.2224 58.8868 63.8652 58.8829 61.4238C60.516 62.8888 62.1359 63.7803 64.5039 65.153C66.6089 67.973 68.1536 73.2206 66.8759 77.8429C66.1653 77.9084 65.4285 77.9874 64.8233 78.3691C64.2311 78.7372 63.8233 79.5268 64.0996 80.1847C64.6103 81.2639 66.7755 81.469 67.9612 81.3546C68.1013 82.5134 68.9413 83.1514 70.0543 83.4857C72.5021 84.2162 75.2442 83.6611 77.2108 82.0415C80.0761 79.7009 79.8692 76.5896 80.1983 73.6893C81.0066 66.4601 77.6487 63.9616 76.1957 61.2497C75.1935 59.3537 74.6377 56.9252 74.6262 54.6129L75.6323 55.8683C76.2122 56.5935 77.3888 56.1809 77.3888 55.2509C77.3888 52.2152 76.5921 49.1589 75.1427 46.4714C75.9704 46.7595 76.7346 45.9045 76.3589 45.1158C74.615 41.454 72.1589 38.0531 69.2447 35.2201C74.5154 30.3511 77.8152 23.5849 78.2947 16.5019C78.3657 15.4746 76.9959 15.0367 76.4624 15.9307C75.9901 16.7248 75.4235 17.4675 74.7797 18.1409C75.7081 13.6191 75.0033 8.80312 72.7366 4.75552ZM19.795 73.8338C18.5818 75.6201 17.9403 76.4036 17.5442 76.9119C12.4737 77.6803 8.70369 78.8471 7.08851 80.2059C6.71001 79.8053 6.52056 79.4446 6.52056 79.106C6.52056 77.3726 11.1559 75.0333 19.795 73.8338ZM56.2706 79.106C56.2706 79.2528 56.2204 79.4157 56.1351 79.593C55.4994 79.2297 54.6966 78.8869 53.7663 78.5676C54.1039 78.045 54.4682 77.4503 54.6323 77.1708C55.6841 77.8307 56.2706 78.5149 56.2706 79.106ZM75.8385 19.8755C74.716 25.2042 71.8878 30.1481 67.8051 33.876C67.718 33.7999 67.1664 33.2879 66.885 33.0277C66.486 32.6576 65.8602 32.6814 65.4908 33.0816C65.1201 33.4812 65.1445 34.1057 65.5448 34.4758C66.4541 35.4046 69.9924 38.0314 73.1446 43.2938C72.9827 43.2135 72.8208 43.1331 72.6595 43.0522C71.6983 42.5738 70.7726 43.7638 71.4684 44.5768C73.2757 46.6867 74.5272 49.2958 75.0862 52.0314L74.6184 51.4487C74.0859 50.7848 73.0259 51.0658 72.878 51.8933C72.2766 55.2592 72.8793 59.1976 74.4533 62.1768C76.0334 65.1259 78.9543 67.059 78.2375 73.4676C77.907 76.3474 78.1312 78.7412 75.9593 80.5149C73.5361 82.5081 70.1523 81.7893 69.9142 81.151C69.9072 81.0032 70.0402 80.7623 70.2798 80.6197C70.6839 80.3588 71.3174 80.2991 71.8764 80.2464C72.2824 80.2085 72.6229 79.9245 72.7334 79.5319C73.7657 75.8773 73.2001 71.8414 71.6528 68.6632C70.4102 65.8244 70.1456 65.4965 67.388 64.358C65.5313 63.5892 65.9587 63.6652 64.9479 63.1283C60.3774 60.4831 60.4761 60.1066 59.74 59.5535C56.0894 56.5344 54.7833 53.4644 54.509 50.8506C54.4518 50.3083 53.9654 49.926 53.4238 49.9723C52.8822 50.0295 52.489 50.5152 52.5456 51.0574C52.8806 54.2432 54.4381 57.2207 56.828 59.3412C57.0242 62.3801 56.8174 65.2985 56.191 68.0136C54.9356 73.4091 52.1145 78.5257 47.9339 82.4192C42.0409 83.6413 35.6129 84.5068 29.3856 84.7778C25.4196 84.9538 21.1619 84.8529 16.892 82.966C16.6685 82.8677 16.2843 82.6647 16.2264 82.4134C16.046 81.624 17.7695 79.7972 18.3363 79.0996C22.1659 74.4286 25.985 68.3908 27.2147 62.4954C27.4402 62.8642 27.6651 63.2311 27.8906 63.5973C28.2611 64.1984 29.1604 64.2457 29.5649 63.6069C30.8903 61.5092 31.8065 59.1944 32.2768 56.7851C32.305 56.8416 32.3333 56.8982 32.3616 56.9554C32.691 57.6142 33.6343 57.7116 34.0667 57.0594C36.0039 54.1406 37.4268 51.0858 39.3151 48.2723C41.2533 45.3731 42.9658 42.572 45.1931 39.9439C47.7402 36.9565 52.9465 31.9893 56.4653 30.7295C58.1257 30.121 60.5735 30.0119 61.8634 31.0668L62.3465 31.5146C62.7449 31.8847 63.37 31.8622 63.7413 31.4613C64.1114 31.0617 64.0876 30.4372 63.688 30.0665C63.3079 29.7615 63.3069 29.5902 62.3627 29.0748C69.0132 21.5199 69.1661 10.9873 63.6944 3.31317C67.0599 4.40292 69.2068 7.32179 69.539 10.5108C69.6525 11.6002 71.2029 11.7143 71.4761 10.6567L72.1327 8.15101C73.5911 12.1202 73.5738 16.5957 72.0106 20.5598C71.6611 21.4451 72.6535 22.2648 73.4562 21.7554C74.3158 21.2119 75.1151 20.5803 75.8385 19.8755Z" fill="#FF6600"/>
<path d="M81.2619 26.7776C80.8925 26.3748 80.2674 26.3504 79.8671 26.7179C78.0277 28.4063 76.6425 30.5438 75.86 32.8991C75.6885 33.4163 75.9686 33.9746 76.4858 34.1468C77.0057 34.318 77.5623 34.0363 77.7335 33.521C78.4196 31.4542 79.5864 29.6546 81.2022 28.1724C81.6037 27.8037 81.6301 27.1792 81.2619 26.7776Z" fill="#FF6600"/>
<path d="M79.7911 34.1186C79.3191 34.7756 79.7999 35.6805 80.5922 35.6805C80.8993 35.6805 81.2019 35.5372 81.3947 35.2686C82.113 34.267 83.1872 33.5006 84.5004 33.0515C85.0157 32.8754 85.2913 32.3145 85.1146 31.7986C84.9379 31.2827 84.3764 31.0039 83.8618 31.1844C82.1579 31.7665 80.7496 32.781 79.7911 34.1186Z" fill="#FF6600"/>
<path d="M56.6747 9.29012C56.1408 9.23616 55.648 9.62806 55.5915 10.1703C55.1861 14.0772 55.8401 18.0278 57.4823 21.5948C57.6487 21.9565 58.0059 22.1692 58.3792 22.1692C59.093 22.1692 59.5773 21.426 59.2748 20.7699C57.781 17.5234 57.1861 13.9288 57.5549 10.3733C57.6108 9.83173 57.2169 9.34666 56.6747 9.29012Z" fill="#FF6600"/>
<path d="M53.3739 17.2445C52.8355 17.3287 52.4674 17.8337 52.5522 18.372C52.788 19.8774 53.4189 21.2992 54.3755 22.4839C54.5708 22.7248 54.8561 22.8501 55.1439 22.8501C55.9663 22.8501 56.434 21.8901 55.9111 21.2426C55.1716 20.3277 54.6839 19.2298 54.5015 18.0662C54.4173 17.5285 53.9142 17.1558 53.3739 17.2445Z" fill="#FF6600"/>
<path d="M47.599 68.5476C47.0876 68.3715 46.5222 68.6375 46.341 69.1528C46.0436 70.0021 45.5302 70.7718 44.8743 71.3905C45.2038 69.8325 45.1435 68.1884 44.6687 66.6735C44.425 65.8962 43.4005 65.736 42.9269 66.3901C42.1354 67.4849 40.9577 68.3079 39.6606 68.7294C41.0252 66.5135 41.8064 63.9172 41.854 61.3281C41.8636 60.7833 41.4299 60.3335 40.8851 60.3232C40.8793 60.3232 40.8729 60.3232 40.8665 60.3232C40.33 60.3232 39.8906 60.7531 39.8803 61.2921C39.8263 64.2276 38.6814 67.1733 36.7386 69.3738C36.1865 69.9987 36.6133 70.9854 37.444 71.0134C39.5 71.0879 41.5308 70.3619 43.1017 69.0635C43.1691 70.4763 42.8325 71.9129 42.1193 73.1303C41.6649 73.9071 42.4035 74.8354 43.2642 74.5714C45.527 73.8673 47.4204 72.0413 48.2036 69.8055C48.3841 69.2916 48.1136 68.7281 47.599 68.5476Z" fill="#FF6600"/>
<path d="M11.4846 47.5956C12.8116 49.2137 13.133 49.7297 13.7397 50.0589C14.4067 50.4474 15.2231 50.4944 15.8496 50.0846C16.785 49.4716 16.785 48.3203 16.785 47.9104L16.8068 46.9698C21.3887 45.8664 26.3708 43.105 28.5969 38.9903C32.7216 31.3638 24.0655 25.0511 12.5408 28.4704C4.61523 30.8219 -0.410852 36.6562 1.09832 41.7536C2.14106 45.2589 6.19123 47.523 11.4846 47.5956ZM13.103 30.3625C17.3844 29.0904 21.831 29.2658 24.7042 30.8276C27.6113 32.4057 28.4317 35.1477 26.8609 38.051C24.8375 41.7911 19.9036 44.3359 15.6414 45.2075C15.1904 45.2994 14.8627 45.6913 14.8518 46.1513L14.8113 47.8873C14.8113 48.4522 14.8252 48.5839 14.2042 47.8147C13.712 47.1992 13.2199 46.5978 12.7136 45.9824C12.526 45.7543 12.2466 45.6226 11.9517 45.6226C11.9478 45.6226 11.9446 45.6226 11.9407 45.6226C7.28922 45.6778 3.80571 43.9329 2.99041 41.1921C1.83524 37.2909 6.4662 32.3317 13.103 30.3625Z" fill="#FF6600"/>
<path d="M12.4099 36.6559C12.9457 36.7247 13.4475 36.3527 13.5227 35.813C13.6246 35.0653 14.4887 34.6736 15.118 35.096C15.3419 35.246 15.4642 35.369 14.9657 35.8727C14.461 36.3547 14.0212 36.7471 13.745 37.3318C13.1286 38.6406 13.9585 40.1105 14.9875 40.1105C15.9824 40.1105 16.3475 38.8038 15.5086 38.2852C15.5086 38.0302 16.0018 37.613 16.3708 37.2598C17.7568 35.8567 17.4724 34.2994 16.2172 33.457C14.3781 32.2245 11.8707 33.3463 11.567 35.5431C11.4925 36.0828 11.8702 36.5814 12.4099 36.6559Z" fill="#FF6600"/>
<path d="M15.5879 40.5508C14.9352 41.2035 15.4813 42.2662 16.2966 42.2662C17.1806 42.2662 17.6167 41.1842 16.9834 40.5508C16.5979 40.1653 15.9734 40.1653 15.5879 40.5508Z" fill="#FF6600"/>
</svg>
