<svg width="80" height="65" viewBox="0 0 80 65" fill="none" xmlns="http://www.w3.org/2000/svg">
<path d="M68.0119 15.6547L68.0139 15.656C68.3367 15.8671 68.6629 16.0845 68.9961 16.3067L68.9964 16.3069C69.3282 16.5281 69.6667 16.7537 70.0117 16.9796C73.4797 19.284 75.5 23.1874 75.5 27.325C75.5 30.6904 74.2001 33.7422 72.0623 36H27.9392C25.8105 33.7287 24.5 30.6761 24.5 27.325C24.5 23.1861 26.5088 19.2832 29.9885 16.9794L29.9898 16.9785C30.2752 16.7883 30.5653 16.5972 30.8548 16.4065C31.2385 16.1537 31.6211 15.9017 31.9899 15.6535C31.9905 15.6531 31.9911 15.6527 31.9917 15.6523L32.0907 15.5869C38.955 11.0521 44.4237 7.43927 48.8 1.6C49.0806 1.2259 49.5324 1 50 1C50.4676 1 50.9194 1.2259 51.2 1.6C55.5763 7.43927 61.045 11.0521 67.9093 15.5869L68.0119 15.6547ZM43.5 57.25V64H36.5V55.5C36.5 53.5614 34.9386 52 33 52C31.0614 52 29.5 53.5614 29.5 55.5V64H24C22.0636 64 20.5 62.4364 20.5 60.5V44.5C20.5 42.5636 22.0636 41 24 41H76C77.9364 41 79.5 42.5636 79.5 44.5V60.5C79.5 62.4364 77.9364 64 76 64H70.5V55.5C70.5 53.5614 68.9386 52 67 52C65.0614 52 63.5 53.5614 63.5 55.5V64H56.5V57.25C56.5 54.727 55.3844 52.3364 53.4456 50.7163L53.4448 50.7156L50.3198 48.1156L50 47.8496L49.6802 48.1156L46.5552 50.7156L46.5544 50.7163C44.6156 52.3364 43.5 54.727 43.5 57.25ZM9.1 1.55L9.10112 1.54916C9.63539 1.14611 10.3646 1.14611 10.8989 1.54916L10.9 1.55L12.8996 3.04972C12.8998 3.04981 12.8999 3.04991 12.9 3.05C16.9829 6.1183 19.4208 10.9013 19.4981 16H0.501894C0.579175 10.9013 3.01714 6.1183 7.1 3.05C7.10012 3.04991 7.10025 3.04981 7.10037 3.04972L9.1 1.55ZM0.5 21H19.5V37.293C17.1033 38.7967 15.5 41.4549 15.5 44.5V60.5C15.5 61.598 15.7071 62.6369 16.078 63.5983C15.4351 63.8614 14.7346 64 14 64H6C2.96364 64 0.5 61.5364 0.5 58.5V22.5V21Z" fill="white" stroke="#FF6600"/>
</svg>
