<svg width="100" height="100" viewBox="0 0 100 100" fill="none" xmlns="http://www.w3.org/2000/svg">
<path d="M25.4141 23.8052C21.6 23.8052 18.4971 26.9081 18.4971 30.7222V32.9737C18.4971 33.6046 19.1264 34.0364 19.7086 33.8241C24.5258 32.0833 29.9793 32.0847 34.8098 33.8245C35.3975 34.0351 36.0203 33.6013 36.0203 32.9737V30.7222C36.0203 26.9081 32.9174 23.8052 29.1033 23.8052H25.4141ZM34.2119 30.7222V31.7231C31.9646 31.0464 29.6287 30.7042 27.2498 30.7042C24.874 30.7042 22.5443 31.046 20.3055 31.7218V30.7222C20.3055 27.9054 22.5973 25.6136 25.4141 25.6136H29.1033C31.9201 25.6136 34.2119 27.9054 34.2119 30.7222Z" fill="#FF6600"/>
<path d="M80.623 33.8778C81.1228 33.8778 81.5271 33.4729 81.5271 32.9737V30.7222C81.5271 26.9081 78.4207 23.8052 74.6018 23.8052H70.9215C67.1025 23.8052 63.9951 26.9081 63.9951 30.7222V32.9737C63.9951 33.4731 64.3996 33.8778 64.8992 33.8778C65.399 33.8778 65.8033 33.4729 65.8033 32.9737V30.7222C65.8033 27.9054 68.0992 25.6136 70.9213 25.6136H74.6016C77.4228 25.6136 79.7186 27.9054 79.7186 30.7222V32.9737C79.7189 33.4729 80.1234 33.8778 80.623 33.8778Z" fill="#FF6600"/>
<path d="M27.2523 40.6523C19.3596 40.6523 12.9385 47.0736 12.9385 54.9662C12.9385 62.8664 19.3598 69.2937 27.2523 69.2937C35.1525 69.2937 41.5799 62.8664 41.5799 54.9662C41.5799 47.0734 35.1525 40.6523 27.2523 40.6523ZM27.2523 67.4855C20.357 67.4855 14.7469 61.8697 14.7469 54.9664C14.7469 48.0711 20.357 42.4609 27.2523 42.4609C34.1557 42.4609 39.7715 48.0711 39.7715 54.9664C39.7715 61.8695 34.1557 67.4855 27.2523 67.4855Z" fill="#FF6600"/>
<path d="M92.51 54.7017C91.9944 54.6593 91.5961 55.0831 91.5828 55.5819C91.558 56.5634 91.4539 57.5294 91.2746 58.453C91.1793 58.9431 91.4988 59.4181 91.9899 59.513C92.4738 59.6083 92.9535 59.2921 93.0494 58.7981C93.2481 57.7761 93.3629 56.7099 93.3912 55.6286C93.4037 55.1296 93.0098 54.7145 92.51 54.7017Z" fill="#FF6600"/>
<path d="M91.4367 61.4204C90.9768 61.2368 90.4469 61.4628 90.2633 61.9276C87.3996 69.1497 80.5281 73.8163 72.7578 73.8163C62.3729 73.8163 53.9234 65.3589 53.9234 54.9638C53.9234 44.5782 62.3729 36.1292 72.7578 36.1292C80.5336 36.1292 87.4086 40.7958 90.2723 48.0185C90.4568 48.4829 90.9867 48.7085 91.4457 48.5257C91.9102 48.3415 92.1371 47.8161 91.9535 47.3517C88.8145 39.4355 81.2797 34.3208 72.7578 34.3208C64.4836 34.3208 57.3352 39.2163 54.0455 46.2606C53.1748 44.9567 51.6918 44.0946 50.009 44.0946C48.3275 44.0946 46.8457 44.9563 45.9758 46.2597C42.6832 39.2167 35.5309 34.3228 27.2527 34.3228C15.8699 34.3228 6.60938 43.5833 6.60938 54.9661C6.60938 66.3563 15.8699 75.6231 27.2527 75.6231C33.2523 75.6231 38.6609 73.0499 42.4383 68.9515C42.6229 72.9753 45.9426 76.1944 50.0082 76.1944C54.0769 76.1944 57.398 72.9759 57.5834 68.9524C61.3582 73.0511 66.7625 75.6243 72.758 75.6243C81.2746 75.6243 88.8057 70.5095 91.9447 62.5938C92.1281 62.1304 91.9012 61.6046 91.4367 61.4204ZM50.0088 45.9034C51.652 45.9034 52.9861 47.2126 53.042 48.8401C52.4396 50.7757 52.1146 52.8325 52.1146 54.9638C52.1146 57.3438 52.5238 59.629 53.267 61.7585C52.2777 61.286 51.1754 61.0136 50.0078 61.0136C48.8436 61.0136 47.7441 61.2849 46.7572 61.7556C47.5002 59.6276 47.909 57.3444 47.909 54.9663C47.909 52.8329 47.5834 50.7741 46.9795 48.8366C47.0371 47.2108 48.3695 45.9034 50.0088 45.9034ZM27.2525 73.8151C16.867 73.8151 8.41758 65.3595 8.41758 54.9665C8.41758 44.581 16.867 36.1315 27.2525 36.1315C37.6455 36.1315 46.1008 44.581 46.1008 54.9665C46.1008 65.3595 37.6455 73.8151 27.2525 73.8151ZM50.008 74.3864C46.8213 74.3864 44.2287 71.7913 44.2287 68.6019C44.2287 65.4151 46.8213 62.8222 50.008 62.8222C53.1975 62.8222 55.7926 65.4151 55.7926 68.6019C55.7926 71.7913 53.1975 74.3864 50.008 74.3864Z" fill="#FF6600"/>
<path d="M72.7549 40.6523C64.8617 40.6523 58.4404 47.0736 58.4404 54.9662C58.4404 62.8664 64.8617 69.2937 72.7549 69.2937C80.6551 69.2937 87.0824 62.8664 87.0824 54.9662C87.0824 47.0734 80.6551 40.6523 72.7549 40.6523ZM72.7549 67.4855C65.8586 67.4855 60.2488 61.8697 60.2488 54.9664C60.2488 48.0711 65.8586 42.4609 72.7549 42.4609C79.6582 42.4609 85.274 48.0711 85.274 54.9664C85.274 61.8695 79.6582 67.4855 72.7549 67.4855Z" fill="#FF6600"/>
<path d="M27.2527 46.0776C26.7533 46.0776 26.3486 46.4825 26.3486 46.9817C26.3486 47.481 26.7535 47.8858 27.2527 47.8858C31.1645 47.8858 34.3469 51.062 34.3469 54.9661C34.3469 55.4655 34.7518 55.8702 35.251 55.8702C35.7502 55.8702 36.1551 55.4653 36.1551 54.9661C36.1553 50.0653 32.1613 46.0776 27.2527 46.0776Z" fill="#FF6600"/>
<path d="M72.7547 46.0776C72.2549 46.0776 71.8506 46.4825 71.8506 46.9817C71.8506 47.481 72.2551 47.8858 72.7547 47.8858C76.6664 47.8858 79.8488 51.062 79.8488 54.9661C79.8488 55.4655 80.2533 55.8702 80.7529 55.8702C81.2527 55.8702 81.657 55.4653 81.657 54.9661C81.657 50.0653 77.6633 46.0776 72.7547 46.0776Z" fill="#FF6600"/>
</svg>
