<svg width="103" height="60" viewBox="0 0 103 60" fill="none" xmlns="http://www.w3.org/2000/svg">
<path fill-rule="evenodd" clip-rule="evenodd" d="M58.5415 55.9338C58.4872 56.0226 58.4245 56.1082 58.3516 56.1873C58.3516 56.1873 57.2159 57.3287 56.2056 57.9583C55.5344 58.3764 55.0208 58.4975 55.0208 58.4975C54.7377 58.8042 54.2478 58.8365 53.924 58.5685C53.6003 58.3005 53.5664 57.8323 53.8478 57.524C53.8478 57.524 53.902 57.0219 54.2461 56.3326C54.2936 56.239 54.3444 56.1421 54.3987 56.0468C54.9682 56.289 55.5954 56.4311 56.2836 56.4327C56.965 56.4327 57.7194 56.2874 58.5415 55.9338ZM51.5763 53.6027C51.7967 53.9191 52.0459 54.2387 52.3273 54.5422C52.751 55.0007 53.2426 55.4205 53.8037 55.7466C53.363 56.0081 52.8358 56.2955 52.351 56.4908C51.6119 56.7878 51.0831 56.8169 51.0831 56.8169C50.7474 57.0704 50.2592 57.0187 49.9897 56.7007C49.7236 56.381 49.7795 55.9145 50.1135 55.6594C50.1135 55.6594 50.2609 55.1751 50.7305 54.5552C50.9712 54.2339 51.278 53.9013 51.5763 53.6027ZM51.239 50.1205L50.8169 50.2964C50.4169 50.4659 50.2169 50.897 50.3559 51.2925C50.3559 51.2925 50.6881 52.2401 51.3814 53.3121C50.8729 53.3896 50.2796 53.4606 49.7592 53.4622C48.9574 53.4655 48.4574 53.2992 48.4574 53.2992C48.0455 53.4106 47.6149 53.1829 47.4962 52.7906C47.3793 52.3984 47.6183 51.9883 48.0302 51.8753C48.0302 51.8753 48.3624 51.483 49.0456 51.0826C49.749 50.6694 50.7051 50.3077 51.239 50.1205ZM84.7408 45.3387C85.8087 45.7649 86.9919 45.9425 88.1598 45.7197C88.1937 45.7148 88.226 45.7084 88.2582 45.7003C87.948 46.1104 87.2648 46.966 86.6038 47.5375C86.0105 48.0508 85.5223 48.2462 85.5223 48.2462C85.2934 48.59 84.8137 48.6966 84.451 48.4803C84.0882 48.2623 83.9781 47.8055 84.2052 47.46C84.2052 47.46 84.1764 46.9563 84.4018 46.2234C84.49 45.936 84.6103 45.6325 84.7408 45.3387ZM81.4778 42.7831C82.0406 43.6226 82.9169 44.4088 83.9543 44.9706C83.6187 45.1966 82.5406 45.9021 81.6151 46.2734C80.8777 46.5705 80.3489 46.6011 80.3489 46.6011C80.0132 46.8546 79.5233 46.8029 79.2555 46.4833C78.9894 46.1652 79.0436 45.6987 79.3776 45.4436C79.3776 45.4436 79.5267 44.9593 79.9946 44.3394C80.4217 43.7727 81.0506 43.1706 81.4778 42.7831ZM81.0811 39.4575C81.054 39.5076 81.0269 39.5592 81.0032 39.6109C80.6692 40.3277 80.698 41.1671 81.0523 42.0066C81.1439 42.2262 81.2608 42.4457 81.3981 42.6621L81.3354 42.675C81.1794 42.7073 81.0235 42.7363 80.8676 42.7654C80.3861 42.8525 79.8997 42.9252 79.4098 42.9656C79.1758 42.9849 78.9402 42.9978 78.7063 42.9962C78.5249 42.9962 78.3419 42.9865 78.1622 42.9672C77.9995 42.9494 77.8367 42.9252 77.6774 42.8897C77.6282 42.8784 77.5791 42.8671 77.5299 42.8542C77.5147 42.8493 77.4994 42.8461 77.4841 42.8413L77.4604 42.8332C77.457 42.8332 77.4536 42.8348 77.4502 42.8364C77.4418 42.838 77.4316 42.8412 77.4214 42.8429C77.396 42.8493 77.3706 42.8525 77.3435 42.8558C77.2553 42.8671 77.1655 42.8622 77.079 42.8445C76.8976 42.8057 76.7349 42.7056 76.6247 42.5636C76.579 42.5071 76.5434 42.4457 76.5179 42.3795C76.4925 42.315 76.4773 42.2472 76.4722 42.1777C76.4654 42.1003 76.4722 42.0211 76.4925 41.9437C76.5146 41.8581 76.5535 41.7758 76.6078 41.7015C76.662 41.6256 76.7315 41.5594 76.8129 41.5078C76.8587 41.4787 76.9078 41.4545 76.9587 41.4335C76.9739 41.4287 76.9892 41.4238 77.0044 41.4174L77.0333 41.4093C77.0366 41.4077 77.0383 41.4028 77.0417 41.3996C77.0468 41.3932 77.0519 41.3883 77.057 41.3819C77.0722 41.3657 77.0875 41.3496 77.1044 41.3334C77.1621 41.2753 77.2231 41.2188 77.2841 41.1639C77.474 40.996 77.6791 40.8459 77.8944 40.7103C78.1757 40.5327 78.4741 40.3809 78.7775 40.2405C79.1216 40.0823 79.4725 39.9386 79.8268 39.8046C80.0115 39.7368 80.1963 39.669 80.3828 39.606C80.4692 39.577 80.5557 39.5463 80.6438 39.5189C80.6743 39.5092 80.7065 39.5027 80.7387 39.4963C80.8116 39.4801 80.8862 39.4688 80.9608 39.4624C80.9998 39.4591 81.0404 39.4575 81.0811 39.4575Z" fill="white" stroke="#FF6600"/>
<path fill-rule="evenodd" clip-rule="evenodd" d="M9.53119 37.7494C9.50916 37.6799 9.4956 37.6057 9.4956 37.5282C9.4956 37.5282 9.51085 36.6338 9.6668 35.9978C9.76681 35.5909 9.91768 35.3407 9.91768 35.3407C9.91429 35.1373 10.0855 34.9678 10.2991 34.9662C10.5127 34.9613 10.6889 35.1244 10.6923 35.3294C10.6923 35.3294 10.8534 35.5732 10.9669 35.9784C11.0161 36.1608 11.0568 36.3642 11.0873 36.5628C11.267 36.4159 11.445 36.2674 11.6212 36.1172C11.5941 36.0381 11.5772 35.9558 11.5755 35.867C11.5755 35.867 11.5924 34.9726 11.7484 34.3382C11.8467 33.9297 11.9993 33.6795 11.9993 33.6795C11.9959 33.4761 12.1654 33.3066 12.3806 33.305C12.5942 33.3001 12.7705 33.4632 12.7739 33.6682C12.7739 33.6682 12.9349 33.912 13.0468 34.3188C13.0858 34.4576 13.118 34.6094 13.1451 34.7611C13.3791 34.5448 13.6011 34.3366 13.8079 34.1396C13.8249 33.8232 13.8672 33.3131 13.9673 32.9078C14.0656 32.4994 14.2181 32.2492 14.2181 32.2492C14.213 32.0458 14.3842 31.8763 14.5995 31.8746C14.8131 31.8698 14.9894 32.0328 14.9928 32.2379C14.9928 32.2379 15.1267 32.4429 15.2369 32.7868C15.4488 32.882 15.6759 32.9789 15.9149 33.0757C15.8658 32.9676 15.8081 32.8239 15.7607 32.6512C15.5962 32.0603 15.5437 31.2386 15.5386 31.1385C14.8267 30.8075 14.3775 30.5557 14.3775 30.5557C14.2842 30.5024 14.1808 30.4685 14.0757 30.4524C14.0571 30.7704 14.0147 31.2725 13.9164 31.6728C13.8181 32.0797 13.6655 32.3299 13.6655 32.3299C13.6706 32.5333 13.4994 32.7028 13.2841 32.706C13.0706 32.7093 12.8943 32.5462 12.8909 32.3428C12.8909 32.3428 12.7298 32.0974 12.618 31.6922C12.5451 31.4291 12.4942 31.1207 12.4586 30.8495C11.8162 31.011 11.2178 31.111 10.6686 31.1627C10.6432 31.4452 10.6008 31.7762 10.533 32.0555C10.433 32.4639 10.2821 32.7141 10.2821 32.7141C10.2855 32.9175 10.1143 33.087 9.90073 33.0887C9.68714 33.0935 9.51085 32.9304 9.50746 32.7254C9.50746 32.7254 9.34643 32.4816 9.23286 32.0748C9.15658 31.7972 9.10403 31.4662 9.06843 31.1853C8.71247 31.1579 8.38531 31.1127 8.08698 31.0529C8.06324 31.2257 8.03273 31.4 7.99544 31.5566C7.89543 31.9651 7.74457 32.2153 7.74457 32.2153C7.74796 32.4187 7.57675 32.5882 7.36148 32.5898C7.14959 32.5947 6.9716 32.4316 6.96821 32.2266C6.96821 32.2266 6.80887 31.9828 6.6953 31.576C6.60377 31.2483 6.54783 30.8495 6.51393 30.5412C5.99353 30.2926 5.73419 30.0682 5.73419 30.0682L5.59519 30.0149C5.56976 30.3055 5.52738 30.6509 5.45619 30.9431C5.35787 31.3516 5.20532 31.6018 5.20532 31.6018C5.2104 31.8052 5.0392 31.9731 4.82392 31.9763C4.61034 31.9812 4.43405 31.8181 4.43066 31.6131C4.43066 31.6131 4.26962 31.3677 4.15775 30.9625C4.05774 30.6041 4.0001 30.1602 3.9679 29.8454H2.86778C2.84744 30.1602 2.80337 30.5912 2.71692 30.9431C2.6186 31.3516 2.46604 31.6018 2.46604 31.6018C2.46943 31.8052 2.29993 31.9731 2.08465 31.9763C1.87107 31.9812 1.69478 31.8181 1.69139 31.6131C1.69139 31.6131 1.53035 31.3677 1.41848 30.9625C1.31847 30.6041 1.26083 30.1602 1.22863 29.8454H1.19472C0.976057 28.57 1.10488 27.6692 1.54391 27.0557C1.88124 26.5859 2.39824 26.3196 2.9983 26.1727C3.72041 25.9951 4.5544 25.987 5.41212 26.0677C8.49041 26.3551 11.8416 27.7951 11.8416 27.7951C12.2671 27.9792 12.7688 27.7967 12.9621 27.3915C13.1536 26.9847 12.9638 26.5068 12.5366 26.3244C12.5366 26.3244 12.0399 26.1113 11.2432 25.8272C14.7606 24.8747 17.4032 27.4206 17.4846 27.4997L17.4914 27.5061C17.8168 27.8226 18.3508 27.8306 18.6864 27.5223C19.022 27.2123 19.0322 26.7006 18.7067 26.3809C18.7067 26.3809 18.266 25.9467 17.4914 25.451C17.8185 25.443 18.1609 25.4527 18.505 25.4753C20.3764 25.5915 22.2919 26.0467 22.2919 26.0467C22.7461 26.1549 23.2055 25.8918 23.3191 25.4607C23.4327 25.0281 23.1564 24.589 22.7038 24.4808C22.7038 24.4808 20.0204 23.8464 17.7727 23.8351C17.788 23.2345 17.9592 22.7793 18.2321 22.4402C19.083 21.3764 20.7375 21.4022 20.7375 21.4022C21.0578 21.4022 21.3511 21.2295 21.4952 20.9566C22.5495 18.9467 23.6462 18.2073 24.6752 18.1395C26.1397 18.0443 27.2856 19.2325 27.2856 19.2325C27.3195 19.2664 27.3551 19.2987 27.3941 19.3261C27.2703 19.4407 27.1483 19.5634 27.0263 19.691C26.7093 20.0203 26.733 20.5304 27.0788 20.8307C27.4246 21.1326 27.9603 21.11 28.2755 20.7807C29.6553 19.3455 30.9199 18.8547 32.0539 18.9467C33.1083 19.0323 34.0134 19.5957 34.7322 20.2172C34.8288 20.2996 34.9203 20.3835 35.0085 20.4675C35.0593 20.5337 35.1186 20.5918 35.1864 20.6402C36.0475 21.5039 36.5561 22.3644 36.5866 22.4176L36.59 22.4241C36.8171 22.8115 37.3307 22.952 37.7392 22.7389C38.1495 22.5242 38.2986 22.0334 38.0749 21.6427C38.0749 21.6427 37.8816 21.3086 37.5274 20.8275C43.9009 21.1988 48.2454 24.4598 48.2454 24.4598C48.6116 24.7359 49.1455 24.6761 49.4354 24.3274C49.7253 23.9787 49.6625 23.4702 49.2964 23.1941C49.2964 23.1941 46.6554 21.1988 42.4228 20.0219C44.8129 18.7078 58.933 11.6998 78.5588 17.6811L78.5944 17.6924C78.5944 17.6924 82.7525 18.7691 86.7461 18.6222C86.9207 18.6723 87.1122 18.6691 87.2953 18.6013C87.3021 18.598 87.3106 18.5948 87.3174 18.5932C90.2855 18.3898 93.0129 17.4082 94.0774 15.019C94.5384 13.9841 94.6978 12.67 94.3927 11.0056C94.035 9.0716 93.0332 6.61936 91.1313 3.53429C92.4264 4.01376 94.1113 4.82741 95.7674 5.93648C98.4778 7.75104 101.124 10.3696 101.783 13.7323C102.68 18.3123 99.8695 24.1047 89.1497 31.0691C89.1447 31.0723 89.1413 31.0755 89.1362 31.0788C89.4159 29.5241 88.9599 28.1293 88.2514 26.9847C87.0733 25.0797 85.1917 23.9012 85.1917 23.9012C84.8001 23.6575 84.2747 23.7608 84.017 24.1321C83.7627 24.5018 83.8661 24.9974 84.2509 25.2444L84.2628 25.2525C84.3272 25.2928 85.3714 25.9676 86.2698 27.0751C87.1428 28.1487 87.9039 29.6517 87.314 31.3903C87.1733 31.8036 87.4021 32.2492 87.8293 32.3977C87.8293 32.3977 91.1228 33.531 93.1892 35.5409C94.391 36.7097 95.1775 38.203 94.2994 39.9723C93.996 40.3792 91.6195 43.4158 87.8276 44.1374C85.5934 44.5636 83.2881 42.9767 82.6253 41.4043C82.4558 41.0039 82.3931 40.6068 82.5524 40.2645C82.7169 39.9142 83.0983 39.6592 83.6932 39.4816L83.7085 39.4913C84.3408 39.8464 84.9985 40.1628 85.6765 40.4292C85.8443 40.4938 86.0138 40.5568 86.185 40.6149C86.2257 40.6294 86.2681 40.6423 86.3088 40.6552C86.3427 40.6665 86.3783 40.6778 86.4139 40.6859C86.4715 40.6988 86.5325 40.7069 86.5919 40.7069C86.6953 40.7101 86.7987 40.694 86.8953 40.6601C86.9919 40.6278 87.08 40.5794 87.158 40.5164C87.2275 40.4615 87.2851 40.3953 87.3326 40.3227C87.3733 40.2597 87.4055 40.1903 87.4258 40.1176C87.4496 40.0402 87.4597 39.9594 87.458 39.8771C87.4513 39.6818 87.3699 39.4929 87.2292 39.3492C87.1512 39.2685 87.0563 39.2055 86.9512 39.1603C86.9105 39.1442 86.8681 39.1313 86.8258 39.1183C86.7868 39.107 86.7478 39.0941 86.7071 39.0812C86.5529 39.0296 86.3986 38.9731 86.2477 38.9133C85.668 38.6889 85.107 38.4225 84.5679 38.1207C84.3798 38.0157 84.1933 37.9059 84.0119 37.7913C82.8186 37.0471 81.7473 36.1108 80.9438 34.9839C80.7895 34.7692 80.6472 34.5464 80.5149 34.3204C80.3166 33.9814 80.1437 33.6279 79.9979 33.2662C79.8047 32.7884 79.6606 32.2912 79.564 31.7875C79.4623 31.2596 79.4148 30.7236 79.4114 30.1876C79.4064 29.2642 79.5386 28.3424 79.7623 27.4448C79.881 26.9734 80.0234 26.5085 80.1878 26.05C80.2302 25.9289 80.2759 25.8078 80.3217 25.6867C80.3302 25.6625 80.3403 25.6383 80.3505 25.6125C80.359 25.5883 80.3692 25.5624 80.3776 25.5366C80.3895 25.5043 80.398 25.472 80.4048 25.4381C80.4183 25.3639 80.4217 25.2864 80.4132 25.2105C80.3912 25.0135 80.2912 24.8263 80.1369 24.6939C80.0437 24.6148 79.9335 24.5567 79.8149 24.5212C79.7233 24.4953 79.6284 24.484 79.5335 24.4889C79.3284 24.4969 79.13 24.5777 78.9826 24.7133C78.9249 24.7665 78.8741 24.8263 78.8351 24.8925C78.8165 24.9215 78.8012 24.9522 78.7876 24.9845C78.7707 25.0216 78.7571 25.0604 78.7436 25.0975C78.7114 25.1814 78.6792 25.2654 78.6486 25.3493C78.5673 25.5673 78.491 25.7868 78.4198 26.008C78.3622 26.1807 78.3096 26.3551 78.2588 26.5311C78.1944 26.7506 78.1367 26.9734 78.0825 27.1962C78.0164 27.4722 77.957 27.7499 77.9079 28.0292C77.7316 29.014 77.6672 30.0181 77.7502 31.0142C77.796 31.5695 77.8875 32.1184 78.0265 32.6592C78.1927 33.3066 78.4283 33.9394 78.73 34.5416C78.9555 34.9904 79.2165 35.423 79.5098 35.8363C79.6877 36.0865 79.8776 36.3287 80.0776 36.5644L80.081 36.5692C79.2741 37.4846 76.8671 39.8771 72.9209 41.0233C73.2667 39.4348 73.0379 38.0561 72.4243 36.8937C71.6615 35.4537 70.2817 34.3301 68.5561 33.5649C66.1049 32.4784 62.9504 32.1168 60.0535 32.5333C59.5907 32.5995 59.272 33.0112 59.3415 33.4503C59.411 33.891 59.8433 34.1961 60.306 34.1283C62.8724 33.7618 65.6693 34.067 67.8424 35.0291C69.1985 35.6297 70.3105 36.4869 70.9088 37.6202C71.6581 39.036 71.5682 40.8554 70.3003 43.0703C68.9036 45.5113 66.1304 48.3671 61.5028 51.6475C61.4011 51.6927 61.3095 51.7589 61.2299 51.8428C59.2415 53.9948 57.6295 54.8181 56.2836 54.8181C55.1411 54.8165 54.2613 54.1918 53.5985 53.475C52.9629 52.7873 52.5188 52.0027 52.256 51.457L56.6311 49.6199C56.7396 49.5747 56.8328 49.5101 56.9074 49.4326C57.2311 49.2292 57.3752 48.8304 57.2294 48.4704C57.1006 48.1508 57.1515 47.7682 57.2803 47.3468C57.4481 46.7963 57.7617 46.199 58.155 45.5855C60.1467 42.4892 64.1708 39.0651 64.1708 39.0651C64.52 38.768 64.5488 38.2579 64.237 37.9253C63.9251 37.5944 63.3894 37.5653 63.0402 37.8624C63.0402 37.8624 58.8093 41.4786 56.7107 44.7412C56.6718 44.8026 56.6345 44.8623 56.5972 44.922C53.8206 44.533 52.2781 43.729 51.5305 42.6893C50.8542 41.7498 50.8949 40.6552 51.1457 39.6866C51.5644 38.0738 52.5934 36.7614 52.5934 36.7614C52.873 36.4046 52.7951 35.8993 52.4205 35.6329C52.0458 35.3649 51.5153 35.4392 51.2356 35.796C51.2356 35.796 50.0016 37.3684 49.5015 39.2992C49.1388 40.6907 49.1608 42.2518 50.1321 43.6015C50.3897 43.9599 50.7186 44.3069 51.1322 44.6314C35.8441 44.6992 29.3197 41.9903 26.9466 40.5616C29.1909 40.3291 31.7335 40.2968 34.444 40.6698C35.3085 40.7892 36.3917 40.4906 37.5274 39.8158C38.9987 38.9408 40.6073 37.4362 41.9346 35.6991C43.267 33.954 44.3162 31.978 44.6959 30.1892C44.9773 28.8703 44.8959 27.645 44.3789 26.6425C43.8077 25.5382 42.7143 24.6648 40.8786 24.2613C39.2716 23.9061 37.0358 23.9158 34.0253 24.4727C33.5659 24.5567 33.2659 24.9813 33.3557 25.4188C33.4456 25.8563 33.8897 26.142 34.3491 26.0564C37.0493 25.5576 39.0546 25.5156 40.4972 25.8337C41.7126 26.1016 42.4804 26.6231 42.8567 27.3544C43.2246 28.0647 43.233 28.9349 43.0347 29.868C42.6974 31.4549 41.7465 33.2 40.5633 34.7482C39.375 36.3045 37.9477 37.6622 36.6307 38.4468C35.9052 38.8778 35.239 39.149 34.6864 39.0731C25.6346 37.8252 18.3389 40.8651 17.2337 41.3575C12.6942 41.8257 9.95497 41.7078 8.34802 41.28C7.50725 41.0556 7.0428 40.7892 6.86312 40.4373C6.73599 40.1871 6.7987 39.9223 6.88515 39.6947C6.94109 39.5445 7.01229 39.4057 7.08687 39.283C7.075 39.2297 7.06822 39.1748 7.06653 39.1183C7.06653 39.1183 7.08348 38.224 7.23943 37.5879C7.33774 37.1795 7.4903 36.9309 7.4903 36.9309C7.48522 36.7258 7.65642 36.5579 7.8717 36.5547C8.08528 36.5515 8.26157 36.7145 8.26496 36.918C8.26496 36.918 8.42599 37.1633 8.53787 37.5685C8.60228 37.7978 8.64805 38.0609 8.68195 38.3031C8.95825 38.1352 9.24303 37.9495 9.53119 37.7494ZM29.6096 32.7981C28.8959 32.8417 28.2111 32.8368 27.5738 32.8029C27.5568 33.1193 27.5144 33.6392 27.4127 34.0508C27.3805 34.1864 27.3415 34.3043 27.3043 34.4028C28.1077 34.4512 28.9858 34.4593 29.9011 34.3963C29.874 34.322 29.8452 34.2381 29.8198 34.1477C29.6926 33.6876 29.6333 33.0887 29.6096 32.7981ZM23.7903 32.2363C23.7751 32.5398 23.7344 33.1096 23.6259 33.552C23.6005 33.6601 23.57 33.757 23.5394 33.8426C24.0904 33.9766 25.0227 34.1735 26.1889 34.3059C26.1635 34.2349 26.138 34.1558 26.1143 34.0702C25.9736 33.5665 25.9143 32.8933 25.8973 32.6447C24.9159 32.5107 24.17 32.3347 23.7903 32.2363ZM22.1478 32.5527C21.585 32.727 20.9307 32.7303 20.251 32.6415C20.2255 32.9111 20.1849 33.2146 20.1204 33.4761C20.0221 33.8845 19.8713 34.1332 19.8713 34.1332C19.8713 34.159 19.8679 34.1832 19.8645 34.2058C20.807 34.3301 21.7274 34.3172 22.536 34.1089C22.4783 33.9992 22.3936 33.8151 22.3275 33.5713C22.2376 33.2501 22.1817 32.8578 22.1478 32.5527ZM31.2911 32.6076C31.2894 32.7093 31.2657 33.5326 31.1199 34.1283C31.1063 34.18 31.0928 34.2284 31.0792 34.2752C31.242 34.2526 31.4064 34.2284 31.5708 34.201C32.0319 34.1235 32.3387 33.7037 32.2573 33.2646C32.1776 32.832 31.7454 32.5398 31.2911 32.6076ZM17.1862 31.8311C17.1608 32.091 17.1201 32.3816 17.0591 32.6318C16.9608 33.0402 16.8082 33.2888 16.8082 33.2888C16.8099 33.3324 16.8031 33.3744 16.7879 33.4131C17.3354 33.6101 17.9185 33.7958 18.5101 33.9459C18.6898 33.9911 18.8712 34.0315 19.0508 34.0686C18.9949 33.9669 18.8983 33.7667 18.822 33.4955C18.7135 33.1064 18.6542 32.6173 18.6254 32.3008C18.127 32.162 17.6422 32.0006 17.1862 31.8311ZM88.7226 2.87563C76.6756 0.252266 62.9877 0.536395 48.1675 6.24644C51.3271 7.37004 58.8466 9.34604 71.336 8.66154C71.336 8.66154 83.2779 7.85274 87.5157 16.9578C89.6956 16.7706 91.7314 16.149 92.5162 14.3893C92.9705 13.3707 92.9891 12.0081 92.4603 10.1968C91.8958 8.25795 90.7092 5.85415 88.7226 2.87563Z" fill="white" stroke="#FF6600"/>
</svg>
