<svg width="82" height="82" viewBox="0 0 82 82" fill="none" xmlns="http://www.w3.org/2000/svg">
<path d="M69.7714 59.2715L69.6033 59.4395L69.6276 59.676L70.1276 64.551L70.2379 65.6266L70.9859 64.846L73.8535 61.8536C73.8548 61.8522 73.8561 61.8509 73.8575 61.8496C74.7988 60.9039 74.7974 59.3404 73.8535 58.3965C73.3609 57.9039 72.7196 57.75 72.2499 57.75C72.0153 57.75 71.7112 57.788 71.42 57.885C71.1519 57.9744 70.8307 58.1354 70.6162 58.4267L69.7714 59.2715ZM69.6222 74.1977L69.6214 74.1908L66.7499 50.0953V50V49.9727L66.747 49.9456L65.872 41.9456L65.871 41.9363L65.8696 41.927L64.7458 34.3103C64.6586 33.5571 64.1817 33.021 63.5592 32.8209C62.9451 32.6235 62.2348 32.7652 61.6745 33.2454L61.6682 33.2508L61.6621 33.2564L48.1621 45.6314L48.1541 45.6388L48.1464 45.6465C47.8379 45.9549 47.6196 46.3283 47.5529 46.7502C47.4856 47.1766 47.5808 47.6067 47.8212 48.0073L47.8255 48.0144L47.83 48.0214C53.0652 56.1235 60.3006 69.4718 64.7879 80.3162L64.826 80.4082L64.8964 80.4786L64.8965 80.4787C64.897 80.4791 64.8977 80.4798 64.9002 80.4837C64.9052 80.4918 64.9108 80.5022 64.9277 80.5361L64.9317 80.544C64.9641 80.6092 65.0259 80.733 65.1464 80.8536C65.4092 81.1164 65.7708 81.3036 66.1737 81.3273C66.5889 81.3517 67.0076 81.1995 67.3535 80.8536C69.0924 79.1146 69.8869 76.7122 69.6222 74.1977ZM31.6051 63.3606L31.6024 63.3512L31.5993 63.3419C31.2511 62.2974 30.0701 61.8246 29.0918 62.1507L29.0581 62.1619L29.0263 62.1778C27.8219 62.78 26.3715 63.2639 24.9229 63.506C24.2854 63.5995 23.8157 64.0495 23.5892 64.5643C23.3615 65.0816 23.3476 65.7354 23.7089 66.2774L30.9589 77.1524C31.643 78.1784 33.017 78.19 33.7285 77.4786L34.3535 76.8536C34.9308 76.2763 35.177 75.5912 34.9777 74.9773L31.6051 63.3606ZM23.1464 56.0214L23.1435 56.0244L15.6464 63.6465C15.6458 63.647 15.6453 63.6476 15.6447 63.6481C15.3817 63.9119 15.2187 64.2519 15.2187 64.6094C15.2187 64.9478 15.3669 65.2651 15.6438 65.4838C15.8822 65.7788 16.2393 65.9063 16.5624 65.9063C16.898 65.9063 17.2704 65.7687 17.5083 65.4488L25.0737 57.8833C25.3936 57.6455 25.5312 57.2731 25.5312 56.9375C25.5312 56.5996 25.3918 56.2245 25.0672 55.9869C24.85 55.7894 24.4948 55.625 24.1249 55.625C23.7337 55.625 23.3588 55.809 23.1464 56.0214ZM17.8873 49.8942L17.8773 49.8914L17.8673 49.889L6.99622 47.2649C6.99556 47.2648 6.99491 47.2646 6.99425 47.2645C6.67534 47.185 6.36249 47.1778 6.05603 47.2721C5.75272 47.3654 5.49749 47.5454 5.2714 47.7715L4.5214 48.5215C3.70063 49.3422 3.80187 50.7275 4.73025 51.2962L14.7202 58.0394L14.7357 58.0499L14.7519 58.0591C15.3094 58.3777 15.9375 58.4322 16.4825 58.2142C17.0317 57.9946 17.4486 57.5169 17.61 56.8713L17.6149 56.8519L17.6181 56.8322C17.8569 55.3996 18.4588 53.8249 19.0766 52.4647C19.5897 51.4254 19.0477 50.2258 17.8873 49.8942ZM46.9962 17.7649L46.9741 17.7594L46.9516 17.7559L39.7016 16.6309L39.6905 16.6292L39.6793 16.628L31.6841 15.7535L31.6793 15.753L7.55911 12.8785L7.55912 12.8785L7.55516 12.8781C5.15915 12.6118 2.75727 13.4106 1.0214 15.1465C0.675456 15.4924 0.523264 15.9111 0.547686 16.3262C0.571385 16.7291 0.758563 17.0907 1.0214 17.3536C1.02502 17.3572 1.0287 17.3609 1.03243 17.3646C1.08552 17.4179 1.14908 17.4816 1.23822 17.541C1.31192 17.5902 1.40155 17.6349 1.50242 17.6853C1.51033 17.6892 1.5183 17.6932 1.52634 17.6972L1.54352 17.7058L1.5613 17.7131C11.6436 21.8207 24.6071 29.0484 33.0902 34.5363C33.813 35.065 34.8468 34.8842 35.3812 34.1995L47.984 20.8481C48.509 20.3187 48.5884 19.611 48.3771 19.0193C48.1683 18.4349 47.6689 17.9331 46.9962 17.7649ZM23.2285 11.7286C23.6947 11.2624 23.8575 10.663 23.8736 10.2021C24.0256 9.63256 23.8137 8.98166 23.3535 8.52146C22.4096 7.57752 20.846 7.5762 19.9004 8.51749L16.904 11.389L16.1261 12.1345L17.1976 12.2473L21.9476 12.7473L22.1848 12.7722L22.3535 12.6036L23.2285 11.7286ZM34.1556 13.3875L33.37 14.1338L34.4476 14.2473L39.1976 14.7473L39.4348 14.7722L39.6035 14.6036L39.951 14.2561C40.4892 13.8565 40.7759 13.2881 40.7965 12.6891C40.8174 12.0842 40.5667 11.4846 40.1035 11.0215C39.1598 10.0778 37.597 10.0762 36.6512 11.0167L34.1556 13.3875ZM63.4014 6.89151L63.3936 6.89911L63.3861 6.90703L22.266 50.5269C21.7755 51.0193 21.249 51.821 20.7856 52.7638C20.3168 53.7177 19.8963 54.8489 19.6369 56.0165L19.2644 57.6927L20.4785 56.4786L22.1035 54.8536C23.2832 53.6738 25.2167 53.6738 26.3964 54.8536C27.5724 56.0295 27.5761 57.9543 26.4077 59.1351L24.4207 60.8737L22.9811 62.1334L24.853 61.7393C27.2991 61.2243 29.7556 59.9407 30.8292 59.0013L30.8293 59.0014L30.837 58.9943L75.212 18.4943L75.2121 18.4945L75.2218 18.4852C76.9611 16.8103 78.5248 14.5076 79.6544 12.137C80.7814 9.77202 81.4999 7.2895 81.4999 5.25001C81.4999 3.79013 81.1013 2.6443 80.3535 1.89646C79.5317 1.07462 78.2957 0.757914 76.9343 0.755869C75.5625 0.75381 73.9835 1.06965 72.3738 1.60356C69.157 2.6705 65.7134 4.64376 63.4014 6.89151ZM73.2402 11.777L73.2379 11.7653L73.235 11.7537L73.2327 11.7443C73.1682 11.4862 73.0229 10.9046 72.617 10.3697C72.1904 9.80724 71.4975 9.32374 70.4082 9.25112L70.3916 9.25001H70.3749H69.9999C69.5059 9.25001 69.1773 8.85236 69.2431 8.45721C69.3455 7.84286 69.7127 7.50001 70.1249 7.50001H70.4878C72.8596 7.61778 74.5384 9.17955 74.88 11.5707L74.8798 11.5707L74.8818 11.5822C74.9164 11.7903 74.8515 11.992 74.7077 12.1665C74.5709 12.3327 74.3799 12.4508 74.1983 12.4989C73.6835 12.4769 73.3106 12.1286 73.2402 11.777ZM71.5091 41.6799L71.4945 41.6625L71.4785 41.6465C70.9859 41.1539 70.3446 41 69.8749 41C69.5981 41 69.2809 41.0866 69.0174 41.192C68.7565 41.2964 68.4658 41.452 68.2714 41.6465L67.8964 42.0215L67.7277 42.1901L67.7527 42.4273L68.2527 47.1774L68.3661 48.255L69.1124 47.4694L71.4833 44.9738C71.9087 44.5452 72.0937 43.9385 72.0937 43.3594C72.0937 42.7749 71.9066 42.157 71.5091 41.6799Z" fill="white" stroke="#FF6600"/>
</svg>
