<svg width="107" height="68" viewBox="0 0 107 68" fill="none" xmlns="http://www.w3.org/2000/svg">
<path d="M82.1751 5.828C82.1751 5.828 76.8849 -2.35872 87.795 3.6241C87.795 3.6241 91.7629 -1.71184 97.7134 3.63191C97.7134 3.63191 98.3746 4.25691 105.318 2.20691C105.318 2.20691 107.911 5.1116 102.988 7.85222C102.59 8.07375 102.137 8.19025 101.676 8.18972H99.8594C99.8594 8.18972 100.356 10.2358 99.6953 11.4952C99.0269 12.5328 98.6595 13.7207 98.6307 14.9378C98.6019 16.1548 98.9126 17.3573 99.5312 18.4225L101.35 21.5718C101.35 21.5718 103.168 23.4608 99.8618 24.0905C98.9988 24.4682 98.0929 24.75 97.1622 24.9303C95.3124 25.3444 95.7184 25.5553 90.9598 23.9444C90.9016 23.9247 90.8388 23.9207 90.7784 23.9327C90.7179 23.9446 90.662 23.9722 90.6169 24.0124C87.7345 26.8046 85.8584 30.3971 85.2594 34.271C84.0487 41.1983 80.8929 42.9843 80.8929 42.9843C79.6456 43.6536 78.2649 44.0669 76.8398 44.1975C76.7287 44.2118 76.6262 44.2624 76.5499 44.3406C76.4736 44.4188 76.4282 44.5199 76.4214 44.6264C76.3205 46.2358 75.8874 52.4389 75.122 53.8999C74.2402 55.5788 75.6724 59.6725 75.6724 59.6725L75.8365 60.7733C75.8715 61.0088 75.9597 61.2343 76.0949 61.4343C76.5526 62.1085 77.6076 63.778 77.4345 64.6054C76.131 65.0753 74.7198 65.2072 73.3452 64.9874C73.0642 64.9213 72.8144 64.7675 72.636 64.5504C72.4576 64.3332 72.3607 64.0654 72.3608 63.7897V63.7389C72.3606 63.689 72.3408 63.641 72.3053 63.6043C72.2698 63.5675 72.2211 63.5448 72.1689 63.5405L71.3953 63.4796C71.351 63.4762 71.3079 63.4639 71.269 63.4436C71.23 63.4232 71.196 63.3951 71.1693 63.3613C71.1425 63.3275 71.1236 63.2887 71.1138 63.2474C71.104 63.2061 71.1035 63.1633 71.1123 63.1218C71.767 60.0527 71.8908 56.9023 71.479 53.7952C70.7137 49.0702 69.1682 43.6093 69.1682 43.6093C69.1682 43.6093 68.7277 42.035 68.0657 44.7639C67.4037 47.4928 64.9846 53.6874 64.4317 53.9999C63.9699 54.2639 64.2824 60.2757 64.3956 62.2179C64.4171 62.5909 64.5787 62.9441 64.8509 63.2132C65.6154 63.9733 67.1084 65.6436 66.526 66.5952H62.0963C61.9206 66.5952 61.7479 66.5516 61.5953 66.4687C61.4427 66.3858 61.3154 66.2665 61.2259 66.1225L61.2185 66.1108C61.1115 65.938 60.9684 65.788 60.7979 65.6701C60.6274 65.5522 60.4333 65.469 60.2276 65.4257C60.1085 65.4007 60.0024 65.337 59.9275 65.2454C59.8526 65.1538 59.8136 65.0401 59.8174 64.9241L60.2448 51.5866C59.7557 48.4609 59.6081 45.2952 59.8043 42.1405C59.8043 42.1405 58.7018 38.3624 51.4281 42.453C44.4604 46.3749 40.4261 44.9983 36.7076 43.3991C36.562 43.3368 36.4007 43.3161 36.243 43.3394C36.0853 43.3627 35.9381 43.429 35.8192 43.5303L31.9219 46.8616V49.2655C31.9255 49.4196 31.8817 49.5713 31.796 49.702C31.7104 49.8328 31.5865 49.9368 31.4396 50.0014C31.3255 50.0492 31.1988 50.0623 31.0766 50.039C30.9545 50.0156 30.8429 49.957 30.7571 49.871C30.6357 49.7646 30.5393 49.635 30.4741 49.4907C30.409 49.3463 30.3765 49.1905 30.3789 49.0335V48.3928C30.3803 48.0854 30.2636 47.7881 30.0508 47.5569C29.6857 47.1663 29.0434 46.8124 28.269 47.8303C28.136 48.0044 28.0645 48.2143 28.0648 48.4296V49.6507C28.067 49.8664 28.0021 50.078 27.8783 50.2587C27.7545 50.4394 27.5774 50.5812 27.3692 50.6663L27.3446 50.6757C27.1903 50.7308 27.0242 50.7493 26.8608 50.7297C26.6973 50.7101 26.5412 50.653 26.4061 50.5632C26.271 50.4734 26.1608 50.3536 26.0851 50.2143C26.0093 50.0749 25.9703 49.9201 25.9713 49.7632V47.9725C25.9716 47.8972 25.9448 47.8241 25.8954 47.7653C25.846 47.7065 25.777 47.6655 25.6998 47.6491C24.786 47.453 21.814 46.7819 20.7927 46.1389C20.7457 46.1101 20.6926 46.0916 20.6372 46.0846C20.5818 46.0777 20.5255 46.0825 20.4723 46.0987C20.419 46.1149 20.3702 46.1421 20.3293 46.1783C20.2884 46.2146 20.2565 46.2591 20.2357 46.3085C19.5926 47.8132 17.9298 52.4577 20.184 55.9178C20.3616 56.1852 20.4738 56.4872 20.5122 56.8014C20.7727 59.2284 21.5034 61.5883 22.6671 63.7616C23.2504 64.7139 23.5769 65.2741 23.7598 65.603C23.7965 65.6694 23.8181 65.7423 23.8233 65.8171C23.8286 65.892 23.8172 65.967 23.7901 66.0374C23.763 66.1078 23.7206 66.172 23.6658 66.2258C23.611 66.2796 23.5449 66.3219 23.4719 66.3499C22.0247 66.7841 20.4911 66.8911 18.993 66.6624C18.8229 66.6478 18.6646 66.5732 18.5493 66.4532C18.434 66.3333 18.3698 66.1766 18.3695 66.0139V64.9202C18.1474 64.8594 17.952 64.7315 17.8128 64.5558C17.6735 64.3801 17.598 64.1661 17.5976 63.946V62.1491C17.5978 61.9698 17.5572 61.7925 17.4787 61.6296C16.8224 60.2671 13.665 53.6514 13.9612 52.4288L13.9415 59.2514V61.0069C13.9416 61.5723 14.1228 62.1241 14.4607 62.5889L16.2063 64.9874C16.2584 65.0582 16.2799 65.1453 16.2664 65.2308C16.253 65.3162 16.2057 65.3935 16.1342 65.4468C15.5895 65.8475 14.1539 66.6108 11.7865 65.8522C11.5419 65.7727 11.3205 65.6392 11.1403 65.4627C10.9601 65.2863 10.8262 65.0717 10.7496 64.8366L10.4322 63.8694C10.084 63.7789 9.77667 63.5819 9.55759 63.3088C9.3385 63.0356 9.2198 62.7014 9.21975 62.3577V47.6007C9.21975 47.6007 8.06885 45.5624 8.38303 44.4217C8.49529 43.7434 8.72598 43.0877 9.06553 42.4819C9.30306 42.196 9.45954 41.8568 9.51998 41.4968L9.95639 38.528C10.1246 37.3846 10.0368 36.2203 9.69881 35.1116L5.2519 20.5218C4.79573 18.7856 4.74978 16.9746 5.11737 15.2194C5.17017 15.0285 5.17396 14.8284 5.12841 14.6358C5.08286 14.4433 4.98932 14.264 4.85569 14.1132C4.56694 13.8007 4.21584 13.8007 4.15268 15.4843C4.04276 18.4225 3.49151 27.8686 4.15268 31.9624C4.60085 35.9125 4.81994 39.8831 4.80893 43.8561C4.81171 44.3734 4.88226 44.8883 5.01893 45.3889C5.75969 48.336 5.33632 51.4395 3.82947 54.1085L2.49647 56.2077V50.7827C2.49649 50.2717 2.43483 49.7623 2.31272 49.2647C1.78684 47.2277 1.85006 45.093 2.49565 43.0874L2.83936 41.2061C2.90395 40.8518 2.92733 40.4919 2.90908 40.1327C2.7844 37.6718 2.25858 27.61 1.95752 25.7694C1.61463 23.671 -0.0112285 19.9968 1.95752 10.971C3.92627 1.94519 12.8554 3.20378 12.8554 3.20378C12.8554 3.20378 20.4597 2.99363 23.4374 4.04363C26.2396 5.03191 46.5407 4.903 48.8925 4.88504C49.0355 4.88426 49.1781 4.8725 49.3191 4.84988C60.2457 3.32467 71.3698 3.65583 82.1751 5.828Z" fill="white" stroke="#FF6600"/>
</svg>
