<svg width="82" height="82" viewBox="0 0 82 82" fill="none" xmlns="http://www.w3.org/2000/svg">
<path d="M81 76.7139H73.8571V80.9998H81V76.7139Z" fill="white" stroke="#FF6600"/>
<path d="M48.1429 76.7139H1V80.9998H48.1429V76.7139Z" fill="white" stroke="#FF6600"/>
<path d="M31.7471 26.7139H26.094L23.5226 30.9998H30.0326L31.7471 26.7139Z" fill="white" stroke="#FF6600"/>
<path d="M11 61V66.7141C11 67.5033 11.6396 68.1429 12.4288 68.1429H18.1429V66.8826C18.1057 64.7976 19.537 62.972 21.5713 62.5112C22.8329 62.2567 24.1415 62.5808 25.1382 63.395C26.1343 64.2092 26.7129 65.4275 26.7141 66.7141V68.1429H29.5712V66.8826C29.5339 64.7976 30.9658 62.972 33.0001 62.5112C34.2611 62.2567 35.5703 62.5808 36.5664 63.395C37.5625 64.2092 38.1411 65.4275 38.1429 66.7141V68.1429H39.5712C40.3604 68.1429 41 67.5033 41 66.7141V61H11Z" fill="white" stroke="#FF6600"/>
<path d="M73.8571 49.5709V73.8568H78.1429V42.6825L77.4044 43.3282C76.5988 44.0271 75.4012 44.0271 74.5956 43.3282L71 40.1855L67.4044 43.3282C66.5988 44.0271 65.4012 44.0271 64.5956 43.3282L61 40.1855L57.4044 43.3282C56.5988 44.0271 55.4012 44.0271 54.5956 43.3282L51 40.1855L47.4044 43.3282C46.5988 44.0271 45.4012 44.0271 44.5956 43.3282L41 40.1855L37.4044 43.3282C36.5988 44.0271 35.4012 44.0271 34.5956 43.3282L31 40.1855L27.4044 43.3282C26.5988 44.0271 25.4012 44.0271 24.5956 43.3282L21 40.1855L17.4044 43.3282C16.5988 44.0271 15.4012 44.0271 14.5956 43.3282L11 40.1855L7.40442 43.3282C6.59875 44.0271 5.40125 44.0271 4.59558 43.3282L3.85706 42.6825V73.8568H48.1429V49.5709C48.1429 47.9932 49.4222 46.7139 51 46.7139H71C72.5778 46.7139 73.8571 47.9932 73.8571 49.5709ZM43.8571 68.1427C43.8571 69.7205 42.5778 70.9998 41 70.9998H11C9.42224 70.9998 8.14294 69.7205 8.14294 68.1427V49.5709C8.14294 47.9932 9.42224 46.7139 11 46.7139H41C42.5778 46.7139 43.8571 47.9932 43.8571 49.5709V68.1427Z" fill="white" stroke="#FF6600"/>
<path d="M71 49.5713H51V81.0001H71V49.5713ZM62.4288 71.0001C62.4288 72.5779 61.1495 73.8572 59.5712 73.8572H56.7141C55.1364 73.8572 53.8571 72.5779 53.8571 71.0001V63.8572C53.8571 62.2794 55.1364 61.0001 56.7141 61.0001H59.5712C61.1495 61.0001 62.4288 62.2794 62.4288 63.8572V71.0001Z" fill="white" stroke="#FF6600"/>
<path d="M13.8571 56.7142C13.8589 55.4276 14.4375 54.2094 15.4336 53.3951C16.4297 52.5809 17.7389 52.2568 18.9999 52.5114C21.0342 52.9722 22.4661 54.7977 22.4288 56.8827V58.1431H25.2859V56.8827C25.2487 54.7977 26.6799 52.9722 28.7142 52.5114C29.9752 52.2568 31.2844 52.5809 32.2805 53.3951C33.2772 54.2094 33.8558 55.4276 33.8571 56.7142V58.1431H41V51.0001C41 50.2109 40.3604 49.5713 39.5712 49.5713H12.4288C11.6396 49.5713 11 50.2109 11 51.0001V58.1431H13.8571V56.7142Z" fill="white" stroke="#FF6600"/>
<path d="M39.5712 26.7139H34.8245L33.11 30.9998H39.5712V26.7139Z" fill="white" stroke="#FF6600"/>
<path d="M42.4288 26.7139V30.9998H48.89L47.1755 26.7139H42.4288Z" fill="white" stroke="#FF6600"/>
<path d="M79.5712 37.6387V33.8569H72.4288V37.6387L76 40.7612L79.5712 37.6387Z" fill="white" stroke="#FF6600"/>
<path d="M58.4774 30.9998L55.906 26.7139H50.2529L51.9674 30.9998H58.4774Z" fill="white" stroke="#FF6600"/>
<path d="M78.027 30.9998L75.0271 27.251C74.7573 26.911 74.3472 26.7133 73.9126 26.7139H69.2373L71.8087 30.9998H78.027Z" fill="white" stroke="#FF6600"/>
<path d="M12.7627 26.7139H8.0874C7.65283 26.7145 7.24268 26.9116 6.97168 27.251L3.97302 30.9998H10.1913L12.7627 26.7139Z" fill="white" stroke="#FF6600"/>
<path d="M59.5712 37.6387V33.8569H52.4288V37.6387L56 40.7612L59.5712 37.6387Z" fill="white" stroke="#FF6600"/>
<path d="M9.57117 37.6387V33.8569H2.42883V37.6387L6 40.7612L9.57117 37.6387Z" fill="white" stroke="#FF6600"/>
<path d="M68.4774 30.9998L65.906 26.7139H59.2373L61.8087 30.9998H68.4774Z" fill="white" stroke="#FF6600"/>
<path d="M56.7141 63.8569H59.573V70.9999H56.7141V63.8569Z" fill="white" stroke="#FF6600"/>
<path d="M69.5712 37.6387V33.8569H62.4288V37.6387L66 40.7612L69.5712 37.6387Z" fill="white" stroke="#FF6600"/>
<path d="M49.5712 37.6387V33.8569H42.4288V37.6387L46 40.7612L49.5712 37.6387Z" fill="white" stroke="#FF6600"/>
<path d="M65.2859 12.2427C65.3005 10.9835 65.8608 9.79272 66.8215 8.97852C67.5558 8.43896 68.0343 7.61926 68.1429 6.71411C68.1429 4.01575 62.0345 1 53.8571 1H43.9669C46.5829 2.49597 48.1429 4.47595 48.1429 6.71411C48.0673 8.45911 47.2219 10.0808 45.8358 11.1428C45.5032 11.4138 45.303 11.8142 45.2859 12.2427V23.8571H65.2859V12.2427ZM61 13.8571H49.5712C48.7826 13.8571 48.1429 13.2174 48.1429 12.4288C48.1429 11.6396 48.7826 11 49.5712 11H61C61.7892 11 62.4288 11.6396 62.4288 12.4288C62.4288 13.2174 61.7892 13.8571 61 13.8571Z" fill="white" stroke="#FF6600"/>
<path d="M32.4288 37.6387L36 40.7612L39.5712 37.6387V33.8569H32.4288V37.6387Z" fill="white" stroke="#FF6600"/>
<path d="M22.4288 65.2861C21.6396 65.2861 21 65.9258 21 66.7144V68.1432H23.8571V66.7144C23.8571 65.9258 23.2174 65.2861 22.4288 65.2861Z" fill="white" stroke="#FF6600"/>
<path d="M29.5712 37.6387V33.8569H22.4288V37.6387L26 40.7612L29.5712 37.6387Z" fill="white" stroke="#FF6600"/>
<path d="M33.8571 65.2861C33.0679 65.2861 32.4288 65.9258 32.4288 66.7144V68.1432H35.2859V66.7144C35.2859 65.9258 34.6462 65.2861 33.8571 65.2861Z" fill="white" stroke="#FF6600"/>
<path d="M22.7627 26.7139H16.094L13.5226 30.9998H20.1913L22.7627 26.7139Z" fill="white" stroke="#FF6600"/>
<path d="M19.5712 37.6387V33.8569H12.4288V37.6387L16 40.7612L19.5712 37.6387Z" fill="white" stroke="#FF6600"/>
<path d="M28.1429 56.7144V58.1432H31V56.7144C31 55.9258 30.3604 55.2861 29.5712 55.2861C28.7826 55.2861 28.1429 55.9258 28.1429 56.7144Z" fill="white" stroke="#FF6600"/>
<path d="M42.4288 12.2427C42.4435 10.9835 43.0038 9.79272 43.9645 8.97852C44.6987 8.43896 45.1772 7.61926 45.2859 6.71411C45.2859 4.01575 39.1769 1 31 1C22.8231 1 16.7141 4.01575 16.7141 6.71411C16.8221 7.61865 17.3 8.43713 18.0343 8.97546C18.9956 9.79089 19.5559 10.9829 19.5712 12.2427V23.8571H42.4288V12.2427ZM22.8469 7.13281C23.4048 6.57495 24.3093 6.57495 24.8672 7.13281L26.2954 8.56165C26.6671 8.91992 26.816 9.45154 26.6854 9.95081C26.5548 10.4501 26.1642 10.8401 25.6649 10.9707C25.1656 11.1019 24.6346 10.953 24.2758 10.5813L22.8469 9.15308C22.2897 8.59521 22.2897 7.69067 22.8469 7.13281ZM27.7242 19.1512C27.1664 19.7091 26.2618 19.7091 25.7046 19.1512L24.2758 17.723C23.7344 17.1621 23.7423 16.2716 24.2928 15.7205C24.844 15.1693 25.7351 15.1614 26.2954 15.7028L27.7242 17.1316C28.2821 17.6895 28.2821 18.5934 27.7242 19.1512ZM33.4384 14.866C32.8805 15.4232 31.9766 15.4232 31.4187 14.866L29.9899 13.4371C29.4485 12.8768 29.4564 11.9857 30.0076 11.4346C30.5587 10.8834 31.4492 10.8755 32.0101 11.4169L33.4384 12.8457C33.7069 13.1136 33.8577 13.4774 33.8577 13.8564C33.8577 14.2355 33.7069 14.5992 33.4384 14.8672V14.866ZM34.2758 5.70276C34.8336 5.1449 35.7382 5.1449 36.2954 5.70276L37.7242 7.13159C38.0959 7.48987 38.2449 8.02148 38.1136 8.52075C37.983 9.02002 37.593 9.41003 37.0938 9.54126C36.5939 9.67188 36.0629 9.52295 35.7046 9.15125L34.2758 7.72302C33.7191 7.16516 33.7191 6.26184 34.2758 5.70459V5.70276ZM39.1531 20.5801C38.5952 21.1379 37.6907 21.1379 37.1328 20.5801L35.7046 19.1512C35.1626 18.5909 35.1705 17.6998 35.7217 17.1487C36.2728 16.5975 37.1639 16.5902 37.7242 17.1316L39.1531 18.5598C39.421 18.8278 39.5718 19.1915 39.5718 19.5706C39.5718 19.9496 39.421 20.3134 39.1531 20.5813V20.5801Z" fill="white" stroke="#FF6600"/>
<path d="M16.7141 56.7144V58.1432H19.5712V56.7144C19.5712 55.9258 18.9321 55.2861 18.1429 55.2861C17.3538 55.2861 16.7141 55.9258 16.7141 56.7144Z" fill="white" stroke="#FF6600"/>
</svg>
