<svg width="72" height="80" viewBox="0 0 72 80" fill="none" xmlns="http://www.w3.org/2000/svg">
<path d="M4.2164 60.2705C3.00315 61.2411 1.20593 60.3773 1.20593 58.8236V35.2941C1.20593 16.0779 16.7838 0.5 36 0.5C55.2162 0.5 70.7941 16.0779 70.7941 35.2941V58.8234C70.7941 60.3772 68.9968 61.2409 67.7836 60.2703L56.0189 50.8586C55.5793 50.5069 55.3234 49.9746 55.3234 49.4117V35.2941C55.3234 24.622 46.6721 15.9705 35.9998 15.9705C25.3276 15.9705 16.6762 24.622 16.6762 35.2941V49.4117C16.6762 49.9746 16.4203 50.5069 15.9807 50.8586L4.2164 60.2705ZM37.853 77.647C37.853 78.6704 37.0234 79.5 36 79.5C34.9766 79.5 34.147 78.6704 34.147 77.647V70.5883C34.147 69.5649 34.9766 68.7353 36 68.7353C37.0234 68.7353 37.853 69.5649 37.853 70.5883V77.647ZM37.853 58.8236C37.853 59.847 37.0234 60.6766 36 60.6766C34.9766 60.6766 34.147 59.847 34.147 58.8236V51.7648C34.147 50.7415 34.9766 49.9119 36 49.9119C37.0234 49.9119 37.853 50.7415 37.853 51.7648V58.8236ZM37.853 40C37.853 41.0234 37.0234 41.853 36 41.853C34.9766 41.853 34.147 41.0234 34.147 40V32.9412C34.147 31.9179 34.9766 31.0883 36 31.0883C37.0234 31.0883 37.853 31.9179 37.853 32.9412V40Z" fill="white" stroke="#FF6600"/>
</svg>
