<svg width="72" height="70" viewBox="0 0 72 70" fill="none" xmlns="http://www.w3.org/2000/svg">
<path d="M14.1751 9.37306L14.1748 9.37333C13.956 9.53489 13.8657 9.81957 13.9518 10.078C14.3011 11.1253 14.9653 13.9453 12.9473 16.2377C10.745 18.7399 8.83869 20.9359 8.83867 23.9918C8.83867 26.5784 9.70546 28.7033 11.1824 30.1803C12.6594 31.6572 14.7843 32.524 17.3709 32.524C20.0004 32.524 21.9778 31.4553 23.3063 29.8699C24.6437 28.274 25.3387 26.1338 25.3387 23.9918C25.3387 23.0455 25.0221 21.8529 24.5381 20.7105C24.0552 19.5704 23.4307 18.5395 22.8634 17.9111L22.8631 17.9107C22.6864 17.7146 22.4056 17.6497 22.1592 17.7497C21.9142 17.8494 21.7579 18.0916 21.768 18.3564C21.7872 18.8526 21.7446 19.3195 21.6393 19.7208C21.5361 20.1145 21.3613 20.4874 21.0831 20.7458L21.0807 20.748L21.0807 20.748L21.0799 20.7487C21.0234 20.8005 20.8869 20.9257 20.6506 21.0166C20.4166 21.1066 20.117 21.1516 19.7349 21.109C19.7347 21.109 19.7346 21.109 19.7344 21.1089L19.7899 20.612C19.5071 20.581 19.2739 20.4359 19.1164 20.1931L14.1751 9.37306ZM14.1751 9.37306C14.3929 9.21193 14.6919 9.20912 14.9145 9.36744C16.0386 10.1705 17.3507 11.1151 18.1907 12.5036C19.011 13.8594 19.4074 15.6884 18.5716 18.3212C18.3305 19.0804 18.3188 19.8836 18.6971 20.4655L14.1751 9.37306ZM23.6452 68.5886V69.0886H24.1452H28.6613H29.1613V68.5886V5.92725V5.42725H28.6613H5.51611H5.01611V5.92725V68.5885V69.0885H5.51611H10.0322H10.5322L10.5322 68.5885L10.5323 50.524C10.5323 50.1769 10.8142 49.895 11.1613 49.895H23.0161C23.3632 49.895 23.6452 50.177 23.6452 50.524V68.5886ZM8.27419 42.0563C8.27419 41.0871 9.06308 40.2982 10.0323 40.2982H24.1452C25.1143 40.2982 25.9032 41.0871 25.9032 42.0563V44.8789C25.9032 45.848 25.1143 46.6369 24.1452 46.6369H10.0323C9.06308 46.6369 8.27419 45.848 8.27419 44.8789V42.0563Z" fill="white" stroke="#FF6600"/>
<path d="M10.0322 41.5562H9.53223V42.0562V44.8787V45.3787H10.0322H24.1451H24.6451V44.8787V42.0562V41.5562H24.1451H10.0322Z" fill="white" stroke="#FF6600"/>
<path d="M12.2903 51.1528H11.7903V51.6528V68.5883V69.0883H12.2903H21.8871H22.3871V68.5883V51.6528V51.1528H21.8871H12.2903ZM15.6774 60.7496H14.5483C14.2013 60.7496 13.9193 60.4677 13.9193 60.1206C13.9193 59.7735 14.2013 59.4915 14.5483 59.4915H15.6774C16.0245 59.4915 16.3064 59.7735 16.3064 60.1206C16.3064 60.4677 16.0245 60.7496 15.6774 60.7496Z" fill="white" stroke="#FF6600"/>
<path d="M69.3064 29.5725H70.5754L69.6475 28.7069L62.9907 22.4972L62.8466 22.3628H62.6496H52.9354H47.2903H30.9193H30.4193V22.8628V29.0725V29.5725H30.9193H69.3064Z" fill="white" stroke="#FF6600"/>
<path d="M47.9194 20.6049V21.1049H48.4194H51.8065H52.3065L52.3065 20.6049L52.3065 18.3469C52.3065 18.3469 52.3065 18.3469 52.3065 18.3469C52.3065 17.137 51.3228 16.1533 50.113 16.1533C48.9031 16.1533 47.9194 17.137 47.9194 18.3469V20.6049Z" fill="white" stroke="#FF6600"/>
<path d="M23.3318 21.094L22.9432 20.2006L22.444 21.0372C22.2996 21.2792 22.1308 21.4892 21.9404 21.6659L21.9398 21.6665C21.5333 22.0451 20.7968 22.4911 19.5956 22.3591C18.7952 22.2702 18.0839 21.831 17.6417 21.1508L17.6417 21.1508C17.0987 20.3154 16.9763 19.187 17.3717 17.9401C17.7757 16.6673 17.8762 15.6019 17.6993 14.667C17.5213 13.7259 17.0709 12.9636 16.4541 12.2864L15.6114 11.361L15.5846 12.6123C15.5548 14.0017 15.1647 15.622 13.8914 17.0685L13.8914 17.0685L13.8726 17.0899C12.9016 18.1934 11.9627 19.2604 11.2703 20.3594C10.568 21.4743 10.0968 22.6555 10.0968 23.9918C10.0968 26.1858 10.7803 28.0164 12.0634 29.2994C13.3464 30.5825 15.177 31.266 17.371 31.266C19.9939 31.266 21.6981 30.1141 22.7271 28.604C23.7383 27.1202 24.0807 25.3202 24.0807 23.9918C24.0807 23.1493 23.7525 22.0611 23.3318 21.094Z" fill="white" stroke="#FF6600"/>
<path d="M30.4193 68.5885V69.0885H30.9193H35.4354H35.9354V68.5885V45.4433C35.9354 44.4741 36.7243 43.6853 37.6935 43.6853H61.9677C62.9369 43.6853 63.7257 44.4741 63.7257 45.4433V68.5885V69.0885H64.2257H68.7419H69.2419V68.5885V36.9756V36.4756H68.7419H30.9193H30.4193V36.9756V68.5885Z" fill="white" stroke="#FF6600"/>
<path d="M37.1935 68.5885V69.0885H37.6935H61.9677H62.4677V68.5885V45.4434V44.9434H61.9677H37.6935H37.1935V45.4434V68.5885ZM40.5161 49.895H59.1451C59.4922 49.895 59.7741 50.1769 59.7741 50.524C59.7741 50.8711 59.4922 51.1531 59.1451 51.1531H40.5161C40.169 51.1531 39.887 50.8711 39.887 50.524C39.887 50.1769 40.169 49.895 40.5161 49.895ZM40.5161 56.1047H59.1451C59.4922 56.1047 59.7741 56.3866 59.7741 56.7337C59.7741 57.0808 59.4922 57.3627 59.1451 57.3627H40.5161C40.169 57.3627 39.887 57.0808 39.887 56.7337C39.887 56.3866 40.169 56.1047 40.5161 56.1047ZM40.5161 62.3143H59.1451C59.4922 62.3143 59.7741 62.5963 59.7741 62.9434C59.7741 63.2905 59.4922 63.5724 59.1451 63.5724H40.5161C40.169 63.5724 39.887 63.2905 39.887 62.9434C39.887 62.5963 40.169 62.3143 40.5161 62.3143Z" fill="white" stroke="#FF6600"/>
<path d="M30.9193 30.8379H30.4193V31.3379V34.7176V35.2176H30.9193H71H71.5V34.7176V31.3379V30.8379H71H30.9193Z" fill="white" stroke="#FF6600"/>
<path d="M33.6774 2.54017C33.6774 1.64082 32.9478 0.911133 32.0484 0.911133H2.12904C1.22968 0.911133 0.5 1.64078 0.5 2.54017C0.5 3.43956 1.22966 4.16921 2.12904 4.16921H32.0484C32.9478 4.16921 33.6774 3.43952 33.6774 2.54017Z" fill="white" stroke="#FF6600"/>
<path d="M48.4839 11.5723V11.5723C48.4839 12.4716 49.2135 13.2013 50.1129 13.2013C51.0123 13.2013 51.7419 12.4717 51.7419 11.5723V8.18519C51.7419 7.28584 51.0123 6.55615 50.1129 6.55615C49.2136 6.55615 48.4839 7.2858 48.4839 8.18519V11.5723Z" fill="white" stroke="#FF6600"/>
<path d="M54.9112 15.1771C55.3271 15.1771 55.7451 15.0184 56.0632 14.6997C56.0633 14.6996 56.0634 14.6995 56.0635 14.6994L58.3211 12.4418C58.9572 11.8057 58.9572 10.7746 58.3213 10.1385C57.6857 9.50209 56.6532 9.50203 56.0175 10.1382C56.0175 10.1383 56.0175 10.1383 56.0175 10.1383C56.0174 10.1383 56.0174 10.1384 56.0173 10.1385L53.7595 12.3963C53.1234 13.0324 53.1233 14.0635 53.7593 14.6997C54.0773 15.0184 54.4954 15.1771 54.9112 15.1771Z" fill="white" stroke="#FF6600"/>
<path d="M46.4662 12.3963L46.4662 12.3963C47.1023 13.0324 47.1024 14.0634 46.4665 14.6996C46.1485 15.0183 45.7303 15.1771 45.3145 15.1771C44.8986 15.1771 44.4805 15.0183 44.1624 14.6996C44.1624 14.6996 44.1623 14.6995 44.1622 14.6994L41.9046 12.4418L41.9046 12.4418C41.2685 11.8057 41.2685 10.7746 41.9044 10.1385L46.4662 12.3963ZM46.4662 12.3963L44.2084 10.1385M46.4662 12.3963L44.2084 10.1385M44.2084 10.1385C43.5728 9.50209 42.5403 9.50203 41.9046 10.1382L44.2084 10.1385Z" fill="white" stroke="#FF6600"/>
</svg>
