<svg width="107" height="102" viewBox="0 0 107 102" fill="none" xmlns="http://www.w3.org/2000/svg">
<path d="M18.8091 57.3571C18.8833 57.2265 19.0121 57.0114 19.1849 56.724C20.6204 54.3828 21.941 51.9372 23.1396 49.4003C22.4297 49.0254 21.843 48.6881 21.3895 48.415C20.2452 51.29 18.5452 54.6023 16.274 58.3787C16.1306 58.6173 16.0202 58.8002 15.9513 58.92C15.4777 60.0701 14.0312 68.7719 12.8835 76.66C13.0065 77.6061 13.5084 81.3686 14.2143 85.2611C15.6053 92.9363 16.5643 94.4548 16.797 94.7242C17.5759 94.8274 18.3475 95.0022 19.1055 95.2472C18.4122 93.6438 17.6863 90.9619 16.8634 86.5565C15.9639 81.7432 15.3547 76.9072 15.3487 76.8589C15.3296 76.7072 15.3311 76.5527 15.3531 76.4016C16.2957 69.902 17.9984 58.7849 18.8091 57.3571Z" fill="white" stroke="#FF6600"/>
<path d="M60.6405 53.5142C61.117 51.7775 61.861 50.1712 62.8312 48.7842C61.9606 49.2689 61.1738 49.9566 60.5137 50.8096C59.6106 51.9983 58.9248 53.4133 58.503 54.9587C56.2247 63.2856 53.2508 73.6503 52.0188 75.74C51.4094 76.7736 50.9878 82.7247 51.5027 93.3484C51.5113 93.5124 51.5516 93.6715 51.6201 93.8122C51.6887 93.953 51.7835 94.0714 51.8967 94.1575C53.5938 95.4615 55.4567 97.1055 55.8523 98.8465L56.2615 98.8704C56.6559 98.8986 57.0515 98.8737 57.4415 98.7963C57.5596 98.7723 57.6766 98.7406 57.7919 98.7014C57.4837 98.2119 56.6925 97.2778 54.9739 95.9587C54.5565 95.6386 54.2073 95.1995 53.9554 94.6782C53.7035 94.1568 53.5563 93.5684 53.5261 92.9622C53.1624 85.454 53.0306 75.9917 54.4684 73.5517C55.2757 72.1817 57.5826 64.6921 60.6405 53.5142Z" fill="white" stroke="#FF6600"/>
<path d="M22.5061 100.618L23.9748 100.835C24.1772 100.862 24.3813 100.81 24.559 100.688C24.7367 100.565 24.8793 100.377 24.9671 100.15C25.214 99.5 25.0879 99.2212 25.0464 99.1296C24.9342 98.8824 24.4181 98.1238 22.2314 97.6538C22.2512 97.6938 22.2732 97.7321 22.2914 97.7723C22.4839 98.2026 22.6024 98.6776 22.6394 99.1673C22.6763 99.657 22.6309 100.151 22.5061 100.618Z" fill="white" stroke="#FF6600"/>
<path d="M106.201 11.3098C106.132 11.2828 106.065 11.2476 106.001 11.2046C105.799 11.1172 105.59 11.0522 105.379 11.0104C105.085 10.9482 104.824 10.7445 104.652 10.4441C104.48 10.1437 104.412 9.77118 104.462 9.40852C104.513 9.04585 104.677 8.72274 104.92 8.51026C105.163 8.29778 105.465 8.21335 105.758 8.27553C105.816 8.28801 105.872 8.30327 105.929 8.31604C105.987 8.09255 105.995 7.85347 105.951 7.6249C105.837 7.14878 105.369 6.7892 104.997 6.57057C104.266 6.15723 103.453 6.01656 102.658 6.16576C99.8662 6.64076 96.1592 6.95512 94.3541 5.75679C93.165 4.96688 91.972 4.87282 91.1832 4.81067C90.5745 4.76267 89.8329 4.70468 89.4811 3.95777C89.223 3.71714 88.9508 3.50042 88.6669 3.30936C88.5747 3.86427 88.478 4.56041 88.4053 5.2238C88.3853 5.40628 88.3361 5.582 88.2606 5.74072C88.1851 5.89945 88.0848 6.03799 87.9655 6.14828C87.8554 6.25039 87.22 6.95678 85.5224 10.8744C84.6658 12.8345 83.976 14.8992 83.4641 17.0353C81.3151 26.1439 77.793 28.9487 75.217 29.6978C72.3377 30.536 69.2522 29.2051 66.9623 26.1397C61.2228 18.4556 56.2042 14.1623 53.1862 14.3479C52.7837 14.3731 52.3803 14.3682 51.9782 14.3335C48.5005 14.0327 45.3594 11.3267 43.7843 7.27114C42.579 4.16975 40.0237 0.538696 34.6912 0.861931C29.7944 1.15631 27.2647 4.49964 24.3353 8.37069C22.1365 11.2781 19.6423 14.5732 15.8448 16.8528C11.8439 19.2547 8.34718 22.6552 5.99873 26.4272C3.73173 30.0691 2.72612 33.7431 3.16543 36.7757C3.53037 39.2824 3.63233 41.8368 3.46877 44.3758C3.29888 46.6873 2.85199 48.9548 2.14277 51.1038C1.18293 54.125 1.35165 57.2882 1.76897 59.7168C2.37947 57.0618 3.18473 53.8686 3.95655 51.7461C4.34582 50.6757 4.90607 50.432 5.30746 50.4162C5.561 50.4037 6.20067 50.4892 6.62315 51.4778C7.56549 53.6816 7.6577 61.2997 7.66511 62.1598C7.69966 66.1768 7.51703 71.3449 6.44971 73.1542C6.41942 73.2058 5.73466 74.4874 8.08243 80.9613C9.36648 84.5024 10.8935 87.7312 10.9094 87.7636C10.9561 87.8621 10.9927 87.9675 11.0183 88.0771L13.6077 99.0752C13.6799 99.3836 13.8249 99.6584 14.0241 99.8644C14.2233 100.07 14.4677 100.198 14.7259 100.232L19.2498 100.832C19.4541 100.862 19.6608 100.812 19.8411 100.69C20.0214 100.567 20.1663 100.378 20.2557 100.149C20.5025 99.4991 20.3764 99.2203 20.3349 99.1287C20.2061 98.8449 19.5442 97.886 16.4309 97.464C15.0497 97.2773 13.7932 95.3509 12.1502 86.5547C11.2521 81.7428 10.6429 76.9068 10.6368 76.8585C10.6178 76.7068 10.6193 76.5523 10.6413 76.4013C11.5837 69.9016 13.2866 58.7845 14.0966 57.3568C14.1708 57.2261 14.2996 57.0113 14.4724 56.7236C20.5303 46.6462 21.2608 41.9189 20.8063 39.7281C20.7683 39.5511 20.7591 39.3666 20.7792 39.1852C20.7992 39.0038 20.8481 38.829 20.9229 38.6711C20.9978 38.5132 21.0973 38.3751 21.2155 38.2649C21.3338 38.1547 21.4685 38.0745 21.6119 38.029C21.7553 37.9835 21.9046 37.9736 22.0511 37.9998C22.1977 38.026 22.3386 38.0878 22.4657 38.1816C22.5929 38.2755 22.7037 38.3995 22.7919 38.5466C22.8801 38.6937 22.9438 38.8609 22.9795 39.0386C23.3575 40.8607 23.1314 43.1258 22.2931 45.864C25.3914 47.7105 36.2808 53.4055 49.081 50.919C50.1606 45.5699 51.1106 41.3079 51.3695 40.1593C51.4493 39.8048 51.6396 39.5041 51.8987 39.3232C52.1578 39.1423 52.4644 39.0961 52.7511 39.1947C53.0377 39.2933 53.2809 39.5288 53.4272 39.8491C53.5735 40.1695 53.6108 40.5487 53.5311 40.9031C50.6612 53.6536 46.6966 74.2121 47.5371 78.5882C48.5243 83.7289 47.4124 89.0144 46.7478 92.1726C46.6912 92.4412 46.6385 92.692 46.5907 92.9218C46.3785 93.9622 46.177 96.102 46.3215 96.7409C46.93 97.5395 46.8395 98.4936 46.7895 99.0161C46.7846 99.0682 46.7785 99.1332 46.774 99.1925C47.1039 99.3757 48.2957 99.7458 52.3846 99.4514C52.7705 99.4348 53.1541 99.3683 53.5288 99.2527C53.221 98.7639 52.4294 97.83 50.7126 96.5109C50.2946 96.1904 49.9448 95.7506 49.6925 95.2286C49.4402 94.7065 49.2926 94.1173 49.2623 93.5103C48.8988 86.0026 48.7673 76.5411 50.2046 74.1015C51.011 72.7339 53.3179 65.2443 56.3747 54.0664C56.901 52.1418 57.7558 50.3797 58.8813 48.8997C60.1665 47.2432 61.802 46.0663 63.6015 45.5031C64.2551 45.292 64.924 45.1619 65.5984 45.1146C67.6909 44.9698 72.9576 44.0492 77.9137 41.6015C81.9559 39.6055 86.9002 35.9816 87.5011 30.0538C88.9299 15.9591 96.9126 13.5649 97.2518 13.4698C98.1595 13.2093 99.0532 12.8796 99.9279 12.4826C101.088 11.9463 102.333 11.7502 103.564 11.9096C104.359 12.0104 105.247 12.0761 106.205 12.1039C106.334 11.9477 106.415 11.7422 106.437 11.5212C106.373 11.4281 106.293 11.3555 106.201 11.3098ZM29.0109 42.183C28.9667 42.3568 28.8952 42.5181 28.8005 42.6577C28.7059 42.7974 28.5899 42.9126 28.4593 42.9968C28.3286 43.081 28.1858 43.1325 28.0391 43.1485C27.8923 43.1644 27.7444 43.1445 27.6039 43.0898C27.2642 42.9577 26.9347 42.825 26.6154 42.6916C26.4744 42.6348 26.3439 42.544 26.2315 42.4245C26.119 42.3049 26.0269 42.159 25.9603 41.9952C25.8938 41.8313 25.8542 41.6528 25.8438 41.4699C25.8334 41.287 25.8524 41.1033 25.8997 40.9296C25.9471 40.7558 26.0218 40.5954 26.1196 40.4576C26.2174 40.3197 26.3363 40.2073 26.4695 40.1266C26.6026 40.046 26.7474 39.9988 26.8954 39.9878C27.0434 39.9768 27.1917 40.0021 27.3318 40.0624C27.6372 40.1895 27.9524 40.3164 28.2775 40.4431C28.418 40.4978 28.5485 40.5862 28.6614 40.7032C28.7743 40.8202 28.8675 40.9636 28.9356 41.1252C29.0037 41.2868 29.0455 41.4633 29.0584 41.6449C29.0713 41.8264 29.0552 42.0092 29.0109 42.183ZM43.339 45.9861C43.074 45.9919 42.8079 45.995 42.542 45.995C39.1222 45.9856 35.7125 45.5321 32.3692 44.6421C32.0786 44.5649 31.8246 44.3482 31.6631 44.0397C31.5016 43.7311 31.4457 43.3559 31.5077 42.9964C31.5697 42.6369 31.7445 42.3225 31.9938 42.1223C32.2431 41.9221 32.5465 41.8524 32.8373 41.9286C36.2741 42.8455 39.7842 43.2761 43.2997 43.2121C43.5972 43.2057 43.8847 43.3457 44.0987 43.6013C44.3128 43.8569 44.436 44.2072 44.4412 44.5751C44.4464 44.943 44.3332 45.2985 44.1265 45.5632C43.9198 45.8279 43.6365 45.9802 43.339 45.9867V45.9861Z" fill="white" stroke="#FF6600"/>
</svg>
