<svg width="80" height="80" viewBox="0 0 80 80" fill="none" xmlns="http://www.w3.org/2000/svg">
<path d="M35 67.1665H45C47.4806 67.1665 49.5 69.1859 49.5002 71.6665C49.5002 71.6665 49.5002 71.6665 49.5002 71.6665L49.5002 78.3332C49.5002 78.9771 48.9773 79.4999 48.3334 79.4999H31.6667C31.0229 79.4999 30.5 78.9771 30.5 78.3332V71.6665C30.5 69.1859 32.5194 67.1665 35 67.1665Z" fill="white" stroke="#FF6600"/>
<path d="M11.6667 67.1665H21.6667C24.1472 67.1665 26.1667 69.1859 26.1667 71.6665V78.3332C26.1667 78.9771 25.6439 79.4999 25 79.4999H8.33347C7.68961 79.4999 7.16675 78.9771 7.16675 78.3332V71.6665C7.16675 69.1859 9.18617 67.1665 11.6667 67.1665Z" fill="white" stroke="#FF6600"/>
<path d="M58.3333 67.1665H68.3333C70.8138 67.1665 72.8333 69.1859 72.8334 71.6665C72.8334 71.6665 72.8334 71.6665 72.8334 71.6665L72.8334 78.3332C72.8334 78.9771 72.3105 79.4999 71.6667 79.4999H55C54.3561 79.4999 53.8333 78.9771 53.8333 78.3332V71.6665C53.8333 69.1859 55.8527 67.1665 58.3333 67.1665Z" fill="white" stroke="#FF6600"/>
<path d="M35 50.5H45C47.4806 50.5 49.5 52.5194 49.5002 55C49.5002 55 49.5002 55 49.5002 55L49.5002 61.6667C49.5002 62.3106 48.9773 62.8334 48.3334 62.8334H31.6667C31.0229 62.8334 30.5 62.3106 30.5 61.6667V55C30.5 52.5194 32.5194 50.5 35 50.5Z" fill="white" stroke="#FF6600"/>
<path d="M11.6667 50.5H21.6667C24.1472 50.5 26.1667 52.5194 26.1667 55V61.6667C26.1667 62.3106 25.6439 62.8334 25 62.8334H8.33347C7.68961 62.8334 7.16675 62.3106 7.16675 61.6667V55C7.16675 52.5194 9.18617 50.5 11.6667 50.5Z" fill="white" stroke="#FF6600"/>
<path d="M17.2533 46.1667H17.2046L17.2037 46.1669C17.1984 46.1668 17.1926 46.1667 17.1865 46.1667H11.6665C9.51546 46.1667 7.42356 46.9854 5.78137 48.469C5.44478 48.773 4.9559 48.856 4.52672 48.6666C4.1031 48.4766 3.83325 48.0585 3.83325 47.6V1.66672C3.83325 1.02286 4.35611 0.5 4.99997 0.5H75C75.6438 0.5 76.1667 1.02286 76.1668 1.66672V47.6002C76.1668 48.0632 75.896 48.4799 75.4747 48.6661L75.4734 48.6667C75.323 48.7337 75.1593 48.7667 75.0001 48.7667C74.7174 48.7667 74.4368 48.6638 74.2169 48.4674C72.5749 46.9848 70.4837 46.1667 68.3334 46.1667H62.8134C62.4473 46.1667 62.1068 45.9971 61.8836 45.7059C61.6646 45.42 61.5928 45.043 61.6916 44.6876C62.9409 40.2226 64.9001 35.632 66.4862 32.6019L66.6973 32.1986L66.3156 31.9507C63.4252 30.0732 60.3092 25.9825 57.5907 21.6765C54.8864 17.3931 52.6254 12.9794 51.429 10.5368L51.1988 10.0669L50.7399 10.3181C48.798 11.3813 45.1998 12.8334 40 12.8334C34.8 12.8334 31.202 11.3812 29.2637 10.3183L28.8045 10.0665L28.5742 10.5368C27.3778 12.9794 25.1168 17.3931 22.4125 21.6764C19.694 25.9824 16.578 30.0731 13.6876 31.9507L13.3055 32.1989L13.5172 32.6023C15.0566 35.5359 16.94 39.9313 18.1896 44.2587L18.2093 44.327L18.2473 44.387C18.356 44.5593 18.42 44.7699 18.42 45C18.42 45.6439 17.8971 46.1667 17.2533 46.1667Z" fill="white" stroke="#FF6600"/>
<path d="M58.3333 50.5H68.3333C70.8138 50.5 72.8333 52.5194 72.8334 55C72.8334 55 72.8334 55 72.8334 55L72.8334 61.6667C72.8334 62.3106 72.3105 62.8334 71.6667 62.8334H55C54.3561 62.8334 53.8333 62.3106 53.8333 61.6667V55C53.8333 52.5194 55.8527 50.5 58.3333 50.5Z" fill="white" stroke="#FF6600"/>
<path d="M16.6667 40.5H63.3333C63.9772 40.5 64.5002 41.0229 64.5002 41.6667C64.5002 42.3106 63.9773 42.8334 63.3334 42.8334H16.6667C16.0229 42.8334 15.5 42.3106 15.5 41.6667C15.5 41.0229 16.0229 40.5 16.6667 40.5Z" fill="white" stroke="#FF6600"/>
<path d="M75 0.5H78.3333C78.9772 0.5 79.5 1.02277 79.5 1.66656C79.5 2.31042 78.9771 2.83328 78.3333 2.83328H75C74.3561 2.83328 73.8333 2.31052 73.8333 1.66672C73.8333 1.02286 74.3561 0.5 75 0.5Z" fill="white" stroke="#FF6600"/>
<path d="M1.66672 0.5H5C5.64386 0.5 6.16672 1.02286 6.16672 1.66672C6.16672 2.31058 5.64386 2.83344 5 2.83344H1.66672C1.02286 2.83344 0.5 2.31058 0.5 1.66672C0.5 1.02286 1.02286 0.5 1.66672 0.5Z" fill="white" stroke="#FF6600"/>
</svg>
