<svg width="103" height="103" viewBox="0 0 103 103" fill="none" xmlns="http://www.w3.org/2000/svg">
<path d="M93.2113 71.1735L93.2112 71.1735C91.5507 70.2615 89.4656 70.868 88.5539 72.5281C87.6419 74.1882 88.2483 76.2735 89.9085 77.1853C91.6248 78.1282 92.9502 79.1092 93.8396 80.0537C94.7375 81.0071 95.1406 81.868 95.1406 82.5783C95.1406 83.444 94.511 84.7103 92.6909 86.167C90.8892 87.609 87.9976 89.1721 83.6804 90.6389L83.8391 91.1062L83.6804 90.6389C75.152 93.5366 63.7239 95.1406 51.5 95.1406C39.2761 95.1406 27.848 93.5366 19.3196 90.6389L19.3196 90.6389C15.0024 89.1722 12.1108 87.6091 10.3091 86.167C8.48905 84.7103 7.85938 83.4441 7.85938 82.5783C7.85938 81.868 8.26254 81.0071 9.16039 80.0537C10.0498 79.1092 11.3752 78.1281 13.0915 77.1851C14.7518 76.2733 15.3581 74.188 14.446 72.5278L14.446 72.5278C13.534 70.8678 11.4494 70.2613 9.78879 71.1733L9.78874 71.1733C7.81728 72.2564 5.632 73.7321 3.93427 75.615C2.23361 77.5013 1 79.8226 1 82.5783C1 84.6957 1.73303 87.2309 4.13314 89.7925C6.52252 92.3426 10.5489 94.9037 17.113 97.1338C26.3646 100.277 38.577 102 51.5 102C64.423 102 76.6354 100.277 85.887 97.1338C92.4511 94.9037 96.4775 92.3426 98.8669 89.7925C101.267 87.2309 102 84.6957 102 82.5783C102 79.8226 100.766 77.5013 99.0657 75.6151C97.368 73.7321 95.1827 72.2565 93.2113 71.1735Z" fill="white" stroke="#FF6600"/>
<path d="M73.7547 68.7103L73.6188 69.1915L73.7547 68.7103C72.1221 68.2492 70.3499 67.8456 68.4692 67.5018L68.1229 67.4385L67.9466 67.7432C66.9336 69.4932 65.8722 71.2948 64.7622 73.1485L64.3787 73.7891L65.117 73.8998C67.1708 74.208 69.0949 74.5852 70.8383 75.0293L70.954 74.5753L70.8383 75.0294C73.4878 75.7042 75.2779 76.4169 76.4449 77.0233C77.2372 77.435 77.7236 77.7881 77.9981 78.0343C77.7236 78.2805 77.2372 78.6336 76.4449 79.0454C75.278 79.6518 73.488 80.3645 70.8385 81.0392L70.9619 81.5237L70.8385 81.0392C65.8192 82.3176 59.3402 83.0512 52.5005 83.1167L52.4844 83.1169L52.4684 83.1181C52.1466 83.1419 51.8238 83.1552 51.5 83.1552C51.176 83.1552 50.8534 83.1419 50.5314 83.1181L50.5154 83.1169L50.4993 83.1167C43.6596 83.0512 37.1806 82.3178 32.1613 81.0392L32.1613 81.0392C29.5118 80.3645 27.7218 79.6518 26.5548 79.0453C25.7626 78.6336 25.2762 78.2805 25.0017 78.0343C25.2762 77.7881 25.7626 77.435 26.5549 77.0233C27.7219 76.4169 29.512 75.7042 32.1615 75.0294C33.9049 74.5854 35.829 74.208 37.883 73.8998L38.6214 73.7891L38.2378 73.1485C37.1278 71.295 36.0664 69.4931 35.0534 67.7432L34.8771 67.4385L34.5307 67.5018C32.6501 67.8458 30.8777 68.2492 29.2453 68.7103C25.5769 69.7466 22.7627 71.0274 20.8563 72.5648C18.9376 74.112 17.916 75.9412 17.916 78.0341C17.916 80.127 18.9376 81.9562 20.8563 83.5034C22.7627 85.0408 25.5769 86.3217 29.2453 87.358L29.3591 86.9554L29.2453 87.358C35.2491 89.0541 43.1526 89.9823 51.5 89.9823C59.8474 89.9823 67.7509 89.0543 73.7547 87.358C77.4231 86.3218 80.2373 85.0409 82.1437 83.5035C84.0624 81.9562 85.084 80.127 85.084 78.0341C85.084 75.9411 84.0624 74.1119 82.1437 72.5647C80.2373 71.0273 77.4231 69.7466 73.7547 68.7103Z" fill="white" stroke="#FF6600"/>
<path d="M51.5 78.2957C54.2823 78.2957 56.8128 76.8761 58.2641 74.5016C63.0342 66.6973 68.2676 57.6439 72.3102 49.3656C74.3313 45.2268 76.0588 41.2735 77.282 37.7618C78.5019 34.2596 79.2344 31.1575 79.2344 28.7342C79.2344 13.441 66.7933 1 51.5 1C36.2067 1 23.7656 13.441 23.7656 28.7342C23.7656 31.1575 24.4981 34.2596 25.718 37.7618C26.9412 41.2735 28.6687 45.2268 30.6899 49.3656C34.7325 57.6439 39.9659 66.6973 44.7359 74.5016C46.1872 76.8761 48.7179 78.2957 51.5 78.2957ZM41.0533 26.8643C41.0533 21.1047 45.7402 16.418 51.5 16.418C57.2598 16.418 61.9467 21.1047 61.9467 26.8643C61.9467 32.624 57.2598 37.3107 51.5 37.3107C45.7402 37.3107 41.0533 32.6242 41.0533 26.8643Z" fill="white" stroke="#FF6600"/>
</svg>
