<svg width="82" height="66" viewBox="0 0 82 66" fill="none" xmlns="http://www.w3.org/2000/svg">
<path d="M48.7625 21.5219L46.7125 24.9969L48.7625 21.5219ZM48.7625 21.5219C49.1625 20.8469 48.675 20.0094 47.8875 20.0094L48.7625 21.5219ZM39.4055 1.07473L39.405 1.07521L24.2805 13.6747L24.6 14.0594L24.28 13.6752L24.2801 13.6751C21.8775 15.6709 20.5 18.6371 20.5 21.7469V36.0094V64.9969V65.4969H21H23H37H37.5V64.9969V52.9969C37.5 51.0605 39.0636 49.4969 41 49.4969C42.9364 49.4969 44.5 51.0605 44.5 52.9969V64.9969V65.4969H45H59H61H61.5V64.9969V36.0094V21.7469C61.5 18.6243 60.1222 15.671 57.733 13.6756L57.7325 13.6752L42.6075 1.07521L42.6069 1.07473C41.6843 0.308423 40.3282 0.308423 39.4055 1.07473ZM42.2875 1.45938L42.2875 1.45937L42.2875 1.45938ZM64.5 64.9969V65.4969H65H73C77.6886 65.4969 81.5 61.6855 81.5 56.9969V40.5344C81.5 38.9361 80.9044 37.3796 79.8346 36.1879L79.8342 36.1874L71.8624 27.3286C71.8618 27.3278 71.8611 27.3271 71.8605 27.3264C71.3868 26.7909 70.6991 26.4969 70 26.4969C69.3009 26.4969 68.6132 26.7909 68.1395 27.3264C68.1389 27.3271 68.1382 27.3278 68.1376 27.3286L64.6285 31.2248L64.5 31.3674V31.5594V64.9969ZM17.5 31.5594V31.3674L17.3715 31.2248L13.8624 27.3286C13.8618 27.3279 13.8612 27.3272 13.8606 27.3265C13.3869 26.7909 12.6992 26.4969 12 26.4969C11.3008 26.4969 10.613 26.7909 10.1393 27.3266C10.1388 27.3272 10.1382 27.3279 10.1376 27.3286L2.16583 36.1874L2.16543 36.1879C1.09593 37.3792 0.5 38.923 0.5 40.5344V56.9969C0.5 61.6855 4.31136 65.4969 9 65.4969H17H17.5V64.9969V31.5594ZM48.3289 28.7208C48.3293 28.7215 48.3297 28.7222 48.3301 28.7229C48.5288 29.0725 48.2688 29.4905 47.8956 29.4844L47.8921 29.4844L43.8546 29.4469L43.56 29.4442L43.4148 29.7006L41.4273 33.2131L41.4254 33.2166C41.2443 33.5426 40.7586 33.5562 40.5595 33.212C40.5592 33.2115 40.5589 33.211 40.5586 33.2104L38.5858 29.7018L38.441 29.4442L38.1454 29.4469L34.1125 29.4844C34.1118 29.4844 34.1112 29.4844 34.1105 29.4844C33.7015 29.483 33.4706 29.0593 33.6676 28.7268L33.6681 28.7259L35.7181 25.2509L35.868 24.9969L35.7181 24.7428L33.6711 21.2729C33.6707 21.2722 33.6703 21.2715 33.6699 21.2708C33.4712 20.9212 33.7312 20.5033 34.1044 20.5093L34.1079 20.5094L38.1454 20.5469L38.44 20.5496L38.5852 20.2931L40.5727 16.7806L40.5746 16.7772C40.7557 16.4511 41.2414 16.4375 41.4405 16.7818C41.4408 16.7823 41.4411 16.7828 41.4414 16.7833L43.4142 20.2919L43.559 20.5496L43.8546 20.5469L47.8875 20.5094C47.8882 20.5094 47.8888 20.5094 47.8895 20.5094C48.2985 20.5108 48.5294 20.9345 48.3324 21.267L48.3319 21.2678L46.2819 24.7428L46.132 24.9969L46.2819 25.2509L48.3289 28.7208Z" fill="white" stroke="#FF6600"/>
</svg>
