<svg width="80" height="80" viewBox="0 0 80 80" fill="none" xmlns="http://www.w3.org/2000/svg">
<path d="M49.2778 61.1339V79.4998H42.8438V56.6442L49.2778 61.1339Z" fill="white" stroke="#FF6600"/>
<path d="M35.7472 25.0525L35.8881 24.8051L35.7472 24.5577L33.8294 21.1901H37.6563H37.9469L38.0907 20.9376L39.9999 17.5855L41.909 20.9376L42.0528 21.1901H42.3435H46.1703L44.2526 24.5577L44.1117 24.8051L44.2526 25.0525L46.1703 28.42H42.3435H42.0528L41.909 28.6726L39.9999 32.0245L38.0907 28.6726L37.9469 28.42H37.6563H33.8294L35.7472 25.0525Z" fill="white" stroke="#FF6600"/>
<path d="M37.1562 56.6442V79.4998H30.7222V61.1339L37.1562 56.6442Z" fill="white" stroke="#FF6600"/>
<path d="M12.4495 45.2594V79.5H0.5V53.5977L12.4495 45.2594Z" fill="white" stroke="#FF6600"/>
<path d="M79.5001 79.5H67.5505V45.2594L79.5001 53.5977V79.5Z" fill="white" stroke="#FF6600"/>
<path d="M25.2485 57.9654L25.0346 58.1146V58.3754V79.4998H18.137V15.8657L39.9999 0.609698L61.8629 15.8657V79.5H54.9652V58.3756V58.1148L54.7514 57.9655L40.2861 47.8715L39.9999 47.6718L39.7138 47.8715L25.2485 57.9654ZM53.0163 15.9385V15.4385H52.5163H45.3404L42.3171 10.1301L42.1732 9.87757H41.8826H38.117H37.8263L37.6825 10.1301L34.6591 15.4385H27.4832H26.9832V15.9385V20.5619V20.6943L27.0487 20.8094L29.3245 24.8053L27.0487 28.8013L26.9832 28.9163V29.0487V33.6721V34.1721H27.4832H34.6591L37.6825 39.4803L37.8263 39.7329H38.117H41.8826H42.1732L42.3171 39.4803L45.3404 34.1721H52.5163H53.0163V33.6721V29.0487V28.9163L52.9508 28.8013L50.675 24.8053L52.9508 20.8094L53.0163 20.6943V20.5619V15.9385Z" fill="white" stroke="#FF6600"/>
</svg>
