<svg width="80" height="80" viewBox="0 0 80 80" fill="none" xmlns="http://www.w3.org/2000/svg">
<path d="M54.0786 20.4458L54.074 20.4434L41.8042 14.0618V14.0453C44.2103 13.1521 45.5807 10.5948 44.9916 8.06297C44.5656 6.16815 43.0612 4.68704 41.1934 4.24415L41.1934 4.24411L41.1865 4.24257C39.6367 3.89822 38.0374 4.24147 36.8012 5.22665C35.567 6.21022 34.8737 7.67687 34.8737 9.2525C34.8737 10.2373 35.6672 11.0568 36.678 11.0568C37.6671 11.0568 38.4823 10.2416 38.4823 9.2525C38.4823 8.78207 38.6885 8.34995 39.0606 8.04237C39.4251 7.75802 39.8907 7.65375 40.3654 7.77241L40.3736 7.77446L40.3819 7.77623C40.922 7.89197 41.3624 8.33517 41.4764 8.85525L41.4764 8.85527L41.4781 8.86271C41.6903 9.76429 41.1558 10.4546 40.5284 10.6769L40.5271 10.6773C39.1258 11.1778 38.1953 12.417 38.1953 13.8787V14.0621L25.9256 20.4437L25.9256 20.4437L25.921 20.4461C24.6907 21.1023 24.0289 22.4558 24.3671 23.8083C24.7207 25.2225 25.9537 26.1522 27.426 26.1522H52.5738C54.0461 26.1522 55.2794 25.2223 55.6328 23.8082C55.9707 22.456 55.309 21.102 54.0786 20.4458ZM1.73917 22.1087C1.05881 22.1087 0.5 21.5499 0.5 20.8695V13.913C0.5 13.2326 1.05881 12.6738 1.73917 12.6738H14.2827V22.1087H1.73917ZM65.7173 22.1087V12.6738H78.2608C78.9412 12.6738 79.5 13.2326 79.5 13.913V20.8695C79.5 21.5499 78.9412 22.1087 78.2608 22.1087H65.7173ZM50.2961 22.556L29.4418 22.6868L39.9999 17.1898L50.2961 22.556ZM17.8913 27.8262V3.47833C17.8913 1.84132 19.2328 0.5 20.8697 0.5H59.1305C60.7675 0.5 62.1088 1.84131 62.1088 3.47833V27.8262C62.1088 29.463 60.7675 30.8045 59.1305 30.8045H20.8695C19.2327 30.8045 17.8913 29.4631 17.8913 27.8262ZM38.1957 43.5435V79.5H29.6305V43.5435H38.1957ZM50.3695 43.5435V79.5H41.8043V43.5435H50.3695ZM19.0652 43.5435V60.8043H10.5V43.5435H19.0652ZM65.7174 25.7173H77.7608V79.5H53.9782V41.7392C53.9782 40.7429 53.1701 39.9348 52.1738 39.9348H27.826C26.8297 39.9348 26.0217 40.7429 26.0217 41.7392V79.5H2.23917V25.7173H14.2827V27.826C14.2827 31.4586 17.237 34.413 20.8697 34.413H59.1305C62.7631 34.413 65.7175 31.4586 65.7175 27.826L65.7174 25.7173ZM22.6738 41.7392C22.6738 40.7429 21.8658 39.9348 20.8695 39.9348H8.69567C7.69936 39.9348 6.89133 40.7429 6.89133 41.7392V62.6087C6.89133 63.605 7.69936 64.413 8.69567 64.413H20.8695C21.8658 64.413 22.6738 63.605 22.6738 62.6087V41.7392ZM71.3043 39.9348H59.1305C58.1342 39.9348 57.3262 40.7429 57.3262 41.7392V62.6087C57.3262 63.605 58.1342 64.413 59.1305 64.413H71.3043C72.3006 64.413 73.1087 63.605 73.1087 62.6087V41.7392C73.1087 40.7429 72.3006 39.9348 71.3043 39.9348ZM60.9348 60.8043V43.5435H69.5V60.8043H60.9348Z" fill="white" stroke="#FF6600"/>
</svg>
