<svg width="77" height="73" viewBox="0 0 77 73" fill="none" xmlns="http://www.w3.org/2000/svg">
<path d="M44.8019 46.2994C51.0404 46.5796 57.6526 47.3157 65.3878 48.4797C67.815 44.6275 69.6878 40.5417 70.8468 36.2482C73.1931 27.5564 73.7049 20.2938 73.7912 13.0695C73.8039 12.2138 72.9724 11.5986 72.1579 11.861C71.0675 12.2097 69.9237 12.3903 68.779 12.3956C62.9957 12.3919 58.1732 8.01859 57.5949 2.26383C57.5261 1.62826 56.989 1.14691 56.3498 1.14804L21.213 1.13867C20.5724 1.14245 20.0379 1.62897 19.9752 2.26657C19.3964 8.02549 14.5718 12.398 8.78385 12.3984C7.5853 12.3946 6.39477 12.1929 5.25845 11.8149C4.45532 11.5489 3.62545 12.1408 3.61538 12.9867C3.54476 20.0791 3.8358 27.7954 6.24478 36.3511C7.44972 40.6307 9.37993 44.6938 11.8625 48.5264C14.4028 48.146 16.8401 47.807 19.4491 47.4863C24.2025 46.9098 28.3637 46.5162 32.8061 46.3047C33.9922 46.2561 34.7452 46.2239 35.4928 46.2045C36.5394 46.1762 37.5827 46.162 38.6251 46.162C39.6463 46.1607 40.6682 46.1714 41.7147 46.195C42.7496 46.2186 43.7721 46.2531 44.8019 46.2994ZM38.779 6.14322C49.0295 6.14322 57.3629 14.7569 57.3629 25.3521C57.3629 35.9473 49.0295 44.571 38.779 44.571C28.5285 44.571 20.1852 35.9473 20.1852 25.3521C20.1852 14.7569 28.5285 6.14322 38.779 6.14322ZM38.779 8.72861C38.2986 8.72861 37.8252 8.76169 37.3556 8.80185L39.7824 9.91029L42.4948 9.18998C41.3008 8.89895 40.0604 8.72861 38.779 8.72861ZM37.6291 17.8986L38.3102 12.0636L33.2565 9.74924C31.0702 10.5731 29.1015 11.8575 27.4777 13.5114L27.3922 20.2863L31.7635 22.2333L37.6291 17.8986ZM46.5451 10.7892L40.8322 12.3078C40.5993 14.2177 40.3626 16.1271 40.1364 18.0377L45.8419 22.3713L50.8493 20.8062L51.6574 15.4108C50.2912 13.5212 48.556 11.935 46.5451 10.7892ZM24.9386 16.8879C23.8382 18.8068 23.0992 20.9709 22.8219 23.2892L24.8874 20.6891L24.9386 16.8879ZM53.6471 19.0021L53.276 21.4557L54.7482 23.4308C54.576 21.8798 54.2016 20.3919 53.6471 19.0021ZM33.4079 24.2146L35.4196 30.7501L42.0553 30.7881L44.1403 24.2818L38.7887 20.2204L33.4079 24.2146ZM26.5109 22.7154L22.8146 27.3663C23.1163 29.9527 23.9879 32.353 25.3 34.4319L30.7272 35.6891L33.1393 31.8316L30.9274 24.6759L30.2682 24.383L26.5109 22.7154ZM51.4962 23.3039L46.5915 24.8443L44.3649 31.795L47.3922 35.4401L52.2018 34.5172C53.5011 32.4833 54.3688 30.133 54.6994 27.6032L51.4962 23.3039ZM35.1901 33.3259C34.3901 34.6014 33.5914 35.8777 32.7926 37.1539L35.4391 41.6242C36.5167 41.8585 37.6331 41.9856 38.779 41.9856C40.2584 41.9856 41.6846 41.7626 43.0441 41.3776L45.4025 37.0344C44.3945 35.8142 43.3872 34.5935 42.3776 33.3746L35.1901 33.3259ZM49.5944 37.6472L47.7487 38.0033L46.7917 39.766C47.8016 39.165 48.7385 38.4527 49.5944 37.6472ZM28.0294 37.7128C29.1331 38.7385 30.3726 39.6051 31.7209 40.286L30.5417 38.2938L28.0294 37.7128ZM38.6251 48.6502C30.2142 48.6644 21.857 49.5154 11.091 51.1601C10.3271 51.2767 9.85122 52.0518 10.0924 52.7859L12.5949 60.2859C12.7876 60.863 13.3679 61.2177 13.9694 61.1259C35.6175 57.793 41.9745 57.8036 63.5836 61.1259C64.1885 61.2227 64.7746 60.8673 64.9679 60.2859L67.4704 52.7859C67.7116 52.0518 67.2356 51.277 66.4718 51.1601C55.5014 49.4613 47.0361 48.6367 38.6251 48.6502ZM8.44205 55.74L2.00161 57.4368C0.852484 57.751 0.752134 59.3418 1.85269 59.7977L6.0983 61.5238L3.2565 65.1224C2.51682 66.0612 3.39001 67.4032 4.548 67.1072L17.8439 63.599C18.1854 63.5102 18.4736 63.2815 18.6374 62.9691C17.2301 63.1746 15.9088 63.3588 14.3478 63.599C12.5425 63.8758 10.8002 62.812 10.2218 61.0795L8.44205 55.74ZM69.1061 55.7873L67.341 61.0803C66.762 62.8169 65.014 63.8819 63.2052 63.5998C61.5648 63.3476 60.1696 63.152 58.6984 62.9382C58.8583 63.2661 59.1535 63.5078 59.5065 63.5998L72.8024 67.1057C73.963 67.4123 74.8467 66.066 74.1037 65.1232L71.2521 61.5247L75.4977 59.7985C76.6032 59.3444 76.5025 57.7469 75.3488 57.4352L69.1061 55.7873ZM38.7912 61.1121C34.2946 61.1112 29.6867 61.5078 24.0573 62.2277C28.3195 65.9147 33.0719 69.2689 38.1442 72.2277C38.5347 72.4568 39.0184 72.4568 39.4088 72.2277C44.4792 69.27 49.1996 65.9121 53.4103 62.218C47.8377 61.5078 43.2599 61.1129 38.7912 61.1121Z" fill="white" stroke="#FF6600"/>
</svg>
