<svg width="62" height="83" viewBox="0 0 62 83" fill="none" xmlns="http://www.w3.org/2000/svg">
<path d="M37.2874 81.1882C37.2874 81.1882 38.8307 70.3884 30.4127 65.517C16.346 57.3764 2.09921 44.4204 3.15733 31.9414C3.15733 31.9414 -4.43925 52.2335 15.2883 65.6662C15.2883 65.6662 32.6843 77.0093 37.2874 81.1882Z" fill="white" stroke="#FF6600"/>
<path d="M37.2874 81.1882C37.2874 81.1882 38.8307 70.3884 30.4127 65.517C16.346 57.3764 2.09921 44.4204 3.15733 31.9414C3.15733 31.9414 -4.43925 52.2335 15.2883 65.6662C15.2883 65.6662 32.6843 77.0093 37.2874 81.1882Z" fill="white" stroke="#FF6600"/>
<path d="M14.324 67.1403L14.2947 67.1208C6.1515 61.576 2.50176 54.8829 0.969107 49.1196C0.597312 54.694 1.91611 63.3177 11.5255 69.8608C11.5255 69.8608 25.1298 78.7314 28.7296 81.9996C28.7296 81.9996 28.7365 81.9516 28.7464 81.8613C29.0585 78.9959 27.7556 76.1935 25.3797 74.5569C19.8447 70.7444 14.4209 67.2034 14.324 67.1403Z" fill="white" stroke="#FF6600"/>
<path d="M58.62 31.9412C57.7383 29.8279 54.564 16.6191 49.2734 13.273V3.76274C49.2734 3.76274 45.2761 5.9935 45.2173 8.16564C45.2173 8.16564 43.7477 6.22838 45.1228 2C45.1228 2 40.1031 5.12752 39.0009 8.42974C39.0009 8.42974 24.9368 4.81932 11.1812 15.9147L16.8245 15.4744C16.8245 15.4744 16.1026 15.9267 14.944 16.7294C12.2128 18.6215 9.89968 20.9368 8.05011 23.5421C6.20755 26.1376 5.5255 29.3908 6.12362 32.5157C7.22874 38.2904 10.0908 43.914 13.7469 48.0132C18.2498 53.0617 24.7966 58.1957 32.1811 62.4692C36.6327 65.0455 38.859 68.8571 39.9458 72.4094C40.2214 71.8429 43.3469 64.8974 36.9286 53.4275C30.2638 41.5169 33.0758 35.6397 38.7057 31.9414C38.7057 31.9414 44.6881 38.4578 50.1551 40.2188C50.1551 40.2188 51.7423 46.9111 57.9146 44.2694C64.087 41.6277 59.5019 34.0547 58.62 31.9412ZM47.9811 24.0397C46.9411 24.0397 46.0978 23.1966 46.0978 22.1564C46.0978 21.1164 46.9409 20.2732 47.9811 20.2732C49.0212 20.2732 49.8643 21.1162 49.8643 22.1564C49.8643 23.1966 49.0211 24.0397 47.9811 24.0397Z" fill="white" stroke="#FF6600"/>
</svg>
