<svg width="100" height="100" viewBox="0 0 100 100" fill="none" xmlns="http://www.w3.org/2000/svg">
<path d="M50.0002 18.2222C47.2617 18.2222 44.626 19.046 42.3781 20.6046C41.7137 21.0653 41.5457 21.9815 42.0029 22.6511C42.4604 23.3206 43.3697 23.4897 44.0342 23.0292C45.7928 21.8099 47.8557 21.1653 50.0002 21.1653C55.8115 21.1653 60.5393 25.9286 60.5393 31.7835C60.5393 37.6384 55.8115 42.4019 50.0002 42.4019C44.1889 42.4019 39.4611 37.6384 39.4611 31.7835C39.4611 30.0563 39.8592 28.4099 40.6441 26.8899C41.0164 26.1688 40.7383 25.2804 40.0227 24.9054C39.3068 24.5306 38.4254 24.8104 38.0529 25.5315C37.0633 27.4479 36.54 29.6099 36.54 31.7835C36.5402 39.2614 42.5783 45.345 50.0002 45.345C57.4221 45.345 63.4602 39.2614 63.4602 31.7835C63.4602 24.3058 57.4221 18.2222 50.0002 18.2222Z" fill="#FF6600"/>
<path d="M99.8878 97.9631L85.4729 63.0676C85.2464 62.5189 84.7145 62.1615 84.1247 62.1615H69.7601C72.554 58.3533 74.8796 54.5602 76.6958 50.8357C79.9145 44.2354 81.5464 37.8254 81.5464 31.7836C81.5462 14.258 67.3946 0 49.9999 0C32.6052 0 18.4536 14.258 18.4536 31.7834C18.4536 37.8252 20.0854 44.2354 23.3042 50.8355C25.1202 54.56 27.4458 58.3533 30.2399 62.1613H15.8753C15.2854 62.1613 14.7534 62.5189 14.527 63.0674L4.70439 86.8459C4.39443 87.5963 4.74677 88.4576 5.4915 88.7697C5.67509 88.8467 5.86494 88.8832 6.05205 88.8832C6.62431 88.8832 7.16748 88.5422 7.40088 87.9768L8.80244 84.5838H18.745L13.5927 97.0568H3.65029L5.14384 93.441C5.4538 92.6906 5.10146 91.8293 4.35673 91.5172C3.61162 91.2045 2.75693 91.56 2.44716 92.3102L0.112203 97.9631C-0.0754921 98.4172 -0.0254921 98.9359 0.245602 99.3449C0.516305 99.7541 0.972164 100 1.46045 100H98.5394C99.0274 100 99.4835 99.7541 99.7544 99.3449C100.025 98.9359 100.075 98.4172 99.8878 97.9631ZM21.3747 31.7834C21.3747 15.8807 34.2159 2.94297 49.9999 2.94297C65.7839 2.94297 78.6251 15.8809 78.6251 31.7834C78.6251 38.452 76.3253 49.1082 65.6866 62.6879C65.6759 62.7006 65.6663 62.7141 65.6561 62.7271C65.1128 63.4199 64.5483 64.1201 63.9606 64.8281C58.1145 71.8715 52.1985 77.0146 49.9997 78.842C47.8073 77.0209 41.9192 71.9035 36.0772 64.8736C35.4749 64.1488 34.8972 63.4322 34.3411 62.7232C34.3321 62.7119 34.3237 62.7002 34.3144 62.6891C23.6761 49.1103 21.3747 38.4545 21.3747 31.7834ZM16.8493 65.1045H26.7921L23.1655 73.8834H13.2229L16.8493 65.1045ZM25.3899 97.057L34.519 74.9578L60.4983 97.057H25.3899ZM65.0263 97.057L34.8794 71.4125C34.5235 71.1096 34.0454 70.9961 33.5935 71.1066C33.1411 71.217 32.7677 71.5383 32.589 71.9713L22.2263 97.0568H16.7567L22.2833 83.6775C22.471 83.2234 22.421 82.7049 22.1499 82.2957C21.8792 81.8865 21.4231 81.6406 20.9349 81.6406H10.0186L12.0073 76.8262H24.1397C24.7296 76.8262 25.2616 76.4686 25.488 75.9201L29.956 65.1043H32.4907C32.9308 65.657 33.378 66.21 33.8372 66.7627C41.3733 75.8311 48.7938 81.6531 49.1061 81.8967C49.3694 82.102 49.6847 82.2043 49.9999 82.2043C50.3151 82.2043 50.6306 82.1018 50.8936 81.8967C51.0653 81.7629 53.3852 79.9418 56.6892 76.8264H73.2284C74.0351 76.8264 74.689 76.1676 74.689 75.3549C74.689 74.5422 74.0351 73.8834 73.2284 73.8834H59.6993C61.7243 71.832 63.9376 69.4402 66.1628 66.7629C66.622 66.2102 67.0694 65.6574 67.5093 65.1045H83.1505L86.7769 73.8834H79.0704C78.2638 73.8834 77.6099 74.5422 77.6099 75.3549C77.6099 76.1676 78.2636 76.8264 79.0704 76.8264H87.9925L89.9812 81.6408H59.8894C59.2798 81.6408 58.7345 82.0221 58.521 82.5975C58.3079 83.1728 58.4716 83.8211 58.9319 84.2236L73.6063 97.057H65.0263ZM78.0626 97.057L63.8001 84.584H91.1972L96.3497 97.057H78.0626Z" fill="#FF6600"/>
</svg>
