<svg width="91" height="102" viewBox="0 0 91 102" fill="none" xmlns="http://www.w3.org/2000/svg">
<path d="M40.3649 42.0002C38.7734 39.6409 28.1094 38.0471 26.9938 39.5471C25.6156 41.4846 29.0117 52.844 34.3438 54.1252C39.282 55.2815 43.0555 46.0002 40.3649 42.0002ZM34.8195 49.4846C34.5898 49.6565 34.3273 49.7502 34.0484 49.7502C33.6711 49.7502 33.3102 49.6096 33.0641 49.2971L30.9641 46.8284C30.5211 46.2971 30.6031 45.5627 31.1281 45.1409C31.6859 44.719 32.4734 44.7971 32.9164 45.2971L35.0164 47.7971C35.4594 48.2971 35.3773 49.0627 34.8195 49.4846ZM36.7227 44.0627C36.575 44.6252 36.05 44.9846 35.4758 44.9846C35.3938 44.9846 35.2953 44.9846 35.1805 44.9377L32.5555 44.344C31.8828 44.2034 31.4727 43.5471 31.6203 42.9065C31.7844 42.2659 32.4734 41.8596 33.1461 42.0315L35.7711 42.6252C36.4602 42.7815 36.8703 43.4221 36.7227 44.0627ZM89.2719 50.3909C81.5445 67.6252 54.2774 68.2659 52.9484 73.3284C52.4727 75.2346 51.6195 80.0627 71.4219 84.4846C69.3547 91.5784 68.2227 99.2815 71.3727 100.875C74.7688 102.594 95.7031 85.8596 89.2719 50.3909ZM70.5852 73.344C70.4375 73.3752 70.3227 73.4065 70.175 73.4065C69.65 73.4065 69.1578 73.0784 68.9938 72.5784C68.7641 71.969 69.125 71.2815 69.7649 71.0627C72.6197 70.1409 75.3266 68.8596 77.8367 67.2657C79.6742 66.1094 81.3969 64.7344 82.9719 63.2502C83.4805 62.7659 84.2844 62.7659 84.7602 63.2502C85.2523 63.7034 85.2523 64.469 84.7602 64.9219C83.0867 66.5469 81.2164 68.0001 79.2477 69.2657C76.557 70.969 73.6531 72.344 70.5852 73.344ZM77.4922 79.1565C77.2461 79.344 76.9672 79.4221 76.7047 79.4221C76.3273 79.4221 75.9664 79.2659 75.7203 78.9846C75.2773 78.469 75.3594 77.7035 75.9008 77.2815C77.0327 76.4221 78.132 75.469 79.1492 74.4377C80.757 72.8752 82.2008 71.1877 83.4641 69.3752C83.8414 68.8283 84.6125 68.6877 85.2031 69.0471C85.7938 69.4065 85.9414 70.1409 85.5641 70.7034C84.2188 72.6409 82.6602 74.469 80.9539 76.1252C79.8711 77.2034 78.6898 78.219 77.4922 79.1565ZM86.2531 77.7815C85.6297 79.4846 84.8422 81.1565 83.9563 82.7659C83.2508 84.0471 82.4797 85.2971 81.6594 86.4846C81.3969 86.8284 81.0031 87.0159 80.6094 87.0159C80.3469 87.0159 80.1172 86.9534 79.9037 86.8284C79.3295 86.4534 79.182 85.7034 79.5592 85.1565C80.3303 84.0471 81.0686 82.8596 81.7248 81.6565C82.5616 80.1409 83.2998 78.5627 83.9069 76.969C84.1366 76.344 84.8748 76.0002 85.5147 76.2346C86.1711 76.469 86.4992 77.1565 86.2531 77.7815ZM76.7047 23.7815C76.6555 23.8127 76.6227 23.844 76.5734 23.8596C73.932 25.6409 71.2742 26.469 68.7969 26.2815C67.3531 26.1721 66.5164 25.7815 65.7781 25.4377C65.0891 25.1252 64.4328 24.8127 63.1203 24.6877C60.1508 24.4221 58.5102 25.1252 56.7711 25.9065C55.1961 26.5783 53.457 27.3596 50.832 27.3596C50.5531 27.3596 50.2578 27.344 49.9625 27.3284C46.4352 27.1252 44.0234 24.6877 42.0711 22.7502C40.7094 21.3596 39.4297 20.0783 38.232 19.9846C36.9688 19.9065 36.2961 20.3907 35.3445 21.0627C34.3602 21.7502 33.1461 22.6252 31.1938 22.719C30.2094 22.7815 29.2906 22.6408 28.4047 22.4065C28.4047 22.4221 28.4211 22.469 28.4211 22.4846C29.5367 27.1096 29.8156 31.8284 29.2414 36.5784C29.3727 36.5627 29.4875 36.5627 29.6188 36.5627C32.3094 36.5627 40.3484 37.5471 42.4977 40.7034C43.0227 41.4846 43.3672 42.3596 43.5641 43.2971C46.1234 43.4846 48.8141 43.8284 51.5047 44.344C51.5211 44.2971 51.5211 44.2659 51.5375 44.219C51.5375 44.2035 51.5375 44.1877 51.5703 44.1565C52.6367 41.5315 54.1953 40.0315 56.1477 39.719C58.3297 39.3909 59.6094 40.2188 60.6102 40.9063C61.4305 41.4376 62.0211 41.8438 63.0873 41.7188C64.0225 41.6407 65.1545 41.0001 66.3194 40.3282C68.9116 38.8438 72.4389 36.8282 76.5569 39.7032C79.4936 41.7657 81.6756 45.7188 82.3811 50.2813C82.6764 52.1407 82.7092 53.9844 82.4959 55.7657C84.3498 53.9844 85.8756 51.8907 86.9748 49.4376L88.4022 46.2188C87.057 40.5784 83.7758 31.5783 76.7047 23.7815ZM79.8875 50.6409C79.2805 46.7034 77.4758 43.3284 75.0641 41.6409C72.2914 39.7034 70.1258 40.9377 67.632 42.3909C66.2703 43.1565 64.8266 43.969 63.35 44.1252C61.332 44.2971 60.1344 43.5002 59.1664 42.8596C58.2969 42.2815 57.7391 41.9065 56.5414 42.0784C55.557 42.2502 54.6875 43.1877 53.9492 44.9065C62.7102 47.0627 71.0938 51.6877 74.5555 61.2815C76.2617 60.4065 77.9023 59.4377 79.4281 58.344C80.15 55.969 80.3141 53.3284 79.8875 50.6409ZM31.2102 8.6721C28.7984 8.8596 26.075 9.39085 23.2859 10.219C25.0578 13.1096 26.4852 16.1252 27.5188 19.2815V19.3127C28.5852 19.9377 29.7828 20.3909 31.0461 20.3284C32.2438 20.2659 32.9984 19.7502 33.868 19.1252C34.8523 18.4534 36.05 17.5783 37.9533 17.5783C38.101 17.5783 38.265 17.5784 38.4127 17.6096C40.5947 17.7659 42.2025 19.3909 43.8924 21.0784C45.7299 22.9065 47.6002 24.7815 50.1431 24.9377C52.6205 25.0783 54.0478 24.4377 55.7213 23.719C57.5916 22.8909 59.7572 21.9377 63.3502 22.3127C65.122 22.469 66.09 22.9221 66.8775 23.2815C67.5502 23.5784 68.0259 23.8283 68.9939 23.8908C70.815 24.0471 72.8494 23.4065 74.9822 22.0002C66.3195 13.4533 52.6367 6.82835 31.2102 8.6721ZM51.1438 1.00023C49.2734 0.859601 47.8953 2.9846 47.0422 6.4846C48.4203 6.64085 49.7328 6.8596 51.0453 7.12523C51.275 6.59398 51.5211 6.06273 51.7672 5.6096C52.0953 5.00023 52.8664 4.78148 53.4734 5.09398C54.0805 5.39085 54.343 6.1096 54.0148 6.68773C53.8508 6.9846 53.6867 7.31273 53.5391 7.64085C54.6219 7.90648 55.7047 8.18773 56.7547 8.50023C56.8531 8.26585 56.968 8.03148 57.0828 7.81273C57.3781 7.20335 58.1328 6.95335 58.7727 7.21898C59.3959 7.53148 59.6422 8.25023 59.3469 8.84398C59.2648 8.9846 59.1992 9.12523 59.15 9.28148C60.2492 9.68773 61.3484 10.1096 62.3984 10.5627C62.7758 10.3284 63.2516 10.2815 63.6781 10.4846C64.1047 10.6877 64.3508 11.0627 64.3672 11.4846C68.6492 13.5784 72.5375 16.2815 75.9828 19.5471C69.8141 10.5627 60.6102 1.78148 51.1438 1.00023ZM25.9602 23.0315C24.9758 18.8596 23.3022 14.9065 20.9727 11.2035C20.9234 11.1254 20.8906 11.0473 20.825 10.9848C9.89844 14.7659 -1.20859 22.719 0.727349 33.1877C0.825786 33.719 0.957036 34.2504 1.08829 34.719C2.53204 35.344 4.50079 35.8596 6.86329 35.719C8.14297 35.6409 9.37344 35.3596 10.5711 34.9065C11.2273 34.6409 11.9656 34.9377 12.228 35.5471C12.4905 36.1721 12.1623 36.8596 11.5389 37.1252C10.0952 37.6877 8.58578 38.0315 7.02718 38.1252C6.68265 38.1409 6.37094 38.1409 6.04281 38.1409C4.6975 38.1409 3.48343 37.969 2.38422 37.6877C5.35391 42.4377 11.8998 43.5784 24.418 43.4065C24.057 41.5002 24.0078 39.469 24.9428 38.1877C25.3858 37.5784 25.9928 37.2034 26.6655 36.969C27.2891 32.2659 27.0758 27.5784 25.9602 23.0315ZM13.9344 27.9846C12.507 27.9846 11.3586 26.8908 11.3586 25.5315C11.3586 24.1565 12.507 23.0627 13.9344 23.0627C15.3617 23.0627 16.5266 24.1565 16.5266 25.5315C16.5266 26.8908 15.3617 27.9846 13.9344 27.9846Z" fill="white" stroke="#FF6600"/>
</svg>
