<svg width="63" height="90" viewBox="0 0 63 90" fill="none" xmlns="http://www.w3.org/2000/svg">
<path d="M4.81457 59.0181C5.33026 59.2403 5.73358 59.6467 5.93758 60.1495L6.62972 61.8751L7.58661 61.069C7.31892 60.4149 7.10479 59.742 6.94615 59.0563C6.2614 58.4132 4.22825 56.4587 3.41881 55.1892C2.48899 53.7304 3.04844 51.9763 3.38354 51.1952C3.43434 51.0768 3.5138 50.9716 3.61544 50.888C3.71709 50.8044 3.83804 50.7449 3.96842 50.7144C4.62225 50.558 5.31404 50.6443 5.90354 50.9558C8.65486 52.4206 10.8141 51.8269 11.1347 51.7251C11.4009 51.6037 11.6584 51.4657 11.9056 51.312C10.5993 50.3657 9.50071 49.1845 8.67189 47.8354C8.02505 48.272 7.27702 48.5533 6.49147 48.6553C5.70593 48.7574 4.90613 48.6771 4.16017 48.4214C2.79024 47.9853 1.75727 47.9735 1.25257 48.3886C0.652717 48.8819 0.511417 50.1645 0.854718 52.0007C1.77818 56.9483 2.65366 58.0923 4.81457 59.0181Z" fill="white" stroke="#FF6600"/>
<path d="M60.1626 52.7428C59.9335 50.8816 59.3013 49.9717 58.701 49.5287C58.3191 49.2544 57.8626 49.0903 57.3856 49.0557C57.9021 49.9945 58.299 50.9887 58.5679 52.0172C59.1343 52.1825 59.6717 52.427 60.1626 52.7428Z" fill="white" stroke="#FF6600"/>
<path d="M54.1144 88.1809L57.5392 88.0246L57.6544 87.718C57.6579 87.709 57.6612 87.7002 57.6651 87.6914C57.6952 87.6006 57.6875 87.5023 57.6436 87.4168C57.0326 86.1006 56.7476 82.8717 56.796 77.8195C56.8069 76.72 56.3964 75.6544 55.6414 74.8225C53.0774 72.0169 50.2097 69.4769 47.0859 67.2445C45.2583 65.9373 44.3789 63.7397 43.9921 61.5043C42.6207 60.8217 41.1715 60.2914 39.673 59.9238C41.5004 63.9082 44.4125 69.1035 46.369 69.8703C52.2 72.1555 55.7513 77.8793 55.6375 84.8078C55.6217 85.774 55.2823 86.7101 54.6687 87.4797L54.1144 88.1809Z" fill="white" stroke="#FF6600"/>
<path d="M5.28302 23.9776C6.41194 24.1359 7.48661 24.5425 8.42174 25.1653C10.1034 26.2519 12.5969 27.1806 14.9227 25.4362C15.0344 25.3524 15.1632 25.2917 15.3008 25.2578C15.4385 25.224 15.582 25.2177 15.7223 25.2395C15.8627 25.2613 15.9967 25.3107 16.1159 25.3845C16.2351 25.4582 16.3369 25.5548 16.4149 25.6681C16.5534 25.8802 16.6038 26.1339 16.5563 26.3795C16.5087 26.6251 16.3667 26.845 16.1579 26.9962C15.0096 27.8803 13.5795 28.3656 12.1029 28.3724C11.7214 28.3716 11.3406 28.3404 10.9645 28.279C11.639 30.4425 12.2987 34.0267 10.6337 36.9946C8.5452 40.7177 8.10736 46.2452 13.4297 49.9589C14.2665 48.8863 14.7517 47.602 14.8243 46.2675C14.8278 46.0105 14.9373 45.7652 15.1292 45.5845C15.321 45.4038 15.5798 45.3023 15.8497 45.3019H15.8593C16.1303 45.3039 16.3894 45.4081 16.5798 45.5917C16.7702 45.7753 16.8765 46.0233 16.8753 46.2813C16.874 46.4979 16.7858 51.3821 11.9251 53.5298C11.6923 53.6325 11.4534 53.7312 11.1975 53.8206C10.0367 54.2276 9.31075 54.8794 8.98017 55.8128C8.23163 57.9222 9.57489 61.0862 11.0822 63.3421C11.2574 63.6046 11.4503 63.8792 11.648 64.1608C12.8785 65.9145 14.2743 67.9022 13.4484 69.572C13.2792 69.9142 13.287 70.4655 13.4638 71.1237L15.5297 69.8019C15.5092 69.6788 15.4934 69.5378 15.4744 69.3731C15.3846 68.5948 15.387 67.222 14.6569 66.3563C14.4141 66.074 14.2135 65.761 14.061 65.4263L11.5631 59.8048C11.31 59.2546 11.2083 58.652 11.2674 58.054C11.3242 57.4007 11.6251 56.7884 12.1154 56.3282C13.6213 54.9481 16.6415 52.4837 19.9467 51.4845C24.7759 50.0233 24.8286 43.1437 24.8286 43.0743C24.8286 42.8156 24.9364 42.5675 25.1283 42.3844C25.3202 42.2013 25.5805 42.0982 25.8522 42.0978H25.854C26.1252 42.0978 26.3854 42.2001 26.5776 42.3824C26.7698 42.5647 26.8783 42.8121 26.8794 43.0704C26.845 44.5385 26.597 45.9949 26.1425 47.3981C25.127 50.4937 23.1993 52.5507 20.5675 53.3468C20.1458 53.4766 19.7325 53.6299 19.3296 53.8058C21.0976 55.3649 25.8054 58.413 35.0023 57.5937C38.4126 57.289 41.6565 58.32 43.7499 59.2208C43.6748 57.4674 43.782 55.7111 44.0701 53.9778C44.1169 53.7227 44.2682 53.4957 44.4908 53.3468C44.7133 53.198 44.9888 53.1394 45.2567 53.184C45.5246 53.2286 45.763 53.3727 45.9193 53.5847C46.0756 53.7966 46.1371 54.059 46.0903 54.3142C45.833 55.9109 45.7353 57.5272 45.7985 59.1415C45.8983 61.3761 46.4164 64.3253 48.3183 65.6845C51.5587 68.0009 54.5334 70.6365 57.193 73.5476C58.2743 74.7389 58.8623 76.2649 58.8468 77.8395C58.8035 82.3431 59.0549 85.629 59.5192 86.6286C59.6507 86.9039 59.7239 87.2012 59.7344 87.5034C59.745 87.8057 59.6928 88.107 59.5807 88.3899L59.1911 89.4224L62.0179 89.3364C62.0694 89.3328 62.1193 89.3177 62.1635 89.2925C62.2078 89.2672 62.2453 89.2324 62.273 89.1909C62.3029 89.1482 62.3215 89.0993 62.3274 89.0484C62.3333 88.9974 62.3262 88.9458 62.3068 88.8979C62.2057 88.6419 62.0977 88.3614 61.9849 88.0614C60.9168 85.2181 60.9638 84.1311 61.1383 80.0864C61.1648 79.4739 61.1945 78.7892 61.2238 78.0147C61.2841 76.7566 61.0811 75.4996 60.6266 74.3169C60.1836 73.2425 59.4688 72.2889 58.5459 71.5407C54.2514 67.9233 55.7851 62.5409 56.3575 60.9772C56.4772 60.6497 56.57 60.3138 56.6352 59.9726C57.524 55.3198 56.8913 51.5284 54.7548 48.703C51.8183 44.8206 46.7268 43.6054 43.9534 43.2274C43.1059 43.118 42.2501 43.0777 41.3954 43.1069C38.9888 43.1697 36.5932 42.7744 34.3489 41.9442C32.483 41.2387 30.8286 40.1055 29.5327 38.6452C28.8295 37.8745 27.6829 37.1698 25.3017 36.0448C20.459 33.7571 18.5419 28.369 18.3627 24.0899C18.3527 23.8477 18.3948 23.606 18.4863 23.3797C18.5778 23.1534 18.7168 22.9473 18.8949 22.774C19.0729 22.6006 19.2862 22.4637 19.5217 22.3717C19.7572 22.2796 20.01 22.2342 20.2646 22.2384C21.7487 22.2599 23.0947 21.4876 24.2858 19.9317C24.6034 19.514 24.8886 19.0748 25.1391 18.6175C24.9968 18.614 24.852 18.6124 24.7084 18.6122C24.6754 18.6122 24.642 18.6153 24.6096 18.6122C22.7407 18.6206 20.7646 18.9247 20.3005 19.7437C20.214 19.9157 20.0768 20.0601 19.9057 20.1592C19.7345 20.2584 19.5368 20.308 19.3366 20.3021C19.1604 20.293 18.9894 20.2417 18.8395 20.153C18.6897 20.0642 18.5658 19.9408 18.4794 19.7942C19.415 18.3136 22.1208 18.03 24.0473 18.0308C30.5244 17.1694 35.1649 14.6735 37.8394 10.6112C40.0269 7.28857 40.5152 3.50928 40.4619 0.578613C40.2138 2.53389 39.7669 4.64111 39.05 6.17314C38.9561 6.37186 38.8125 6.54561 38.6318 6.67915C38.451 6.8127 38.2386 6.90197 38.0132 6.93912C37.7877 6.97628 37.5562 6.96018 37.3388 6.89225C37.1214 6.82433 36.9249 6.70664 36.7664 6.54951C35.4783 5.25791 34.0225 3.08428 33.2167 1.81514C33.1281 3.07275 33.4142 3.58408 33.9191 4.48584C34.3581 5.24559 34.7396 6.03418 35.0608 6.84561C36.0041 9.23428 35.6036 11.7698 34.0136 13.4624C33.7779 13.7139 33.5169 13.9429 33.2343 14.146C32.7421 14.4887 32.1784 14.7268 31.5812 14.8441C30.9841 14.9614 30.3675 14.9552 29.773 14.8259L29.2589 14.72C28.1317 14.4175 26.9333 14.4588 25.8321 14.8384C25.2643 14.9318 24.7241 15.1399 24.2478 15.4487C24.1782 15.5026 24.0966 15.5405 24.0092 15.5596C23.9218 15.5787 23.831 15.5785 23.7437 15.5589C23.6942 15.5469 23.6454 15.5323 23.5975 15.5153C23.3409 15.4242 23.1149 15.2689 22.9433 15.0657C22.7717 14.8624 22.6609 14.6189 22.6226 14.3606C22.6698 13.8491 22.7747 13.344 22.9353 12.8538C23.1847 12.081 23.869 9.77158 23.7599 8.06377C23.8106 7.54117 23.7609 7.01414 23.6133 6.5085C23.5255 6.25899 23.4649 6.0015 23.4326 5.74014C23.4189 5.80049 23.4068 5.86338 23.3939 5.92471C23.3822 4.59131 23.9031 3.05596 24.3405 2.00791C23.0432 3.304 21.7582 6.23018 21.864 10.144C21.9641 13.8493 20.2158 15.7771 18.2479 16.9739L18.0598 17.0761C17.7458 17.2525 17.3784 17.3229 17.0172 17.2759C16.7844 17.2423 16.5586 17.1741 16.348 17.0739C15.9722 16.9023 15.5874 16.7489 15.1953 16.6144C13.8405 16.1261 12.179 17.6335 11.5276 18.3042C10.8357 19.0115 9.95574 19.5273 8.98099 19.797L3.88849 21.2247C3.58087 22.4624 3.76667 23.0759 3.97934 23.3731C4.20964 23.6964 4.63641 23.8938 5.28302 23.9776Z" fill="white" stroke="#FF6600"/>
</svg>
