<svg width="107" height="102" viewBox="0 0 107 102" fill="none" xmlns="http://www.w3.org/2000/svg">
<path d="M86.3125 60.3751C86.3125 49.3387 84.0423 43.1987 82.1716 39.9946C79.8567 45.8523 72.9775 49.4376 63.3438 49.4376C55.9078 49.4376 50.1117 47.3017 46.7879 43.6345C43.9729 47.0929 41.9814 51.0931 40.9514 55.3576C38.3403 55.0947 35.8629 54.1248 33.8125 52.5626C33.8217 52.1498 33.7432 51.7395 33.5815 51.3564C33.4199 50.9733 33.1785 50.6253 32.872 50.3334C32.5655 50.0414 32.2 49.8116 31.7978 49.6576C31.3955 49.5037 30.9647 49.4288 30.5313 49.4376C29.8627 49.3467 29.181 49.4052 28.5403 49.6086C27.8996 49.812 27.3174 50.1547 26.8399 50.6095C26.3623 51.0643 26.0025 51.6188 25.7889 52.229C25.5753 52.8392 25.5139 53.4884 25.6094 54.1251C25.6094 57.2501 30.5313 58.8126 30.5313 58.8126C30.5313 58.8126 35.6087 60.8814 40.4587 62.2703C40.784 65.5611 41.6003 68.7909 42.8829 71.8622C43.8035 71.968 44.6921 72.2497 45.4956 72.6905C45.7761 72.8434 46.0469 73.012 46.3063 73.1956C48.0519 68.9354 51.4352 65.4682 55.7687 63.4986C64.1481 59.8655 73.4263 63.4642 73.8189 63.6206C74.2194 63.7805 74.537 64.0851 74.7021 64.4676C74.8672 64.8501 74.8663 65.2794 74.6996 65.6613C74.533 66.0432 74.2141 66.3466 73.8129 66.5049C73.4118 66.6633 72.961 66.6637 72.5595 66.5061C72.4762 66.4733 64.1722 63.2727 57.1081 66.352C53.1444 68.077 50.246 71.4896 48.4932 76.4945C48.3965 76.772 48.2197 77.0181 47.9832 77.2045C47.7466 77.3909 47.4598 77.5103 47.1554 77.5489C47.0832 77.558 47.0104 77.5626 46.9375 77.5626C46.6675 77.5625 46.4016 77.499 46.1635 77.3776C45.9254 77.2562 45.7224 77.0808 45.5725 76.8668C45.2815 76.4001 44.8908 75.9968 44.4256 75.6831C43.9605 75.3693 43.4313 75.1522 42.8724 75.0458C42.3135 74.9393 41.7373 74.9459 41.1812 75.0651C40.6252 75.1843 40.1016 75.4134 39.6445 75.7377C39.3982 75.8934 40.1279 82.2501 43.6563 82.2501H69.9063C69.9063 82.2501 86.3125 79.1251 86.3125 60.3751Z" fill="white" stroke="#FF6600"/>
<path d="M36.8358 50.8016C37.4106 51.1135 38.0139 51.3752 38.6383 51.5837C38.8225 51.0555 39.0182 50.5411 39.2252 50.0402L14.125 1H1L25.1941 47.9081C26.7334 46.8184 28.6142 46.2561 30.5312 46.3125C31.9601 46.2724 33.361 46.6943 34.5059 47.5095C35.6507 48.3247 36.472 49.4851 36.8358 50.8016Z" fill="white" stroke="#FF6600"/>
<path d="M32.7067 63.0127L37.0559 71.7572C37.667 71.3748 38.3181 71.0537 38.9987 70.799C38.2996 68.7903 37.7792 66.7292 37.443 64.6375C35.7144 64.0906 34.0739 63.5138 32.7067 63.0127Z" fill="white" stroke="#FF6600"/>
<path d="M89.4032 63.7591C87.8641 78.1499 76.6755 84.1475 70.5503 85.314L70.2315 85.375H43.829L46.9375 91.625V101H61.7031V91.625L106 71.3125V55.6875L89.4032 63.7591Z" fill="white" stroke="#FF6600"/>
<path d="M45.2969 30.6875C46.008 30.6862 46.7168 30.6117 47.411 30.4652C47.0999 32.0851 46.9415 33.7282 46.9376 35.375C46.9376 43.1875 55.1407 46.3125 63.3438 46.3125C71.5469 46.3125 79.7501 43.1875 79.7501 35.375C79.7462 33.7282 79.5877 32.0851 79.2766 30.4652C81.1221 30.8535 83.0459 30.7276 84.8183 30.1024C86.5906 29.4773 88.1365 28.3795 89.2713 26.9401C90.406 25.5006 91.0816 23.7805 91.2174 21.9852C91.3532 20.1898 90.9434 18.3953 90.0369 16.8158C89.1305 15.2364 87.7658 13.9388 86.1058 13.0783C84.4458 12.2177 82.5608 11.8305 80.6759 11.9629C78.7911 12.0953 76.9861 12.7417 75.4767 13.8249C73.9672 14.9081 72.8171 16.3822 72.1638 18.0712C69.6783 16.1259 66.5609 15.0625 63.3438 15.0625C60.1267 15.0625 57.0093 16.1259 54.5238 18.0712C53.9011 16.4645 52.8279 15.051 51.4208 13.9843C50.0138 12.9177 48.3268 12.2387 46.543 12.0211C44.7592 11.8035 42.9469 12.0556 41.303 12.7501C39.6591 13.4446 38.2465 14.5549 37.2187 15.9603C36.1908 17.3657 35.5871 19.0125 35.473 20.7218C35.3589 22.431 35.7388 24.1374 36.5715 25.6555C37.4042 27.1735 38.6578 28.4452 40.1961 29.3324C41.7344 30.2195 43.4986 30.6882 45.2969 30.6875ZM79.7501 18.1875C80.4558 18.1777 81.1555 18.3126 81.8016 18.583C82.4478 18.8534 83.0254 19.2529 83.4952 19.7546C83.965 20.2562 84.316 20.8482 84.5245 21.4904C84.7329 22.1326 84.7939 22.81 84.7033 23.4766C84.6128 24.1433 84.3727 24.7835 83.9995 25.3541C83.6262 25.9246 83.1285 26.412 82.5402 26.7832C81.9518 27.1544 81.2864 27.4008 80.5893 27.5056C79.8921 27.6105 79.1794 27.5713 78.4996 27.3907C77.7788 25.1267 76.6655 22.9933 75.2057 21.079C75.5782 20.2232 76.2088 19.4918 77.0176 18.9772C77.8264 18.4625 78.7773 18.1877 79.7501 18.1875ZM69.9063 26H73.1876V29.125H69.9063V26ZM59.2724 34.7202L60.7925 29.5268C60.9176 28.9708 61.2391 28.4724 61.7034 28.115C62.1677 27.7575 62.7467 27.5625 63.3438 27.5625C63.9409 27.5625 64.5199 27.7575 64.9842 28.115C65.4485 28.4724 65.77 28.9708 65.8952 29.5268L67.4152 34.7202C67.5177 35.1758 67.512 35.6475 67.3984 36.1007C67.2847 36.554 67.0661 36.9773 66.7585 37.3396C66.4509 37.702 66.0622 37.9943 65.6206 38.195C65.1791 38.3958 64.696 38.5 64.2068 38.5H62.4808C61.9916 38.5 61.5085 38.3958 61.067 38.195C60.6255 37.9943 60.2367 37.702 59.9291 37.3396C59.6215 36.9773 59.4029 36.554 59.2893 36.1007C59.1756 35.6475 59.1699 35.1758 59.2724 34.7202ZM53.5001 26H56.7813V29.125H53.5001V26ZM46.9376 18.1875C47.9103 18.1877 48.8612 18.4625 49.67 18.9772C50.4788 19.4918 51.1094 20.2232 51.4819 21.079C50.0221 22.9933 48.9088 25.1267 48.1881 27.3907C47.5122 27.5613 46.8059 27.5925 46.1163 27.4823C45.4267 27.3721 44.7698 27.123 44.1894 26.7517C43.609 26.3804 43.1185 25.8953 42.7507 25.329C42.3828 24.7627 42.1462 24.1281 42.0564 23.4677C41.9667 22.8073 42.026 22.1363 42.2303 21.4995C42.4347 20.8626 42.7794 20.2747 43.2414 19.7749C43.7035 19.2751 44.2722 18.8749 44.9096 18.6012C45.547 18.3274 46.2384 18.1864 46.9376 18.1875Z" fill="white" stroke="#FF6600"/>
</svg>
