<svg width="107" height="102" viewBox="0 0 107 102" fill="none" xmlns="http://www.w3.org/2000/svg">
<path d="M1.90725 29.9399C2.66347 30.7078 4.06106 30.7411 5.94866 30.04C6.08713 29.9871 6.23229 29.9704 6.37577 29.9907C6.51925 30.0111 6.65822 30.0682 6.78465 30.1587C6.91108 30.2492 7.02249 30.3713 7.11244 30.5181C7.2024 30.6649 7.26912 30.8333 7.30877 31.0137C7.34842 31.1942 7.36021 31.383 7.34346 31.5694C7.32671 31.7558 7.28175 31.9361 7.21118 32.0998C7.1406 32.2634 7.04581 32.4074 6.93226 32.5232C6.8187 32.639 6.68864 32.7245 6.54957 32.7747C5.59184 33.153 4.59851 33.3574 3.59775 33.3822C3.435 33.3822 3.27662 33.374 3.12131 33.36C3.03032 34.0623 3.15174 34.7831 3.46015 35.3717C4.0755 36.405 5.59625 36.845 7.7866 36.6419C7.92025 34.0273 8.45925 31.7613 9.34279 30.271C10.0957 29.0498 11.041 28.0523 12.115 27.3455C17.2386 23.8062 18.0593 18.6708 18.0926 15.9248C18.119 14.6121 18.3068 13.3134 18.6489 12.0778C18.8481 11.3349 18.8442 10.7155 18.6364 10.1833C18.2059 9.08122 17.0338 8.57581 17.0222 8.57126C16.8848 8.5169 16.757 8.42788 16.646 8.30928C16.5351 8.19069 16.4432 8.04484 16.3756 7.88006C16.308 7.71529 16.266 7.53482 16.252 7.34895C16.2381 7.16308 16.2524 6.97546 16.2942 6.7968C16.336 6.61814 16.4045 6.45193 16.4957 6.30767C16.5869 6.16341 16.6991 6.04392 16.8259 5.95603C16.9526 5.86813 17.0914 5.81356 17.2343 5.79541C17.3773 5.77726 17.5216 5.7959 17.659 5.85027C17.8695 5.9336 19.7396 6.72626 20.5868 8.89578C20.8245 9.53411 20.9586 10.2293 20.9805 10.938C21.0024 11.6466 20.9118 12.3536 20.7143 13.0147C20.4494 13.9631 20.3027 14.9605 20.2799 15.9692C20.239 19.3426 19.2572 25.6322 13.1414 29.8572C12.3436 30.3745 11.6395 31.1066 11.0759 32.0048C10.1874 33.5054 9.76826 36.5403 10.0082 39.7372C10.1555 41.917 10.6303 44.038 11.4058 45.9801C12.1353 43.3757 13.1538 40.9241 14.429 38.703C14.5131 38.5498 14.6197 38.4198 14.7428 38.3206C14.8659 38.2214 15.0028 38.1549 15.1458 38.1251C15.2888 38.0952 15.4349 38.1026 15.5756 38.1467C15.7164 38.1909 15.849 38.2709 15.9658 38.3822C16.0826 38.4935 16.1812 38.6338 16.2559 38.795C16.3307 38.9563 16.3801 39.1352 16.4012 39.3214C16.4224 39.5077 16.4149 39.6975 16.3792 39.8799C16.3434 40.0624 16.2802 40.2338 16.1932 40.3842C14.4979 43.3926 13.4155 46.3583 12.946 49.2816C12.9403 49.4114 12.9209 49.5397 12.8883 49.6627C12.2758 53.9434 12.9819 58.1144 15.0141 62.1343C16.1678 64.3601 17.6361 66.2807 19.341 67.7941C20.6992 69.0316 22.0734 70.8112 22.7251 74.4938C23.2168 72.378 23.2444 70.735 23.2719 69.1246C23.3422 64.9741 23.4084 61.0538 30.5799 51.9667C30.8045 51.6905 31.0071 51.3856 31.1848 51.0566C33.9894 45.6783 30.7825 38.1186 30.7497 38.0426C30.6083 37.7143 30.5728 37.3266 30.6508 36.9643C30.7289 36.602 30.9142 36.2947 31.1661 36.1097C31.4181 35.9247 31.7162 35.877 31.9951 35.9771C32.274 36.0772 32.5111 36.317 32.6543 36.6439C33.3391 38.3209 33.8502 40.1083 34.1742 41.9596C34.3007 42.6769 34.394 43.4035 34.4536 44.1354C37.6377 37.546 37.6843 27.705 36.4827 19.9214C35.5307 13.7553 33.2889 6.60482 31.0111 5.49845C28.7798 4.41539 26.8013 4.20692 25.0545 4.0229C23.443 3.85225 22.0513 3.70663 20.8714 2.90799C18.9973 1.61285 16.8775 1.04128 14.7619 1.26066C12.8137 1.48308 11.4483 2.3622 10.7034 3.87387C9.70985 5.89037 9.90607 8.68048 10.1821 10.4541C11.299 9.7827 12.537 9.52674 13.7589 9.71461C14.0426 9.77957 14.2951 9.98739 14.4616 10.293C14.6282 10.5985 14.6953 10.9772 14.6484 11.3467C14.6015 11.7162 14.4444 12.0467 14.2112 12.2665C13.978 12.4863 13.6875 12.5776 13.4028 12.5207C13.27 12.4953 10.6341 12.0443 8.78716 15.7328C8.48511 16.3604 8.23493 17.0278 8.04079 17.7237C6.87441 21.6885 2.78575 24.6652 1.0819 25.7613C1.05959 25.7752 1.0406 25.7966 1.02696 25.8234C1.01332 25.8502 1.00554 25.8814 1.00446 25.9135C0.955682 27.9567 1.2499 29.2738 1.90725 29.9399Z" fill="white" stroke="#FF6600"/>
<path d="M88.3712 28.7541C91.056 28.2472 93.7825 28.2385 96.4692 28.7282C96.5417 27.8029 96.8602 26.9395 97.3698 26.2868C95.8472 24.8055 93.0682 22.7031 90.4671 23.9065C89.3592 24.4088 88.3176 25.1305 87.3792 26.0461C86.3086 27.0305 85.4409 27.7256 83.8354 27.7273C84.7115 28.551 86.126 29.1861 88.3712 28.7541Z" fill="white" stroke="#FF6600"/>
<path d="M40.9049 73.8501C39.6318 74.2651 38.6737 74.6547 38.1075 74.9024C37.7938 77.1506 37.2869 79.3459 36.5964 81.4471C36.2282 82.5931 35.9137 83.7671 35.6545 84.9625L32.6902 98.4804H36.4728C36.6308 98.4805 36.7868 98.4343 36.9292 98.3453C37.0715 98.2562 37.1967 98.1266 37.2952 97.9661C37.3938 97.8056 37.4633 97.6182 37.4986 97.418C37.5339 97.2178 37.534 97.0098 37.499 96.8095L36.8193 92.9238C36.6754 92.0997 36.7254 91.2384 36.9628 90.4517C38.5852 85.0496 39.9027 79.5011 40.9049 73.8501Z" fill="white" stroke="#FF6600"/>
<path d="M94.9527 97.9024L92.5112 98.4038C92.1843 98.471 91.889 98.6962 91.6844 99.0344L90.9292 100.283C90.9043 100.324 90.8886 100.373 90.8838 100.425C90.8791 100.477 90.8855 100.53 90.9024 100.578C90.9193 100.625 90.946 100.666 90.9795 100.695C91.0131 100.724 91.0521 100.741 91.0924 100.743L99.2982 101.171L101.576 91.5122C101.741 90.8102 101.778 90.0679 101.685 89.3438C101.592 88.6198 101.37 87.9339 101.038 87.3404L98.9613 83.6319C95.8748 78.0816 93.6572 71.7968 92.4347 65.1347C91.7233 61.421 90.6601 57.8364 89.2696 54.4632C87.8665 53.9476 86.4951 53.2961 85.1669 52.5141C85.1075 52.478 85.0421 52.4615 84.9766 52.4661C84.9111 52.4706 84.8475 52.4961 84.7913 52.5402C84.7357 52.5818 84.6888 52.6406 84.6548 52.7113C84.6208 52.7821 84.6006 52.8626 84.5962 52.9458C84.4212 55.8235 83.6193 62.6648 80.0024 70.0391C80.5949 71.7764 81.377 73.3933 82.3247 74.8401C84.7795 78.6325 88.0798 81.193 92.1332 82.4507C92.8566 82.6709 93.5055 83.1905 93.9821 83.9314L94.0287 84.0036C95.2677 85.9271 98.1699 90.4314 97.2605 95.1897C97.1241 95.8871 96.8323 96.5166 96.4217 96.9992C96.0112 97.4818 95.5001 97.796 94.9527 97.9024Z" fill="white" stroke="#FF6600"/>
<path d="M34.2289 49.0246C33.9859 50.3186 33.5682 51.5464 32.9954 52.6509C32.735 53.1394 32.4372 53.5924 32.1064 54.0027C25.5756 62.2791 25.524 65.3267 25.4588 69.1862C25.4544 70.2809 25.4013 71.3744 25.3 72.4612L27.0975 93.5099C27.1606 94.2177 27.0158 94.9303 26.692 95.5052C26.3682 96.08 25.8894 96.4746 25.3514 96.61C24.3194 96.8686 23.3422 97.4126 22.4861 98.2051C21.6299 98.9976 20.9147 100.02 20.389 101.203L29.4606 101.215C29.563 101.214 29.6624 101.171 29.7441 101.091C29.8258 101.01 29.8853 100.898 29.9136 100.77L33.5508 84.1828C33.8344 82.8764 34.1784 81.5936 34.5811 80.3412C38.0719 69.5869 34.9243 62.6082 34.8922 62.5391C34.8179 62.3793 34.7685 62.202 34.7468 62.0174C34.7252 61.8328 34.7317 61.6444 34.7661 61.4631C34.8004 61.2818 34.8619 61.111 34.947 60.9606C35.0321 60.8101 35.1392 60.683 35.2621 60.5863C35.385 60.4897 35.5213 60.4254 35.6633 60.3973C35.8053 60.3692 35.9502 60.3777 36.0897 60.4224C36.2291 60.467 36.3605 60.5469 36.4762 60.6576C36.5919 60.7683 36.6897 60.9075 36.764 61.0673C36.8734 61.3008 38.6661 65.2823 38.3874 71.7925C41.7601 70.451 49.8576 67.9126 59.0969 69.877C58.8381 59.8101 62.8417 48.1574 63.076 47.4847C63.1958 47.1412 63.4156 46.8736 63.6871 46.7409C63.9586 46.6081 64.2596 46.621 64.5238 46.7767C64.788 46.9324 64.9938 47.2182 65.0959 47.5712C65.198 47.9243 65.1881 48.3156 65.0683 48.6591C64.9948 48.8704 57.7875 69.8463 63.3667 78.1666L72.3236 90.1404C72.5451 90.4365 72.7076 90.7983 72.7971 91.1945C72.8866 91.5907 72.9004 92.0093 72.8372 92.4141C72.774 92.8188 72.6358 93.1973 72.4346 93.5168C72.2334 93.8363 71.9752 94.0871 71.6825 94.2474L67.1375 96.7363C66.4573 97.1058 65.8511 97.6725 65.3651 98.3933C64.8791 99.114 64.5263 99.9696 64.3336 100.895L64.2664 101.214H71.7501C71.7904 101.214 71.8301 101.202 71.8663 101.179C71.9024 101.156 71.9341 101.123 71.959 101.082L77.7637 91.3529C78.0273 90.9086 78.1615 90.3573 78.1424 89.7967C78.1233 89.2361 77.9523 88.7024 77.6596 88.29C76.2988 86.3483 75.685 84.7183 74.9668 82.2078C74.4838 80.4998 74.3485 78.6585 74.574 76.8625C74.7995 75.0665 75.3782 73.3768 76.2539 71.9572C81.2528 63.8798 82.2282 55.8144 82.4155 52.7217C82.4486 52.1827 82.5811 51.662 82.8017 51.2037C83.0223 50.7453 83.3245 50.3627 83.6827 50.0882C84.041 49.8137 84.4449 49.6553 84.8601 49.6265C85.2754 49.5977 85.6899 49.6993 86.0686 49.9228C96.2368 55.91 101.256 51.1526 103.343 47.7842C105.589 44.1579 106.417 40.5442 105.803 37.043C105.026 32.6101 102.161 29.4346 99.9448 28.062C99.7365 27.9393 99.5004 27.922 99.2828 28.0136C99.0651 28.1052 98.8816 28.299 98.7681 28.5572C98.6545 28.8154 98.6192 29.1193 98.6688 29.4096C98.7185 29.6999 98.8497 29.9557 99.0368 30.1269C103.329 34.0279 103.893 37.7438 103.61 40.1741C103.196 43.733 100.594 47.0041 96.9807 48.5075C93.7585 49.8479 90.7612 49.344 89.1578 47.1921C86.4144 43.5106 83.5267 42.613 82.0484 42.4062C80.9035 42.2468 79.8531 41.5071 79.125 40.3473C75.7781 35.0524 71.231 33.1545 65.6106 34.7063C61.9509 35.7168 58.5857 36.1568 55.6076 36.0194C52.4231 35.872 49.3557 34.4206 46.8432 31.8724C44.3307 29.3241 42.5014 25.8092 41.6164 21.8291C40.4043 16.4209 38.3874 12.6994 36.4392 10.1914C37.4244 13.1345 38.1575 16.2096 38.6254 19.3612C40.1323 29.1115 39.7454 41.9423 34.2289 49.0246Z" fill="white" stroke="#FF6600"/>
</svg>
